<svg width="475" height="475" viewBox="0 0 475 475" fill="none" xmlns="http://www.w3.org/2000/svg">
<g clip-path="url(#clip0_64_245)">
<path d="M43.6824 312.471H431.682" stroke="#1B303D" stroke-width="6"/>
<circle cx="237.43" cy="128.454" r="11.4831" stroke="#1B303D" stroke-width="3"/>
<path d="M231.854 136.889H242.853L242.831 139.864L242.598 171.271L240.731 422.526V422.537C240.731 423.109 240.375 424 239.638 424.791C238.909 425.574 238.06 425.99 237.354 425.99C236.649 425.99 235.804 425.575 235.077 424.793C234.342 424.002 233.981 423.107 233.976 422.526L233.964 420.847L233.951 419.174L233.939 417.508L233.927 415.848L233.914 414.195L233.902 412.549L233.878 409.275L233.866 407.648L233.854 406.027L233.842 404.413L233.83 402.805L233.818 401.204L233.806 399.609L233.794 398.02L233.782 396.438L233.771 394.862L233.759 393.293L233.747 391.73L233.736 390.173L233.724 388.622L233.713 387.078L233.701 385.54L233.69 384.009L233.679 382.483L233.667 380.964L233.656 379.451L233.645 377.945L233.634 376.444L233.623 374.95L233.612 373.462L233.601 371.98L233.59 370.505L233.579 369.035L233.557 366.114L233.546 364.663L233.536 363.218L233.525 361.779L233.514 360.346L233.504 358.919L233.493 357.499L233.483 356.084L233.472 354.675L233.462 353.272L233.451 351.876L233.441 350.485L233.431 349.1L233.42 347.721L233.41 346.348L233.4 344.981L233.39 343.62L233.38 342.265L233.37 340.916L233.36 339.572L233.35 338.235L233.34 336.903L233.33 335.577L233.32 334.257L233.311 332.943L233.301 331.635L233.291 330.332L233.282 329.035L233.272 327.744L233.262 326.459L233.253 325.18L233.243 323.906L233.234 322.638L233.225 321.375L233.215 320.118L233.206 318.867L233.197 317.622L233.188 316.382L233.178 315.148L233.169 313.92L233.16 312.697L233.142 310.268L233.133 309.062L233.124 307.861L233.115 306.666L233.106 305.476L233.098 304.292L233.089 303.114L233.08 301.941L233.072 300.774L233.063 299.611L233.054 298.455L233.046 297.304L233.037 296.158L233.029 295.018L233.02 293.883L233.012 292.753L233.004 291.629L232.995 290.511L232.987 289.397L232.979 288.289L232.971 287.186L232.962 286.089L232.954 284.997L232.946 283.91L232.938 282.829L232.93 281.752L232.922 280.681L232.914 279.615L232.906 278.555L232.899 277.499L232.891 276.449L232.883 275.404L232.875 274.365L232.868 273.33L232.86 272.3L232.852 271.276L232.845 270.257L232.837 269.243L232.83 268.234L232.822 267.23L232.815 266.231L232.807 265.237L232.8 264.248L232.793 263.265L232.786 262.286L232.778 261.312L232.771 260.343L232.764 259.38L232.757 258.421L232.75 257.467L232.743 256.518L232.736 255.574L232.729 254.635L232.722 253.701L232.715 252.772L232.708 251.847L232.701 250.928L232.694 250.013L232.688 249.103L232.681 248.199L232.674 247.298L232.668 246.403L232.661 245.512L232.654 244.627L232.648 243.746L232.641 242.869L232.635 241.998L232.628 241.131L232.622 240.269L232.616 239.411L232.609 238.559L232.603 237.711L232.597 236.867L232.59 236.028L232.584 235.194L232.578 234.365L232.572 233.54L232.566 232.72L232.56 231.904L232.554 231.093L232.548 230.286L232.542 229.484L232.536 228.687L232.53 227.894L232.524 227.105L232.518 226.321L232.512 225.542L232.507 224.767L232.501 223.996L232.495 223.23L232.49 222.468L232.484 221.711L232.478 220.958L232.473 220.209L232.467 219.465L232.462 218.726L232.456 217.99L232.451 217.259L232.446 216.532L232.44 215.81L232.435 215.092L232.43 214.378L232.424 213.668L232.419 212.963L232.414 212.262L232.409 211.565L232.403 210.872L232.398 210.184L232.393 209.5L232.388 208.82L232.383 208.144L232.378 207.472L232.373 206.805L232.363 205.482L232.359 204.827L232.354 204.176L232.349 203.529L232.344 202.886L232.339 202.247L232.335 201.612L232.33 200.981L232.325 200.355L232.321 199.732L232.316 199.113L232.312 198.498L232.307 197.887L232.302 197.28L232.298 196.677L232.294 196.078L232.289 195.483L232.285 194.892L232.28 194.305L232.276 193.721L232.272 193.142L232.267 192.566L232.263 191.994L232.259 191.426L232.255 190.862L232.251 190.301L232.246 189.745L232.242 189.192L232.238 188.643L232.234 188.097L232.23 187.556L232.226 187.018L232.222 186.484L232.218 185.953L232.214 185.426L232.211 184.903L232.207 184.384L232.203 183.868L232.199 183.356L232.195 182.847L232.191 182.342L232.188 181.841L232.184 181.343L232.18 180.849L232.177 180.358L232.173 179.871L232.17 179.387L232.166 178.907L232.162 178.43L232.159 177.957L232.155 177.488L232.152 177.022L232.149 176.559L232.145 176.1L232.142 175.644L232.138 175.191L232.135 174.742L232.109 171.271L232.106 170.852L232.103 170.436L232.1 170.024L232.097 169.615L232.091 168.806L232.088 168.406L232.085 168.01L232.082 167.617L232.079 167.227L232.076 166.84L232.073 166.456L232.071 166.076L232.068 165.698L232.065 165.324L232.062 164.953L232.06 164.585L232.057 164.22L232.054 163.858L232.051 163.499L232.049 163.143L232.046 162.79L232.044 162.44L232.041 162.093L232.038 161.749L232.036 161.408L232.033 161.07L232.031 160.735L232.028 160.402L232.026 160.073L232.024 159.747L232.021 159.423L231.986 154.63L231.983 154.354L231.981 154.08L231.979 153.809L231.977 153.54L231.975 153.275L231.974 153.011L231.972 152.751L231.97 152.493L231.968 152.237L231.966 151.984L231.964 151.734L231.962 151.486L231.96 151.241L231.959 150.998L231.957 150.758L231.955 150.52L231.953 150.285L231.952 150.052L231.95 149.821L231.948 149.593L231.946 149.368L231.945 149.144L231.943 148.923L231.942 148.705L231.94 148.489L231.938 148.275L231.937 148.064L231.935 147.855L231.934 147.648L231.932 147.443L231.931 147.241L231.929 147.041L231.928 146.843L231.926 146.648L231.925 146.455L231.923 146.264L231.922 146.075L231.921 145.888L231.919 145.704L231.918 145.522L231.917 145.342L231.915 145.164L231.914 144.988L231.913 144.814L231.911 144.643L231.91 144.473L231.909 144.306L231.908 144.141L231.906 143.977L231.905 143.816L231.904 143.657L231.903 143.5L231.902 143.344L231.901 143.191L231.899 143.04L231.898 142.891L231.897 142.743L231.896 142.598L231.895 142.455L231.894 142.313L231.893 142.173L231.892 142.036L231.891 141.9L231.89 141.766L231.889 141.634L231.888 141.503L231.887 141.375L231.886 141.248L231.885 141.123L231.884 141L231.882 140.759L231.882 140.641L231.881 140.525L231.88 140.411L231.879 140.298L231.878 140.187L231.877 140.078L231.877 139.97L231.876 139.864L231.875 139.76L231.874 139.657L231.874 139.556L231.873 139.457L231.872 139.359L231.871 139.262L231.871 139.168L231.87 139.074L231.869 138.983L231.869 138.893L231.868 138.804L231.867 138.717L231.867 138.631L231.866 138.547L231.865 138.464L231.865 138.383L231.864 138.303L231.864 138.225L231.863 138.148L231.863 138.073L231.862 137.998L231.861 137.926L231.861 137.854L231.86 137.784L231.86 137.715L231.859 137.648L231.859 137.582L231.858 137.517L231.858 137.453L231.857 137.391L231.857 137.33L231.857 137.27L231.856 137.212L231.856 137.154L231.855 137.098L231.855 137.043L231.854 136.937L231.854 136.889Z" fill="#1B303D" stroke="#1B303D" stroke-width="3"/>
<circle cx="237.43" cy="128.454" r="9.98313" fill="#1B303D"/>
<path d="M222.02 185.38V164.957L217.143 164.957C202.13 164.957 186.6 178.217 186.6 196.735C186.6 234.839 258.691 249.242 258.691 274.466C258.691 299.691 211.748 307.693 211.748 338.023C211.748 368.354 246.27 367.668 246.27 383.671V401.046C256.253 401.046 256.253 390.987 256.253 383.671C256.253 362.409 224.017 353.874 224.017 338.023C224.017 322.172 273.971 308.226 273.971 274.466C273.971 240.707 202.587 215.025 202.587 196.735C202.587 190.181 209.217 185.38 211.961 185.38H222.02Z" fill="#1B303D" stroke="#1B303D"/>
<path d="M252.573 185.38V164.957L257.45 164.957C272.463 164.957 287.993 178.217 287.993 196.735C287.993 234.839 215.901 249.242 215.901 274.466C215.901 299.691 262.845 307.693 262.845 338.023C262.845 368.354 228.323 367.668 228.323 383.671V401.046C218.34 401.046 218.34 390.987 218.34 383.671C218.34 362.409 250.575 353.874 250.575 338.023C250.575 322.172 200.622 308.226 200.622 274.466C200.622 240.707 272.005 215.025 272.005 196.735C272.005 190.181 265.375 185.38 262.632 185.38H252.573Z" fill="#1B303D" stroke="#1B303D"/>
<path d="M128.682 118.471H206.795C206.795 132.417 218.454 142.704 222.417 143.314V156.117H181.951C177.607 156.117 170.596 150.401 170.596 145.448H158.479C152.611 145.448 147.81 139.199 147.81 134.017H140.037C134.245 134.017 128.682 127.692 128.682 123.424V118.471Z" fill="#1B303D" stroke="#1B303D" stroke-width="7"/>
<path d="M346.101 118.471H267.989C267.989 132.416 256.329 142.704 252.366 143.314V156.117H292.832C297.176 156.117 304.187 150.401 304.187 145.448H316.304C322.172 145.448 326.973 139.199 326.973 134.017H334.746C340.538 134.017 346.101 127.692 346.101 123.424V118.471Z" fill="#1B303D" stroke="#1B303D" stroke-width="7"/>
<path d="M10.9904 298.193C1.68083 263.449 0.488573 227.03 7.50585 191.751C14.5231 156.473 29.5619 123.282 51.4586 94.7455C73.3554 66.209 101.523 43.0922 133.783 27.1833C166.043 11.2745 201.531 3 237.5 3C273.469 3 308.957 11.2745 341.217 27.1833C373.477 43.0922 401.645 66.209 423.541 94.7455C445.438 123.282 460.477 156.473 467.494 191.751C474.511 227.03 473.319 263.449 464.01 298.193" stroke="#1B303D" stroke-width="5" stroke-linejoin="bevel" stroke-dasharray="7 7"/>
<path d="M440.583 354.75C420.001 390.399 390.398 420.001 354.75 440.583C319.101 461.165 278.663 472 237.5 472C196.337 472 155.898 461.165 120.25 440.583C84.6014 420.001 54.9987 390.399 34.417 354.75" stroke="#1B303D" stroke-width="5" stroke-linejoin="bevel" stroke-dasharray="7 7"/>
<path d="M128.682 254.471C133.101 254.471 136.682 250.889 136.682 246.471C136.682 242.052 133.101 238.471 128.682 238.471C124.264 238.471 120.682 242.052 120.682 246.471C120.682 250.889 124.264 254.471 128.682 254.471ZM130.182 312.471L130.182 246.471L127.182 246.471L127.182 312.471L130.182 312.471Z" fill="#1B303D"/>
<path d="M98.6824 348.471C94.2641 348.471 90.6824 352.052 90.6824 356.471C90.6824 360.889 94.2641 364.471 98.6824 364.471C103.101 364.471 106.682 360.889 106.682 356.471C106.682 352.052 103.101 348.471 98.6824 348.471ZM97.1824 312.471L97.1824 356.471L100.182 356.471L100.182 312.471L97.1824 312.471Z" fill="#1B303D"/>
<path d="M157.682 348.471C153.264 348.471 149.682 352.052 149.682 356.471C149.682 360.889 153.264 364.471 157.682 364.471C162.101 364.471 165.682 360.889 165.682 356.471C165.682 352.052 162.101 348.471 157.682 348.471ZM156.182 312.471L156.182 356.471L159.182 356.471L159.182 312.471L156.182 312.471Z" fill="#1B303D"/>
<path d="M315.682 348.471C311.264 348.471 307.682 352.052 307.682 356.471C307.682 360.889 311.264 364.471 315.682 364.471C320.101 364.471 323.682 360.889 323.682 356.471C323.682 352.052 320.101 348.471 315.682 348.471ZM314.182 312.471L314.182 356.471L317.182 356.471L317.182 312.471L314.182 312.471Z" fill="#1B303D"/>
<path d="M374.682 348.471C370.264 348.471 366.682 352.052 366.682 356.471C366.682 360.889 370.264 364.471 374.682 364.471C379.101 364.471 382.682 360.889 382.682 356.471C382.682 352.052 379.101 348.471 374.682 348.471ZM373.182 312.471L373.182 356.471L376.182 356.471L376.182 312.471L373.182 312.471Z" fill="#1B303D"/>
<path d="M345.682 254.471C350.101 254.471 353.682 250.889 353.682 246.471C353.682 242.052 350.101 238.471 345.682 238.471C341.264 238.471 337.682 242.052 337.682 246.471C337.682 250.889 341.264 254.471 345.682 254.471ZM347.182 312.471L347.182 246.471L344.182 246.471L344.182 312.471L347.182 312.471Z" fill="#1B303D"/>
<circle cx="43.6824" cy="312.471" r="17" stroke="#1B303D" stroke-width="4"/>
<path d="M41.49 300.047H45.8747V310.278H56.1054V312.471V314.663H45.8747V324.894H41.49V314.663H31.2593V312.471V310.278H41.49V300.047Z" fill="#1B303D" stroke="#1B303D" stroke-width="2" stroke-linejoin="round"/>
<path d="M453.682 312.471L420.682 331.523L420.682 293.418L453.682 312.471Z" fill="#1B303D"/>
</g>
<defs>
<clipPath id="clip0_64_245">
<rect width="475" height="475" fill="white"/>
</clipPath>
</defs>
</svg>