<?xml version="1.0" encoding="UTF-8" standalone="no"?>
<svg
   xmlns:dc="http://purl.org/dc/elements/1.1/"
   xmlns:cc="http://creativecommons.org/ns#"
   xmlns:rdf="http://www.w3.org/1999/02/22-rdf-syntax-ns#"
   xmlns:svg="http://www.w3.org/2000/svg"
   xmlns="http://www.w3.org/2000/svg"
   viewBox="0 0 693.94293 329.36801"
   height="329.36801"
   width="693.94293"
   xml:space="preserve"
   id="svg2"
   version="1.1"><metadata
     id="metadata8"><rdf:RDF><cc:Work
         rdf:about=""><dc:format>image/svg+xml</dc:format><dc:type
           rdf:resource="http://purl.org/dc/dcmitype/StillImage" /></cc:Work></rdf:RDF></metadata><defs
     id="defs6"><clipPath
       id="clipPath14"
       clipPathUnits="userSpaceOnUse"><path
         id="path12"
         d="M 0,0 H 595.28 V 841.89 H 0 Z" /></clipPath><clipPath
       id="clipPath22"
       clipPathUnits="userSpaceOnUse"><path
         id="path20"
         d="M 0,841.89 H 595.28 V 0 H 0 Z" /></clipPath></defs><g
     clip-path="url(#clipPath14)"
     transform="matrix(1.3333333,0,0,-1.3333333,-64.527733,939.58)"
     id="g10"><g
       id="g16"><g
         clip-path="url(#clipPath22)"
         id="g18"><g
           transform="translate(345.5151,620.097)"
           id="g24"><path
             id="path26"
             style="fill:#102d57;fill-opacity:1;fill-rule:nonzero;stroke:none"
             d="M 0,0 C 2.44,-0.788 5.064,0.545 5.854,2.986 6.645,5.427 5.311,8.048 2.871,8.84 0.43,9.637 -2.189,8.295 -2.98,5.854 -3.774,3.414 -2.441,0.797 0,0" /></g><g
           transform="translate(343.1709,562.6849)"
           id="g28"><path
             id="path30"
             style="fill:#102d57;fill-opacity:1;fill-rule:nonzero;stroke:none"
             d="M 0,0 C 2.535,0.403 4.267,2.78 3.864,5.313 3.464,7.851 1.084,9.579 -1.453,9.176 -3.986,8.773 -5.714,6.4 -5.307,3.858 -4.909,1.325 -2.533,-0.398 0,0" /></g><g
           transform="translate(367.1523,510.4647)"
           id="g32"><path
             id="path34"
             style="fill:#102d57;fill-opacity:1;fill-rule:nonzero;stroke:none"
             d="m 0,0 c 2.076,1.51 2.538,4.416 1.036,6.492 -1.514,2.076 -4.42,2.533 -6.5,1.023 C -7.54,6.014 -7.993,3.107 -6.483,1.027 -4.978,-1.048 -2.076,-1.51 0,0" /></g><g
           transform="translate(412.2227,474.8221)"
           id="g36"><path
             id="path38"
             style="fill:#102d57;fill-opacity:1;fill-rule:nonzero;stroke:none"
             d="M 0,0 C 1.17,2.286 0.26,5.087 -2.021,6.253 -4.315,7.418 -7.108,6.504 -8.278,4.219 -9.44,1.933 -8.53,-0.86 -6.236,-2.03 -3.951,-3.196 -1.166,-2.286 0,0" /></g><g
           transform="translate(468.5698,463.5282)"
           id="g40"><path
             id="path42"
             style="fill:#102d57;fill-opacity:1;fill-rule:nonzero;stroke:none"
             d="m 0,0 c 0,2.571 -2.072,4.647 -4.638,4.647 -2.575,0 -4.655,-2.076 -4.655,-4.647 0,-2.566 2.08,-4.643 4.655,-4.638 C -2.076,-4.643 0,-2.566 0,0" /></g><g
           transform="translate(394.4746,686.8029)"
           id="g44"><path
             id="path46"
             style="fill:#102d57;fill-opacity:1;fill-rule:nonzero;stroke:none"
             d="m 0,0 -2.042,-1.736 8.828,-10.363 c 2.478,-2.906 3.044,-5.666 1.828,-8.811 -0.629,-1.573 -1.661,-3.011 -2.994,-4.148 -3.942,-3.359 -9.076,-3.225 -12.112,0.34 l -9.478,11.122 -2.038,-1.736 -0.855,1.006 6.47,5.511 0.86,-1.007 -2.042,-1.736 8.761,-10.283 c 2.801,-3.288 6.563,-3.791 9.583,-1.221 3.099,2.638 3.317,6.627 0.536,9.894 l -8.735,10.249 -2.038,-1.736 -0.856,1.006 5.465,4.655 z" /></g><g
           transform="translate(426.1626,678.7006)"
           id="g48"><path
             id="path50"
             style="fill:#102d57;fill-opacity:1;fill-rule:nonzero;stroke:none"
             d="m 0,0 -7.138,-3.779 -0.616,1.17 2.369,1.25 -4.898,9.252 c -0.889,1.677 -2.29,2.268 -3.682,1.534 -1.355,-0.721 -1.828,-1.736 -2.902,-6.349 l 4.345,-8.211 2.398,1.27 0.621,-1.169 -7.171,-3.792 -0.621,1.166 2.399,1.271 -6.014,11.369 -2.747,-1.455 -0.448,0.851 3.891,3.64 0.57,0.302 1.871,-3.539 c 0.914,4 1.824,5.573 3.841,6.643 2.341,1.237 4.597,0.49 5.88,-1.946 l 5.066,-9.566 2.365,1.254 z" /></g><g
           transform="translate(423.8184,703.5275)"
           id="g52"><path
             id="path54"
             style="fill:#102d57;fill-opacity:1;fill-rule:nonzero;stroke:none"
             d="M 0,0 C 1.011,0.344 2.059,-0.168 2.395,-1.145 2.738,-2.16 2.227,-3.204 1.216,-3.552 0.235,-3.888 -0.81,-3.376 -1.153,-2.361 -1.493,-1.384 -0.981,-0.335 0,0 m 11.948,-21.854 -7.67,-2.629 -0.432,1.25 2.571,0.88 -4.173,12.171 -2.94,-1.015 -0.315,0.914 4.416,2.99 0.608,0.206 4.941,-14.393 2.566,0.876 z" /></g><g
           transform="translate(448.8799,699.7865)"
           id="g56"><path
             id="path58"
             style="fill:#102d57;fill-opacity:1;fill-rule:nonzero;stroke:none"
             d="m 0,0 -1.472,-0.302 -2.658,-16.179 -0.701,-0.143 -9.168,13.747 -1.476,-0.264 -0.264,1.296 6.794,1.375 0.26,-1.291 -2.449,-0.499 6.261,-9.487 1.824,11.126 -2.34,-0.478 -0.264,1.3 5.389,1.095 z" /></g><g
           transform="translate(465.6509,688.6102)"
           id="g60"><path
             id="path62"
             style="fill:#102d57;fill-opacity:1;fill-rule:nonzero;stroke:none"
             d="m 0,0 c -1.946,-1.371 -2.898,-1.766 -4.328,-1.824 -3.388,-0.139 -5.871,2.868 -6.056,7.33 L -10.4,5.901 0.847,6.362 0.805,7.326 c -0.159,3.859 -2.91,6.392 -6.764,6.232 -4.425,-0.184 -7.528,-3.958 -7.318,-8.957 0.201,-4.924 3.556,-8.296 8.093,-8.103 2.068,0.084 3.301,0.562 5.913,2.206 z m -10.426,7.326 c 0.21,2.802 1.959,4.626 4.563,4.731 2.072,0.088 3.598,-1.388 3.691,-3.531 L -2.139,7.67 Z" /></g><g
           transform="translate(477.3892,684.7689)"
           id="g64"><path
             id="path66"
             style="fill:#102d57;fill-opacity:1;fill-rule:nonzero;stroke:none"
             d="m 0,0 -8.777,0.902 0.133,1.316 2.702,-0.276 1.316,12.79 -3.095,0.319 0.101,0.965 5.259,0.855 0.637,-0.067 -0.406,-3.98 c 2.898,3.007 3.896,3.695 5.179,3.565 C 3.477,16.343 3.82,16.2 4.013,15.965 L 5.011,14.892 2.696,12.619 C 2.055,13.365 1.589,13.734 1.237,13.776 0.591,13.839 -0.105,13.298 -2.302,11.117 L -3.275,1.665 0.134,1.312 Z" /></g><g
           transform="translate(483.1641,683.515)"
           id="g68"><path
             id="path70"
             style="fill:#102d57;fill-opacity:1;fill-rule:nonzero;stroke:none"
             d="M 0,0 -1.388,0.335 -0.193,5.267 1.405,4.881 1.174,3.942 C 0.813,2.449 2.44,0.658 4.596,0.134 6.5,-0.327 8.169,0.335 8.505,1.723 8.844,3.112 8.06,4.11 4.755,6.425 1.736,8.513 0.864,10.086 1.396,12.271 c 0.659,2.709 3.292,4.017 6.488,3.246 1.527,-0.369 2.617,-1.04 3.393,-2.072 l 0.512,1.199 1.492,-0.36 L 11.23,9.482 9.742,9.847 c 0.231,0.344 0.406,0.78 0.487,1.09 0.331,1.359 -0.965,2.848 -2.84,3.301 C 5.586,14.678 4.168,13.99 3.804,12.497 3.443,11.004 3.64,10.769 7.431,8.052 10.509,5.871 11.306,4.466 10.765,2.239 10.09,-0.537 7.465,-1.954 4.378,-1.208 2.432,-0.738 1.082,0.067 0.302,1.25 Z" /></g><g
           transform="translate(507.5923,702.2189)"
           id="g72"><path
             id="path74"
             style="fill:#102d57;fill-opacity:1;fill-rule:nonzero;stroke:none"
             d="m 0,0 c 1.002,-0.377 1.48,-1.438 1.116,-2.407 -0.382,-1.007 -1.439,-1.485 -2.441,-1.107 -0.969,0.369 -1.447,1.426 -1.07,2.432 C -2.025,-0.113 -0.969,0.365 0,0 m -4.726,-24.454 -7.591,2.865 0.47,1.237 2.541,-0.96 4.542,12.036 -2.906,1.098 0.335,0.898 5.31,-0.512 0.604,-0.226 -5.381,-14.242 2.537,-0.957 z" /></g><g
           transform="translate(513.5645,674.1796)"
           id="g76"><path
             id="path78"
             style="fill:#102d57;fill-opacity:1;fill-rule:nonzero;stroke:none"
             d="m 0,0 c -2.361,-0.495 -3.146,-0.461 -4.333,0.13 -1.849,0.927 -2.39,2.638 -1.417,4.584 l 4.932,9.88 -2.776,1.384 0.427,0.864 3.133,-0.688 2.202,4.412 L 4.475,19.417 2.218,14.913 6.181,12.929 5.447,11.461 1.484,13.441 -3.309,3.854 C -3.913,2.642 -3.72,1.988 -2.667,1.455 -1.997,1.124 -1.514,1.04 -0.113,1.141 Z" /></g><g
           transform="translate(523.5664,670.0531)"
           id="g80"><path
             id="path82"
             style="fill:#102d57;fill-opacity:1;fill-rule:nonzero;stroke:none"
             d="M 0,0 C -2.08,-0.26 -3.137,-0.143 -4.076,0.503 -5.313,1.35 -5.561,2.692 -4.714,3.929 L -3.699,5.401 2.143,3.12 Z M 6.651,16.628 C 7.217,17.454 7.037,18.574 6.211,19.14 5.385,19.706 4.277,19.476 3.707,18.649 3.162,17.857 3.342,16.733 4.168,16.167 4.99,15.601 6.106,15.831 6.651,16.628 M 3.426,-4.605 1.157,-3.045 7.389,6.022 c 1.334,1.946 0.516,4.412 -2.076,6.194 -2.679,1.841 -5.523,1.934 -6.697,0.222 -0.222,-0.327 -0.294,-0.494 -0.331,-0.989 L 1.434,10.417 2.407,11.83 C 3.54,11.658 3.984,11.482 4.571,11.08 5.754,10.266 6.047,8.807 5.242,7.628 L 2.952,4.303 -2.869,6.609 C -4.508,7.259 -6.333,6.689 -7.36,5.183 -8.715,3.212 -8.186,0.767 -6.152,-0.629 -4.588,-1.698 -3.045,-1.85 -0.755,-1.17 -0.839,-1.283 -0.902,-1.376 -0.965,-1.464 -1.711,-2.55 -1.627,-3.565 -0.713,-4.194 -0.478,-4.353 0,-4.55 0.461,-4.697 l 2.399,-0.73 z m 8.442,17.652 c 0.562,0.826 0.378,1.95 -0.444,2.512 -0.822,0.57 -1.938,0.335 -2.504,-0.487 -0.549,-0.797 -0.365,-1.921 0.461,-2.482 0.827,-0.571 1.942,-0.336 2.487,0.457" /></g><g
           transform="translate(534.8389,658.0253)"
           id="g84"><path
             id="path86"
             style="fill:#102d57;fill-opacity:1;fill-rule:nonzero;stroke:none"
             d="m 0,0 c -2.407,0.143 -3.158,0.377 -4.143,1.258 -1.544,1.384 -1.619,3.175 -0.168,4.798 l 7.356,8.236 -2.323,2.072 0.645,0.721 2.844,-1.488 3.288,3.677 L 9.411,17.563 6.056,13.806 9.361,10.854 8.266,9.629 4.966,12.577 -2.181,4.584 C -3.086,3.573 -3.07,2.89 -2.189,2.105 -1.635,1.602 -1.191,1.401 0.193,1.124 Z" /></g><g
           transform="translate(366.7959,566.8114)"
           id="g88"><path
             id="path90"
             style="fill:#102d57;fill-opacity:1;fill-rule:nonzero;stroke:none"
             d="m 0,0 -1.707,8.66 1.296,0.256 0.52,-2.629 20.541,4.046 -0.516,2.63 1.296,0.256 1.98,-10.023 C 24.207,-0.872 22.026,-4.219 18.101,-4.99 14.175,-5.766 10.468,-3.036 9.612,1.309 9.478,1.979 9.44,2.37 9.436,3.317 l 1.225,0.24 c -0.009,-0.474 0.021,-0.646 0.084,-0.965 0.591,-3.015 3.606,-5.008 6.726,-4.391 2.806,0.549 4.68,2.852 4.228,5.163 L 20.944,7.188 0.722,3.2 1.305,0.223 Z" /></g><g
           transform="translate(372.9443,546.0692)"
           id="g92"><path
             id="path94"
             style="fill:#102d57;fill-opacity:1;fill-rule:nonzero;stroke:none"
             d="m 0,0 c 1.761,-3.946 6.685,-5.582 10.987,-3.665 4.311,1.921 6.375,6.676 4.614,10.627 C 13.839,10.908 8.916,12.548 4.613,10.627 0.306,8.707 -1.762,3.951 0,0 M 14.225,6.35 C 15.319,3.9 13.374,0.726 9.754,-0.889 6.131,-2.508 2.466,-1.833 1.375,0.617 0.281,3.062 2.273,6.22 5.863,7.821 9.486,9.436 13.135,8.799 14.225,6.35" /></g><g
           transform="translate(386.5488,526.8539)"
           id="g96"><path
             id="path98"
             style="fill:#102d57;fill-opacity:1;fill-rule:nonzero;stroke:none"
             d="m 0,0 c -2.311,0.708 -2.982,1.111 -3.732,2.202 -1.175,1.706 -0.831,3.464 0.964,4.701 l 9.092,6.265 -1.762,2.562 0.789,0.55 2.411,-2.114 4.064,2.797 1.46,-2.117 L 9.138,11.985 11.65,8.337 10.3,7.406 7.783,11.055 -1.04,4.965 C -2.156,4.198 -2.307,3.531 -1.636,2.558 -1.212,1.946 -0.831,1.644 0.449,1.048 Z" /></g><g
           transform="translate(389.5264,520.5004)"
           id="g100"><path
             id="path102"
             style="fill:#102d57;fill-opacity:1;fill-rule:nonzero;stroke:none"
             d="M 0,0 -0.999,1.027 2.65,4.554 3.791,3.376 3.103,2.705 C 1.996,1.635 2.411,-0.747 3.95,-2.336 5.317,-3.753 7.079,-4.085 8.11,-3.091 9.134,-2.097 9.004,-0.831 7.448,2.881 6.014,6.27 6.123,8.06 7.737,9.625 c 2.009,1.937 4.932,1.635 7.218,-0.73 1.09,-1.128 1.652,-2.273 1.757,-3.565 l 1.078,0.742 1.065,-1.107 -4.294,-2.961 -1.07,1.108 c 0.382,0.172 0.767,0.44 0.998,0.666 1.002,0.965 0.709,2.919 -0.633,4.303 C 12.564,9.415 10.996,9.599 9.897,8.53 8.79,7.46 8.836,7.159 10.585,2.831 c 1.43,-3.485 1.35,-5.1 -0.294,-6.694 C 8.236,-5.851 5.259,-5.649 3.049,-3.359 1.661,-1.925 0.948,-0.52 0.922,0.893 Z" /></g><g
           transform="translate(417.1294,500.995)"
           id="g104"><path
             id="path106"
             style="fill:#102d57;fill-opacity:1;fill-rule:nonzero;stroke:none"
             d="m 0,0 -2.575,1.745 13.646,20.147 -0.562,0.377 -5.04,1.736 -0.546,-0.801 2.576,-1.74 -4.63,-6.836 C 2.147,15.979 1.711,16.49 0.705,17.169 -3.167,19.794 -8.526,18.637 -11.29,14.552 -13.856,10.77 -13.454,6.14 -10.379,4.051 -8.874,3.028 -7.473,2.86 -4.748,3.389 l -1.4,-2.072 0.562,-0.381 5.024,-1.762 z m -5.1,4.706 c -1.576,-0.097 -2.143,0.024 -3.061,0.649 -2.424,1.64 -2.533,4.609 -0.285,7.922 2.306,3.397 5.77,4.374 8.639,2.433 1.744,-1.183 1.912,-2.206 0.671,-4.043 L -3.783,4.806 C -4.37,4.772 -4.823,4.735 -5.1,4.706" /></g><g
           transform="translate(434.7681,493.3124)"
           id="g108"><path
             id="path110"
             style="fill:#102d57;fill-opacity:1;fill-rule:nonzero;stroke:none"
             d="m 0,0 -2.558,1.019 4.076,10.22 c 0.873,2.194 -0.47,4.42 -3.388,5.586 -3.02,1.199 -5.813,0.663 -6.585,-1.262 -0.142,-0.365 -0.175,-0.545 -0.1,-1.036 l 3.296,-0.315 0.637,1.594 c 1.145,0.08 1.62,0.008 2.282,-0.256 1.325,-0.528 1.938,-1.891 1.409,-3.217 L -2.428,8.58 -8.618,9.553 c -1.74,0.269 -3.388,-0.688 -4.064,-2.382 -0.889,-2.223 0.172,-4.491 2.458,-5.405 1.761,-0.701 3.305,-0.508 5.385,0.666 -0.055,-0.134 -0.097,-0.235 -0.135,-0.335 -0.486,-1.225 -0.184,-2.198 0.848,-2.609 0.264,-0.1 0.767,-0.189 1.253,-0.226 l 2.5,-0.193 z M -4.361,3.736 C -6.333,3.023 -7.381,2.902 -8.446,3.33 -9.838,3.883 -10.375,5.137 -9.822,6.534 l 0.663,1.656 6.207,-0.935 z" /></g><g
           transform="translate(469.0898,486.5184)"
           id="g112"><path
             id="path114"
             style="fill:#102d57;fill-opacity:1;fill-rule:nonzero;stroke:none"
             d="m 0,0 -8.035,0.78 0.13,1.317 2.705,-0.26 1.014,10.417 c 0.189,1.921 -0.666,3.12 -2.231,3.271 -1.174,0.113 -2.147,-0.327 -3.837,-1.816 l -2.084,-1.841 -0.902,-9.247 2.667,-0.26 -0.13,-1.321 -8.035,0.789 0.126,1.316 2.667,-0.26 1.024,10.417 c 0.184,1.887 -0.663,3.154 -2.231,3.305 -1.527,0.151 -2.483,-0.436 -5.926,-3.69 l -0.902,-9.248 2.705,-0.264 -0.13,-1.317 -8.069,0.789 0.126,1.317 2.701,-0.264 1.25,12.803 -3.091,0.302 0.096,0.96 5.251,0.885 0.641,-0.063 -0.39,-3.98 c 2.97,2.831 4.597,3.641 6.87,3.422 2.524,-0.251 3.783,-1.702 3.871,-4.474 2.969,2.835 4.592,3.644 6.831,3.426 2.634,-0.26 4.102,-2.122 3.838,-4.827 L -2.538,1.577 0.13,1.312 Z" /></g><path
           id="path116"
           style="fill:#102d57;fill-opacity:1;fill-rule:nonzero;stroke:none"
           d="m 510.008,595.245 h -4.676 V 565.99 h 4.676 z m 12.527,0 h -8.949 V 565.99 h 8.949 z m -17.862,-48.849 h 26.781 v 15.66 h -26.781 z m -16.317,7.792 c 0,-3.254 5.359,-6.131 13.482,-7.783 v 15.567 c -7.225,-1.476 -13.482,-4.206 -13.482,-7.784 m -10.493,41.082 h -4.68 v -29.297 h 4.68 z m 4.924,-29.297 h 4.676 v 29.297 h -4.676 z m 9.561,0 h 4.68 v 29.297 h -4.68 z m 9.49,-23.393 v -9.779 c -12.845,1.903 -22.038,6.005 -23.975,10.924 h -9.608 v 58.289 h 33.579 v -36.033 c -14.036,-1.987 -23.87,-6.567 -23.812,-11.759 0.076,-5.896 12.208,-10.052 23.816,-11.642 m 28.95,52.665 h -4.68 V 565.99 h 4.68 z m 16.976,-41.057 c 0,3.578 -6.265,6.308 -13.487,7.784 v -15.567 c 8.119,1.652 13.487,4.529 13.487,7.783 m -8.681,11.785 h 4.685 v 29.297 h -4.685 z m 9.566,0 h 4.68 v 29.297 h -4.68 z m 9.6,0 h 4.68 v 29.297 h -4.68 z m -23.963,36.041 h 33.57 v -58.289 h -9.603 c -1.942,-4.919 -11.13,-9.021 -23.976,-10.924 v 9.779 c 11.608,1.59 23.745,5.746 23.812,11.642 0.059,5.192 -9.779,9.772 -23.803,11.759 z m -66.031,6.555 c -0.18,0.507 -0.315,1.216 -0.315,2.017 0,1.535 0.42,2.776 0.94,2.776 0.516,0 0.935,-1.241 0.935,-2.776 0,-0.801 -0.121,-1.527 -0.306,-2.03 h 7.263 c -0.175,0.503 -0.297,1.229 -0.297,2.03 0,1.535 0.423,2.776 0.935,2.776 0.52,0 0.94,-1.241 0.94,-2.776 0,-0.801 -0.118,-1.527 -0.298,-2.03 h 7.2 c -0.184,0.503 -0.293,1.229 -0.293,2.03 0,1.535 0.419,2.776 0.935,2.776 0.516,0 0.935,-1.241 0.935,-2.776 0,-0.801 -0.117,-1.527 -0.302,-2.03 h 7.188 c -0.18,0.503 -0.293,1.229 -0.293,2.03 0,1.535 0.415,2.776 0.931,2.776 0.52,0 0.939,-1.241 0.939,-2.776 0,-0.801 -0.117,-1.527 -0.302,-2.03 h 6.844 v 10.287 h 2.319 c 0.265,0.709 0.684,1.984 0.638,3.431 -0.23,7.435 3.778,13.575 12.573,13.893 -0.156,0.491 -0.256,1.166 -0.256,1.909 0,1.535 0.432,2.776 0.948,2.776 0.52,0 0.952,-1.241 0.952,-2.776 0,-0.743 -0.105,-1.418 -0.264,-1.909 8.798,-0.318 12.807,-6.458 12.581,-13.893 -0.051,-1.447 0.369,-2.722 0.646,-3.431 h 2.315 v -10.287 h 6.839 c -0.184,0.503 -0.297,1.229 -0.297,2.03 0,1.535 0.411,2.776 0.931,2.776 0.515,0 0.939,-1.241 0.939,-2.776 0,-0.801 -0.117,-1.527 -0.302,-2.03 h 7.188 c -0.18,0.503 -0.293,1.229 -0.293,2.03 0,1.535 0.411,2.776 0.939,2.776 0.507,0 0.931,-1.241 0.931,-2.776 0,-0.801 -0.118,-1.527 -0.302,-2.03 h 7.205 c -0.185,0.503 -0.302,1.229 -0.302,2.03 0,1.535 0.42,2.776 0.94,2.776 0.511,0 0.939,-1.241 0.939,-2.776 0,-0.801 -0.122,-1.527 -0.307,-2.03 h 7.269 c -0.189,0.503 -0.303,1.229 -0.303,2.03 0,1.535 0.42,2.776 0.94,2.776 0.511,0 0.931,-1.241 0.931,-2.776 0,-0.801 -0.13,-1.51 -0.319,-2.017 v -3.859 h -33.566 v -2.65 h -32.452 v 2.65 h 32.443 l -16.221,8.698 -16.222,-8.698 h -33.579 z" /><path
           id="path118"
           style="fill:#b00c36;fill-opacity:1;fill-rule:nonzero;stroke:none"
           d="M 263.904,458.89 H 49.758 v 214.15 h 214.146 z" /><path
           id="path120"
           style="fill:#f89c0e;fill-opacity:1;fill-rule:nonzero;stroke:none"
           d="M 294.502,520.078 H 110.947 v 183.556 h 183.555 z" /><path
           id="path122"
           style="fill:#e25517;fill-opacity:1;fill-rule:nonzero;stroke:none"
           d="M 110.947,520.078 H 263.904 V 673.04 H 110.947 Z" /><g
           transform="translate(238.875,649.278)"
           id="g124"><path
             id="path126"
             style="fill:#ffffff;fill-opacity:1;fill-rule:nonzero;stroke:none"
             d="M 0,0 H -7.053 C -7.839,0 -8.48,-0.569 -8.48,-1.352 v -50.146 c 0,-0.784 0.641,-1.424 1.427,-1.424 H 0 c 0.78,0 1.423,0.64 1.423,1.424 V -1.352 C 1.423,-0.569 0.78,0 0,0 m -26.558,-16.524 c 0,-5.699 -2.99,-8.549 -10.682,-8.549 -1.212,0 -5.2,0.143 -6.341,0.214 v 16.952 c 1.284,0.144 4.846,0.287 6.341,0.287 7.122,0 10.682,-2.28 10.682,-8.262 z M -37.24,0.57 c -5.2,0 -10.255,-0.356 -13.961,-0.925 -1.427,-0.214 -2.28,-0.713 -2.28,-2.138 v -49.005 c 0,-0.784 0.64,-1.424 1.424,-1.424 h 7.125 c 0.782,0 1.351,0.64 1.351,1.424 v 18.59 c 1.638,-0.069 4.488,-0.284 6.341,-0.284 10.969,0 20.514,4.058 20.514,16.668 v 0.642 c 0,12.606 -9.545,16.452 -20.514,16.452 M -65.711,0 h -7.051 c -0.785,0 -1.426,-0.569 -1.426,-1.352 v -19.661 h -20.228 v 19.661 c 0,0.783 -0.642,1.352 -1.425,1.352 h -7.051 c -0.785,0 -1.426,-0.569 -1.426,-1.352 v -50.146 c 0,-0.784 0.641,-1.424 1.426,-1.424 h 7.051 c 0.783,0 1.425,0.64 1.425,1.424 v 21.797 h 20.228 v -21.797 c 0,-0.784 0.641,-1.424 1.426,-1.424 h 7.051 c 0.784,0 1.424,0.64 1.424,1.424 v 50.146 c 0,0.783 -0.64,1.352 -1.424,1.352" /></g></g></g></g></svg>