<svg width="96" height="97" xmlns="http://www.w3.org/2000/svg" xmlns:xlink="http://www.w3.org/1999/xlink" xml:space="preserve" overflow="hidden"><g transform="translate(-944 -336)"><g><g><g><g><path d="M1000.78 376.102 1002.77 375.898 1005.13 398.899 1003.14 399.103Z" fill="#000000" fill-rule="nonzero" fill-opacity="1"/><path d="M1026 412 1020 412 1020 407 1011.91 407 1008.38 370.709C1008.23 369.17 1006.94 367.995 1005.39 368L978.732 368C977.19 367.996 975.897 369.165 975.747 370.7L972.1 407 964 407 964 412 958 412 958 419 1026 419ZM977.737 370.9C977.788 370.389 978.218 370 978.732 370L1005.39 370C1005.91 369.997 1006.34 370.387 1006.39 370.9L1009.9 407 974.105 407ZM1024 417 960 417 960 414 966 414 966 409 1018 409 1018 414 1024 414Z" fill="#000000" fill-rule="nonzero" fill-opacity="1"/><path d="M991 351 993 351 993 363 991 363Z" fill="#000000" fill-rule="nonzero" fill-opacity="1"/><path d="M958 380 968 380 968 382 958 382Z" fill="#000000" fill-rule="nonzero" fill-opacity="1"/><path d="M1016 380 1026 380 1026 382 1016 382Z" fill="#000000" fill-rule="nonzero" fill-opacity="1"/><path d="M963.293 357.707 964.707 356.293 972.707 364.293 971.293 365.707Z" fill="#000000" fill-rule="nonzero" fill-opacity="1"/><path d="M1011.29 364.293 1019.29 356.293 1020.71 357.707 1012.71 365.707Z" fill="#000000" fill-rule="nonzero" fill-opacity="1"/></g></g></g></g></g></svg>