<svg width="96" height="96" xmlns="http://www.w3.org/2000/svg" xmlns:xlink="http://www.w3.org/1999/xlink" xml:space="preserve" overflow="hidden"><g transform="translate(-592 -312)"><g><path d="M682.6 392 643.5 324C642.437 322.095 640.03 321.412 638.124 322.476 637.485 322.833 636.957 323.36 636.6 324L597.4 392C596.304 393.927 596.977 396.379 598.905 397.475 599.513 397.821 600.201 398.002 600.9 398L679.1 398C681.317 398.005 683.12 396.212 683.125 393.995 683.127 393.296 682.946 392.608 682.6 392ZM680.839 395.019C680.48 395.637 679.815 396.012 679.1 396L600.9 396C600.185 396.013 599.519 395.637 599.161 395.018 598.788 394.4 598.777 393.628 599.133 393L638.348 324.971C638.877 324.032 640.067 323.699 641.006 324.228 641.328 324.408 641.591 324.676 641.766 325L680.852 392.971C681.219 393.606 681.214 394.389 680.839 395.019Z" fill="#000000" fill-rule="nonzero" fill-opacity="1"/><path d="M640 385.98C639.395 385.998 638.812 385.758 638.394 385.32 637.963 384.889 637.727 384.3 637.744 383.691 637.719 383.083 637.953 382.494 638.387 382.068 638.816 381.646 639.398 381.417 640 381.436 640.614 381.421 641.208 381.65 641.652 382.074 642.1 382.49 642.345 383.08 642.322 383.691 642.337 384.303 642.091 384.893 641.646 385.314 641.212 385.753 640.617 385.993 640 385.98Z" fill="#000000" fill-rule="nonzero" fill-opacity="1"/><path d="M638.901 374.6 638.578 342.787 641.289 342.787 640.966 374.6 638.901 374.6Z" fill="#000000" fill-rule="nonzero" fill-opacity="1"/></g></g></svg>