<svg width="96" height="97" xmlns="http://www.w3.org/2000/svg" xmlns:xlink="http://www.w3.org/1999/xlink" xml:space="preserve" overflow="hidden"><g transform="translate(-960 -37)"><g><g><g><g><path d="M1041.69 111.422C1036.06 108.6 1026.8 101.637 1026 75 1026 67.3771 1021.19 60.5844 1014 58.046L1014 57C1014 53.6863 1011.31 51 1008 51 1004.69 51 1002 53.6863 1002 57L1002 58.046C994.812 60.5847 990.005 67.3772 990 75 989.2 101.637 979.94 108.6 974.31 111.422 972.02 112.562 973.67 115 975 115L1000 115C1000 119.418 1003.58 123 1008 123 1012.42 123 1016 119.418 1016 115L1041 115C1042.33 115 1043.98 112.562 1041.69 111.422ZM1004 57C1004 54.7909 1005.79 53 1008 53 1010.21 53 1012 54.7909 1012 57L1012 57.461C1009.37 56.8463 1006.63 56.8463 1004 57.461ZM1008 121C1004.69 120.997 1002 118.312 1002 115L1014 115C1014 118.312 1011.31 120.997 1008 121ZM975.654 113C975.649 113 975.645 112.996 975.645 112.991 975.645 112.986 975.649 112.982 975.654 112.982 986.048 107.505 991.4 95.092 992 75.06L992 75C991.933 68.1035 996.336 61.9562 1002.89 59.8 1011.3 57.0065 1020.39 61.564 1023.18 69.9794 1023.72 71.5988 1024 73.2937 1024 75L1024 75.06C1024.6 95.09 1029.95 107.502 1040.35 112.982 1040.35 112.982 1040.36 112.986 1040.36 112.991 1040.36 112.996 1040.35 113 1040.35 113Z" fill="#000000" fill-rule="nonzero" fill-opacity="1"/></g></g></g></g></g></svg>