<svg width="752" height="555" xmlns="http://www.w3.org/2000/svg" xmlns:xlink="http://www.w3.org/1999/xlink" xml:space="preserve" overflow="hidden"><defs><clipPath id="clip0"><rect x="3877" y="684" width="138" height="208"/></clipPath></defs><g transform="translate(-3377 -650)"><g><g><g><g><path d="M3753 737.938C3709.34 737.938 3669.81 755.813 3641.28 784.344L3660.88 803.938C3684.25 780.219 3716.91 765.438 3753 765.438 3789.09 765.438 3821.75 780.219 3845.47 803.594L3865.06 784C3835.84 755.813 3796.66 737.938 3753 737.938Z" fill="#000000" fill-rule="nonzero" fill-opacity="1"/><path d="M3670.5 813.563 3690.09 833.156C3705.56 816.656 3728.25 806.688 3753 806.688 3777.75 806.688 3800.09 816.656 3816.25 832.813L3835.5 813.563C3814.19 792.25 3784.97 779.188 3753 779.188 3721.03 779.188 3691.47 792.25 3670.5 813.563Z" fill="#000000" fill-rule="nonzero" fill-opacity="1"/><path d="M3699.72 842.781 3719.31 862.375C3727.91 853.781 3739.94 848.281 3753.34 848.281 3766.75 848.281 3778.78 853.781 3787.38 862.375L3806.97 842.781C3793.22 829.031 3774.31 820.438 3753.69 820.438 3733.06 820.438 3713.12 829.031 3699.72 842.781Z" fill="#000000" fill-rule="nonzero" fill-opacity="1"/><path d="M3728.59 871.656 3753 896.063 3777.41 871.656C3770.88 865.469 3762.62 861.688 3753 861.688 3743.38 861.688 3734.78 865.469 3728.59 871.656Z" fill="#000000" fill-rule="nonzero" fill-opacity="1"/></g></g></g><g><g><g><path d="M4040.06 1011C4040.06 967.344 4022.19 927.812 3993.66 899.281L3974.06 918.875C3997.78 942.25 4012.56 974.906 4012.56 1011 4012.56 1047.09 3997.78 1079.75 3974.41 1103.47L3994 1123.06C4022.19 1093.84 4040.06 1054.66 4040.06 1011Z" fill="#000000" fill-rule="nonzero" fill-opacity="1"/><path d="M3964.44 928.5 3944.84 948.094C3961.34 963.562 3971.31 986.25 3971.31 1011 3971.31 1035.75 3961.34 1058.09 3945.19 1074.25L3964.44 1093.5C3985.75 1072.19 3998.81 1042.97 3998.81 1011 3998.81 979.031 3985.75 949.469 3964.44 928.5Z" fill="#000000" fill-rule="nonzero" fill-opacity="1"/><path d="M3935.22 957.719 3915.62 977.312C3924.22 985.906 3929.72 997.937 3929.72 1011.34 3929.72 1024.75 3924.22 1036.78 3915.62 1045.38L3935.22 1064.97C3948.97 1051.22 3957.56 1032.31 3957.56 1011.69 3957.56 991.062 3948.97 971.125 3935.22 957.719Z" fill="#000000" fill-rule="nonzero" fill-opacity="1"/><path d="M3906.34 986.594 3881.94 1011 3906.34 1035.41C3912.53 1028.88 3916.31 1020.62 3916.31 1011 3916.31 1001.37 3912.53 992.781 3906.34 986.594Z" fill="#000000" fill-rule="nonzero" fill-opacity="1"/></g></g></g><g><g><g><path d="M3465.94 1011C3465.94 1054.66 3483.81 1094.19 3512.34 1122.72L3531.94 1103.12C3508.22 1079.75 3493.44 1047.09 3493.44 1011 3493.44 974.906 3508.22 942.25 3531.59 918.531L3512 898.938C3483.81 928.156 3465.94 967.344 3465.94 1011Z" fill="#000000" fill-rule="nonzero" fill-opacity="1"/><path d="M3541.56 1093.5 3561.16 1073.91C3544.66 1058.44 3534.69 1035.75 3534.69 1011 3534.69 986.25 3544.66 963.906 3560.81 947.75L3541.56 928.5C3520.25 949.812 3507.19 979.031 3507.19 1011 3507.19 1042.97 3520.25 1072.53 3541.56 1093.5Z" fill="#000000" fill-rule="nonzero" fill-opacity="1"/><path d="M3570.78 1064.28 3590.38 1044.69C3581.78 1036.09 3576.28 1024.06 3576.28 1010.66 3576.28 997.25 3581.78 985.219 3590.38 976.625L3570.78 957.031C3557.03 970.781 3548.44 989.688 3548.44 1010.31 3548.44 1030.94 3557.03 1050.88 3570.78 1064.28Z" fill="#000000" fill-rule="nonzero" fill-opacity="1"/><path d="M3599.66 1035.41 3624.06 1011 3599.66 986.594C3593.47 993.125 3589.69 1001.38 3589.69 1011 3589.69 1020.62 3593.47 1029.22 3599.66 1035.41Z" fill="#000000" fill-rule="nonzero" fill-opacity="1"/></g></g></g><g><g><g><path d="M3749.69 1105.31 3770.31 1105.31 3770.31 1132.81 3749.69 1132.81Z" fill="#000000" fill-rule="nonzero" fill-opacity="1"/><path d="M3749.69 1146.56 3770.31 1146.56 3770.31 1167.19 3749.69 1167.19Z" fill="#000000" fill-rule="nonzero" fill-opacity="1"/><path d="M3784.06 1146.56 3883.75 1146.56 3883.75 1167.19 3784.06 1167.19Z" fill="#000000" fill-rule="nonzero" fill-opacity="1"/><path d="M3636.25 1146.56 3735.94 1146.56 3735.94 1167.19 3636.25 1167.19Z" fill="#000000" fill-rule="nonzero" fill-opacity="1"/><path d="M3857.69 1050.31 3662.31 1050.31C3655.51 1050.31 3650 1055.82 3650 1062.62L3650 1093.01C3650 1099.8 3655.51 1105.31 3662.31 1105.31L3857.69 1105.31C3864.49 1105.31 3870 1099.8 3870 1093.01L3870 1062.62C3870 1055.82 3864.49 1050.31 3857.69 1050.31ZM3684.38 1084.69C3680.58 1084.69 3677.5 1081.61 3677.5 1077.81 3677.5 1074.02 3680.58 1070.94 3684.38 1070.94 3688.17 1070.94 3691.25 1074.02 3691.25 1077.81 3691.25 1081.61 3688.17 1084.69 3684.38 1084.69ZM3718.75 1084.69C3714.95 1084.69 3711.88 1081.61 3711.88 1077.81 3711.88 1074.02 3714.95 1070.94 3718.75 1070.94 3722.55 1070.94 3725.62 1074.02 3725.62 1077.81 3725.62 1081.61 3722.55 1084.69 3718.75 1084.69ZM3753.12 1084.69C3749.33 1084.69 3746.25 1081.61 3746.25 1077.81 3746.25 1074.02 3749.33 1070.94 3753.12 1070.94 3756.92 1070.94 3760 1074.02 3760 1077.81 3760 1081.61 3756.92 1084.69 3753.12 1084.69Z" fill="#000000" fill-rule="nonzero" fill-opacity="1"/><path d="M3857.69 981.562 3662.31 981.562C3655.51 981.562 3650 987.072 3650 993.869L3650 1024.26C3650 1031.05 3655.51 1036.56 3662.31 1036.56L3857.69 1036.56C3864.49 1036.56 3870 1031.05 3870 1024.26L3870 993.869C3870 987.072 3864.49 981.562 3857.69 981.562ZM3684.38 1015.94C3680.58 1015.94 3677.5 1012.86 3677.5 1009.06 3677.5 1005.27 3680.58 1002.19 3684.38 1002.19 3688.17 1002.19 3691.25 1005.27 3691.25 1009.06 3691.25 1012.86 3688.17 1015.94 3684.38 1015.94ZM3718.75 1015.94C3714.95 1015.94 3711.88 1012.86 3711.88 1009.06 3711.88 1005.27 3714.95 1002.19 3718.75 1002.19 3722.55 1002.19 3725.62 1005.27 3725.62 1009.06 3725.62 1012.86 3722.55 1015.94 3718.75 1015.94ZM3753.12 1015.94C3749.33 1015.94 3746.25 1012.86 3746.25 1009.06 3746.25 1005.27 3749.33 1002.19 3753.12 1002.19 3756.92 1002.19 3760 1005.27 3760 1009.06 3760 1012.86 3756.92 1015.94 3753.12 1015.94Z" fill="#000000" fill-rule="nonzero" fill-opacity="1"/><path d="M3857.69 912.812 3662.31 912.812C3655.51 912.812 3650 918.322 3650 925.119L3650 955.506C3650 962.303 3655.51 967.812 3662.31 967.812L3857.69 967.812C3864.49 967.812 3870 962.303 3870 955.506L3870 925.119C3870 918.322 3864.49 912.812 3857.69 912.812ZM3684.38 947.187C3680.58 947.187 3677.5 944.109 3677.5 940.312 3677.5 936.515 3680.58 933.437 3684.38 933.437 3688.17 933.437 3691.25 936.515 3691.25 940.312 3691.25 944.109 3688.17 947.187 3684.38 947.187ZM3718.75 947.187C3714.95 947.187 3711.88 944.109 3711.88 940.312 3711.88 936.515 3714.95 933.437 3718.75 933.437 3722.55 933.437 3725.62 936.515 3725.62 940.312 3725.62 944.109 3722.55 947.187 3718.75 947.187ZM3753.12 947.187C3749.33 947.187 3746.25 944.109 3746.25 940.312 3746.25 936.515 3749.33 933.437 3753.12 933.437 3756.92 933.437 3760 936.515 3760 940.312 3760 944.109 3756.92 947.187 3753.12 947.187Z" fill="#000000" fill-rule="nonzero" fill-opacity="1"/></g></g></g><g clip-path="url(#clip0)"><g><g><path d="M74.377 0C108.628-1.21142e-14 136.393 27.7657 136.393 62.0164L136.393 145.984C136.393 180.234 108.628 208 74.377 208L62.0164 208C27.7657 208 0 180.234 0 145.984L0 62.0164C-1.21142e-14 27.7657 27.7657-1.21142e-14 62.0164-1.21142e-14Z" fill="#0A3D91" fill-rule="nonzero" fill-opacity="1" transform="matrix(1.00445 0 0 1 3878 684)"/><path d="M33.459 70.3279 98.459 135.754 67.1311 173.689 67.1311 38.1475 98.459 74.377 33.459 138.098" stroke="#FFFFFF" stroke-width="11.2951" stroke-linecap="butt" stroke-linejoin="miter" stroke-miterlimit="4" stroke-opacity="1" fill="none" fill-rule="nonzero" transform="matrix(1.00445 0 0 1 3878 684)"/></g></g></g></g></g></svg>