<svg width="98" height="98" xmlns="http://www.w3.org/2000/svg" xmlns:xlink="http://www.w3.org/1999/xlink" xml:space="preserve" overflow="hidden"><g transform="translate(-898 -202)"><g><g><g><g><path d="M913 217 927 217 927 231 913 231Z" fill="#000000" fill-rule="nonzero" fill-opacity="1"/><path d="M957.237 270.512C956.543 269.839 955.434 269.856 954.761 270.55 954.102 271.229 954.102 272.309 954.761 272.988L956.773 275 947 275 947 222 931 222 931 226 943 226 943 279 956.78 279 954.761 281.011C954.088 281.705 954.105 282.814 954.799 283.487 955.478 284.146 956.558 284.146 957.237 283.487L962.487 278.238C963.171 277.554 963.171 276.445 962.487 275.761Z" fill="#000000" fill-rule="nonzero" fill-opacity="1"/><path d="M981 277C981 281.418 977.418 285 973 285 968.582 285 965 281.418 965 277 965 272.582 968.582 269 973 269 977.418 269 981 272.582 981 277Z" fill="#000000" fill-rule="nonzero" fill-opacity="1"/></g></g></g></g></g></svg>