<svg width="98" height="97" xmlns="http://www.w3.org/2000/svg" xmlns:xlink="http://www.w3.org/1999/xlink" xml:space="preserve" overflow="hidden"><g transform="translate(-734 -200)"><g><g><g><g><path d="M815 265.958C814.947 263.022 813.576 260.266 811.267 258.452 807.529 255.394 803.135 253.505 798.523 251.852L793.623 249.842C793.248 249.689 793.002 249.325 793 248.92L793 246.472C796.654 243.545 798.839 239.162 798.977 234.482L801.625 229.94C802.006 229.039 802.16 228.057 802.071 227.083 801.491 220.53 797.517 214.76 791.601 211.883 791.124 211.659 790.564 211.709 790.134 212.014L789.124 212.714 788.007 211.187C787.663 210.705 787.146 210.376 786.564 210.268 785.523 210.088 784.468 209.999 783.412 210 774.404 210 766.672 216.409 765 225.26L764.959 225.478C764.474 228.075 763.468 230.547 762.003 232.745L767.003 232.745 767.003 234C767.004 238.849 769.209 243.436 772.996 246.465L772.996 248.92C772.996 249.326 772.751 249.692 772.375 249.846L767.445 251.869C762.845 253.515 758.471 255.398 754.771 258.425 752.434 260.25 751.048 263.035 751 266L751 283.569 751.89 284.163C756.796 287.434 770.083 289.063 783.277 289.063 796.577 289.063 809.783 287.405 814.191 284.098L814.991 283.498ZM797.505 263C798.61 263 799.505 263.895 799.505 265 799.505 266.105 798.61 267 797.505 267 796.4 267 795.505 266.105 795.505 265 795.505 263.895 796.4 263 797.505 263ZM771 234 771 232.745 778.06 232.745C788.34 232.745 786.942 224.552 791.44 223.379 792.643 223.151 793.887 223.302 795 223.812L795 234C795 240.627 789.627 246 783 246 776.373 246 771 240.627 771 234ZM783 250C785.057 249.999 787.095 249.6 789 248.823L789 248.923C788.998 250.472 789.719 251.933 790.949 252.875 788.372 253.65 785.691 254.029 783 254 780.307 254.028 777.626 253.647 775.047 252.871 776.278 251.93 777 250.469 777 248.92L777 248.82C778.905 249.598 780.943 249.999 783 250ZM811 281.406C802.122 286.236 764.712 286.2 755 281.345L755 266.045C755.037 264.281 755.871 262.629 757.267 261.551 760.358 259.19 763.815 257.352 767.5 256.108L767.5 260.522C763.563 260.785 760.503 264.054 760.5 268 760.501 268.424 760.683 268.828 761 269.11L761 275.5C761.003 276.892 761.964 278.099 763.32 278.415 763.825 279.072 764.767 279.195 765.424 278.69 766.08 278.185 766.203 277.243 765.698 276.586 765.193 275.93 764.251 275.807 763.595 276.311 763.572 276.329 763.55 276.347 763.529 276.365 763.207 276.196 763.004 275.864 763 275.5L763 269.11C763.317 268.828 763.499 268.424 763.5 268 763.5 265.515 765.515 263.5 768 263.5L769 263.5C771.485 263.5 773.5 265.515 773.5 268 773.501 268.424 773.683 268.828 774 269.11L774 275.5C773.996 275.863 773.794 276.196 773.472 276.365 772.845 275.824 771.898 275.893 771.356 276.521 770.815 277.148 770.885 278.095 771.512 278.636 772.139 279.177 773.086 279.108 773.628 278.481 773.646 278.459 773.664 278.437 773.681 278.415 775.037 278.099 775.997 276.892 776 275.5L776 269.11C776.317 268.828 776.499 268.424 776.5 268 776.496 264.055 773.436 260.788 769.5 260.525L769.5 255.383C769.772 255.283 770.041 255.19 770.314 255.096 773.25 256.927 777.877 258 783 258 788.123 258 792.748 256.928 795.68 255.1 795.956 255.2 796.229 255.293 796.503 255.39L796.503 261.079C796.503 261.102 796.515 261.12 796.516 261.142 794.375 261.687 793.082 263.865 793.627 266.006 794.173 268.146 796.35 269.44 798.491 268.894 800.632 268.349 801.925 266.171 801.38 264.031 801.018 262.612 799.91 261.504 798.491 261.142 798.491 261.12 798.503 261.101 798.503 261.079L798.503 256.112C802.198 257.36 805.663 259.206 808.761 261.575 810.134 262.639 810.956 264.264 811 266Z" fill="#000000" fill-rule="nonzero" fill-opacity="1"/><path d="M798.505 265C798.505 265.552 798.057 266 797.505 266 796.953 266 796.505 265.552 796.505 265 796.505 264.448 796.953 264 797.505 264 798.057 264 798.505 264.448 798.505 265Z" fill="#000000" fill-rule="nonzero" fill-opacity="1"/></g></g></g></g></g></svg>