<svg width="97" height="98" xmlns="http://www.w3.org/2000/svg" xmlns:xlink="http://www.w3.org/1999/xlink" xml:space="preserve" overflow="hidden"><g transform="translate(-1093 -230)"><g><g><g><g><path d="M1156.2 285.6C1160.4 287.1 1164.4 288.8 1167.7 291.5 1169.1 292.6 1169.9 294.2 1169.9 296L1171.7 311.5C1171.8 312.2 1171.5 312.9 1170.9 313.3 1169.2 314.4 1167.4 315.3 1165.5 315.9L1165.5 319.1 1168.2 319.1C1169.9 318.4 1171.6 317.6 1173.1 316.6 1174.9 315.4 1175.9 313.2 1175.6 311L1174 295.9C1173.9 293 1172.6 290.3 1170.3 288.5 1166.6 285.4 1162.2 283.5 1157.6 281.9L1152.7 279.9C1152.3 279.7 1152.1 279.4 1152.1 279L1152.1 276.6C1155.9 273.6 1158.1 269 1158.1 264.1L1158.1 260.5C1158.7 260.9 1159.4 261 1160.1 261.1L1158.4 256.1C1158.2 255.4 1158 254.7 1157.9 254 1157.1 248.3 1153.7 244.3 1149 241.8 1148.6 241.6 1148.1 241.6 1147.7 241.9L1146.8 242.6 1145.8 241.2C1145.5 240.8 1145.1 240.4 1144.6 240.3 1143.7 240.1 1142.8 240 1141.9 240 1134 240 1127.4 246.2 1126 254.3L1126 255 1126 256.7C1126 258.9 1125.6 261 1124.7 263L1123 267C1123 267 1124.2 266.7 1126.2 266.1 1126.7 270.2 1128.8 273.9 1132 276.4L1132 278.9C1132 279.3 1131.8 279.7 1131.4 279.8L1126.5 281.8C1121.9 283.4 1117.5 285.3 1113.8 288.4 1111.5 290.2 1110.1 292.9 1110 295.8L1108.3 311C1108 313.2 1109 315.4 1110.8 316.6 1112.3 317.6 1114 318.4 1115.7 319.1L1118.5 319.1 1118.5 316C1116.6 315.3 1114.8 314.5 1113.1 313.4 1112.5 313 1112.2 312.3 1112.3 311.6L1114 296.2 1114 296C1114 294.2 1114.9 292.6 1116.3 291.5 1119.6 288.8 1123.6 287.1 1127.8 285.6L1129.4 285.1C1132.3 286.9 1136.9 288 1142 288 1147.1 288 1151.7 286.9 1154.7 285.1L1156.2 285.6ZM1130 264.9C1136.8 262.6 1146.6 258.6 1151 253 1151.9 254.4 1152.9 255.7 1154 257L1154 264C1154 270.6 1148.6 276 1142 276 1135.7 276 1130.5 271.2 1130 264.9ZM1134 282.9C1135.2 282 1136 280.5 1136 278.9L1136 278.8C1139.8 280.4 1144.2 280.4 1148 278.8L1148 278.9C1148 280.4 1148.7 281.9 1149.9 282.9 1147.3 283.7 1144.6 284.1 1141.9 284 1139.3 284 1136.6 283.6 1134 282.9Z" fill="#000000" fill-rule="nonzero" fill-opacity="1"/><path d="M1163.6 296.3C1163.6 294.9 1162.5 293.8 1161.1 293.8L1161.1 293.8 1123 293.8C1121.6 293.8 1120.5 294.9 1120.5 296.3L1120.5 321.2 1112.9 321.2 1112.9 322.5C1112.9 323.9 1114 325 1115.4 325L1168.7 325C1170.1 325 1171.2 323.9 1171.2 322.5L1171.2 321.2 1163.6 321.2 1163.6 296.3ZM1136.8 312.8 1135.4 314.2 1129.8 308.6 1135.4 303 1136.8 304.4 1132.6 308.6 1136.8 312.8ZM1140.6 314.9 1138.8 314.1 1143.5 302.8 1145.3 303.6 1140.6 314.9ZM1148.6 314.3 1147.2 312.9 1151.4 308.7 1147.2 304.5 1148.6 303.1 1154.2 308.7 1148.6 314.3Z" fill="#000000" fill-rule="nonzero" fill-opacity="1"/></g></g></g></g></g></svg>