<svg width="334" height="335" xmlns="http://www.w3.org/2000/svg" xmlns:xlink="http://www.w3.org/1999/xlink" xml:space="preserve" overflow="hidden"><g transform="translate(-3497 -1003)"><g><g><g><g><path d="M3620.32 1151.38 3583.51 1188.19 3620.32 1224.99 3625.18 1220.13 3593.24 1188.19 3625.18 1156.24 3620.32 1151.38Z" fill="#000000" fill-rule="nonzero" fill-opacity="1"/><path d="M3702.82 1156.24 3734.76 1188.19 3702.82 1220.13 3707.68 1224.99 3744.49 1188.19 3707.68 1151.38 3702.82 1156.24Z" fill="#000000" fill-rule="nonzero" fill-opacity="1"/><path d="M3643.66 1228.07 3678.03 1149 3684.34 1151.74 3649.96 1230.81Z" fill="#000000" fill-rule="nonzero" fill-opacity="1"/><path d="M3526.5 1277.56 3801.5 1277.56 3801.5 1064.44 3526.5 1064.44ZM3533.38 1270.69 3533.38 1119.44 3794.62 1119.44 3794.62 1270.69ZM3794.62 1071.31 3794.62 1112.56 3533.38 1112.56 3533.38 1071.31Z" fill="#000000" fill-rule="nonzero" fill-opacity="1"/><path d="M3722.44 1091.94C3722.44 1095.73 3719.36 1098.81 3715.56 1098.81 3711.77 1098.81 3708.69 1095.73 3708.69 1091.94 3708.69 1088.14 3711.77 1085.06 3715.56 1085.06 3719.36 1085.06 3722.44 1088.14 3722.44 1091.94Z" fill="#000000" fill-rule="nonzero" fill-opacity="1"/><path d="M3746.5 1091.94C3746.5 1095.73 3743.42 1098.81 3739.62 1098.81 3735.83 1098.81 3732.75 1095.73 3732.75 1091.94 3732.75 1088.14 3735.83 1085.06 3739.62 1085.06 3743.42 1085.06 3746.5 1088.14 3746.5 1091.94Z" fill="#000000" fill-rule="nonzero" fill-opacity="1"/><path d="M3770.56 1091.94C3770.56 1095.73 3767.48 1098.81 3763.69 1098.81 3759.89 1098.81 3756.81 1095.73 3756.81 1091.94 3756.81 1088.14 3759.89 1085.06 3763.69 1085.06 3767.48 1085.06 3770.56 1088.14 3770.56 1091.94Z" fill="#000000" fill-rule="nonzero" fill-opacity="1"/></g></g></g></g></g></svg>