<svg width="335" height="334" xmlns="http://www.w3.org/2000/svg" xmlns:xlink="http://www.w3.org/1999/xlink" xml:space="preserve" overflow="hidden"><g transform="translate(-3542 -1659)"><g><g><g><g><path d="M3663.9 1881.41 3624.65 1842.19 3663.9 1802.97 3673.6 1812.66 3644.1 1842.19 3673.6 1871.72 3663.9 1881.41Z" fill="#000000" fill-rule="nonzero" fill-opacity="1"/><path d="M3756.1 1881.41 3746.4 1871.72 3775.9 1842.19 3746.4 1812.66 3756.1 1802.97 3795.35 1842.19 3756.1 1881.41Z" fill="#000000" fill-rule="nonzero" fill-opacity="1"/><path d="M3686.97 1881.11 3719.86 1801.75 3732.56 1807.01 3699.68 1886.37Z" fill="#000000" fill-rule="nonzero" fill-opacity="1"/><path d="M3572.5 1718.44 3572.5 1931.56 3847.5 1931.56 3847.5 1718.44ZM3809.69 1739.06C3813.48 1739.06 3816.56 1742.14 3816.56 1745.94 3816.56 1749.73 3813.48 1752.81 3809.69 1752.81 3805.89 1752.81 3802.81 1749.73 3802.81 1745.94 3802.81 1742.14 3805.89 1739.06 3809.69 1739.06ZM3785.62 1739.06C3789.42 1739.06 3792.5 1742.14 3792.5 1745.94 3792.5 1749.73 3789.42 1752.81 3785.62 1752.81 3781.83 1752.81 3778.75 1749.73 3778.75 1745.94 3778.75 1742.14 3781.83 1739.06 3785.62 1739.06ZM3761.56 1739.06C3765.36 1739.06 3768.44 1742.14 3768.44 1745.94 3768.44 1749.73 3765.36 1752.81 3761.56 1752.81 3757.77 1752.81 3754.69 1749.73 3754.69 1745.94 3754.69 1742.14 3757.77 1739.06 3761.56 1739.06ZM3826.88 1910.94 3593.12 1910.94 3593.12 1773.44 3826.88 1773.44Z" fill="#000000" fill-rule="nonzero" fill-opacity="1"/></g></g></g></g></g></svg>