<svg width="335" height="334" xmlns="http://www.w3.org/2000/svg" xmlns:xlink="http://www.w3.org/1999/xlink" xml:space="preserve" overflow="hidden"><g transform="translate(-2763 -1943)"><g><g><g><g><path d="M2971.84 2075.22C2957.41 2075.22 2946.06 2063.53 2946.06 2049.44 2946.06 2035.34 2957.75 2023.66 2971.84 2023.66 2986.28 2023.66 2997.62 2035.34 2997.62 2049.44 2997.62 2063.53 2985.94 2075.22 2971.84 2075.22ZM3029.94 2033.28C3028.56 2028.47 3026.84 2024 3024.44 2019.88L3029.94 2003.72 3017.56 1991.34 3001.41 1996.84C2997.28 1994.44 2992.81 1992.72 2988 1991.34L2980.44 1976.22 2963.25 1976.22 2955.69 1991.34C2950.87 1992.72 2946.41 1994.44 2942.28 1996.84L2926.12 1991.34 2913.75 2003.72 2919.25 2019.88C2916.84 2024 2915.12 2028.47 2913.75 2033.28L2898.62 2040.84 2898.62 2058.03 2913.75 2065.59C2915.12 2070.41 2916.84 2074.88 2919.25 2079L2913.75 2095.16 2925.78 2107.19 2941.94 2101.69C2946.06 2104.09 2950.53 2105.81 2955.34 2107.19L2962.91 2122.31 2980.09 2122.31 2987.66 2107.19C2992.47 2105.81 2996.94 2104.09 3001.06 2101.69L3017.22 2107.19 3029.59 2095.16 3024.09 2079C3026.5 2074.88 3028.56 2070.06 3029.94 2065.59L3045.06 2058.03 3045.06 2040.84 3029.94 2033.28Z" fill="#000000" fill-rule="nonzero" fill-opacity="1"/><path d="M2894.16 2200.34C2879.72 2200.34 2868.37 2188.66 2868.37 2174.56 2868.37 2160.12 2880.06 2148.78 2894.16 2148.78 2908.59 2148.78 2919.94 2160.47 2919.94 2174.56 2919.94 2188.66 2908.59 2200.34 2894.16 2200.34L2894.16 2200.34ZM2946.75 2145 2952.25 2128.84 2939.87 2116.47 2923.72 2121.97C2919.59 2119.56 2914.78 2117.84 2910.31 2116.47L2902.75 2101.34 2885.56 2101.34 2878 2116.47C2873.19 2117.84 2868.72 2119.56 2864.59 2121.97L2848.44 2116.47 2836.41 2128.5 2841.56 2144.66C2839.16 2148.78 2837.44 2153.59 2836.06 2158.06L2820.94 2165.62 2820.94 2182.81 2836.06 2190.38C2837.44 2195.19 2839.16 2199.66 2841.56 2203.78L2836.41 2219.94 2848.44 2231.97 2864.59 2226.81C2868.72 2229.22 2873.19 2230.94 2878 2232.31L2885.56 2247.44 2902.75 2247.44 2910.31 2232.31C2915.12 2230.94 2919.59 2229.22 2923.72 2226.81L2939.87 2232.31 2951.91 2219.94 2946.75 2204.12C2949.16 2200 2950.87 2195.53 2952.25 2190.72L2967.37 2183.16 2967.37 2165.97 2952.25 2158.41C2950.87 2153.59 2949.16 2149.12 2946.75 2145Z" fill="#000000" fill-rule="nonzero" fill-opacity="1"/></g></g></g></g></g></svg>