<svg width="98" height="96" xmlns="http://www.w3.org/2000/svg" xmlns:xlink="http://www.w3.org/1999/xlink" xml:space="preserve" overflow="hidden"><g transform="translate(-1082 -1000)"><g><g><g><g><path d="M1157.5 1038.41C1158.21 1037.18 1158.78 1035.87 1159.2 1034.51L1163.6 1032.31 1163.6 1027.31 1159.2 1025.11C1158.83 1023.75 1158.29 1022.44 1157.6 1021.21L1159.2 1016.51 1155.6 1012.91 1150.9 1014.51C1149.67 1013.81 1148.36 1013.27 1147 1012.9L1144.8 1008.5 1139.8 1008.5 1137.6 1012.9C1136.24 1013.27 1134.93 1013.8 1133.7 1014.5L1129 1012.9 1125.4 1016.5 1127 1021.2C1126.31 1022.43 1125.77 1023.74 1125.4 1025.1L1121 1027.3 1121 1032.3 1125.4 1034.5C1125.77 1035.86 1126.31 1037.17 1127 1038.4L1125.4 1043.1 1128.9 1046.6 1133.6 1045C1134.83 1045.69 1136.14 1046.23 1137.5 1046.6L1139.7 1051 1144.7 1051 1146.9 1046.6C1148.26 1046.23 1149.57 1045.69 1150.8 1045L1155.5 1046.6 1159.1 1043.1ZM1155.61 1039.06 1156.8 1042.56 1154.98 1044.32 1151.44 1043.12 1150.58 1042.82 1149.79 1043.29C1148.71 1043.9 1147.55 1044.37 1146.35 1044.69L1145.51 1044.93 1145.11 1045.72 1143.46 1049.02 1140.94 1049.02 1139.29 1045.72 1138.9 1044.93 1138.05 1044.69C1136.85 1044.37 1135.69 1043.9 1134.61 1043.29L1133.82 1042.82 1132.96 1043.12 1129.44 1044.32 1127.7 1042.58 1128.9 1039.06 1129.19 1038.19 1128.73 1037.4C1128.12 1036.32 1127.65 1035.16 1127.33 1033.96L1127.09 1033.11 1126.3 1032.72 1123 1031.07 1123 1028.54 1126.3 1026.9 1127.09 1026.51 1127.33 1025.66C1127.65 1024.46 1128.12 1023.3 1128.73 1022.22L1129.19 1021.43 1128.89 1020.57 1127.69 1017.04 1129.53 1015.2 1133.06 1016.4 1133.92 1016.7 1134.71 1016.24C1135.79 1015.63 1136.95 1015.16 1138.15 1014.84L1139 1014.59 1139.39 1013.8 1141.04 1010.5 1143.57 1010.5 1145.22 1013.8 1145.61 1014.59 1146.45 1014.83C1147.66 1015.15 1148.81 1015.62 1149.9 1016.23L1150.69 1016.69 1151.55 1016.39 1155.07 1015.19 1156.91 1017.03 1155.71 1020.55 1155.42 1021.41 1155.88 1022.2C1156.49 1023.29 1156.96 1024.44 1157.28 1025.65L1157.52 1026.49 1158.31 1026.89 1161.61 1028.53 1161.61 1031.06 1158.31 1032.71 1157.55 1033.09 1157.29 1033.91C1156.92 1035.13 1156.41 1036.3 1155.78 1037.4L1155.32 1038.19Z" fill="#000000" fill-rule="nonzero" fill-opacity="1"/><path d="M1098.4 1063.62 1098.4 1068.62 1102.8 1070.82C1103.17 1072.18 1103.71 1073.49 1104.4 1074.72L1102.9 1079.42 1106.4 1082.92 1111.1 1081.42C1112.33 1082.11 1113.64 1082.65 1115 1083.02L1117.2 1087.42 1122.2 1087.42 1124.4 1083.02C1125.76 1082.65 1127.07 1082.11 1128.3 1081.42L1133 1083.02 1136.5 1079.42 1135 1074.82C1135.69 1073.59 1136.23 1072.28 1136.6 1070.92L1141 1068.72 1141 1063.72 1136.6 1061.52C1136.23 1060.16 1135.69 1058.85 1135 1057.62L1136.6 1052.92 1133 1049.32 1128.3 1050.92C1127.06 1050.24 1125.76 1049.7 1124.4 1049.32L1122.2 1044.92 1117.2 1044.92 1115 1049.32C1113.64 1049.69 1112.33 1050.22 1111.1 1050.92L1106.4 1049.32 1102.9 1052.82 1104.4 1057.52C1103.72 1058.75 1103.19 1060.06 1102.8 1061.42ZM1104.46 1062.82 1104.71 1062C1105.06 1060.79 1105.53 1059.62 1106.13 1058.52L1106.58 1057.75 1106.31 1056.9 1105.18 1053.36 1106.93 1051.6 1110.46 1052.8 1111.32 1053.1 1112.11 1052.64C1113.19 1052.03 1114.35 1051.55 1115.55 1051.23L1116.4 1051 1116.79 1050.21 1118.44 1046.91 1120.97 1046.91 1122.62 1050.21 1123 1050.98 1123.82 1051.23C1125.02 1051.57 1126.19 1052.05 1127.3 1052.65L1128.09 1053.11 1128.95 1052.81 1132.47 1051.61 1134.31 1053.45 1133.11 1056.98 1132.82 1057.84 1133.28 1058.63C1133.89 1059.71 1134.36 1060.87 1134.68 1062.07L1134.92 1062.92 1135.71 1063.31 1139 1064.95 1139 1067.48 1135.7 1069.13 1134.91 1069.53 1134.67 1070.37C1134.35 1071.57 1133.88 1072.73 1133.27 1073.81L1132.81 1074.59 1133.09 1075.44 1134.22 1078.89 1132.45 1080.72 1128.95 1079.53 1128.09 1079.23 1127.3 1079.69C1126.21 1080.31 1125.06 1080.78 1123.85 1081.1L1123.01 1081.34 1122.61 1082.13 1120.97 1085.43 1118.44 1085.43 1116.79 1082.13 1116.4 1081.34 1115.55 1081.1C1114.35 1080.78 1113.19 1080.31 1112.11 1079.69L1111.34 1079.25 1110.49 1079.52 1106.95 1080.65 1105.18 1078.87 1106.31 1075.33 1106.58 1074.48 1106.13 1073.71C1105.52 1072.63 1105.04 1071.47 1104.72 1070.27L1104.48 1069.43 1103.7 1069.03 1100.4 1067.38 1100.4 1064.85 1103.7 1063.21Z" fill="#000000" fill-rule="nonzero" fill-opacity="1"/><path d="M1142.3 1022.31C1138.16 1022.31 1134.8 1025.66 1134.8 1029.81 1134.8 1033.95 1138.16 1037.31 1142.3 1037.31 1146.44 1037.31 1149.8 1033.95 1149.8 1029.81 1149.77 1025.68 1146.43 1022.34 1142.3 1022.31ZM1142.3 1035.31C1139.26 1035.3 1136.8 1032.84 1136.8 1029.81 1136.84 1026.79 1139.28 1024.35 1142.3 1024.31 1145.34 1024.31 1147.8 1026.77 1147.8 1029.81 1147.76 1032.83 1145.32 1035.27 1142.3 1035.31Z" fill="#000000" fill-rule="nonzero" fill-opacity="1"/><path d="M1119.7 1073.72C1123.84 1073.72 1127.2 1070.36 1127.2 1066.22 1127.2 1062.08 1123.84 1058.72 1119.7 1058.72 1115.56 1058.72 1112.2 1062.08 1112.2 1066.22 1112.19 1070.36 1115.54 1073.72 1119.68 1073.72 1119.69 1073.72 1119.69 1073.72 1119.7 1073.72ZM1119.7 1060.72C1122.74 1060.72 1125.2 1063.18 1125.2 1066.22 1125.2 1069.25 1122.74 1071.72 1119.7 1071.72 1116.66 1071.72 1114.2 1069.25 1114.2 1066.22 1114.2 1063.18 1116.66 1060.72 1119.7 1060.72Z" fill="#000000" fill-rule="nonzero" fill-opacity="1"/></g></g></g></g></g></svg>