<svg width="97" height="96" xmlns="http://www.w3.org/2000/svg" xmlns:xlink="http://www.w3.org/1999/xlink" xml:space="preserve" overflow="hidden"><g transform="translate(-745 -1048)"><g><g><g><g><path d="M799.05 1127 793.05 1127C793.072 1109.5 807.252 1095.32 824.75 1095.3L824.75 1101.3C810.563 1101.32 799.067 1112.81 799.05 1127Z" fill="#000000" fill-rule="nonzero" fill-opacity="1"/><path d="M783.4 1127 777.4 1127C777.45 1100.88 798.626 1079.72 824.75 1079.69L824.75 1085.69C801.94 1085.72 783.45 1104.19 783.4 1127Z" fill="#000000" fill-rule="nonzero" fill-opacity="1"/><path d="M767.75 1127 761.75 1127C761.789 1092.22 789.972 1064.04 824.75 1064L824.75 1070C793.284 1070.03 767.783 1095.53 767.75 1127Z" fill="#000000" fill-rule="nonzero" fill-opacity="1"/><path d="M824.75 1119.21C824.75 1123.53 821.244 1127.04 816.92 1127.04 812.596 1127.04 809.09 1123.53 809.09 1119.21 809.09 1114.89 812.596 1111.38 816.92 1111.38 821.244 1111.38 824.75 1114.89 824.75 1119.21Z" fill="#000000" fill-rule="nonzero" fill-opacity="1"/></g></g></g></g></g></svg>