<svg width="97" height="97" xmlns="http://www.w3.org/2000/svg" xmlns:xlink="http://www.w3.org/1999/xlink" xml:space="preserve" overflow="hidden"><g transform="translate(-629 -77)"><g><g><g><g><path d="M720.6 158 681.5 90C680.437 88.0946 678.03 87.4121 676.124 88.4756 675.485 88.8326 674.957 89.3604 674.6 90L635.4 158C634.304 159.927 634.977 162.379 636.905 163.475 637.513 163.821 638.201 164.002 638.9 164L717.1 164C719.317 164.005 721.12 162.212 721.125 159.995 721.127 159.296 720.946 158.608 720.6 158ZM718.839 161.019C718.48 161.637 717.815 162.012 717.1 162L638.9 162C638.185 162.012 637.519 161.637 637.161 161.018 636.788 160.4 636.777 159.628 637.133 159L676.348 90.971C676.877 90.0316 678.067 89.6987 679.006 90.2276 679.328 90.4082 679.591 90.676 679.766 91L718.852 158.971C719.219 159.606 719.214 160.389 718.839 161.019Z" fill="#000000" fill-rule="nonzero" fill-opacity="1"/><path d="M678 151.98C677.395 151.998 676.812 151.758 676.394 151.32 675.963 150.889 675.727 150.3 675.744 149.691 675.719 149.083 675.953 148.494 676.387 148.068 676.816 147.646 677.398 147.417 678 147.436 678.614 147.421 679.208 147.65 679.652 148.074 680.1 148.49 680.345 149.08 680.322 149.691 680.337 150.303 680.091 150.893 679.646 151.314 679.212 151.753 678.617 151.993 678 151.98Z" fill="#000000" fill-rule="nonzero" fill-opacity="1"/><path d="M676.901 140.6 676.578 108.787 679.289 108.787 678.966 140.6 676.901 140.6Z" fill="#000000" fill-rule="nonzero" fill-opacity="1"/></g></g></g></g></g></svg>