<svg width="335" height="335" xmlns="http://www.w3.org/2000/svg" xmlns:xlink="http://www.w3.org/1999/xlink" xml:space="preserve" overflow="hidden"><g transform="translate(-545 -1567)"><g><g><g><g><path d="M808.25 1629.87C808.25 1645.06 765.157 1657.37 712 1657.37 658.842 1657.37 615.75 1645.06 615.75 1629.87 615.75 1614.69 658.842 1602.37 712 1602.37 765.157 1602.37 808.25 1614.69 808.25 1629.87Z" fill="#000000" fill-rule="nonzero" fill-opacity="1"/><path d="M780.75 1698.62C776.625 1698.62 773.875 1695.87 773.875 1691.75 773.875 1687.62 776.625 1684.87 780.75 1684.87 784.875 1684.87 787.625 1687.62 787.625 1691.75 787.625 1695.87 784.875 1698.62 780.75 1698.62ZM712 1671.12C659.062 1671.12 615.75 1658.75 615.75 1643.62L615.75 1698.62C615.75 1713.75 659.062 1726.12 712 1726.12 764.937 1726.12 808.25 1713.75 808.25 1698.62L808.25 1643.62C808.25 1658.75 764.937 1671.12 712 1671.12Z" fill="#000000" fill-rule="nonzero" fill-opacity="1"/><path d="M780.75 1767.37C776.625 1767.37 773.875 1764.62 773.875 1760.5 773.875 1756.37 776.625 1753.62 780.75 1753.62 784.875 1753.62 787.625 1756.37 787.625 1760.5 787.625 1764.62 784.875 1767.37 780.75 1767.37ZM712 1739.87C659.062 1739.87 615.75 1727.5 615.75 1712.37L615.75 1767.37C615.75 1782.5 659.062 1794.87 712 1794.87 764.937 1794.87 808.25 1782.5 808.25 1767.37L808.25 1712.37C808.25 1727.5 764.937 1739.87 712 1739.87Z" fill="#000000" fill-rule="nonzero" fill-opacity="1"/><path d="M780.75 1836.12C776.625 1836.12 773.875 1833.37 773.875 1829.25 773.875 1825.12 776.625 1822.37 780.75 1822.37 784.875 1822.37 787.625 1825.12 787.625 1829.25 787.625 1833.37 784.875 1836.12 780.75 1836.12ZM712 1808.62C659.062 1808.62 615.75 1796.25 615.75 1781.12L615.75 1836.12C615.75 1851.25 659.062 1863.62 712 1863.62 764.937 1863.62 808.25 1851.25 808.25 1836.12L808.25 1781.12C808.25 1796.25 764.937 1808.62 712 1808.62Z" fill="#000000" fill-rule="nonzero" fill-opacity="1"/></g></g></g></g></g></svg>