<svg width="798" height="792" xmlns="http://www.w3.org/2000/svg" xmlns:xlink="http://www.w3.org/1999/xlink" xml:space="preserve" overflow="hidden"><g transform="translate(-421 -660)"><g><g><g><g><path d="M1061.25 1311.75 1061.25 816.75C1061.25 768.521 937.987 742.5 822 742.5 706.013 742.5 582.75 768.521 582.75 816.75L582.75 1311.75C582.75 1359.98 706.013 1386 822 1386 937.987 1386 1061.25 1359.98 1061.25 1311.75ZM822 759C949.487 759 1044.75 789.525 1044.75 816.75 1044.75 843.975 949.487 874.5 822 874.5 694.513 874.5 599.25 843.975 599.25 816.75 599.25 789.525 694.513 759 822 759ZM599.25 845.295C636.614 875.16 731.522 891 822 891 912.478 891 1007.39 875.16 1044.75 845.295L1044.75 981.75C1044.75 1008.97 949.487 1039.5 822 1039.5 694.513 1039.5 599.25 1008.97 599.25 981.75ZM599.25 1010.29C636.614 1040.16 731.522 1056 822 1056 912.478 1056 1007.39 1040.16 1044.75 1010.29L1044.75 1146.75C1044.75 1173.97 949.487 1204.5 822 1204.5 694.513 1204.5 599.25 1173.97 599.25 1146.75ZM599.25 1311.75 599.25 1175.3C636.614 1205.16 731.522 1221 822 1221 912.478 1221 1007.39 1205.16 1044.75 1175.3L1044.75 1311.75C1044.75 1338.97 949.487 1369.5 822 1369.5 694.513 1369.5 599.25 1338.97 599.25 1311.75Z" fill="#000000" fill-rule="nonzero" fill-opacity="1"/><path d="M1003.5 957C1003.5 966.113 996.113 973.5 987 973.5 977.887 973.5 970.5 966.113 970.5 957 970.5 947.887 977.887 940.5 987 940.5 996.113 940.5 1003.5 947.887 1003.5 957Z" fill="#000000" fill-rule="nonzero" fill-opacity="1"/><path d="M1003.5 1122C1003.5 1131.11 996.113 1138.5 987 1138.5 977.887 1138.5 970.5 1131.11 970.5 1122 970.5 1112.89 977.887 1105.5 987 1105.5 996.113 1105.5 1003.5 1112.89 1003.5 1122Z" fill="#000000" fill-rule="nonzero" fill-opacity="1"/><path d="M1003.5 1287C1003.5 1296.11 996.113 1303.5 987 1303.5 977.887 1303.5 970.5 1296.11 970.5 1287 970.5 1277.89 977.887 1270.5 987 1270.5 996.113 1270.5 1003.5 1277.89 1003.5 1287Z" fill="#000000" fill-rule="nonzero" fill-opacity="1"/></g></g></g></g></g></svg>