<svg width="98" height="98" xmlns="http://www.w3.org/2000/svg" xmlns:xlink="http://www.w3.org/1999/xlink" xml:space="preserve" overflow="hidden"><g transform="translate(-1246 -550)"><g><g><g><g><path d="M1255 640 1276 640C1276.55 640 1277 639.552 1277 639 1277 638.448 1276.55 638 1276 638L1257.44 638C1257.43 638 1257.43 637.995 1257.43 637.99 1257.43 637.987 1257.43 637.985 1257.43 637.983L1333.98 561.431C1333.99 561.427 1333.99 561.427 1334 561.431 1334 561.433 1334 561.435 1334 561.438L1334 580C1334 580.552 1334.45 581 1335 581 1335.55 581 1336 580.552 1336 580L1336 559C1336 558.448 1335.55 558 1335 558L1314 558C1313.45 558 1313 558.448 1313 559 1313 559.552 1313.45 560 1314 560L1332.56 560C1332.57 560 1332.57 560.005 1332.57 560.01 1332.57 560.013 1332.57 560.015 1332.57 560.017L1256.02 636.569C1256.01 636.573 1256.01 636.573 1256 636.569 1256 636.567 1256 636.565 1256 636.562L1256 618C1256 617.448 1255.55 617 1255 617 1254.45 617 1254 617.448 1254 618L1254 639C1254 639.552 1254.45 640 1255 640Z" fill="#000000" fill-rule="nonzero" fill-opacity="1"/></g></g></g></g></g></svg>