<svg width="97" height="96" xmlns="http://www.w3.org/2000/svg" xmlns:xlink="http://www.w3.org/1999/xlink" xml:space="preserve" overflow="hidden"><g transform="translate(-813 -164)"><g><g><g><g><path d="M900.751 211.34C899.985 210.468 881.768 190 862 190 842.232 190 824.015 210.468 823.249 211.34 822.917 211.717 822.917 212.283 823.249 212.66 824.015 213.532 842.232 234 862 234 881.768 234 899.985 213.532 900.751 212.66 901.083 212.283 901.083 211.717 900.751 211.34ZM843 212C843 201.507 851.507 193 862 193 872.493 193 881 201.507 881 212 881 222.493 872.493 231 862 231 851.511 230.988 843.012 222.489 843 212ZM825.359 212C827.959 209.24 838.536 198.583 851.112 194.055 851.161 194.037 851.165 194.045 851.12 194.072 841.219 200.048 838.036 212.919 844.012 222.82 845.769 225.731 848.209 228.171 851.12 229.928 851.165 229.955 851.161 229.963 851.112 229.945 838.536 225.417 827.955 214.76 825.359 212ZM872.888 229.945C872.839 229.963 872.835 229.955 872.88 229.928 882.781 223.952 885.964 211.081 879.988 201.18 878.231 198.269 875.791 195.829 872.88 194.072 872.835 194.045 872.839 194.037 872.888 194.055 885.464 198.583 896.045 209.24 898.641 212 896.045 214.76 885.464 225.417 872.888 229.945Z" fill="#000000" fill-rule="nonzero" fill-opacity="1"/><path d="M862 203C857.029 203 853 207.029 853 212 853 216.971 857.029 221 862 221 866.971 221 871 216.971 871 212 870.994 207.032 866.968 203.006 862 203ZM862 219C858.134 219 855 215.866 855 212 855 208.134 858.134 205 862 205 865.866 205 869 208.134 869 212 868.996 215.864 865.864 218.996 862 219Z" fill="#000000" fill-rule="nonzero" fill-opacity="1"/></g></g></g></g></g></svg>