<svg width="98" height="98" xmlns="http://www.w3.org/2000/svg" xmlns:xlink="http://www.w3.org/1999/xlink" xml:space="preserve" overflow="hidden"><g transform="translate(-1246 -802)"><g><g><g><g><path d="M1280 830.586 1276.71 827.293 1275.29 828.707 1280 833.414 1289.71 823.707 1288.29 822.293 1280 830.586Z" fill="#000000" fill-rule="nonzero" fill-opacity="1"/><path d="M1296 828 1315 828 1315 830 1296 830Z" fill="#000000" fill-rule="nonzero" fill-opacity="1"/><path d="M1280 845.586 1276.71 842.293 1275.29 843.707 1280 848.414 1289.71 838.707 1288.29 837.293 1280 845.586Z" fill="#000000" fill-rule="nonzero" fill-opacity="1"/><path d="M1296 843 1315 843 1315 845 1296 845Z" fill="#000000" fill-rule="nonzero" fill-opacity="1"/><path d="M1280 860.586 1276.71 857.293 1275.29 858.707 1280 863.414 1289.71 853.707 1288.29 852.293 1280 860.586Z" fill="#000000" fill-rule="nonzero" fill-opacity="1"/><path d="M1296 858 1315 858 1315 860 1296 860Z" fill="#000000" fill-rule="nonzero" fill-opacity="1"/><path d="M1280 875.586 1276.71 872.293 1275.29 873.707 1280 878.414 1289.71 868.707 1288.29 867.293 1280 875.586Z" fill="#000000" fill-rule="nonzero" fill-opacity="1"/><path d="M1296 873 1315 873 1315 875 1296 875Z" fill="#000000" fill-rule="nonzero" fill-opacity="1"/><path d="M1265 891 1325 891 1325 811 1265 811ZM1267 813 1323 813 1323 889 1267 889Z" fill="#000000" fill-rule="nonzero" fill-opacity="1"/></g></g></g></g></g></svg>