<svg width="97" height="98" xmlns="http://www.w3.org/2000/svg" xmlns:xlink="http://www.w3.org/1999/xlink" xml:space="preserve" overflow="hidden"><g transform="translate(-1401 -846)"><g><g><g><g><path d="M1434 896.991 1434 929 1434 929.023 1448 929.023 1448 897.014 1448 896.991ZM1436 899.014 1446 899.014 1446 927 1436 927Z" fill="#000000" fill-rule="nonzero" fill-opacity="1"/><path d="M1452 878.986 1452 929 1452 929.023 1466 929.023 1466 879.009 1466 878.986ZM1454 881.009 1464 881.009 1464 927 1454 927Z" fill="#000000" fill-rule="nonzero" fill-opacity="1"/><path d="M1484 860.981 1470 860.981 1470 929 1470 929.023 1484 929.023 1484 861ZM1472 863 1482 863 1482 927 1472 927Z" fill="#000000" fill-rule="nonzero" fill-opacity="1"/><path d="M1416 915 1416 929 1416 929.023 1430 929.023 1430 915.023 1430 915ZM1418 917.023 1428 917.023 1428 927 1418 927Z" fill="#000000" fill-rule="nonzero" fill-opacity="1"/></g></g></g></g></g></svg>