<svg width="98" height="96" xmlns="http://www.w3.org/2000/svg" xmlns:xlink="http://www.w3.org/1999/xlink" xml:space="preserve" overflow="hidden"><g transform="translate(-530 -108)"><g><g><g><g><path d="M604.9 157.3C606.7 164.6 599.2 171.8 591.8 168.8 585.6 166.6 583.2 159.4 587.5 153.2 597.2 140.3 590.1 120 574 113 581.3 126.8 570.1 139.5 563.7 144.8 557.3 150.1 553 155.6 551.7 158.8 545.2 174.6 554.9 189.7 561.5 193.3 558.5 186.5 555.7 173.5 567.5 161.3 567.5 161.3 564.1 174.3 571.5 183.3 578.9 192.3 578.8 199 578.8 199 590.3 199 601.2 192.1 605.8 180.8 609.3 174.1 609.6 163.5 604.9 157.3" fill="#F9CECC" fill-rule="nonzero" fill-opacity="1"/></g></g></g></g></g></svg>