<svg width="97" height="96" xmlns="http://www.w3.org/2000/svg" xmlns:xlink="http://www.w3.org/1999/xlink" xml:space="preserve" overflow="hidden"><g transform="translate(-357 -120)"><g><g><g><g><path d="M434.7 182.3 430.2 179.7 433.7 178.8C434.8 178.5 435.4 177.4 435.1 176.4 434.8 175.4 433.7 174.7 432.7 175L425.3 177 422.4 175.3 431.4 172.9C432.5 172.6 433.1 171.5 432.8 170.5 432.5 169.5 431.4 168.8 430.4 169.1L417.5 172.5 413.7 170.3C413.9 169.6 414 168.9 414 168.2 414 167.5 413.9 166.7 413.7 166.1L417.5 163.9 430.4 167.3C430.6 167.3 430.7 167.4 430.9 167.4 431.8 167.4 432.6 166.8 432.8 165.9 433.1 164.8 432.5 163.7 431.4 163.5L422.4 161.1 425.3 159.4 432.7 161.4C432.9 161.4 433 161.5 433.2 161.5 434.1 161.5 434.9 160.9 435.1 160 435.4 158.9 434.8 157.8 433.7 157.6L430.2 156.7 434.7 154.1C435.7 153.5 436 152.3 435.4 151.4 434.8 150.4 433.6 150.1 432.7 150.7L428.2 153.3 429.1 149.8C429.4 148.7 428.8 147.6 427.7 147.4 426.6 147.1 425.5 147.7 425.3 148.8L423.3 156.2 420.4 157.9 422.8 148.9C423.1 147.8 422.5 146.7 421.4 146.5 420.3 146.2 419.2 146.8 419 147.9L415.6 160.8 411.8 163C410.8 162 409.5 161.2 408.1 160.9L408.1 156.5 417.5 147.1C418.3 146.3 418.3 145.1 417.5 144.3 416.7 143.5 415.5 143.5 414.7 144.3L408 150.2 408 146.9 413.4 141.5C414.2 140.7 414.2 139.5 413.4 138.7 412.6 137.9 411.4 137.9 410.6 138.7L408 141.2 408 136C408 134.9 407.1 134 406 134 404.9 134 404 134.9 404 136L404 141.2 401.4 138.6C400.6 137.8 399.4 137.8 398.6 138.6 397.8 139.4 397.8 140.6 398.6 141.4L404 146.8 404 150.1 397.4 143.5C396.6 142.7 395.4 142.7 394.6 143.5 393.8 144.3 393.8 145.5 394.6 146.3L404 155.7 404 160.1C402.6 160.5 401.3 161.2 400.3 162.2L396.5 160 393 147.3C392.7 146.2 391.6 145.6 390.6 145.9 389.5 146.2 388.9 147.3 389.2 148.3L391.6 157.3 388.7 155.6 386.7 148.2C386.4 147.1 385.3 146.5 384.3 146.8 383.2 147.1 382.6 148.2 382.9 149.2L383.8 152.7 379.3 150.1C378.3 149.5 377.1 149.9 376.6 150.8 376 151.8 376.4 153 377.3 153.5L381.8 156.1 378.3 157C377.2 157.3 376.6 158.4 376.9 159.4 377.1 160.3 377.9 160.9 378.8 160.9 379 160.9 379.1 160.9 379.3 160.8L386.7 158.8 389.6 160.5 380.6 162.9C379.5 163.2 378.9 164.3 379.2 165.3 379.4 166.2 380.2 166.8 381.1 166.8 381.3 166.8 381.4 166.8 381.6 166.7L394.5 163.3 398.3 165.5C398.1 166.5 398 167.3 398 168 398 168.7 398.1 169.5 398.3 170.1L394.5 172.3 381.6 168.9C380.5 168.6 379.4 169.2 379.2 170.3 379 171.4 379.5 172.5 380.6 172.7L389.6 175.1 386.7 176.8 379.3 174.8C378.2 174.5 377.1 175.1 376.9 176.2 376.7 177.3 377.2 178.4 378.3 178.6L381.8 179.5 377.3 182.1C376.3 182.7 376 183.9 376.6 184.8 377 185.4 377.6 185.8 378.3 185.8 378.6 185.8 379 185.7 379.3 185.5L383.8 182.9 382.9 186.4C382.6 187.5 383.2 188.6 384.3 188.8 384.5 188.8 384.6 188.9 384.8 188.9 385.7 188.9 386.5 188.3 386.7 187.4L388.7 180 391.6 178.3 389.2 187.3C388.9 188.4 389.5 189.5 390.6 189.7 390.8 189.7 390.9 189.8 391.1 189.8 392 189.8 392.8 189.2 393 188.3L396.4 175.4 400.2 173.2C401.2 174.2 402.5 175 403.9 175.3L403.9 179.7 394.5 189.1C393.7 189.9 393.7 191.1 394.5 191.9 395.3 192.7 396.5 192.7 397.3 191.9L403.9 185.3 403.9 188.6 398.5 194C397.7 194.8 397.7 196 398.5 196.8 399.3 197.6 400.5 197.6 401.3 196.8L403.9 194.2 403.9 200C403.9 201.1 404.8 202 405.9 202 407 202 407.9 201.1 407.9 200L407.9 194.8 410.5 197.4C411 197.8 411.5 198 412 198 412.5 198 413 197.8 413.4 197.4 414.2 196.6 414.2 195.4 413.4 194.6L408 189.2 408 185.9 414.6 192.5C415 192.8 415.5 193 416 193 416.5 193 417 192.8 417.4 192.4 418.2 191.6 418.2 190.4 417.4 189.6L408 180.2 408 175.8C409.4 175.4 410.7 174.7 411.7 173.7L415.5 175.9 419 188.7C419.2 189.6 420 190.2 420.9 190.2 421.1 190.2 421.2 190.2 421.4 190.1 422.5 189.8 423.1 188.7 422.8 187.7L420.4 178.7 423.3 180.4 425.3 187.8C425.5 188.7 426.3 189.3 427.2 189.3 427.4 189.3 427.5 189.3 427.7 189.2 428.8 188.9 429.4 187.8 429.1 186.8L428.2 183.3 432.7 185.9C433 186.1 433.4 186.2 433.7 186.2 434.4 186.2 435.1 185.8 435.4 185.2 436 184 435.7 182.8 434.7 182.3Z" fill="#D9E8FC" fill-rule="nonzero" fill-opacity="1"/></g></g></g></g></g></svg>