<svg width="97" height="97" xmlns="http://www.w3.org/2000/svg" xmlns:xlink="http://www.w3.org/1999/xlink" xml:space="preserve" overflow="hidden"><g transform="translate(-1281 -916)"><g><g><g><g><path d="M1298 931 1296 931 1296 999 1363.97 999 1363.97 997 1298 997 1298 931Z" fill="#000000" fill-rule="nonzero" fill-opacity="1"/><path d="M1316 991.016 1316 952.006 1304 952.006 1304 991.016ZM1306 954.006 1314 954.006 1314 989.016 1306 989.016Z" fill="#000000" fill-rule="nonzero" fill-opacity="1"/><path d="M1332 991.016 1332 931 1320 931 1320 991.016ZM1322 933 1330 933 1330 989.016 1322 989.016Z" fill="#000000" fill-rule="nonzero" fill-opacity="1"/><path d="M1348 991.016 1348 952.006 1336 952.006 1336 991.016ZM1338 954.006 1346 954.006 1346 989.016 1338 989.016Z" fill="#000000" fill-rule="nonzero" fill-opacity="1"/><path d="M1352 991.016 1364 991.016 1364 969.011 1352 969.011ZM1354 971.011 1362 971.011 1362 989.016 1354 989.016Z" fill="#000000" fill-rule="nonzero" fill-opacity="1"/></g></g></g></g></g></svg>