<svg width="98" height="96" xmlns="http://www.w3.org/2000/svg" xmlns:xlink="http://www.w3.org/1999/xlink" xml:space="preserve" overflow="hidden"><g transform="translate(-482 -192)"><g><g><g><g><path d="M564.13 220.19C562 213.87 556.09 208.5 549.3 207.85 548.838 207.804 548.381 207.782 547.933 207.782 540.065 207.782 534.333 214.623 531.008 221.193 531.008 221.203 530.996 221.203 530.992 221.193 527.781 214.839 522.473 208.293 514.81 207.81 514.531 207.793 514.253 207.784 513.975 207.784 507.486 207.784 501.54 212.424 498.73 218.13 495.06 225.6 498.05 234 501.91 240.71 506.053 247.611 511.075 253.944 516.85 259.55 521.28 264.083 526.007 268.315 531 272.22L531.28 272C535.665 268.538 539.848 264.829 543.81 260.89 549.553 255.419 554.631 249.29 558.94 242.63 562.94 236.19 566.76 227.83 564.13 220.19ZM542.4 259.472C538.781 263.068 534.976 266.471 531 269.668 526.528 266.088 522.278 262.24 518.273 258.145 512.992 252.998 508.34 247.243 504.415 241L516.451 241C516.872 240.98 517.241 240.716 517.396 240.324L521.866 227.268C521.872 227.248 521.881 227.249 521.885 227.268L527.567 256.838C527.652 257.278 528.02 257.608 528.467 257.645 528.496 257.646 528.525 257.646 528.554 257.645 528.969 257.645 529.34 257.389 529.488 257.001L538.315 233.866C538.321 233.851 538.329 233.851 538.334 233.866L542.444 248.023C542.6 248.553 543.155 248.856 543.685 248.701 543.857 248.65 544.013 248.554 544.135 248.423L551.084 241 557.584 241 557.594 241.019C553.291 247.759 548.189 253.955 542.4 259.472ZM558.752 239 550.652 239C550.379 239.015 550.12 239.128 549.922 239.317L543.885 245.771C543.878 245.778 543.871 245.776 543.868 245.771L539.41 230.421C539.255 229.891 538.7 229.587 538.17 229.741 537.87 229.829 537.628 230.052 537.516 230.344L528.881 252.976C528.874 252.994 528.865 252.994 528.862 252.976L523.133 223.161C523.047 222.716 522.673 222.385 522.221 222.353 521.765 222.308 521.341 222.589 521.204 223.026L515.735 239 503.25 239C498.841 231.046 497.916 224.322 500.524 219.014 503.243 213.493 508.648 209.784 513.975 209.784 514.212 209.784 514.449 209.792 514.685 209.806 521.785 210.25 526.505 216.743 529.215 222.111L530.991 225.63C530.991 225.64 531.004 225.64 531.008 225.63L532.785 222.112C534.657 218.405 539.885 209.782 547.933 209.782 548.318 209.782 548.712 209.802 549.109 209.841 554.842 210.39 560.239 214.908 562.239 220.841 563.935 225.769 562.784 231.739 558.752 239Z" fill="#000000" fill-rule="nonzero" fill-opacity="1"/></g></g></g></g></g></svg>