<svg width="241" height="241" xmlns="http://www.w3.org/2000/svg" xmlns:xlink="http://www.w3.org/1999/xlink" xml:space="preserve" overflow="hidden"><g transform="translate(-865 -377)"><g><g><g><g><path d="M1016 473 1016 465.5 986 435.5 956 465.5 956 473 883.5 473 883.5 483 888.5 483 888.5 578 1083.5 578 1083.5 483 1088.5 483 1088.5 473ZM913.5 558 898.5 558 898.5 543 913.5 543ZM913.5 533 898.5 533 898.5 518 913.5 518ZM913.5 508 898.5 508 898.5 493 913.5 493ZM938.5 558 923.5 558 923.5 543 938.5 543ZM938.5 533 923.5 533 923.5 518 938.5 518ZM938.5 508 923.5 508 923.5 493 938.5 493ZM963.5 558 948.5 558 948.5 543 963.5 543ZM963.5 533 948.5 533 948.5 518 963.5 518ZM963.5 508 948.5 508 948.5 493 963.5 493ZM976 568 976 533 996 533 996 568ZM1003.5 482.7 998.825 490.8 990.675 486.075 990.675 495.5 981.325 495.5 981.325 486.075 973.175 490.8 968.5 482.7 976.675 478 968.5 473.3 973.175 465.2 981.325 469.925 981.325 460.5 990.675 460.5 990.675 469.925 998.825 465.2 1003.5 473.3 995.325 478ZM1023.5 558 1008.5 558 1008.5 543 1023.5 543ZM1023.5 533 1008.5 533 1008.5 518 1023.5 518ZM1023.5 508 1008.5 508 1008.5 493 1023.5 493ZM1048.5 558 1033.5 558 1033.5 543 1048.5 543ZM1048.5 533 1033.5 533 1033.5 518 1048.5 518ZM1048.5 508 1033.5 508 1033.5 493 1048.5 493ZM1073.5 558 1058.5 558 1058.5 543 1073.5 543ZM1073.5 533 1058.5 533 1058.5 518 1073.5 518ZM1073.5 508 1058.5 508 1058.5 493 1073.5 493Z" fill="#000000" fill-rule="nonzero" fill-opacity="1"/><path d="M986 422.575 1022.47 459.025 1029.53 451.975 986 408.425 942.475 451.975 949.525 459.025 986 422.575Z" fill="#000000" fill-rule="nonzero" fill-opacity="1"/></g></g></g></g></g></svg>