<svg width="137" height="136" xmlns="http://www.w3.org/2000/svg" xmlns:xlink="http://www.w3.org/1999/xlink" xml:space="preserve" overflow="hidden"><g transform="translate(-80 -324)"><g><path d="M74.5648 51.1898 69.3288 54.213 69.3288 48.1667 66.4955 48.1667 66.4955 54.213 61.2595 51.1898 59.8428 53.6435 65.0774 56.6667 59.8428 59.6898 61.2595 62.1435 66.4955 59.1203 66.4955 65.1667 69.3288 65.1667 69.3288 59.1203 74.5648 62.1435 75.9815 59.6898 70.7455 56.6667 75.9815 53.6435 74.5648 51.1898Z" fill="#000000" fill-rule="nonzero" fill-opacity="1" transform="matrix(1.00735 0 0 1 80 324)"/><path d="M82.1667 96.3347 87.8333 96.3347 87.8333 102 82.1667 102Z" fill="#000000" fill-rule="nonzero" fill-opacity="1" transform="matrix(1.00735 0 0 1 80 324)"/><path d="M82.1667 86.4167 87.8333 86.4167 87.8333 92.0819 82.1667 92.0819Z" fill="#000000" fill-rule="nonzero" fill-opacity="1" transform="matrix(1.00735 0 0 1 80 324)"/><path d="M94.9167 96.3333 100.583 96.3333 100.583 101.999 94.9167 101.999Z" fill="#000000" fill-rule="nonzero" fill-opacity="1" transform="matrix(1.00735 0 0 1 80 324)"/><path d="M94.9167 86.4181 100.583 86.4181 100.583 92.0833 94.9167 92.0833Z" fill="#000000" fill-rule="nonzero" fill-opacity="1" transform="matrix(1.00735 0 0 1 80 324)"/><path d="M82.1667 76.5 87.8333 76.5 87.8333 82.1652 82.1667 82.1652Z" fill="#000000" fill-rule="nonzero" fill-opacity="1" transform="matrix(1.00735 0 0 1 80 324)"/><path d="M94.9167 76.5 100.583 76.5 100.583 82.1652 94.9167 82.1652Z" fill="#000000" fill-rule="nonzero" fill-opacity="1" transform="matrix(1.00735 0 0 1 80 324)"/><path d="M107.667 96.3333 113.333 96.3333 113.333 101.999 107.667 101.999Z" fill="#000000" fill-rule="nonzero" fill-opacity="1" transform="matrix(1.00735 0 0 1 80 324)"/><path d="M107.667 86.4181 113.333 86.4181 113.333 92.0833 107.667 92.0833Z" fill="#000000" fill-rule="nonzero" fill-opacity="1" transform="matrix(1.00735 0 0 1 80 324)"/><path d="M107.667 76.5 113.333 76.5 113.333 82.1652 107.667 82.1652Z" fill="#000000" fill-rule="nonzero" fill-opacity="1" transform="matrix(1.00735 0 0 1 80 324)"/><path d="M82.1667 66.5847 87.8333 66.5847 87.8333 72.25 82.1667 72.25Z" fill="#000000" fill-rule="nonzero" fill-opacity="1" transform="matrix(1.00735 0 0 1 80 324)"/><path d="M94.9167 66.5833 100.583 66.5833 100.583 72.2486 94.9167 72.2486Z" fill="#000000" fill-rule="nonzero" fill-opacity="1" transform="matrix(1.00735 0 0 1 80 324)"/><path d="M107.667 66.5833 113.333 66.5833 113.333 72.2486 107.667 72.2486Z" fill="#000000" fill-rule="nonzero" fill-opacity="1" transform="matrix(1.00735 0 0 1 80 324)"/><path d="M22.6667 96.3347 28.3333 96.3347 28.3333 102 22.6667 102Z" fill="#000000" fill-rule="nonzero" fill-opacity="1" transform="matrix(1.00735 0 0 1 80 324)"/><path d="M22.6667 86.4167 28.3333 86.4167 28.3333 92.0819 22.6667 92.0819Z" fill="#000000" fill-rule="nonzero" fill-opacity="1" transform="matrix(1.00735 0 0 1 80 324)"/><path d="M35.4167 96.3333 41.0833 96.3333 41.0833 101.999 35.4167 101.999Z" fill="#000000" fill-rule="nonzero" fill-opacity="1" transform="matrix(1.00735 0 0 1 80 324)"/><path d="M35.4167 86.4181 41.0833 86.4181 41.0833 92.0833 35.4167 92.0833Z" fill="#000000" fill-rule="nonzero" fill-opacity="1" transform="matrix(1.00735 0 0 1 80 324)"/><path d="M22.6667 76.5 28.3333 76.5 28.3333 82.1652 22.6667 82.1652Z" fill="#000000" fill-rule="nonzero" fill-opacity="1" transform="matrix(1.00735 0 0 1 80 324)"/><path d="M35.4167 76.5 41.0833 76.5 41.0833 82.1652 35.4167 82.1652Z" fill="#000000" fill-rule="nonzero" fill-opacity="1" transform="matrix(1.00735 0 0 1 80 324)"/><path d="M48.1667 96.3333 53.8333 96.3333 53.8333 101.999 48.1667 101.999Z" fill="#000000" fill-rule="nonzero" fill-opacity="1" transform="matrix(1.00735 0 0 1 80 324)"/><path d="M48.1667 86.4181 53.8333 86.4181 53.8333 92.0833 48.1667 92.0833Z" fill="#000000" fill-rule="nonzero" fill-opacity="1" transform="matrix(1.00735 0 0 1 80 324)"/><path d="M48.1667 76.5 53.8333 76.5 53.8333 82.1652 48.1667 82.1652Z" fill="#000000" fill-rule="nonzero" fill-opacity="1" transform="matrix(1.00735 0 0 1 80 324)"/><path d="M22.6667 66.5847 28.3333 66.5847 28.3333 72.25 22.6667 72.25Z" fill="#000000" fill-rule="nonzero" fill-opacity="1" transform="matrix(1.00735 0 0 1 80 324)"/><path d="M35.4167 66.5833 41.0833 66.5833 41.0833 72.2486 35.4167 72.2486Z" fill="#000000" fill-rule="nonzero" fill-opacity="1" transform="matrix(1.00735 0 0 1 80 324)"/><path d="M48.1667 66.5833 53.8333 66.5833 53.8333 72.2486 48.1667 72.2486Z" fill="#000000" fill-rule="nonzero" fill-opacity="1" transform="matrix(1.00735 0 0 1 80 324)"/><path d="M123.25 55.25 86.4167 55.25 86.4167 50.0537 87.006 50.6444 94.3868 43.1885 68 17.8727 41.038 43.6206 48.5548 51.0892 49.5833 50.0593 49.5833 55.25 9.91667 55.25 9.91667 58.0833 12.75 58.0833 12.75 113.333 123.25 113.333 123.25 58.0833 126.083 58.0833 126.083 55.25ZM48.5477 47.0872 45.0982 43.6602 68 21.794 90.3507 43.2409 87.0003 46.6267 86.4167 46.0417 68 27.625 49.5833 46.0417 49.5833 46.0544ZM63.75 110.5 63.75 93.5 72.25 93.5 72.25 110.5ZM120.417 110.5 75.0833 110.5 75.0833 90.6667 60.9167 90.6667 60.9167 110.5 15.5833 110.5 15.5833 58.0833 52.4167 58.0833 52.4167 47.2246 54.3164 45.3248 68 31.6228 80.4383 44.064 83.5833 47.2217 83.5833 58.0833 120.417 58.0833Z" fill="#000000" fill-rule="nonzero" fill-opacity="1" transform="matrix(1.00735 0 0 1 80 324)"/></g></g></svg>