<svg width="98" height="97" xmlns="http://www.w3.org/2000/svg" xmlns:xlink="http://www.w3.org/1999/xlink" xml:space="preserve" overflow="hidden"><g transform="translate(-946 -1072)"><g><g><g><g><path d="M1029 1096 1018.94 1096C1018.37 1091.06 1013.91 1087.52 1008.97 1088.09 1004.82 1088.57 1001.54 1091.84 1001.06 1096L961 1096 961 1098 1001.06 1098C1001.63 1102.94 1006.09 1106.48 1011.03 1105.91 1015.18 1105.43 1018.46 1102.16 1018.94 1098L1029 1098ZM1010 1104C1006.13 1104 1003 1100.87 1003 1097 1003 1093.13 1006.13 1090 1010 1090 1013.87 1090 1017 1093.13 1017 1097 1017 1100.86 1013.86 1104 1010 1104Z" fill="#000000" fill-rule="nonzero" fill-opacity="1"/><path d="M1029 1146 1029 1144 1014.94 1144C1014.37 1139.06 1009.91 1135.52 1004.97 1136.09 1000.82 1136.57 997.537 1139.84 997.059 1144L961 1144 961 1146 997.059 1146C997.627 1150.94 1002.09 1154.48 1007.03 1153.91 1011.18 1153.43 1014.46 1150.16 1014.94 1146ZM1006 1152C1002.13 1152 999 1148.87 999 1145 999 1141.13 1002.13 1138 1006 1138 1009.87 1138 1013 1141.13 1013 1145 1013 1148.86 1009.86 1152 1006 1152Z" fill="#000000" fill-rule="nonzero" fill-opacity="1"/><path d="M981 1112C976.418 1112 972.568 1115.45 972.059 1120L961 1120 961 1122 972.059 1122C972.627 1126.94 977.091 1130.48 982.029 1129.91 986.185 1129.43 989.463 1126.16 989.941 1122L1029 1122 1029 1120 989.941 1120C989.432 1115.45 985.582 1112 981 1112ZM981 1128C977.134 1128 974 1124.87 974 1121 974 1117.13 977.134 1114 981 1114 984.866 1114 988 1117.13 988 1121 987.996 1124.86 984.864 1128 981 1128Z" fill="#000000" fill-rule="nonzero" fill-opacity="1"/></g></g></g></g></g></svg>