<svg width="96" height="98" xmlns="http://www.w3.org/2000/svg" xmlns:xlink="http://www.w3.org/1999/xlink" xml:space="preserve" overflow="hidden"><g transform="translate(-924 -50)"><g><g><g><g><path d="M983 72.867 983 99 972 99 972 68 946 68 946 91 935 91 935 130 1009 130 1009 76.117ZM948 70 970 70 970 99 961 99 961 91 948 91ZM959 128 950 128 950 122 946 122 946 128 937 128 937 93 959 93 959 128ZM983 128 974 128 974 122 970 122 970 128 961 128 961 101 983 101ZM1007 128 998 128 998 122 994 122 994 128 985 128 985 75.133 1007 77.883Z" fill="#000000" fill-rule="nonzero" fill-opacity="1"/><path d="M966 114.018 970 114.018 970 118.019 966 118.019Z" fill="#000000" fill-rule="nonzero" fill-opacity="1"/><path d="M974 114.018 978 114.018 978 118.019 974 118.019Z" fill="#000000" fill-rule="nonzero" fill-opacity="1"/><path d="M966 106 970 106 970 110.001 966 110.001Z" fill="#000000" fill-rule="nonzero" fill-opacity="1"/><path d="M974 106 978 106 978 110.001 974 110.001Z" fill="#000000" fill-rule="nonzero" fill-opacity="1"/><path d="M953 83.018 957 83.018 957 87.019 953 87.019Z" fill="#000000" fill-rule="nonzero" fill-opacity="1"/><path d="M961 83.018 965 83.018 965 87.019 961 87.019Z" fill="#000000" fill-rule="nonzero" fill-opacity="1"/><path d="M953 75 957 75 957 79.001 953 79.001Z" fill="#000000" fill-rule="nonzero" fill-opacity="1"/><path d="M961 75 965 75 965 79.001 961 79.001Z" fill="#000000" fill-rule="nonzero" fill-opacity="1"/><path d="M942.001 114.018 946.001 114.018 946.001 118.019 942.001 118.019Z" fill="#000000" fill-rule="nonzero" fill-opacity="1"/><path d="M950.001 114.018 954.001 114.018 954.001 118.019 950.001 118.019Z" fill="#000000" fill-rule="nonzero" fill-opacity="1"/><path d="M942.001 106 946.001 106 946.001 110.001 942.001 110.001Z" fill="#000000" fill-rule="nonzero" fill-opacity="1"/><path d="M950.001 106 954.001 106 954.001 110.001 950.001 110.001Z" fill="#000000" fill-rule="nonzero" fill-opacity="1"/><path d="M942.001 98 946.001 98 946.001 102.001 942.001 102.001Z" fill="#000000" fill-rule="nonzero" fill-opacity="1"/><path d="M950.001 98 954.001 98 954.001 102.001 950.001 102.001Z" fill="#000000" fill-rule="nonzero" fill-opacity="1"/><path d="M990 114.018 994 114.018 994 118.019 990 118.019Z" fill="#000000" fill-rule="nonzero" fill-opacity="1"/><path d="M998 114.018 1002 114.018 1002 118.019 998 118.019Z" fill="#000000" fill-rule="nonzero" fill-opacity="1"/><path d="M990 106 994 106 994 110.001 990 110.001Z" fill="#000000" fill-rule="nonzero" fill-opacity="1"/><path d="M998 106 1002 106 1002 110.001 998 110.001Z" fill="#000000" fill-rule="nonzero" fill-opacity="1"/><path d="M990 98 994 98 994 102.001 990 102.001Z" fill="#000000" fill-rule="nonzero" fill-opacity="1"/><path d="M998 98 1002 98 1002 102.001 998 102.001Z" fill="#000000" fill-rule="nonzero" fill-opacity="1"/><path d="M990 90.018 994 90.018 994 94.019 990 94.019Z" fill="#000000" fill-rule="nonzero" fill-opacity="1"/><path d="M998 90.018 1002 90.018 1002 94.019 998 94.019Z" fill="#000000" fill-rule="nonzero" fill-opacity="1"/><path d="M990 82 994 82 994 86.001 990 86.001Z" fill="#000000" fill-rule="nonzero" fill-opacity="1"/><path d="M998 82 1002 82 1002 86.001 998 86.001Z" fill="#000000" fill-rule="nonzero" fill-opacity="1"/></g></g></g></g></g></svg>