<svg width="97" height="96" xmlns="http://www.w3.org/2000/svg" xmlns:xlink="http://www.w3.org/1999/xlink" xml:space="preserve" overflow="hidden"><g transform="translate(-796 -4)"><g><g><g><g><path d="M847.4 73.4 844.6 70.6 863.6 51.6 866.4 54.4 847.4 73.4ZM837.6 63.6 856.6 44.6 859.4 47.4 840.4 66.4 837.6 63.6ZM830.6 56.6 849.6 37.6 852.4 40.4 833.4 59.4 830.6 56.6ZM825 36C822.8 36 821 34.2 821 32 821 29.8 822.8 28 825 28 827.2 28 829 29.8 829 32 829 34.2 827.2 36 825 36ZM874.2 53.2 846.2 25.2C845.4 24.4 844.4 24 843.4 24L825 24C820.6 24 817 27.6 817 32L817 50.3C817 51.4 817.4 52.4 818.2 53.1L846.2 81.1C847.8 82.7 850.3 82.7 851.9 81.1L874.2 58.8C875.7 57.3 875.7 54.7 874.2 53.2Z" fill="#000000" fill-rule="nonzero" fill-opacity="1"/></g></g></g></g></g></svg>