<svg width="97" height="97" xmlns="http://www.w3.org/2000/svg" xmlns:xlink="http://www.w3.org/1999/xlink" xml:space="preserve" overflow="hidden"><g transform="translate(-1084 -305)"><g><g><g><g><path d="M1133 350C1128 350 1124 346 1124 341 1124 336 1128 332 1133 332 1138 332 1142 336 1142 341 1142 346 1138 350 1133 350ZM1133 320C1126.1 320 1119.6 323.4 1115.7 329.2 1111.8 334.9 1111 342.2 1113.5 348.7L1123 369.7 1131.2 386.9C1131.5 387.6 1132.2 388 1133 388 1133.8 388 1134.5 387.6 1134.8 386.9L1143 369.7 1152.5 348.7C1155 342.2 1154.2 334.9 1150.3 329.2 1146.4 323.4 1139.9 320 1133 320Z" fill="#F7484A" fill-rule="nonzero" fill-opacity="1"/></g></g></g></g></g></svg>