<svg width="97" height="96" xmlns="http://www.w3.org/2000/svg" xmlns:xlink="http://www.w3.org/1999/xlink" xml:space="preserve" overflow="hidden"><g transform="translate(-785 -1048)"><g><g><g><g><path d="M857.3 1109.9C855.1 1107.7 851.5 1107.8 848.8 1109.9L844.6 1105.7C855.5 1093.9 854.8 1075.6 843 1064.7 831.2 1053.8 813 1054.6 802.1 1066.4 791.2 1078.2 792 1096.5 803.7 1107.4 814.9 1117.8 832.2 1117.7 843.3 1107.2L847.5 1111.4C846.6 1112.5 846.1 1113.9 845.9 1115.3 845.7 1117 846.3 1118.7 847.5 1119.9L861.6 1134C862.7 1135 864.1 1135.6 865.6 1135.6 867.6 1135.6 869.4 1134.8 870.8 1133.4 872.1 1132.2 872.9 1130.5 873 1128.7 873.2 1127 872.6 1125.3 871.4 1124.1L857.3 1109.9ZM804.4 1105.1C793.9 1094.6 793.9 1077.5 804.4 1066.9 814.9 1056.3 832 1056.4 842.6 1066.9 853.2 1077.4 853.1 1094.5 842.6 1105.1 837.5 1110.2 830.7 1113 823.5 1113 816.4 1113 809.5 1110.2 804.4 1105.1ZM869.3 1131.8C867.4 1133.7 864.5 1134 862.9 1132.4L848.9 1118.4C848.1 1117.6 847.8 1116.5 847.9 1115.4 848 1114.1 848.6 1112.9 849.6 1112 850.6 1111 852 1110.4 853.4 1110.3 854.4 1110.3 855.3 1110.6 856 1111.3L870 1125.4C870.8 1126.2 871.1 1127.3 871 1128.4 870.8 1129.7 870.3 1130.9 869.3 1131.8 869.3 1131.8 869.3 1131.8 869.3 1131.8Z" fill="#000000" fill-rule="nonzero" fill-opacity="1"/></g></g></g></g></g></svg>