<?xml version="1.0" encoding="UTF-8"?>
<svg id="Layer_1" xmlns="http://www.w3.org/2000/svg" version="1.1" viewBox="0 0 48 48">
  <!-- Generator: Adobe Illustrator 29.1.0, SVG Export Plug-In . SVG Version: 2.1.0 Build 142)  -->
  <defs>
    <style>
      .st0 {
        fill: #ff4949;
      }
    </style>
  </defs>
  <path class="st0" d="M28,8c0,2.2-1.8,4-4,4s-4-1.8-4-4,1.8-4,4-4,4,1.8,4,4Z"/>
  <path class="st0" d="M18,18.8c-.2.5-.4,1.2-.6,2-.4,2.1-.4,4.5-.4,5.2,0,1.1-.9,2-2,2s-2-.9-2-2,0-3.4.5-5.9c.2-1.2.6-2.6,1.3-3.7.7-1.1,1.8-2.3,3.7-2.3h11.1c1.8,0,3,1.2,3.7,2.3.6,1.1,1,2.5,1.3,3.7.5,2.5.5,5.2.5,5.9,0,1.1-.9,2-2,2s-2-.9-2-2,0-3.1-.4-5.2c-.2-.8-.3-1.5-.6-2v23.2c0,1.1-.8,2-1.9,2-1.1,0-2-.8-2.1-1.8l-1-13c0,0,0-.1,0-.2h-2c0,0,0,.1,0,.2l-1,13c0,1.1-1,1.9-2.1,1.8-1.1,0-1.9-.9-1.9-2v-23.2Z"/>
</svg>