<?xml version="1.0" encoding="UTF-8"?>
<svg id="Layer_1" data-name="Layer 1" xmlns="http://www.w3.org/2000/svg" viewBox="0 0 22 40">
  <defs>
    <style>
      .cls-1 {
        fill: #ff4949;
      }
    </style>
  </defs>
  <path class="cls-1" d="M15,4c0,2.21-1.79,4-4,4s-4-1.79-4-4S8.79,0,11,0s4,1.79,4,4Z"/>
  <path class="cls-1" d="M5,14.82c-.22.51-.41,1.19-.56,1.99-.41,2.12-.44,4.46-.44,5.18,0,1.1-.9,2-2,2s-2-.9-2-2c0-.77.03-3.43.51-5.94.24-1.24.62-2.61,1.26-3.72.65-1.11,1.82-2.34,3.67-2.34h11.11c1.85,0,3.02,1.23,3.67,2.34.65,1.11,1.03,2.48,1.26,3.72.48,2.51.51,5.17.51,5.94,0,1.1-.9,2-2,2s-2-.9-2-2c0-.73-.03-3.07-.44-5.18-.15-.8-.35-1.48-.56-1.99v23.18c0,1.07-.85,1.96-1.92,2-1.07.04-1.99-.77-2.07-1.85l-1-13c0-.05,0-.1,0-.15h-2c0,.05,0,.1,0,.15l-1,13c-.08,1.07-1,1.89-2.07,1.85-1.07-.04-1.92-.92-1.92-2V14.82Z"/>
</svg>