<svg width="97" height="96" xmlns="http://www.w3.org/2000/svg" xmlns:xlink="http://www.w3.org/1999/xlink" xml:space="preserve" overflow="hidden"><g transform="translate(-589 -116)"><g><g><g><g><path d="M646 127C646 131.418 642.418 135 638 135 633.582 135 630 131.418 630 127 630 122.582 633.582 119 638 119 642.418 119 646 122.582 646 127Z" fill="#BADCC0" fill-rule="nonzero" fill-opacity="1"/><path d="M659.8 168.2 654.2 144.4C654 143.6 653.6 142.8 653 142.2 650.6 140.2 647.8 138.8 644.6 137.8 642.4 137.4 640.2 137 638 137 635.8 137 633.6 137.4 631.4 138 628.2 138.8 625.4 140.4 623 142.4 622.4 143 622 143.8 621.8 144.6L616.2 168.4C616.2 168.6 616 169 616 169.4 616 171.6 617.8 173.4 620 173.4 621.8 173.4 623.4 172 623.8 170.4L628 153 628 209 636 209 636 173 640 173 640 209 648 209 648 152.8 652.2 170.2C652.6 171.8 654.2 173.2 656 173.2 658.2 173.2 660 171.4 660 169.2 660 168.8 659.8 168.4 659.8 168.2Z" fill="#BADCC0" fill-rule="nonzero" fill-opacity="1"/></g></g></g></g></g></svg>