<svg width="96" height="97" xmlns="http://www.w3.org/2000/svg" xmlns:xlink="http://www.w3.org/1999/xlink" xml:space="preserve" overflow="hidden"><g transform="translate(-1056 -368)"><g><g><g><g><path d="M1112 380C1112 384.418 1108.42 388 1104 388 1099.58 388 1096 384.418 1096 380 1096 375.582 1099.58 372 1104 372 1108.42 372 1112 375.582 1112 380Z" fill="#000000" fill-rule="nonzero" fill-opacity="1"/><path d="M1125.8 421.2 1120.2 397.4C1120 396.6 1119.6 395.8 1119 395.2 1116.6 393.2 1113.8 391.8 1110.6 390.8 1108.4 390.4 1106.2 390 1104 390 1101.8 390 1099.6 390.4 1097.4 391 1094.2 391.8 1091.4 393.4 1089 395.4 1088.4 396 1088 396.8 1087.8 397.6L1082.2 421.4C1082.2 421.6 1082 422 1082 422.4 1082 424.6 1083.8 426.4 1086 426.4 1087.8 426.4 1089.4 425 1089.8 423.4L1094 406 1094 462 1102 462 1102 426 1106 426 1106 462 1114 462 1114 405.8 1118.2 423.2C1118.6 424.8 1120.2 426.2 1122 426.2 1124.2 426.2 1126 424.4 1126 422.2 1126 421.8 1125.8 421.4 1125.8 421.2Z" fill="#000000" fill-rule="nonzero" fill-opacity="1"/></g></g></g></g></g></svg>