<svg width="97" height="98" xmlns="http://www.w3.org/2000/svg" xmlns:xlink="http://www.w3.org/1999/xlink" xml:space="preserve" overflow="hidden"><g transform="translate(-1457 -662)"><g><g><g><g><path d="M1529.01 668.772 1464.65 733.124 1483.74 752.214 1548 687.961ZM1467.48 733.124 1529 671.607 1545.18 687.954 1538.19 694.942 1529 685.751 1527.59 687.166 1536.78 696.356 1530.41 702.72 1524.76 697.065 1523.34 698.479 1529 704.134 1522.63 710.5 1513.44 701.31 1512.03 702.724 1521.22 711.914 1514.85 718.278 1509.2 712.622 1507.79 714.036 1513.44 719.69 1507.07 726.054 1497.89 716.864 1496.47 718.278 1505.66 727.468 1499.3 733.831 1493.65 728.178 1492.23 729.592 1497.89 735.245 1491.52 741.609 1482.33 732.42 1480.92 733.834 1490.1 743.023 1483.74 749.386Z" fill="#000000" fill-rule="nonzero" fill-opacity="1"/></g></g></g></g></g></svg>