<svg width="999" height="1000" xmlns="http://www.w3.org/2000/svg" xmlns:xlink="http://www.w3.org/1999/xlink" xml:space="preserve" overflow="hidden"><g transform="translate(-2108 -210)"><g><g><g><g><g><path d="M2254.9 703.727 2742.56 703.727" stroke="#1B303D" stroke-width="7.54105" stroke-linecap="butt" stroke-linejoin="miter" stroke-miterlimit="4" stroke-opacity="1" fill="none" fill-rule="nonzero"/><path d="M2512.84 472.446C2512.84 480.417 2506.38 486.879 2498.41 486.879 2490.44 486.879 2483.98 480.417 2483.98 472.446 2483.98 464.476 2490.44 458.014 2498.41 458.014 2506.38 458.014 2512.84 464.476 2512.84 472.446Z" stroke="#1B303D" stroke-width="3.77053" stroke-linecap="butt" stroke-linejoin="miter" stroke-miterlimit="4" stroke-opacity="1" fill="none" fill-rule="nonzero"/><path d="M2491.4 483.048 2505.23 483.048 2505.2 486.787 2504.91 526.261 2502.56 842.048 2502.56 842.062C2502.56 842.781 2502.11 843.901 2501.19 844.895 2500.27 845.879 2499.2 846.402 2498.32 846.402 2497.43 846.402 2496.37 845.88 2495.45 844.898 2494.53 843.903 2494.08 842.779 2494.07 842.048L2494.06 839.938 2494.04 837.835 2494.02 835.741 2494.01 833.655 2493.99 831.578 2493.98 829.509 2493.95 825.394 2493.93 823.349 2493.92 821.312 2493.9 819.283 2493.89 817.262 2493.87 815.25 2493.86 813.245 2493.84 811.248 2493.83 809.26 2493.81 807.279 2493.8 805.307 2493.78 803.343 2493.77 801.386 2493.75 799.436 2493.74 797.496 2493.73 795.563 2493.71 793.639 2493.7 791.721 2493.68 789.811 2493.67 787.91 2493.66 786.017 2493.64 784.131 2493.63 782.253 2493.61 780.383 2493.6 778.52 2493.59 776.666 2493.57 774.819 2493.54 771.147 2493.53 769.324 2493.52 767.508 2493.5 765.699 2493.49 763.898 2493.48 762.104 2493.46 760.32 2493.45 758.541 2493.44 756.77 2493.42 755.007 2493.41 753.253 2493.4 751.504 2493.39 749.763 2493.37 748.03 2493.36 746.305 2493.35 744.587 2493.33 742.876 2493.32 741.173 2493.31 739.477 2493.3 737.788 2493.28 736.108 2493.27 734.434 2493.26 732.767 2493.25 731.108 2493.24 729.457 2493.22 727.813 2493.21 726.175 2493.2 724.545 2493.19 722.922 2493.17 721.307 2493.16 719.7 2493.15 718.099 2493.14 716.505 2493.13 714.918 2493.11 713.338 2493.1 711.765 2493.09 710.201 2493.08 708.642 2493.07 707.091 2493.06 705.548 2493.05 704.011 2493.02 700.958 2493.01 699.442 2493 697.933 2492.99 696.431 2492.98 694.935 2492.97 693.447 2492.96 691.966 2492.94 690.492 2492.93 689.025 2492.92 687.564 2492.91 686.111 2492.9 684.664 2492.89 683.224 2492.88 681.791 2492.87 680.364 2492.86 678.944 2492.85 677.532 2492.84 676.126 2492.83 674.726 2492.82 673.334 2492.81 671.947 2492.8 670.569 2492.79 669.196 2492.78 667.83 2492.77 666.471 2492.76 665.118 2492.75 663.772 2492.74 662.432 2492.73 661.1 2492.72 659.772 2492.71 658.453 2492.7 657.139 2492.69 655.833 2492.68 654.533 2492.67 653.238 2492.66 651.951 2492.65 650.67 2492.64 649.396 2492.63 648.128 2492.62 646.866 2492.61 645.61 2492.6 644.361 2492.59 643.118 2492.58 641.883 2492.58 640.652 2492.57 639.428 2492.56 638.21 2492.55 637 2492.54 635.794 2492.53 634.595 2492.52 633.403 2492.51 632.216 2492.5 631.036 2492.49 629.862 2492.49 628.694 2492.48 627.532 2492.47 626.377 2492.46 625.227 2492.45 624.083 2492.44 622.947 2492.43 621.815 2492.43 620.69 2492.42 619.57 2492.41 618.457 2492.4 617.35 2492.39 616.248 2492.39 615.153 2492.38 614.064 2492.37 612.98 2492.36 611.902 2492.35 610.831 2492.35 609.765 2492.34 608.704 2492.33 607.65 2492.32 606.602 2492.31 605.56 2492.31 604.523 2492.3 603.492 2492.29 602.467 2492.28 601.447 2492.28 600.433 2492.27 599.425 2492.26 598.423 2492.25 597.427 2492.25 596.435 2492.24 595.45 2492.23 594.471 2492.22 593.497 2492.22 592.528 2492.21 591.565 2492.2 590.607 2492.2 589.656 2492.19 588.709 2492.18 587.768 2492.17 586.833 2492.17 585.904 2492.16 584.979 2492.15 584.06 2492.15 583.146 2492.14 582.239 2492.13 581.337 2492.13 580.439 2492.12 579.547 2492.11 578.661 2492.11 577.78 2492.1 576.904 2492.09 576.033 2492.09 575.168 2492.08 574.308 2492.07 573.454 2492.07 572.604 2492.06 571.76 2492.06 570.921 2492.04 569.258 2492.04 568.435 2492.03 567.617 2492.03 566.804 2492.02 565.996 2492.01 565.193 2492.01 564.394 2492 563.601 2492 562.815 2491.99 562.032 2491.98 561.254 2491.98 560.481 2491.97 559.713 2491.97 558.95 2491.96 558.192 2491.96 557.439 2491.95 556.691 2491.95 555.948 2491.94 555.211 2491.93 554.477 2491.93 553.749 2491.92 553.025 2491.92 552.306 2491.91 551.592 2491.91 550.883 2491.9 550.178 2491.9 549.479 2491.89 548.784 2491.89 548.094 2491.88 547.408 2491.88 546.728 2491.87 546.052 2491.87 545.381 2491.86 544.714 2491.86 544.051 2491.85 543.394 2491.85 542.742 2491.84 542.093 2491.84 541.45 2491.83 540.81 2491.83 540.175 2491.82 539.545 2491.82 538.919 2491.81 538.299 2491.81 537.682 2491.8 537.069 2491.8 536.461 2491.8 535.858 2491.79 535.258 2491.79 534.664 2491.78 534.074 2491.78 533.489 2491.77 532.907 2491.77 532.33 2491.77 531.757 2491.76 531.187 2491.76 530.623 2491.72 526.261 2491.72 525.734 2491.72 525.211 2491.71 524.693 2491.71 524.179 2491.7 523.162 2491.7 522.66 2491.69 522.162 2491.69 521.668 2491.69 521.178 2491.68 520.692 2491.68 520.209 2491.68 519.731 2491.67 519.256 2491.67 518.786 2491.67 518.32 2491.66 517.857 2491.66 517.399 2491.66 516.944 2491.65 516.492 2491.65 516.045 2491.65 515.601 2491.64 515.161 2491.64 514.725 2491.64 514.293 2491.63 513.864 2491.63 513.44 2491.63 513.018 2491.62 512.6 2491.62 512.186 2491.62 511.777 2491.61 511.37 2491.57 505.346 2491.57 504.999 2491.56 504.654 2491.56 504.314 2491.56 503.976 2491.56 503.642 2491.55 503.311 2491.55 502.984 2491.55 502.66 2491.55 502.338 2491.54 502.02 2491.54 501.706 2491.54 501.394 2491.54 501.086 2491.54 500.781 2491.53 500.479 2491.53 500.18 2491.53 499.885 2491.53 499.592 2491.52 499.301 2491.52 499.015 2491.52 498.732 2491.52 498.45 2491.52 498.173 2491.51 497.899 2491.51 497.627 2491.51 497.358 2491.51 497.093 2491.51 496.83 2491.5 496.57 2491.5 496.313 2491.5 496.059 2491.5 495.807 2491.5 495.558 2491.49 495.313 2491.49 495.071 2491.49 494.831 2491.49 494.593 2491.49 494.358 2491.49 494.127 2491.48 493.898 2491.48 493.672 2491.48 493.448 2491.48 493.227 2491.48 493.008 2491.48 492.793 2491.47 492.58 2491.47 492.37 2491.47 492.163 2491.47 491.956 2491.47 491.754 2491.47 491.554 2491.47 491.357 2491.46 491.161 2491.46 490.968 2491.46 490.779 2491.46 490.591 2491.46 490.405 2491.46 490.223 2491.46 490.043 2491.45 489.865 2491.45 489.689 2491.45 489.517 2491.45 489.346 2491.45 489.177 2491.45 489.012 2491.45 488.847 2491.45 488.686 2491.44 488.526 2491.44 488.369 2491.44 488.215 2491.44 487.912 2491.44 487.764 2491.44 487.618 2491.44 487.474 2491.44 487.332 2491.43 487.193 2491.43 487.056 2491.43 486.92 2491.43 486.787 2491.43 486.656 2491.43 486.527 2491.43 486.4 2491.43 486.275 2491.43 486.152 2491.43 486.03 2491.43 485.912 2491.42 485.794 2491.42 485.68 2491.42 485.567 2491.42 485.455 2491.42 485.345 2491.42 485.237 2491.42 485.132 2491.42 485.027 2491.42 484.926 2491.42 484.825 2491.42 484.727 2491.42 484.63 2491.42 484.536 2491.41 484.442 2491.41 484.351 2491.41 484.261 2491.41 484.173 2491.41 484.086 2491.41 484.002 2491.41 483.919 2491.41 483.837 2491.41 483.757 2491.41 483.679 2491.41 483.602 2491.41 483.527 2491.41 483.454 2491.41 483.381 2491.41 483.311 2491.41 483.241 2491.4 483.108 2491.4 483.048Z" stroke="#1B303D" stroke-width="3.77053" stroke-linecap="butt" stroke-linejoin="miter" stroke-miterlimit="4" stroke-opacity="1" fill="#1B303D" fill-rule="nonzero" fill-opacity="1"/><path d="M2510.96 472.446C2510.96 479.376 2505.34 484.994 2498.41 484.994 2491.48 484.994 2485.86 479.376 2485.86 472.446 2485.86 465.517 2491.48 459.899 2498.41 459.899 2505.34 459.899 2510.96 465.517 2510.96 472.446Z" fill="#1B303D" fill-rule="nonzero" fill-opacity="1"/><path d="M2479.04 543.993 2479.04 518.325 2472.91 518.325C2454.05 518.325 2434.53 534.991 2434.53 558.265 2434.53 606.156 2525.13 624.258 2525.13 655.96 2525.13 687.664 2466.13 697.721 2466.13 735.841 2466.13 773.963 2509.52 773.101 2509.52 793.214L2509.52 815.051C2522.07 815.051 2522.07 802.409 2522.07 793.214 2522.07 766.491 2481.55 755.764 2481.55 735.841 2481.55 715.919 2544.34 698.391 2544.34 655.96 2544.34 613.531 2454.62 581.252 2454.62 558.265 2454.62 550.027 2462.95 543.993 2466.4 543.993L2479.04 543.993Z" stroke="#1B303D" stroke-width="1.25684" stroke-linecap="butt" stroke-linejoin="miter" stroke-miterlimit="4" stroke-opacity="1" fill="#1B303D" fill-rule="nonzero" fill-opacity="1"/><path d="M2517.44 543.993 2517.44 518.325 2523.57 518.325C2542.44 518.325 2561.96 534.991 2561.96 558.265 2561.96 606.156 2471.35 624.258 2471.35 655.96 2471.35 687.664 2530.35 697.721 2530.35 735.841 2530.35 773.963 2486.97 773.101 2486.97 793.214L2486.97 815.051C2474.42 815.051 2474.42 802.409 2474.42 793.214 2474.42 766.491 2514.93 755.764 2514.93 735.841 2514.93 715.919 2452.15 698.391 2452.15 655.96 2452.15 613.531 2541.87 581.252 2541.87 558.265 2541.87 550.027 2533.53 543.993 2530.09 543.993L2517.44 543.993Z" stroke="#1B303D" stroke-width="1.25684" stroke-linecap="butt" stroke-linejoin="miter" stroke-miterlimit="4" stroke-opacity="1" fill="#1B303D" fill-rule="nonzero" fill-opacity="1"/><path d="M2361.73 459.899 2459.91 459.899C2459.91 477.427 2474.56 490.356 2479.54 491.123L2479.54 507.214 2428.68 507.214C2423.22 507.214 2414.41 500.03 2414.41 493.805L2399.18 493.805C2391.81 493.805 2385.77 485.951 2385.77 479.438L2376 479.438C2368.72 479.438 2361.73 471.489 2361.73 466.125L2361.73 459.899Z" stroke="#1B303D" stroke-width="8.7979" stroke-linecap="butt" stroke-linejoin="miter" stroke-miterlimit="4" stroke-opacity="1" fill="#1B303D" fill-rule="nonzero" fill-opacity="1"/><path d="M2634.99 459.899 2536.82 459.899C2536.82 477.426 2522.17 490.356 2517.18 491.123L2517.18 507.214 2568.04 507.214C2573.5 507.214 2582.32 500.03 2582.32 493.805L2597.54 493.805C2604.92 493.805 2610.95 485.951 2610.95 479.438L2620.72 479.438C2628 479.438 2634.99 471.489 2634.99 466.125L2634.99 459.899Z" stroke="#1B303D" stroke-width="8.7979" stroke-linecap="butt" stroke-linejoin="miter" stroke-miterlimit="4" stroke-opacity="1" fill="#1B303D" fill-rule="nonzero" fill-opacity="1"/><path d="M2213.81 685.781C2202.11 642.114 2200.61 596.341 2209.43 552.001 2218.25 507.662 2237.15 465.946 2264.68 430.08 2292.2 394.214 2327.6 365.16 2368.14 345.165 2408.69 325.17 2453.29 314.771 2498.5 314.771 2543.71 314.771 2588.31 325.17 2628.86 345.165 2669.4 365.16 2704.8 394.214 2732.32 430.08 2759.85 465.946 2778.75 507.662 2787.57 552.001 2796.39 596.341 2794.89 642.114 2783.19 685.781" stroke="#1B303D" stroke-width="6.28421" stroke-linecap="butt" stroke-linejoin="bevel" stroke-miterlimit="4" stroke-dasharray="8.7979 8.7979" stroke-opacity="1" fill="none" fill-rule="nonzero"/><path d="M2753.74 756.865C2727.88 801.67 2690.67 838.875 2645.86 864.743 2601.06 890.611 2550.24 904.229 2498.5 904.229 2446.76 904.229 2395.94 890.611 2351.14 864.743 2306.33 838.875 2269.12 801.67 2243.26 756.865" stroke="#1B303D" stroke-width="6.28421" stroke-linecap="butt" stroke-linejoin="bevel" stroke-miterlimit="4" stroke-dasharray="8.7979 8.7979" stroke-opacity="1" fill="none" fill-rule="nonzero"/><path d="M2361.73 630.83C2367.29 630.83 2371.79 626.328 2371.79 620.775 2371.79 615.221 2367.29 610.72 2361.73 610.72 2356.18 610.72 2351.68 615.221 2351.68 620.775 2351.68 626.328 2356.18 630.83 2361.73 630.83ZM2363.62 703.727 2363.62 620.775 2359.85 620.775 2359.85 703.727 2363.62 703.727Z" fill="#1B303D" fill-rule="nonzero" fill-opacity="1"/><path d="M2324.03 748.973C2318.48 748.973 2313.97 753.474 2313.97 759.028 2313.97 764.58 2318.48 769.082 2324.03 769.082 2329.58 769.082 2334.08 764.58 2334.08 759.028 2334.08 753.474 2329.58 748.973 2324.03 748.973ZM2322.14 703.727 2322.14 759.028 2325.91 759.028 2325.91 703.727 2322.14 703.727Z" fill="#1B303D" fill-rule="nonzero" fill-opacity="1"/><path d="M2398.18 748.973C2392.63 748.973 2388.13 753.474 2388.13 759.028 2388.13 764.58 2392.63 769.082 2398.18 769.082 2403.74 769.082 2408.24 764.58 2408.24 759.028 2408.24 753.474 2403.74 748.973 2398.18 748.973ZM2396.3 703.727 2396.3 759.028 2400.07 759.028 2400.07 703.727 2396.3 703.727Z" fill="#1B303D" fill-rule="nonzero" fill-opacity="1"/><path d="M2596.76 748.973C2591.21 748.973 2586.71 753.474 2586.71 759.028 2586.71 764.58 2591.21 769.082 2596.76 769.082 2602.32 769.082 2606.82 764.58 2606.82 759.028 2606.82 753.474 2602.32 748.973 2596.76 748.973ZM2594.88 703.727 2594.88 759.028 2598.65 759.028 2598.65 703.727 2594.88 703.727Z" fill="#1B303D" fill-rule="nonzero" fill-opacity="1"/><path d="M2670.92 748.973C2665.36 748.973 2660.86 753.474 2660.86 759.028 2660.86 764.58 2665.36 769.082 2670.92 769.082 2676.47 769.082 2680.97 764.58 2680.97 759.028 2680.97 753.474 2676.47 748.973 2670.92 748.973ZM2669.03 703.727 2669.03 759.028 2672.8 759.028 2672.8 703.727 2669.03 703.727Z" fill="#1B303D" fill-rule="nonzero" fill-opacity="1"/><path d="M2634.47 630.83C2640.02 630.83 2644.52 626.328 2644.52 620.775 2644.52 615.221 2640.02 610.72 2634.47 610.72 2628.92 610.72 2624.41 615.221 2624.41 620.775 2624.41 626.328 2628.92 630.83 2634.47 630.83ZM2636.35 703.727 2636.35 620.775 2632.58 620.775 2632.58 703.727 2636.35 703.727Z" fill="#1B303D" fill-rule="nonzero" fill-opacity="1"/><path d="M2276.27 703.727C2276.27 715.527 2266.7 725.093 2254.9 725.093 2243.1 725.093 2233.54 715.527 2233.54 703.727 2233.54 691.926 2243.1 682.36 2254.9 682.36 2266.7 682.36 2276.27 691.926 2276.27 703.727Z" stroke="#1B303D" stroke-width="5.02737" stroke-linecap="butt" stroke-linejoin="miter" stroke-miterlimit="4" stroke-opacity="1" fill="none" fill-rule="nonzero"/><path d="M2252.15 688.112 2257.66 688.112 2257.66 700.97 2270.52 700.97 2270.52 703.727 2270.52 706.482 2257.66 706.482 2257.66 719.34 2252.15 719.34 2252.15 706.482 2239.29 706.482 2239.29 703.727 2239.29 700.97 2252.15 700.97 2252.15 688.112Z" stroke="#1B303D" stroke-width="2.51368" stroke-linecap="butt" stroke-linejoin="round" stroke-miterlimit="4" stroke-opacity="1" fill="#1B303D" fill-rule="nonzero" fill-opacity="1"/><path d="M2770.21 703.727 2728.73 727.672 2728.73 679.78 2770.21 703.727Z" fill="#1B303D" fill-rule="nonzero" fill-opacity="1"/></g></g></g></g><g><g><g><path d="M738.995 641.568C716.193 618.766 678.88 619.802 650.896 641.568L607.364 598.036C720.338 475.734 713.083 286.062 590.781 173.089 468.479 60.1146 279.844 68.4062 166.87 190.708 53.8958 313.01 62.1875 502.682 183.453 615.656 299.536 723.448 478.844 722.411 593.891 613.583L637.422 657.114C628.094 668.516 622.911 683.026 620.838 697.536 618.766 715.156 624.984 732.776 637.422 745.213L783.562 891.354C794.963 901.719 809.474 907.937 825.021 907.937 845.75 907.937 864.406 899.646 878.917 885.135 892.39 872.698 900.682 855.078 901.719 836.422 903.791 818.802 897.573 801.182 885.135 788.745L738.995 641.568ZM190.708 591.818C81.8802 482.989 81.8802 305.755 190.708 195.891 299.536 86.026 476.771 87.0625 586.635 195.891 696.5 304.719 695.463 481.953 586.635 591.818 533.776 644.677 463.297 673.698 388.672 673.698 315.083 673.698 243.568 644.677 190.708 591.818ZM863.37 868.552C843.677 888.245 813.62 891.354 797.036 874.771L651.932 729.667C643.64 721.375 640.531 709.974 641.568 698.573 642.604 685.099 648.823 672.661 659.187 663.333 669.552 652.969 684.062 646.75 698.573 645.713 708.937 645.713 718.266 648.823 725.521 656.078L870.625 802.219C878.917 810.51 882.026 821.911 880.989 833.312 878.917 846.786 873.734 859.224 863.37 868.552 863.37 868.552 863.37 868.552 863.37 868.552Z" fill="#1B303D" fill-rule="nonzero" fill-opacity="1" transform="matrix(1 0 0 1 2111 214)"/></g></g></g></g></g></svg>