<svg width="876" height="747" xmlns="http://www.w3.org/2000/svg" xmlns:xlink="http://www.w3.org/1999/xlink" xml:space="preserve" overflow="hidden"><g transform="translate(-1750 -990)"><g><g><g><g><path d="M1921.81 1660.81 1920.78 1660.81C1916.31 1660.47 1912.53 1657.03 1911.5 1652.56L1887.78 1526.75 1873 1571.44C1871.63 1575.56 1867.84 1578.31 1863.38 1578.31L1801.5 1578.31 1801.5 1557.69 1855.81 1557.69 1880.91 1482.41C1882.28 1477.94 1886.75 1475.19 1891.22 1475.53 1895.69 1475.87 1899.81 1479.31 1900.5 1483.78L1924.56 1612.69 1959.63 1519.87C1961.34 1515.75 1965.13 1513 1969.59 1513.34 1974.06 1513.69 1977.84 1516.44 1979.22 1520.91L1998.81 1585.19 2020.81 1561.12C2022.88 1559.06 2025.63 1557.69 2028.38 1557.69L2076.5 1557.69 2076.5 1578.31 2032.84 1578.31 2001.56 1612.69C1999.16 1615.44 1995.38 1616.47 1991.59 1615.78 1987.81 1615.09 1985.06 1612.34 1984.03 1608.56L1968.56 1555.62 1931.44 1654.28C1930.06 1658.06 1925.94 1660.81 1921.81 1660.81Z" fill="#000000" fill-rule="nonzero" fill-opacity="1"/></g></g></g><g><g><g><path d="M1992.63 1155C1992.63 1115.81 1966.5 1095.19 1938.66 1079.38 1966.5 1063.22 1992.63 1042.94 1992.63 1003.75L1972 1003.75C1972 1009.94 1970.97 1015.78 1969.25 1020.94L1864.75 1020.94C1863.03 1015.78 1862 1009.94 1862 1003.75L1841.38 1003.75C1841.38 1042.94 1867.5 1063.22 1895.34 1079.38 1867.5 1095.19 1841.38 1115.81 1841.38 1155 1841.38 1194.53 1867.5 1215.16 1895.34 1230.97 1867.5 1246.78 1841.38 1267.06 1841.38 1306.25L1862 1306.25C1862 1299.72 1863.03 1294.22 1864.75 1289.06L1969.25 1289.06C1970.97 1294.22 1972 1299.72 1972 1306.25L1992.63 1306.25C1992.63 1267.06 1966.5 1246.78 1938.66 1230.97 1966.5 1215.16 1992.63 1194.53 1992.63 1155ZM1862 1155C1862 1148.81 1863.03 1142.97 1864.75 1137.81L1969.59 1137.81C1971.31 1142.97 1972.34 1148.81 1972.34 1155 1972.34 1161.19 1971.31 1167.03 1969.59 1172.19L1864.75 1172.19C1863.03 1167.03 1862 1161.19 1862 1155ZM1877.81 1041.56 1955.84 1041.56C1945.88 1051.53 1931.78 1059.44 1916.66 1067.69 1901.88 1059.44 1887.78 1051.53 1877.81 1041.56ZM1917 1091.06C1932.13 1099.31 1946.22 1107.22 1956.19 1117.19L1877.81 1117.19C1887.78 1107.22 1901.88 1098.97 1917 1091.06ZM1917 1242.66C1932.13 1250.56 1945.88 1258.47 1955.84 1268.44L1878.16 1268.44C1888.13 1258.47 1901.88 1250.56 1917 1242.66ZM1917 1219.28C1901.53 1211.03 1887.44 1203.12 1877.47 1192.81L1956.53 1192.81C1946.56 1203.12 1932.47 1211.03 1917 1219.28Z" fill="#000000" fill-rule="nonzero" fill-opacity="1"/></g></g></g><g><g><g><path d="M2529.94 1169.44 2510.69 1087.62C2510.01 1084.78 2508.59 1082.17 2506.56 1080.06 2498.04 1073.16 2488.22 1068.01 2477.69 1064.94 2470.22 1063.35 2462.63 1062.42 2455 1062.19 2447.32 1062.32 2439.69 1063.48 2432.31 1065.62 2421.67 1068.42 2411.79 1073.59 2403.44 1080.75 2401.41 1082.86 2399.99 1085.47 2399.31 1088.31L2380.06 1170.12C2379.77 1171.26 2379.54 1172.4 2379.38 1173.56 2379.38 1181.16 2385.53 1187.31 2393.12 1187.31 2399.27 1187.11 2404.56 1182.93 2406.19 1177L2420.62 1117.19 2420.62 1309.69 2448.12 1309.69 2448.12 1185.94 2461.88 1185.94 2461.88 1309.69 2489.38 1309.69 2489.38 1116.5 2503.81 1176.31C2505.44 1182.24 2510.73 1186.42 2516.88 1186.62 2524.47 1186.62 2530.62 1180.47 2530.62 1172.88 2530.46 1171.72 2530.23 1170.57 2529.94 1169.44ZM2393.12 1180.2C2389.33 1180.2 2386.25 1177.12 2386.25 1173.32 2386.25 1169.52 2389.33 1166.45 2393.12 1166.45 2396.92 1166.45 2400 1169.52 2400 1173.32 2400 1177.12 2396.92 1180.2 2393.12 1180.2ZM2406.12 1134.58 2400.45 1159.33C2400.09 1160.93 2398.65 1162.05 2397.01 1162.01 2396.76 1162.05 2396.5 1162.05 2396.25 1162.01 2394.4 1161.59 2393.25 1159.74 2393.67 1157.89 2393.67 1157.89 2393.67 1157.89 2393.68 1157.89L2399.35 1133.14C2399.77 1131.24 2401.66 1130.05 2403.56 1130.47 2405.46 1130.9 2406.65 1132.79 2406.22 1134.68ZM2414.68 1097.28 2409.01 1121.93C2408.65 1123.53 2407.21 1124.65 2405.57 1124.61L2404.78 1124.61C2402.93 1124.19 2401.77 1122.34 2402.2 1120.49 2402.2 1120.49 2402.2 1120.49 2402.2 1120.49L2407.87 1095.81C2408.3 1093.96 2410.14 1092.8 2411.99 1093.23 2411.99 1093.23 2412 1093.23 2412 1093.23 2413.86 1093.61 2415.06 1095.42 2414.68 1097.28 2414.68 1097.28 2414.68 1097.28 2414.68 1097.28ZM2441.25 1295.94C2441.25 1299.73 2438.17 1302.81 2434.38 1302.81 2430.58 1302.81 2427.5 1299.73 2427.5 1295.94L2427.5 1291.92C2427.5 1288.12 2430.58 1285.04 2434.38 1285.04 2438.17 1285.04 2441.25 1288.12 2441.25 1291.92ZM2434.38 1231.62C2436.27 1231.62 2437.81 1233.16 2437.81 1235.06L2437.81 1275.31C2437.81 1277.21 2436.27 1278.75 2434.38 1278.75 2432.48 1278.75 2430.94 1277.21 2430.94 1275.31L2430.94 1234.99C2430.97 1233.12 2432.5 1231.62 2434.38 1231.62ZM2430.94 1222.58 2430.94 1179.06C2430.94 1177.16 2432.48 1175.62 2434.38 1175.62 2436.27 1175.62 2437.81 1177.16 2437.81 1179.06L2437.81 1222.72C2437.81 1224.62 2436.27 1226.16 2434.38 1226.16 2432.48 1226.16 2430.94 1224.62 2430.94 1222.72ZM2451.01 1169.75 2449.64 1170.5C2448.84 1170.82 2447.99 1170.98 2447.13 1170.95 2440.49 1170.95 2428.43 1164.52 2425.82 1158.88 2424.34 1155.99 2425.48 1152.45 2428.37 1150.97 2428.6 1150.86 2428.84 1150.76 2429.08 1150.67 2432.96 1148.57 2437.72 1148.91 2441.25 1151.56 2446.58 1155.71 2450.15 1161.71 2451.25 1168.37ZM2482.5 1295.94C2482.5 1299.73 2479.42 1302.81 2475.62 1302.81 2471.83 1302.81 2468.75 1299.73 2468.75 1295.94L2468.75 1291.92C2468.75 1288.12 2471.83 1285.04 2475.62 1285.04 2479.42 1285.04 2482.5 1288.12 2482.5 1291.92ZM2475.62 1231.62C2477.52 1231.62 2479.06 1233.16 2479.06 1235.06L2479.06 1275.31C2479.06 1277.21 2477.52 1278.75 2475.62 1278.75 2473.73 1278.75 2472.19 1277.21 2472.19 1275.31L2472.19 1234.99C2472.22 1233.12 2473.75 1231.62 2475.62 1231.62ZM2472.19 1222.58 2472.19 1179.06C2472.19 1177.16 2473.73 1175.62 2475.62 1175.62 2477.52 1175.62 2479.06 1177.16 2479.06 1179.06L2479.06 1222.72C2479.06 1224.62 2477.52 1226.16 2475.62 1226.16 2473.73 1226.16 2472.19 1224.62 2472.19 1222.72ZM2484.01 1158.88C2481.4 1164.52 2469.33 1170.95 2462.7 1170.95 2461.84 1170.98 2460.99 1170.82 2460.19 1170.5L2458.88 1169.95 2458.68 1168.37C2459.8 1161.7 2463.4 1155.7 2468.75 1151.56 2472.27 1148.97 2476.96 1148.63 2480.82 1150.67 2483.88 1151.74 2485.5 1155.09 2484.43 1158.16 2484.34 1158.41 2484.24 1158.65 2484.12 1158.88ZM2460.16 1086.25 2460.16 1093.12 2475.62 1093.12C2477.52 1093.12 2479.06 1094.66 2479.06 1096.56 2479.06 1098.46 2477.52 1100 2475.62 1100L2460.16 1100 2460.16 1106.88 2475.62 1106.88C2477.52 1106.88 2479.06 1108.41 2479.06 1110.31 2479.06 1112.21 2477.52 1113.75 2475.62 1113.75L2460.16 1113.75 2460.16 1120.62 2475.62 1120.62C2477.52 1120.62 2479.06 1122.16 2479.06 1124.06 2479.06 1125.96 2477.52 1127.5 2475.62 1127.5L2460.16 1127.5 2460.16 1155C2460.16 1157.85 2457.85 1160.16 2455 1160.16 2452.15 1160.16 2449.84 1157.85 2449.84 1155L2449.84 1127.5 2434.38 1127.5C2432.48 1127.5 2430.94 1125.96 2430.94 1124.06 2430.94 1122.16 2432.48 1120.62 2434.38 1120.62L2449.84 1120.62 2449.84 1113.75 2434.38 1113.75C2432.48 1113.75 2430.94 1112.21 2430.94 1110.31 2430.94 1108.41 2432.48 1106.88 2434.38 1106.88L2449.84 1106.88 2449.84 1100 2434.38 1100C2432.48 1100 2430.94 1098.46 2430.94 1096.56 2430.94 1094.66 2432.48 1093.12 2434.38 1093.12L2449.84 1093.12 2449.84 1086.25 2415.47 1086.25C2413.63 1085.79 2412.51 1083.92 2412.97 1082.08 2413.28 1080.85 2414.24 1079.89 2415.47 1079.58L2449.84 1079.58 2449.84 1072.02C2449.84 1069.17 2452.15 1066.86 2455 1066.86 2457.85 1066.86 2460.16 1069.17 2460.16 1072.02L2460.16 1079.38 2494.53 1079.38C2496.37 1079.84 2497.49 1081.7 2497.03 1083.55 2496.72 1084.78 2495.76 1085.74 2494.53 1086.04ZM2501.78 1122 2496.25 1097.28C2495.82 1095.39 2497.02 1093.5 2498.91 1093.07 2500.81 1092.65 2502.7 1093.84 2503.12 1095.74L2508.76 1120.35C2509.19 1122.2 2508.04 1124.05 2506.19 1124.47 2506.19 1124.47 2506.19 1124.47 2506.18 1124.47 2505.92 1124.51 2505.66 1124.51 2505.39 1124.47 2503.72 1124.61 2502.2 1123.52 2501.78 1121.9ZM2504.67 1134.65C2504.24 1132.8 2505.4 1130.95 2507.25 1130.53 2507.25 1130.53 2507.25 1130.53 2507.25 1130.53 2509.1 1130.1 2510.95 1131.25 2511.37 1133.1 2511.37 1133.1 2511.37 1133.1 2511.38 1133.1L2517.08 1157.89C2517.42 1159.7 2516.27 1161.46 2514.47 1161.88 2514.22 1161.91 2513.96 1161.91 2513.71 1161.88 2512.07 1161.92 2510.64 1160.79 2510.27 1159.19ZM2517.46 1180.3C2513.66 1180.3 2510.58 1177.22 2510.58 1173.43 2510.58 1169.63 2513.66 1166.55 2517.46 1166.55 2521.26 1166.55 2524.33 1169.63 2524.33 1173.43 2524.28 1177.18 2521.22 1180.2 2517.46 1180.2Z" fill="#000000" fill-rule="nonzero" fill-opacity="1"/><path d="M2455 998.834C2441.21 999.375 2430.45 1010.96 2430.94 1024.75 2430.87 1030.14 2432.69 1035.39 2436.09 1039.57L2436.09 1042.8C2436.05 1046.39 2438.49 1049.54 2441.97 1050.4L2441.97 1055.31C2441.97 1057.21 2443.51 1058.75 2445.41 1058.75L2464.59 1058.75C2466.49 1058.75 2468.03 1057.21 2468.03 1055.31L2468.03 1050.4C2471.51 1049.54 2473.95 1046.39 2473.91 1042.8L2473.91 1039.57C2477.31 1035.39 2479.13 1030.14 2479.06 1024.75 2479.55 1010.96 2468.79 999.375 2455 998.834ZM2449.84 1055.31 2446.41 1055.31 2446.41 1048.44 2449.84 1048.44ZM2446.03 1034.69C2442.42 1034.69 2439.5 1031.76 2439.5 1028.16 2439.5 1024.55 2442.42 1021.62 2446.03 1021.62 2449.64 1021.63 2452.56 1024.55 2452.56 1028.16 2452.56 1028.17 2452.56 1028.18 2452.56 1028.19 2452.56 1031.78 2449.65 1034.69 2446.06 1034.69 2446.05 1034.69 2446.04 1034.69 2446.03 1034.69ZM2456.72 1055.31 2453.28 1055.31 2453.28 1048.44 2456.72 1048.44ZM2456.93 1042.8 2453.07 1042.8C2452.14 1042.8 2451.39 1042.04 2451.4 1041.11 2451.4 1040.81 2451.48 1040.52 2451.63 1040.26L2453.56 1037.06C2454.04 1036.26 2455.07 1036 2455.87 1036.48 2456.1 1036.63 2456.3 1036.82 2456.44 1037.06L2458.37 1040.26C2458.84 1041.06 2458.58 1042.09 2457.78 1042.56 2457.52 1042.72 2457.23 1042.8 2456.93 1042.8ZM2463.59 1055.31 2460.16 1055.31 2460.16 1048.44 2463.59 1048.44ZM2463.97 1034.69C2460.36 1034.71 2457.43 1031.8 2457.41 1028.19 2457.39 1024.58 2460.3 1021.64 2463.9 1021.63 2467.51 1021.61 2470.45 1024.51 2470.47 1028.12 2470.47 1028.14 2470.47 1028.17 2470.47 1028.19 2470.45 1031.77 2467.55 1034.67 2463.97 1034.69Z" fill="#000000" fill-rule="nonzero" fill-opacity="1"/></g></g></g><g><g><g><path d="M2147.06 1385.75 2152.56 1402.59 2149.47 1405.69 2132.62 1400.19C2132.62 1400.19 2132.62 1400.19 2132.28 1399.84 2128.5 1396.06 2128.5 1389.87 2132.62 1386.09 2136.75 1382.31 2142.94 1381.97 2147.06 1385.75ZM2031.56 1310.12 2128.5 1407.06 2166.31 1419.44 2153.94 1381.97 2057 1284.69 2031.56 1310.12Z" fill="#000000" fill-rule="nonzero" fill-opacity="1"/><path d="M2009.91 1278.16C2007.16 1281.25 2007.5 1286.06 2010.59 1288.81L2024.34 1302.56 2049.44 1277.47 2035.69 1263.72C2035.69 1263.72 2035.69 1263.72 2035.69 1263.72 2032.59 1260.62 2027.44 1260.62 2024.69 1263.72L2010.59 1277.81C2010.25 1277.81 2010.25 1278.16 2009.91 1278.16Z" fill="#000000" fill-rule="nonzero" fill-opacity="1"/><path d="M2231.62 1405.69 2172.5 1405.69 2177.31 1419.44 2231.62 1419.44Z" fill="#000000" fill-rule="nonzero" fill-opacity="1"/><path d="M2231.62 1323.19 2109.94 1323.19 2123.69 1336.94 2231.62 1336.94Z" fill="#000000" fill-rule="nonzero" fill-opacity="1"/><path d="M2059.75 1352.75 2059.75 1484.75C2059.75 1492.31 2065.94 1498.5 2073.5 1498.5L2259.12 1498.5C2266.69 1498.5 2272.88 1492.31 2272.88 1484.75L2272.88 1257.87C2272.88 1250.31 2266.69 1244.12 2259.12 1244.12L2200.69 1244.12 2200.69 1237.25C2200.69 1229.69 2194.5 1223.5 2186.94 1223.5L2145.69 1223.5C2138.12 1223.5 2131.94 1229.69 2131.94 1237.25L2131.94 1244.12 2073.5 1244.12C2065.94 1244.12 2059.75 1250.31 2059.75 1257.87L2059.75 1273 2063.53 1276.78 2064.22 1277.47 2080.38 1293.62 2080.38 1264.75 2118.19 1264.75 2118.19 1285.37 2214.44 1285.37 2214.44 1264.75 2252.25 1264.75 2252.25 1477.87 2080.38 1477.87 2080.38 1373.37 2059.75 1352.75ZM2176.62 1247.56C2176.62 1253.41 2172.16 1257.87 2166.31 1257.87 2160.47 1257.87 2156 1253.41 2156 1247.56 2156 1241.72 2160.47 1237.25 2166.31 1237.25 2169.06 1237.25 2171.81 1238.28 2173.53 1240.34 2175.59 1242.06 2176.62 1244.81 2176.62 1247.56Z" fill="#000000" fill-rule="nonzero" fill-opacity="1"/><path d="M2231.62 1364.44 2151.19 1364.44 2164.94 1378.19 2231.62 1378.19Z" fill="#000000" fill-rule="nonzero" fill-opacity="1"/></g></g></g><g><g><g><path d="M2598.5 1674.56 2598.5 1482.06 2584.75 1482.06 2584.75 1513 2564.12 1513 2564.12 1464.87C2564.12 1457.66 2565.5 1454.91 2565.84 1454.22 2568.94 1453.53 2571 1450.78 2571 1447.34 2571 1443.56 2567.91 1440.47 2564.12 1440.81L2509.47 1440.81C2505.69 1440.47 2502.59 1443.56 2502.25 1447.34 2502.25 1450.44 2504.31 1453.19 2507.41 1454.22 2507.75 1454.91 2509.12 1457.66 2509.12 1464.87L2509.12 1513 2488.5 1513 2488.5 1464.87C2488.5 1457.66 2489.88 1454.91 2490.22 1454.22 2493.31 1453.53 2495.38 1450.78 2495.38 1447.34 2495.38 1443.56 2492.28 1440.47 2488.5 1440.81L2433.84 1440.81C2430.06 1440.47 2426.97 1443.56 2426.62 1447.34 2426.62 1450.44 2428.69 1453.19 2431.78 1454.22 2432.12 1454.91 2433.5 1457.66 2433.5 1464.87L2433.5 1513 2412.88 1513 2412.88 1464.87C2412.88 1457.66 2414.25 1454.91 2414.59 1454.22 2417.69 1453.53 2419.75 1450.78 2419.75 1447.34 2419.75 1443.56 2416.66 1440.47 2412.88 1440.81L2358.22 1440.81C2354.44 1440.47 2351.34 1443.56 2351 1447.34 2351 1450.44 2353.06 1453.19 2356.16 1454.22 2356.5 1454.91 2357.88 1457.66 2357.88 1464.87L2357.88 1513 2337.25 1513 2337.25 1482.06 2323.5 1482.06 2323.5 1674.56 2309.75 1674.56 2309.75 1695.19 2612.25 1695.19 2612.25 1674.56 2598.5 1674.56ZM2551.41 1454.56C2550.72 1457.31 2550.38 1460.75 2550.38 1464.87L2550.38 1495.81C2550.38 1495.81 2543.5 1492.37 2536.62 1492.37 2529.75 1492.37 2522.88 1495.81 2522.88 1495.81L2522.88 1464.87C2522.88 1460.75 2522.53 1457.31 2521.84 1454.56L2551.41 1454.56ZM2475.78 1454.56C2475.09 1457.31 2474.75 1460.75 2474.75 1464.87L2474.75 1495.81C2474.75 1495.81 2467.88 1492.37 2461 1492.37 2454.12 1492.37 2447.25 1495.81 2447.25 1495.81L2447.25 1464.87C2447.25 1460.75 2446.91 1457.31 2446.22 1454.56L2475.78 1454.56ZM2400.16 1454.56C2399.47 1457.31 2399.12 1460.75 2399.12 1464.87L2399.12 1495.81C2399.12 1495.81 2392.25 1492.37 2385.38 1492.37 2378.5 1492.37 2371.62 1495.81 2371.62 1495.81L2371.62 1464.87C2371.62 1460.75 2371.28 1457.31 2370.59 1454.56L2400.16 1454.56ZM2584.75 1674.56 2337.25 1674.56 2337.25 1526.75 2357.88 1526.75 2357.88 1633.31C2357.88 1648.44 2370.25 1660.81 2385.38 1660.81 2400.5 1660.81 2412.88 1648.44 2412.88 1633.31L2412.88 1526.75 2433.5 1526.75 2433.5 1633.31C2433.5 1648.44 2445.88 1660.81 2461 1660.81 2476.12 1660.81 2488.5 1648.44 2488.5 1633.31L2488.5 1526.75 2509.12 1526.75 2509.12 1633.31C2509.12 1648.44 2521.5 1660.81 2536.62 1660.81 2551.75 1660.81 2564.12 1648.44 2564.12 1633.31L2564.12 1526.75 2584.75 1526.75 2584.75 1674.56Z" fill="#000000" fill-rule="nonzero" fill-opacity="1"/></g></g></g></g></g></svg>