<svg width="1064" height="926" xmlns="http://www.w3.org/2000/svg" xmlns:xlink="http://www.w3.org/1999/xlink" xml:space="preserve" overflow="hidden"><g transform="translate(-1003 -907)"><g><g><g><g><path d="M290.035 199.113 269.669 210.873 269.669 187.354 258.648 187.354 258.648 210.873 238.281 199.113 232.771 208.657 253.132 220.417 232.771 232.176 238.281 241.72 258.648 229.961 258.648 253.479 269.669 253.479 269.669 229.961 290.035 241.72 295.546 232.176 275.179 220.417 295.546 208.657 290.035 199.113Z" fill="#000000" fill-rule="nonzero" fill-opacity="1" transform="matrix(1.00189 0 0 1 1006 1302)"/><path d="M319.604 374.714 341.646 374.714 341.646 396.75 319.604 396.75Z" fill="#000000" fill-rule="nonzero" fill-opacity="1" transform="matrix(1.00189 0 0 1 1006 1302)"/><path d="M319.604 336.135 341.646 336.135 341.646 358.172 319.604 358.172Z" fill="#000000" fill-rule="nonzero" fill-opacity="1" transform="matrix(1.00189 0 0 1 1006 1302)"/><path d="M369.198 374.708 391.24 374.708 391.24 396.745 369.198 396.745Z" fill="#000000" fill-rule="nonzero" fill-opacity="1" transform="matrix(1.00189 0 0 1 1006 1302)"/><path d="M369.198 336.141 391.24 336.141 391.24 358.177 369.198 358.177Z" fill="#000000" fill-rule="nonzero" fill-opacity="1" transform="matrix(1.00189 0 0 1 1006 1302)"/><path d="M319.604 297.563 341.646 297.563 341.646 319.599 319.604 319.599Z" fill="#000000" fill-rule="nonzero" fill-opacity="1" transform="matrix(1.00189 0 0 1 1006 1302)"/><path d="M369.198 297.563 391.24 297.563 391.24 319.599 369.198 319.599Z" fill="#000000" fill-rule="nonzero" fill-opacity="1" transform="matrix(1.00189 0 0 1 1006 1302)"/><path d="M418.792 374.708 440.833 374.708 440.833 396.745 418.792 396.745Z" fill="#000000" fill-rule="nonzero" fill-opacity="1" transform="matrix(1.00189 0 0 1 1006 1302)"/><path d="M418.792 336.141 440.833 336.141 440.833 358.177 418.792 358.177Z" fill="#000000" fill-rule="nonzero" fill-opacity="1" transform="matrix(1.00189 0 0 1 1006 1302)"/><path d="M418.792 297.563 440.833 297.563 440.833 319.599 418.792 319.599Z" fill="#000000" fill-rule="nonzero" fill-opacity="1" transform="matrix(1.00189 0 0 1 1006 1302)"/><path d="M319.604 258.995 341.646 258.995 341.646 281.031 319.604 281.031Z" fill="#000000" fill-rule="nonzero" fill-opacity="1" transform="matrix(1.00189 0 0 1 1006 1302)"/><path d="M369.198 258.99 391.24 258.99 391.24 281.026 369.198 281.026Z" fill="#000000" fill-rule="nonzero" fill-opacity="1" transform="matrix(1.00189 0 0 1 1006 1302)"/><path d="M418.792 258.99 440.833 258.99 440.833 281.026 418.792 281.026Z" fill="#000000" fill-rule="nonzero" fill-opacity="1" transform="matrix(1.00189 0 0 1 1006 1302)"/><path d="M88.1667 374.714 110.208 374.714 110.208 396.75 88.1667 396.75Z" fill="#000000" fill-rule="nonzero" fill-opacity="1" transform="matrix(1.00189 0 0 1 1006 1302)"/><path d="M88.1667 336.135 110.208 336.135 110.208 358.172 88.1667 358.172Z" fill="#000000" fill-rule="nonzero" fill-opacity="1" transform="matrix(1.00189 0 0 1 1006 1302)"/><path d="M137.76 374.708 159.802 374.708 159.802 396.745 137.76 396.745Z" fill="#000000" fill-rule="nonzero" fill-opacity="1" transform="matrix(1.00189 0 0 1 1006 1302)"/><path d="M137.76 336.141 159.802 336.141 159.802 358.177 137.76 358.177Z" fill="#000000" fill-rule="nonzero" fill-opacity="1" transform="matrix(1.00189 0 0 1 1006 1302)"/><path d="M88.1667 297.563 110.208 297.563 110.208 319.599 88.1667 319.599Z" fill="#000000" fill-rule="nonzero" fill-opacity="1" transform="matrix(1.00189 0 0 1 1006 1302)"/><path d="M137.76 297.563 159.802 297.563 159.802 319.599 137.76 319.599Z" fill="#000000" fill-rule="nonzero" fill-opacity="1" transform="matrix(1.00189 0 0 1 1006 1302)"/><path d="M187.354 374.708 209.396 374.708 209.396 396.745 187.354 396.745Z" fill="#000000" fill-rule="nonzero" fill-opacity="1" transform="matrix(1.00189 0 0 1 1006 1302)"/><path d="M187.354 336.141 209.396 336.141 209.396 358.177 187.354 358.177Z" fill="#000000" fill-rule="nonzero" fill-opacity="1" transform="matrix(1.00189 0 0 1 1006 1302)"/><path d="M187.354 297.563 209.396 297.563 209.396 319.599 187.354 319.599Z" fill="#000000" fill-rule="nonzero" fill-opacity="1" transform="matrix(1.00189 0 0 1 1006 1302)"/><path d="M88.1667 258.995 110.208 258.995 110.208 281.031 88.1667 281.031Z" fill="#000000" fill-rule="nonzero" fill-opacity="1" transform="matrix(1.00189 0 0 1 1006 1302)"/><path d="M137.76 258.99 159.802 258.99 159.802 281.026 137.76 281.026Z" fill="#000000" fill-rule="nonzero" fill-opacity="1" transform="matrix(1.00189 0 0 1 1006 1302)"/><path d="M187.354 258.99 209.396 258.99 209.396 281.026 187.354 281.026Z" fill="#000000" fill-rule="nonzero" fill-opacity="1" transform="matrix(1.00189 0 0 1 1006 1302)"/><path d="M479.406 214.906 336.135 214.906 336.135 194.694 338.428 196.992 367.137 167.991 264.5 69.5194 159.626 169.671 188.864 198.722 192.865 194.716 192.865 214.906 38.5729 214.906 38.5729 225.927 49.5938 225.927 49.5938 440.833 479.406 440.833 479.406 225.927 490.427 225.927 490.427 214.906ZM188.836 183.155 175.419 169.826 264.5 84.7723 351.438 168.194 338.406 181.364 336.135 179.089 264.5 107.453 192.865 179.089 192.865 179.138ZM247.969 429.813 247.969 363.688 281.031 363.688 281.031 429.813ZM468.385 429.813 292.052 429.813 292.052 352.667 236.948 352.667 236.948 429.813 60.6146 429.813 60.6146 225.927 203.885 225.927 203.885 183.69 211.275 176.3 264.5 123.004 312.881 171.396 325.115 183.679 325.115 225.927 468.385 225.927Z" fill="#000000" fill-rule="nonzero" fill-opacity="1" transform="matrix(1.00189 0 0 1 1006 1302)"/></g></g></g><g><g><g><path d="M1826.04 1501.11 1805.67 1512.87 1805.67 1489.35 1794.65 1489.35 1794.65 1512.87 1774.28 1501.11 1768.77 1510.66 1789.13 1522.42 1768.77 1534.18 1774.28 1543.72 1794.65 1531.96 1794.65 1555.48 1805.67 1555.48 1805.67 1531.96 1826.04 1543.72 1831.55 1534.18 1811.18 1522.42 1831.55 1510.66 1826.04 1501.11Z" fill="#000000" fill-rule="nonzero" fill-opacity="1"/><path d="M1855.6 1676.71 1877.65 1676.71 1877.65 1698.75 1855.6 1698.75Z" fill="#000000" fill-rule="nonzero" fill-opacity="1"/><path d="M1855.6 1638.14 1877.65 1638.14 1877.65 1660.17 1855.6 1660.17Z" fill="#000000" fill-rule="nonzero" fill-opacity="1"/><path d="M1905.2 1676.71 1927.24 1676.71 1927.24 1698.74 1905.2 1698.74Z" fill="#000000" fill-rule="nonzero" fill-opacity="1"/><path d="M1905.2 1638.14 1927.24 1638.14 1927.24 1660.18 1905.2 1660.18Z" fill="#000000" fill-rule="nonzero" fill-opacity="1"/><path d="M1855.6 1599.56 1877.65 1599.56 1877.65 1621.6 1855.6 1621.6Z" fill="#000000" fill-rule="nonzero" fill-opacity="1"/><path d="M1905.2 1599.56 1927.24 1599.56 1927.24 1621.6 1905.2 1621.6Z" fill="#000000" fill-rule="nonzero" fill-opacity="1"/><path d="M1954.79 1676.71 1976.83 1676.71 1976.83 1698.74 1954.79 1698.74Z" fill="#000000" fill-rule="nonzero" fill-opacity="1"/><path d="M1954.79 1638.14 1976.83 1638.14 1976.83 1660.18 1954.79 1660.18Z" fill="#000000" fill-rule="nonzero" fill-opacity="1"/><path d="M1954.79 1599.56 1976.83 1599.56 1976.83 1621.6 1954.79 1621.6Z" fill="#000000" fill-rule="nonzero" fill-opacity="1"/><path d="M1855.6 1561 1877.65 1561 1877.65 1583.03 1855.6 1583.03Z" fill="#000000" fill-rule="nonzero" fill-opacity="1"/><path d="M1905.2 1560.99 1927.24 1560.99 1927.24 1583.03 1905.2 1583.03Z" fill="#000000" fill-rule="nonzero" fill-opacity="1"/><path d="M1954.79 1560.99 1976.83 1560.99 1976.83 1583.03 1954.79 1583.03Z" fill="#000000" fill-rule="nonzero" fill-opacity="1"/><path d="M1624.17 1676.71 1646.21 1676.71 1646.21 1698.75 1624.17 1698.75Z" fill="#000000" fill-rule="nonzero" fill-opacity="1"/><path d="M1624.17 1638.14 1646.21 1638.14 1646.21 1660.17 1624.17 1660.17Z" fill="#000000" fill-rule="nonzero" fill-opacity="1"/><path d="M1673.76 1676.71 1695.8 1676.71 1695.8 1698.74 1673.76 1698.74Z" fill="#000000" fill-rule="nonzero" fill-opacity="1"/><path d="M1673.76 1638.14 1695.8 1638.14 1695.8 1660.18 1673.76 1660.18Z" fill="#000000" fill-rule="nonzero" fill-opacity="1"/><path d="M1624.17 1599.56 1646.21 1599.56 1646.21 1621.6 1624.17 1621.6Z" fill="#000000" fill-rule="nonzero" fill-opacity="1"/><path d="M1673.76 1599.56 1695.8 1599.56 1695.8 1621.6 1673.76 1621.6Z" fill="#000000" fill-rule="nonzero" fill-opacity="1"/><path d="M1723.35 1676.71 1745.4 1676.71 1745.4 1698.74 1723.35 1698.74Z" fill="#000000" fill-rule="nonzero" fill-opacity="1"/><path d="M1723.35 1638.14 1745.4 1638.14 1745.4 1660.18 1723.35 1660.18Z" fill="#000000" fill-rule="nonzero" fill-opacity="1"/><path d="M1723.35 1599.56 1745.4 1599.56 1745.4 1621.6 1723.35 1621.6Z" fill="#000000" fill-rule="nonzero" fill-opacity="1"/><path d="M1624.17 1561 1646.21 1561 1646.21 1583.03 1624.17 1583.03Z" fill="#000000" fill-rule="nonzero" fill-opacity="1"/><path d="M1673.76 1560.99 1695.8 1560.99 1695.8 1583.03 1673.76 1583.03Z" fill="#000000" fill-rule="nonzero" fill-opacity="1"/><path d="M1723.35 1560.99 1745.4 1560.99 1745.4 1583.03 1723.35 1583.03Z" fill="#000000" fill-rule="nonzero" fill-opacity="1"/><path d="M2015.41 1516.91 1872.14 1516.91 1872.14 1496.69 1874.43 1498.99 1903.14 1469.99 1800.5 1371.52 1695.63 1471.67 1724.86 1500.72 1728.86 1496.72 1728.86 1516.91 1574.57 1516.91 1574.57 1527.93 1585.59 1527.93 1585.59 1742.83 2015.41 1742.83 2015.41 1527.93 2026.43 1527.93 2026.43 1516.91ZM1724.84 1485.16 1711.42 1471.83 1800.5 1386.77 1887.44 1470.19 1874.41 1483.36 1872.14 1481.09 1800.5 1409.45 1728.86 1481.09 1728.86 1481.14ZM1783.97 1731.81 1783.97 1665.69 1817.03 1665.69 1817.03 1731.81ZM2004.39 1731.81 1828.05 1731.81 1828.05 1654.67 1772.95 1654.67 1772.95 1731.81 1596.61 1731.81 1596.61 1527.93 1739.89 1527.93 1739.89 1485.69 1747.27 1478.3 1800.5 1425 1848.88 1473.4 1861.11 1485.68 1861.11 1527.93 2004.39 1527.93Z" fill="#000000" fill-rule="nonzero" fill-opacity="1"/></g></g></g><g><g><g><path d="M1561.04 1107.11 1540.67 1118.87 1540.67 1095.35 1529.65 1095.35 1529.65 1118.87 1509.28 1107.11 1503.77 1116.66 1524.13 1128.42 1503.77 1140.18 1509.28 1149.72 1529.65 1137.96 1529.65 1161.48 1540.67 1161.48 1540.67 1137.96 1561.04 1149.72 1566.55 1140.18 1546.18 1128.42 1566.55 1116.66 1561.04 1107.11Z" fill="#000000" fill-rule="nonzero" fill-opacity="1"/><path d="M1590.6 1282.71 1612.65 1282.71 1612.65 1304.75 1590.6 1304.75Z" fill="#000000" fill-rule="nonzero" fill-opacity="1"/><path d="M1590.6 1244.14 1612.65 1244.14 1612.65 1266.17 1590.6 1266.17Z" fill="#000000" fill-rule="nonzero" fill-opacity="1"/><path d="M1640.2 1282.71 1662.24 1282.71 1662.24 1304.74 1640.2 1304.74Z" fill="#000000" fill-rule="nonzero" fill-opacity="1"/><path d="M1640.2 1244.14 1662.24 1244.14 1662.24 1266.18 1640.2 1266.18Z" fill="#000000" fill-rule="nonzero" fill-opacity="1"/><path d="M1590.6 1205.56 1612.65 1205.56 1612.65 1227.6 1590.6 1227.6Z" fill="#000000" fill-rule="nonzero" fill-opacity="1"/><path d="M1640.2 1205.56 1662.24 1205.56 1662.24 1227.6 1640.2 1227.6Z" fill="#000000" fill-rule="nonzero" fill-opacity="1"/><path d="M1689.79 1282.71 1711.83 1282.71 1711.83 1304.74 1689.79 1304.74Z" fill="#000000" fill-rule="nonzero" fill-opacity="1"/><path d="M1689.79 1244.14 1711.83 1244.14 1711.83 1266.18 1689.79 1266.18Z" fill="#000000" fill-rule="nonzero" fill-opacity="1"/><path d="M1689.79 1205.56 1711.83 1205.56 1711.83 1227.6 1689.79 1227.6Z" fill="#000000" fill-rule="nonzero" fill-opacity="1"/><path d="M1590.6 1166.99 1612.65 1166.99 1612.65 1189.03 1590.6 1189.03Z" fill="#000000" fill-rule="nonzero" fill-opacity="1"/><path d="M1640.2 1166.99 1662.24 1166.99 1662.24 1189.03 1640.2 1189.03Z" fill="#000000" fill-rule="nonzero" fill-opacity="1"/><path d="M1689.79 1166.99 1711.83 1166.99 1711.83 1189.03 1689.79 1189.03Z" fill="#000000" fill-rule="nonzero" fill-opacity="1"/><path d="M1359.17 1282.71 1381.21 1282.71 1381.21 1304.75 1359.17 1304.75Z" fill="#000000" fill-rule="nonzero" fill-opacity="1"/><path d="M1359.17 1244.14 1381.21 1244.14 1381.21 1266.17 1359.17 1266.17Z" fill="#000000" fill-rule="nonzero" fill-opacity="1"/><path d="M1408.76 1282.71 1430.8 1282.71 1430.8 1304.74 1408.76 1304.74Z" fill="#000000" fill-rule="nonzero" fill-opacity="1"/><path d="M1408.76 1244.14 1430.8 1244.14 1430.8 1266.18 1408.76 1266.18Z" fill="#000000" fill-rule="nonzero" fill-opacity="1"/><path d="M1359.17 1205.56 1381.21 1205.56 1381.21 1227.6 1359.17 1227.6Z" fill="#000000" fill-rule="nonzero" fill-opacity="1"/><path d="M1408.76 1205.56 1430.8 1205.56 1430.8 1227.6 1408.76 1227.6Z" fill="#000000" fill-rule="nonzero" fill-opacity="1"/><path d="M1458.35 1282.71 1480.4 1282.71 1480.4 1304.74 1458.35 1304.74Z" fill="#000000" fill-rule="nonzero" fill-opacity="1"/><path d="M1458.35 1244.14 1480.4 1244.14 1480.4 1266.18 1458.35 1266.18Z" fill="#000000" fill-rule="nonzero" fill-opacity="1"/><path d="M1458.35 1205.56 1480.4 1205.56 1480.4 1227.6 1458.35 1227.6Z" fill="#000000" fill-rule="nonzero" fill-opacity="1"/><path d="M1359.17 1166.99 1381.21 1166.99 1381.21 1189.03 1359.17 1189.03Z" fill="#000000" fill-rule="nonzero" fill-opacity="1"/><path d="M1408.76 1166.99 1430.8 1166.99 1430.8 1189.03 1408.76 1189.03Z" fill="#000000" fill-rule="nonzero" fill-opacity="1"/><path d="M1458.35 1166.99 1480.4 1166.99 1480.4 1189.03 1458.35 1189.03Z" fill="#000000" fill-rule="nonzero" fill-opacity="1"/><path d="M1750.41 1122.91 1607.14 1122.91 1607.14 1102.69 1609.43 1104.99 1638.14 1075.99 1535.5 977.519 1430.63 1077.67 1459.86 1106.72 1463.86 1102.72 1463.86 1122.91 1309.57 1122.91 1309.57 1133.93 1320.59 1133.93 1320.59 1348.83 1750.41 1348.83 1750.41 1133.93 1761.43 1133.93 1761.43 1122.91ZM1459.84 1091.16 1446.42 1077.83 1535.5 992.772 1622.44 1076.19 1609.41 1089.36 1607.14 1087.09 1535.5 1015.45 1463.86 1087.09 1463.86 1087.14ZM1518.97 1337.81 1518.97 1271.69 1552.03 1271.69 1552.03 1337.81ZM1739.39 1337.81 1563.05 1337.81 1563.05 1260.67 1507.95 1260.67 1507.95 1337.81 1331.61 1337.81 1331.61 1133.93 1474.89 1133.93 1474.89 1091.69 1482.27 1084.3 1535.5 1031 1583.88 1079.4 1596.11 1091.68 1596.11 1133.93 1739.39 1133.93Z" fill="#000000" fill-rule="nonzero" fill-opacity="1"/></g></g></g></g></g></svg>