<svg width="96" height="97" xmlns="http://www.w3.org/2000/svg" xmlns:xlink="http://www.w3.org/1999/xlink" xml:space="preserve" overflow="hidden"><g transform="translate(-840 -41)"><g><g><g><g><path d="M921.52 115.422C916.045 112.679 907.141 106.013 905.92 81.156L920.707 66.367 919.293 64.953 854.953 129.293 856.367 130.707 868.074 119 880 119C880 123.418 883.582 127 888 127 892.418 127 896 123.418 896 119L920.83 119C922.16 119 923.81 116.562 921.52 115.422ZM888 125C884.688 124.997 882.003 122.312 882 119L894 119C893.997 122.312 891.312 124.997 888 125ZM870.074 117 904.046 83.028C905.212 100.719 910.493 111.877 920.181 116.982 920.186 116.984 920.188 116.99 920.186 116.995 920.185 116.997 920.183 116.999 920.181 117Z" fill="#000000" fill-rule="nonzero" fill-opacity="1"/><path d="M861.832 117 855.484 117C855.479 117 855.475 116.996 855.475 116.991 855.475 116.986 855.479 116.982 855.484 116.982 865.884 111.505 871.232 99.092 871.833 79.06L871.833 79C871.767 72.1029 876.171 65.9557 882.723 63.8 891.14 61.0119 900.223 65.5746 903.011 73.9912 903.167 74.461 903.3 74.9378 903.412 75.42L905.049 73.783C903.38 68.3139 899.218 63.9595 893.83 62.046L893.83 61.209C893.874 58.1431 891.65 55.5146 888.619 55.051 885.33 54.6191 882.313 56.9355 881.881 60.2249 881.847 60.4819 881.83 60.7408 881.83 61L881.83 62.046C874.642 64.5847 869.835 71.3772 869.83 79 869.03 105.637 859.77 112.6 854.14 115.422 851.85 116.562 853.5 119 854.83 119L859.83 119ZM883.832 61C883.832 58.7909 885.623 57 887.832 57 890.041 57 891.832 58.7909 891.832 61L891.832 61.461C889.201 60.8463 886.463 60.8463 883.832 61.461Z" fill="#000000" fill-rule="nonzero" fill-opacity="1"/></g></g></g></g></g></svg>