<svg width="98" height="97" xmlns="http://www.w3.org/2000/svg" xmlns:xlink="http://www.w3.org/1999/xlink" xml:space="preserve" overflow="hidden"><g transform="translate(-1022 -381)"><g><g><g><g><path d="M1077.5 398.5C1077.52 396.597 1076 395.034 1074.1 395L1074 395C1072.07 395 1070.5 396.567 1070.5 398.5 1070.5 400.433 1072.07 402 1074 402 1075.93 402 1077.5 400.433 1077.5 398.5ZM1075.5 398.484C1075.51 399.312 1074.84 399.991 1074.02 400 1073.19 400.009 1072.51 399.344 1072.5 398.516 1072.49 397.688 1073.16 397.009 1073.98 397 1073.99 397 1073.99 397 1074 397L1074.06 397C1074.87 397.015 1075.51 397.679 1075.5 398.484Z" fill="#000000" fill-rule="nonzero" fill-opacity="1"/><path d="M1074 434.482 1074 434 1096 434 1096 436 1075.52 436 1074 434.482Z" fill="#000000" fill-rule="nonzero" fill-opacity="1"/><path d="M1096 448 1079.82 448 1079.16 446 1096 446 1096 448Z" fill="#000000" fill-rule="nonzero" fill-opacity="1"/><path d="M1061.54 422 1096 422 1096 424 1063.54 424 1061.54 422Z" fill="#000000" fill-rule="nonzero" fill-opacity="1"/><path d="M1031.54 407.912C1030.75 408.815 1030.84 410.189 1031.74 410.982L1066.03 445.4 1077 449.02 1073.38 438.1 1039.03 403.689 1039 403.652C1038.1 402.768 1036.65 402.785 1035.76 403.689 1035.76 403.689 1035.76 403.689 1035.76 403.689ZM1072.99 445.592 1067.46 443.765C1066.46 442.446 1066.73 440.57 1068.05 439.576 1069.17 438.73 1070.73 438.781 1071.8 439.7L1073.57 445.023ZM1064.9 441.435 1038.49 414.922 1042.96 410.452 1069.46 437.007C1067.06 437.165 1065.13 439.041 1064.9 441.435ZM1033.03 409.255 1037.17 405.1C1037.23 405.036 1037.31 404.999 1037.4 405 1037.47 405 1037.55 405.029 1037.6 405.082L1041.55 409.037 1037.08 413.505 1033.16 409.571 1033.11 409.524 1033.06 409.481C1033 409.424 1032.98 409.329 1033.03 409.255Z" fill="#000000" fill-rule="nonzero" fill-opacity="1"/><path d="M1100 396.979 1085 396.979 1085 394.979C1085 392.219 1082.76 389.982 1080 389.979L1068 389.979C1065.24 389.983 1063 392.219 1063 394.979L1063 396.979 1048 396.979C1045.79 396.979 1044 398.77 1044 400.979L1044 404.424 1046 406.424 1046 400.979C1046 399.874 1046.9 398.979 1048 398.979L1059 398.979 1059 409 1089 409 1089 398.979 1100 398.979C1101.1 398.979 1102 399.874 1102 400.979L1102 466C1102 467.105 1101.1 468 1100 468L1048 468C1046.9 468 1046 467.105 1046 466L1046 429.548 1044 427.541 1044 466C1044 468.209 1045.79 470 1048 470L1100 470C1102.21 470 1104 468.209 1104 466L1104 400.979C1104 398.771 1102.21 396.982 1100 396.979ZM1087 407 1061 407 1061 398.979 1065 398.979 1065 394.979C1065 393.322 1066.34 391.979 1068 391.979L1080 391.979C1081.66 391.979 1083 393.322 1083 394.979L1083 398.979 1087 398.979Z" fill="#000000" fill-rule="nonzero" fill-opacity="1"/></g></g></g></g></g></svg>