<svg width="334" height="334" xmlns="http://www.w3.org/2000/svg" xmlns:xlink="http://www.w3.org/1999/xlink" xml:space="preserve" overflow="hidden"><g transform="translate(-2044 -1870)"><g><g><g><g><path d="M2145.69 1922.56C2145.69 1935.85 2134.91 1946.62 2121.62 1946.62 2108.34 1946.62 2097.56 1935.85 2097.56 1922.56 2097.56 1909.27 2108.34 1898.5 2121.62 1898.5 2134.91 1898.5 2145.69 1909.27 2145.69 1922.56Z" fill="#000000" fill-rule="nonzero" fill-opacity="1"/><path d="M2186.42 2050.2 2167.31 1977.84C2166.66 1975.66 2165.48 1973.67 2163.87 1972.06 2157.29 1965.21 2149.17 1960.02 2140.19 1956.94 2134.29 1954.58 2127.98 1953.41 2121.62 1953.5 2115.31 1953.46 2109.03 1954.51 2103.06 1956.59 2094.02 1959.59 2085.87 1964.79 2079.34 1971.72 2077.81 1973.52 2076.64 1975.59 2075.91 1977.84L2056.83 2050.2C2055.39 2055.7 2058.68 2061.33 2064.18 2062.78 2065.04 2063.01 2065.91 2063.13 2066.8 2063.12 2071.54 2063.2 2075.72 2060.04 2076.94 2055.46L2094.12 1989.8 2094.12 2173.5 2114.75 2173.5 2114.75 2066.94 2128.5 2066.94 2128.5 2173.5 2149.12 2173.5 2149.12 1989.8 2166.31 2055.46C2167.54 2060.1 2171.82 2063.28 2176.62 2063.12 2177.51 2063.13 2178.39 2063.01 2179.24 2062.78 2184.67 2061.26 2187.87 2055.65 2186.42 2050.2Z" fill="#000000" fill-rule="nonzero" fill-opacity="1"/><path d="M2324.44 1922.56C2324.44 1935.85 2313.66 1946.62 2300.38 1946.62 2287.09 1946.62 2276.31 1935.85 2276.31 1922.56 2276.31 1909.27 2287.09 1898.5 2300.38 1898.5 2313.66 1898.5 2324.44 1909.27 2324.44 1922.56Z" fill="#000000" fill-rule="nonzero" fill-opacity="1"/><path d="M2365.17 2050.2 2346.06 1977.84C2345.37 1975.67 2344.2 1973.7 2342.62 1972.06 2336.04 1965.21 2327.92 1960.02 2318.94 1956.94 2313.04 1954.58 2306.73 1953.41 2300.38 1953.5 2294.06 1953.46 2287.78 1954.51 2281.81 1956.59 2272.77 1959.59 2264.62 1964.79 2258.09 1971.72 2256.56 1973.52 2255.39 1975.59 2254.66 1977.84L2235.58 2050.2C2234.14 2055.7 2237.43 2061.33 2242.93 2062.78 2243.79 2063.01 2244.66 2063.13 2245.55 2063.12 2250.29 2063.2 2254.47 2060.04 2255.69 2055.46L2272.88 1989.8 2272.88 2010.84 2251.43 2091 2272.88 2091 2272.88 2173.5 2293.5 2173.5 2293.5 2091 2307.25 2091 2307.25 2173.5 2327.88 2173.5 2327.88 2091 2345.61 2091 2327.88 2024.69 2327.88 1989.8 2345.06 2055.46C2346.29 2060.1 2350.57 2063.28 2355.38 2063.12 2356.26 2063.13 2357.14 2063.01 2357.99 2062.78 2363.42 2061.26 2366.62 2055.65 2365.17 2050.2Z" fill="#000000" fill-rule="nonzero" fill-opacity="1"/><path d="M2211 2180.38C2207.2 2180.38 2204.12 2177.3 2204.12 2173.5L2204.12 1898.5C2204.12 1894.7 2207.2 1891.62 2211 1891.62 2214.8 1891.62 2217.88 1894.7 2217.88 1898.5L2217.88 2173.5C2217.88 2177.3 2214.8 2180.38 2211 2180.38Z" fill="#000000" fill-rule="nonzero" fill-opacity="1"/></g></g></g></g></g></svg>