<svg width="1361" height="1362" xmlns="http://www.w3.org/2000/svg" xmlns:xlink="http://www.w3.org/1999/xlink" xml:space="preserve" overflow="hidden"><g transform="translate(-994 -375)"><g><g><g><g><path d="M1035.89 937.234C1035.89 956.694 1020.12 972.469 1000.66 972.469 981.197 972.469 965.422 956.694 965.422 937.234 965.422 917.775 981.197 902 1000.66 902 1020.12 902 1035.89 917.775 1035.89 937.234Z" fill="#000000" fill-rule="nonzero" fill-opacity="1" transform="matrix(1 0 0 1.00074 999 379)"/><path d="M1190.92 937.234C1190.92 956.694 1175.15 972.469 1155.69 972.469 1136.23 972.469 1120.45 956.694 1120.45 937.234 1120.45 917.775 1136.23 902 1155.69 902 1175.15 902 1190.92 917.775 1190.92 937.234Z" fill="#000000" fill-rule="nonzero" fill-opacity="1" transform="matrix(1 0 0 1.00074 999 379)"/><path d="M725.828 937.234C725.828 956.694 710.053 972.469 690.594 972.469 671.134 972.469 655.359 956.694 655.359 937.234 655.359 917.775 671.134 902 690.594 902 710.053 902 725.828 917.775 725.828 937.234Z" fill="#000000" fill-rule="nonzero" fill-opacity="1" transform="matrix(1 0 0 1.00074 999 379)"/><path d="M880.859 937.234C880.859 956.694 865.084 972.469 845.625 972.469 826.166 972.469 810.391 956.694 810.391 937.234 810.391 917.775 826.166 902 845.625 902 865.084 902 880.859 917.775 880.859 937.234Z" fill="#000000" fill-rule="nonzero" fill-opacity="1" transform="matrix(1 0 0 1.00074 999 379)"/><path d="M415.766 937.234C415.766 956.694 399.991 972.469 380.531 972.469 361.072 972.469 345.297 956.694 345.297 937.234 345.297 917.775 361.072 902 380.531 902 399.991 902 415.766 917.775 415.766 937.234Z" fill="#000000" fill-rule="nonzero" fill-opacity="1" transform="matrix(1 0 0 1.00074 999 379)"/><path d="M570.797 937.234C570.797 956.694 555.022 972.469 535.562 972.469 516.103 972.469 500.328 956.694 500.328 937.234 500.328 917.775 516.103 902 535.562 902 555.022 902 570.797 917.775 570.797 937.234Z" fill="#000000" fill-rule="nonzero" fill-opacity="1" transform="matrix(1 0 0 1.00074 999 379)"/><path d="M260.734 937.234C260.734 956.694 244.959 972.469 225.5 972.469 206.041 972.469 190.266 956.694 190.266 937.234 190.266 917.775 206.041 902 225.5 902 244.959 902 260.734 917.775 260.734 937.234Z" fill="#000000" fill-rule="nonzero" fill-opacity="1" transform="matrix(1 0 0 1.00074 999 379)"/><path d="M1246.87 1122.71 1219.67 1020.11C1218.84 1017.21 1217.4 1014.51 1215.44 1012.21 1206.17 1002.55 1194.72 995.251 1182.04 990.932 1173.63 987.766 1164.67 986.282 1155.69 986.562 1146.77 986.546 1137.91 988.023 1129.47 990.932 1116.7 995.199 1105.18 1002.56 1095.93 1012.35 1094.17 1014.74 1092.84 1017.41 1091.98 1020.25L1077.89 1072.68 1063.8 1020.67C1063.04 1017.77 1061.65 1015.07 1059.71 1012.78 1050.38 1003.12 1038.88 995.825 1026.17 991.495 1018.06 988.221 1009.4 986.547 1000.66 986.562 991.738 986.57 982.881 988.045 974.442 990.932 961.691 995.167 950.208 1002.53 941.04 1012.35 939.185 1014.7 937.798 1017.38 936.953 1020.25L923.141 1071.12 909.047 1020.11C908.213 1017.21 906.772 1014.51 904.819 1012.21 895.546 1002.55 884.092 995.251 871.417 990.932 863.177 987.838 854.422 986.355 845.625 986.562 836.704 986.546 827.843 988.023 819.411 990.932 806.635 995.199 795.113 1002.56 785.867 1012.35 784.111 1014.74 782.775 1017.41 781.921 1020.25L767.828 1072.68 753.734 1020.67C752.98 1017.77 751.583 1015.07 749.647 1012.78 740.314 1003.12 728.816 995.825 716.103 991.495 707.998 988.221 699.336 986.547 690.594 986.562 681.675 986.57 672.819 988.045 664.379 990.932 651.629 995.167 640.145 1002.53 630.977 1012.35 629.122 1014.7 627.736 1017.38 626.89 1020.25L613.078 1071.12 598.984 1020.11C598.15 1017.21 596.71 1014.51 594.756 1012.21 585.484 1002.55 574.03 995.251 561.354 990.932 553.116 987.838 544.36 986.355 535.562 986.562 526.641 986.546 517.78 988.023 509.348 990.932 496.574 995.199 485.051 1002.56 475.805 1012.35 474.049 1014.74 472.714 1017.41 471.859 1020.25L457.765 1072.68 443.671 1020.67C442.917 1017.77 441.521 1015.07 439.584 1012.78 430.251 1003.12 418.754 995.825 406.041 991.495 397.936 988.221 389.274 986.547 380.531 986.562 371.613 986.57 362.756 988.045 354.317 990.932 341.566 995.167 330.083 1002.53 320.915 1012.35 319.06 1014.7 317.673 1017.38 316.827 1020.25L303.016 1071.12 288.922 1020.11C288.088 1017.21 286.647 1014.51 284.694 1012.21 275.421 1002.55 263.967 995.251 251.292 990.932 243.052 987.838 234.297 986.355 225.5 986.562 216.579 986.546 207.719 988.023 199.286 990.932 186.511 995.199 174.988 1002.56 165.743 1012.35 163.986 1014.74 162.652 1017.41 161.796 1020.25L134.595 1122.71C133.071 1130.34 138.024 1137.76 145.658 1139.29 152.637 1140.68 159.56 1136.65 161.796 1129.9L183.219 1049.14 183.219 1093.39 158.977 1183.88 183.219 1183.88 183.219 1296.62 211.406 1296.62 211.406 1183.88 239.594 1183.88 239.594 1296.62 267.781 1296.62 267.781 1183.88 292.022 1183.88 267.781 1093.39 267.781 1048.15 289.345 1129.9C291.237 1137.45 298.892 1142.03 306.442 1140.14 311.485 1138.88 315.422 1134.94 316.687 1129.9L338.25 1048.15 338.25 1296.62 366.438 1296.62 366.438 1141.59 394.625 1141.59 394.625 1296.62 422.812 1296.62 422.812 1049 444.235 1129.9C444.235 1137.68 450.545 1143.99 458.329 1143.99 466.113 1143.99 472.423 1137.68 472.423 1129.9L493.281 1049 493.281 1093.39 469.04 1183.88 493.281 1183.88 493.281 1296.62 521.469 1296.62 521.469 1183.88 549.656 1183.88 549.656 1296.62 577.844 1296.62 577.844 1183.88 602.085 1183.88 577.844 1093.39 577.844 1048.15 599.407 1129.9C601.3 1137.45 608.954 1142.03 616.504 1140.14 621.547 1138.88 625.485 1134.94 626.749 1129.9L648.312 1048.15 648.312 1296.62 676.5 1296.62 676.5 1141.59 704.688 1141.59 704.688 1296.62 732.875 1296.62 732.875 1049 754.297 1129.9C754.297 1137.68 760.607 1143.99 768.391 1143.99 776.175 1143.99 782.485 1137.68 782.485 1129.9L803.344 1049 803.344 1093.39 779.102 1183.88 803.344 1183.88 803.344 1296.62 831.531 1296.62 831.531 1183.88 859.719 1183.88 859.719 1296.62 887.906 1296.62 887.906 1183.88 912.148 1183.88 887.906 1093.39 887.906 1048.15 909.47 1129.9C911.362 1137.45 919.017 1142.03 926.567 1140.14 931.61 1138.88 935.547 1134.94 936.812 1129.9L958.375 1048.15 958.375 1296.62 986.562 1296.62 986.562 1141.59 1014.75 1141.59 1014.75 1296.62 1042.94 1296.62 1042.94 1049 1064.36 1129.9C1064.36 1137.68 1070.67 1143.99 1078.45 1143.99 1086.24 1143.99 1092.55 1137.68 1092.55 1129.9L1113.41 1049 1113.41 1093.39 1089.17 1183.88 1113.41 1183.88 1113.41 1296.62 1141.59 1296.62 1141.59 1183.88 1169.78 1183.88 1169.78 1296.62 1197.97 1296.62 1197.97 1183.88 1222.21 1183.88 1197.97 1093.39 1197.97 1048.15 1219.53 1129.9C1221.23 1136.23 1227.07 1140.55 1233.63 1140.33 1241.41 1140.11 1247.54 1133.62 1247.32 1125.84 1247.29 1124.78 1247.14 1123.73 1246.87 1122.71Z" fill="#000000" fill-rule="nonzero" fill-opacity="1" transform="matrix(1 0 0 1.00074 999 379)"/><path d="M1000.66 549.656C1020.12 549.656 1035.89 533.881 1035.89 514.422 1035.89 494.963 1020.12 479.188 1000.66 479.188 981.197 479.188 965.422 494.963 965.422 514.422 965.422 533.881 981.197 549.656 1000.66 549.656Z" fill="#000000" fill-rule="nonzero" fill-opacity="1" transform="matrix(1 0 0 1.00074 999 379)"/><path d="M690.594 549.656C710.053 549.656 725.828 533.881 725.828 514.422 725.828 494.963 710.053 479.188 690.594 479.188 671.135 479.188 655.359 494.963 655.359 514.422 655.359 533.881 671.135 549.656 690.594 549.656Z" fill="#000000" fill-rule="nonzero" fill-opacity="1" transform="matrix(1 0 0 1.00074 999 379)"/><path d="M845.625 549.656C865.084 549.656 880.859 533.881 880.859 514.422 880.859 494.963 865.084 479.188 845.625 479.188 826.166 479.188 810.391 494.963 810.391 514.422 810.391 533.881 826.166 549.656 845.625 549.656Z" fill="#000000" fill-rule="nonzero" fill-opacity="1" transform="matrix(1 0 0 1.00074 999 379)"/><path d="M380.531 549.656C399.99 549.656 415.766 533.881 415.766 514.422 415.766 494.963 399.99 479.188 380.531 479.188 361.072 479.188 345.297 494.963 345.297 514.422 345.297 533.881 361.072 549.656 380.531 549.656Z" fill="#000000" fill-rule="nonzero" fill-opacity="1" transform="matrix(1 0 0 1.00074 999 379)"/><path d="M535.562 549.656C555.022 549.656 570.797 533.881 570.797 514.422 570.797 494.963 555.022 479.188 535.562 479.188 516.103 479.188 500.328 494.963 500.328 514.422 500.328 533.881 516.103 549.656 535.562 549.656Z" fill="#000000" fill-rule="nonzero" fill-opacity="1" transform="matrix(1 0 0 1.00074 999 379)"/><path d="M1091.56 699.896 1064.36 597.293C1063.61 594.39 1062.21 591.692 1060.27 589.401 1050.94 579.744 1039.44 572.449 1026.73 568.119 1018.41 564.966 1009.55 563.481 1000.66 563.75 991.738 563.757 982.881 565.233 974.442 568.119 961.691 572.354 950.208 579.72 941.04 589.542 939.185 591.887 937.798 594.566 936.953 597.434L923.141 648.312 909.047 597.293C908.213 594.393 906.772 591.702 904.819 589.401 895.546 579.737 884.092 572.439 871.417 568.119 863.177 565.026 854.422 563.543 845.625 563.75 836.704 563.733 827.843 565.21 819.411 568.119 806.635 572.387 795.113 579.746 785.867 589.542 784.111 591.928 782.775 594.597 781.921 597.434L767.828 649.863 753.734 597.857C752.98 594.954 751.583 592.256 749.647 589.964 740.314 580.307 728.816 573.012 716.103 568.683 707.998 565.409 699.336 563.734 690.594 563.75 681.675 563.757 672.819 565.233 664.379 568.119 651.629 572.354 640.145 579.72 630.977 589.542 629.122 591.887 627.736 594.566 626.89 597.434L613.078 648.312 598.984 597.293C598.15 594.393 596.71 591.702 594.756 589.401 585.484 579.737 574.03 572.439 561.354 568.119 553.116 565.026 544.36 563.543 535.562 563.75 526.641 563.733 517.78 565.21 509.348 568.119 496.574 572.387 485.051 579.746 475.805 589.542 474.049 591.928 472.714 594.597 471.859 597.434L457.765 649.863 443.671 597.857C442.917 594.954 441.521 592.256 439.584 589.964 430.251 580.307 418.754 573.012 406.041 568.683 397.936 565.409 389.274 563.734 380.531 563.75 371.613 563.757 362.756 565.233 354.317 568.119 341.566 572.354 330.083 579.72 320.915 589.542 319.06 591.887 317.673 594.566 316.827 597.434L289.486 700.459C287.517 707.969 291.99 715.657 299.492 717.654L303.157 717.654C309.709 717.878 315.549 713.555 317.25 707.224L338.25 625.34 338.25 873.812 366.438 873.812 366.438 718.781 394.625 718.781 394.625 873.812 422.812 873.812 422.812 626.185 444.235 707.083C444.235 714.867 450.545 721.177 458.329 721.177 466.113 721.177 472.423 714.867 472.423 707.083L493.281 626.185 493.281 670.581 469.04 761.062 493.281 761.062 493.281 873.812 521.469 873.812 521.469 761.062 549.656 761.062 549.656 873.812 577.844 873.812 577.844 761.062 602.085 761.062 577.844 670.581 577.844 625.34 599.407 707.083C601.3 714.633 608.954 719.221 616.504 717.328 621.547 716.064 625.485 712.126 626.749 707.083L648.312 625.34 648.312 873.812 676.5 873.812 676.5 718.781 704.688 718.781 704.688 873.812 732.875 873.812 732.875 626.185 754.297 707.083C754.297 714.867 760.607 721.177 768.391 721.177 776.175 721.177 782.485 714.867 782.485 707.083L803.344 626.185 803.344 670.581 779.102 761.062 803.344 761.062 803.344 873.812 831.531 873.812 831.531 761.062 859.719 761.062 859.719 873.812 887.906 873.812 887.906 761.062 912.148 761.062 887.906 670.581 887.906 625.34 909.47 707.083C911.362 714.633 919.017 719.221 926.567 717.328 931.61 716.064 935.547 712.126 936.812 707.083L958.375 625.34 958.375 873.812 986.562 873.812 986.562 718.781 1014.75 718.781 1014.75 873.812 1042.94 873.812 1042.94 626.185 1064.36 707.083C1066.06 713.414 1071.9 717.737 1078.45 717.513 1079.67 717.651 1080.9 717.651 1082.12 717.513 1089.58 715.283 1093.81 707.43 1091.58 699.973 1091.58 699.946 1091.57 699.921 1091.56 699.896Z" fill="#000000" fill-rule="nonzero" fill-opacity="1" transform="matrix(1 0 0 1.00074 999 379)"/><path d="M690.594 126.844C710.053 126.844 725.828 111.069 725.828 91.6094 725.828 72.15 710.053 56.375 690.594 56.375 671.135 56.375 655.359 72.15 655.359 91.6094 655.359 111.069 671.135 126.844 690.594 126.844Z" fill="#000000" fill-rule="nonzero" fill-opacity="1" transform="matrix(1 0 0 1.00074 999 379)"/><path d="M845.625 126.844C865.084 126.844 880.859 111.069 880.859 91.6094 880.859 72.15 865.084 56.375 845.625 56.375 826.166 56.375 810.391 72.15 810.391 91.6094 810.391 111.069 826.166 126.844 845.625 126.844Z" fill="#000000" fill-rule="nonzero" fill-opacity="1" transform="matrix(1 0 0 1.00074 999 379)"/><path d="M535.562 126.844C555.022 126.844 570.797 111.069 570.797 91.6094 570.797 72.15 555.022 56.375 535.562 56.375 516.103 56.375 500.328 72.15 500.328 91.6094 500.328 111.069 516.103 126.844 535.562 126.844Z" fill="#000000" fill-rule="nonzero" fill-opacity="1" transform="matrix(1 0 0 1.00074 999 379)"/><path d="M936.812 277.083 909.611 174.481C908.776 171.58 907.336 168.89 905.382 166.588 896.11 156.925 884.656 149.626 871.98 145.307 863.565 142.141 854.611 140.657 845.625 140.938 836.704 140.92 827.843 142.398 819.411 145.307 806.636 149.574 795.113 156.934 785.867 166.729 784.111 169.115 782.777 171.784 781.921 174.622L767.828 227.05 753.734 175.044C752.98 172.141 751.583 169.444 749.647 167.152 740.314 157.495 728.816 150.2 716.103 145.87 707.998 142.596 699.336 140.922 690.594 140.938 681.675 140.945 672.819 142.42 664.379 145.307 651.629 149.542 640.145 156.907 630.977 166.729 629.122 169.074 627.736 171.753 626.89 174.622L613.078 225.5 598.984 174.481C598.15 171.58 596.71 168.89 594.756 166.588 585.484 156.925 574.03 149.626 561.354 145.307 553.116 142.213 544.36 140.73 535.562 140.938 526.641 140.92 517.78 142.398 509.348 145.307 496.574 149.574 485.051 156.934 475.805 166.729 474.049 169.115 472.714 171.784 471.859 174.622L444.517 277.647C442.548 285.156 447.021 292.844 454.523 294.841 455.741 294.979 456.97 294.979 458.188 294.841 464.74 295.065 470.58 290.743 472.282 284.412L493.281 203.373 493.281 247.768 469.04 338.25 493.281 338.25 493.281 451 521.469 451 521.469 338.25 549.656 338.25 549.656 451 577.844 451 577.844 338.25 602.085 338.25 577.844 247.768 577.844 202.527 599.407 284.271C601.3 291.821 608.954 296.408 616.504 294.516 621.547 293.251 625.485 289.314 626.749 284.271L648.312 202.527 648.312 451 676.5 451 676.5 295.969 704.688 295.969 704.688 451 732.875 451 732.875 203.373 754.297 284.271C754.297 292.055 760.607 298.365 768.391 298.365 776.175 298.365 782.485 292.055 782.485 284.271L803.344 203.373 803.344 247.768 779.102 338.25 803.344 338.25 803.344 451 831.531 451 831.531 338.25 859.719 338.25 859.719 451 887.906 451 887.906 338.25 912.148 338.25 887.906 247.768 887.906 202.527 909.47 284.271C911.171 290.602 917.011 294.924 923.563 294.7L927.228 294.7C934.706 292.543 939.02 284.73 936.861 277.251 936.845 277.196 936.828 277.139 936.812 277.083Z" fill="#000000" fill-rule="nonzero" fill-opacity="1" transform="matrix(1 0 0 1.00074 999 379)"/></g></g></g></g></g></svg>