<svg width="97" height="96" xmlns="http://www.w3.org/2000/svg" xmlns:xlink="http://www.w3.org/1999/xlink" xml:space="preserve" overflow="hidden"><g transform="translate(-361 -180)"><g><g><g><g><path d="M410 190C389.007 189.994 371.984 207.007 371.978 228 371.972 248.993 388.985 266.016 409.978 266.022 430.971 266.028 447.994 249.015 448 228.022 448 228.018 448 228.014 448 228.01 448.011 207.029 431.011 190.011 410.03 190 410.02 190 410.01 190 410 190ZM410 264.021C390.112 264.027 373.984 247.909 373.978 228.021 373.972 208.133 390.09 192.005 409.978 191.999 429.866 191.993 445.994 208.111 446 227.999 446 228.004 446 228.008 446 228.013 445.98 247.889 429.876 263.998 410 264.024Z" fill="#000000" fill-rule="nonzero" fill-opacity="1"/><path d="M410.5 210.514 408.5 210.514 408.5 227 392 227 392 229 408.5 229 408.5 245.514 410.5 245.514 410.5 229 427 229 427 227 410.5 227 410.5 210.514Z" fill="#000000" fill-rule="nonzero" fill-opacity="1"/></g></g></g></g></g></svg>