<svg width="97" height="98" xmlns="http://www.w3.org/2000/svg" xmlns:xlink="http://www.w3.org/1999/xlink" xml:space="preserve" overflow="hidden"><g transform="translate(-261 -278)"><g><g><g><g><path d="M309.986 289C289.011 289 272.007 306.004 272.007 326.979 272.007 347.954 289.011 364.958 309.986 364.958 330.961 364.958 347.965 347.954 347.965 326.979 347.965 326.978 347.965 326.976 347.965 326.975 347.972 306.009 330.982 289.007 310.016 289 310.006 289 309.996 289 309.986 289ZM328.605 330.36 313.367 330.36 313.367 345.594 306.605 345.594 306.605 330.356 291.367 330.356 291.367 323.594 306.605 323.594 306.605 308.356 313.367 308.356 313.367 323.594 328.605 323.594Z" fill="#000000" fill-rule="nonzero" fill-opacity="1"/></g></g></g></g></g></svg>