<svg width="96" height="98" xmlns="http://www.w3.org/2000/svg" xmlns:xlink="http://www.w3.org/1999/xlink" xml:space="preserve" overflow="hidden"><g transform="translate(-1096 -750)"><g><g><g><g><path d="M1127.71 793.77 1126.29 792.355 1113.61 805.034C1113.61 805.038 1113.6 805.038 1113.6 805.034 1113.6 805.032 1113.6 805.03 1113.6 805.028 1110.26 788.236 1121.16 771.915 1137.95 768.574 1151.96 765.786 1166.06 772.932 1172.1 785.878L1173.91 785.031C1166.23 768.507 1146.61 761.337 1130.08 769.017 1116.82 775.18 1109.2 789.337 1111.36 803.8 1111.36 803.805 1111.36 803.81 1111.35 803.812 1111.35 803.813 1111.34 803.812 1111.34 803.808L1099.89 792.355 1098.48 793.77 1113.09 808.385Z" fill="#000000" fill-rule="nonzero" fill-opacity="1"/><path d="M1160.29 806.264 1161.71 807.678 1174.67 794.718C1174.67 794.714 1174.68 794.714 1174.68 794.718 1174.68 794.72 1174.68 794.722 1174.68 794.724 1177.12 811.598 1165.41 827.25 1148.54 829.684 1147.04 829.901 1145.52 830.006 1144 830 1132.52 830.011 1121.98 823.673 1116.61 813.531L1114.84 814.469C1123.38 830.572 1143.35 836.706 1159.46 828.171 1170.25 822.446 1177.01 811.222 1177 799 1177 798.163 1176.96 797.325 1176.9 796.49 1176.9 796.484 1176.9 796.48 1176.91 796.48 1176.91 796.48 1176.91 796.481 1176.92 796.482L1188.11 807.682 1189.53 806.268 1174.91 791.648Z" fill="#000000" fill-rule="nonzero" fill-opacity="1"/></g></g></g></g></g></svg>