<svg width="97" height="96" xmlns="http://www.w3.org/2000/svg" xmlns:xlink="http://www.w3.org/1999/xlink" xml:space="preserve" overflow="hidden"><g transform="translate(-981 -864)"><g><g><g><g><path d="M1054.54 885C1052.88 879.732 1047.27 876.805 1042 878.462 1038.88 879.443 1036.44 881.884 1035.46 885L996 885 996 891 1035.46 891C1037.12 896.268 1042.73 899.195 1048 897.538 1051.12 896.557 1053.56 894.116 1054.54 891L1064 891 1064 885ZM1045 892C1042.79 892 1041 890.209 1041 888 1041 885.791 1042.79 884 1045 884 1047.21 884 1049 885.791 1049 888 1049 890.209 1047.21 892 1045 892Z" fill="#000000" fill-rule="nonzero" fill-opacity="1"/><path d="M1041 926C1036.63 926.006 1032.78 928.837 1031.46 933L996 933 996 939 1031.46 939C1033.12 944.268 1038.73 947.195 1044 945.538 1047.12 944.557 1049.56 942.116 1050.54 939L1064 939 1064 933 1050.54 933C1049.22 928.837 1045.37 926.006 1041 926ZM1041 940C1038.79 940 1037 938.209 1037 936 1037 933.791 1038.79 932 1041 932 1043.21 932 1045 933.791 1045 936 1045 938.209 1043.21 940 1041 940Z" fill="#000000" fill-rule="nonzero" fill-opacity="1"/><path d="M1016 902C1011.63 902.006 1007.78 904.837 1006.46 909L996 909 996 915 1006.46 915C1008.12 920.268 1013.73 923.195 1019 921.538 1022.12 920.557 1024.56 918.116 1025.54 915L1064 915 1064 909 1025.54 909C1024.22 904.837 1020.37 902.006 1016 902ZM1016 916C1013.79 916 1012 914.209 1012 912 1012 909.791 1013.79 908 1016 908 1018.21 908 1020 909.791 1020 912 1020 914.209 1018.21 916 1016 916Z" fill="#000000" fill-rule="nonzero" fill-opacity="1"/></g></g></g></g></g></svg>