<svg width="96" height="97" xmlns="http://www.w3.org/2000/svg" xmlns:xlink="http://www.w3.org/1999/xlink" xml:space="preserve" overflow="hidden"><g transform="translate(-752 -601)"><g><g><g><g><path d="M762 675 838 675 838 624 762 624ZM764 673 764 659 787 659 787 673ZM811 643 811 657 789 657 789 643ZM789 641 789 626 811 626 811 641ZM813 643 836 643 836 657 813 657ZM787 657 764 657 764 643 787 643ZM789 673 789 659 811 659 811 673ZM813 673 813 659 836 659 836 673ZM836 641 813 641 813 626 836 626ZM787 626 787 641 764 641 764 626Z" fill="#000000" fill-rule="nonzero" fill-opacity="1"/></g></g></g></g></g></svg>