<svg width="98" height="97" xmlns="http://www.w3.org/2000/svg" xmlns:xlink="http://www.w3.org/1999/xlink" xml:space="preserve" overflow="hidden"><g transform="translate(-954 -376)"><g><g><g><g><path d="M1011.1 388C1011.1 392.418 1007.52 396 1003.1 396 998.682 396 995.1 392.418 995.1 388 995.1 383.582 998.682 380 1003.1 380 1007.52 380 1011.1 383.582 1011.1 388Z" fill="#000000" fill-rule="nonzero" fill-opacity="1"/><path d="M1024.9 428.8 1017.7 404C1017.5 403 1016.9 402.2 1016.1 401.8 1013.7 400.2 1010.9 399.2 1007.7 398.4 1006.1 398.2 1004.7 398 1003.1 398 1001.5 398 1000.1 398.2 998.5 398.4 995.3 399 992.5 400.2 990.1 401.8 989.3 402.4 988.7 403 988.5 404L981.1 428.8C980.5 431 981.7 433.2 983.9 433.8 984.3 434 984.7 434 985.1 434 986.9 434 988.5 432.8 988.9 431.2L995.1 410.2 995.1 417.2 987.7 442 993.1 442 993.1 470 1001.1 470 1001.1 442 1005.1 442 1005.1 470 1013.1 470 1013.1 442 1018.5 442 1011.1 417.2 1011.1 410.2 1017.3 431.2C1017.9 433 1019.5 434 1021.1 434 1021.5 434 1021.9 434 1022.3 433.8 1024.3 433.2 1025.5 431 1024.9 428.8Z" fill="#000000" fill-rule="nonzero" fill-opacity="1"/></g></g></g></g></g></svg>