<svg width="97" height="96" xmlns="http://www.w3.org/2000/svg" xmlns:xlink="http://www.w3.org/1999/xlink" xml:space="preserve" overflow="hidden"><g transform="translate(-665 -124)"><g><g><g><g><path d="M722.1 135C722.1 139.418 718.518 143 714.1 143 709.682 143 706.1 139.418 706.1 135 706.1 130.582 709.682 127 714.1 127 718.518 127 722.1 130.582 722.1 135Z" fill="#BADCC0" fill-rule="nonzero" fill-opacity="1"/><path d="M735.9 175.8 728.7 151C728.5 150 727.9 149.2 727.1 148.8 724.7 147.2 721.9 146.2 718.7 145.4 717.1 145.2 715.7 145 714.1 145 712.5 145 711.1 145.2 709.5 145.4 706.3 146 703.5 147.2 701.1 148.8 700.3 149.4 699.7 150 699.5 151L692.1 175.8C691.5 178 692.7 180.2 694.9 180.8 695.3 181 695.7 181 696.1 181 697.9 181 699.5 179.8 699.9 178.2L706.1 157.2 706.1 164.2 698.7 189 704.1 189 704.1 217 712.1 217 712.1 189 716.1 189 716.1 217 724.1 217 724.1 189 729.5 189 722.1 164.2 722.1 157.2 728.3 178.2C728.9 180 730.5 181 732.1 181 732.5 181 732.9 181 733.3 180.8 735.3 180.2 736.5 178 735.9 175.8Z" fill="#BADCC0" fill-rule="nonzero" fill-opacity="1"/></g></g></g></g></g></svg>