<?xml version="1.0" encoding="UTF-8"?>
<svg xmlns="http://www.w3.org/2000/svg" viewBox="12 20.700000000000003 75.7 58.900000000000006" width="757" height="589" role="img" aria-label="People slide">
<svg x="14.579" y="23.686" width="5.000" height="4.949" viewBox="0 0 98 97" style="overflow:visible;filter:drop-shadow(1px 2px 3px rgba(0,0,0,0.22));"><ns0:g xmlns:ns0="http://www.w3.org/2000/svg" transform="translate(-954 -376)"><ns0:g><ns0:g><ns0:g><ns0:g><ns0:path d="M1011.1 388C1011.1 392.418 1007.52 396 1003.1 396 998.682 396 995.1 392.418 995.1 388 995.1 383.582 998.682 380 1003.1 380 1007.52 380 1011.1 383.582 1011.1 388Z" fill="#000000" fill-rule="nonzero" fill-opacity="1"/><ns0:path d="M1024.9 428.8 1017.7 404C1017.5 403 1016.9 402.2 1016.1 401.8 1013.7 400.2 1010.9 399.2 1007.7 398.4 1006.1 398.2 1004.7 398 1003.1 398 1001.5 398 1000.1 398.2 998.5 398.4 995.3 399 992.5 400.2 990.1 401.8 989.3 402.4 988.7 403 988.5 404L981.1 428.8C980.5 431 981.7 433.2 983.9 433.8 984.3 434 984.7 434 985.1 434 986.9 434 988.5 432.8 988.9 431.2L995.1 410.2 995.1 417.2 987.7 442 993.1 442 993.1 470 1001.1 470 1001.1 442 1005.1 442 1005.1 470 1013.1 470 1013.1 442 1018.5 442 1011.1 417.2 1011.1 410.2 1017.3 431.2C1017.9 433 1019.5 434 1021.1 434 1021.5 434 1021.9 434 1022.3 433.8 1024.3 433.2 1025.5 431 1024.9 428.8Z" fill="#000000" fill-rule="nonzero" fill-opacity="1"/></ns0:g></ns0:g></ns0:g></ns0:g></ns0:g></svg>
<svg x="20.772" y="22.458" width="5.000" height="4.949" viewBox="0 0 98 97" style="overflow:visible;filter:drop-shadow(1px 2px 3px rgba(0,0,0,0.22));"><ns0:g xmlns:ns0="http://www.w3.org/2000/svg" transform="translate(-954 -376)"><ns0:g><ns0:g><ns0:g><ns0:g><ns0:path d="M1011.1 388C1011.1 392.418 1007.52 396 1003.1 396 998.682 396 995.1 392.418 995.1 388 995.1 383.582 998.682 380 1003.1 380 1007.52 380 1011.1 383.582 1011.1 388Z" fill="#000000" fill-rule="nonzero" fill-opacity="1"/><ns0:path d="M1024.9 428.8 1017.7 404C1017.5 403 1016.9 402.2 1016.1 401.8 1013.7 400.2 1010.9 399.2 1007.7 398.4 1006.1 398.2 1004.7 398 1003.1 398 1001.5 398 1000.1 398.2 998.5 398.4 995.3 399 992.5 400.2 990.1 401.8 989.3 402.4 988.7 403 988.5 404L981.1 428.8C980.5 431 981.7 433.2 983.9 433.8 984.3 434 984.7 434 985.1 434 986.9 434 988.5 432.8 988.9 431.2L995.1 410.2 995.1 417.2 987.7 442 993.1 442 993.1 470 1001.1 470 1001.1 442 1005.1 442 1005.1 470 1013.1 470 1013.1 442 1018.5 442 1011.1 417.2 1011.1 410.2 1017.3 431.2C1017.9 433 1019.5 434 1021.1 434 1021.5 434 1021.9 434 1022.3 433.8 1024.3 433.2 1025.5 431 1024.9 428.8Z" fill="#000000" fill-rule="nonzero" fill-opacity="1"/></ns0:g></ns0:g></ns0:g></ns0:g></ns0:g></svg>
<svg x="25.574" y="22.631" width="5.000" height="5.052" viewBox="0 0 96 97" style="overflow:visible;filter:drop-shadow(1px 2px 3px rgba(0,0,0,0.22));"><ns0:g xmlns:ns0="http://www.w3.org/2000/svg" transform="translate(-1056 -368)"><ns0:g><ns0:g><ns0:g><ns0:g><ns0:path d="M1112 380C1112 384.418 1108.42 388 1104 388 1099.58 388 1096 384.418 1096 380 1096 375.582 1099.58 372 1104 372 1108.42 372 1112 375.582 1112 380Z" fill="#000000" fill-rule="nonzero" fill-opacity="1"/><ns0:path d="M1125.8 421.2 1120.2 397.4C1120 396.6 1119.6 395.8 1119 395.2 1116.6 393.2 1113.8 391.8 1110.6 390.8 1108.4 390.4 1106.2 390 1104 390 1101.8 390 1099.6 390.4 1097.4 391 1094.2 391.8 1091.4 393.4 1089 395.4 1088.4 396 1088 396.8 1087.8 397.6L1082.2 421.4C1082.2 421.6 1082 422 1082 422.4 1082 424.6 1083.8 426.4 1086 426.4 1087.8 426.4 1089.4 425 1089.8 423.4L1094 406 1094 462 1102 462 1102 426 1106 426 1106 462 1114 462 1114 405.8 1118.2 423.2C1118.6 424.8 1120.2 426.2 1122 426.2 1124.2 426.2 1126 424.4 1126 422.2 1126 421.8 1125.8 421.4 1125.8 421.2Z" fill="#000000" fill-rule="nonzero" fill-opacity="1"/></ns0:g></ns0:g></ns0:g></ns0:g></ns0:g></svg>
<svg x="32.009" y="22.422" width="5.000" height="5.052" viewBox="0 0 96 97" style="overflow:visible;filter:drop-shadow(1px 2px 3px rgba(0,0,0,0.22));"><ns0:g xmlns:ns0="http://www.w3.org/2000/svg" transform="translate(-1056 -368)"><ns0:g><ns0:g><ns0:g><ns0:g><ns0:path d="M1112 380C1112 384.418 1108.42 388 1104 388 1099.58 388 1096 384.418 1096 380 1096 375.582 1099.58 372 1104 372 1108.42 372 1112 375.582 1112 380Z" fill="#000000" fill-rule="nonzero" fill-opacity="1"/><ns0:path d="M1125.8 421.2 1120.2 397.4C1120 396.6 1119.6 395.8 1119 395.2 1116.6 393.2 1113.8 391.8 1110.6 390.8 1108.4 390.4 1106.2 390 1104 390 1101.8 390 1099.6 390.4 1097.4 391 1094.2 391.8 1091.4 393.4 1089 395.4 1088.4 396 1088 396.8 1087.8 397.6L1082.2 421.4C1082.2 421.6 1082 422 1082 422.4 1082 424.6 1083.8 426.4 1086 426.4 1087.8 426.4 1089.4 425 1089.8 423.4L1094 406 1094 462 1102 462 1102 426 1106 426 1106 462 1114 462 1114 405.8 1118.2 423.2C1118.6 424.8 1120.2 426.2 1122 426.2 1124.2 426.2 1126 424.4 1126 422.2 1126 421.8 1125.8 421.4 1125.8 421.2Z" fill="#000000" fill-rule="nonzero" fill-opacity="1"/></ns0:g></ns0:g></ns0:g></ns0:g></ns0:g></svg>
<svg x="39.176" y="23.753" width="5.000" height="4.949" viewBox="0 0 98 97" style="overflow:visible;filter:drop-shadow(1px 2px 3px rgba(0,0,0,0.22));"><ns0:g xmlns:ns0="http://www.w3.org/2000/svg" transform="translate(-954 -376)"><ns0:g><ns0:g><ns0:g><ns0:g><ns0:path d="M1011.1 388C1011.1 392.418 1007.52 396 1003.1 396 998.682 396 995.1 392.418 995.1 388 995.1 383.582 998.682 380 1003.1 380 1007.52 380 1011.1 383.582 1011.1 388Z" fill="#000000" fill-rule="nonzero" fill-opacity="1"/><ns0:path d="M1024.9 428.8 1017.7 404C1017.5 403 1016.9 402.2 1016.1 401.8 1013.7 400.2 1010.9 399.2 1007.7 398.4 1006.1 398.2 1004.7 398 1003.1 398 1001.5 398 1000.1 398.2 998.5 398.4 995.3 399 992.5 400.2 990.1 401.8 989.3 402.4 988.7 403 988.5 404L981.1 428.8C980.5 431 981.7 433.2 983.9 433.8 984.3 434 984.7 434 985.1 434 986.9 434 988.5 432.8 988.9 431.2L995.1 410.2 995.1 417.2 987.7 442 993.1 442 993.1 470 1001.1 470 1001.1 442 1005.1 442 1005.1 470 1013.1 470 1013.1 442 1018.5 442 1011.1 417.2 1011.1 410.2 1017.3 431.2C1017.9 433 1019.5 434 1021.1 434 1021.5 434 1021.9 434 1022.3 433.8 1024.3 433.2 1025.5 431 1024.9 428.8Z" fill="#000000" fill-rule="nonzero" fill-opacity="1"/></ns0:g></ns0:g></ns0:g></ns0:g></ns0:g></svg>
<svg x="44.17" y="23.311" width="5.000" height="4.949" viewBox="0 0 98 97" style="overflow:visible;filter:drop-shadow(1px 2px 3px rgba(0,0,0,0.22));"><ns0:g xmlns:ns0="http://www.w3.org/2000/svg" transform="translate(-954 -376)"><ns0:g><ns0:g><ns0:g><ns0:g><ns0:path d="M1011.1 388C1011.1 392.418 1007.52 396 1003.1 396 998.682 396 995.1 392.418 995.1 388 995.1 383.582 998.682 380 1003.1 380 1007.52 380 1011.1 383.582 1011.1 388Z" fill="#000000" fill-rule="nonzero" fill-opacity="1"/><ns0:path d="M1024.9 428.8 1017.7 404C1017.5 403 1016.9 402.2 1016.1 401.8 1013.7 400.2 1010.9 399.2 1007.7 398.4 1006.1 398.2 1004.7 398 1003.1 398 1001.5 398 1000.1 398.2 998.5 398.4 995.3 399 992.5 400.2 990.1 401.8 989.3 402.4 988.7 403 988.5 404L981.1 428.8C980.5 431 981.7 433.2 983.9 433.8 984.3 434 984.7 434 985.1 434 986.9 434 988.5 432.8 988.9 431.2L995.1 410.2 995.1 417.2 987.7 442 993.1 442 993.1 470 1001.1 470 1001.1 442 1005.1 442 1005.1 470 1013.1 470 1013.1 442 1018.5 442 1011.1 417.2 1011.1 410.2 1017.3 431.2C1017.9 433 1019.5 434 1021.1 434 1021.5 434 1021.9 434 1022.3 433.8 1024.3 433.2 1025.5 431 1024.9 428.8Z" fill="#000000" fill-rule="nonzero" fill-opacity="1"/></ns0:g></ns0:g></ns0:g></ns0:g></ns0:g></svg>
<svg x="50.347" y="23.829" width="5.000" height="4.949" viewBox="0 0 98 97" style="overflow:visible;filter:drop-shadow(1px 2px 3px rgba(0,0,0,0.22));"><ns0:g xmlns:ns0="http://www.w3.org/2000/svg" transform="translate(-954 -376)"><ns0:g><ns0:g><ns0:g><ns0:g><ns0:path d="M1011.1 388C1011.1 392.418 1007.52 396 1003.1 396 998.682 396 995.1 392.418 995.1 388 995.1 383.582 998.682 380 1003.1 380 1007.52 380 1011.1 383.582 1011.1 388Z" fill="#000000" fill-rule="nonzero" fill-opacity="1"/><ns0:path d="M1024.9 428.8 1017.7 404C1017.5 403 1016.9 402.2 1016.1 401.8 1013.7 400.2 1010.9 399.2 1007.7 398.4 1006.1 398.2 1004.7 398 1003.1 398 1001.5 398 1000.1 398.2 998.5 398.4 995.3 399 992.5 400.2 990.1 401.8 989.3 402.4 988.7 403 988.5 404L981.1 428.8C980.5 431 981.7 433.2 983.9 433.8 984.3 434 984.7 434 985.1 434 986.9 434 988.5 432.8 988.9 431.2L995.1 410.2 995.1 417.2 987.7 442 993.1 442 993.1 470 1001.1 470 1001.1 442 1005.1 442 1005.1 470 1013.1 470 1013.1 442 1018.5 442 1011.1 417.2 1011.1 410.2 1017.3 431.2C1017.9 433 1019.5 434 1021.1 434 1021.5 434 1021.9 434 1022.3 433.8 1024.3 433.2 1025.5 431 1024.9 428.8Z" fill="#000000" fill-rule="nonzero" fill-opacity="1"/></ns0:g></ns0:g></ns0:g></ns0:g></ns0:g></svg>
<svg x="56.494" y="22.53" width="5.000" height="5.052" viewBox="0 0 96 97" style="overflow:visible;filter:drop-shadow(1px 2px 3px rgba(0,0,0,0.22));"><ns0:g xmlns:ns0="http://www.w3.org/2000/svg" transform="translate(-1056 -368)"><ns0:g><ns0:g><ns0:g><ns0:g><ns0:path d="M1112 380C1112 384.418 1108.42 388 1104 388 1099.58 388 1096 384.418 1096 380 1096 375.582 1099.58 372 1104 372 1108.42 372 1112 375.582 1112 380Z" fill="#000000" fill-rule="nonzero" fill-opacity="1"/><ns0:path d="M1125.8 421.2 1120.2 397.4C1120 396.6 1119.6 395.8 1119 395.2 1116.6 393.2 1113.8 391.8 1110.6 390.8 1108.4 390.4 1106.2 390 1104 390 1101.8 390 1099.6 390.4 1097.4 391 1094.2 391.8 1091.4 393.4 1089 395.4 1088.4 396 1088 396.8 1087.8 397.6L1082.2 421.4C1082.2 421.6 1082 422 1082 422.4 1082 424.6 1083.8 426.4 1086 426.4 1087.8 426.4 1089.4 425 1089.8 423.4L1094 406 1094 462 1102 462 1102 426 1106 426 1106 462 1114 462 1114 405.8 1118.2 423.2C1118.6 424.8 1120.2 426.2 1122 426.2 1124.2 426.2 1126 424.4 1126 422.2 1126 421.8 1125.8 421.4 1125.8 421.2Z" fill="#000000" fill-rule="nonzero" fill-opacity="1"/></ns0:g></ns0:g></ns0:g></ns0:g></ns0:g></svg>
<svg x="62.182" y="23.123" width="5.000" height="4.949" viewBox="0 0 98 97" style="overflow:visible;filter:drop-shadow(1px 2px 3px rgba(0,0,0,0.22));"><ns0:g xmlns:ns0="http://www.w3.org/2000/svg" transform="translate(-954 -376)"><ns0:g><ns0:g><ns0:g><ns0:g><ns0:path d="M1011.1 388C1011.1 392.418 1007.52 396 1003.1 396 998.682 396 995.1 392.418 995.1 388 995.1 383.582 998.682 380 1003.1 380 1007.52 380 1011.1 383.582 1011.1 388Z" fill="#000000" fill-rule="nonzero" fill-opacity="1"/><ns0:path d="M1024.9 428.8 1017.7 404C1017.5 403 1016.9 402.2 1016.1 401.8 1013.7 400.2 1010.9 399.2 1007.7 398.4 1006.1 398.2 1004.7 398 1003.1 398 1001.5 398 1000.1 398.2 998.5 398.4 995.3 399 992.5 400.2 990.1 401.8 989.3 402.4 988.7 403 988.5 404L981.1 428.8C980.5 431 981.7 433.2 983.9 433.8 984.3 434 984.7 434 985.1 434 986.9 434 988.5 432.8 988.9 431.2L995.1 410.2 995.1 417.2 987.7 442 993.1 442 993.1 470 1001.1 470 1001.1 442 1005.1 442 1005.1 470 1013.1 470 1013.1 442 1018.5 442 1011.1 417.2 1011.1 410.2 1017.3 431.2C1017.9 433 1019.5 434 1021.1 434 1021.5 434 1021.9 434 1022.3 433.8 1024.3 433.2 1025.5 431 1024.9 428.8Z" fill="#000000" fill-rule="nonzero" fill-opacity="1"/></ns0:g></ns0:g></ns0:g></ns0:g></ns0:g></svg>
<svg x="68.25" y="23.169" width="5.000" height="5.052" viewBox="0 0 96 97" style="overflow:visible;filter:drop-shadow(1px 2px 3px rgba(0,0,0,0.22));"><ns0:g xmlns:ns0="http://www.w3.org/2000/svg" transform="translate(-1056 -368)"><ns0:g><ns0:g><ns0:g><ns0:g><ns0:path d="M1112 380C1112 384.418 1108.42 388 1104 388 1099.58 388 1096 384.418 1096 380 1096 375.582 1099.58 372 1104 372 1108.42 372 1112 375.582 1112 380Z" fill="#000000" fill-rule="nonzero" fill-opacity="1"/><ns0:path d="M1125.8 421.2 1120.2 397.4C1120 396.6 1119.6 395.8 1119 395.2 1116.6 393.2 1113.8 391.8 1110.6 390.8 1108.4 390.4 1106.2 390 1104 390 1101.8 390 1099.6 390.4 1097.4 391 1094.2 391.8 1091.4 393.4 1089 395.4 1088.4 396 1088 396.8 1087.8 397.6L1082.2 421.4C1082.2 421.6 1082 422 1082 422.4 1082 424.6 1083.8 426.4 1086 426.4 1087.8 426.4 1089.4 425 1089.8 423.4L1094 406 1094 462 1102 462 1102 426 1106 426 1106 462 1114 462 1114 405.8 1118.2 423.2C1118.6 424.8 1120.2 426.2 1122 426.2 1124.2 426.2 1126 424.4 1126 422.2 1126 421.8 1125.8 421.4 1125.8 421.2Z" fill="#000000" fill-rule="nonzero" fill-opacity="1"/></ns0:g></ns0:g></ns0:g></ns0:g></ns0:g></svg>
<svg x="75.351" y="22.799" width="5.000" height="4.949" viewBox="0 0 98 97" style="overflow:visible;filter:drop-shadow(1px 2px 3px rgba(0,0,0,0.22));"><ns0:g xmlns:ns0="http://www.w3.org/2000/svg" transform="translate(-954 -376)"><ns0:g><ns0:g><ns0:g><ns0:g><ns0:path d="M1011.1 388C1011.1 392.418 1007.52 396 1003.1 396 998.682 396 995.1 392.418 995.1 388 995.1 383.582 998.682 380 1003.1 380 1007.52 380 1011.1 383.582 1011.1 388Z" fill="#000000" fill-rule="nonzero" fill-opacity="1"/><ns0:path d="M1024.9 428.8 1017.7 404C1017.5 403 1016.9 402.2 1016.1 401.8 1013.7 400.2 1010.9 399.2 1007.7 398.4 1006.1 398.2 1004.7 398 1003.1 398 1001.5 398 1000.1 398.2 998.5 398.4 995.3 399 992.5 400.2 990.1 401.8 989.3 402.4 988.7 403 988.5 404L981.1 428.8C980.5 431 981.7 433.2 983.9 433.8 984.3 434 984.7 434 985.1 434 986.9 434 988.5 432.8 988.9 431.2L995.1 410.2 995.1 417.2 987.7 442 993.1 442 993.1 470 1001.1 470 1001.1 442 1005.1 442 1005.1 470 1013.1 470 1013.1 442 1018.5 442 1011.1 417.2 1011.1 410.2 1017.3 431.2C1017.9 433 1019.5 434 1021.1 434 1021.5 434 1021.9 434 1022.3 433.8 1024.3 433.2 1025.5 431 1024.9 428.8Z" fill="#000000" fill-rule="nonzero" fill-opacity="1"/></ns0:g></ns0:g></ns0:g></ns0:g></ns0:g></svg>
<svg x="80.261" y="23.995" width="5.000" height="4.949" viewBox="0 0 98 97" style="overflow:visible;filter:drop-shadow(1px 2px 3px rgba(0,0,0,0.22));"><ns0:g xmlns:ns0="http://www.w3.org/2000/svg" transform="translate(-954 -376)"><ns0:g><ns0:g><ns0:g><ns0:g><ns0:path d="M1011.1 388C1011.1 392.418 1007.52 396 1003.1 396 998.682 396 995.1 392.418 995.1 388 995.1 383.582 998.682 380 1003.1 380 1007.52 380 1011.1 383.582 1011.1 388Z" fill="#000000" fill-rule="nonzero" fill-opacity="1"/><ns0:path d="M1024.9 428.8 1017.7 404C1017.5 403 1016.9 402.2 1016.1 401.8 1013.7 400.2 1010.9 399.2 1007.7 398.4 1006.1 398.2 1004.7 398 1003.1 398 1001.5 398 1000.1 398.2 998.5 398.4 995.3 399 992.5 400.2 990.1 401.8 989.3 402.4 988.7 403 988.5 404L981.1 428.8C980.5 431 981.7 433.2 983.9 433.8 984.3 434 984.7 434 985.1 434 986.9 434 988.5 432.8 988.9 431.2L995.1 410.2 995.1 417.2 987.7 442 993.1 442 993.1 470 1001.1 470 1001.1 442 1005.1 442 1005.1 470 1013.1 470 1013.1 442 1018.5 442 1011.1 417.2 1011.1 410.2 1017.3 431.2C1017.9 433 1019.5 434 1021.1 434 1021.5 434 1021.9 434 1022.3 433.8 1024.3 433.2 1025.5 431 1024.9 428.8Z" fill="#000000" fill-rule="nonzero" fill-opacity="1"/></ns0:g></ns0:g></ns0:g></ns0:g></ns0:g></svg>
<svg x="14.287" y="30.039" width="5.000" height="5.052" viewBox="0 0 96 97" style="overflow:visible;filter:drop-shadow(1px 2px 3px rgba(0,0,0,0.22));"><ns0:g xmlns:ns0="http://www.w3.org/2000/svg" transform="translate(-1056 -368)"><ns0:g><ns0:g><ns0:g><ns0:g><ns0:path d="M1112 380C1112 384.418 1108.42 388 1104 388 1099.58 388 1096 384.418 1096 380 1096 375.582 1099.58 372 1104 372 1108.42 372 1112 375.582 1112 380Z" fill="#000000" fill-rule="nonzero" fill-opacity="1"/><ns0:path d="M1125.8 421.2 1120.2 397.4C1120 396.6 1119.6 395.8 1119 395.2 1116.6 393.2 1113.8 391.8 1110.6 390.8 1108.4 390.4 1106.2 390 1104 390 1101.8 390 1099.6 390.4 1097.4 391 1094.2 391.8 1091.4 393.4 1089 395.4 1088.4 396 1088 396.8 1087.8 397.6L1082.2 421.4C1082.2 421.6 1082 422 1082 422.4 1082 424.6 1083.8 426.4 1086 426.4 1087.8 426.4 1089.4 425 1089.8 423.4L1094 406 1094 462 1102 462 1102 426 1106 426 1106 462 1114 462 1114 405.8 1118.2 423.2C1118.6 424.8 1120.2 426.2 1122 426.2 1124.2 426.2 1126 424.4 1126 422.2 1126 421.8 1125.8 421.4 1125.8 421.2Z" fill="#000000" fill-rule="nonzero" fill-opacity="1"/></ns0:g></ns0:g></ns0:g></ns0:g></ns0:g></svg>
<svg x="19.558" y="30.076" width="5.000" height="4.949" viewBox="0 0 98 97" style="overflow:visible;filter:drop-shadow(1px 2px 3px rgba(0,0,0,0.22));"><ns0:g xmlns:ns0="http://www.w3.org/2000/svg" transform="translate(-954 -376)"><ns0:g><ns0:g><ns0:g><ns0:g><ns0:path d="M1011.1 388C1011.1 392.418 1007.52 396 1003.1 396 998.682 396 995.1 392.418 995.1 388 995.1 383.582 998.682 380 1003.1 380 1007.52 380 1011.1 383.582 1011.1 388Z" fill="#000000" fill-rule="nonzero" fill-opacity="1"/><ns0:path d="M1024.9 428.8 1017.7 404C1017.5 403 1016.9 402.2 1016.1 401.8 1013.7 400.2 1010.9 399.2 1007.7 398.4 1006.1 398.2 1004.7 398 1003.1 398 1001.5 398 1000.1 398.2 998.5 398.4 995.3 399 992.5 400.2 990.1 401.8 989.3 402.4 988.7 403 988.5 404L981.1 428.8C980.5 431 981.7 433.2 983.9 433.8 984.3 434 984.7 434 985.1 434 986.9 434 988.5 432.8 988.9 431.2L995.1 410.2 995.1 417.2 987.7 442 993.1 442 993.1 470 1001.1 470 1001.1 442 1005.1 442 1005.1 470 1013.1 470 1013.1 442 1018.5 442 1011.1 417.2 1011.1 410.2 1017.3 431.2C1017.9 433 1019.5 434 1021.1 434 1021.5 434 1021.9 434 1022.3 433.8 1024.3 433.2 1025.5 431 1024.9 428.8Z" fill="#000000" fill-rule="nonzero" fill-opacity="1"/></ns0:g></ns0:g></ns0:g></ns0:g></ns0:g></svg>
<svg x="26.567" y="31.441" width="5.000" height="5.052" viewBox="0 0 96 97" style="overflow:visible;filter:drop-shadow(1px 2px 3px rgba(0,0,0,0.22));"><ns0:g xmlns:ns0="http://www.w3.org/2000/svg" transform="translate(-1056 -368)"><ns0:g><ns0:g><ns0:g><ns0:g><ns0:path d="M1112 380C1112 384.418 1108.42 388 1104 388 1099.58 388 1096 384.418 1096 380 1096 375.582 1099.58 372 1104 372 1108.42 372 1112 375.582 1112 380Z" fill="#000000" fill-rule="nonzero" fill-opacity="1"/><ns0:path d="M1125.8 421.2 1120.2 397.4C1120 396.6 1119.6 395.8 1119 395.2 1116.6 393.2 1113.8 391.8 1110.6 390.8 1108.4 390.4 1106.2 390 1104 390 1101.8 390 1099.6 390.4 1097.4 391 1094.2 391.8 1091.4 393.4 1089 395.4 1088.4 396 1088 396.8 1087.8 397.6L1082.2 421.4C1082.2 421.6 1082 422 1082 422.4 1082 424.6 1083.8 426.4 1086 426.4 1087.8 426.4 1089.4 425 1089.8 423.4L1094 406 1094 462 1102 462 1102 426 1106 426 1106 462 1114 462 1114 405.8 1118.2 423.2C1118.6 424.8 1120.2 426.2 1122 426.2 1124.2 426.2 1126 424.4 1126 422.2 1126 421.8 1125.8 421.4 1125.8 421.2Z" fill="#000000" fill-rule="nonzero" fill-opacity="1"/></ns0:g></ns0:g></ns0:g></ns0:g></ns0:g></svg>
<svg x="32.266" y="29.984" width="5.000" height="5.052" viewBox="0 0 96 97" style="overflow:visible;filter:drop-shadow(1px 2px 3px rgba(0,0,0,0.22));"><ns0:g xmlns:ns0="http://www.w3.org/2000/svg" transform="translate(-1056 -368)"><ns0:g><ns0:g><ns0:g><ns0:g><ns0:path d="M1112 380C1112 384.418 1108.42 388 1104 388 1099.58 388 1096 384.418 1096 380 1096 375.582 1099.58 372 1104 372 1108.42 372 1112 375.582 1112 380Z" fill="#000000" fill-rule="nonzero" fill-opacity="1"/><ns0:path d="M1125.8 421.2 1120.2 397.4C1120 396.6 1119.6 395.8 1119 395.2 1116.6 393.2 1113.8 391.8 1110.6 390.8 1108.4 390.4 1106.2 390 1104 390 1101.8 390 1099.6 390.4 1097.4 391 1094.2 391.8 1091.4 393.4 1089 395.4 1088.4 396 1088 396.8 1087.8 397.6L1082.2 421.4C1082.2 421.6 1082 422 1082 422.4 1082 424.6 1083.8 426.4 1086 426.4 1087.8 426.4 1089.4 425 1089.8 423.4L1094 406 1094 462 1102 462 1102 426 1106 426 1106 462 1114 462 1114 405.8 1118.2 423.2C1118.6 424.8 1120.2 426.2 1122 426.2 1124.2 426.2 1126 424.4 1126 422.2 1126 421.8 1125.8 421.4 1125.8 421.2Z" fill="#000000" fill-rule="nonzero" fill-opacity="1"/></ns0:g></ns0:g></ns0:g></ns0:g></ns0:g></svg>
<svg x="38.24" y="31.849" width="5.000" height="4.949" viewBox="0 0 98 97" style="overflow:visible;filter:drop-shadow(1px 2px 3px rgba(0,0,0,0.22));"><ns0:g xmlns:ns0="http://www.w3.org/2000/svg" transform="translate(-954 -376)"><ns0:g><ns0:g><ns0:g><ns0:g><ns0:path d="M1011.1 388C1011.1 392.418 1007.52 396 1003.1 396 998.682 396 995.1 392.418 995.1 388 995.1 383.582 998.682 380 1003.1 380 1007.52 380 1011.1 383.582 1011.1 388Z" fill="#000000" fill-rule="nonzero" fill-opacity="1"/><ns0:path d="M1024.9 428.8 1017.7 404C1017.5 403 1016.9 402.2 1016.1 401.8 1013.7 400.2 1010.9 399.2 1007.7 398.4 1006.1 398.2 1004.7 398 1003.1 398 1001.5 398 1000.1 398.2 998.5 398.4 995.3 399 992.5 400.2 990.1 401.8 989.3 402.4 988.7 403 988.5 404L981.1 428.8C980.5 431 981.7 433.2 983.9 433.8 984.3 434 984.7 434 985.1 434 986.9 434 988.5 432.8 988.9 431.2L995.1 410.2 995.1 417.2 987.7 442 993.1 442 993.1 470 1001.1 470 1001.1 442 1005.1 442 1005.1 470 1013.1 470 1013.1 442 1018.5 442 1011.1 417.2 1011.1 410.2 1017.3 431.2C1017.9 433 1019.5 434 1021.1 434 1021.5 434 1021.9 434 1022.3 433.8 1024.3 433.2 1025.5 431 1024.9 428.8Z" fill="#000000" fill-rule="nonzero" fill-opacity="1"/></ns0:g></ns0:g></ns0:g></ns0:g></ns0:g></svg>
<svg x="44.528" y="31.799" width="5.000" height="4.949" viewBox="0 0 98 97" style="overflow:visible;filter:drop-shadow(1px 2px 3px rgba(0,0,0,0.22));"><ns0:g xmlns:ns0="http://www.w3.org/2000/svg" transform="translate(-954 -376)"><ns0:g><ns0:g><ns0:g><ns0:g><ns0:path d="M1011.1 388C1011.1 392.418 1007.52 396 1003.1 396 998.682 396 995.1 392.418 995.1 388 995.1 383.582 998.682 380 1003.1 380 1007.52 380 1011.1 383.582 1011.1 388Z" fill="#000000" fill-rule="nonzero" fill-opacity="1"/><ns0:path d="M1024.9 428.8 1017.7 404C1017.5 403 1016.9 402.2 1016.1 401.8 1013.7 400.2 1010.9 399.2 1007.7 398.4 1006.1 398.2 1004.7 398 1003.1 398 1001.5 398 1000.1 398.2 998.5 398.4 995.3 399 992.5 400.2 990.1 401.8 989.3 402.4 988.7 403 988.5 404L981.1 428.8C980.5 431 981.7 433.2 983.9 433.8 984.3 434 984.7 434 985.1 434 986.9 434 988.5 432.8 988.9 431.2L995.1 410.2 995.1 417.2 987.7 442 993.1 442 993.1 470 1001.1 470 1001.1 442 1005.1 442 1005.1 470 1013.1 470 1013.1 442 1018.5 442 1011.1 417.2 1011.1 410.2 1017.3 431.2C1017.9 433 1019.5 434 1021.1 434 1021.5 434 1021.9 434 1022.3 433.8 1024.3 433.2 1025.5 431 1024.9 428.8Z" fill="#000000" fill-rule="nonzero" fill-opacity="1"/></ns0:g></ns0:g></ns0:g></ns0:g></ns0:g></svg>
<svg x="51.122" y="29.88" width="5.000" height="5.052" viewBox="0 0 96 97" style="overflow:visible;filter:drop-shadow(1px 2px 3px rgba(0,0,0,0.22));"><ns0:g xmlns:ns0="http://www.w3.org/2000/svg" transform="translate(-1056 -368)"><ns0:g><ns0:g><ns0:g><ns0:g><ns0:path d="M1112 380C1112 384.418 1108.42 388 1104 388 1099.58 388 1096 384.418 1096 380 1096 375.582 1099.58 372 1104 372 1108.42 372 1112 375.582 1112 380Z" fill="#000000" fill-rule="nonzero" fill-opacity="1"/><ns0:path d="M1125.8 421.2 1120.2 397.4C1120 396.6 1119.6 395.8 1119 395.2 1116.6 393.2 1113.8 391.8 1110.6 390.8 1108.4 390.4 1106.2 390 1104 390 1101.8 390 1099.6 390.4 1097.4 391 1094.2 391.8 1091.4 393.4 1089 395.4 1088.4 396 1088 396.8 1087.8 397.6L1082.2 421.4C1082.2 421.6 1082 422 1082 422.4 1082 424.6 1083.8 426.4 1086 426.4 1087.8 426.4 1089.4 425 1089.8 423.4L1094 406 1094 462 1102 462 1102 426 1106 426 1106 462 1114 462 1114 405.8 1118.2 423.2C1118.6 424.8 1120.2 426.2 1122 426.2 1124.2 426.2 1126 424.4 1126 422.2 1126 421.8 1125.8 421.4 1125.8 421.2Z" fill="#000000" fill-rule="nonzero" fill-opacity="1"/></ns0:g></ns0:g></ns0:g></ns0:g></ns0:g></svg>
<svg x="56.93" y="31.221" width="5.000" height="5.052" viewBox="0 0 96 97" style="overflow:visible;filter:drop-shadow(1px 2px 3px rgba(0,0,0,0.22));"><ns0:g xmlns:ns0="http://www.w3.org/2000/svg" transform="translate(-1056 -368)"><ns0:g><ns0:g><ns0:g><ns0:g><ns0:path d="M1112 380C1112 384.418 1108.42 388 1104 388 1099.58 388 1096 384.418 1096 380 1096 375.582 1099.58 372 1104 372 1108.42 372 1112 375.582 1112 380Z" fill="#000000" fill-rule="nonzero" fill-opacity="1"/><ns0:path d="M1125.8 421.2 1120.2 397.4C1120 396.6 1119.6 395.8 1119 395.2 1116.6 393.2 1113.8 391.8 1110.6 390.8 1108.4 390.4 1106.2 390 1104 390 1101.8 390 1099.6 390.4 1097.4 391 1094.2 391.8 1091.4 393.4 1089 395.4 1088.4 396 1088 396.8 1087.8 397.6L1082.2 421.4C1082.2 421.6 1082 422 1082 422.4 1082 424.6 1083.8 426.4 1086 426.4 1087.8 426.4 1089.4 425 1089.8 423.4L1094 406 1094 462 1102 462 1102 426 1106 426 1106 462 1114 462 1114 405.8 1118.2 423.2C1118.6 424.8 1120.2 426.2 1122 426.2 1124.2 426.2 1126 424.4 1126 422.2 1126 421.8 1125.8 421.4 1125.8 421.2Z" fill="#000000" fill-rule="nonzero" fill-opacity="1"/></ns0:g></ns0:g></ns0:g></ns0:g></ns0:g></svg>
<svg x="62.666" y="30.391" width="5.000" height="4.949" viewBox="0 0 98 97" style="overflow:visible;filter:drop-shadow(1px 2px 3px rgba(0,0,0,0.22));"><ns0:g xmlns:ns0="http://www.w3.org/2000/svg" transform="translate(-954 -376)"><ns0:g><ns0:g><ns0:g><ns0:g><ns0:path d="M1011.1 388C1011.1 392.418 1007.52 396 1003.1 396 998.682 396 995.1 392.418 995.1 388 995.1 383.582 998.682 380 1003.1 380 1007.52 380 1011.1 383.582 1011.1 388Z" fill="#000000" fill-rule="nonzero" fill-opacity="1"/><ns0:path d="M1024.9 428.8 1017.7 404C1017.5 403 1016.9 402.2 1016.1 401.8 1013.7 400.2 1010.9 399.2 1007.7 398.4 1006.1 398.2 1004.7 398 1003.1 398 1001.5 398 1000.1 398.2 998.5 398.4 995.3 399 992.5 400.2 990.1 401.8 989.3 402.4 988.7 403 988.5 404L981.1 428.8C980.5 431 981.7 433.2 983.9 433.8 984.3 434 984.7 434 985.1 434 986.9 434 988.5 432.8 988.9 431.2L995.1 410.2 995.1 417.2 987.7 442 993.1 442 993.1 470 1001.1 470 1001.1 442 1005.1 442 1005.1 470 1013.1 470 1013.1 442 1018.5 442 1011.1 417.2 1011.1 410.2 1017.3 431.2C1017.9 433 1019.5 434 1021.1 434 1021.5 434 1021.9 434 1022.3 433.8 1024.3 433.2 1025.5 431 1024.9 428.8Z" fill="#000000" fill-rule="nonzero" fill-opacity="1"/></ns0:g></ns0:g></ns0:g></ns0:g></ns0:g></svg>
<svg x="68.881" y="30.08" width="5.000" height="5.052" viewBox="0 0 96 97" style="overflow:visible;filter:drop-shadow(1px 2px 3px rgba(0,0,0,0.22));"><ns0:g xmlns:ns0="http://www.w3.org/2000/svg" transform="translate(-1056 -368)"><ns0:g><ns0:g><ns0:g><ns0:g><ns0:path d="M1112 380C1112 384.418 1108.42 388 1104 388 1099.58 388 1096 384.418 1096 380 1096 375.582 1099.58 372 1104 372 1108.42 372 1112 375.582 1112 380Z" fill="#000000" fill-rule="nonzero" fill-opacity="1"/><ns0:path d="M1125.8 421.2 1120.2 397.4C1120 396.6 1119.6 395.8 1119 395.2 1116.6 393.2 1113.8 391.8 1110.6 390.8 1108.4 390.4 1106.2 390 1104 390 1101.8 390 1099.6 390.4 1097.4 391 1094.2 391.8 1091.4 393.4 1089 395.4 1088.4 396 1088 396.8 1087.8 397.6L1082.2 421.4C1082.2 421.6 1082 422 1082 422.4 1082 424.6 1083.8 426.4 1086 426.4 1087.8 426.4 1089.4 425 1089.8 423.4L1094 406 1094 462 1102 462 1102 426 1106 426 1106 462 1114 462 1114 405.8 1118.2 423.2C1118.6 424.8 1120.2 426.2 1122 426.2 1124.2 426.2 1126 424.4 1126 422.2 1126 421.8 1125.8 421.4 1125.8 421.2Z" fill="#000000" fill-rule="nonzero" fill-opacity="1"/></ns0:g></ns0:g></ns0:g></ns0:g></ns0:g></svg>
<svg x="74.579" y="30.765" width="5.000" height="4.949" viewBox="0 0 98 97" style="overflow:visible;filter:drop-shadow(1px 2px 3px rgba(0,0,0,0.22));"><ns0:g xmlns:ns0="http://www.w3.org/2000/svg" transform="translate(-954 -376)"><ns0:g><ns0:g><ns0:g><ns0:g><ns0:path d="M1011.1 388C1011.1 392.418 1007.52 396 1003.1 396 998.682 396 995.1 392.418 995.1 388 995.1 383.582 998.682 380 1003.1 380 1007.52 380 1011.1 383.582 1011.1 388Z" fill="#000000" fill-rule="nonzero" fill-opacity="1"/><ns0:path d="M1024.9 428.8 1017.7 404C1017.5 403 1016.9 402.2 1016.1 401.8 1013.7 400.2 1010.9 399.2 1007.7 398.4 1006.1 398.2 1004.7 398 1003.1 398 1001.5 398 1000.1 398.2 998.5 398.4 995.3 399 992.5 400.2 990.1 401.8 989.3 402.4 988.7 403 988.5 404L981.1 428.8C980.5 431 981.7 433.2 983.9 433.8 984.3 434 984.7 434 985.1 434 986.9 434 988.5 432.8 988.9 431.2L995.1 410.2 995.1 417.2 987.7 442 993.1 442 993.1 470 1001.1 470 1001.1 442 1005.1 442 1005.1 470 1013.1 470 1013.1 442 1018.5 442 1011.1 417.2 1011.1 410.2 1017.3 431.2C1017.9 433 1019.5 434 1021.1 434 1021.5 434 1021.9 434 1022.3 433.8 1024.3 433.2 1025.5 431 1024.9 428.8Z" fill="#000000" fill-rule="nonzero" fill-opacity="1"/></ns0:g></ns0:g></ns0:g></ns0:g></ns0:g></svg>
<svg x="81.486" y="31.609" width="5.000" height="4.949" viewBox="0 0 98 97" style="overflow:visible;filter:drop-shadow(1px 2px 3px rgba(0,0,0,0.22));"><ns0:g xmlns:ns0="http://www.w3.org/2000/svg" transform="translate(-954 -376)"><ns0:g><ns0:g><ns0:g><ns0:g><ns0:path d="M1011.1 388C1011.1 392.418 1007.52 396 1003.1 396 998.682 396 995.1 392.418 995.1 388 995.1 383.582 998.682 380 1003.1 380 1007.52 380 1011.1 383.582 1011.1 388Z" fill="#000000" fill-rule="nonzero" fill-opacity="1"/><ns0:path d="M1024.9 428.8 1017.7 404C1017.5 403 1016.9 402.2 1016.1 401.8 1013.7 400.2 1010.9 399.2 1007.7 398.4 1006.1 398.2 1004.7 398 1003.1 398 1001.5 398 1000.1 398.2 998.5 398.4 995.3 399 992.5 400.2 990.1 401.8 989.3 402.4 988.7 403 988.5 404L981.1 428.8C980.5 431 981.7 433.2 983.9 433.8 984.3 434 984.7 434 985.1 434 986.9 434 988.5 432.8 988.9 431.2L995.1 410.2 995.1 417.2 987.7 442 993.1 442 993.1 470 1001.1 470 1001.1 442 1005.1 442 1005.1 470 1013.1 470 1013.1 442 1018.5 442 1011.1 417.2 1011.1 410.2 1017.3 431.2C1017.9 433 1019.5 434 1021.1 434 1021.5 434 1021.9 434 1022.3 433.8 1024.3 433.2 1025.5 431 1024.9 428.8Z" fill="#000000" fill-rule="nonzero" fill-opacity="1"/></ns0:g></ns0:g></ns0:g></ns0:g></ns0:g></svg>
<svg x="13.876" y="38.715" width="5.000" height="4.949" viewBox="0 0 98 97" style="overflow:visible;filter:drop-shadow(1px 2px 3px rgba(0,0,0,0.22));"><ns0:g xmlns:ns0="http://www.w3.org/2000/svg" transform="translate(-954 -376)"><ns0:g><ns0:g><ns0:g><ns0:g><ns0:path d="M1011.1 388C1011.1 392.418 1007.52 396 1003.1 396 998.682 396 995.1 392.418 995.1 388 995.1 383.582 998.682 380 1003.1 380 1007.52 380 1011.1 383.582 1011.1 388Z" fill="#000000" fill-rule="nonzero" fill-opacity="1"/><ns0:path d="M1024.9 428.8 1017.7 404C1017.5 403 1016.9 402.2 1016.1 401.8 1013.7 400.2 1010.9 399.2 1007.7 398.4 1006.1 398.2 1004.7 398 1003.1 398 1001.5 398 1000.1 398.2 998.5 398.4 995.3 399 992.5 400.2 990.1 401.8 989.3 402.4 988.7 403 988.5 404L981.1 428.8C980.5 431 981.7 433.2 983.9 433.8 984.3 434 984.7 434 985.1 434 986.9 434 988.5 432.8 988.9 431.2L995.1 410.2 995.1 417.2 987.7 442 993.1 442 993.1 470 1001.1 470 1001.1 442 1005.1 442 1005.1 470 1013.1 470 1013.1 442 1018.5 442 1011.1 417.2 1011.1 410.2 1017.3 431.2C1017.9 433 1019.5 434 1021.1 434 1021.5 434 1021.9 434 1022.3 433.8 1024.3 433.2 1025.5 431 1024.9 428.8Z" fill="#000000" fill-rule="nonzero" fill-opacity="1"/></ns0:g></ns0:g></ns0:g></ns0:g></ns0:g></svg>
<svg x="19.777" y="39.54" width="5.000" height="4.949" viewBox="0 0 98 97" style="overflow:visible;filter:drop-shadow(1px 2px 3px rgba(0,0,0,0.22));"><ns0:g xmlns:ns0="http://www.w3.org/2000/svg" transform="translate(-954 -376)"><ns0:g><ns0:g><ns0:g><ns0:g><ns0:path d="M1011.1 388C1011.1 392.418 1007.52 396 1003.1 396 998.682 396 995.1 392.418 995.1 388 995.1 383.582 998.682 380 1003.1 380 1007.52 380 1011.1 383.582 1011.1 388Z" fill="#000000" fill-rule="nonzero" fill-opacity="1"/><ns0:path d="M1024.9 428.8 1017.7 404C1017.5 403 1016.9 402.2 1016.1 401.8 1013.7 400.2 1010.9 399.2 1007.7 398.4 1006.1 398.2 1004.7 398 1003.1 398 1001.5 398 1000.1 398.2 998.5 398.4 995.3 399 992.5 400.2 990.1 401.8 989.3 402.4 988.7 403 988.5 404L981.1 428.8C980.5 431 981.7 433.2 983.9 433.8 984.3 434 984.7 434 985.1 434 986.9 434 988.5 432.8 988.9 431.2L995.1 410.2 995.1 417.2 987.7 442 993.1 442 993.1 470 1001.1 470 1001.1 442 1005.1 442 1005.1 470 1013.1 470 1013.1 442 1018.5 442 1011.1 417.2 1011.1 410.2 1017.3 431.2C1017.9 433 1019.5 434 1021.1 434 1021.5 434 1021.9 434 1022.3 433.8 1024.3 433.2 1025.5 431 1024.9 428.8Z" fill="#000000" fill-rule="nonzero" fill-opacity="1"/></ns0:g></ns0:g></ns0:g></ns0:g></ns0:g></svg>
<svg x="26.972" y="38.311" width="5.000" height="5.052" viewBox="0 0 96 97" style="overflow:visible;filter:drop-shadow(1px 2px 3px rgba(0,0,0,0.22));"><ns0:g xmlns:ns0="http://www.w3.org/2000/svg" transform="translate(-1056 -368)"><ns0:g><ns0:g><ns0:g><ns0:g><ns0:path d="M1112 380C1112 384.418 1108.42 388 1104 388 1099.58 388 1096 384.418 1096 380 1096 375.582 1099.58 372 1104 372 1108.42 372 1112 375.582 1112 380Z" fill="#000000" fill-rule="nonzero" fill-opacity="1"/><ns0:path d="M1125.8 421.2 1120.2 397.4C1120 396.6 1119.6 395.8 1119 395.2 1116.6 393.2 1113.8 391.8 1110.6 390.8 1108.4 390.4 1106.2 390 1104 390 1101.8 390 1099.6 390.4 1097.4 391 1094.2 391.8 1091.4 393.4 1089 395.4 1088.4 396 1088 396.8 1087.8 397.6L1082.2 421.4C1082.2 421.6 1082 422 1082 422.4 1082 424.6 1083.8 426.4 1086 426.4 1087.8 426.4 1089.4 425 1089.8 423.4L1094 406 1094 462 1102 462 1102 426 1106 426 1106 462 1114 462 1114 405.8 1118.2 423.2C1118.6 424.8 1120.2 426.2 1122 426.2 1124.2 426.2 1126 424.4 1126 422.2 1126 421.8 1125.8 421.4 1125.8 421.2Z" fill="#000000" fill-rule="nonzero" fill-opacity="1"/></ns0:g></ns0:g></ns0:g></ns0:g></ns0:g></svg>
<svg x="32.627" y="38.932" width="5.000" height="5.052" viewBox="0 0 96 97" style="overflow:visible;filter:drop-shadow(1px 2px 3px rgba(0,0,0,0.22));"><ns0:g xmlns:ns0="http://www.w3.org/2000/svg" transform="translate(-1056 -368)"><ns0:g><ns0:g><ns0:g><ns0:g><ns0:path d="M1112 380C1112 384.418 1108.42 388 1104 388 1099.58 388 1096 384.418 1096 380 1096 375.582 1099.58 372 1104 372 1108.42 372 1112 375.582 1112 380Z" fill="#000000" fill-rule="nonzero" fill-opacity="1"/><ns0:path d="M1125.8 421.2 1120.2 397.4C1120 396.6 1119.6 395.8 1119 395.2 1116.6 393.2 1113.8 391.8 1110.6 390.8 1108.4 390.4 1106.2 390 1104 390 1101.8 390 1099.6 390.4 1097.4 391 1094.2 391.8 1091.4 393.4 1089 395.4 1088.4 396 1088 396.8 1087.8 397.6L1082.2 421.4C1082.2 421.6 1082 422 1082 422.4 1082 424.6 1083.8 426.4 1086 426.4 1087.8 426.4 1089.4 425 1089.8 423.4L1094 406 1094 462 1102 462 1102 426 1106 426 1106 462 1114 462 1114 405.8 1118.2 423.2C1118.6 424.8 1120.2 426.2 1122 426.2 1124.2 426.2 1126 424.4 1126 422.2 1126 421.8 1125.8 421.4 1125.8 421.2Z" fill="#000000" fill-rule="nonzero" fill-opacity="1"/></ns0:g></ns0:g></ns0:g></ns0:g></ns0:g></svg>
<svg x="37.859" y="39.239" width="5.000" height="5.052" viewBox="0 0 96 97" style="overflow:visible;filter:drop-shadow(1px 2px 3px rgba(0,0,0,0.22));"><ns0:g xmlns:ns0="http://www.w3.org/2000/svg" transform="translate(-1056 -368)"><ns0:g><ns0:g><ns0:g><ns0:g><ns0:path d="M1112 380C1112 384.418 1108.42 388 1104 388 1099.58 388 1096 384.418 1096 380 1096 375.582 1099.58 372 1104 372 1108.42 372 1112 375.582 1112 380Z" fill="#000000" fill-rule="nonzero" fill-opacity="1"/><ns0:path d="M1125.8 421.2 1120.2 397.4C1120 396.6 1119.6 395.8 1119 395.2 1116.6 393.2 1113.8 391.8 1110.6 390.8 1108.4 390.4 1106.2 390 1104 390 1101.8 390 1099.6 390.4 1097.4 391 1094.2 391.8 1091.4 393.4 1089 395.4 1088.4 396 1088 396.8 1087.8 397.6L1082.2 421.4C1082.2 421.6 1082 422 1082 422.4 1082 424.6 1083.8 426.4 1086 426.4 1087.8 426.4 1089.4 425 1089.8 423.4L1094 406 1094 462 1102 462 1102 426 1106 426 1106 462 1114 462 1114 405.8 1118.2 423.2C1118.6 424.8 1120.2 426.2 1122 426.2 1124.2 426.2 1126 424.4 1126 422.2 1126 421.8 1125.8 421.4 1125.8 421.2Z" fill="#000000" fill-rule="nonzero" fill-opacity="1"/></ns0:g></ns0:g></ns0:g></ns0:g></ns0:g></svg>
<svg x="44.545" y="39.272" width="5.000" height="4.949" viewBox="0 0 98 97" style="overflow:visible;filter:drop-shadow(1px 2px 3px rgba(0,0,0,0.22));"><ns0:g xmlns:ns0="http://www.w3.org/2000/svg" transform="translate(-954 -376)"><ns0:g><ns0:g><ns0:g><ns0:g><ns0:path d="M1011.1 388C1011.1 392.418 1007.52 396 1003.1 396 998.682 396 995.1 392.418 995.1 388 995.1 383.582 998.682 380 1003.1 380 1007.52 380 1011.1 383.582 1011.1 388Z" fill="#000000" fill-rule="nonzero" fill-opacity="1"/><ns0:path d="M1024.9 428.8 1017.7 404C1017.5 403 1016.9 402.2 1016.1 401.8 1013.7 400.2 1010.9 399.2 1007.7 398.4 1006.1 398.2 1004.7 398 1003.1 398 1001.5 398 1000.1 398.2 998.5 398.4 995.3 399 992.5 400.2 990.1 401.8 989.3 402.4 988.7 403 988.5 404L981.1 428.8C980.5 431 981.7 433.2 983.9 433.8 984.3 434 984.7 434 985.1 434 986.9 434 988.5 432.8 988.9 431.2L995.1 410.2 995.1 417.2 987.7 442 993.1 442 993.1 470 1001.1 470 1001.1 442 1005.1 442 1005.1 470 1013.1 470 1013.1 442 1018.5 442 1011.1 417.2 1011.1 410.2 1017.3 431.2C1017.9 433 1019.5 434 1021.1 434 1021.5 434 1021.9 434 1022.3 433.8 1024.3 433.2 1025.5 431 1024.9 428.8Z" fill="#000000" fill-rule="nonzero" fill-opacity="1"/></ns0:g></ns0:g></ns0:g></ns0:g></ns0:g></svg>
<svg x="50.571" y="37.715" width="5.000" height="5.052" viewBox="0 0 96 97" style="overflow:visible;filter:drop-shadow(1px 2px 3px rgba(0,0,0,0.22));"><ns0:g xmlns:ns0="http://www.w3.org/2000/svg" transform="translate(-1056 -368)"><ns0:g><ns0:g><ns0:g><ns0:g><ns0:path d="M1112 380C1112 384.418 1108.42 388 1104 388 1099.58 388 1096 384.418 1096 380 1096 375.582 1099.58 372 1104 372 1108.42 372 1112 375.582 1112 380Z" fill="#000000" fill-rule="nonzero" fill-opacity="1"/><ns0:path d="M1125.8 421.2 1120.2 397.4C1120 396.6 1119.6 395.8 1119 395.2 1116.6 393.2 1113.8 391.8 1110.6 390.8 1108.4 390.4 1106.2 390 1104 390 1101.8 390 1099.6 390.4 1097.4 391 1094.2 391.8 1091.4 393.4 1089 395.4 1088.4 396 1088 396.8 1087.8 397.6L1082.2 421.4C1082.2 421.6 1082 422 1082 422.4 1082 424.6 1083.8 426.4 1086 426.4 1087.8 426.4 1089.4 425 1089.8 423.4L1094 406 1094 462 1102 462 1102 426 1106 426 1106 462 1114 462 1114 405.8 1118.2 423.2C1118.6 424.8 1120.2 426.2 1122 426.2 1124.2 426.2 1126 424.4 1126 422.2 1126 421.8 1125.8 421.4 1125.8 421.2Z" fill="#000000" fill-rule="nonzero" fill-opacity="1"/></ns0:g></ns0:g></ns0:g></ns0:g></ns0:g></svg>
<svg x="56.269" y="37.753" width="5.000" height="5.052" viewBox="0 0 96 97" style="overflow:visible;filter:drop-shadow(1px 2px 3px rgba(0,0,0,0.22));"><ns0:g xmlns:ns0="http://www.w3.org/2000/svg" transform="translate(-1056 -368)"><ns0:g><ns0:g><ns0:g><ns0:g><ns0:path d="M1112 380C1112 384.418 1108.42 388 1104 388 1099.58 388 1096 384.418 1096 380 1096 375.582 1099.58 372 1104 372 1108.42 372 1112 375.582 1112 380Z" fill="#000000" fill-rule="nonzero" fill-opacity="1"/><ns0:path d="M1125.8 421.2 1120.2 397.4C1120 396.6 1119.6 395.8 1119 395.2 1116.6 393.2 1113.8 391.8 1110.6 390.8 1108.4 390.4 1106.2 390 1104 390 1101.8 390 1099.6 390.4 1097.4 391 1094.2 391.8 1091.4 393.4 1089 395.4 1088.4 396 1088 396.8 1087.8 397.6L1082.2 421.4C1082.2 421.6 1082 422 1082 422.4 1082 424.6 1083.8 426.4 1086 426.4 1087.8 426.4 1089.4 425 1089.8 423.4L1094 406 1094 462 1102 462 1102 426 1106 426 1106 462 1114 462 1114 405.8 1118.2 423.2C1118.6 424.8 1120.2 426.2 1122 426.2 1124.2 426.2 1126 424.4 1126 422.2 1126 421.8 1125.8 421.4 1125.8 421.2Z" fill="#000000" fill-rule="nonzero" fill-opacity="1"/></ns0:g></ns0:g></ns0:g></ns0:g></ns0:g></svg>
<svg x="63.319" y="39.472" width="5.000" height="5.052" viewBox="0 0 96 97" style="overflow:visible;filter:drop-shadow(1px 2px 3px rgba(0,0,0,0.22));"><ns0:g xmlns:ns0="http://www.w3.org/2000/svg" transform="translate(-1056 -368)"><ns0:g><ns0:g><ns0:g><ns0:g><ns0:path d="M1112 380C1112 384.418 1108.42 388 1104 388 1099.58 388 1096 384.418 1096 380 1096 375.582 1099.58 372 1104 372 1108.42 372 1112 375.582 1112 380Z" fill="#000000" fill-rule="nonzero" fill-opacity="1"/><ns0:path d="M1125.8 421.2 1120.2 397.4C1120 396.6 1119.6 395.8 1119 395.2 1116.6 393.2 1113.8 391.8 1110.6 390.8 1108.4 390.4 1106.2 390 1104 390 1101.8 390 1099.6 390.4 1097.4 391 1094.2 391.8 1091.4 393.4 1089 395.4 1088.4 396 1088 396.8 1087.8 397.6L1082.2 421.4C1082.2 421.6 1082 422 1082 422.4 1082 424.6 1083.8 426.4 1086 426.4 1087.8 426.4 1089.4 425 1089.8 423.4L1094 406 1094 462 1102 462 1102 426 1106 426 1106 462 1114 462 1114 405.8 1118.2 423.2C1118.6 424.8 1120.2 426.2 1122 426.2 1124.2 426.2 1126 424.4 1126 422.2 1126 421.8 1125.8 421.4 1125.8 421.2Z" fill="#000000" fill-rule="nonzero" fill-opacity="1"/></ns0:g></ns0:g></ns0:g></ns0:g></ns0:g></svg>
<svg x="69.199" y="38.329" width="5.000" height="4.949" viewBox="0 0 98 97" style="overflow:visible;filter:drop-shadow(1px 2px 3px rgba(0,0,0,0.22));"><ns0:g xmlns:ns0="http://www.w3.org/2000/svg" transform="translate(-954 -376)"><ns0:g><ns0:g><ns0:g><ns0:g><ns0:path d="M1011.1 388C1011.1 392.418 1007.52 396 1003.1 396 998.682 396 995.1 392.418 995.1 388 995.1 383.582 998.682 380 1003.1 380 1007.52 380 1011.1 383.582 1011.1 388Z" fill="#000000" fill-rule="nonzero" fill-opacity="1"/><ns0:path d="M1024.9 428.8 1017.7 404C1017.5 403 1016.9 402.2 1016.1 401.8 1013.7 400.2 1010.9 399.2 1007.7 398.4 1006.1 398.2 1004.7 398 1003.1 398 1001.5 398 1000.1 398.2 998.5 398.4 995.3 399 992.5 400.2 990.1 401.8 989.3 402.4 988.7 403 988.5 404L981.1 428.8C980.5 431 981.7 433.2 983.9 433.8 984.3 434 984.7 434 985.1 434 986.9 434 988.5 432.8 988.9 431.2L995.1 410.2 995.1 417.2 987.7 442 993.1 442 993.1 470 1001.1 470 1001.1 442 1005.1 442 1005.1 470 1013.1 470 1013.1 442 1018.5 442 1011.1 417.2 1011.1 410.2 1017.3 431.2C1017.9 433 1019.5 434 1021.1 434 1021.5 434 1021.9 434 1022.3 433.8 1024.3 433.2 1025.5 431 1024.9 428.8Z" fill="#000000" fill-rule="nonzero" fill-opacity="1"/></ns0:g></ns0:g></ns0:g></ns0:g></ns0:g></svg>
<svg x="73.951" y="39.47" width="5.000" height="4.949" viewBox="0 0 98 97" style="overflow:visible;filter:drop-shadow(1px 2px 3px rgba(0,0,0,0.22));"><ns0:g xmlns:ns0="http://www.w3.org/2000/svg" transform="translate(-954 -376)"><ns0:g><ns0:g><ns0:g><ns0:g><ns0:path d="M1011.1 388C1011.1 392.418 1007.52 396 1003.1 396 998.682 396 995.1 392.418 995.1 388 995.1 383.582 998.682 380 1003.1 380 1007.52 380 1011.1 383.582 1011.1 388Z" fill="#000000" fill-rule="nonzero" fill-opacity="1"/><ns0:path d="M1024.9 428.8 1017.7 404C1017.5 403 1016.9 402.2 1016.1 401.8 1013.7 400.2 1010.9 399.2 1007.7 398.4 1006.1 398.2 1004.7 398 1003.1 398 1001.5 398 1000.1 398.2 998.5 398.4 995.3 399 992.5 400.2 990.1 401.8 989.3 402.4 988.7 403 988.5 404L981.1 428.8C980.5 431 981.7 433.2 983.9 433.8 984.3 434 984.7 434 985.1 434 986.9 434 988.5 432.8 988.9 431.2L995.1 410.2 995.1 417.2 987.7 442 993.1 442 993.1 470 1001.1 470 1001.1 442 1005.1 442 1005.1 470 1013.1 470 1013.1 442 1018.5 442 1011.1 417.2 1011.1 410.2 1017.3 431.2C1017.9 433 1019.5 434 1021.1 434 1021.5 434 1021.9 434 1022.3 433.8 1024.3 433.2 1025.5 431 1024.9 428.8Z" fill="#000000" fill-rule="nonzero" fill-opacity="1"/></ns0:g></ns0:g></ns0:g></ns0:g></ns0:g></svg>
<svg x="81.474" y="37.886" width="5.000" height="5.052" viewBox="0 0 96 97" style="overflow:visible;filter:drop-shadow(1px 2px 3px rgba(0,0,0,0.22));"><ns0:g xmlns:ns0="http://www.w3.org/2000/svg" transform="translate(-1056 -368)"><ns0:g><ns0:g><ns0:g><ns0:g><ns0:path d="M1112 380C1112 384.418 1108.42 388 1104 388 1099.58 388 1096 384.418 1096 380 1096 375.582 1099.58 372 1104 372 1108.42 372 1112 375.582 1112 380Z" fill="#000000" fill-rule="nonzero" fill-opacity="1"/><ns0:path d="M1125.8 421.2 1120.2 397.4C1120 396.6 1119.6 395.8 1119 395.2 1116.6 393.2 1113.8 391.8 1110.6 390.8 1108.4 390.4 1106.2 390 1104 390 1101.8 390 1099.6 390.4 1097.4 391 1094.2 391.8 1091.4 393.4 1089 395.4 1088.4 396 1088 396.8 1087.8 397.6L1082.2 421.4C1082.2 421.6 1082 422 1082 422.4 1082 424.6 1083.8 426.4 1086 426.4 1087.8 426.4 1089.4 425 1089.8 423.4L1094 406 1094 462 1102 462 1102 426 1106 426 1106 462 1114 462 1114 405.8 1118.2 423.2C1118.6 424.8 1120.2 426.2 1122 426.2 1124.2 426.2 1126 424.4 1126 422.2 1126 421.8 1125.8 421.4 1125.8 421.2Z" fill="#000000" fill-rule="nonzero" fill-opacity="1"/></ns0:g></ns0:g></ns0:g></ns0:g></ns0:g></svg>
<svg x="14.247" y="45.71" width="5.000" height="5.052" viewBox="0 0 96 97" style="overflow:visible;filter:drop-shadow(1px 2px 3px rgba(0,0,0,0.22));"><ns0:g xmlns:ns0="http://www.w3.org/2000/svg" transform="translate(-1056 -368)"><ns0:g><ns0:g><ns0:g><ns0:g><ns0:path d="M1112 380C1112 384.418 1108.42 388 1104 388 1099.58 388 1096 384.418 1096 380 1096 375.582 1099.58 372 1104 372 1108.42 372 1112 375.582 1112 380Z" fill="#000000" fill-rule="nonzero" fill-opacity="1"/><ns0:path d="M1125.8 421.2 1120.2 397.4C1120 396.6 1119.6 395.8 1119 395.2 1116.6 393.2 1113.8 391.8 1110.6 390.8 1108.4 390.4 1106.2 390 1104 390 1101.8 390 1099.6 390.4 1097.4 391 1094.2 391.8 1091.4 393.4 1089 395.4 1088.4 396 1088 396.8 1087.8 397.6L1082.2 421.4C1082.2 421.6 1082 422 1082 422.4 1082 424.6 1083.8 426.4 1086 426.4 1087.8 426.4 1089.4 425 1089.8 423.4L1094 406 1094 462 1102 462 1102 426 1106 426 1106 462 1114 462 1114 405.8 1118.2 423.2C1118.6 424.8 1120.2 426.2 1122 426.2 1124.2 426.2 1126 424.4 1126 422.2 1126 421.8 1125.8 421.4 1125.8 421.2Z" fill="#000000" fill-rule="nonzero" fill-opacity="1"/></ns0:g></ns0:g></ns0:g></ns0:g></ns0:g></svg>
<svg x="20.747" y="47.103" width="5.000" height="4.949" viewBox="0 0 98 97" style="overflow:visible;filter:drop-shadow(1px 2px 3px rgba(0,0,0,0.22));"><ns0:g xmlns:ns0="http://www.w3.org/2000/svg" transform="translate(-954 -376)"><ns0:g><ns0:g><ns0:g><ns0:g><ns0:path d="M1011.1 388C1011.1 392.418 1007.52 396 1003.1 396 998.682 396 995.1 392.418 995.1 388 995.1 383.582 998.682 380 1003.1 380 1007.52 380 1011.1 383.582 1011.1 388Z" fill="#000000" fill-rule="nonzero" fill-opacity="1"/><ns0:path d="M1024.9 428.8 1017.7 404C1017.5 403 1016.9 402.2 1016.1 401.8 1013.7 400.2 1010.9 399.2 1007.7 398.4 1006.1 398.2 1004.7 398 1003.1 398 1001.5 398 1000.1 398.2 998.5 398.4 995.3 399 992.5 400.2 990.1 401.8 989.3 402.4 988.7 403 988.5 404L981.1 428.8C980.5 431 981.7 433.2 983.9 433.8 984.3 434 984.7 434 985.1 434 986.9 434 988.5 432.8 988.9 431.2L995.1 410.2 995.1 417.2 987.7 442 993.1 442 993.1 470 1001.1 470 1001.1 442 1005.1 442 1005.1 470 1013.1 470 1013.1 442 1018.5 442 1011.1 417.2 1011.1 410.2 1017.3 431.2C1017.9 433 1019.5 434 1021.1 434 1021.5 434 1021.9 434 1022.3 433.8 1024.3 433.2 1025.5 431 1024.9 428.8Z" fill="#000000" fill-rule="nonzero" fill-opacity="1"/></ns0:g></ns0:g></ns0:g></ns0:g></ns0:g></svg>
<svg x="25.735" y="46.522" width="5.000" height="5.052" viewBox="0 0 96 97" style="overflow:visible;filter:drop-shadow(1px 2px 3px rgba(0,0,0,0.22));"><ns0:g xmlns:ns0="http://www.w3.org/2000/svg" transform="translate(-1056 -368)"><ns0:g><ns0:g><ns0:g><ns0:g><ns0:path d="M1112 380C1112 384.418 1108.42 388 1104 388 1099.58 388 1096 384.418 1096 380 1096 375.582 1099.58 372 1104 372 1108.42 372 1112 375.582 1112 380Z" fill="#000000" fill-rule="nonzero" fill-opacity="1"/><ns0:path d="M1125.8 421.2 1120.2 397.4C1120 396.6 1119.6 395.8 1119 395.2 1116.6 393.2 1113.8 391.8 1110.6 390.8 1108.4 390.4 1106.2 390 1104 390 1101.8 390 1099.6 390.4 1097.4 391 1094.2 391.8 1091.4 393.4 1089 395.4 1088.4 396 1088 396.8 1087.8 397.6L1082.2 421.4C1082.2 421.6 1082 422 1082 422.4 1082 424.6 1083.8 426.4 1086 426.4 1087.8 426.4 1089.4 425 1089.8 423.4L1094 406 1094 462 1102 462 1102 426 1106 426 1106 462 1114 462 1114 405.8 1118.2 423.2C1118.6 424.8 1120.2 426.2 1122 426.2 1124.2 426.2 1126 424.4 1126 422.2 1126 421.8 1125.8 421.4 1125.8 421.2Z" fill="#000000" fill-rule="nonzero" fill-opacity="1"/></ns0:g></ns0:g></ns0:g></ns0:g></ns0:g></svg>
<svg x="32.479" y="46.102" width="5.000" height="5.052" viewBox="0 0 96 97" style="overflow:visible;filter:drop-shadow(1px 2px 3px rgba(0,0,0,0.22));"><ns0:g xmlns:ns0="http://www.w3.org/2000/svg" transform="translate(-1056 -368)"><ns0:g><ns0:g><ns0:g><ns0:g><ns0:path d="M1112 380C1112 384.418 1108.42 388 1104 388 1099.58 388 1096 384.418 1096 380 1096 375.582 1099.58 372 1104 372 1108.42 372 1112 375.582 1112 380Z" fill="#000000" fill-rule="nonzero" fill-opacity="1"/><ns0:path d="M1125.8 421.2 1120.2 397.4C1120 396.6 1119.6 395.8 1119 395.2 1116.6 393.2 1113.8 391.8 1110.6 390.8 1108.4 390.4 1106.2 390 1104 390 1101.8 390 1099.6 390.4 1097.4 391 1094.2 391.8 1091.4 393.4 1089 395.4 1088.4 396 1088 396.8 1087.8 397.6L1082.2 421.4C1082.2 421.6 1082 422 1082 422.4 1082 424.6 1083.8 426.4 1086 426.4 1087.8 426.4 1089.4 425 1089.8 423.4L1094 406 1094 462 1102 462 1102 426 1106 426 1106 462 1114 462 1114 405.8 1118.2 423.2C1118.6 424.8 1120.2 426.2 1122 426.2 1124.2 426.2 1126 424.4 1126 422.2 1126 421.8 1125.8 421.4 1125.8 421.2Z" fill="#000000" fill-rule="nonzero" fill-opacity="1"/></ns0:g></ns0:g></ns0:g></ns0:g></ns0:g></svg>
<svg x="39.058" y="46.418" width="5.000" height="5.052" viewBox="0 0 96 97" style="overflow:visible;filter:drop-shadow(1px 2px 3px rgba(0,0,0,0.22));"><ns0:g xmlns:ns0="http://www.w3.org/2000/svg" transform="translate(-1056 -368)"><ns0:g><ns0:g><ns0:g><ns0:g><ns0:path d="M1112 380C1112 384.418 1108.42 388 1104 388 1099.58 388 1096 384.418 1096 380 1096 375.582 1099.58 372 1104 372 1108.42 372 1112 375.582 1112 380Z" fill="#000000" fill-rule="nonzero" fill-opacity="1"/><ns0:path d="M1125.8 421.2 1120.2 397.4C1120 396.6 1119.6 395.8 1119 395.2 1116.6 393.2 1113.8 391.8 1110.6 390.8 1108.4 390.4 1106.2 390 1104 390 1101.8 390 1099.6 390.4 1097.4 391 1094.2 391.8 1091.4 393.4 1089 395.4 1088.4 396 1088 396.8 1087.8 397.6L1082.2 421.4C1082.2 421.6 1082 422 1082 422.4 1082 424.6 1083.8 426.4 1086 426.4 1087.8 426.4 1089.4 425 1089.8 423.4L1094 406 1094 462 1102 462 1102 426 1106 426 1106 462 1114 462 1114 405.8 1118.2 423.2C1118.6 424.8 1120.2 426.2 1122 426.2 1124.2 426.2 1126 424.4 1126 422.2 1126 421.8 1125.8 421.4 1125.8 421.2Z" fill="#000000" fill-rule="nonzero" fill-opacity="1"/></ns0:g></ns0:g></ns0:g></ns0:g></ns0:g></svg>
<svg x="43.999" y="46.65" width="5.000" height="4.949" viewBox="0 0 98 97" style="overflow:visible;filter:drop-shadow(1px 2px 3px rgba(0,0,0,0.22));"><ns0:g xmlns:ns0="http://www.w3.org/2000/svg" transform="translate(-954 -376)"><ns0:g><ns0:g><ns0:g><ns0:g><ns0:path d="M1011.1 388C1011.1 392.418 1007.52 396 1003.1 396 998.682 396 995.1 392.418 995.1 388 995.1 383.582 998.682 380 1003.1 380 1007.52 380 1011.1 383.582 1011.1 388Z" fill="#000000" fill-rule="nonzero" fill-opacity="1"/><ns0:path d="M1024.9 428.8 1017.7 404C1017.5 403 1016.9 402.2 1016.1 401.8 1013.7 400.2 1010.9 399.2 1007.7 398.4 1006.1 398.2 1004.7 398 1003.1 398 1001.5 398 1000.1 398.2 998.5 398.4 995.3 399 992.5 400.2 990.1 401.8 989.3 402.4 988.7 403 988.5 404L981.1 428.8C980.5 431 981.7 433.2 983.9 433.8 984.3 434 984.7 434 985.1 434 986.9 434 988.5 432.8 988.9 431.2L995.1 410.2 995.1 417.2 987.7 442 993.1 442 993.1 470 1001.1 470 1001.1 442 1005.1 442 1005.1 470 1013.1 470 1013.1 442 1018.5 442 1011.1 417.2 1011.1 410.2 1017.3 431.2C1017.9 433 1019.5 434 1021.1 434 1021.5 434 1021.9 434 1022.3 433.8 1024.3 433.2 1025.5 431 1024.9 428.8Z" fill="#000000" fill-rule="nonzero" fill-opacity="1"/></ns0:g></ns0:g></ns0:g></ns0:g></ns0:g></svg>
<svg x="50.904" y="45.974" width="5.000" height="5.052" viewBox="0 0 96 97" style="overflow:visible;filter:drop-shadow(1px 2px 3px rgba(0,0,0,0.22));"><ns0:g xmlns:ns0="http://www.w3.org/2000/svg" transform="translate(-1056 -368)"><ns0:g><ns0:g><ns0:g><ns0:g><ns0:path d="M1112 380C1112 384.418 1108.42 388 1104 388 1099.58 388 1096 384.418 1096 380 1096 375.582 1099.58 372 1104 372 1108.42 372 1112 375.582 1112 380Z" fill="#000000" fill-rule="nonzero" fill-opacity="1"/><ns0:path d="M1125.8 421.2 1120.2 397.4C1120 396.6 1119.6 395.8 1119 395.2 1116.6 393.2 1113.8 391.8 1110.6 390.8 1108.4 390.4 1106.2 390 1104 390 1101.8 390 1099.6 390.4 1097.4 391 1094.2 391.8 1091.4 393.4 1089 395.4 1088.4 396 1088 396.8 1087.8 397.6L1082.2 421.4C1082.2 421.6 1082 422 1082 422.4 1082 424.6 1083.8 426.4 1086 426.4 1087.8 426.4 1089.4 425 1089.8 423.4L1094 406 1094 462 1102 462 1102 426 1106 426 1106 462 1114 462 1114 405.8 1118.2 423.2C1118.6 424.8 1120.2 426.2 1122 426.2 1124.2 426.2 1126 424.4 1126 422.2 1126 421.8 1125.8 421.4 1125.8 421.2Z" fill="#000000" fill-rule="nonzero" fill-opacity="1"/></ns0:g></ns0:g></ns0:g></ns0:g></ns0:g></svg>
<svg x="56.249" y="47.562" width="5.000" height="4.949" viewBox="0 0 98 97" style="overflow:visible;filter:drop-shadow(1px 2px 3px rgba(0,0,0,0.22));"><ns0:g xmlns:ns0="http://www.w3.org/2000/svg" transform="translate(-954 -376)"><ns0:g><ns0:g><ns0:g><ns0:g><ns0:path d="M1011.1 388C1011.1 392.418 1007.52 396 1003.1 396 998.682 396 995.1 392.418 995.1 388 995.1 383.582 998.682 380 1003.1 380 1007.52 380 1011.1 383.582 1011.1 388Z" fill="#000000" fill-rule="nonzero" fill-opacity="1"/><ns0:path d="M1024.9 428.8 1017.7 404C1017.5 403 1016.9 402.2 1016.1 401.8 1013.7 400.2 1010.9 399.2 1007.7 398.4 1006.1 398.2 1004.7 398 1003.1 398 1001.5 398 1000.1 398.2 998.5 398.4 995.3 399 992.5 400.2 990.1 401.8 989.3 402.4 988.7 403 988.5 404L981.1 428.8C980.5 431 981.7 433.2 983.9 433.8 984.3 434 984.7 434 985.1 434 986.9 434 988.5 432.8 988.9 431.2L995.1 410.2 995.1 417.2 987.7 442 993.1 442 993.1 470 1001.1 470 1001.1 442 1005.1 442 1005.1 470 1013.1 470 1013.1 442 1018.5 442 1011.1 417.2 1011.1 410.2 1017.3 431.2C1017.9 433 1019.5 434 1021.1 434 1021.5 434 1021.9 434 1022.3 433.8 1024.3 433.2 1025.5 431 1024.9 428.8Z" fill="#000000" fill-rule="nonzero" fill-opacity="1"/></ns0:g></ns0:g></ns0:g></ns0:g></ns0:g></svg>
<svg x="62.854" y="46.448" width="5.000" height="5.052" viewBox="0 0 96 97" style="overflow:visible;filter:drop-shadow(1px 2px 3px rgba(0,0,0,0.22));"><ns0:g xmlns:ns0="http://www.w3.org/2000/svg" transform="translate(-1056 -368)"><ns0:g><ns0:g><ns0:g><ns0:g><ns0:path d="M1112 380C1112 384.418 1108.42 388 1104 388 1099.58 388 1096 384.418 1096 380 1096 375.582 1099.58 372 1104 372 1108.42 372 1112 375.582 1112 380Z" fill="#000000" fill-rule="nonzero" fill-opacity="1"/><ns0:path d="M1125.8 421.2 1120.2 397.4C1120 396.6 1119.6 395.8 1119 395.2 1116.6 393.2 1113.8 391.8 1110.6 390.8 1108.4 390.4 1106.2 390 1104 390 1101.8 390 1099.6 390.4 1097.4 391 1094.2 391.8 1091.4 393.4 1089 395.4 1088.4 396 1088 396.8 1087.8 397.6L1082.2 421.4C1082.2 421.6 1082 422 1082 422.4 1082 424.6 1083.8 426.4 1086 426.4 1087.8 426.4 1089.4 425 1089.8 423.4L1094 406 1094 462 1102 462 1102 426 1106 426 1106 462 1114 462 1114 405.8 1118.2 423.2C1118.6 424.8 1120.2 426.2 1122 426.2 1124.2 426.2 1126 424.4 1126 422.2 1126 421.8 1125.8 421.4 1125.8 421.2Z" fill="#000000" fill-rule="nonzero" fill-opacity="1"/></ns0:g></ns0:g></ns0:g></ns0:g></ns0:g></svg>
<svg x="68.675" y="45.813" width="5.000" height="5.052" viewBox="0 0 96 97" style="overflow:visible;filter:drop-shadow(1px 2px 3px rgba(0,0,0,0.22));"><ns0:g xmlns:ns0="http://www.w3.org/2000/svg" transform="translate(-1056 -368)"><ns0:g><ns0:g><ns0:g><ns0:g><ns0:path d="M1112 380C1112 384.418 1108.42 388 1104 388 1099.58 388 1096 384.418 1096 380 1096 375.582 1099.58 372 1104 372 1108.42 372 1112 375.582 1112 380Z" fill="#000000" fill-rule="nonzero" fill-opacity="1"/><ns0:path d="M1125.8 421.2 1120.2 397.4C1120 396.6 1119.6 395.8 1119 395.2 1116.6 393.2 1113.8 391.8 1110.6 390.8 1108.4 390.4 1106.2 390 1104 390 1101.8 390 1099.6 390.4 1097.4 391 1094.2 391.8 1091.4 393.4 1089 395.4 1088.4 396 1088 396.8 1087.8 397.6L1082.2 421.4C1082.2 421.6 1082 422 1082 422.4 1082 424.6 1083.8 426.4 1086 426.4 1087.8 426.4 1089.4 425 1089.8 423.4L1094 406 1094 462 1102 462 1102 426 1106 426 1106 462 1114 462 1114 405.8 1118.2 423.2C1118.6 424.8 1120.2 426.2 1122 426.2 1124.2 426.2 1126 424.4 1126 422.2 1126 421.8 1125.8 421.4 1125.8 421.2Z" fill="#000000" fill-rule="nonzero" fill-opacity="1"/></ns0:g></ns0:g></ns0:g></ns0:g></ns0:g></svg>
<svg x="74.229" y="46.248" width="5.000" height="5.052" viewBox="0 0 96 97" style="overflow:visible;filter:drop-shadow(1px 2px 3px rgba(0,0,0,0.22));"><ns0:g xmlns:ns0="http://www.w3.org/2000/svg" transform="translate(-1056 -368)"><ns0:g><ns0:g><ns0:g><ns0:g><ns0:path d="M1112 380C1112 384.418 1108.42 388 1104 388 1099.58 388 1096 384.418 1096 380 1096 375.582 1099.58 372 1104 372 1108.42 372 1112 375.582 1112 380Z" fill="#000000" fill-rule="nonzero" fill-opacity="1"/><ns0:path d="M1125.8 421.2 1120.2 397.4C1120 396.6 1119.6 395.8 1119 395.2 1116.6 393.2 1113.8 391.8 1110.6 390.8 1108.4 390.4 1106.2 390 1104 390 1101.8 390 1099.6 390.4 1097.4 391 1094.2 391.8 1091.4 393.4 1089 395.4 1088.4 396 1088 396.8 1087.8 397.6L1082.2 421.4C1082.2 421.6 1082 422 1082 422.4 1082 424.6 1083.8 426.4 1086 426.4 1087.8 426.4 1089.4 425 1089.8 423.4L1094 406 1094 462 1102 462 1102 426 1106 426 1106 462 1114 462 1114 405.8 1118.2 423.2C1118.6 424.8 1120.2 426.2 1122 426.2 1124.2 426.2 1126 424.4 1126 422.2 1126 421.8 1125.8 421.4 1125.8 421.2Z" fill="#000000" fill-rule="nonzero" fill-opacity="1"/></ns0:g></ns0:g></ns0:g></ns0:g></ns0:g></svg>
<svg x="80.876" y="46.032" width="5.000" height="4.949" viewBox="0 0 98 97" style="overflow:visible;filter:drop-shadow(1px 2px 3px rgba(0,0,0,0.22));"><ns0:g xmlns:ns0="http://www.w3.org/2000/svg" transform="translate(-954 -376)"><ns0:g><ns0:g><ns0:g><ns0:g><ns0:path d="M1011.1 388C1011.1 392.418 1007.52 396 1003.1 396 998.682 396 995.1 392.418 995.1 388 995.1 383.582 998.682 380 1003.1 380 1007.52 380 1011.1 383.582 1011.1 388Z" fill="#000000" fill-rule="nonzero" fill-opacity="1"/><ns0:path d="M1024.9 428.8 1017.7 404C1017.5 403 1016.9 402.2 1016.1 401.8 1013.7 400.2 1010.9 399.2 1007.7 398.4 1006.1 398.2 1004.7 398 1003.1 398 1001.5 398 1000.1 398.2 998.5 398.4 995.3 399 992.5 400.2 990.1 401.8 989.3 402.4 988.7 403 988.5 404L981.1 428.8C980.5 431 981.7 433.2 983.9 433.8 984.3 434 984.7 434 985.1 434 986.9 434 988.5 432.8 988.9 431.2L995.1 410.2 995.1 417.2 987.7 442 993.1 442 993.1 470 1001.1 470 1001.1 442 1005.1 442 1005.1 470 1013.1 470 1013.1 442 1018.5 442 1011.1 417.2 1011.1 410.2 1017.3 431.2C1017.9 433 1019.5 434 1021.1 434 1021.5 434 1021.9 434 1022.3 433.8 1024.3 433.2 1025.5 431 1024.9 428.8Z" fill="#000000" fill-rule="nonzero" fill-opacity="1"/></ns0:g></ns0:g></ns0:g></ns0:g></ns0:g></svg>
<svg x="13.805" y="53.571" width="5.000" height="4.949" viewBox="0 0 98 97" style="overflow:visible;filter:drop-shadow(1px 2px 3px rgba(0,0,0,0.22));"><ns0:g xmlns:ns0="http://www.w3.org/2000/svg" transform="translate(-954 -376)"><ns0:g><ns0:g><ns0:g><ns0:g><ns0:path d="M1011.1 388C1011.1 392.418 1007.52 396 1003.1 396 998.682 396 995.1 392.418 995.1 388 995.1 383.582 998.682 380 1003.1 380 1007.52 380 1011.1 383.582 1011.1 388Z" fill="#000000" fill-rule="nonzero" fill-opacity="1"/><ns0:path d="M1024.9 428.8 1017.7 404C1017.5 403 1016.9 402.2 1016.1 401.8 1013.7 400.2 1010.9 399.2 1007.7 398.4 1006.1 398.2 1004.7 398 1003.1 398 1001.5 398 1000.1 398.2 998.5 398.4 995.3 399 992.5 400.2 990.1 401.8 989.3 402.4 988.7 403 988.5 404L981.1 428.8C980.5 431 981.7 433.2 983.9 433.8 984.3 434 984.7 434 985.1 434 986.9 434 988.5 432.8 988.9 431.2L995.1 410.2 995.1 417.2 987.7 442 993.1 442 993.1 470 1001.1 470 1001.1 442 1005.1 442 1005.1 470 1013.1 470 1013.1 442 1018.5 442 1011.1 417.2 1011.1 410.2 1017.3 431.2C1017.9 433 1019.5 434 1021.1 434 1021.5 434 1021.9 434 1022.3 433.8 1024.3 433.2 1025.5 431 1024.9 428.8Z" fill="#000000" fill-rule="nonzero" fill-opacity="1"/></ns0:g></ns0:g></ns0:g></ns0:g></ns0:g></svg>
<svg x="20.531" y="53.886" width="5.000" height="5.052" viewBox="0 0 96 97" style="overflow:visible;filter:drop-shadow(1px 2px 3px rgba(0,0,0,0.22));"><ns0:g xmlns:ns0="http://www.w3.org/2000/svg" transform="translate(-1056 -368)"><ns0:g><ns0:g><ns0:g><ns0:g><ns0:path d="M1112 380C1112 384.418 1108.42 388 1104 388 1099.58 388 1096 384.418 1096 380 1096 375.582 1099.58 372 1104 372 1108.42 372 1112 375.582 1112 380Z" fill="#000000" fill-rule="nonzero" fill-opacity="1"/><ns0:path d="M1125.8 421.2 1120.2 397.4C1120 396.6 1119.6 395.8 1119 395.2 1116.6 393.2 1113.8 391.8 1110.6 390.8 1108.4 390.4 1106.2 390 1104 390 1101.8 390 1099.6 390.4 1097.4 391 1094.2 391.8 1091.4 393.4 1089 395.4 1088.4 396 1088 396.8 1087.8 397.6L1082.2 421.4C1082.2 421.6 1082 422 1082 422.4 1082 424.6 1083.8 426.4 1086 426.4 1087.8 426.4 1089.4 425 1089.8 423.4L1094 406 1094 462 1102 462 1102 426 1106 426 1106 462 1114 462 1114 405.8 1118.2 423.2C1118.6 424.8 1120.2 426.2 1122 426.2 1124.2 426.2 1126 424.4 1126 422.2 1126 421.8 1125.8 421.4 1125.8 421.2Z" fill="#000000" fill-rule="nonzero" fill-opacity="1"/></ns0:g></ns0:g></ns0:g></ns0:g></ns0:g></svg>
<svg x="27.03" y="55.148" width="5.000" height="4.949" viewBox="0 0 98 97" style="overflow:visible;filter:drop-shadow(1px 2px 3px rgba(0,0,0,0.22));"><ns0:g xmlns:ns0="http://www.w3.org/2000/svg" transform="translate(-954 -376)"><ns0:g><ns0:g><ns0:g><ns0:g><ns0:path d="M1011.1 388C1011.1 392.418 1007.52 396 1003.1 396 998.682 396 995.1 392.418 995.1 388 995.1 383.582 998.682 380 1003.1 380 1007.52 380 1011.1 383.582 1011.1 388Z" fill="#000000" fill-rule="nonzero" fill-opacity="1"/><ns0:path d="M1024.9 428.8 1017.7 404C1017.5 403 1016.9 402.2 1016.1 401.8 1013.7 400.2 1010.9 399.2 1007.7 398.4 1006.1 398.2 1004.7 398 1003.1 398 1001.5 398 1000.1 398.2 998.5 398.4 995.3 399 992.5 400.2 990.1 401.8 989.3 402.4 988.7 403 988.5 404L981.1 428.8C980.5 431 981.7 433.2 983.9 433.8 984.3 434 984.7 434 985.1 434 986.9 434 988.5 432.8 988.9 431.2L995.1 410.2 995.1 417.2 987.7 442 993.1 442 993.1 470 1001.1 470 1001.1 442 1005.1 442 1005.1 470 1013.1 470 1013.1 442 1018.5 442 1011.1 417.2 1011.1 410.2 1017.3 431.2C1017.9 433 1019.5 434 1021.1 434 1021.5 434 1021.9 434 1022.3 433.8 1024.3 433.2 1025.5 431 1024.9 428.8Z" fill="#000000" fill-rule="nonzero" fill-opacity="1"/></ns0:g></ns0:g></ns0:g></ns0:g></ns0:g></svg>
<svg x="31.681" y="53.905" width="5.000" height="5.052" viewBox="0 0 96 97" style="overflow:visible;filter:drop-shadow(1px 2px 3px rgba(0,0,0,0.22));"><ns0:g xmlns:ns0="http://www.w3.org/2000/svg" transform="translate(-1056 -368)"><ns0:g><ns0:g><ns0:g><ns0:g><ns0:path d="M1112 380C1112 384.418 1108.42 388 1104 388 1099.58 388 1096 384.418 1096 380 1096 375.582 1099.58 372 1104 372 1108.42 372 1112 375.582 1112 380Z" fill="#000000" fill-rule="nonzero" fill-opacity="1"/><ns0:path d="M1125.8 421.2 1120.2 397.4C1120 396.6 1119.6 395.8 1119 395.2 1116.6 393.2 1113.8 391.8 1110.6 390.8 1108.4 390.4 1106.2 390 1104 390 1101.8 390 1099.6 390.4 1097.4 391 1094.2 391.8 1091.4 393.4 1089 395.4 1088.4 396 1088 396.8 1087.8 397.6L1082.2 421.4C1082.2 421.6 1082 422 1082 422.4 1082 424.6 1083.8 426.4 1086 426.4 1087.8 426.4 1089.4 425 1089.8 423.4L1094 406 1094 462 1102 462 1102 426 1106 426 1106 462 1114 462 1114 405.8 1118.2 423.2C1118.6 424.8 1120.2 426.2 1122 426.2 1124.2 426.2 1126 424.4 1126 422.2 1126 421.8 1125.8 421.4 1125.8 421.2Z" fill="#000000" fill-rule="nonzero" fill-opacity="1"/></ns0:g></ns0:g></ns0:g></ns0:g></ns0:g></svg>
<svg x="38.719" y="53.857" width="5.000" height="4.949" viewBox="0 0 98 97" style="overflow:visible;filter:drop-shadow(1px 2px 3px rgba(0,0,0,0.22));"><ns0:g xmlns:ns0="http://www.w3.org/2000/svg" transform="translate(-954 -376)"><ns0:g><ns0:g><ns0:g><ns0:g><ns0:path d="M1011.1 388C1011.1 392.418 1007.52 396 1003.1 396 998.682 396 995.1 392.418 995.1 388 995.1 383.582 998.682 380 1003.1 380 1007.52 380 1011.1 383.582 1011.1 388Z" fill="#000000" fill-rule="nonzero" fill-opacity="1"/><ns0:path d="M1024.9 428.8 1017.7 404C1017.5 403 1016.9 402.2 1016.1 401.8 1013.7 400.2 1010.9 399.2 1007.7 398.4 1006.1 398.2 1004.7 398 1003.1 398 1001.5 398 1000.1 398.2 998.5 398.4 995.3 399 992.5 400.2 990.1 401.8 989.3 402.4 988.7 403 988.5 404L981.1 428.8C980.5 431 981.7 433.2 983.9 433.8 984.3 434 984.7 434 985.1 434 986.9 434 988.5 432.8 988.9 431.2L995.1 410.2 995.1 417.2 987.7 442 993.1 442 993.1 470 1001.1 470 1001.1 442 1005.1 442 1005.1 470 1013.1 470 1013.1 442 1018.5 442 1011.1 417.2 1011.1 410.2 1017.3 431.2C1017.9 433 1019.5 434 1021.1 434 1021.5 434 1021.9 434 1022.3 433.8 1024.3 433.2 1025.5 431 1024.9 428.8Z" fill="#000000" fill-rule="nonzero" fill-opacity="1"/></ns0:g></ns0:g></ns0:g></ns0:g></ns0:g></svg>
<svg x="43.866" y="55.3" width="5.000" height="4.949" viewBox="0 0 98 97" style="overflow:visible;filter:drop-shadow(1px 2px 3px rgba(0,0,0,0.22));"><ns0:g xmlns:ns0="http://www.w3.org/2000/svg" transform="translate(-954 -376)"><ns0:g><ns0:g><ns0:g><ns0:g><ns0:path d="M1011.1 388C1011.1 392.418 1007.52 396 1003.1 396 998.682 396 995.1 392.418 995.1 388 995.1 383.582 998.682 380 1003.1 380 1007.52 380 1011.1 383.582 1011.1 388Z" fill="#000000" fill-rule="nonzero" fill-opacity="1"/><ns0:path d="M1024.9 428.8 1017.7 404C1017.5 403 1016.9 402.2 1016.1 401.8 1013.7 400.2 1010.9 399.2 1007.7 398.4 1006.1 398.2 1004.7 398 1003.1 398 1001.5 398 1000.1 398.2 998.5 398.4 995.3 399 992.5 400.2 990.1 401.8 989.3 402.4 988.7 403 988.5 404L981.1 428.8C980.5 431 981.7 433.2 983.9 433.8 984.3 434 984.7 434 985.1 434 986.9 434 988.5 432.8 988.9 431.2L995.1 410.2 995.1 417.2 987.7 442 993.1 442 993.1 470 1001.1 470 1001.1 442 1005.1 442 1005.1 470 1013.1 470 1013.1 442 1018.5 442 1011.1 417.2 1011.1 410.2 1017.3 431.2C1017.9 433 1019.5 434 1021.1 434 1021.5 434 1021.9 434 1022.3 433.8 1024.3 433.2 1025.5 431 1024.9 428.8Z" fill="#000000" fill-rule="nonzero" fill-opacity="1"/></ns0:g></ns0:g></ns0:g></ns0:g></ns0:g></svg>
<svg x="50.639" y="54.374" width="5.000" height="5.052" viewBox="0 0 96 97" style="overflow:visible;filter:drop-shadow(1px 2px 3px rgba(0,0,0,0.22));"><ns0:g xmlns:ns0="http://www.w3.org/2000/svg" transform="translate(-1056 -368)"><ns0:g><ns0:g><ns0:g><ns0:g><ns0:path d="M1112 380C1112 384.418 1108.42 388 1104 388 1099.58 388 1096 384.418 1096 380 1096 375.582 1099.58 372 1104 372 1108.42 372 1112 375.582 1112 380Z" fill="#000000" fill-rule="nonzero" fill-opacity="1"/><ns0:path d="M1125.8 421.2 1120.2 397.4C1120 396.6 1119.6 395.8 1119 395.2 1116.6 393.2 1113.8 391.8 1110.6 390.8 1108.4 390.4 1106.2 390 1104 390 1101.8 390 1099.6 390.4 1097.4 391 1094.2 391.8 1091.4 393.4 1089 395.4 1088.4 396 1088 396.8 1087.8 397.6L1082.2 421.4C1082.2 421.6 1082 422 1082 422.4 1082 424.6 1083.8 426.4 1086 426.4 1087.8 426.4 1089.4 425 1089.8 423.4L1094 406 1094 462 1102 462 1102 426 1106 426 1106 462 1114 462 1114 405.8 1118.2 423.2C1118.6 424.8 1120.2 426.2 1122 426.2 1124.2 426.2 1126 424.4 1126 422.2 1126 421.8 1125.8 421.4 1125.8 421.2Z" fill="#000000" fill-rule="nonzero" fill-opacity="1"/></ns0:g></ns0:g></ns0:g></ns0:g></ns0:g></svg>
<svg x="57.037" y="55.044" width="5.000" height="4.949" viewBox="0 0 98 97" style="overflow:visible;filter:drop-shadow(1px 2px 3px rgba(0,0,0,0.22));"><ns0:g xmlns:ns0="http://www.w3.org/2000/svg" transform="translate(-954 -376)"><ns0:g><ns0:g><ns0:g><ns0:g><ns0:path d="M1011.1 388C1011.1 392.418 1007.52 396 1003.1 396 998.682 396 995.1 392.418 995.1 388 995.1 383.582 998.682 380 1003.1 380 1007.52 380 1011.1 383.582 1011.1 388Z" fill="#000000" fill-rule="nonzero" fill-opacity="1"/><ns0:path d="M1024.9 428.8 1017.7 404C1017.5 403 1016.9 402.2 1016.1 401.8 1013.7 400.2 1010.9 399.2 1007.7 398.4 1006.1 398.2 1004.7 398 1003.1 398 1001.5 398 1000.1 398.2 998.5 398.4 995.3 399 992.5 400.2 990.1 401.8 989.3 402.4 988.7 403 988.5 404L981.1 428.8C980.5 431 981.7 433.2 983.9 433.8 984.3 434 984.7 434 985.1 434 986.9 434 988.5 432.8 988.9 431.2L995.1 410.2 995.1 417.2 987.7 442 993.1 442 993.1 470 1001.1 470 1001.1 442 1005.1 442 1005.1 470 1013.1 470 1013.1 442 1018.5 442 1011.1 417.2 1011.1 410.2 1017.3 431.2C1017.9 433 1019.5 434 1021.1 434 1021.5 434 1021.9 434 1022.3 433.8 1024.3 433.2 1025.5 431 1024.9 428.8Z" fill="#000000" fill-rule="nonzero" fill-opacity="1"/></ns0:g></ns0:g></ns0:g></ns0:g></ns0:g></svg>
<svg x="62.088" y="53.622" width="5.000" height="4.949" viewBox="0 0 98 97" style="overflow:visible;filter:drop-shadow(1px 2px 3px rgba(0,0,0,0.22));"><ns0:g xmlns:ns0="http://www.w3.org/2000/svg" transform="translate(-954 -376)"><ns0:g><ns0:g><ns0:g><ns0:g><ns0:path d="M1011.1 388C1011.1 392.418 1007.52 396 1003.1 396 998.682 396 995.1 392.418 995.1 388 995.1 383.582 998.682 380 1003.1 380 1007.52 380 1011.1 383.582 1011.1 388Z" fill="#000000" fill-rule="nonzero" fill-opacity="1"/><ns0:path d="M1024.9 428.8 1017.7 404C1017.5 403 1016.9 402.2 1016.1 401.8 1013.7 400.2 1010.9 399.2 1007.7 398.4 1006.1 398.2 1004.7 398 1003.1 398 1001.5 398 1000.1 398.2 998.5 398.4 995.3 399 992.5 400.2 990.1 401.8 989.3 402.4 988.7 403 988.5 404L981.1 428.8C980.5 431 981.7 433.2 983.9 433.8 984.3 434 984.7 434 985.1 434 986.9 434 988.5 432.8 988.9 431.2L995.1 410.2 995.1 417.2 987.7 442 993.1 442 993.1 470 1001.1 470 1001.1 442 1005.1 442 1005.1 470 1013.1 470 1013.1 442 1018.5 442 1011.1 417.2 1011.1 410.2 1017.3 431.2C1017.9 433 1019.5 434 1021.1 434 1021.5 434 1021.9 434 1022.3 433.8 1024.3 433.2 1025.5 431 1024.9 428.8Z" fill="#000000" fill-rule="nonzero" fill-opacity="1"/></ns0:g></ns0:g></ns0:g></ns0:g></ns0:g></svg>
<svg x="68.531" y="54.276" width="5.000" height="5.052" viewBox="0 0 96 97" style="overflow:visible;filter:drop-shadow(1px 2px 3px rgba(0,0,0,0.22));"><ns0:g xmlns:ns0="http://www.w3.org/2000/svg" transform="translate(-1056 -368)"><ns0:g><ns0:g><ns0:g><ns0:g><ns0:path d="M1112 380C1112 384.418 1108.42 388 1104 388 1099.58 388 1096 384.418 1096 380 1096 375.582 1099.58 372 1104 372 1108.42 372 1112 375.582 1112 380Z" fill="#000000" fill-rule="nonzero" fill-opacity="1"/><ns0:path d="M1125.8 421.2 1120.2 397.4C1120 396.6 1119.6 395.8 1119 395.2 1116.6 393.2 1113.8 391.8 1110.6 390.8 1108.4 390.4 1106.2 390 1104 390 1101.8 390 1099.6 390.4 1097.4 391 1094.2 391.8 1091.4 393.4 1089 395.4 1088.4 396 1088 396.8 1087.8 397.6L1082.2 421.4C1082.2 421.6 1082 422 1082 422.4 1082 424.6 1083.8 426.4 1086 426.4 1087.8 426.4 1089.4 425 1089.8 423.4L1094 406 1094 462 1102 462 1102 426 1106 426 1106 462 1114 462 1114 405.8 1118.2 423.2C1118.6 424.8 1120.2 426.2 1122 426.2 1124.2 426.2 1126 424.4 1126 422.2 1126 421.8 1125.8 421.4 1125.8 421.2Z" fill="#000000" fill-rule="nonzero" fill-opacity="1"/></ns0:g></ns0:g></ns0:g></ns0:g></ns0:g></svg>
<svg x="74.633" y="54.887" width="5.000" height="4.949" viewBox="0 0 98 97" style="overflow:visible;filter:drop-shadow(1px 2px 3px rgba(0,0,0,0.22));"><ns0:g xmlns:ns0="http://www.w3.org/2000/svg" transform="translate(-954 -376)"><ns0:g><ns0:g><ns0:g><ns0:g><ns0:path d="M1011.1 388C1011.1 392.418 1007.52 396 1003.1 396 998.682 396 995.1 392.418 995.1 388 995.1 383.582 998.682 380 1003.1 380 1007.52 380 1011.1 383.582 1011.1 388Z" fill="#000000" fill-rule="nonzero" fill-opacity="1"/><ns0:path d="M1024.9 428.8 1017.7 404C1017.5 403 1016.9 402.2 1016.1 401.8 1013.7 400.2 1010.9 399.2 1007.7 398.4 1006.1 398.2 1004.7 398 1003.1 398 1001.5 398 1000.1 398.2 998.5 398.4 995.3 399 992.5 400.2 990.1 401.8 989.3 402.4 988.7 403 988.5 404L981.1 428.8C980.5 431 981.7 433.2 983.9 433.8 984.3 434 984.7 434 985.1 434 986.9 434 988.5 432.8 988.9 431.2L995.1 410.2 995.1 417.2 987.7 442 993.1 442 993.1 470 1001.1 470 1001.1 442 1005.1 442 1005.1 470 1013.1 470 1013.1 442 1018.5 442 1011.1 417.2 1011.1 410.2 1017.3 431.2C1017.9 433 1019.5 434 1021.1 434 1021.5 434 1021.9 434 1022.3 433.8 1024.3 433.2 1025.5 431 1024.9 428.8Z" fill="#000000" fill-rule="nonzero" fill-opacity="1"/></ns0:g></ns0:g></ns0:g></ns0:g></ns0:g></svg>
<svg x="81.018" y="55.397" width="5.000" height="4.949" viewBox="0 0 98 97" style="overflow:visible;filter:drop-shadow(1px 2px 3px rgba(0,0,0,0.22));"><ns0:g xmlns:ns0="http://www.w3.org/2000/svg" transform="translate(-954 -376)"><ns0:g><ns0:g><ns0:g><ns0:g><ns0:path d="M1011.1 388C1011.1 392.418 1007.52 396 1003.1 396 998.682 396 995.1 392.418 995.1 388 995.1 383.582 998.682 380 1003.1 380 1007.52 380 1011.1 383.582 1011.1 388Z" fill="#000000" fill-rule="nonzero" fill-opacity="1"/><ns0:path d="M1024.9 428.8 1017.7 404C1017.5 403 1016.9 402.2 1016.1 401.8 1013.7 400.2 1010.9 399.2 1007.7 398.4 1006.1 398.2 1004.7 398 1003.1 398 1001.5 398 1000.1 398.2 998.5 398.4 995.3 399 992.5 400.2 990.1 401.8 989.3 402.4 988.7 403 988.5 404L981.1 428.8C980.5 431 981.7 433.2 983.9 433.8 984.3 434 984.7 434 985.1 434 986.9 434 988.5 432.8 988.9 431.2L995.1 410.2 995.1 417.2 987.7 442 993.1 442 993.1 470 1001.1 470 1001.1 442 1005.1 442 1005.1 470 1013.1 470 1013.1 442 1018.5 442 1011.1 417.2 1011.1 410.2 1017.3 431.2C1017.9 433 1019.5 434 1021.1 434 1021.5 434 1021.9 434 1022.3 433.8 1024.3 433.2 1025.5 431 1024.9 428.8Z" fill="#000000" fill-rule="nonzero" fill-opacity="1"/></ns0:g></ns0:g></ns0:g></ns0:g></ns0:g></svg>
<svg x="13.602" y="62.091" width="5.000" height="4.949" viewBox="0 0 98 97" style="overflow:visible;filter:drop-shadow(1px 2px 3px rgba(0,0,0,0.22));"><ns0:g xmlns:ns0="http://www.w3.org/2000/svg" transform="translate(-954 -376)"><ns0:g><ns0:g><ns0:g><ns0:g><ns0:path d="M1011.1 388C1011.1 392.418 1007.52 396 1003.1 396 998.682 396 995.1 392.418 995.1 388 995.1 383.582 998.682 380 1003.1 380 1007.52 380 1011.1 383.582 1011.1 388Z" fill="#000000" fill-rule="nonzero" fill-opacity="1"/><ns0:path d="M1024.9 428.8 1017.7 404C1017.5 403 1016.9 402.2 1016.1 401.8 1013.7 400.2 1010.9 399.2 1007.7 398.4 1006.1 398.2 1004.7 398 1003.1 398 1001.5 398 1000.1 398.2 998.5 398.4 995.3 399 992.5 400.2 990.1 401.8 989.3 402.4 988.7 403 988.5 404L981.1 428.8C980.5 431 981.7 433.2 983.9 433.8 984.3 434 984.7 434 985.1 434 986.9 434 988.5 432.8 988.9 431.2L995.1 410.2 995.1 417.2 987.7 442 993.1 442 993.1 470 1001.1 470 1001.1 442 1005.1 442 1005.1 470 1013.1 470 1013.1 442 1018.5 442 1011.1 417.2 1011.1 410.2 1017.3 431.2C1017.9 433 1019.5 434 1021.1 434 1021.5 434 1021.9 434 1022.3 433.8 1024.3 433.2 1025.5 431 1024.9 428.8Z" fill="#000000" fill-rule="nonzero" fill-opacity="1"/></ns0:g></ns0:g></ns0:g></ns0:g></ns0:g></svg>
<svg x="20.045" y="63.009" width="5.000" height="5.052" viewBox="0 0 96 97" style="overflow:visible;filter:drop-shadow(1px 2px 3px rgba(0,0,0,0.22));"><ns0:g xmlns:ns0="http://www.w3.org/2000/svg" transform="translate(-1056 -368)"><ns0:g><ns0:g><ns0:g><ns0:g><ns0:path d="M1112 380C1112 384.418 1108.42 388 1104 388 1099.58 388 1096 384.418 1096 380 1096 375.582 1099.58 372 1104 372 1108.42 372 1112 375.582 1112 380Z" fill="#000000" fill-rule="nonzero" fill-opacity="1"/><ns0:path d="M1125.8 421.2 1120.2 397.4C1120 396.6 1119.6 395.8 1119 395.2 1116.6 393.2 1113.8 391.8 1110.6 390.8 1108.4 390.4 1106.2 390 1104 390 1101.8 390 1099.6 390.4 1097.4 391 1094.2 391.8 1091.4 393.4 1089 395.4 1088.4 396 1088 396.8 1087.8 397.6L1082.2 421.4C1082.2 421.6 1082 422 1082 422.4 1082 424.6 1083.8 426.4 1086 426.4 1087.8 426.4 1089.4 425 1089.8 423.4L1094 406 1094 462 1102 462 1102 426 1106 426 1106 462 1114 462 1114 405.8 1118.2 423.2C1118.6 424.8 1120.2 426.2 1122 426.2 1124.2 426.2 1126 424.4 1126 422.2 1126 421.8 1125.8 421.4 1125.8 421.2Z" fill="#000000" fill-rule="nonzero" fill-opacity="1"/></ns0:g></ns0:g></ns0:g></ns0:g></ns0:g></svg>
<svg x="25.935" y="61.666" width="5.000" height="4.949" viewBox="0 0 98 97" style="overflow:visible;filter:drop-shadow(1px 2px 3px rgba(0,0,0,0.22));"><ns0:g xmlns:ns0="http://www.w3.org/2000/svg" transform="translate(-954 -376)"><ns0:g><ns0:g><ns0:g><ns0:g><ns0:path d="M1011.1 388C1011.1 392.418 1007.52 396 1003.1 396 998.682 396 995.1 392.418 995.1 388 995.1 383.582 998.682 380 1003.1 380 1007.52 380 1011.1 383.582 1011.1 388Z" fill="#000000" fill-rule="nonzero" fill-opacity="1"/><ns0:path d="M1024.9 428.8 1017.7 404C1017.5 403 1016.9 402.2 1016.1 401.8 1013.7 400.2 1010.9 399.2 1007.7 398.4 1006.1 398.2 1004.7 398 1003.1 398 1001.5 398 1000.1 398.2 998.5 398.4 995.3 399 992.5 400.2 990.1 401.8 989.3 402.4 988.7 403 988.5 404L981.1 428.8C980.5 431 981.7 433.2 983.9 433.8 984.3 434 984.7 434 985.1 434 986.9 434 988.5 432.8 988.9 431.2L995.1 410.2 995.1 417.2 987.7 442 993.1 442 993.1 470 1001.1 470 1001.1 442 1005.1 442 1005.1 470 1013.1 470 1013.1 442 1018.5 442 1011.1 417.2 1011.1 410.2 1017.3 431.2C1017.9 433 1019.5 434 1021.1 434 1021.5 434 1021.9 434 1022.3 433.8 1024.3 433.2 1025.5 431 1024.9 428.8Z" fill="#000000" fill-rule="nonzero" fill-opacity="1"/></ns0:g></ns0:g></ns0:g></ns0:g></ns0:g></svg>
<svg x="32.31" y="62.129" width="5.000" height="4.949" viewBox="0 0 98 97" style="overflow:visible;filter:drop-shadow(1px 2px 3px rgba(0,0,0,0.22));"><ns0:g xmlns:ns0="http://www.w3.org/2000/svg" transform="translate(-954 -376)"><ns0:g><ns0:g><ns0:g><ns0:g><ns0:path d="M1011.1 388C1011.1 392.418 1007.52 396 1003.1 396 998.682 396 995.1 392.418 995.1 388 995.1 383.582 998.682 380 1003.1 380 1007.52 380 1011.1 383.582 1011.1 388Z" fill="#000000" fill-rule="nonzero" fill-opacity="1"/><ns0:path d="M1024.9 428.8 1017.7 404C1017.5 403 1016.9 402.2 1016.1 401.8 1013.7 400.2 1010.9 399.2 1007.7 398.4 1006.1 398.2 1004.7 398 1003.1 398 1001.5 398 1000.1 398.2 998.5 398.4 995.3 399 992.5 400.2 990.1 401.8 989.3 402.4 988.7 403 988.5 404L981.1 428.8C980.5 431 981.7 433.2 983.9 433.8 984.3 434 984.7 434 985.1 434 986.9 434 988.5 432.8 988.9 431.2L995.1 410.2 995.1 417.2 987.7 442 993.1 442 993.1 470 1001.1 470 1001.1 442 1005.1 442 1005.1 470 1013.1 470 1013.1 442 1018.5 442 1011.1 417.2 1011.1 410.2 1017.3 431.2C1017.9 433 1019.5 434 1021.1 434 1021.5 434 1021.9 434 1022.3 433.8 1024.3 433.2 1025.5 431 1024.9 428.8Z" fill="#000000" fill-rule="nonzero" fill-opacity="1"/></ns0:g></ns0:g></ns0:g></ns0:g></ns0:g></svg>
<svg x="38.068" y="61.785" width="5.000" height="4.949" viewBox="0 0 98 97" style="overflow:visible;filter:drop-shadow(1px 2px 3px rgba(0,0,0,0.22));"><ns0:g xmlns:ns0="http://www.w3.org/2000/svg" transform="translate(-954 -376)"><ns0:g><ns0:g><ns0:g><ns0:g><ns0:path d="M1011.1 388C1011.1 392.418 1007.52 396 1003.1 396 998.682 396 995.1 392.418 995.1 388 995.1 383.582 998.682 380 1003.1 380 1007.52 380 1011.1 383.582 1011.1 388Z" fill="#000000" fill-rule="nonzero" fill-opacity="1"/><ns0:path d="M1024.9 428.8 1017.7 404C1017.5 403 1016.9 402.2 1016.1 401.8 1013.7 400.2 1010.9 399.2 1007.7 398.4 1006.1 398.2 1004.7 398 1003.1 398 1001.5 398 1000.1 398.2 998.5 398.4 995.3 399 992.5 400.2 990.1 401.8 989.3 402.4 988.7 403 988.5 404L981.1 428.8C980.5 431 981.7 433.2 983.9 433.8 984.3 434 984.7 434 985.1 434 986.9 434 988.5 432.8 988.9 431.2L995.1 410.2 995.1 417.2 987.7 442 993.1 442 993.1 470 1001.1 470 1001.1 442 1005.1 442 1005.1 470 1013.1 470 1013.1 442 1018.5 442 1011.1 417.2 1011.1 410.2 1017.3 431.2C1017.9 433 1019.5 434 1021.1 434 1021.5 434 1021.9 434 1022.3 433.8 1024.3 433.2 1025.5 431 1024.9 428.8Z" fill="#000000" fill-rule="nonzero" fill-opacity="1"/></ns0:g></ns0:g></ns0:g></ns0:g></ns0:g></svg>
<svg x="45.185" y="62.172" width="5.000" height="5.052" viewBox="0 0 96 97" style="overflow:visible;filter:drop-shadow(1px 2px 3px rgba(0,0,0,0.22));"><ns0:g xmlns:ns0="http://www.w3.org/2000/svg" transform="translate(-1056 -368)"><ns0:g><ns0:g><ns0:g><ns0:g><ns0:path d="M1112 380C1112 384.418 1108.42 388 1104 388 1099.58 388 1096 384.418 1096 380 1096 375.582 1099.58 372 1104 372 1108.42 372 1112 375.582 1112 380Z" fill="#000000" fill-rule="nonzero" fill-opacity="1"/><ns0:path d="M1125.8 421.2 1120.2 397.4C1120 396.6 1119.6 395.8 1119 395.2 1116.6 393.2 1113.8 391.8 1110.6 390.8 1108.4 390.4 1106.2 390 1104 390 1101.8 390 1099.6 390.4 1097.4 391 1094.2 391.8 1091.4 393.4 1089 395.4 1088.4 396 1088 396.8 1087.8 397.6L1082.2 421.4C1082.2 421.6 1082 422 1082 422.4 1082 424.6 1083.8 426.4 1086 426.4 1087.8 426.4 1089.4 425 1089.8 423.4L1094 406 1094 462 1102 462 1102 426 1106 426 1106 462 1114 462 1114 405.8 1118.2 423.2C1118.6 424.8 1120.2 426.2 1122 426.2 1124.2 426.2 1126 424.4 1126 422.2 1126 421.8 1125.8 421.4 1125.8 421.2Z" fill="#000000" fill-rule="nonzero" fill-opacity="1"/></ns0:g></ns0:g></ns0:g></ns0:g></ns0:g></svg>
<svg x="51.123" y="62.386" width="5.000" height="4.949" viewBox="0 0 98 97" style="overflow:visible;filter:drop-shadow(1px 2px 3px rgba(0,0,0,0.22));"><ns0:g xmlns:ns0="http://www.w3.org/2000/svg" transform="translate(-954 -376)"><ns0:g><ns0:g><ns0:g><ns0:g><ns0:path d="M1011.1 388C1011.1 392.418 1007.52 396 1003.1 396 998.682 396 995.1 392.418 995.1 388 995.1 383.582 998.682 380 1003.1 380 1007.52 380 1011.1 383.582 1011.1 388Z" fill="#000000" fill-rule="nonzero" fill-opacity="1"/><ns0:path d="M1024.9 428.8 1017.7 404C1017.5 403 1016.9 402.2 1016.1 401.8 1013.7 400.2 1010.9 399.2 1007.7 398.4 1006.1 398.2 1004.7 398 1003.1 398 1001.5 398 1000.1 398.2 998.5 398.4 995.3 399 992.5 400.2 990.1 401.8 989.3 402.4 988.7 403 988.5 404L981.1 428.8C980.5 431 981.7 433.2 983.9 433.8 984.3 434 984.7 434 985.1 434 986.9 434 988.5 432.8 988.9 431.2L995.1 410.2 995.1 417.2 987.7 442 993.1 442 993.1 470 1001.1 470 1001.1 442 1005.1 442 1005.1 470 1013.1 470 1013.1 442 1018.5 442 1011.1 417.2 1011.1 410.2 1017.3 431.2C1017.9 433 1019.5 434 1021.1 434 1021.5 434 1021.9 434 1022.3 433.8 1024.3 433.2 1025.5 431 1024.9 428.8Z" fill="#000000" fill-rule="nonzero" fill-opacity="1"/></ns0:g></ns0:g></ns0:g></ns0:g></ns0:g></svg>
<svg x="55.813" y="63.284" width="5.000" height="4.949" viewBox="0 0 98 97" style="overflow:visible;filter:drop-shadow(1px 2px 3px rgba(0,0,0,0.22));"><ns0:g xmlns:ns0="http://www.w3.org/2000/svg" transform="translate(-954 -376)"><ns0:g><ns0:g><ns0:g><ns0:g><ns0:path d="M1011.1 388C1011.1 392.418 1007.52 396 1003.1 396 998.682 396 995.1 392.418 995.1 388 995.1 383.582 998.682 380 1003.1 380 1007.52 380 1011.1 383.582 1011.1 388Z" fill="#000000" fill-rule="nonzero" fill-opacity="1"/><ns0:path d="M1024.9 428.8 1017.7 404C1017.5 403 1016.9 402.2 1016.1 401.8 1013.7 400.2 1010.9 399.2 1007.7 398.4 1006.1 398.2 1004.7 398 1003.1 398 1001.5 398 1000.1 398.2 998.5 398.4 995.3 399 992.5 400.2 990.1 401.8 989.3 402.4 988.7 403 988.5 404L981.1 428.8C980.5 431 981.7 433.2 983.9 433.8 984.3 434 984.7 434 985.1 434 986.9 434 988.5 432.8 988.9 431.2L995.1 410.2 995.1 417.2 987.7 442 993.1 442 993.1 470 1001.1 470 1001.1 442 1005.1 442 1005.1 470 1013.1 470 1013.1 442 1018.5 442 1011.1 417.2 1011.1 410.2 1017.3 431.2C1017.9 433 1019.5 434 1021.1 434 1021.5 434 1021.9 434 1022.3 433.8 1024.3 433.2 1025.5 431 1024.9 428.8Z" fill="#000000" fill-rule="nonzero" fill-opacity="1"/></ns0:g></ns0:g></ns0:g></ns0:g></ns0:g></svg>
<svg x="63.164" y="63.224" width="5.000" height="5.052" viewBox="0 0 96 97" style="overflow:visible;filter:drop-shadow(1px 2px 3px rgba(0,0,0,0.22));"><ns0:g xmlns:ns0="http://www.w3.org/2000/svg" transform="translate(-1056 -368)"><ns0:g><ns0:g><ns0:g><ns0:g><ns0:path d="M1112 380C1112 384.418 1108.42 388 1104 388 1099.58 388 1096 384.418 1096 380 1096 375.582 1099.58 372 1104 372 1108.42 372 1112 375.582 1112 380Z" fill="#000000" fill-rule="nonzero" fill-opacity="1"/><ns0:path d="M1125.8 421.2 1120.2 397.4C1120 396.6 1119.6 395.8 1119 395.2 1116.6 393.2 1113.8 391.8 1110.6 390.8 1108.4 390.4 1106.2 390 1104 390 1101.8 390 1099.6 390.4 1097.4 391 1094.2 391.8 1091.4 393.4 1089 395.4 1088.4 396 1088 396.8 1087.8 397.6L1082.2 421.4C1082.2 421.6 1082 422 1082 422.4 1082 424.6 1083.8 426.4 1086 426.4 1087.8 426.4 1089.4 425 1089.8 423.4L1094 406 1094 462 1102 462 1102 426 1106 426 1106 462 1114 462 1114 405.8 1118.2 423.2C1118.6 424.8 1120.2 426.2 1122 426.2 1124.2 426.2 1126 424.4 1126 422.2 1126 421.8 1125.8 421.4 1125.8 421.2Z" fill="#000000" fill-rule="nonzero" fill-opacity="1"/></ns0:g></ns0:g></ns0:g></ns0:g></ns0:g></svg>
<svg x="69.356" y="62.983" width="5.000" height="5.052" viewBox="0 0 96 97" style="overflow:visible;filter:drop-shadow(1px 2px 3px rgba(0,0,0,0.22));"><ns0:g xmlns:ns0="http://www.w3.org/2000/svg" transform="translate(-1056 -368)"><ns0:g><ns0:g><ns0:g><ns0:g><ns0:path d="M1112 380C1112 384.418 1108.42 388 1104 388 1099.58 388 1096 384.418 1096 380 1096 375.582 1099.58 372 1104 372 1108.42 372 1112 375.582 1112 380Z" fill="#000000" fill-rule="nonzero" fill-opacity="1"/><ns0:path d="M1125.8 421.2 1120.2 397.4C1120 396.6 1119.6 395.8 1119 395.2 1116.6 393.2 1113.8 391.8 1110.6 390.8 1108.4 390.4 1106.2 390 1104 390 1101.8 390 1099.6 390.4 1097.4 391 1094.2 391.8 1091.4 393.4 1089 395.4 1088.4 396 1088 396.8 1087.8 397.6L1082.2 421.4C1082.2 421.6 1082 422 1082 422.4 1082 424.6 1083.8 426.4 1086 426.4 1087.8 426.4 1089.4 425 1089.8 423.4L1094 406 1094 462 1102 462 1102 426 1106 426 1106 462 1114 462 1114 405.8 1118.2 423.2C1118.6 424.8 1120.2 426.2 1122 426.2 1124.2 426.2 1126 424.4 1126 422.2 1126 421.8 1125.8 421.4 1125.8 421.2Z" fill="#000000" fill-rule="nonzero" fill-opacity="1"/></ns0:g></ns0:g></ns0:g></ns0:g></ns0:g></svg>
<svg x="74.131" y="62.257" width="5.000" height="4.949" viewBox="0 0 98 97" style="overflow:visible;filter:drop-shadow(1px 2px 3px rgba(0,0,0,0.22));"><ns0:g xmlns:ns0="http://www.w3.org/2000/svg" transform="translate(-954 -376)"><ns0:g><ns0:g><ns0:g><ns0:g><ns0:path d="M1011.1 388C1011.1 392.418 1007.52 396 1003.1 396 998.682 396 995.1 392.418 995.1 388 995.1 383.582 998.682 380 1003.1 380 1007.52 380 1011.1 383.582 1011.1 388Z" fill="#000000" fill-rule="nonzero" fill-opacity="1"/><ns0:path d="M1024.9 428.8 1017.7 404C1017.5 403 1016.9 402.2 1016.1 401.8 1013.7 400.2 1010.9 399.2 1007.7 398.4 1006.1 398.2 1004.7 398 1003.1 398 1001.5 398 1000.1 398.2 998.5 398.4 995.3 399 992.5 400.2 990.1 401.8 989.3 402.4 988.7 403 988.5 404L981.1 428.8C980.5 431 981.7 433.2 983.9 433.8 984.3 434 984.7 434 985.1 434 986.9 434 988.5 432.8 988.9 431.2L995.1 410.2 995.1 417.2 987.7 442 993.1 442 993.1 470 1001.1 470 1001.1 442 1005.1 442 1005.1 470 1013.1 470 1013.1 442 1018.5 442 1011.1 417.2 1011.1 410.2 1017.3 431.2C1017.9 433 1019.5 434 1021.1 434 1021.5 434 1021.9 434 1022.3 433.8 1024.3 433.2 1025.5 431 1024.9 428.8Z" fill="#000000" fill-rule="nonzero" fill-opacity="1"/></ns0:g></ns0:g></ns0:g></ns0:g></ns0:g></svg>
<svg x="80.252" y="62.088" width="5.000" height="4.949" viewBox="0 0 98 97" style="overflow:visible;filter:drop-shadow(1px 2px 3px rgba(0,0,0,0.22));"><ns0:g xmlns:ns0="http://www.w3.org/2000/svg" transform="translate(-954 -376)"><ns0:g><ns0:g><ns0:g><ns0:g><ns0:path d="M1011.1 388C1011.1 392.418 1007.52 396 1003.1 396 998.682 396 995.1 392.418 995.1 388 995.1 383.582 998.682 380 1003.1 380 1007.52 380 1011.1 383.582 1011.1 388Z" fill="#000000" fill-rule="nonzero" fill-opacity="1"/><ns0:path d="M1024.9 428.8 1017.7 404C1017.5 403 1016.9 402.2 1016.1 401.8 1013.7 400.2 1010.9 399.2 1007.7 398.4 1006.1 398.2 1004.7 398 1003.1 398 1001.5 398 1000.1 398.2 998.5 398.4 995.3 399 992.5 400.2 990.1 401.8 989.3 402.4 988.7 403 988.5 404L981.1 428.8C980.5 431 981.7 433.2 983.9 433.8 984.3 434 984.7 434 985.1 434 986.9 434 988.5 432.8 988.9 431.2L995.1 410.2 995.1 417.2 987.7 442 993.1 442 993.1 470 1001.1 470 1001.1 442 1005.1 442 1005.1 470 1013.1 470 1013.1 442 1018.5 442 1011.1 417.2 1011.1 410.2 1017.3 431.2C1017.9 433 1019.5 434 1021.1 434 1021.5 434 1021.9 434 1022.3 433.8 1024.3 433.2 1025.5 431 1024.9 428.8Z" fill="#000000" fill-rule="nonzero" fill-opacity="1"/></ns0:g></ns0:g></ns0:g></ns0:g></ns0:g></svg>
<svg x="13.535" y="69.901" width="5.000" height="5.052" viewBox="0 0 96 97" style="overflow:visible;filter:drop-shadow(1px 2px 3px rgba(0,0,0,0.22));"><ns0:g xmlns:ns0="http://www.w3.org/2000/svg" transform="translate(-1056 -368)"><ns0:g><ns0:g><ns0:g><ns0:g><ns0:path d="M1112 380C1112 384.418 1108.42 388 1104 388 1099.58 388 1096 384.418 1096 380 1096 375.582 1099.58 372 1104 372 1108.42 372 1112 375.582 1112 380Z" fill="#000000" fill-rule="nonzero" fill-opacity="1"/><ns0:path d="M1125.8 421.2 1120.2 397.4C1120 396.6 1119.6 395.8 1119 395.2 1116.6 393.2 1113.8 391.8 1110.6 390.8 1108.4 390.4 1106.2 390 1104 390 1101.8 390 1099.6 390.4 1097.4 391 1094.2 391.8 1091.4 393.4 1089 395.4 1088.4 396 1088 396.8 1087.8 397.6L1082.2 421.4C1082.2 421.6 1082 422 1082 422.4 1082 424.6 1083.8 426.4 1086 426.4 1087.8 426.4 1089.4 425 1089.8 423.4L1094 406 1094 462 1102 462 1102 426 1106 426 1106 462 1114 462 1114 405.8 1118.2 423.2C1118.6 424.8 1120.2 426.2 1122 426.2 1124.2 426.2 1126 424.4 1126 422.2 1126 421.8 1125.8 421.4 1125.8 421.2Z" fill="#000000" fill-rule="nonzero" fill-opacity="1"/></ns0:g></ns0:g></ns0:g></ns0:g></ns0:g></svg>
<svg x="21.121" y="69.673" width="5.000" height="4.949" viewBox="0 0 98 97" style="overflow:visible;filter:drop-shadow(1px 2px 3px rgba(0,0,0,0.22));"><ns0:g xmlns:ns0="http://www.w3.org/2000/svg" transform="translate(-954 -376)"><ns0:g><ns0:g><ns0:g><ns0:g><ns0:path d="M1011.1 388C1011.1 392.418 1007.52 396 1003.1 396 998.682 396 995.1 392.418 995.1 388 995.1 383.582 998.682 380 1003.1 380 1007.52 380 1011.1 383.582 1011.1 388Z" fill="#000000" fill-rule="nonzero" fill-opacity="1"/><ns0:path d="M1024.9 428.8 1017.7 404C1017.5 403 1016.9 402.2 1016.1 401.8 1013.7 400.2 1010.9 399.2 1007.7 398.4 1006.1 398.2 1004.7 398 1003.1 398 1001.5 398 1000.1 398.2 998.5 398.4 995.3 399 992.5 400.2 990.1 401.8 989.3 402.4 988.7 403 988.5 404L981.1 428.8C980.5 431 981.7 433.2 983.9 433.8 984.3 434 984.7 434 985.1 434 986.9 434 988.5 432.8 988.9 431.2L995.1 410.2 995.1 417.2 987.7 442 993.1 442 993.1 470 1001.1 470 1001.1 442 1005.1 442 1005.1 470 1013.1 470 1013.1 442 1018.5 442 1011.1 417.2 1011.1 410.2 1017.3 431.2C1017.9 433 1019.5 434 1021.1 434 1021.5 434 1021.9 434 1022.3 433.8 1024.3 433.2 1025.5 431 1024.9 428.8Z" fill="#000000" fill-rule="nonzero" fill-opacity="1"/></ns0:g></ns0:g></ns0:g></ns0:g></ns0:g></svg>
<svg x="26.828" y="70.053" width="5.000" height="5.052" viewBox="0 0 96 97" style="overflow:visible;filter:drop-shadow(1px 2px 3px rgba(0,0,0,0.22));"><ns0:g xmlns:ns0="http://www.w3.org/2000/svg" transform="translate(-1056 -368)"><ns0:g><ns0:g><ns0:g><ns0:g><ns0:path d="M1112 380C1112 384.418 1108.42 388 1104 388 1099.58 388 1096 384.418 1096 380 1096 375.582 1099.58 372 1104 372 1108.42 372 1112 375.582 1112 380Z" fill="#000000" fill-rule="nonzero" fill-opacity="1"/><ns0:path d="M1125.8 421.2 1120.2 397.4C1120 396.6 1119.6 395.8 1119 395.2 1116.6 393.2 1113.8 391.8 1110.6 390.8 1108.4 390.4 1106.2 390 1104 390 1101.8 390 1099.6 390.4 1097.4 391 1094.2 391.8 1091.4 393.4 1089 395.4 1088.4 396 1088 396.8 1087.8 397.6L1082.2 421.4C1082.2 421.6 1082 422 1082 422.4 1082 424.6 1083.8 426.4 1086 426.4 1087.8 426.4 1089.4 425 1089.8 423.4L1094 406 1094 462 1102 462 1102 426 1106 426 1106 462 1114 462 1114 405.8 1118.2 423.2C1118.6 424.8 1120.2 426.2 1122 426.2 1124.2 426.2 1126 424.4 1126 422.2 1126 421.8 1125.8 421.4 1125.8 421.2Z" fill="#000000" fill-rule="nonzero" fill-opacity="1"/></ns0:g></ns0:g></ns0:g></ns0:g></ns0:g></svg>
<svg x="32.268" y="71.057" width="5.000" height="4.949" viewBox="0 0 98 97" style="overflow:visible;filter:drop-shadow(1px 2px 3px rgba(0,0,0,0.22));"><ns0:g xmlns:ns0="http://www.w3.org/2000/svg" transform="translate(-954 -376)"><ns0:g><ns0:g><ns0:g><ns0:g><ns0:path d="M1011.1 388C1011.1 392.418 1007.52 396 1003.1 396 998.682 396 995.1 392.418 995.1 388 995.1 383.582 998.682 380 1003.1 380 1007.52 380 1011.1 383.582 1011.1 388Z" fill="#000000" fill-rule="nonzero" fill-opacity="1"/><ns0:path d="M1024.9 428.8 1017.7 404C1017.5 403 1016.9 402.2 1016.1 401.8 1013.7 400.2 1010.9 399.2 1007.7 398.4 1006.1 398.2 1004.7 398 1003.1 398 1001.5 398 1000.1 398.2 998.5 398.4 995.3 399 992.5 400.2 990.1 401.8 989.3 402.4 988.7 403 988.5 404L981.1 428.8C980.5 431 981.7 433.2 983.9 433.8 984.3 434 984.7 434 985.1 434 986.9 434 988.5 432.8 988.9 431.2L995.1 410.2 995.1 417.2 987.7 442 993.1 442 993.1 470 1001.1 470 1001.1 442 1005.1 442 1005.1 470 1013.1 470 1013.1 442 1018.5 442 1011.1 417.2 1011.1 410.2 1017.3 431.2C1017.9 433 1019.5 434 1021.1 434 1021.5 434 1021.9 434 1022.3 433.8 1024.3 433.2 1025.5 431 1024.9 428.8Z" fill="#000000" fill-rule="nonzero" fill-opacity="1"/></ns0:g></ns0:g></ns0:g></ns0:g></ns0:g></svg>
<svg x="39.263" y="70.254" width="5.000" height="5.052" viewBox="0 0 96 97" style="overflow:visible;filter:drop-shadow(1px 2px 3px rgba(0,0,0,0.22));"><ns0:g xmlns:ns0="http://www.w3.org/2000/svg" transform="translate(-1056 -368)"><ns0:g><ns0:g><ns0:g><ns0:g><ns0:path d="M1112 380C1112 384.418 1108.42 388 1104 388 1099.58 388 1096 384.418 1096 380 1096 375.582 1099.58 372 1104 372 1108.42 372 1112 375.582 1112 380Z" fill="#000000" fill-rule="nonzero" fill-opacity="1"/><ns0:path d="M1125.8 421.2 1120.2 397.4C1120 396.6 1119.6 395.8 1119 395.2 1116.6 393.2 1113.8 391.8 1110.6 390.8 1108.4 390.4 1106.2 390 1104 390 1101.8 390 1099.6 390.4 1097.4 391 1094.2 391.8 1091.4 393.4 1089 395.4 1088.4 396 1088 396.8 1087.8 397.6L1082.2 421.4C1082.2 421.6 1082 422 1082 422.4 1082 424.6 1083.8 426.4 1086 426.4 1087.8 426.4 1089.4 425 1089.8 423.4L1094 406 1094 462 1102 462 1102 426 1106 426 1106 462 1114 462 1114 405.8 1118.2 423.2C1118.6 424.8 1120.2 426.2 1122 426.2 1124.2 426.2 1126 424.4 1126 422.2 1126 421.8 1125.8 421.4 1125.8 421.2Z" fill="#000000" fill-rule="nonzero" fill-opacity="1"/></ns0:g></ns0:g></ns0:g></ns0:g></ns0:g></svg>
<svg x="44.843" y="69.452" width="5.000" height="5.052" viewBox="0 0 96 97" style="overflow:visible;filter:drop-shadow(1px 2px 3px rgba(0,0,0,0.22));"><ns0:g xmlns:ns0="http://www.w3.org/2000/svg" transform="translate(-1056 -368)"><ns0:g><ns0:g><ns0:g><ns0:g><ns0:path d="M1112 380C1112 384.418 1108.42 388 1104 388 1099.58 388 1096 384.418 1096 380 1096 375.582 1099.58 372 1104 372 1108.42 372 1112 375.582 1112 380Z" fill="#000000" fill-rule="nonzero" fill-opacity="1"/><ns0:path d="M1125.8 421.2 1120.2 397.4C1120 396.6 1119.6 395.8 1119 395.2 1116.6 393.2 1113.8 391.8 1110.6 390.8 1108.4 390.4 1106.2 390 1104 390 1101.8 390 1099.6 390.4 1097.4 391 1094.2 391.8 1091.4 393.4 1089 395.4 1088.4 396 1088 396.8 1087.8 397.6L1082.2 421.4C1082.2 421.6 1082 422 1082 422.4 1082 424.6 1083.8 426.4 1086 426.4 1087.8 426.4 1089.4 425 1089.8 423.4L1094 406 1094 462 1102 462 1102 426 1106 426 1106 462 1114 462 1114 405.8 1118.2 423.2C1118.6 424.8 1120.2 426.2 1122 426.2 1124.2 426.2 1126 424.4 1126 422.2 1126 421.8 1125.8 421.4 1125.8 421.2Z" fill="#000000" fill-rule="nonzero" fill-opacity="1"/></ns0:g></ns0:g></ns0:g></ns0:g></ns0:g></svg>
<svg x="50.182" y="71.08" width="5.000" height="5.052" viewBox="0 0 96 97" style="overflow:visible;filter:drop-shadow(1px 2px 3px rgba(0,0,0,0.22));"><ns0:g xmlns:ns0="http://www.w3.org/2000/svg" transform="translate(-1056 -368)"><ns0:g><ns0:g><ns0:g><ns0:g><ns0:path d="M1112 380C1112 384.418 1108.42 388 1104 388 1099.58 388 1096 384.418 1096 380 1096 375.582 1099.58 372 1104 372 1108.42 372 1112 375.582 1112 380Z" fill="#000000" fill-rule="nonzero" fill-opacity="1"/><ns0:path d="M1125.8 421.2 1120.2 397.4C1120 396.6 1119.6 395.8 1119 395.2 1116.6 393.2 1113.8 391.8 1110.6 390.8 1108.4 390.4 1106.2 390 1104 390 1101.8 390 1099.6 390.4 1097.4 391 1094.2 391.8 1091.4 393.4 1089 395.4 1088.4 396 1088 396.8 1087.8 397.6L1082.2 421.4C1082.2 421.6 1082 422 1082 422.4 1082 424.6 1083.8 426.4 1086 426.4 1087.8 426.4 1089.4 425 1089.8 423.4L1094 406 1094 462 1102 462 1102 426 1106 426 1106 462 1114 462 1114 405.8 1118.2 423.2C1118.6 424.8 1120.2 426.2 1122 426.2 1124.2 426.2 1126 424.4 1126 422.2 1126 421.8 1125.8 421.4 1125.8 421.2Z" fill="#000000" fill-rule="nonzero" fill-opacity="1"/></ns0:g></ns0:g></ns0:g></ns0:g></ns0:g></svg>
<svg x="56.694" y="70.227" width="5.000" height="5.052" viewBox="0 0 96 97" style="overflow:visible;filter:drop-shadow(1px 2px 3px rgba(0,0,0,0.22));"><ns0:g xmlns:ns0="http://www.w3.org/2000/svg" transform="translate(-1056 -368)"><ns0:g><ns0:g><ns0:g><ns0:g><ns0:path d="M1112 380C1112 384.418 1108.42 388 1104 388 1099.58 388 1096 384.418 1096 380 1096 375.582 1099.58 372 1104 372 1108.42 372 1112 375.582 1112 380Z" fill="#000000" fill-rule="nonzero" fill-opacity="1"/><ns0:path d="M1125.8 421.2 1120.2 397.4C1120 396.6 1119.6 395.8 1119 395.2 1116.6 393.2 1113.8 391.8 1110.6 390.8 1108.4 390.4 1106.2 390 1104 390 1101.8 390 1099.6 390.4 1097.4 391 1094.2 391.8 1091.4 393.4 1089 395.4 1088.4 396 1088 396.8 1087.8 397.6L1082.2 421.4C1082.2 421.6 1082 422 1082 422.4 1082 424.6 1083.8 426.4 1086 426.4 1087.8 426.4 1089.4 425 1089.8 423.4L1094 406 1094 462 1102 462 1102 426 1106 426 1106 462 1114 462 1114 405.8 1118.2 423.2C1118.6 424.8 1120.2 426.2 1122 426.2 1124.2 426.2 1126 424.4 1126 422.2 1126 421.8 1125.8 421.4 1125.8 421.2Z" fill="#000000" fill-rule="nonzero" fill-opacity="1"/></ns0:g></ns0:g></ns0:g></ns0:g></ns0:g></svg>
<svg x="63.017" y="69.257" width="5.000" height="5.052" viewBox="0 0 96 97" style="overflow:visible;filter:drop-shadow(1px 2px 3px rgba(0,0,0,0.22));"><ns0:g xmlns:ns0="http://www.w3.org/2000/svg" transform="translate(-1056 -368)"><ns0:g><ns0:g><ns0:g><ns0:g><ns0:path d="M1112 380C1112 384.418 1108.42 388 1104 388 1099.58 388 1096 384.418 1096 380 1096 375.582 1099.58 372 1104 372 1108.42 372 1112 375.582 1112 380Z" fill="#000000" fill-rule="nonzero" fill-opacity="1"/><ns0:path d="M1125.8 421.2 1120.2 397.4C1120 396.6 1119.6 395.8 1119 395.2 1116.6 393.2 1113.8 391.8 1110.6 390.8 1108.4 390.4 1106.2 390 1104 390 1101.8 390 1099.6 390.4 1097.4 391 1094.2 391.8 1091.4 393.4 1089 395.4 1088.4 396 1088 396.8 1087.8 397.6L1082.2 421.4C1082.2 421.6 1082 422 1082 422.4 1082 424.6 1083.8 426.4 1086 426.4 1087.8 426.4 1089.4 425 1089.8 423.4L1094 406 1094 462 1102 462 1102 426 1106 426 1106 462 1114 462 1114 405.8 1118.2 423.2C1118.6 424.8 1120.2 426.2 1122 426.2 1124.2 426.2 1126 424.4 1126 422.2 1126 421.8 1125.8 421.4 1125.8 421.2Z" fill="#000000" fill-rule="nonzero" fill-opacity="1"/></ns0:g></ns0:g></ns0:g></ns0:g></ns0:g></svg>
<svg x="68.786" y="70.149" width="5.000" height="5.052" viewBox="0 0 96 97" style="overflow:visible;filter:drop-shadow(1px 2px 3px rgba(0,0,0,0.22));"><ns0:g xmlns:ns0="http://www.w3.org/2000/svg" transform="translate(-1056 -368)"><ns0:g><ns0:g><ns0:g><ns0:g><ns0:path d="M1112 380C1112 384.418 1108.42 388 1104 388 1099.58 388 1096 384.418 1096 380 1096 375.582 1099.58 372 1104 372 1108.42 372 1112 375.582 1112 380Z" fill="#000000" fill-rule="nonzero" fill-opacity="1"/><ns0:path d="M1125.8 421.2 1120.2 397.4C1120 396.6 1119.6 395.8 1119 395.2 1116.6 393.2 1113.8 391.8 1110.6 390.8 1108.4 390.4 1106.2 390 1104 390 1101.8 390 1099.6 390.4 1097.4 391 1094.2 391.8 1091.4 393.4 1089 395.4 1088.4 396 1088 396.8 1087.8 397.6L1082.2 421.4C1082.2 421.6 1082 422 1082 422.4 1082 424.6 1083.8 426.4 1086 426.4 1087.8 426.4 1089.4 425 1089.8 423.4L1094 406 1094 462 1102 462 1102 426 1106 426 1106 462 1114 462 1114 405.8 1118.2 423.2C1118.6 424.8 1120.2 426.2 1122 426.2 1124.2 426.2 1126 424.4 1126 422.2 1126 421.8 1125.8 421.4 1125.8 421.2Z" fill="#000000" fill-rule="nonzero" fill-opacity="1"/></ns0:g></ns0:g></ns0:g></ns0:g></ns0:g></svg>
<svg x="75.275" y="69.458" width="5.000" height="5.052" viewBox="0 0 96 97" style="overflow:visible;filter:drop-shadow(1px 2px 3px rgba(0,0,0,0.22));"><ns0:g xmlns:ns0="http://www.w3.org/2000/svg" transform="translate(-1056 -368)"><ns0:g><ns0:g><ns0:g><ns0:g><ns0:path d="M1112 380C1112 384.418 1108.42 388 1104 388 1099.58 388 1096 384.418 1096 380 1096 375.582 1099.58 372 1104 372 1108.42 372 1112 375.582 1112 380Z" fill="#000000" fill-rule="nonzero" fill-opacity="1"/><ns0:path d="M1125.8 421.2 1120.2 397.4C1120 396.6 1119.6 395.8 1119 395.2 1116.6 393.2 1113.8 391.8 1110.6 390.8 1108.4 390.4 1106.2 390 1104 390 1101.8 390 1099.6 390.4 1097.4 391 1094.2 391.8 1091.4 393.4 1089 395.4 1088.4 396 1088 396.8 1087.8 397.6L1082.2 421.4C1082.2 421.6 1082 422 1082 422.4 1082 424.6 1083.8 426.4 1086 426.4 1087.8 426.4 1089.4 425 1089.8 423.4L1094 406 1094 462 1102 462 1102 426 1106 426 1106 462 1114 462 1114 405.8 1118.2 423.2C1118.6 424.8 1120.2 426.2 1122 426.2 1124.2 426.2 1126 424.4 1126 422.2 1126 421.8 1125.8 421.4 1125.8 421.2Z" fill="#000000" fill-rule="nonzero" fill-opacity="1"/></ns0:g></ns0:g></ns0:g></ns0:g></ns0:g></svg>
<svg x="81.497" y="69.303" width="5.000" height="4.949" viewBox="0 0 98 97" style="overflow:visible;filter:drop-shadow(1px 2px 3px rgba(0,0,0,0.22));"><ns0:g xmlns:ns0="http://www.w3.org/2000/svg" transform="translate(-954 -376)"><ns0:g><ns0:g><ns0:g><ns0:g><ns0:path d="M1011.1 388C1011.1 392.418 1007.52 396 1003.1 396 998.682 396 995.1 392.418 995.1 388 995.1 383.582 998.682 380 1003.1 380 1007.52 380 1011.1 383.582 1011.1 388Z" fill="#000000" fill-rule="nonzero" fill-opacity="1"/><ns0:path d="M1024.9 428.8 1017.7 404C1017.5 403 1016.9 402.2 1016.1 401.8 1013.7 400.2 1010.9 399.2 1007.7 398.4 1006.1 398.2 1004.7 398 1003.1 398 1001.5 398 1000.1 398.2 998.5 398.4 995.3 399 992.5 400.2 990.1 401.8 989.3 402.4 988.7 403 988.5 404L981.1 428.8C980.5 431 981.7 433.2 983.9 433.8 984.3 434 984.7 434 985.1 434 986.9 434 988.5 432.8 988.9 431.2L995.1 410.2 995.1 417.2 987.7 442 993.1 442 993.1 470 1001.1 470 1001.1 442 1005.1 442 1005.1 470 1013.1 470 1013.1 442 1018.5 442 1011.1 417.2 1011.1 410.2 1017.3 431.2C1017.9 433 1019.5 434 1021.1 434 1021.5 434 1021.9 434 1022.3 433.8 1024.3 433.2 1025.5 431 1024.9 428.8Z" fill="#000000" fill-rule="nonzero" fill-opacity="1"/></ns0:g></ns0:g></ns0:g></ns0:g></ns0:g></svg>
</svg>