<?xml version="1.0" encoding="UTF-8"?>
<svg id="Layer_1" xmlns="http://www.w3.org/2000/svg" version="1.1" viewBox="0 0 138 149.75">
  <!-- Generator: Adobe Illustrator 29.1.0, SVG Export Plug-In . SVG Version: 2.1.0 Build 142)  -->
  <defs>
    <style>
      .st0 {
        fill: #c2b048;
      }

      .st1 {
        fill: #dfce81;
      }

      .st2 {
        font-family: P22DaddyOJunkie, 'P22 Daddy O Junkie';
        font-size: 21px;
        stroke: #fff;
        stroke-miterlimit: 10;
        stroke-width: .25px;
      }

      .st3 {
        fill: #e4d799;
      }
    </style>
  </defs>
  <polygon class="st0" points="56.87 78.75 56.87 78.75 55.12 79.25 53.87 80 53.12 81 52.62 82 52.12 83 52.12 83.75 52.12 84.5 47.37 86.5 45.62 86.25 43.87 85.75 42.12 85 42.87 86.75 43.37 87.5 43.87 87.5 44.87 88 46.12 88.25 47.37 88.5 48.37 88.25 49.37 88 50.37 87.75 52.37 86.75 53.87 85 55.12 83.25 56.12 81 56.87 78.75"/>
  <polygon class="st0" points="42.37 96.25 42.37 96.25 39.12 93.75 37.37 92 35.87 90.5 34.87 89 34.12 87.5 33.37 85.75 33.12 84.25 32.87 82.75 32.87 81 33.12 79.75 33.62 78.5 34.12 77.5 34.62 76.5 35.12 76.25 34.37 76.5 33.62 77.25 32.87 78.25 32.37 79.25 32.12 80.5 31.87 81.75 31.62 83.5 31.87 85 32.12 86.5 32.62 88.25 33.12 89.75 34.37 91.5 35.62 93 37.37 94.75 40.62 97.25 41.62 98 42.87 98.5 45.12 99.25 47.37 99.75 49.62 99.5 51.37 99.5 52.87 99 53.87 98.75 55.37 98 58.62 96.25 56.12 97.5 55.12 98 54.12 98.25 52.62 98.5 51.12 98.75 49.12 98.75 46.87 98.5 44.62 97.75 42.37 96.25"/>
  <polygon class="st1" points="64.62 88.25 64.62 88.25 64.37 86 64.12 84 63.37 82.25 62.62 80.75 61.62 79.75 60.37 79 59.12 78.5 57.62 78.25 55.62 79.25 54.37 80.25 53.87 81.25 53.87 82.5 53.87 83.5 53.62 84.5 53.12 85.5 52.12 86.5 50.37 87.5 48.12 88.25 47.12 88.25 46.12 88.25 44.87 88 43.87 87.5 43.37 87.5 42.87 86.75 42.12 85 41.37 84.25 40.62 83.25 39.62 81.75 39.12 80 38.12 78 37.12 76.75 36.12 76.25 35.12 76.25 34.62 76.5 34.12 77.5 33.62 78.5 33.12 79.75 32.87 81 32.87 82.75 33.12 84.25 33.37 85.75 34.12 87.5 34.87 89 35.87 90.5 37.37 92 39.12 93.75 42.37 96.25 44.62 97.75 46.87 98.5 49.12 98.75 51.12 98.75 52.62 98.5 54.12 98.25 55.12 98 56.12 97.5 58.62 96.25 60.62 94.75 62.62 93 63.37 91.75 63.87 90.75 64.37 89.5 64.62 88.25"/>
  <polygon class="st0" points="32.62 83.25 32.62 83.25 32.87 82.5 33.62 81.25 34.12 80.5 34.87 79.75 35.62 79.25 36.87 79 36.37 79.5 35.12 80.75 34.37 81.75 33.87 82.75 33.62 84 33.62 85.5 33.87 85 34.37 84 35.37 83 36.12 82.75 36.87 82.5 36.37 83 35.37 84 34.37 85.75 34.12 86.75 34.12 87.75 33.62 87.75 33.12 86.75 32.87 86.25 32.62 85.5 32.62 84.5 32.62 83.25"/>
  <polygon class="st0" points="71.32 55.25 71.32 55.25 72.32 56.75 73.57 57.75 74.57 58.25 75.57 58.5 76.57 58.5 77.57 58.5 78.32 58.5 81.32 62.5 81.57 64.25 81.57 66 81.07 67.75 82.82 66.5 83.07 66 83.32 65.75 83.32 64.25 83.32 63.25 83.07 62 82.82 61 82.32 60 81.82 59.25 80.32 57.75 78.32 56.5 76.07 55.75 73.82 55.25 71.32 55.25"/>
  <polygon class="st0" points="92.07 64.75 92.07 64.75 90.32 68.5 89.32 70.75 88.07 72.5 86.82 74 85.57 75.25 84.32 76 82.82 76.75 81.32 77.25 79.82 77.75 78.32 77.75 77.07 77.75 75.82 77.5 74.82 77.25 74.32 77 75.07 77.75 75.82 78.25 76.82 78.5 78.07 78.75 79.32 78.75 80.57 78.75 82.32 78.25 83.82 77.75 85.32 77.25 86.82 76.25 88.07 75.25 89.32 73.75 90.57 72.25 91.82 70 93.32 66.25 93.82 65 94.07 63.75 94.32 61.25 94.07 59 93.32 57 92.82 55.25 92.07 54 91.32 53 90.57 51.75 88.07 49 89.82 51.25 90.32 52 91.07 53 91.57 54.25 92.32 55.75 92.82 57.5 93.07 59.75 92.82 62.25 92.07 64.75"/>
  <polygon class="st1" points="78.57 45.5 78.57 45.5 76.32 46 74.57 47 73.07 48 71.82 49 71.07 50.25 70.57 51.75 70.57 53.25 70.82 54.75 72.32 56.25 73.57 57 74.57 57.25 75.57 57.25 76.57 57 77.82 56.75 78.82 57 80.07 58 81.57 59.25 82.82 61.25 83.07 62.25 83.32 63.25 83.32 64.5 83.32 65.75 83.07 66 82.82 66.5 81.07 67.75 80.57 68.75 79.82 70 78.57 71 77.32 72 75.57 73.5 74.57 74.75 74.07 76 74.32 77 74.82 77.25 75.82 77.5 77.07 77.75 78.32 77.75 79.82 77.75 81.32 77.25 82.82 76.75 84.32 76 85.57 75.25 86.82 74 88.07 72.5 89.32 70.75 90.32 68.5 92.07 64.75 92.82 62.25 93.07 59.75 92.82 57.5 92.32 55.75 91.57 54.25 91.07 53 90.32 52 89.82 51.25 88.07 49 86.07 47.5 83.57 46 82.32 45.5 81.07 45.25 79.82 45.25 78.57 45.5"/>
  <polygon class="st3" points="83.07 50 83.07 50 80.82 49.75 79.57 49.75 78.82 49.75 77.82 50 77.32 50.5 77.32 51.25 77.32 52.25 78.32 53.5 79.07 54.25 80.07 54.75 80.82 55 81.82 55.5 82.82 56 83.82 57 84.82 58.5 85.57 59.5 86.07 60.75 86.32 62.25 86.57 63.75 86.32 64.5 85.82 65.25 85.32 66.5 84.32 67.75 83.57 68.5 83.32 69.5 83.32 70.25 83.32 70.75 83.57 71 84.32 71.25 85.07 71 86.07 70.5 87.07 69.75 88.07 68.5 89.07 67.25 89.82 65.75 90.32 63.75 90.57 62.25 90.32 60.5 89.82 57.75 89.07 56 88.82 55.25 87.57 53.25 86.57 52 85.32 51.25 84.32 50.5 83.07 50"/>
  <polygon class="st0" points="81.82 77.5 81.82 77.5 81.07 77.5 79.57 77.25 78.82 76.75 78.07 76.25 77.32 75.5 76.82 74.5 77.32 75 79.07 75.75 80.07 76.25 81.32 76.25 82.57 76.5 83.82 76 83.32 76 82.07 75.5 81.07 74.75 80.57 74.25 80.32 73.5 80.57 74 81.82 74.5 83.82 75 84.82 75.25 86.07 75 85.82 75.25 85.32 76.25 84.82 76.75 84.07 77 83.07 77.25 81.82 77.5"/>
  <text class="st2" transform="translate(10.33 125.19)"><tspan x="0" y="0">CASHEWS</tspan></text>
</svg>