<?xml version="1.0" encoding="UTF-8"?>
<svg xmlns="http://www.w3.org/2000/svg" xmlns:xlink="http://www.w3.org/1999/xlink" width="140.2382pt" height="105.9578pt" viewBox="0 0 140.2382 105.9578">
<defs>
<clipPath id="clip-0">
<path clip-rule="nonzero" d="M 0 0 L 140.238281 0 L 140.238281 105.957031 L 0 105.957031 Z M 0 0 "/>
</clipPath>
<clipPath id="clip-1">
<path clip-rule="nonzero" d="M 40 1.65625 L 41 1.65625 L 41 96.113281 L 40 96.113281 Z M 40 1.65625 "/>
</clipPath>
<clipPath id="clip-2">
<path clip-rule="nonzero" d="M 67 1.65625 L 68 1.65625 L 68 96.113281 L 67 96.113281 Z M 67 1.65625 "/>
</clipPath>
<clipPath id="clip-3">
<path clip-rule="nonzero" d="M 93 1.65625 L 95 1.65625 L 95 96.113281 L 93 96.113281 Z M 93 1.65625 "/>
</clipPath>
<clipPath id="clip-4">
<path clip-rule="nonzero" d="M 120 1.65625 L 121 1.65625 L 121 96.113281 L 120 96.113281 Z M 120 1.65625 "/>
</clipPath>
<clipPath id="clip-5">
<path clip-rule="nonzero" d="M 27.070312 91 L 134.082031 91 L 134.082031 92 L 27.070312 92 Z M 27.070312 91 "/>
</clipPath>
<clipPath id="clip-6">
<path clip-rule="nonzero" d="M 27.070312 76 L 134.082031 76 L 134.082031 77 L 27.070312 77 Z M 27.070312 76 "/>
</clipPath>
<clipPath id="clip-7">
<path clip-rule="nonzero" d="M 27.070312 60 L 134.082031 60 L 134.082031 61 L 27.070312 61 Z M 27.070312 60 "/>
</clipPath>
<clipPath id="clip-8">
<path clip-rule="nonzero" d="M 27.070312 44 L 134.082031 44 L 134.082031 45 L 27.070312 45 Z M 27.070312 44 "/>
</clipPath>
<clipPath id="clip-9">
<path clip-rule="nonzero" d="M 27.070312 29 L 134.082031 29 L 134.082031 30 L 27.070312 30 Z M 27.070312 29 "/>
</clipPath>
<clipPath id="clip-10">
<path clip-rule="nonzero" d="M 27.070312 13 L 134.082031 13 L 134.082031 14 L 27.070312 14 Z M 27.070312 13 "/>
</clipPath>
<clipPath id="clip-11">
<path clip-rule="nonzero" d="M 27.070312 79 L 131 79 L 131 92 L 27.070312 92 Z M 27.070312 79 "/>
</clipPath>
<clipPath id="clip-12">
<path clip-rule="nonzero" d="M 27.070312 5 L 134.082031 5 L 134.082031 92 L 27.070312 92 Z M 27.070312 5 "/>
</clipPath>
<clipPath id="clip-13">
<path clip-rule="nonzero" d="M 27.070312 83 L 134.082031 83 L 134.082031 92 L 27.070312 92 Z M 27.070312 83 "/>
</clipPath>
<clipPath id="clip-14">
<path clip-rule="nonzero" d="M 27.070312 79 L 131 79 L 131 93 L 27.070312 93 Z M 27.070312 79 "/>
</clipPath>
<clipPath id="clip-15">
<path clip-rule="nonzero" d="M 27.070312 22 L 134.082031 22 L 134.082031 93 L 27.070312 93 Z M 27.070312 22 "/>
</clipPath>
<clipPath id="clip-16">
<path clip-rule="nonzero" d="M 27.070312 84 L 134.082031 84 L 134.082031 93 L 27.070312 93 Z M 27.070312 84 "/>
</clipPath>
<clipPath id="clip-17">
<path clip-rule="nonzero" d="M 12 98 L 27 98 L 27 105.957031 L 12 105.957031 Z M 12 98 "/>
</clipPath>
<clipPath id="clip-18">
<path clip-rule="nonzero" d="M 9.632812 96 L 29.71875 96 L 29.71875 105.957031 L 9.632812 105.957031 Z M 9.632812 96 "/>
</clipPath>
</defs>
<g clip-path="url(#clip-0)">
<rect x="-14.02382" y="-10.59578" width="168.28584" height="127.14936" fill="rgb(100%, 100%, 100%)" fill-opacity="1"/>
<rect x="-14.02382" y="-10.59578" width="168.28584" height="127.14936" fill="rgb(100%, 100%, 100%)" fill-opacity="1"/>
</g>
<path fill-rule="nonzero" fill="rgb(100%, 100%, 100%)" fill-opacity="1" d="M 27.070312 96.113281 L 134.082031 96.113281 L 134.082031 1.65625 L 27.070312 1.65625 Z M 27.070312 96.113281 "/>
<g clip-path="url(#clip-1)">
<path fill="none" stroke-width="0.5" stroke-linecap="square" stroke-linejoin="round" stroke="rgb(69.020081%, 69.020081%, 69.020081%)" stroke-opacity="1" stroke-miterlimit="10" d="M 1603.559157 1599.609335 L 1603.559157 2051.99777 " transform="matrix(0.208796, 0, 0, -0.208796, -294.368, 430.105792)"/>
</g>
<path fill="none" stroke-width="1.5" stroke-linecap="butt" stroke-linejoin="round" stroke="rgb(0%, 0%, 0%)" stroke-opacity="1" stroke-miterlimit="10" d="M 1603.559157 1599.609335 L 1603.559157 1593.622639 " transform="matrix(0.208796, 0, 0, -0.208796, -294.368, 430.105792)"/>
<path fill-rule="nonzero" fill="rgb(0%, 0%, 0%)" fill-opacity="1" d="M 37.457031 98.695312 C 37.140625 98.695312 36.902344 98.851562 36.738281 99.167969 C 36.574219 99.480469 36.5 99.949219 36.5 100.574219 C 36.5 101.203125 36.574219 101.671875 36.738281 101.984375 C 36.902344 102.296875 37.140625 102.453125 37.457031 102.453125 C 37.777344 102.453125 38.015625 102.296875 38.179688 101.984375 C 38.335938 101.671875 38.417969 101.203125 38.417969 100.574219 C 38.417969 99.949219 38.335938 99.480469 38.179688 99.167969 C 38.015625 98.851562 37.777344 98.695312 37.457031 98.695312 Z M 37.457031 98.207031 C 37.964844 98.207031 38.355469 98.414062 38.628906 98.816406 C 38.898438 99.222656 39.035156 99.8125 39.035156 100.574219 C 39.035156 101.347656 38.898438 101.933594 38.628906 102.335938 C 38.355469 102.738281 37.964844 102.9375 37.453125 102.9375 C 36.9375 102.9375 36.550781 102.738281 36.28125 102.335938 C 36.011719 101.933594 35.878906 101.347656 35.878906 100.574219 C 35.878906 99.8125 36.011719 99.222656 36.28125 98.816406 C 36.550781 98.414062 36.945312 98.207031 37.457031 98.207031 Z M 37.457031 98.207031 "/>
<path fill-rule="nonzero" fill="rgb(0%, 0%, 0%)" fill-opacity="1" d="M 40.121094 102.855469 L 40.765625 102.855469 L 40.765625 102.078125 L 40.121094 102.078125 Z M 40.121094 102.855469 "/>
<path fill-rule="nonzero" fill="rgb(0%, 0%, 0%)" fill-opacity="1" d="M 42.644531 102.335938 L 44.800781 102.335938 L 44.800781 102.855469 L 41.898438 102.855469 L 41.898438 102.335938 C 42.132812 102.097656 42.449219 101.773438 42.859375 101.359375 C 43.257812 100.953125 43.515625 100.6875 43.621094 100.570312 C 43.824219 100.351562 43.960938 100.164062 44.035156 100.003906 C 44.109375 99.855469 44.15625 99.699219 44.15625 99.546875 C 44.15625 99.308594 44.066406 99.109375 43.898438 98.960938 C 43.730469 98.808594 43.507812 98.726562 43.234375 98.726562 C 43.039062 98.726562 42.832031 98.765625 42.621094 98.828125 C 42.40625 98.898438 42.175781 98.996094 41.929688 99.136719 L 41.929688 98.507812 C 42.179688 98.410156 42.414062 98.332031 42.625 98.28125 C 42.839844 98.234375 43.039062 98.207031 43.222656 98.207031 C 43.691406 98.207031 44.066406 98.328125 44.347656 98.566406 C 44.628906 98.804688 44.773438 99.117188 44.773438 99.511719 C 44.773438 99.699219 44.738281 99.878906 44.667969 100.042969 C 44.597656 100.210938 44.472656 100.414062 44.285156 100.636719 C 44.234375 100.699219 44.074219 100.871094 43.796875 101.152344 C 43.523438 101.433594 43.140625 101.828125 42.644531 102.335938 Z M 42.644531 102.335938 "/>
<g clip-path="url(#clip-2)">
<path fill="none" stroke-width="0.5" stroke-linecap="square" stroke-linejoin="round" stroke="rgb(69.020081%, 69.020081%, 69.020081%)" stroke-opacity="1" stroke-miterlimit="10" d="M 1731.674454 1599.609335 L 1731.674454 2051.99777 " transform="matrix(0.208796, 0, 0, -0.208796, -294.368, 430.105792)"/>
</g>
<path fill="none" stroke-width="1.5" stroke-linecap="butt" stroke-linejoin="round" stroke="rgb(0%, 0%, 0%)" stroke-opacity="1" stroke-miterlimit="10" d="M 1731.674454 1599.609335 L 1731.674454 1593.622639 " transform="matrix(0.208796, 0, 0, -0.208796, -294.368, 430.105792)"/>
<path fill-rule="nonzero" fill="rgb(0%, 0%, 0%)" fill-opacity="1" d="M 64.210938 98.695312 C 63.890625 98.695312 63.652344 98.851562 63.492188 99.167969 C 63.328125 99.480469 63.253906 99.949219 63.253906 100.574219 C 63.253906 101.203125 63.328125 101.671875 63.492188 101.984375 C 63.652344 102.296875 63.890625 102.453125 64.210938 102.453125 C 64.53125 102.453125 64.769531 102.296875 64.929688 101.984375 C 65.089844 101.671875 65.167969 101.203125 65.167969 100.574219 C 65.167969 99.949219 65.089844 99.480469 64.929688 99.167969 C 64.769531 98.851562 64.53125 98.695312 64.210938 98.695312 Z M 64.210938 98.207031 C 64.71875 98.207031 65.105469 98.414062 65.382812 98.816406 C 65.652344 99.222656 65.789062 99.8125 65.789062 100.574219 C 65.789062 101.347656 65.652344 101.933594 65.382812 102.335938 C 65.105469 102.738281 64.71875 102.9375 64.203125 102.9375 C 63.691406 102.9375 63.300781 102.738281 63.035156 102.335938 C 62.765625 101.933594 62.632812 101.347656 62.632812 100.574219 C 62.632812 99.8125 62.765625 99.222656 63.035156 98.816406 C 63.300781 98.414062 63.699219 98.207031 64.210938 98.207031 Z M 64.210938 98.207031 "/>
<path fill-rule="nonzero" fill="rgb(0%, 0%, 0%)" fill-opacity="1" d="M 66.875 102.855469 L 67.519531 102.855469 L 67.519531 102.078125 L 66.875 102.078125 Z M 66.875 102.855469 "/>
<path fill-rule="nonzero" fill="rgb(0%, 0%, 0%)" fill-opacity="1" d="M 70.5625 98.828125 L 69.003906 101.265625 L 70.5625 101.265625 Z M 70.398438 98.289062 L 71.175781 98.289062 L 71.175781 101.265625 L 71.828125 101.265625 L 71.828125 101.777344 L 71.175781 101.777344 L 71.175781 102.855469 L 70.5625 102.855469 L 70.5625 101.777344 L 68.5 101.777344 L 68.5 101.183594 Z M 70.398438 98.289062 "/>
<g clip-path="url(#clip-3)">
<path fill="none" stroke-width="0.5" stroke-linecap="square" stroke-linejoin="round" stroke="rgb(69.020081%, 69.020081%, 69.020081%)" stroke-opacity="1" stroke-miterlimit="10" d="M 1859.808459 1599.609335 L 1859.808459 2051.99777 " transform="matrix(0.208796, 0, 0, -0.208796, -294.368, 430.105792)"/>
</g>
<path fill="none" stroke-width="1.5" stroke-linecap="butt" stroke-linejoin="round" stroke="rgb(0%, 0%, 0%)" stroke-opacity="1" stroke-miterlimit="10" d="M 1859.808459 1599.609335 L 1859.808459 1593.622639 " transform="matrix(0.208796, 0, 0, -0.208796, -294.368, 430.105792)"/>
<path fill-rule="nonzero" fill="rgb(0%, 0%, 0%)" fill-opacity="1" d="M 90.964844 98.695312 C 90.644531 98.695312 90.40625 98.851562 90.242188 99.167969 C 90.082031 99.480469 90.003906 99.949219 90.003906 100.574219 C 90.003906 101.203125 90.082031 101.671875 90.242188 101.984375 C 90.40625 102.296875 90.644531 102.453125 90.964844 102.453125 C 91.28125 102.453125 91.519531 102.296875 91.683594 101.984375 C 91.839844 101.671875 91.921875 101.203125 91.921875 100.574219 C 91.921875 99.949219 91.839844 99.480469 91.683594 99.167969 C 91.519531 98.851562 91.28125 98.695312 90.964844 98.695312 Z M 90.964844 98.207031 C 91.472656 98.207031 91.859375 98.414062 92.136719 98.816406 C 92.402344 99.222656 92.542969 99.8125 92.542969 100.574219 C 92.542969 101.347656 92.402344 101.933594 92.136719 102.335938 C 91.859375 102.738281 91.472656 102.9375 90.957031 102.9375 C 90.445312 102.9375 90.054688 102.738281 89.785156 102.335938 C 89.515625 101.933594 89.386719 101.347656 89.386719 100.574219 C 89.386719 99.8125 89.515625 99.222656 89.785156 98.816406 C 90.054688 98.414062 90.449219 98.207031 90.964844 98.207031 Z M 90.964844 98.207031 "/>
<path fill-rule="nonzero" fill="rgb(0%, 0%, 0%)" fill-opacity="1" d="M 93.625 102.855469 L 94.269531 102.855469 L 94.269531 102.078125 L 93.625 102.078125 Z M 93.625 102.855469 "/>
<path fill-rule="nonzero" fill="rgb(0%, 0%, 0%)" fill-opacity="1" d="M 97.015625 100.324219 C 96.738281 100.324219 96.519531 100.425781 96.355469 100.613281 C 96.195312 100.800781 96.113281 101.0625 96.113281 101.390625 C 96.113281 101.722656 96.195312 101.984375 96.355469 102.171875 C 96.519531 102.359375 96.738281 102.453125 97.015625 102.453125 C 97.289062 102.453125 97.507812 102.359375 97.671875 102.171875 C 97.835938 101.984375 97.917969 101.722656 97.917969 101.390625 C 97.917969 101.0625 97.835938 100.800781 97.671875 100.613281 C 97.507812 100.425781 97.289062 100.324219 97.015625 100.324219 Z M 98.242188 98.390625 L 98.242188 98.953125 C 98.085938 98.878906 97.929688 98.820312 97.773438 98.785156 C 97.609375 98.746094 97.453125 98.726562 97.300781 98.726562 C 96.890625 98.726562 96.574219 98.867188 96.363281 99.140625 C 96.148438 99.417969 96.023438 99.835938 96 100.386719 C 96.117188 100.210938 96.269531 100.074219 96.449219 99.980469 C 96.632812 99.886719 96.832031 99.835938 97.050781 99.835938 C 97.507812 99.835938 97.871094 99.980469 98.136719 100.257812 C 98.398438 100.53125 98.535156 100.914062 98.535156 101.390625 C 98.535156 101.859375 98.390625 102.234375 98.117188 102.515625 C 97.839844 102.800781 97.472656 102.9375 97.015625 102.9375 C 96.488281 102.9375 96.082031 102.738281 95.804688 102.335938 C 95.523438 101.933594 95.386719 101.347656 95.386719 100.574219 C 95.386719 99.855469 95.554688 99.277344 95.898438 98.851562 C 96.238281 98.425781 96.699219 98.207031 97.277344 98.207031 C 97.425781 98.207031 97.585938 98.226562 97.746094 98.25 C 97.902344 98.28125 98.066406 98.328125 98.242188 98.390625 Z M 98.242188 98.390625 "/>
<g clip-path="url(#clip-4)">
<path fill="none" stroke-width="0.5" stroke-linecap="square" stroke-linejoin="round" stroke="rgb(69.020081%, 69.020081%, 69.020081%)" stroke-opacity="1" stroke-miterlimit="10" d="M 1987.942465 1599.609335 L 1987.942465 2051.99777 " transform="matrix(0.208796, 0, 0, -0.208796, -294.368, 430.105792)"/>
</g>
<path fill="none" stroke-width="1.5" stroke-linecap="butt" stroke-linejoin="round" stroke="rgb(0%, 0%, 0%)" stroke-opacity="1" stroke-miterlimit="10" d="M 1987.942465 1599.609335 L 1987.942465 1593.622639 " transform="matrix(0.208796, 0, 0, -0.208796, -294.368, 430.105792)"/>
<path fill-rule="nonzero" fill="rgb(0%, 0%, 0%)" fill-opacity="1" d="M 117.714844 98.695312 C 117.398438 98.695312 117.160156 98.851562 116.996094 99.167969 C 116.832031 99.480469 116.757812 99.949219 116.757812 100.574219 C 116.757812 101.203125 116.832031 101.671875 116.996094 101.984375 C 117.160156 102.296875 117.398438 102.453125 117.714844 102.453125 C 118.035156 102.453125 118.273438 102.296875 118.4375 101.984375 C 118.59375 101.671875 118.675781 101.203125 118.675781 100.574219 C 118.675781 99.949219 118.59375 99.480469 118.4375 99.167969 C 118.273438 98.851562 118.035156 98.695312 117.714844 98.695312 Z M 117.714844 98.207031 C 118.222656 98.207031 118.613281 98.414062 118.886719 98.816406 C 119.15625 99.222656 119.292969 99.8125 119.292969 100.574219 C 119.292969 101.347656 119.15625 101.933594 118.886719 102.335938 C 118.613281 102.738281 118.222656 102.9375 117.710938 102.9375 C 117.195312 102.9375 116.808594 102.738281 116.539062 102.335938 C 116.269531 101.933594 116.136719 101.347656 116.136719 100.574219 C 116.136719 99.8125 116.269531 99.222656 116.539062 98.816406 C 116.808594 98.414062 117.203125 98.207031 117.714844 98.207031 Z M 117.714844 98.207031 "/>
<path fill-rule="nonzero" fill="rgb(0%, 0%, 0%)" fill-opacity="1" d="M 120.378906 102.855469 L 121.023438 102.855469 L 121.023438 102.078125 L 120.378906 102.078125 Z M 120.378906 102.855469 "/>
<path fill-rule="nonzero" fill="rgb(0%, 0%, 0%)" fill-opacity="1" d="M 123.691406 100.6875 C 123.398438 100.6875 123.164062 100.769531 122.996094 100.925781 C 122.828125 101.082031 122.746094 101.296875 122.746094 101.570312 C 122.746094 101.847656 122.828125 102.066406 122.996094 102.222656 C 123.164062 102.378906 123.398438 102.453125 123.691406 102.453125 C 123.980469 102.453125 124.210938 102.378906 124.378906 102.214844 C 124.550781 102.058594 124.636719 101.847656 124.636719 101.570312 C 124.636719 101.296875 124.550781 101.082031 124.386719 100.925781 C 124.21875 100.769531 123.984375 100.6875 123.691406 100.6875 Z M 123.070312 100.425781 C 122.808594 100.363281 122.601562 100.238281 122.453125 100.054688 C 122.300781 99.875 122.230469 99.65625 122.230469 99.390625 C 122.230469 99.027344 122.359375 98.742188 122.621094 98.527344 C 122.878906 98.3125 123.234375 98.207031 123.691406 98.207031 C 124.144531 98.207031 124.5 98.3125 124.761719 98.527344 C 125.019531 98.742188 125.152344 99.027344 125.152344 99.390625 C 125.152344 99.65625 125.074219 99.875 124.925781 100.054688 C 124.773438 100.238281 124.574219 100.363281 124.3125 100.425781 C 124.605469 100.492188 124.839844 100.632812 125.007812 100.832031 C 125.167969 101.03125 125.257812 101.285156 125.257812 101.570312 C 125.257812 102.015625 125.121094 102.355469 124.851562 102.585938 C 124.574219 102.824219 124.1875 102.9375 123.683594 102.9375 C 123.183594 102.9375 122.796875 102.824219 122.527344 102.585938 C 122.257812 102.355469 122.125 102.015625 122.125 101.570312 C 122.125 101.285156 122.207031 101.03125 122.375 100.832031 C 122.539062 100.632812 122.769531 100.492188 123.070312 100.425781 Z M 122.847656 99.449219 C 122.847656 99.6875 122.914062 99.875 123.066406 100.003906 C 123.214844 100.136719 123.421875 100.199219 123.691406 100.199219 C 123.953125 100.199219 124.160156 100.136719 124.3125 100.003906 C 124.460938 99.875 124.539062 99.6875 124.539062 99.449219 C 124.539062 99.210938 124.460938 99.027344 124.3125 98.898438 C 124.160156 98.765625 123.953125 98.695312 123.691406 98.695312 C 123.421875 98.695312 123.214844 98.765625 123.066406 98.898438 C 122.914062 99.027344 122.847656 99.210938 122.847656 99.449219 Z M 122.847656 99.449219 "/>
<g clip-path="url(#clip-5)">
<path fill="none" stroke-width="0.5" stroke-linecap="square" stroke-linejoin="round" stroke="rgb(69.020081%, 69.020081%, 69.020081%)" stroke-opacity="1" stroke-miterlimit="10" d="M 1539.4828 1620.169895 L 2052.000113 1620.169895 " transform="matrix(0.208796, 0, 0, -0.208796, -294.368, 430.105792)"/>
</g>
<path fill="none" stroke-width="1.5" stroke-linecap="butt" stroke-linejoin="round" stroke="rgb(0%, 0%, 0%)" stroke-opacity="1" stroke-miterlimit="10" d="M 1539.4828 1620.169895 L 1533.496104 1620.169895 " transform="matrix(0.208796, 0, 0, -0.208796, -294.368, 430.105792)"/>
<path fill-rule="nonzero" fill="rgb(0%, 0%, 0%)" fill-opacity="1" d="M 17.117188 90.039062 C 16.796875 90.039062 16.558594 90.195312 16.398438 90.507812 C 16.234375 90.824219 16.160156 91.292969 16.160156 91.917969 C 16.160156 92.546875 16.234375 93.015625 16.398438 93.328125 C 16.558594 93.640625 16.796875 93.796875 17.117188 93.796875 C 17.4375 93.796875 17.675781 93.640625 17.835938 93.328125 C 17.992188 93.015625 18.074219 92.546875 18.074219 91.917969 C 18.074219 91.292969 17.992188 90.824219 17.835938 90.507812 C 17.675781 90.195312 17.4375 90.039062 17.117188 90.039062 Z M 17.117188 89.550781 C 17.625 89.550781 18.011719 89.757812 18.289062 90.160156 C 18.558594 90.566406 18.695312 91.15625 18.695312 91.917969 C 18.695312 92.6875 18.558594 93.277344 18.289062 93.679688 C 18.011719 94.078125 17.625 94.28125 17.109375 94.28125 C 16.597656 94.28125 16.207031 94.078125 15.9375 93.679688 C 15.667969 93.277344 15.539062 92.6875 15.539062 91.917969 C 15.539062 91.15625 15.667969 90.566406 15.9375 90.160156 C 16.207031 89.757812 16.601562 89.550781 17.117188 89.550781 Z M 17.117188 89.550781 "/>
<path fill-rule="nonzero" fill="rgb(0%, 0%, 0%)" fill-opacity="1" d="M 19.777344 94.199219 L 20.425781 94.199219 L 20.425781 93.421875 L 19.777344 93.421875 Z M 19.777344 94.199219 "/>
<path fill-rule="nonzero" fill="rgb(0%, 0%, 0%)" fill-opacity="1" d="M 23.09375 90.039062 C 22.773438 90.039062 22.535156 90.195312 22.371094 90.507812 C 22.210938 90.824219 22.132812 91.292969 22.132812 91.917969 C 22.132812 92.546875 22.210938 93.015625 22.371094 93.328125 C 22.535156 93.640625 22.773438 93.796875 23.09375 93.796875 C 23.410156 93.796875 23.648438 93.640625 23.8125 93.328125 C 23.96875 93.015625 24.050781 92.546875 24.050781 91.917969 C 24.050781 91.292969 23.96875 90.824219 23.8125 90.507812 C 23.648438 90.195312 23.410156 90.039062 23.09375 90.039062 Z M 23.09375 89.550781 C 23.601562 89.550781 23.988281 89.757812 24.265625 90.160156 C 24.535156 90.566406 24.671875 91.15625 24.671875 91.917969 C 24.671875 92.6875 24.535156 93.277344 24.265625 93.679688 C 23.988281 94.078125 23.601562 94.28125 23.085938 94.28125 C 22.574219 94.28125 22.183594 94.078125 21.914062 93.679688 C 21.644531 93.277344 21.515625 92.6875 21.515625 91.917969 C 21.515625 91.15625 21.644531 90.566406 21.914062 90.160156 C 22.183594 89.757812 22.578125 89.550781 23.09375 89.550781 Z M 23.09375 89.550781 "/>
<g clip-path="url(#clip-6)">
<path fill="none" stroke-width="0.5" stroke-linecap="square" stroke-linejoin="round" stroke="rgb(69.020081%, 69.020081%, 69.020081%)" stroke-opacity="1" stroke-miterlimit="10" d="M 1539.4828 1695.171972 L 2052.000113 1695.171972 " transform="matrix(0.208796, 0, 0, -0.208796, -294.368, 430.105792)"/>
</g>
<path fill="none" stroke-width="1.5" stroke-linecap="butt" stroke-linejoin="round" stroke="rgb(0%, 0%, 0%)" stroke-opacity="1" stroke-miterlimit="10" d="M 1539.4828 1695.171972 L 1533.496104 1695.171972 " transform="matrix(0.208796, 0, 0, -0.208796, -294.368, 430.105792)"/>
<path fill-rule="nonzero" fill="rgb(0%, 0%, 0%)" fill-opacity="1" d="M 16.328125 78.019531 L 18.480469 78.019531 L 18.480469 78.539062 L 15.582031 78.539062 L 15.582031 78.019531 C 15.8125 77.78125 16.132812 77.457031 16.539062 77.042969 C 16.941406 76.636719 17.199219 76.375 17.304688 76.253906 C 17.503906 76.035156 17.644531 75.847656 17.71875 75.691406 C 17.792969 75.539062 17.835938 75.382812 17.835938 75.234375 C 17.835938 74.996094 17.75 74.792969 17.582031 74.644531 C 17.410156 74.492188 17.191406 74.414062 16.917969 74.414062 C 16.722656 74.414062 16.515625 74.449219 16.300781 74.511719 C 16.089844 74.582031 15.859375 74.683594 15.613281 74.820312 L 15.613281 74.191406 C 15.863281 74.09375 16.097656 74.019531 16.308594 73.96875 C 16.523438 73.917969 16.722656 73.894531 16.902344 73.894531 C 17.375 73.894531 17.75 74.011719 18.03125 74.25 C 18.3125 74.488281 18.457031 74.800781 18.457031 75.195312 C 18.457031 75.382812 18.417969 75.566406 18.351562 75.726562 C 18.28125 75.898438 18.15625 76.097656 17.96875 76.324219 C 17.917969 76.386719 17.753906 76.554688 17.480469 76.835938 C 17.203125 77.117188 16.824219 77.511719 16.328125 78.019531 Z M 16.328125 78.019531 "/>
<path fill-rule="nonzero" fill="rgb(0%, 0%, 0%)" fill-opacity="1" d="M 19.777344 78.539062 L 20.425781 78.539062 L 20.425781 77.765625 L 19.777344 77.765625 Z M 19.777344 78.539062 "/>
<path fill-rule="nonzero" fill="rgb(0%, 0%, 0%)" fill-opacity="1" d="M 21.777344 73.972656 L 24.203125 73.972656 L 24.203125 74.492188 L 22.339844 74.492188 L 22.339844 75.613281 C 22.429688 75.582031 22.523438 75.558594 22.609375 75.546875 C 22.699219 75.535156 22.792969 75.519531 22.878906 75.519531 C 23.386719 75.519531 23.789062 75.664062 24.089844 75.941406 C 24.390625 76.222656 24.539062 76.597656 24.539062 77.074219 C 24.539062 77.570312 24.382812 77.953125 24.074219 78.222656 C 23.769531 78.492188 23.335938 78.621094 22.785156 78.621094 C 22.589844 78.621094 22.398438 78.601562 22.195312 78.578125 C 21.996094 78.546875 21.796875 78.503906 21.582031 78.433594 L 21.582031 77.8125 C 21.765625 77.914062 21.953125 77.988281 22.152344 78.039062 C 22.347656 78.089844 22.554688 78.109375 22.773438 78.109375 C 23.125 78.109375 23.40625 78.019531 23.613281 77.832031 C 23.8125 77.644531 23.917969 77.394531 23.917969 77.074219 C 23.917969 76.761719 23.8125 76.511719 23.613281 76.324219 C 23.40625 76.136719 23.125 76.042969 22.773438 76.042969 C 22.609375 76.042969 22.441406 76.058594 22.277344 76.097656 C 22.117188 76.136719 21.945312 76.191406 21.777344 76.265625 Z M 21.777344 73.972656 "/>
<g clip-path="url(#clip-7)">
<path fill="none" stroke-width="0.5" stroke-linecap="square" stroke-linejoin="round" stroke="rgb(69.020081%, 69.020081%, 69.020081%)" stroke-opacity="1" stroke-miterlimit="10" d="M 1539.4828 1770.155341 L 2052.000113 1770.155341 " transform="matrix(0.208796, 0, 0, -0.208796, -294.368, 430.105792)"/>
</g>
<path fill="none" stroke-width="1.5" stroke-linecap="butt" stroke-linejoin="round" stroke="rgb(0%, 0%, 0%)" stroke-opacity="1" stroke-miterlimit="10" d="M 1539.4828 1770.155341 L 1533.496104 1770.155341 " transform="matrix(0.208796, 0, 0, -0.208796, -294.368, 430.105792)"/>
<path fill-rule="nonzero" fill="rgb(0%, 0%, 0%)" fill-opacity="1" d="M 15.800781 58.316406 L 18.226562 58.316406 L 18.226562 58.835938 L 16.363281 58.835938 L 16.363281 59.957031 C 16.453125 59.925781 16.546875 59.902344 16.632812 59.886719 C 16.722656 59.875 16.816406 59.863281 16.902344 59.863281 C 17.410156 59.863281 17.8125 60.007812 18.113281 60.28125 C 18.414062 60.566406 18.5625 60.941406 18.5625 61.417969 C 18.5625 61.910156 18.40625 62.292969 18.101562 62.5625 C 17.792969 62.832031 17.359375 62.964844 16.808594 62.964844 C 16.617188 62.964844 16.421875 62.945312 16.222656 62.917969 C 16.019531 62.886719 15.820312 62.84375 15.605469 62.777344 L 15.605469 62.15625 C 15.789062 62.257812 15.976562 62.332031 16.175781 62.382812 C 16.371094 62.429688 16.578125 62.449219 16.796875 62.449219 C 17.148438 62.449219 17.429688 62.363281 17.636719 62.175781 C 17.835938 61.988281 17.945312 61.734375 17.945312 61.417969 C 17.945312 61.101562 17.835938 60.851562 17.636719 60.664062 C 17.429688 60.476562 17.148438 60.382812 16.796875 60.382812 C 16.632812 60.382812 16.464844 60.402344 16.300781 60.4375 C 16.140625 60.476562 15.96875 60.535156 15.800781 60.609375 Z M 15.800781 58.316406 "/>
<path fill-rule="nonzero" fill="rgb(0%, 0%, 0%)" fill-opacity="1" d="M 19.777344 62.882812 L 20.425781 62.882812 L 20.425781 62.105469 L 19.777344 62.105469 Z M 19.777344 62.882812 "/>
<path fill-rule="nonzero" fill="rgb(0%, 0%, 0%)" fill-opacity="1" d="M 23.09375 58.722656 C 22.773438 58.722656 22.535156 58.878906 22.371094 59.191406 C 22.210938 59.507812 22.132812 59.976562 22.132812 60.601562 C 22.132812 61.230469 22.210938 61.699219 22.371094 62.011719 C 22.535156 62.324219 22.773438 62.480469 23.09375 62.480469 C 23.410156 62.480469 23.648438 62.324219 23.8125 62.011719 C 23.96875 61.699219 24.050781 61.230469 24.050781 60.601562 C 24.050781 59.976562 23.96875 59.507812 23.8125 59.191406 C 23.648438 58.878906 23.410156 58.722656 23.09375 58.722656 Z M 23.09375 58.234375 C 23.601562 58.234375 23.988281 58.441406 24.265625 58.84375 C 24.535156 59.25 24.671875 59.839844 24.671875 60.601562 C 24.671875 61.371094 24.535156 61.960938 24.265625 62.363281 C 23.988281 62.761719 23.601562 62.964844 23.085938 62.964844 C 22.574219 62.964844 22.183594 62.761719 21.914062 62.363281 C 21.644531 61.960938 21.515625 61.371094 21.515625 60.601562 C 21.515625 59.839844 21.644531 59.25 21.914062 58.84375 C 22.183594 58.441406 22.578125 58.234375 23.09375 58.234375 Z M 23.09375 58.234375 "/>
<g clip-path="url(#clip-8)">
<path fill="none" stroke-width="0.5" stroke-linecap="square" stroke-linejoin="round" stroke="rgb(69.020081%, 69.020081%, 69.020081%)" stroke-opacity="1" stroke-miterlimit="10" d="M 1539.4828 1845.157418 L 2052.000113 1845.157418 " transform="matrix(0.208796, 0, 0, -0.208796, -294.368, 430.105792)"/>
</g>
<path fill="none" stroke-width="1.5" stroke-linecap="butt" stroke-linejoin="round" stroke="rgb(0%, 0%, 0%)" stroke-opacity="1" stroke-miterlimit="10" d="M 1539.4828 1845.157418 L 1533.496104 1845.157418 " transform="matrix(0.208796, 0, 0, -0.208796, -294.368, 430.105792)"/>
<path fill-rule="nonzero" fill="rgb(0%, 0%, 0%)" fill-opacity="1" d="M 15.636719 42.65625 L 18.578125 42.65625 L 18.578125 42.921875 L 16.917969 47.222656 L 16.269531 47.222656 L 17.832031 43.175781 L 15.636719 43.175781 Z M 15.636719 42.65625 "/>
<path fill-rule="nonzero" fill="rgb(0%, 0%, 0%)" fill-opacity="1" d="M 19.777344 47.222656 L 20.425781 47.222656 L 20.425781 46.449219 L 19.777344 46.449219 Z M 19.777344 47.222656 "/>
<path fill-rule="nonzero" fill="rgb(0%, 0%, 0%)" fill-opacity="1" d="M 21.777344 42.65625 L 24.203125 42.65625 L 24.203125 43.175781 L 22.339844 43.175781 L 22.339844 44.300781 C 22.429688 44.269531 22.523438 44.242188 22.609375 44.230469 C 22.699219 44.21875 22.792969 44.203125 22.878906 44.203125 C 23.386719 44.203125 23.789062 44.347656 24.089844 44.625 C 24.390625 44.90625 24.539062 45.28125 24.539062 45.757812 C 24.539062 46.253906 24.382812 46.636719 24.074219 46.90625 C 23.769531 47.175781 23.335938 47.304688 22.785156 47.304688 C 22.589844 47.304688 22.398438 47.285156 22.195312 47.261719 C 21.996094 47.230469 21.796875 47.1875 21.582031 47.117188 L 21.582031 46.496094 C 21.765625 46.597656 21.953125 46.671875 22.152344 46.722656 C 22.347656 46.773438 22.554688 46.792969 22.773438 46.792969 C 23.125 46.792969 23.40625 46.703125 23.613281 46.515625 C 23.8125 46.328125 23.917969 46.078125 23.917969 45.757812 C 23.917969 45.445312 23.8125 45.195312 23.613281 45.007812 C 23.40625 44.820312 23.125 44.726562 22.773438 44.726562 C 22.609375 44.726562 22.441406 44.742188 22.277344 44.78125 C 22.117188 44.820312 21.945312 44.875 21.777344 44.949219 Z M 21.777344 42.65625 "/>
<g clip-path="url(#clip-9)">
<path fill="none" stroke-width="0.5" stroke-linecap="square" stroke-linejoin="round" stroke="rgb(69.020081%, 69.020081%, 69.020081%)" stroke-opacity="1" stroke-miterlimit="10" d="M 1539.4828 1920.140787 L 2052.000113 1920.140787 " transform="matrix(0.208796, 0, 0, -0.208796, -294.368, 430.105792)"/>
</g>
<path fill="none" stroke-width="1.5" stroke-linecap="butt" stroke-linejoin="round" stroke="rgb(0%, 0%, 0%)" stroke-opacity="1" stroke-miterlimit="10" d="M 1539.4828 1920.140787 L 1533.496104 1920.140787 " transform="matrix(0.208796, 0, 0, -0.208796, -294.368, 430.105792)"/>
<path fill-rule="nonzero" fill="rgb(0%, 0%, 0%)" fill-opacity="1" d="M 11.914062 31.046875 L 12.921875 31.046875 L 12.921875 27.5625 L 11.828125 27.78125 L 11.828125 27.21875 L 12.917969 27 L 13.539062 27 L 13.539062 31.046875 L 14.546875 31.046875 L 14.546875 31.566406 L 11.914062 31.566406 Z M 11.914062 31.046875 "/>
<path fill-rule="nonzero" fill="rgb(0%, 0%, 0%)" fill-opacity="1" d="M 17.113281 27.40625 C 16.792969 27.40625 16.554688 27.5625 16.394531 27.875 C 16.230469 28.191406 16.15625 28.660156 16.15625 29.285156 C 16.15625 29.914062 16.230469 30.382812 16.394531 30.695312 C 16.554688 31.007812 16.792969 31.164062 17.113281 31.164062 C 17.433594 31.164062 17.671875 31.007812 17.835938 30.695312 C 17.992188 30.382812 18.074219 29.914062 18.074219 29.285156 C 18.074219 28.660156 17.992188 28.191406 17.835938 27.875 C 17.671875 27.5625 17.433594 27.40625 17.113281 27.40625 Z M 17.113281 26.917969 C 17.621094 26.917969 18.007812 27.125 18.285156 27.527344 C 18.554688 27.933594 18.691406 28.523438 18.691406 29.285156 C 18.691406 30.054688 18.554688 30.644531 18.285156 31.046875 C 18.007812 31.445312 17.621094 31.648438 17.109375 31.648438 C 16.59375 31.648438 16.207031 31.445312 15.9375 31.046875 C 15.667969 30.644531 15.535156 30.054688 15.535156 29.285156 C 15.535156 28.523438 15.667969 27.933594 15.9375 27.527344 C 16.207031 27.125 16.601562 26.917969 17.113281 26.917969 Z M 17.113281 26.917969 "/>
<path fill-rule="nonzero" fill="rgb(0%, 0%, 0%)" fill-opacity="1" d="M 19.777344 31.566406 L 20.421875 31.566406 L 20.421875 30.789062 L 19.777344 30.789062 Z M 19.777344 31.566406 "/>
<path fill-rule="nonzero" fill="rgb(0%, 0%, 0%)" fill-opacity="1" d="M 23.089844 27.40625 C 22.769531 27.40625 22.53125 27.5625 22.371094 27.875 C 22.207031 28.191406 22.132812 28.660156 22.132812 29.285156 C 22.132812 29.914062 22.207031 30.382812 22.371094 30.695312 C 22.53125 31.007812 22.769531 31.164062 23.089844 31.164062 C 23.410156 31.164062 23.648438 31.007812 23.808594 30.695312 C 23.964844 30.382812 24.046875 29.914062 24.046875 29.285156 C 24.046875 28.660156 23.964844 28.191406 23.808594 27.875 C 23.648438 27.5625 23.410156 27.40625 23.089844 27.40625 Z M 23.089844 26.917969 C 23.597656 26.917969 23.984375 27.125 24.261719 27.527344 C 24.53125 27.933594 24.667969 28.523438 24.667969 29.285156 C 24.667969 30.054688 24.53125 30.644531 24.261719 31.046875 C 23.984375 31.445312 23.597656 31.648438 23.082031 31.648438 C 22.570312 31.648438 22.179688 31.445312 21.910156 31.046875 C 21.644531 30.644531 21.511719 30.054688 21.511719 29.285156 C 21.511719 28.523438 21.644531 27.933594 21.910156 27.527344 C 22.179688 27.125 22.574219 26.917969 23.089844 26.917969 Z M 23.089844 26.917969 "/>
<g clip-path="url(#clip-10)">
<path fill="none" stroke-width="0.5" stroke-linecap="square" stroke-linejoin="round" stroke="rgb(69.020081%, 69.020081%, 69.020081%)" stroke-opacity="1" stroke-miterlimit="10" d="M 1539.4828 1995.142865 L 2052.000113 1995.142865 " transform="matrix(0.208796, 0, 0, -0.208796, -294.368, 430.105792)"/>
</g>
<path fill="none" stroke-width="1.5" stroke-linecap="butt" stroke-linejoin="round" stroke="rgb(0%, 0%, 0%)" stroke-opacity="1" stroke-miterlimit="10" d="M 1539.4828 1995.142865 L 1533.496104 1995.142865 " transform="matrix(0.208796, 0, 0, -0.208796, -294.368, 430.105792)"/>
<path fill-rule="nonzero" fill="rgb(0%, 0%, 0%)" fill-opacity="1" d="M 11.914062 15.386719 L 12.921875 15.386719 L 12.921875 11.90625 L 11.828125 12.125 L 11.828125 11.5625 L 12.917969 11.339844 L 13.539062 11.339844 L 13.539062 15.386719 L 14.546875 15.386719 L 14.546875 15.90625 L 11.914062 15.90625 Z M 11.914062 15.386719 "/>
<path fill-rule="nonzero" fill="rgb(0%, 0%, 0%)" fill-opacity="1" d="M 16.324219 15.386719 L 18.480469 15.386719 L 18.480469 15.90625 L 15.578125 15.90625 L 15.578125 15.386719 C 15.8125 15.148438 16.128906 14.824219 16.539062 14.410156 C 16.9375 14.003906 17.195312 13.742188 17.300781 13.621094 C 17.503906 13.402344 17.640625 13.214844 17.714844 13.058594 C 17.789062 12.90625 17.835938 12.75 17.835938 12.601562 C 17.835938 12.363281 17.746094 12.160156 17.578125 12.011719 C 17.410156 11.859375 17.1875 11.78125 16.914062 11.78125 C 16.71875 11.78125 16.511719 11.816406 16.300781 11.878906 C 16.085938 11.949219 15.855469 12.050781 15.609375 12.1875 L 15.609375 11.5625 C 15.859375 11.460938 16.09375 11.386719 16.304688 11.335938 C 16.519531 11.285156 16.71875 11.261719 16.902344 11.261719 C 17.371094 11.261719 17.746094 11.378906 18.027344 11.617188 C 18.308594 11.855469 18.453125 12.167969 18.453125 12.5625 C 18.453125 12.75 18.417969 12.933594 18.347656 13.09375 C 18.277344 13.265625 18.152344 13.464844 17.964844 13.691406 C 17.914062 13.753906 17.753906 13.921875 17.476562 14.203125 C 17.203125 14.484375 16.820312 14.878906 16.324219 15.386719 Z M 16.324219 15.386719 "/>
<path fill-rule="nonzero" fill="rgb(0%, 0%, 0%)" fill-opacity="1" d="M 19.777344 15.90625 L 20.421875 15.90625 L 20.421875 15.132812 L 19.777344 15.132812 Z M 19.777344 15.90625 "/>
<path fill-rule="nonzero" fill="rgb(0%, 0%, 0%)" fill-opacity="1" d="M 21.773438 11.339844 L 24.199219 11.339844 L 24.199219 11.859375 L 22.339844 11.859375 L 22.339844 12.984375 C 22.425781 12.953125 22.519531 12.925781 22.605469 12.914062 C 22.695312 12.902344 22.789062 12.886719 22.875 12.886719 C 23.382812 12.886719 23.785156 13.03125 24.085938 13.308594 C 24.386719 13.589844 24.535156 13.964844 24.535156 14.441406 C 24.535156 14.9375 24.378906 15.320312 24.074219 15.589844 C 23.765625 15.859375 23.335938 15.988281 22.78125 15.988281 C 22.589844 15.988281 22.394531 15.96875 22.195312 15.945312 C 21.992188 15.914062 21.792969 15.871094 21.582031 15.800781 L 21.582031 15.179688 C 21.761719 15.28125 21.949219 15.355469 22.148438 15.40625 C 22.34375 15.457031 22.550781 15.476562 22.769531 15.476562 C 23.121094 15.476562 23.402344 15.386719 23.609375 15.199219 C 23.808594 15.011719 23.917969 14.761719 23.917969 14.441406 C 23.917969 14.128906 23.808594 13.878906 23.609375 13.691406 C 23.402344 13.503906 23.121094 13.410156 22.769531 13.410156 C 22.605469 13.410156 22.4375 13.425781 22.277344 13.464844 C 22.113281 13.503906 21.945312 13.558594 21.773438 13.632812 Z M 21.773438 11.339844 "/>
<path fill-rule="nonzero" fill="rgb(0%, 0%, 0%)" fill-opacity="1" d="M 5.042969 80.59375 L 7.316406 81.433594 L 7.316406 79.753906 Z M 4.433594 80.945312 L 4.433594 80.242188 L 9 78.5 L 9 79.144531 L 7.828125 79.558594 L 7.828125 81.621094 L 9 82.035156 L 9 82.683594 Z M 4.433594 80.945312 "/>
<path fill-rule="nonzero" fill="rgb(0%, 0%, 0%)" fill-opacity="1" d="M 4.242188 77.863281 L 9 77.863281 L 9 77.296875 L 4.242188 77.296875 Z M 4.242188 77.863281 "/>
<path fill-rule="nonzero" fill="rgb(0%, 0%, 0%)" fill-opacity="1" d="M 7.277344 74.5625 C 7.277344 75.019531 7.335938 75.332031 7.433594 75.507812 C 7.542969 75.683594 7.71875 75.769531 7.96875 75.769531 C 8.167969 75.769531 8.332031 75.707031 8.445312 75.574219 C 8.5625 75.445312 8.621094 75.261719 8.621094 75.035156 C 8.621094 74.722656 8.511719 74.472656 8.289062 74.285156 C 8.066406 74.097656 7.773438 74.003906 7.402344 74.003906 L 7.277344 74.003906 Z M 7.046875 73.441406 L 9 73.441406 L 9 74.003906 L 8.480469 74.003906 C 8.695312 74.136719 8.84375 74.296875 8.9375 74.484375 C 9.03125 74.671875 9.082031 74.910156 9.082031 75.1875 C 9.082031 75.539062 8.988281 75.820312 8.792969 76.027344 C 8.601562 76.234375 8.335938 76.332031 8.003906 76.332031 C 7.625 76.332031 7.335938 76.207031 7.132812 75.945312 C 6.941406 75.6875 6.839844 75.304688 6.839844 74.792969 L 6.839844 74.003906 L 6.785156 74.003906 C 6.527344 74.003906 6.328125 74.089844 6.183594 74.261719 C 6.042969 74.429688 5.96875 74.667969 5.96875 74.972656 C 5.96875 75.175781 5.996094 75.363281 6.042969 75.550781 C 6.09375 75.738281 6.164062 75.914062 6.25 76.082031 L 5.730469 76.082031 C 5.65625 75.882812 5.59375 75.683594 5.554688 75.488281 C 5.519531 75.292969 5.492188 75.105469 5.492188 74.917969 C 5.492188 74.421875 5.625 74.054688 5.882812 73.808594 C 6.140625 73.566406 6.527344 73.441406 7.046875 73.441406 Z M 7.046875 73.441406 "/>
<path fill-rule="nonzero" fill="rgb(0%, 0%, 0%)" fill-opacity="1" d="M 6.101562 70.296875 C 6.0625 70.359375 6.039062 70.425781 6.019531 70.5 C 6.007812 70.578125 5.996094 70.660156 5.996094 70.746094 C 5.996094 71.066406 6.101562 71.308594 6.308594 71.480469 C 6.515625 71.65625 6.808594 71.734375 7.199219 71.734375 L 9 71.734375 L 9 72.300781 L 5.574219 72.300781 L 5.574219 71.734375 L 6.105469 71.734375 C 5.902344 71.621094 5.742188 71.464844 5.644531 71.277344 C 5.542969 71.089844 5.492188 70.859375 5.492188 70.582031 C 5.492188 70.546875 5.5 70.5 5.5 70.453125 C 5.507812 70.40625 5.511719 70.359375 5.523438 70.296875 Z M 6.101562 70.296875 "/>
<path fill-rule="nonzero" fill="rgb(0%, 0%, 0%)" fill-opacity="1" d="M 6.234375 67.144531 C 5.980469 67.007812 5.800781 66.839844 5.675781 66.644531 C 5.554688 66.449219 5.492188 66.21875 5.492188 65.949219 C 5.492188 65.597656 5.617188 65.324219 5.871094 65.128906 C 6.121094 64.933594 6.476562 64.835938 6.933594 64.835938 L 9 64.835938 L 9 65.398438 L 6.953125 65.398438 C 6.628906 65.398438 6.382812 65.460938 6.21875 65.574219 C 6.0625 65.691406 5.980469 65.867188 5.980469 66.105469 C 5.980469 66.398438 6.082031 66.632812 6.277344 66.800781 C 6.46875 66.96875 6.734375 67.050781 7.066406 67.050781 L 9 67.050781 L 9 67.613281 L 6.953125 67.613281 C 6.628906 67.613281 6.382812 67.679688 6.21875 67.789062 C 6.0625 67.910156 5.980469 68.089844 5.980469 68.328125 C 5.980469 68.617188 6.082031 68.847656 6.277344 69.019531 C 6.46875 69.1875 6.734375 69.269531 7.066406 69.269531 L 9 69.269531 L 9 69.832031 L 5.574219 69.832031 L 5.574219 69.269531 L 6.105469 69.269531 C 5.902344 69.144531 5.742188 68.988281 5.644531 68.804688 C 5.542969 68.628906 5.492188 68.417969 5.492188 68.167969 C 5.492188 67.914062 5.554688 67.710938 5.679688 67.535156 C 5.808594 67.359375 5.996094 67.234375 6.234375 67.144531 Z M 6.234375 67.144531 "/>
<path fill-rule="nonzero" fill="rgb(0%, 0%, 0%)" fill-opacity="1" d="M 5.675781 61.527344 L 6.207031 61.527344 C 6.132812 61.691406 6.070312 61.851562 6.027344 62.023438 C 5.988281 62.195312 5.964844 62.371094 5.964844 62.554688 C 5.964844 62.835938 6.007812 63.050781 6.09375 63.1875 C 6.183594 63.324219 6.308594 63.394531 6.476562 63.394531 C 6.609375 63.394531 6.707031 63.34375 6.785156 63.242188 C 6.859375 63.144531 6.933594 62.941406 6.996094 62.640625 L 7.039062 62.449219 C 7.128906 62.046875 7.253906 61.765625 7.402344 61.59375 C 7.5625 61.433594 7.78125 61.34375 8.054688 61.34375 C 8.375 61.34375 8.625 61.46875 8.808594 61.722656 C 8.996094 61.972656 9.082031 62.320312 9.082031 62.761719 C 9.082031 62.949219 9.0625 63.136719 9.03125 63.335938 C 9 63.539062 8.953125 63.742188 8.875 63.964844 L 8.292969 63.964844 C 8.40625 63.757812 8.488281 63.550781 8.539062 63.347656 C 8.59375 63.148438 8.621094 62.949219 8.621094 62.75 C 8.621094 62.484375 8.574219 62.277344 8.488281 62.132812 C 8.398438 61.996094 8.269531 61.921875 8.097656 61.921875 C 7.949219 61.921875 7.828125 61.976562 7.75 62.078125 C 7.667969 62.179688 7.585938 62.402344 7.511719 62.753906 L 7.464844 62.949219 C 7.390625 63.300781 7.277344 63.554688 7.128906 63.707031 C 6.976562 63.863281 6.769531 63.9375 6.503906 63.9375 C 6.183594 63.9375 5.933594 63.824219 5.757812 63.601562 C 5.582031 63.375 5.492188 63.050781 5.492188 62.621094 C 5.492188 62.417969 5.511719 62.222656 5.542969 62.035156 C 5.574219 61.851562 5.617188 61.683594 5.675781 61.527344 Z M 5.675781 61.527344 "/>
<path fill-rule="nonzero" fill="rgb(0%, 0%, 0%)" fill-opacity="1" d="M 4.433594 57.457031 L 4.433594 56.933594 L 9.578125 58.527344 L 9.578125 59.046875 Z M 4.433594 57.457031 "/>
<path fill-rule="nonzero" fill="rgb(0%, 0%, 0%)" fill-opacity="1" d="M 8.488281 53.808594 L 10.296875 53.808594 L 10.296875 54.375 L 5.574219 54.375 L 5.574219 53.808594 L 6.09375 53.808594 C 5.894531 53.695312 5.742188 53.546875 5.644531 53.363281 C 5.542969 53.183594 5.492188 52.964844 5.492188 52.714844 C 5.492188 52.300781 5.664062 51.960938 5.988281 51.699219 C 6.320312 51.441406 6.753906 51.308594 7.292969 51.308594 C 7.828125 51.308594 8.269531 51.441406 8.59375 51.699219 C 8.917969 51.960938 9.082031 52.300781 9.082031 52.714844 C 9.082031 52.964844 9.03125 53.183594 8.9375 53.363281 C 8.84375 53.546875 8.695312 53.695312 8.488281 53.808594 Z M 7.292969 51.894531 C 6.878906 51.894531 6.558594 51.980469 6.320312 52.148438 C 6.082031 52.324219 5.964844 52.558594 5.964844 52.851562 C 5.964844 53.152344 6.082031 53.382812 6.320312 53.554688 C 6.558594 53.726562 6.878906 53.808594 7.292969 53.808594 C 7.703125 53.808594 8.03125 53.726562 8.269531 53.554688 C 8.507812 53.382812 8.621094 53.152344 8.621094 52.851562 C 8.621094 52.558594 8.507812 52.324219 8.269531 52.148438 C 8.03125 51.980469 7.703125 51.894531 7.292969 51.894531 Z M 7.292969 51.894531 "/>
<path fill-rule="nonzero" fill="rgb(0%, 0%, 0%)" fill-opacity="1" d="M 7.277344 48.816406 C 7.277344 49.273438 7.335938 49.585938 7.433594 49.761719 C 7.542969 49.9375 7.71875 50.027344 7.96875 50.027344 C 8.167969 50.027344 8.332031 49.964844 8.445312 49.832031 C 8.5625 49.699219 8.621094 49.519531 8.621094 49.292969 C 8.621094 48.980469 8.511719 48.730469 8.289062 48.542969 C 8.066406 48.355469 7.773438 48.261719 7.402344 48.261719 L 7.277344 48.261719 Z M 7.046875 47.695312 L 9 47.695312 L 9 48.261719 L 8.480469 48.261719 C 8.695312 48.390625 8.84375 48.554688 8.9375 48.742188 C 9.03125 48.929688 9.082031 49.167969 9.082031 49.445312 C 9.082031 49.792969 8.988281 50.078125 8.792969 50.28125 C 8.601562 50.488281 8.335938 50.589844 8.003906 50.589844 C 7.625 50.589844 7.335938 50.464844 7.132812 50.203125 C 6.941406 49.945312 6.839844 49.5625 6.839844 49.050781 L 6.839844 48.261719 L 6.785156 48.261719 C 6.527344 48.261719 6.328125 48.347656 6.183594 48.515625 C 6.042969 48.6875 5.96875 48.921875 5.96875 49.230469 C 5.96875 49.429688 5.996094 49.617188 6.042969 49.808594 C 6.09375 49.996094 6.164062 50.171875 6.25 50.339844 L 5.730469 50.339844 C 5.65625 50.140625 5.59375 49.9375 5.554688 49.746094 C 5.519531 49.550781 5.492188 49.363281 5.492188 49.175781 C 5.492188 48.679688 5.625 48.308594 5.882812 48.066406 C 6.140625 47.820312 6.527344 47.695312 7.046875 47.695312 Z M 7.046875 47.695312 "/>
<path fill-rule="nonzero" fill="rgb(0%, 0%, 0%)" fill-opacity="1" d="M 4.605469 45.980469 L 5.574219 45.980469 L 5.574219 44.820312 L 6.011719 44.820312 L 6.011719 45.980469 L 7.875 45.980469 C 8.15625 45.980469 8.335938 45.941406 8.414062 45.867188 C 8.492188 45.792969 8.53125 45.636719 8.53125 45.398438 L 8.53125 44.820312 L 9 44.820312 L 9 45.398438 C 9 45.835938 8.917969 46.136719 8.757812 46.300781 C 8.59375 46.460938 8.300781 46.542969 7.875 46.542969 L 6.011719 46.542969 L 6.011719 46.957031 L 5.574219 46.957031 L 5.574219 46.542969 L 4.605469 46.542969 Z M 4.605469 45.980469 "/>
<path fill-rule="nonzero" fill="rgb(0%, 0%, 0%)" fill-opacity="1" d="M 5.574219 44.082031 L 5.574219 43.519531 L 9 43.519531 L 9 44.082031 Z M 4.242188 44.082031 L 4.242188 43.519531 L 4.953125 43.519531 L 4.953125 44.082031 Z M 4.242188 44.082031 "/>
<path fill-rule="nonzero" fill="rgb(0%, 0%, 0%)" fill-opacity="1" d="M 7.148438 39.410156 L 7.421875 39.410156 L 7.421875 41.996094 C 7.8125 41.972656 8.113281 41.859375 8.3125 41.644531 C 8.511719 41.4375 8.613281 41.148438 8.613281 40.773438 C 8.613281 40.5625 8.589844 40.347656 8.539062 40.148438 C 8.488281 39.949219 8.40625 39.742188 8.292969 39.539062 L 8.824219 39.539062 C 8.914062 39.742188 8.984375 39.949219 9.019531 40.160156 C 9.058594 40.375 9.082031 40.59375 9.082031 40.804688 C 9.082031 41.355469 8.925781 41.789062 8.613281 42.109375 C 8.300781 42.429688 7.867188 42.585938 7.324219 42.585938 C 6.765625 42.585938 6.320312 42.433594 5.988281 42.132812 C 5.664062 41.832031 5.492188 41.417969 5.492188 40.90625 C 5.492188 40.441406 5.644531 40.078125 5.9375 39.808594 C 6.238281 39.546875 6.640625 39.410156 7.148438 39.410156 Z M 6.984375 39.972656 C 6.675781 39.980469 6.433594 40.066406 6.246094 40.230469 C 6.0625 40.398438 5.96875 40.625 5.96875 40.898438 C 5.96875 41.214844 6.0625 41.464844 6.238281 41.652344 C 6.414062 41.839844 6.664062 41.953125 6.984375 41.976562 Z M 6.984375 39.972656 "/>
<path fill-rule="nonzero" fill="rgb(0%, 0%, 0%)" fill-opacity="1" d="M 6.933594 35.636719 L 9 35.636719 L 9 36.203125 L 6.953125 36.203125 C 6.628906 36.203125 6.390625 36.269531 6.226562 36.394531 C 6.0625 36.519531 5.980469 36.710938 5.980469 36.960938 C 5.980469 37.265625 6.082031 37.503906 6.277344 37.679688 C 6.46875 37.855469 6.734375 37.941406 7.066406 37.941406 L 9 37.941406 L 9 38.507812 L 5.574219 38.507812 L 5.574219 37.941406 L 6.105469 37.941406 C 5.90625 37.8125 5.75 37.65625 5.648438 37.46875 C 5.550781 37.285156 5.492188 37.074219 5.492188 36.835938 C 5.492188 36.445312 5.617188 36.144531 5.863281 35.945312 C 6.105469 35.746094 6.464844 35.636719 6.933594 35.636719 Z M 6.933594 35.636719 "/>
<path fill-rule="nonzero" fill="rgb(0%, 0%, 0%)" fill-opacity="1" d="M 4.605469 33.960938 L 5.574219 33.960938 L 5.574219 32.800781 L 6.011719 32.800781 L 6.011719 33.960938 L 7.875 33.960938 C 8.15625 33.960938 8.335938 33.921875 8.414062 33.847656 C 8.492188 33.769531 8.53125 33.613281 8.53125 33.375 L 8.53125 32.800781 L 9 32.800781 L 9 33.375 C 9 33.816406 8.917969 34.117188 8.757812 34.277344 C 8.59375 34.441406 8.300781 34.523438 7.875 34.523438 L 6.011719 34.523438 L 6.011719 34.9375 L 5.574219 34.9375 L 5.574219 34.523438 L 4.605469 34.523438 Z M 4.605469 33.960938 "/>
<path fill-rule="nonzero" fill="rgb(0%, 0%, 0%)" fill-opacity="1" d="M 4.433594 29.066406 L 4.433594 28.546875 L 9.578125 30.136719 L 9.578125 30.660156 Z M 4.433594 29.066406 "/>
<path fill-rule="nonzero" fill="rgb(0%, 0%, 0%)" fill-opacity="1" d="M 6.09375 23.710938 L 4.242188 23.710938 L 4.242188 23.148438 L 9 23.148438 L 9 23.710938 L 8.488281 23.710938 C 8.695312 23.832031 8.84375 23.980469 8.9375 24.164062 C 9.03125 24.34375 9.082031 24.558594 9.082031 24.808594 C 9.082031 25.222656 8.917969 25.558594 8.59375 25.824219 C 8.269531 26.085938 7.828125 26.210938 7.292969 26.210938 C 6.753906 26.210938 6.320312 26.085938 5.988281 25.824219 C 5.664062 25.558594 5.492188 25.222656 5.492188 24.808594 C 5.492188 24.558594 5.542969 24.34375 5.644531 24.164062 C 5.742188 23.980469 5.894531 23.832031 6.09375 23.710938 Z M 7.292969 25.628906 C 7.703125 25.628906 8.03125 25.546875 8.269531 25.378906 C 8.507812 25.207031 8.621094 24.976562 8.621094 24.675781 C 8.621094 24.375 8.507812 24.144531 8.269531 23.96875 C 8.03125 23.800781 7.703125 23.710938 7.292969 23.710938 C 6.878906 23.710938 6.558594 23.800781 6.320312 23.96875 C 6.082031 24.144531 5.964844 24.375 5.964844 24.675781 C 5.964844 24.976562 6.082031 25.207031 6.320312 25.378906 C 6.558594 25.546875 6.878906 25.628906 7.292969 25.628906 Z M 7.292969 25.628906 "/>
<path fill-rule="nonzero" fill="rgb(0%, 0%, 0%)" fill-opacity="1" d="M 7.277344 20.429688 C 7.277344 20.886719 7.335938 21.199219 7.433594 21.375 C 7.542969 21.550781 7.71875 21.636719 7.96875 21.636719 C 8.167969 21.636719 8.332031 21.574219 8.445312 21.445312 C 8.5625 21.3125 8.621094 21.132812 8.621094 20.90625 C 8.621094 20.59375 8.511719 20.339844 8.289062 20.152344 C 8.066406 19.964844 7.773438 19.871094 7.402344 19.871094 L 7.277344 19.871094 Z M 7.046875 19.308594 L 9 19.308594 L 9 19.871094 L 8.480469 19.871094 C 8.695312 20.003906 8.84375 20.167969 8.9375 20.355469 C 9.03125 20.542969 9.082031 20.78125 9.082031 21.054688 C 9.082031 21.40625 8.988281 21.6875 8.792969 21.894531 C 8.601562 22.101562 8.335938 22.203125 8.003906 22.203125 C 7.625 22.203125 7.335938 22.078125 7.132812 21.8125 C 6.941406 21.558594 6.839844 21.175781 6.839844 20.660156 L 6.839844 19.871094 L 6.785156 19.871094 C 6.527344 19.871094 6.328125 19.960938 6.183594 20.128906 C 6.042969 20.296875 5.96875 20.535156 5.96875 20.84375 C 5.96875 21.042969 5.996094 21.230469 6.042969 21.417969 C 6.09375 21.605469 6.164062 21.78125 6.25 21.953125 L 5.730469 21.953125 C 5.65625 21.75 5.59375 21.550781 5.554688 21.355469 C 5.519531 21.164062 5.492188 20.972656 5.492188 20.785156 C 5.492188 20.292969 5.625 19.921875 5.882812 19.675781 C 6.140625 19.433594 6.527344 19.308594 7.046875 19.308594 Z M 7.046875 19.308594 "/>
<path fill-rule="nonzero" fill="rgb(0%, 0%, 0%)" fill-opacity="1" d="M 9.316406 16.722656 C 9.714844 16.882812 9.984375 17.039062 10.109375 17.191406 C 10.234375 17.339844 10.296875 17.542969 10.296875 17.792969 L 10.296875 18.242188 L 9.828125 18.242188 L 9.828125 17.910156 C 9.828125 17.761719 9.789062 17.640625 9.714844 17.554688 C 9.640625 17.464844 9.472656 17.371094 9.195312 17.265625 L 8.945312 17.164062 L 5.574219 18.550781 L 5.574219 17.957031 L 8.257812 16.882812 L 5.574219 15.8125 L 5.574219 15.21875 Z M 9.316406 16.722656 "/>
<g clip-path="url(#clip-11)">
<path fill-rule="nonzero" fill="rgb(84.313965%, 66.667175%, 23.529053%)" fill-opacity="0.3" stroke-width="1" stroke-linecap="butt" stroke-linejoin="round" stroke="rgb(84.313965%, 66.667175%, 23.529053%)" stroke-opacity="0.3" stroke-miterlimit="10" d="M 1492.07565 1621.086608 L 1492.07565 1620.169895 L 1675.305968 1631.582034 L 2034.058733 1675.977128 L 2034.058733 1678.371806 L 1675.305968 1631.582034 Z M 1492.07565 1621.086608 " transform="matrix(0.208796, 0, 0, -0.208796, -294.368, 430.105792)"/>
</g>
<g clip-path="url(#clip-12)">
<path fill-rule="nonzero" fill="rgb(67.451477%, 34.901428%, 62.745667%)" fill-opacity="0.3" stroke-width="1" stroke-linecap="butt" stroke-linejoin="round" stroke="rgb(67.451477%, 34.901428%, 62.745667%)" stroke-opacity="0.3" stroke-miterlimit="10" d="M 1524.123182 1621.685277 L 1524.123182 1620.787273 L 1565.749429 1622.882616 L 1636.224067 1627.073304 L 1697.082575 1633.378043 L 1764.994159 1642.077461 L 1829.051808 1654.668231 L 1898.89036 1667.577045 L 1961.021041 1682.880537 L 2030.859593 1720.970891 L 2090.445927 1820.256504 L 2090.445927 2031.43721 L 2030.859593 1736.873052 L 1961.021041 1696.069977 L 1898.89036 1671.468397 L 1829.051808 1659.176962 L 1764.994159 1647.484196 L 1697.082575 1636.970061 L 1636.224067 1629.786025 L 1565.749429 1624.678625 Z M 1524.123182 1621.685277 " transform="matrix(0.208796, 0, 0, -0.208796, -294.368, 430.105792)"/>
</g>
<g clip-path="url(#clip-13)">
<path fill-rule="nonzero" fill="rgb(18.03894%, 43.528748%, 72.549438%)" fill-opacity="0.3" stroke-width="1" stroke-linecap="butt" stroke-linejoin="round" stroke="rgb(18.03894%, 43.528748%, 72.549438%)" stroke-opacity="0.3" stroke-miterlimit="10" d="M 1525.395355 1620.46923 L 1525.395355 1620.169895 L 1577.292527 1620.46923 L 1635.587981 1621.086608 L 1695.810402 1621.685277 L 1767.557214 1622.583282 L 1827.143549 1624.079956 L 1888.638143 1625.57663 L 1953.350586 1626.773969 L 2028.932625 1630.983365 L 2089.155046 1640.880122 L 2089.155046 1661.272305 L 2028.932625 1632.480039 L 1953.350586 1628.270643 L 1888.638143 1625.57663 L 1827.143549 1624.37929 L 1767.557214 1623.181951 L 1695.810402 1621.984612 L 1635.587981 1621.385942 L 1577.292527 1620.787273 Z M 1525.395355 1620.46923 " transform="matrix(0.208796, 0, 0, -0.208796, -294.368, 430.105792)"/>
</g>
<g clip-path="url(#clip-14)">
<path fill="none" stroke-width="3" stroke-linecap="square" stroke-linejoin="round" stroke="rgb(84.313965%, 66.667175%, 23.529053%)" stroke-opacity="0.8" stroke-miterlimit="10" d="M 1492.07565 1620.787273 L 1675.305968 1631.582034 L 2034.058733 1677.174467 " transform="matrix(0.208796, 0, 0, -0.208796, -294.368, 430.105792)"/>
</g>
<path fill-rule="nonzero" fill="rgb(100%, 100%, 100%)" fill-opacity="0.8" stroke-width="1.5" stroke-linecap="butt" stroke-linejoin="round" stroke="rgb(84.313965%, 66.667175%, 23.529053%)" stroke-opacity="0.8" stroke-miterlimit="10" d="M 0.000419069 -1.996054 C 0.524255 -1.996054 1.048091 -1.790262 1.422259 -1.416093 C 1.796428 -1.041925 2.002221 -0.536797 2.002221 0.00574723 C 2.002221 0.529583 1.796428 1.034711 1.422259 1.408879 C 1.048091 1.783048 0.524255 2.007549 0.000419069 2.007549 C -0.523417 2.007549 -1.047253 1.783048 -1.421421 1.408879 C -1.79559 1.034711 -2.001382 0.529583 -2.001382 0.00574723 C -2.001382 -0.536797 -1.79559 -1.041925 -1.421421 -1.416093 C -1.047253 -1.790262 -0.523417 -1.996054 0.000419069 -1.996054 Z M 0.000419069 -1.996054 " transform="matrix(0.208796, 0, 0, -0.208796, 55.4296, 89.4387)"/>
<path fill-rule="nonzero" fill="rgb(100%, 100%, 100%)" fill-opacity="0.8" stroke-width="1.5" stroke-linecap="butt" stroke-linejoin="round" stroke="rgb(84.313965%, 66.667175%, 23.529053%)" stroke-opacity="0.8" stroke-miterlimit="10" d="M -0.00317295 -1.999257 C 0.539371 -1.999257 1.044499 -1.793464 1.418667 -1.419296 C 1.792836 -1.045127 1.998629 -0.521292 1.998629 0.00254435 C 1.998629 0.52638 1.792836 1.031508 1.418667 1.405676 C 1.044499 1.798553 0.539371 2.004346 -0.00317295 2.004346 C -0.527009 2.004346 -1.032136 1.798553 -1.406305 1.405676 C -1.780473 1.031508 -2.004974 0.52638 -2.004974 0.00254435 C -2.004974 -0.521292 -1.780473 -1.045127 -1.406305 -1.419296 C -1.032136 -1.793464 -0.527009 -1.999257 -0.00317295 -1.999257 Z M -0.00317295 -1.999257 " transform="matrix(0.208796, 0, 0, -0.208796, 130.3366, 79.9185)"/>
<g clip-path="url(#clip-15)">
<path fill="none" stroke-width="3" stroke-linecap="square" stroke-linejoin="round" stroke="rgb(67.451477%, 34.901428%, 62.745667%)" stroke-opacity="0.8" stroke-miterlimit="10" d="M 1524.123182 1621.385942 L 1565.749429 1623.780621 L 1636.224067 1628.569978 L 1697.082575 1635.174052 L 1764.994159 1644.771474 L 1829.051808 1657.081618 L 1898.89036 1669.672388 L 1961.021041 1689.765237 L 2030.859593 1729.370974 L 2090.445927 1951.047106 " transform="matrix(0.208796, 0, 0, -0.208796, -294.368, 430.105792)"/>
</g>
<path fill-rule="nonzero" fill="rgb(100%, 100%, 100%)" fill-opacity="0.8" stroke-width="1.5" stroke-linecap="butt" stroke-linejoin="round" stroke="rgb(67.451477%, 34.901428%, 62.745667%)" stroke-opacity="0.8" stroke-miterlimit="10" d="M -0.00772284 -1.998479 C 0.534821 -1.998479 1.039949 -1.792686 1.414117 -1.418518 C 1.788286 -1.044349 1.994079 -0.539222 1.994079 0.00332262 C 1.994079 0.527159 1.788286 1.032286 1.414117 1.406455 C 1.039949 1.780623 0.534821 2.005124 -0.00772284 2.005124 C -0.531559 2.005124 -1.036686 1.780623 -1.410855 1.406455 C -1.785023 1.032286 -1.990816 0.527159 -1.990816 0.00332262 C -1.990816 -0.539222 -1.785023 -1.044349 -1.410855 -1.418518 C -1.036686 -1.792686 -0.531559 -1.998479 -0.00772284 -1.998479 Z M -0.00772284 -1.998479 " transform="matrix(0.208796, 0, 0, -0.208796, 32.5563, 91.0671)"/>
<path fill-rule="nonzero" fill="rgb(100%, 100%, 100%)" fill-opacity="0.8" stroke-width="1.5" stroke-linecap="butt" stroke-linejoin="round" stroke="rgb(67.451477%, 34.901428%, 62.745667%)" stroke-opacity="0.8" stroke-miterlimit="10" d="M -0.00272395 -2.008537 C 0.521112 -2.008537 1.044948 -1.784035 1.419116 -1.409867 C 1.793285 -1.035698 1.999078 -0.530571 1.999078 -0.00673503 C 1.999078 0.535809 1.793285 1.040937 1.419116 1.415105 C 1.044948 1.789274 0.521112 1.995066 -0.00272395 1.995066 C -0.52656 1.995066 -1.031687 1.789274 -1.405856 1.415105 C -1.780024 1.040937 -2.004525 0.535809 -2.004525 -0.00673503 C -2.004525 -0.530571 -1.780024 -1.035698 -1.405856 -1.409867 C -1.031687 -1.784035 -0.52656 -2.008537 -0.00272395 -2.008537 Z M -0.00272395 -2.008537 " transform="matrix(0.208796, 0, 0, -0.208796, 47.2701, 90.065)"/>
<path fill-rule="nonzero" fill="rgb(100%, 100%, 100%)" fill-opacity="0.8" stroke-width="1.5" stroke-linecap="butt" stroke-linejoin="round" stroke="rgb(67.451477%, 34.901428%, 62.745667%)" stroke-opacity="0.8" stroke-miterlimit="10" d="M -0.00496896 -2.003717 C 0.537575 -2.003717 1.042703 -1.797925 1.416871 -1.405048 C 1.79104 -1.030879 1.996833 -0.525752 1.996833 -0.00191574 C 1.996833 0.52192 1.79104 1.045756 1.416871 1.419925 C 1.042703 1.794093 0.537575 1.999886 -0.00496896 1.999886 C -0.528805 1.999886 -1.033932 1.794093 -1.408101 1.419925 C -1.782269 1.045756 -2.00677 0.52192 -2.00677 -0.00191574 C -2.00677 -0.525752 -1.782269 -1.030879 -1.408101 -1.405048 C -1.033932 -1.797925 -0.528805 -2.003717 -0.00496896 -2.003717 Z M -0.00496896 -2.003717 " transform="matrix(0.208796, 0, 0, -0.208796, 59.9776, 88.6871)"/>
<path fill-rule="nonzero" fill="rgb(100%, 100%, 100%)" fill-opacity="0.8" stroke-width="1.5" stroke-linecap="butt" stroke-linejoin="round" stroke="rgb(67.451477%, 34.901428%, 62.745667%)" stroke-opacity="0.8" stroke-miterlimit="10" d="M -0.000718404 -2.005603 C 0.523118 -2.005603 1.046953 -1.781102 1.421122 -1.406933 C 1.79529 -1.032765 2.001083 -0.527637 2.001083 -0.00380155 C 2.001083 0.538743 1.79529 1.04387 1.421122 1.418039 C 1.046953 1.792207 0.523118 1.998 -0.000718404 1.998 C -0.524554 1.998 -1.04839 1.792207 -1.422559 1.418039 C -1.796727 1.04387 -2.00252 0.538743 -2.00252 -0.00380155 C -2.00252 -0.527637 -1.796727 -1.032765 -1.422559 -1.406933 C -1.04839 -1.781102 -0.524554 -2.005603 -0.000718404 -2.005603 Z M -0.000718404 -2.005603 " transform="matrix(0.208796, 0, 0, -0.208796, 74.1564, 86.6828)"/>
<path fill-rule="nonzero" fill="rgb(100%, 100%, 100%)" fill-opacity="0.8" stroke-width="1.5" stroke-linecap="butt" stroke-linejoin="round" stroke="rgb(67.451477%, 34.901428%, 62.745667%)" stroke-opacity="0.8" stroke-miterlimit="10" d="M -0.00646563 -1.994049 C 0.536079 -1.994049 1.041206 -1.788256 1.415375 -1.414088 C 1.789543 -1.039919 1.995336 -0.534792 1.995336 0.00775277 C 1.995336 0.531589 1.789543 1.036716 1.415375 1.410885 C 1.041206 1.785053 0.536079 1.990846 -0.00646563 1.990846 C -0.530302 1.990846 -1.035429 1.785053 -1.409598 1.410885 C -1.783766 1.036716 -2.008267 0.531589 -2.008267 0.00775277 C -2.008267 -0.534792 -1.783766 -1.039919 -1.409598 -1.414088 C -1.035429 -1.788256 -0.530302 -1.994049 -0.00646563 -1.994049 Z M -0.00646563 -1.994049 " transform="matrix(0.208796, 0, 0, -0.208796, 87.5326, 84.1149)"/>
<path fill-rule="nonzero" fill="rgb(100%, 100%, 100%)" fill-opacity="0.8" stroke-width="1.5" stroke-linecap="butt" stroke-linejoin="round" stroke="rgb(67.451477%, 34.901428%, 62.745667%)" stroke-opacity="0.8" stroke-miterlimit="10" d="M 0.00230488 -2.002161 C 0.526141 -2.002161 1.031268 -1.796368 1.405437 -1.4222 C 1.798314 -1.048031 2.004106 -0.524195 2.004106 -0.000359202 C 2.004106 0.523477 1.798314 1.047313 1.405437 1.421481 C 1.031268 1.79565 0.526141 2.001442 0.00230488 2.001442 C -0.521531 2.001442 -1.045367 1.79565 -1.419535 1.421481 C -1.793704 1.047313 -1.999497 0.523477 -1.999497 -0.000359202 C -1.999497 -0.524195 -1.793704 -1.048031 -1.419535 -1.4222 C -1.045367 -1.796368 -0.521531 -2.002161 0.00230488 -2.002161 Z M 0.00230488 -2.002161 " transform="matrix(0.208796, 0, 0, -0.208796, 102.1128, 81.4843)"/>
<path fill-rule="nonzero" fill="rgb(100%, 100%, 100%)" fill-opacity="0.8" stroke-width="1.5" stroke-linecap="butt" stroke-linejoin="round" stroke="rgb(67.451477%, 34.901428%, 62.745667%)" stroke-opacity="0.8" stroke-miterlimit="10" d="M -0.00844124 -2.007369 C 0.534103 -2.007369 1.039231 -1.782868 1.413399 -1.4087 C 1.787568 -1.034531 1.99336 -0.529404 1.99336 -0.00556763 C 1.99336 0.536977 1.787568 1.042104 1.413399 1.416273 C 1.039231 1.790441 0.534103 1.996234 -0.00844124 1.996234 C -0.532277 1.996234 -1.037405 1.790441 -1.411573 1.416273 C -1.785742 1.042104 -1.991534 0.536977 -1.991534 -0.00556763 C -1.991534 -0.529404 -1.785742 -1.034531 -1.411573 -1.4087 C -1.037405 -1.782868 -0.532277 -2.007369 -0.00844124 -2.007369 Z M -0.00844124 -2.007369 " transform="matrix(0.208796, 0, 0, -0.208796, 115.0877, 77.2879)"/>
<path fill-rule="nonzero" fill="rgb(100%, 100%, 100%)" fill-opacity="0.8" stroke-width="1.5" stroke-linecap="butt" stroke-linejoin="round" stroke="rgb(67.451477%, 34.901428%, 62.745667%)" stroke-opacity="0.8" stroke-miterlimit="10" d="M 0.000808204 -1.997641 C 0.524644 -1.997641 1.04848 -1.791848 1.422649 -1.41768 C 1.796817 -1.043511 2.00261 -0.538384 2.00261 0.00416075 C 2.00261 0.527997 1.796817 1.033124 1.422649 1.407293 C 1.04848 1.781461 0.524644 2.005962 0.000808204 2.005962 C -0.523028 2.005962 -1.046864 1.781461 -1.421032 1.407293 C -1.795201 1.033124 -2.000993 0.527997 -2.000993 0.00416075 C -2.000993 -0.538384 -1.795201 -1.043511 -1.421032 -1.41768 C -1.046864 -1.791848 -0.523028 -1.997641 0.000808204 -1.997641 Z M 0.000808204 -1.997641 " transform="matrix(0.208796, 0, 0, -0.208796, 129.6678, 69.0204)"/>
<g clip-path="url(#clip-16)">
<path fill="none" stroke-width="3" stroke-linecap="square" stroke-linejoin="round" stroke="rgb(18.03894%, 43.528748%, 72.549438%)" stroke-opacity="0.8" stroke-miterlimit="10" d="M 1525.395355 1620.46923 L 1577.292527 1620.787273 L 1635.587981 1621.086608 L 1695.810402 1621.984612 L 1767.557214 1622.882616 L 1827.143549 1624.37929 L 1888.638143 1625.57663 L 1953.350586 1627.671973 L 2028.932625 1631.881369 L 2089.155046 1653.171557 " transform="matrix(0.208796, 0, 0, -0.208796, -294.368, 430.105792)"/>
</g>
<path fill-rule="nonzero" fill="rgb(100%, 100%, 100%)" fill-opacity="0.8" stroke-width="1.5" stroke-linecap="butt" stroke-linejoin="round" stroke="rgb(18.03894%, 43.528748%, 72.549438%)" stroke-opacity="0.8" stroke-miterlimit="10" d="M 0.00404102 -1.992253 C 0.527877 -1.992253 1.033004 -1.78646 1.407173 -1.412292 C 1.781341 -1.038123 2.005843 -0.532996 2.005843 -0.00915965 C 2.005843 0.533385 1.781341 1.038512 1.407173 1.412681 C 1.033004 1.786849 0.527877 1.992642 0.00404102 1.992642 C -0.538503 1.992642 -1.043631 1.786849 -1.417799 1.412681 C -1.791968 1.038512 -1.99776 0.533385 -1.99776 -0.00915965 C -1.99776 -0.532996 -1.791968 -1.038123 -1.417799 -1.412292 C -1.043631 -1.78646 -0.538503 -1.992253 0.00404102 -1.992253 Z M 0.00404102 -1.992253 " transform="matrix(0.208796, 0, 0, -0.208796, 34.964, 91.6934)"/>
<path fill-rule="nonzero" fill="rgb(100%, 100%, 100%)" fill-opacity="0.8" stroke-width="1.5" stroke-linecap="butt" stroke-linejoin="round" stroke="rgb(18.03894%, 43.528748%, 72.549438%)" stroke-opacity="0.8" stroke-miterlimit="10" d="M 0.00152661 -1.992732 C 0.525363 -1.992732 1.03049 -1.786939 1.423367 -1.41277 C 1.797535 -1.038602 2.003328 -0.533474 2.003328 0.00906984 C 2.003328 0.532906 1.797535 1.038033 1.423367 1.412202 C 1.03049 1.78637 0.525363 1.992163 0.00152661 1.992163 C -0.522309 1.992163 -1.046145 1.78637 -1.420314 1.412202 C -1.794482 1.038033 -2.000275 0.532906 -2.000275 0.00906984 C -2.000275 -0.533474 -1.794482 -1.038602 -1.420314 -1.41277 C -1.046145 -1.786939 -0.522309 -1.992732 0.00152661 -1.992732 Z M 0.00152661 -1.992732 " transform="matrix(0.208796, 0, 0, -0.208796, 47.1364, 91.6308)"/>
<path fill-rule="nonzero" fill="rgb(100%, 100%, 100%)" fill-opacity="0.8" stroke-width="1.5" stroke-linecap="butt" stroke-linejoin="round" stroke="rgb(18.03894%, 43.528748%, 72.549438%)" stroke-opacity="0.8" stroke-miterlimit="10" d="M 0.00449002 -1.994647 C 0.528326 -1.994647 1.033453 -1.788855 1.407622 -1.414686 C 1.78179 -1.040518 2.006292 -0.53539 2.006292 0.0071541 C 2.006292 0.53099 1.78179 1.036117 1.407622 1.410286 C 1.033453 1.784455 0.528326 2.008956 0.00449002 2.008956 C -0.538054 2.008956 -1.043182 1.784455 -1.41735 1.410286 C -1.791519 1.036117 -1.997311 0.53099 -1.997311 0.0071541 C -1.997311 -0.53539 -1.791519 -1.040518 -1.41735 -1.414686 C -1.043182 -1.788855 -0.538054 -1.994647 0.00449002 -1.994647 Z M 0.00449002 -1.994647 " transform="matrix(0.208796, 0, 0, -0.208796, 59.71, 91.4429)"/>
<path fill-rule="nonzero" fill="rgb(100%, 100%, 100%)" fill-opacity="0.8" stroke-width="1.5" stroke-linecap="butt" stroke-linejoin="round" stroke="rgb(18.03894%, 43.528748%, 72.549438%)" stroke-opacity="0.8" stroke-miterlimit="10" d="M 0.0000299335 -1.996563 C 0.523866 -1.996563 1.047702 -1.79077 1.42187 -1.416602 C 1.796039 -1.042433 2.001831 -0.537306 2.001831 0.00523836 C 2.001831 0.529074 1.796039 1.034202 1.42187 1.40837 C 1.047702 1.782539 0.523866 2.00704 0.0000299335 2.00704 C -0.523806 2.00704 -1.047642 1.782539 -1.42181 1.40837 C -1.795979 1.034202 -2.001772 0.529074 -2.001772 0.00523836 C -2.001772 -0.537306 -1.795979 -1.042433 -1.42181 -1.416602 C -1.047642 -1.79077 -0.523806 -1.996563 0.0000299335 -1.996563 Z M 0.0000299335 -1.996563 " transform="matrix(0.208796, 0, 0, -0.208796, 74.6914, 91.255)"/>
<path fill-rule="nonzero" fill="rgb(100%, 100%, 100%)" fill-opacity="0.8" stroke-width="1.5" stroke-linecap="butt" stroke-linejoin="round" stroke="rgb(18.03894%, 43.528748%, 72.549438%)" stroke-opacity="0.8" stroke-miterlimit="10" d="M 0.00676497 -1.999916 C 0.530601 -1.999916 1.035728 -1.794123 1.409897 -1.419955 C 1.784065 -1.045786 2.008566 -0.52195 2.008566 0.00188581 C 2.008566 0.525722 1.784065 1.030849 1.409897 1.405018 C 1.035728 1.797895 0.530601 2.003687 0.00676497 2.003687 C -0.535779 2.003687 -1.040907 1.797895 -1.415075 1.405018 C -1.789244 1.030849 -1.995037 0.525722 -1.995037 0.00188581 C -1.995037 -0.52195 -1.789244 -1.045786 -1.415075 -1.419955 C -1.040907 -1.794123 -0.535779 -1.999916 0.00676497 -1.999916 Z M 0.00676497 -1.999916 " transform="matrix(0.208796, 0, 0, -0.208796, 87.1314, 90.9418)"/>
<path fill-rule="nonzero" fill="rgb(100%, 100%, 100%)" fill-opacity="0.8" stroke-width="1.5" stroke-linecap="butt" stroke-linejoin="round" stroke="rgb(18.03894%, 43.528748%, 72.549438%)" stroke-opacity="0.8" stroke-miterlimit="10" d="M 0.000269401 -2.00231 C 0.524105 -2.00231 1.047941 -1.796518 1.42211 -1.422349 C 1.796278 -1.048181 2.002071 -0.524345 2.002071 -0.000508869 C 2.002071 0.523327 1.796278 1.047163 1.42211 1.421331 C 1.047941 1.7955 0.524105 2.001293 0.000269401 2.001293 C -0.523567 2.001293 -1.047402 1.7955 -1.421571 1.421331 C -1.795739 1.047163 -2.001532 0.523327 -2.001532 -0.000508869 C -2.001532 -0.524345 -1.795739 -1.048181 -1.421571 -1.422349 C -1.047402 -1.796518 -0.523567 -2.00231 0.000269401 -2.00231 Z M 0.000269401 -2.00231 " transform="matrix(0.208796, 0, 0, -0.208796, 99.9726, 90.6913)"/>
<path fill-rule="nonzero" fill="rgb(100%, 100%, 100%)" fill-opacity="0.8" stroke-width="1.5" stroke-linecap="butt" stroke-linejoin="round" stroke="rgb(18.03894%, 43.528748%, 72.549438%)" stroke-opacity="0.8" stroke-miterlimit="10" d="M 0.00850111 -2.006621 C 0.532337 -2.006621 1.037465 -1.78212 1.411633 -1.407951 C 1.785802 -1.033783 1.991594 -0.528655 1.991594 -0.00481929 C 1.991594 0.537725 1.785802 1.042853 1.411633 1.417021 C 1.037465 1.79119 0.532337 1.996982 0.00850111 1.996982 C -0.534043 1.996982 -1.039171 1.79119 -1.413339 1.417021 C -1.787508 1.042853 -1.9933 0.537725 -1.9933 -0.00481929 C -1.9933 -0.528655 -1.787508 -1.033783 -1.413339 -1.407951 C -1.039171 -1.78212 -0.534043 -2.006621 0.00850111 -2.006621 Z M 0.00850111 -2.006621 " transform="matrix(0.208796, 0, 0, -0.208796, 113.4826, 90.2529)"/>
<path fill-rule="nonzero" fill="rgb(100%, 100%, 100%)" fill-opacity="0.8" stroke-width="1.5" stroke-linecap="butt" stroke-linejoin="round" stroke="rgb(18.03894%, 43.528748%, 72.549438%)" stroke-opacity="0.8" stroke-miterlimit="10" d="M -0.00419069 -1.997012 C 0.538354 -1.997012 1.043481 -1.791219 1.41765 -1.417051 C 1.791818 -1.042882 1.997611 -0.537755 1.997611 0.00478936 C 1.997611 0.528625 1.791818 1.033753 1.41765 1.407921 C 1.043481 1.78209 0.538354 2.006591 -0.00419069 2.006591 C -0.528027 2.006591 -1.033154 1.78209 -1.407323 1.407921 C -1.781491 1.033753 -2.005992 0.528625 -2.005992 0.00478936 C -2.005992 -0.537755 -1.781491 -1.042882 -1.407323 -1.417051 C -1.033154 -1.791219 -0.528027 -1.997012 -0.00419069 -1.997012 Z M -0.00419069 -1.997012 " transform="matrix(0.208796, 0, 0, -0.208796, 129.2665, 89.376)"/>
<path fill="none" stroke-width="1.5" stroke-linecap="square" stroke-linejoin="miter" stroke="rgb(0%, 0%, 0%)" stroke-opacity="1" stroke-miterlimit="10" d="M 1539.4828 1599.609335 L 1539.4828 2051.99777 " transform="matrix(0.208796, 0, 0, -0.208796, -294.368, 430.105792)"/>
<path fill="none" stroke-width="1.5" stroke-linecap="square" stroke-linejoin="miter" stroke="rgb(0%, 0%, 0%)" stroke-opacity="1" stroke-miterlimit="10" d="M 2052.000113 1599.609335 L 2052.000113 2051.99777 " transform="matrix(0.208796, 0, 0, -0.208796, -294.368, 430.105792)"/>
<path fill="none" stroke-width="1.5" stroke-linecap="square" stroke-linejoin="miter" stroke="rgb(0%, 0%, 0%)" stroke-opacity="1" stroke-miterlimit="10" d="M 1539.4828 1599.609335 L 2052.000113 1599.609335 " transform="matrix(0.208796, 0, 0, -0.208796, -294.368, 430.105792)"/>
<path fill="none" stroke-width="1.5" stroke-linecap="square" stroke-linejoin="miter" stroke="rgb(0%, 0%, 0%)" stroke-opacity="1" stroke-miterlimit="10" d="M 1539.4828 2051.99777 L 2052.000113 2051.99777 " transform="matrix(0.208796, 0, 0, -0.208796, -294.368, 430.105792)"/>
<path fill-rule="nonzero" fill="rgb(100%, 100%, 100%)" fill-opacity="0.9" stroke-width="1" stroke-linecap="butt" stroke-linejoin="miter" stroke="rgb(0%, 0%, 0%)" stroke-opacity="0.9" stroke-miterlimit="10" d="M 1657.121379 1900.684025 L 1934.361534 1900.684025 L 1934.361534 2036.993612 L 1657.121379 2036.993612 Z M 1657.121379 1900.684025 " transform="matrix(0.208796, 0, 0, -0.208796, -294.368, 430.105792)"/>
<path fill="none" stroke-width="3" stroke-linecap="square" stroke-linejoin="round" stroke="rgb(84.313965%, 66.667175%, 23.529053%)" stroke-opacity="0.8" stroke-miterlimit="10" d="M 1669.132188 2014.038374 L 1729.130108 2014.038374 " transform="matrix(0.208796, 0, 0, -0.208796, -294.368, 430.105792)"/>
<path fill-rule="nonzero" fill="rgb(100%, 100%, 100%)" fill-opacity="0.8" stroke-width="1.5" stroke-linecap="butt" stroke-linejoin="round" stroke="rgb(84.313965%, 66.667175%, 23.529053%)" stroke-opacity="0.8" stroke-miterlimit="10" d="M 1699.121794 2012.036573 C 1699.664338 2012.036573 1700.169465 2012.242366 1700.543634 2012.616534 C 1700.917802 2012.990703 1701.123595 2013.49583 1701.123595 2014.038374 C 1701.123595 2014.56221 1700.917802 2015.067338 1700.543634 2015.441506 C 1700.169465 2015.815675 1699.664338 2016.040176 1699.121794 2016.040176 C 1698.597958 2016.040176 1698.09283 2015.815675 1697.718662 2015.441506 C 1697.344493 2015.067338 1697.119992 2014.56221 1697.119992 2014.038374 C 1697.119992 2013.49583 1697.344493 2012.990703 1697.718662 2012.616534 C 1698.09283 2012.242366 1698.597958 2012.036573 1699.121794 2012.036573 Z M 1699.121794 2012.036573 " transform="matrix(0.208796, 0, 0, -0.208796, -294.368, 430.105792)"/>
<path fill-rule="nonzero" fill="rgb(0%, 0%, 0%)" fill-opacity="1" d="M 72.171875 11.777344 L 72.171875 7.289062 L 74.160156 7.289062 C 74.558594 7.289062 74.859375 7.335938 75.066406 7.417969 C 75.273438 7.496094 75.441406 7.640625 75.570312 7.84375 C 75.695312 8.042969 75.757812 8.269531 75.757812 8.511719 C 75.757812 8.839844 75.648438 9.109375 75.441406 9.320312 C 75.238281 9.539062 74.917969 9.675781 74.492188 9.734375 C 74.648438 9.808594 74.765625 9.882812 74.847656 9.960938 C 75.023438 10.121094 75.1875 10.316406 75.34375 10.554688 L 76.121094 11.777344 L 75.375 11.777344 L 74.785156 10.84375 C 74.609375 10.578125 74.464844 10.371094 74.351562 10.230469 C 74.242188 10.085938 74.140625 9.984375 74.050781 9.929688 C 73.964844 9.871094 73.871094 9.835938 73.785156 9.808594 C 73.714844 9.796875 73.601562 9.785156 73.453125 9.785156 L 72.761719 9.785156 L 72.761719 11.777344 Z M 72.761719 9.269531 L 74.039062 9.269531 C 74.308594 9.269531 74.523438 9.246094 74.671875 9.1875 C 74.824219 9.132812 74.941406 9.042969 75.023438 8.917969 C 75.097656 8.792969 75.144531 8.664062 75.144531 8.511719 C 75.144531 8.304688 75.0625 8.128906 74.910156 7.992188 C 74.753906 7.855469 74.511719 7.785156 74.183594 7.785156 L 72.761719 7.785156 Z M 72.761719 9.269531 "/>
<path fill-rule="nonzero" fill="rgb(0%, 0%, 0%)" fill-opacity="1" d="M 76.695312 11.777344 L 76.695312 7.289062 L 79.941406 7.289062 L 79.941406 7.824219 L 77.292969 7.824219 L 77.292969 9.195312 L 79.773438 9.195312 L 79.773438 9.722656 L 77.292969 9.722656 L 77.292969 11.25 L 80.039062 11.25 L 80.039062 11.777344 Z M 76.695312 11.777344 "/>
<path fill-rule="nonzero" fill="rgb(0%, 0%, 0%)" fill-opacity="1" d="M 81.644531 11.777344 L 80.453125 7.289062 L 81.0625 7.289062 L 81.746094 10.230469 C 81.820312 10.542969 81.882812 10.847656 81.9375 11.148438 C 82.050781 10.671875 82.113281 10.398438 82.140625 10.324219 L 82.992188 7.289062 L 83.707031 7.289062 L 84.351562 9.558594 C 84.507812 10.121094 84.621094 10.65625 84.695312 11.148438 C 84.75 10.867188 84.828125 10.542969 84.921875 10.171875 L 85.621094 7.289062 L 86.222656 7.289062 L 84.988281 11.777344 L 84.417969 11.777344 L 83.472656 8.363281 C 83.390625 8.074219 83.347656 7.898438 83.335938 7.835938 C 83.285156 8.042969 83.242188 8.21875 83.203125 8.363281 L 82.253906 11.777344 Z M 81.644531 11.777344 "/>
<path fill-rule="nonzero" fill="rgb(0%, 0%, 0%)" fill-opacity="1" d="M 86.574219 10.335938 L 87.132812 10.285156 C 87.15625 10.511719 87.21875 10.699219 87.320312 10.84375 C 87.414062 10.988281 87.5625 11.097656 87.769531 11.1875 C 87.972656 11.273438 88.203125 11.320312 88.460938 11.320312 C 88.683594 11.320312 88.878906 11.289062 89.054688 11.21875 C 89.230469 11.15625 89.355469 11.0625 89.441406 10.941406 C 89.523438 10.828125 89.566406 10.699219 89.566406 10.5625 C 89.566406 10.421875 89.523438 10.296875 89.441406 10.191406 C 89.363281 10.089844 89.230469 10.003906 89.042969 9.929688 C 88.921875 9.878906 88.660156 9.808594 88.246094 9.707031 C 87.832031 9.609375 87.546875 9.515625 87.382812 9.425781 C 87.167969 9.3125 87.007812 9.175781 86.898438 9.011719 C 86.792969 8.851562 86.742188 8.664062 86.742188 8.449219 C 86.742188 8.222656 86.804688 8.019531 86.9375 7.816406 C 87.0625 7.621094 87.25 7.472656 87.5 7.371094 C 87.746094 7.273438 88.019531 7.214844 88.320312 7.214844 C 88.652344 7.214844 88.949219 7.273438 89.199219 7.378906 C 89.449219 7.484375 89.648438 7.640625 89.789062 7.847656 C 89.925781 8.0625 89.996094 8.292969 90.007812 8.554688 L 89.4375 8.601562 C 89.40625 8.316406 89.304688 8.105469 89.128906 7.953125 C 88.953125 7.8125 88.691406 7.734375 88.347656 7.734375 C 87.984375 7.734375 87.726562 7.804688 87.5625 7.9375 C 87.402344 8.066406 87.320312 8.222656 87.320312 8.414062 C 87.320312 8.574219 87.375 8.707031 87.488281 8.808594 C 87.601562 8.914062 87.902344 9.019531 88.382812 9.132812 C 88.867188 9.246094 89.199219 9.339844 89.378906 9.414062 C 89.636719 9.539062 89.832031 9.691406 89.957031 9.871094 C 90.082031 10.058594 90.144531 10.273438 90.144531 10.511719 C 90.144531 10.75 90.074219 10.972656 89.9375 11.1875 C 89.800781 11.398438 89.601562 11.5625 89.347656 11.675781 C 89.09375 11.789062 88.804688 11.84375 88.484375 11.84375 C 88.078125 11.84375 87.738281 11.789062 87.464844 11.675781 C 87.1875 11.5625 86.976562 11.382812 86.820312 11.144531 C 86.660156 10.90625 86.582031 10.636719 86.574219 10.335938 Z M 86.574219 10.335938 "/>
<path fill="none" stroke-width="3" stroke-linecap="square" stroke-linejoin="round" stroke="rgb(67.451477%, 34.901428%, 62.745667%)" stroke-opacity="0.8" stroke-miterlimit="10" d="M 1669.132188 1971.588957 L 1729.130108 1971.588957 " transform="matrix(0.208796, 0, 0, -0.208796, -294.368, 430.105792)"/>
<path fill-rule="nonzero" fill="rgb(100%, 100%, 100%)" fill-opacity="0.8" stroke-width="1.5" stroke-linecap="butt" stroke-linejoin="round" stroke="rgb(67.451477%, 34.901428%, 62.745667%)" stroke-opacity="0.8" stroke-miterlimit="10" d="M 1699.121794 1969.587156 C 1699.664338 1969.587156 1700.169465 1969.811657 1700.543634 1970.185825 C 1700.917802 1970.559994 1701.123595 1971.065121 1701.123595 1971.588957 C 1701.123595 1972.131502 1700.917802 1972.636629 1700.543634 1973.010798 C 1700.169465 1973.384966 1699.664338 1973.590759 1699.121794 1973.590759 C 1698.597958 1973.590759 1698.09283 1973.384966 1697.718662 1973.010798 C 1697.344493 1972.636629 1697.119992 1972.131502 1697.119992 1971.588957 C 1697.119992 1971.065121 1697.344493 1970.559994 1697.718662 1970.185825 C 1698.09283 1969.811657 1698.597958 1969.587156 1699.121794 1969.587156 Z M 1699.121794 1969.587156 " transform="matrix(0.208796, 0, 0, -0.208796, -294.368, 430.105792)"/>
<path fill-rule="nonzero" fill="rgb(0%, 0%, 0%)" fill-opacity="1" d="M 72.140625 20.636719 L 72.140625 16.152344 L 73.039062 16.152344 L 74.097656 19.328125 C 74.195312 19.628906 74.265625 19.847656 74.308594 19.992188 C 74.359375 19.828125 74.441406 19.589844 74.546875 19.269531 L 75.625 16.152344 L 76.421875 16.152344 L 76.421875 20.636719 L 75.851562 20.636719 L 75.851562 16.882812 L 74.546875 20.636719 L 74.015625 20.636719 L 72.71875 16.820312 L 72.71875 20.636719 Z M 72.140625 20.636719 "/>
<path fill-rule="nonzero" fill="rgb(0%, 0%, 0%)" fill-opacity="1" d="M 77.355469 20.636719 L 77.355469 16.152344 L 77.949219 16.152344 L 77.949219 20.109375 L 80.160156 20.109375 L 80.160156 20.636719 Z M 77.355469 20.636719 "/>
<path fill="none" stroke-width="3" stroke-linecap="square" stroke-linejoin="round" stroke="rgb(18.03894%, 43.528748%, 72.549438%)" stroke-opacity="0.8" stroke-miterlimit="10" d="M 1669.132188 1929.158248 L 1729.130108 1929.158248 " transform="matrix(0.208796, 0, 0, -0.208796, -294.368, 430.105792)"/>
<path fill-rule="nonzero" fill="rgb(100%, 100%, 100%)" fill-opacity="0.8" stroke-width="1.5" stroke-linecap="butt" stroke-linejoin="round" stroke="rgb(18.03894%, 43.528748%, 72.549438%)" stroke-opacity="0.8" stroke-miterlimit="10" d="M 1699.121794 1927.156447 C 1699.664338 1927.156447 1700.169465 1927.36224 1700.543634 1927.736408 C 1700.917802 1928.110577 1701.123595 1928.634413 1701.123595 1929.158248 C 1701.123595 1929.682084 1700.917802 1930.187212 1700.543634 1930.56138 C 1700.169465 1930.954257 1699.664338 1931.16005 1699.121794 1931.16005 C 1698.597958 1931.16005 1698.09283 1930.954257 1697.718662 1930.56138 C 1697.344493 1930.187212 1697.119992 1929.682084 1697.119992 1929.158248 C 1697.119992 1928.634413 1697.344493 1928.110577 1697.718662 1927.736408 C 1698.09283 1927.36224 1698.597958 1927.156447 1699.121794 1927.156447 Z M 1699.121794 1927.156447 " transform="matrix(0.208796, 0, 0, -0.208796, -294.368, 430.105792)"/>
<path fill-rule="nonzero" fill="rgb(0%, 0%, 0%)" fill-opacity="1" d="M 75.363281 27.925781 L 75.957031 28.074219 C 75.832031 28.5625 75.605469 28.941406 75.28125 29.191406 C 74.953125 29.441406 74.558594 29.566406 74.097656 29.566406 C 73.613281 29.566406 73.21875 29.472656 72.917969 29.277344 C 72.613281 29.085938 72.378906 28.800781 72.222656 28.425781 C 72.066406 28.050781 71.992188 27.648438 71.992188 27.222656 C 71.992188 26.761719 72.078125 26.351562 72.253906 26.003906 C 72.429688 25.652344 72.6875 25.386719 73.019531 25.207031 C 73.34375 25.03125 73.707031 24.9375 74.109375 24.9375 C 74.554688 24.9375 74.929688 25.054688 75.238281 25.28125 C 75.542969 25.507812 75.757812 25.828125 75.875 26.242188 L 75.292969 26.378906 C 75.1875 26.050781 75.035156 25.820312 74.84375 25.671875 C 74.640625 25.519531 74.398438 25.445312 74.097656 25.445312 C 73.746094 25.445312 73.457031 25.53125 73.226562 25.695312 C 72.992188 25.859375 72.832031 26.082031 72.738281 26.359375 C 72.644531 26.636719 72.597656 26.921875 72.597656 27.21875 C 72.597656 27.605469 72.65625 27.9375 72.769531 28.21875 C 72.882812 28.507812 73.050781 28.722656 73.289062 28.859375 C 73.519531 28.996094 73.769531 29.066406 74.046875 29.066406 C 74.378906 29.066406 74.660156 28.972656 74.890625 28.777344 C 75.117188 28.589844 75.273438 28.300781 75.363281 27.925781 Z M 75.363281 27.925781 "/>
<path fill-rule="nonzero" fill="rgb(0%, 0%, 0%)" fill-opacity="1" d="M 76.203125 29.496094 L 77.910156 25.011719 L 78.550781 25.011719 L 80.386719 29.496094 L 79.714844 29.496094 L 79.1875 28.136719 L 77.316406 28.136719 L 76.820312 29.496094 Z M 77.484375 27.65625 L 79.007812 27.65625 L 78.539062 26.414062 C 78.394531 26.039062 78.285156 25.726562 78.21875 25.480469 C 78.160156 25.769531 78.082031 26.058594 77.980469 26.339844 Z M 77.484375 27.65625 "/>
<path fill-rule="nonzero" fill="rgb(0%, 0%, 0%)" fill-opacity="1" d="M 80.660156 28.058594 L 81.21875 28.007812 C 81.242188 28.230469 81.304688 28.421875 81.40625 28.5625 C 81.5 28.707031 81.652344 28.820312 81.859375 28.910156 C 82.058594 28.996094 82.289062 29.039062 82.546875 29.039062 C 82.773438 29.039062 82.964844 29.007812 83.140625 28.941406 C 83.316406 28.878906 83.441406 28.785156 83.53125 28.664062 C 83.613281 28.550781 83.65625 28.421875 83.65625 28.28125 C 83.65625 28.144531 83.613281 28.019531 83.53125 27.914062 C 83.449219 27.8125 83.316406 27.726562 83.128906 27.648438 C 83.011719 27.597656 82.746094 27.53125 82.332031 27.429688 C 81.921875 27.332031 81.632812 27.234375 81.46875 27.148438 C 81.257812 27.035156 81.09375 26.898438 80.988281 26.734375 C 80.878906 26.570312 80.832031 26.382812 80.832031 26.171875 C 80.832031 25.945312 80.894531 25.738281 81.023438 25.539062 C 81.148438 25.34375 81.335938 25.195312 81.589844 25.09375 C 81.832031 24.992188 82.109375 24.9375 82.410156 24.9375 C 82.742188 24.9375 83.035156 24.992188 83.285156 25.101562 C 83.535156 25.207031 83.738281 25.363281 83.875 25.570312 C 84.011719 25.78125 84.082031 26.015625 84.09375 26.277344 L 83.523438 26.320312 C 83.492188 26.039062 83.390625 25.828125 83.21875 25.675781 C 83.042969 25.53125 82.777344 25.457031 82.433594 25.457031 C 82.070312 25.457031 81.8125 25.527344 81.652344 25.65625 C 81.488281 25.789062 81.40625 25.945312 81.40625 26.132812 C 81.40625 26.296875 81.464844 26.429688 81.574219 26.527344 C 81.6875 26.636719 81.988281 26.742188 82.472656 26.855469 C 82.953125 26.96875 83.285156 27.0625 83.46875 27.136719 C 83.722656 27.261719 83.917969 27.410156 84.042969 27.59375 C 84.167969 27.78125 84.230469 27.992188 84.230469 28.230469 C 84.230469 28.46875 84.164062 28.695312 84.023438 28.910156 C 83.886719 29.121094 83.6875 29.285156 83.4375 29.398438 C 83.179688 29.511719 82.890625 29.566406 82.570312 29.566406 C 82.164062 29.566406 81.828125 29.511719 81.550781 29.398438 C 81.273438 29.285156 81.0625 29.101562 80.90625 28.863281 C 80.75 28.625 80.667969 28.359375 80.660156 28.058594 Z M 80.660156 28.058594 "/>
<path fill-rule="nonzero" fill="rgb(0%, 0%, 0%)" fill-opacity="1" d="M 85.058594 29.496094 L 85.058594 25.011719 L 85.652344 25.011719 L 85.652344 26.855469 L 87.984375 26.855469 L 87.984375 25.011719 L 88.578125 25.011719 L 88.578125 29.496094 L 87.984375 29.496094 L 87.984375 27.386719 L 85.652344 27.386719 L 85.652344 29.496094 Z M 85.058594 29.496094 "/>
<path fill-rule="nonzero" fill="rgb(0%, 0%, 0%)" fill-opacity="1" d="M 89.574219 29.496094 L 89.574219 25.011719 L 92.820312 25.011719 L 92.820312 25.546875 L 90.167969 25.546875 L 90.167969 26.917969 L 92.648438 26.917969 L 92.648438 27.441406 L 90.167969 27.441406 L 90.167969 28.972656 L 92.917969 28.972656 L 92.917969 29.496094 Z M 89.574219 29.496094 "/>
<path fill-rule="nonzero" fill="rgb(0%, 0%, 0%)" fill-opacity="1" d="M 94.523438 29.496094 L 93.332031 25.011719 L 93.941406 25.011719 L 94.625 27.949219 C 94.699219 28.261719 94.761719 28.570312 94.816406 28.871094 C 94.929688 28.394531 94.992188 28.121094 95.019531 28.042969 L 95.871094 25.011719 L 96.582031 25.011719 L 97.230469 27.28125 C 97.386719 27.84375 97.5 28.375 97.574219 28.871094 C 97.628906 28.589844 97.707031 28.261719 97.800781 27.894531 L 98.5 25.011719 L 99.101562 25.011719 L 97.867188 29.496094 L 97.296875 29.496094 L 96.351562 26.082031 C 96.269531 25.796875 96.226562 25.621094 96.214844 25.558594 C 96.164062 25.765625 96.121094 25.941406 96.082031 26.082031 L 95.128906 29.496094 Z M 94.523438 29.496094 "/>
<path fill-rule="nonzero" fill="rgb(0%, 0%, 0%)" fill-opacity="1" d="M 99.453125 28.058594 L 100.011719 28.007812 C 100.035156 28.230469 100.097656 28.421875 100.199219 28.5625 C 100.292969 28.707031 100.441406 28.820312 100.648438 28.910156 C 100.847656 28.996094 101.082031 29.039062 101.339844 29.039062 C 101.5625 29.039062 101.757812 29.007812 101.933594 28.941406 C 102.109375 28.878906 102.234375 28.785156 102.320312 28.664062 C 102.402344 28.550781 102.445312 28.421875 102.445312 28.28125 C 102.445312 28.144531 102.402344 28.019531 102.320312 27.914062 C 102.238281 27.8125 102.109375 27.726562 101.921875 27.648438 C 101.800781 27.597656 101.539062 27.53125 101.125 27.429688 C 100.710938 27.332031 100.421875 27.234375 100.261719 27.148438 C 100.046875 27.035156 99.886719 26.898438 99.777344 26.734375 C 99.671875 26.570312 99.621094 26.382812 99.621094 26.171875 C 99.621094 25.945312 99.683594 25.738281 99.816406 25.539062 C 99.941406 25.34375 100.128906 25.195312 100.378906 25.09375 C 100.625 24.992188 100.898438 24.9375 101.199219 24.9375 C 101.53125 24.9375 101.828125 24.992188 102.078125 25.101562 C 102.328125 25.207031 102.527344 25.363281 102.667969 25.570312 C 102.804688 25.78125 102.871094 26.015625 102.886719 26.277344 L 102.316406 26.320312 C 102.285156 26.039062 102.183594 25.828125 102.007812 25.675781 C 101.832031 25.53125 101.570312 25.457031 101.226562 25.457031 C 100.863281 25.457031 100.605469 25.527344 100.441406 25.65625 C 100.28125 25.789062 100.199219 25.945312 100.199219 26.132812 C 100.199219 26.296875 100.253906 26.429688 100.367188 26.527344 C 100.480469 26.636719 100.78125 26.742188 101.261719 26.855469 C 101.746094 26.96875 102.078125 27.0625 102.257812 27.136719 C 102.515625 27.261719 102.710938 27.410156 102.835938 27.59375 C 102.960938 27.78125 103.023438 27.992188 103.023438 28.230469 C 103.023438 28.46875 102.953125 28.695312 102.816406 28.910156 C 102.679688 29.121094 102.476562 29.285156 102.226562 29.398438 C 101.972656 29.511719 101.683594 29.566406 101.363281 29.566406 C 100.957031 29.566406 100.617188 29.511719 100.34375 29.398438 C 100.066406 29.285156 99.855469 29.101562 99.695312 28.863281 C 99.539062 28.625 99.460938 28.359375 99.453125 28.058594 Z M 99.453125 28.058594 "/>
<path fill-rule="nonzero" fill="rgb(0%, 0%, 0%)" fill-opacity="1" d="M 104.914062 28.769531 L 104.914062 27.542969 L 103.699219 27.542969 L 103.699219 27.03125 L 104.914062 27.03125 L 104.914062 25.808594 L 105.433594 25.808594 L 105.433594 27.03125 L 106.65625 27.03125 L 106.65625 27.542969 L 105.433594 27.542969 L 105.433594 28.769531 Z M 104.914062 28.769531 "/>
<path fill-rule="nonzero" fill="rgb(0%, 0%, 0%)" fill-opacity="1" d="M 21.320312 104.847656 L 20.527344 104.847656 L 20.527344 104.371094 C 20.386719 104.558594 20.230469 104.695312 20.054688 104.785156 C 19.875 104.871094 19.691406 104.914062 19.511719 104.914062 C 19.136719 104.914062 18.808594 104.769531 18.546875 104.46875 C 18.28125 104.167969 18.152344 103.75 18.152344 103.210938 C 18.152344 102.660156 18.277344 102.246094 18.539062 101.957031 C 18.796875 101.671875 19.121094 101.527344 19.523438 101.527344 C 19.886719 101.527344 20.199219 101.675781 20.460938 101.976562 L 20.460938 100.359375 L 21.320312 100.359375 Z M 19.027344 103.148438 C 19.027344 103.5 19.074219 103.75 19.171875 103.90625 C 19.308594 104.132812 19.503906 104.238281 19.753906 104.238281 C 19.949219 104.238281 20.117188 104.15625 20.257812 103.988281 C 20.394531 103.824219 20.46875 103.574219 20.46875 103.234375 C 20.46875 102.859375 20.398438 102.589844 20.261719 102.429688 C 20.125 102.265625 19.957031 102.183594 19.75 102.183594 C 19.542969 102.183594 19.371094 102.265625 19.234375 102.429688 C 19.097656 102.589844 19.027344 102.828125 19.027344 103.148438 Z M 19.027344 103.148438 "/>
<g clip-path="url(#clip-17)">
<path fill-rule="nonzero" fill="rgb(100%, 100%, 100%)" fill-opacity="1" d="M 12.398438 106.351562 L 26.953125 106.351562 L 26.953125 98.6875 L 12.398438 98.6875 Z M 12.398438 106.351562 "/>
</g>
<g clip-path="url(#clip-18)">
<path fill="none" stroke-width="3.529412" stroke-linecap="square" stroke-linejoin="miter" stroke="rgb(100%, 100%, 100%)" stroke-opacity="1" stroke-miterlimit="10" d="M 306.766442 323.754221 L 321.321151 323.754221 L 321.321151 331.418237 L 306.766442 331.418237 Z M 306.766442 323.754221 " transform="matrix(0.999999, 0, 0, -1.000006, -294.367546, 430.107747)"/>
</g>
</svg>
