<?xml version="1.0" encoding="UTF-8"?>
<svg xmlns="http://www.w3.org/2000/svg" xmlns:xlink="http://www.w3.org/1999/xlink" width="460.8pt" height="345.6pt" viewBox="0 0 460.8 345.6">
<defs>
<g>
<g id="glyph-0-0">
<path d="M 0.847656 -2.140625 L 3.523438 -4.816406 L 4.167969 -4.167969 L 0.566406 -0.566406 L -0.078125 -1.214844 C -0.0859375 -1.796875 -0.09375 -2.597656 -0.101562 -3.617188 C -0.109375 -4.621094 -0.117188 -5.265625 -0.132812 -5.546875 C -0.15625 -6.066406 -0.21875 -6.472656 -0.320312 -6.757812 C -0.414062 -7.039062 -0.550781 -7.289062 -0.738281 -7.476562 C -1.035156 -7.769531 -1.390625 -7.910156 -1.789062 -7.886719 C -2.1875 -7.863281 -2.558594 -7.691406 -2.902344 -7.351562 C -3.140625 -7.109375 -3.351562 -6.804688 -3.539062 -6.464844 C -3.71875 -6.113281 -3.882812 -5.703125 -4.011719 -5.226562 L -4.792969 -6.003906 C -4.605469 -6.441406 -4.410156 -6.820312 -4.207031 -7.148438 C -4.003906 -7.476562 -3.789062 -7.753906 -3.5625 -7.980469 C -2.980469 -8.5625 -2.363281 -8.882812 -1.71875 -8.9375 C -1.074219 -8.992188 -0.503906 -8.78125 -0.015625 -8.292969 C 0.21875 -8.058594 0.398438 -7.785156 0.511719 -7.5 C 0.636719 -7.203125 0.730469 -6.796875 0.777344 -6.285156 C 0.792969 -6.144531 0.800781 -5.734375 0.808594 -5.039062 C 0.816406 -4.347656 0.832031 -3.382812 0.847656 -2.140625 Z M 0.847656 -2.140625 "/>
</g>
<g id="glyph-0-1">
<path d="M -2.691406 -7.636719 C -3.089844 -7.242188 -3.1875 -6.75 -3.003906 -6.160156 C -2.816406 -5.570312 -2.324219 -4.890625 -1.546875 -4.113281 C -0.769531 -3.335938 -0.09375 -2.847656 0.496094 -2.660156 C 1.089844 -2.472656 1.578125 -2.574219 1.976562 -2.972656 C 2.371094 -3.367188 2.472656 -3.859375 2.285156 -4.449219 C 2.09375 -5.03125 1.609375 -5.71875 0.832031 -6.496094 C 0.0546875 -7.273438 -0.628906 -7.753906 -1.214844 -7.949219 C -1.804688 -8.136719 -2.292969 -8.035156 -2.691406 -7.636719 Z M -3.296875 -8.246094 C -2.667969 -8.875 -1.929688 -9.101562 -1.089844 -8.945312 C -0.25 -8.773438 0.652344 -8.214844 1.601562 -7.265625 C 2.558594 -6.308594 3.117188 -5.40625 3.28125 -4.574219 C 3.4375 -3.734375 3.203125 -3.003906 2.566406 -2.363281 C 1.929688 -1.726562 1.199219 -1.492188 0.367188 -1.65625 C -0.464844 -1.820312 -1.359375 -2.386719 -2.316406 -3.34375 C -3.265625 -4.292969 -3.835938 -5.1875 -4.003906 -6.027344 C -4.167969 -6.859375 -3.9375 -7.605469 -3.296875 -8.246094 Z M -3.296875 -8.246094 "/>
</g>
<g id="glyph-0-2">
<path d="M -2.0625 -2.824219 L -0.015625 -4.867188 L 0.605469 -4.246094 L -1.4375 -2.203125 Z M -2.0625 -2.824219 "/>
</g>
<g id="glyph-0-3">
<path d="M 0.320312 -1.609375 L 1.570312 -2.863281 L -2.753906 -7.1875 L -3.84375 -5.554688 L -4.542969 -6.253906 L -3.460938 -7.878906 L -2.691406 -8.648438 L 2.332031 -3.625 L 3.585938 -4.875 L 4.230469 -4.230469 L 0.964844 -0.964844 Z M 0.320312 -1.609375 "/>
</g>
<g id="glyph-0-4">
<path d="M -2.0625 -7.941406 L -0.972656 -2.980469 L 0.964844 -4.914062 Z M -2.933594 -8.410156 L -1.96875 -9.371094 L 1.726562 -5.679688 L 2.535156 -6.488281 L 3.171875 -5.847656 L 2.363281 -5.039062 L 3.703125 -3.703125 L 2.941406 -2.941406 L 1.601562 -4.277344 L -0.957031 -1.71875 L -1.695312 -2.457031 Z M -2.933594 -8.410156 "/>
</g>
<g id="glyph-0-5">
<path d="M -5.03125 -6.308594 L -1.382812 -9.957031 L -1.058594 -9.628906 L 2.222656 -2.222656 L 1.421875 -1.421875 L -1.664062 -8.386719 L -4.386719 -5.664062 Z M -5.03125 -6.308594 "/>
</g>
<g id="glyph-0-6">
<path d="M 0.101562 -6.214844 C 0.542969 -6.503906 0.996094 -6.628906 1.445312 -6.582031 C 1.898438 -6.535156 2.316406 -6.332031 2.675781 -5.972656 C 3.234375 -5.414062 3.476562 -4.785156 3.398438 -4.097656 C 3.3125 -3.40625 2.917969 -2.714844 2.210938 -2.007812 C 1.96875 -1.765625 1.695312 -1.539062 1.398438 -1.335938 C 1.113281 -1.128906 0.777344 -0.933594 0.421875 -0.761719 L -0.320312 -1.5 C 0.015625 -1.585938 0.34375 -1.726562 0.660156 -1.921875 C 0.972656 -2.109375 1.269531 -2.339844 1.546875 -2.621094 C 2.03125 -3.101562 2.300781 -3.5625 2.363281 -3.996094 C 2.425781 -4.433594 2.277344 -4.847656 1.914062 -5.210938 C 1.585938 -5.539062 1.207031 -5.6875 0.785156 -5.640625 C 0.367188 -5.59375 -0.0625 -5.367188 -0.480469 -4.945312 L -1.144531 -4.285156 L -1.773438 -4.914062 L -1.082031 -5.609375 C -0.707031 -5.980469 -0.488281 -6.339844 -0.441406 -6.695312 C -0.390625 -7.046875 -0.503906 -7.367188 -0.792969 -7.652344 C -1.082031 -7.941406 -1.414062 -8.058594 -1.773438 -8.011719 C -2.140625 -7.957031 -2.511719 -7.738281 -2.894531 -7.359375 C -3.101562 -7.148438 -3.304688 -6.898438 -3.5 -6.613281 C -3.695312 -6.324219 -3.890625 -5.988281 -4.082031 -5.609375 L -4.769531 -6.292969 C -4.558594 -6.65625 -4.347656 -6.992188 -4.128906 -7.289062 C -3.921875 -7.574219 -3.703125 -7.839844 -3.46875 -8.074219 C -2.894531 -8.648438 -2.300781 -8.976562 -1.695312 -9.054688 C -1.089844 -9.132812 -0.558594 -8.945312 -0.109375 -8.492188 C 0.203125 -8.183594 0.375 -7.824219 0.414062 -7.429688 C 0.449219 -7.03125 0.351562 -6.621094 0.101562 -6.214844 Z M 0.101562 -6.214844 "/>
</g>
<g id="glyph-1-0">
<path d="M 1.46875 -10.933594 L 2.953125 -10.933594 L 2.953125 0 L 1.46875 0 Z M 1.46875 -10.933594 "/>
</g>
<g id="glyph-1-1">
<path d="M 8.234375 -4.949219 L 8.234375 0 L 6.886719 0 L 6.886719 -4.90625 C 6.886719 -5.683594 6.71875 -6.253906 6.421875 -6.644531 C 6.121094 -7.035156 5.671875 -7.230469 5.070312 -7.230469 C 4.335938 -7.230469 3.765625 -6.988281 3.34375 -6.523438 C 2.925781 -6.058594 2.714844 -5.429688 2.714844 -4.636719 L 2.714844 0 L 1.363281 0 L 1.363281 -8.203125 L 2.714844 -8.203125 L 2.714844 -6.929688 C 3.03125 -7.410156 3.40625 -7.785156 3.855469 -8.023438 C 4.289062 -8.265625 4.800781 -8.398438 5.371094 -8.398438 C 6.300781 -8.398438 7.019531 -8.101562 7.5 -7.515625 C 7.980469 -6.929688 8.234375 -6.074219 8.234375 -4.949219 Z M 8.234375 -4.949219 "/>
</g>
<g id="glyph-1-2">
<path d="M 2.746094 -10.53125 L 2.746094 -8.203125 L 5.519531 -8.203125 L 5.519531 -7.15625 L 2.746094 -7.15625 L 2.746094 -2.699219 C 2.746094 -2.023438 2.835938 -1.589844 3.015625 -1.410156 C 3.195312 -1.214844 3.570312 -1.125 4.140625 -1.125 L 5.519531 -1.125 L 5.519531 0 L 4.140625 0 C 3.089844 0 2.371094 -0.195312 1.980469 -0.585938 C 1.589844 -0.976562 1.394531 -1.679688 1.394531 -2.699219 L 1.394531 -7.15625 L 0.40625 -7.15625 L 0.40625 -8.203125 L 1.394531 -8.203125 L 1.394531 -10.53125 Z M 2.746094 -10.53125 "/>
</g>
<g id="glyph-1-3">
<path d="M 5.144531 -4.125 C 4.050781 -4.125 3.300781 -3.988281 2.878906 -3.75 C 2.460938 -3.496094 2.25 -3.074219 2.25 -2.476562 C 2.25 -1.996094 2.398438 -1.605469 2.714844 -1.335938 C 3.03125 -1.050781 3.464844 -0.914062 4.003906 -0.914062 C 4.753906 -0.914062 5.355469 -1.171875 5.804688 -1.710938 C 6.253906 -2.234375 6.480469 -2.941406 6.480469 -3.824219 L 6.480469 -4.125 Z M 7.828125 -4.679688 L 7.828125 0 L 6.480469 0 L 6.480469 -1.246094 C 6.164062 -0.734375 5.773438 -0.375 5.324219 -0.148438 C 4.875 0.0742188 4.304688 0.195312 3.644531 0.195312 C 2.804688 0.195312 2.128906 -0.03125 1.636719 -0.496094 C 1.140625 -0.960938 0.898438 -1.589844 0.898438 -2.386719 C 0.898438 -3.300781 1.199219 -3.988281 1.828125 -4.46875 C 2.445312 -4.933594 3.359375 -5.175781 4.589844 -5.175781 L 6.480469 -5.175781 L 6.480469 -5.308594 C 6.480469 -5.925781 6.269531 -6.40625 5.863281 -6.75 C 5.460938 -7.078125 4.890625 -7.261719 4.15625 -7.261719 C 3.675781 -7.261719 3.226562 -7.199219 2.773438 -7.078125 C 2.324219 -6.960938 1.90625 -6.796875 1.5 -6.585938 L 1.5 -7.828125 C 1.980469 -8.011719 2.460938 -8.160156 2.925781 -8.25 C 3.390625 -8.339844 3.839844 -8.398438 4.289062 -8.398438 C 5.476562 -8.398438 6.359375 -8.085938 6.945312 -7.46875 C 7.53125 -6.855469 7.828125 -5.925781 7.828125 -4.679688 Z M 7.828125 -4.679688 "/>
</g>
<g id="glyph-1-4">
<path d="M 1.363281 -11.398438 L 2.714844 -11.398438 L 2.714844 -4.664062 L 6.734375 -8.203125 L 8.460938 -8.203125 L 4.109375 -4.363281 L 8.640625 0 L 6.886719 0 L 2.714844 -4.003906 L 2.714844 0 L 1.363281 0 Z M 1.363281 -11.398438 "/>
</g>
<g id="glyph-1-5">
<path d="M 8.429688 -4.441406 L 8.429688 -3.78125 L 2.234375 -3.78125 C 2.296875 -2.851562 2.566406 -2.128906 3.074219 -1.648438 C 3.570312 -1.171875 4.261719 -0.929688 5.160156 -0.929688 C 5.671875 -0.929688 6.179688 -0.988281 6.660156 -1.109375 C 7.140625 -1.230469 7.636719 -1.425781 8.113281 -1.695312 L 8.113281 -0.421875 C 7.636719 -0.210938 7.140625 -0.046875 6.628906 0.046875 C 6.121094 0.136719 5.59375 0.195312 5.085938 0.195312 C 3.765625 0.195312 2.730469 -0.179688 1.964844 -0.929688 C 1.199219 -1.679688 0.824219 -2.714844 0.824219 -4.019531 C 0.824219 -5.355469 1.183594 -6.421875 1.90625 -7.214844 C 2.625 -7.996094 3.613281 -8.398438 4.84375 -8.398438 C 5.953125 -8.398438 6.824219 -8.039062 7.46875 -7.335938 C 8.101562 -6.613281 8.429688 -5.65625 8.429688 -4.441406 Z M 7.078125 -4.828125 C 7.066406 -5.566406 6.855469 -6.148438 6.464844 -6.601562 C 6.058594 -7.035156 5.519531 -7.261719 4.859375 -7.261719 C 4.109375 -7.261719 3.511719 -7.035156 3.058594 -6.613281 C 2.609375 -6.195312 2.339844 -5.59375 2.28125 -4.828125 Z M 7.078125 -4.828125 "/>
</g>
<g id="glyph-1-6">
</g>
<g id="glyph-1-7">
<path d="M 6.808594 -6.960938 L 6.808594 -11.398438 L 8.160156 -11.398438 L 8.160156 0 L 6.808594 0 L 6.808594 -1.230469 C 6.523438 -0.734375 6.164062 -0.375 5.730469 -0.148438 C 5.296875 0.0742188 4.785156 0.195312 4.183594 0.195312 C 3.195312 0.195312 2.386719 -0.195312 1.753906 -0.976562 C 1.125 -1.753906 0.824219 -2.804688 0.824219 -4.09375 C 0.824219 -5.386719 1.125 -6.421875 1.753906 -7.214844 C 2.386719 -7.996094 3.195312 -8.398438 4.183594 -8.398438 C 4.785156 -8.398438 5.296875 -8.28125 5.730469 -8.039062 C 6.164062 -7.800781 6.523438 -7.441406 6.808594 -6.960938 Z M 2.21875 -4.09375 C 2.21875 -3.105469 2.414062 -2.324219 2.820312 -1.753906 C 3.226562 -1.183594 3.78125 -0.914062 4.5 -0.914062 C 5.21875 -0.914062 5.773438 -1.183594 6.195312 -1.753906 C 6.601562 -2.324219 6.808594 -3.105469 6.808594 -4.09375 C 6.808594 -5.085938 6.601562 -5.851562 6.195312 -6.421875 C 5.773438 -6.988281 5.21875 -7.273438 4.5 -7.273438 C 3.78125 -7.273438 3.226562 -6.988281 2.820312 -6.421875 C 2.414062 -5.851562 2.21875 -5.085938 2.21875 -4.09375 Z M 2.21875 -4.09375 "/>
</g>
<g id="glyph-2-0">
<path d="M 3.496094 -7.304688 C 2.9375 -7.304688 2.519531 -7.027344 2.234375 -6.480469 C 1.945312 -5.929688 1.816406 -5.105469 1.816406 -4.003906 C 1.816406 -2.902344 1.945312 -2.078125 2.234375 -1.527344 C 2.519531 -0.980469 2.9375 -0.703125 3.496094 -0.703125 C 4.058594 -0.703125 4.476562 -0.980469 4.761719 -1.527344 C 5.039062 -2.078125 5.179688 -2.902344 5.179688 -4.003906 C 5.179688 -5.105469 5.039062 -5.929688 4.761719 -6.480469 C 4.476562 -7.027344 4.058594 -7.304688 3.496094 -7.304688 Z M 3.496094 -8.160156 C 4.390625 -8.160156 5.070312 -7.800781 5.554688 -7.09375 C 6.027344 -6.378906 6.269531 -5.347656 6.269531 -4.003906 C 6.269531 -2.652344 6.027344 -1.617188 5.554688 -0.914062 C 5.070312 -0.210938 4.390625 0.144531 3.488281 0.144531 C 2.585938 0.144531 1.902344 -0.210938 1.429688 -0.914062 C 0.957031 -1.617188 0.726562 -2.652344 0.726562 -4.003906 C 0.726562 -5.347656 0.957031 -6.378906 1.429688 -7.09375 C 1.902344 -7.800781 2.597656 -8.160156 3.496094 -8.160156 Z M 3.496094 -8.160156 "/>
</g>
<g id="glyph-2-1">
<path d="M 1.363281 -0.914062 L 3.136719 -0.914062 L 3.136719 -7.027344 L 1.210938 -6.644531 L 1.210938 -7.632812 L 3.125 -8.019531 L 4.214844 -8.019531 L 4.214844 -0.914062 L 5.984375 -0.914062 L 5.984375 0 L 1.363281 0 Z M 1.363281 -0.914062 "/>
</g>
<g id="glyph-2-2">
<path d="M 2.113281 -0.914062 L 5.894531 -0.914062 L 5.894531 0 L 0.804688 0 L 0.804688 -0.914062 C 1.210938 -1.332031 1.769531 -1.902344 2.484375 -2.628906 C 3.191406 -3.34375 3.640625 -3.804688 3.828125 -4.015625 C 4.179688 -4.398438 4.421875 -4.730469 4.554688 -5.003906 C 4.6875 -5.269531 4.761719 -5.542969 4.761719 -5.808594 C 4.761719 -6.226562 4.609375 -6.578125 4.3125 -6.84375 C 4.015625 -7.105469 3.628906 -7.25 3.144531 -7.25 C 2.804688 -7.25 2.441406 -7.183594 2.066406 -7.074219 C 1.695312 -6.953125 1.285156 -6.777344 0.859375 -6.535156 L 0.859375 -7.632812 C 1.296875 -7.808594 1.703125 -7.941406 2.078125 -8.03125 C 2.453125 -8.117188 2.804688 -8.160156 3.125 -8.160156 C 3.949219 -8.160156 4.609375 -7.953125 5.105469 -7.535156 C 5.597656 -7.117188 5.851562 -6.566406 5.851562 -5.875 C 5.851562 -5.542969 5.785156 -5.226562 5.664062 -4.9375 C 5.542969 -4.640625 5.324219 -4.289062 4.992188 -3.894531 C 4.90625 -3.785156 4.621094 -3.488281 4.136719 -2.992188 C 3.652344 -2.496094 2.980469 -1.804688 2.113281 -0.914062 Z M 2.113281 -0.914062 "/>
</g>
<g id="glyph-2-3">
<path d="M 4.464844 -4.324219 C 4.984375 -4.214844 5.390625 -3.980469 5.675781 -3.628906 C 5.960938 -3.277344 6.117188 -2.839844 6.117188 -2.332031 C 6.117188 -1.539062 5.839844 -0.925781 5.300781 -0.496094 C 4.753906 -0.0664062 3.980469 0.144531 2.980469 0.144531 C 2.640625 0.144531 2.289062 0.109375 1.9375 0.0429688 C 1.585938 -0.0117188 1.210938 -0.109375 0.835938 -0.242188 L 0.835938 -1.285156 C 1.132812 -1.109375 1.464844 -0.980469 1.824219 -0.890625 C 2.179688 -0.804688 2.550781 -0.757812 2.949219 -0.757812 C 3.628906 -0.757812 4.148438 -0.890625 4.5 -1.15625 C 4.851562 -1.417969 5.039062 -1.816406 5.039062 -2.332031 C 5.039062 -2.792969 4.871094 -3.167969 4.542969 -3.433594 C 4.214844 -3.695312 3.75 -3.839844 3.15625 -3.839844 L 2.222656 -3.839844 L 2.222656 -4.730469 L 3.199219 -4.730469 C 3.730469 -4.730469 4.136719 -4.828125 4.421875 -5.050781 C 4.707031 -5.257812 4.851562 -5.566406 4.851562 -5.972656 C 4.851562 -6.378906 4.695312 -6.699219 4.410156 -6.917969 C 4.113281 -7.140625 3.695312 -7.25 3.15625 -7.25 C 2.859375 -7.25 2.539062 -7.214844 2.199219 -7.148438 C 1.859375 -7.085938 1.484375 -6.984375 1.078125 -6.851562 L 1.078125 -7.820312 C 1.484375 -7.929688 1.871094 -8.019531 2.234375 -8.074219 C 2.585938 -8.128906 2.925781 -8.160156 3.257812 -8.160156 C 4.070312 -8.160156 4.71875 -7.976562 5.203125 -7.601562 C 5.6875 -7.226562 5.929688 -6.722656 5.929688 -6.082031 C 5.929688 -5.644531 5.796875 -5.269531 5.542969 -4.960938 C 5.289062 -4.652344 4.929688 -4.433594 4.464844 -4.324219 Z M 4.464844 -4.324219 "/>
</g>
<g id="glyph-2-4">
<path d="M 4.15625 -7.074219 L 1.417969 -2.792969 L 4.15625 -2.792969 Z M 3.871094 -8.019531 L 5.234375 -8.019531 L 5.234375 -2.792969 L 6.378906 -2.792969 L 6.378906 -1.890625 L 5.234375 -1.890625 L 5.234375 0 L 4.15625 0 L 4.15625 -1.890625 L 0.539062 -1.890625 L 0.539062 -2.9375 Z M 3.871094 -8.019531 "/>
</g>
<g id="glyph-2-5">
<path d="M 1.1875 -8.019531 L 5.445312 -8.019531 L 5.445312 -7.105469 L 2.179688 -7.105469 L 2.179688 -5.136719 C 2.332031 -5.191406 2.496094 -5.234375 2.652344 -5.257812 C 2.804688 -5.28125 2.96875 -5.300781 3.125 -5.300781 C 4.015625 -5.300781 4.71875 -5.050781 5.246094 -4.566406 C 5.773438 -4.070312 6.039062 -3.410156 6.039062 -2.574219 C 6.039062 -1.703125 5.765625 -1.035156 5.226562 -0.5625 C 4.6875 -0.0898438 3.925781 0.144531 2.960938 0.144531 C 2.617188 0.144531 2.277344 0.109375 1.925781 0.0664062 C 1.574219 0.0117188 1.222656 -0.0664062 0.847656 -0.1875 L 0.847656 -1.277344 C 1.164062 -1.101562 1.496094 -0.96875 1.847656 -0.878906 C 2.1875 -0.792969 2.550781 -0.757812 2.9375 -0.757812 C 3.554688 -0.757812 4.046875 -0.914062 4.410156 -1.242188 C 4.761719 -1.574219 4.949219 -2.011719 4.949219 -2.574219 C 4.949219 -3.125 4.761719 -3.5625 4.410156 -3.894531 C 4.046875 -4.222656 3.554688 -4.390625 2.9375 -4.390625 C 2.652344 -4.390625 2.355469 -4.355469 2.066406 -4.289062 C 1.78125 -4.222656 1.484375 -4.125 1.1875 -3.992188 Z M 1.1875 -8.019531 "/>
</g>
<g id="glyph-3-0">
<path d="M -10.09375 -9.660156 L -8.535156 -9.660156 C -8.984375 -9.148438 -9.328125 -8.625 -9.570312 -8.054688 C -9.796875 -7.484375 -9.914062 -6.898438 -9.914062 -6.269531 C -9.914062 -5.011719 -9.523438 -4.050781 -8.761719 -3.390625 C -7.996094 -2.730469 -6.898438 -2.398438 -5.460938 -2.398438 C -4.019531 -2.398438 -2.910156 -2.730469 -2.144531 -3.390625 C -1.378906 -4.050781 -1.003906 -5.011719 -1.003906 -6.269531 C -1.003906 -6.898438 -1.109375 -7.484375 -1.351562 -8.054688 C -1.574219 -8.625 -1.921875 -9.148438 -2.386719 -9.660156 L -0.839844 -9.660156 C -0.480469 -9.136719 -0.226562 -8.578125 -0.0585938 -8.011719 C 0.105469 -7.441406 0.195312 -6.824219 0.195312 -6.179688 C 0.195312 -4.53125 -0.300781 -3.226562 -1.304688 -2.265625 C -2.308594 -1.304688 -3.691406 -0.839844 -5.460938 -0.839844 C -7.214844 -0.839844 -8.59375 -1.304688 -9.613281 -2.265625 C -10.621094 -3.226562 -11.128906 -4.53125 -11.128906 -6.179688 C -11.128906 -6.839844 -11.039062 -7.453125 -10.875 -8.023438 C -10.695312 -8.59375 -10.441406 -9.148438 -10.09375 -9.660156 Z M -10.09375 -9.660156 "/>
</g>
<g id="glyph-3-1">
<path d="M -7.261719 -4.589844 C -7.261719 -3.871094 -6.976562 -3.300781 -6.40625 -2.878906 C -5.835938 -2.460938 -5.070312 -2.25 -4.09375 -2.25 C -3.105469 -2.25 -2.339844 -2.445312 -1.769531 -2.863281 C -1.199219 -3.285156 -0.929688 -3.855469 -0.929688 -4.589844 C -0.929688 -5.308594 -1.199219 -5.878906 -1.769531 -6.300781 C -2.339844 -6.71875 -3.105469 -6.929688 -4.09375 -6.929688 C -5.054688 -6.929688 -5.835938 -6.71875 -6.40625 -6.300781 C -6.976562 -5.878906 -7.261719 -5.308594 -7.261719 -4.589844 Z M -8.398438 -4.589844 C -8.398438 -5.761719 -8.011719 -6.675781 -7.261719 -7.351562 C -6.496094 -8.011719 -5.445312 -8.355469 -4.09375 -8.355469 C -2.746094 -8.355469 -1.695312 -8.011719 -0.945312 -7.351562 C -0.179688 -6.675781 0.195312 -5.761719 0.195312 -4.589844 C 0.195312 -3.40625 -0.179688 -2.476562 -0.945312 -1.816406 C -1.695312 -1.15625 -2.746094 -0.824219 -4.09375 -0.824219 C -5.445312 -0.824219 -6.496094 -1.15625 -7.261719 -1.816406 C -8.011719 -2.476562 -8.398438 -3.40625 -8.398438 -4.589844 Z M -8.398438 -4.589844 "/>
</g>
<g id="glyph-3-2">
<path d="M -3.238281 -1.273438 L -8.203125 -1.273438 L -8.203125 -2.625 L -3.285156 -2.625 C -2.503906 -2.625 -1.933594 -2.773438 -1.546875 -3.074219 C -1.15625 -3.375 -0.960938 -3.824219 -0.960938 -4.441406 C -0.960938 -5.160156 -1.183594 -5.746094 -1.648438 -6.164062 C -2.113281 -6.585938 -2.746094 -6.796875 -3.554688 -6.796875 L -8.203125 -6.796875 L -8.203125 -8.144531 L 0 -8.144531 L 0 -6.796875 L -1.261719 -6.796875 C -0.75 -6.464844 -0.390625 -6.074219 -0.148438 -5.65625 C 0.0742188 -5.21875 0.195312 -4.726562 0.195312 -4.15625 C 0.195312 -3.210938 -0.0898438 -2.488281 -0.675781 -2.011719 C -1.246094 -1.515625 -2.101562 -1.273438 -3.238281 -1.273438 Z M -8.398438 -4.664062 Z M -8.398438 -4.664062 "/>
</g>
<g id="glyph-3-3">
<path d="M -4.949219 -8.234375 L 0 -8.234375 L 0 -6.886719 L -4.90625 -6.886719 C -5.683594 -6.886719 -6.253906 -6.71875 -6.644531 -6.421875 C -7.035156 -6.121094 -7.230469 -5.671875 -7.230469 -5.070312 C -7.230469 -4.335938 -6.988281 -3.765625 -6.523438 -3.34375 C -6.058594 -2.925781 -5.429688 -2.714844 -4.636719 -2.714844 L 0 -2.714844 L 0 -1.363281 L -8.203125 -1.363281 L -8.203125 -2.714844 L -6.929688 -2.714844 C -7.410156 -3.03125 -7.785156 -3.40625 -8.023438 -3.855469 C -8.265625 -4.289062 -8.398438 -4.800781 -8.398438 -5.371094 C -8.398438 -6.300781 -8.101562 -7.019531 -7.515625 -7.5 C -6.929688 -7.980469 -6.074219 -8.234375 -4.949219 -8.234375 Z M -4.949219 -8.234375 "/>
</g>
<g id="glyph-3-4">
<path d="M -10.53125 -2.746094 L -8.203125 -2.746094 L -8.203125 -5.519531 L -7.15625 -5.519531 L -7.15625 -2.746094 L -2.699219 -2.746094 C -2.023438 -2.746094 -1.589844 -2.835938 -1.410156 -3.015625 C -1.214844 -3.195312 -1.125 -3.570312 -1.125 -4.140625 L -1.125 -5.519531 L 0 -5.519531 L 0 -4.140625 C 0 -3.089844 -0.195312 -2.371094 -0.585938 -1.980469 C -0.976562 -1.589844 -1.679688 -1.394531 -2.699219 -1.394531 L -7.15625 -1.394531 L -7.15625 -0.40625 L -8.203125 -0.40625 L -8.203125 -1.394531 L -10.53125 -1.394531 Z M -10.53125 -2.746094 "/>
</g>
</g>
<clipPath id="clip-0">
<path clip-rule="nonzero" d="M 77 12.960938 L 79 12.960938 L 79 264.519531 L 77 264.519531 Z M 77 12.960938 "/>
</clipPath>
<clipPath id="clip-1">
<path clip-rule="nonzero" d="M 112 12.960938 L 114 12.960938 L 114 264.519531 L 112 264.519531 Z M 112 12.960938 "/>
</clipPath>
<clipPath id="clip-2">
<path clip-rule="nonzero" d="M 147 12.960938 L 149 12.960938 L 149 264.519531 L 147 264.519531 Z M 147 12.960938 "/>
</clipPath>
<clipPath id="clip-3">
<path clip-rule="nonzero" d="M 182 12.960938 L 184 12.960938 L 184 264.519531 L 182 264.519531 Z M 182 12.960938 "/>
</clipPath>
<clipPath id="clip-4">
<path clip-rule="nonzero" d="M 217 12.960938 L 219 12.960938 L 219 264.519531 L 217 264.519531 Z M 217 12.960938 "/>
</clipPath>
<clipPath id="clip-5">
<path clip-rule="nonzero" d="M 251 12.960938 L 253 12.960938 L 253 264.519531 L 251 264.519531 Z M 251 12.960938 "/>
</clipPath>
<clipPath id="clip-6">
<path clip-rule="nonzero" d="M 286 12.960938 L 288 12.960938 L 288 264.519531 L 286 264.519531 Z M 286 12.960938 "/>
</clipPath>
<clipPath id="clip-7">
<path clip-rule="nonzero" d="M 322 12.960938 L 324 12.960938 L 324 264.519531 L 322 264.519531 Z M 322 12.960938 "/>
</clipPath>
<clipPath id="clip-8">
<path clip-rule="nonzero" d="M 357 12.960938 L 359 12.960938 L 359 264.519531 L 357 264.519531 Z M 357 12.960938 "/>
</clipPath>
<clipPath id="clip-9">
<path clip-rule="nonzero" d="M 392 12.960938 L 394 12.960938 L 394 264.519531 L 392 264.519531 Z M 392 12.960938 "/>
</clipPath>
<clipPath id="clip-10">
<path clip-rule="nonzero" d="M 426 12.960938 L 428 12.960938 L 428 264.519531 L 426 264.519531 Z M 426 12.960938 "/>
</clipPath>
<clipPath id="clip-11">
<path clip-rule="nonzero" d="M 61.921875 264 L 434.207031 264 L 434.207031 264.519531 L 61.921875 264.519531 Z M 61.921875 264 "/>
</clipPath>
<clipPath id="clip-12">
<path clip-rule="nonzero" d="M 61.921875 219 L 434.207031 219 L 434.207031 221 L 61.921875 221 Z M 61.921875 219 "/>
</clipPath>
<clipPath id="clip-13">
<path clip-rule="nonzero" d="M 61.921875 174 L 434.207031 174 L 434.207031 176 L 61.921875 176 Z M 61.921875 174 "/>
</clipPath>
<clipPath id="clip-14">
<path clip-rule="nonzero" d="M 61.921875 129 L 434.207031 129 L 434.207031 131 L 61.921875 131 Z M 61.921875 129 "/>
</clipPath>
<clipPath id="clip-15">
<path clip-rule="nonzero" d="M 61.921875 84 L 434.207031 84 L 434.207031 86 L 61.921875 86 Z M 61.921875 84 "/>
</clipPath>
<clipPath id="clip-16">
<path clip-rule="nonzero" d="M 61.921875 39 L 434.207031 39 L 434.207031 41 L 61.921875 41 Z M 61.921875 39 "/>
</clipPath>
<clipPath id="clip-17">
<path clip-rule="nonzero" d="M 78 187 L 93 187 L 93 264.519531 L 78 264.519531 Z M 78 187 "/>
</clipPath>
<clipPath id="clip-18">
<path clip-rule="nonzero" d="M 78 186 L 94 186 L 94 264.519531 L 78 264.519531 Z M 78 186 "/>
</clipPath>
<clipPath id="clip-19">
<path clip-rule="nonzero" d="M 92 173 L 108 173 L 108 264.519531 L 92 264.519531 Z M 92 173 "/>
</clipPath>
<clipPath id="clip-20">
<path clip-rule="nonzero" d="M 107 109 L 122 109 L 122 264.519531 L 107 264.519531 Z M 107 109 "/>
</clipPath>
<clipPath id="clip-21">
<path clip-rule="nonzero" d="M 106 108 L 122 108 L 122 264.519531 L 106 264.519531 Z M 106 108 "/>
</clipPath>
<clipPath id="clip-22">
<path clip-rule="nonzero" d="M 121 127 L 136 127 L 136 264.519531 L 121 264.519531 Z M 121 127 "/>
</clipPath>
<clipPath id="clip-23">
<path clip-rule="nonzero" d="M 120 126 L 136 126 L 136 264.519531 L 120 264.519531 Z M 120 126 "/>
</clipPath>
<clipPath id="clip-24">
<path clip-rule="nonzero" d="M 135 107 L 150 107 L 150 264.519531 L 135 264.519531 Z M 135 107 "/>
</clipPath>
<clipPath id="clip-25">
<path clip-rule="nonzero" d="M 134 107 L 150 107 L 150 264.519531 L 134 264.519531 Z M 134 107 "/>
</clipPath>
<clipPath id="clip-26">
<path clip-rule="nonzero" d="M 149 108 L 164 108 L 164 264.519531 L 149 264.519531 Z M 149 108 "/>
</clipPath>
<clipPath id="clip-27">
<path clip-rule="nonzero" d="M 148 108 L 164 108 L 164 264.519531 L 148 264.519531 Z M 148 108 "/>
</clipPath>
<clipPath id="clip-28">
<path clip-rule="nonzero" d="M 163 118 L 178 118 L 178 264.519531 L 163 264.519531 Z M 163 118 "/>
</clipPath>
<clipPath id="clip-29">
<path clip-rule="nonzero" d="M 162 118 L 179 118 L 179 264.519531 L 162 264.519531 Z M 162 118 "/>
</clipPath>
<clipPath id="clip-30">
<path clip-rule="nonzero" d="M 177 119 L 192 119 L 192 264.519531 L 177 264.519531 Z M 177 119 "/>
</clipPath>
<clipPath id="clip-31">
<path clip-rule="nonzero" d="M 177 119 L 193 119 L 193 264.519531 L 177 264.519531 Z M 177 119 "/>
</clipPath>
<clipPath id="clip-32">
<path clip-rule="nonzero" d="M 191 103 L 206 103 L 206 264.519531 L 191 264.519531 Z M 191 103 "/>
</clipPath>
<clipPath id="clip-33">
<path clip-rule="nonzero" d="M 191 103 L 207 103 L 207 264.519531 L 191 264.519531 Z M 191 103 "/>
</clipPath>
<clipPath id="clip-34">
<path clip-rule="nonzero" d="M 205 143 L 220 143 L 220 264.519531 L 205 264.519531 Z M 205 143 "/>
</clipPath>
<clipPath id="clip-35">
<path clip-rule="nonzero" d="M 205 142 L 221 142 L 221 264.519531 L 205 264.519531 Z M 205 142 "/>
</clipPath>
<clipPath id="clip-36">
<path clip-rule="nonzero" d="M 219 94 L 234 94 L 234 264.519531 L 219 264.519531 Z M 219 94 "/>
</clipPath>
<clipPath id="clip-37">
<path clip-rule="nonzero" d="M 219 93 L 235 93 L 235 264.519531 L 219 264.519531 Z M 219 93 "/>
</clipPath>
<clipPath id="clip-38">
<path clip-rule="nonzero" d="M 233 105 L 249 105 L 249 264.519531 L 233 264.519531 Z M 233 105 "/>
</clipPath>
<clipPath id="clip-39">
<path clip-rule="nonzero" d="M 233 104 L 249 104 L 249 264.519531 L 233 264.519531 Z M 233 104 "/>
</clipPath>
<clipPath id="clip-40">
<path clip-rule="nonzero" d="M 248 58 L 263 58 L 263 264.519531 L 248 264.519531 Z M 248 58 "/>
</clipPath>
<clipPath id="clip-41">
<path clip-rule="nonzero" d="M 247 58 L 263 58 L 263 264.519531 L 247 264.519531 Z M 247 58 "/>
</clipPath>
<clipPath id="clip-42">
<path clip-rule="nonzero" d="M 262 74 L 277 74 L 277 264.519531 L 262 264.519531 Z M 262 74 "/>
</clipPath>
<clipPath id="clip-43">
<path clip-rule="nonzero" d="M 261 73 L 277 73 L 277 264.519531 L 261 264.519531 Z M 261 73 "/>
</clipPath>
<clipPath id="clip-44">
<path clip-rule="nonzero" d="M 276 76 L 291 76 L 291 264.519531 L 276 264.519531 Z M 276 76 "/>
</clipPath>
<clipPath id="clip-45">
<path clip-rule="nonzero" d="M 275 76 L 291 76 L 291 264.519531 L 275 264.519531 Z M 275 76 "/>
</clipPath>
<clipPath id="clip-46">
<path clip-rule="nonzero" d="M 290 45 L 305 45 L 305 264.519531 L 290 264.519531 Z M 290 45 "/>
</clipPath>
<clipPath id="clip-47">
<path clip-rule="nonzero" d="M 289 45 L 305 45 L 305 264.519531 L 289 264.519531 Z M 289 45 "/>
</clipPath>
<clipPath id="clip-48">
<path clip-rule="nonzero" d="M 304 73 L 319 73 L 319 264.519531 L 304 264.519531 Z M 304 73 "/>
</clipPath>
<clipPath id="clip-49">
<path clip-rule="nonzero" d="M 303 72 L 320 72 L 320 264.519531 L 303 264.519531 Z M 303 72 "/>
</clipPath>
<clipPath id="clip-50">
<path clip-rule="nonzero" d="M 318 24 L 333 24 L 333 264.519531 L 318 264.519531 Z M 318 24 "/>
</clipPath>
<clipPath id="clip-51">
<path clip-rule="nonzero" d="M 318 24 L 334 24 L 334 264.519531 L 318 264.519531 Z M 318 24 "/>
</clipPath>
<clipPath id="clip-52">
<path clip-rule="nonzero" d="M 332 88 L 347 88 L 347 264.519531 L 332 264.519531 Z M 332 88 "/>
</clipPath>
<clipPath id="clip-53">
<path clip-rule="nonzero" d="M 332 88 L 348 88 L 348 264.519531 L 332 264.519531 Z M 332 88 "/>
</clipPath>
<clipPath id="clip-54">
<path clip-rule="nonzero" d="M 346 107 L 361 107 L 361 264.519531 L 346 264.519531 Z M 346 107 "/>
</clipPath>
<clipPath id="clip-55">
<path clip-rule="nonzero" d="M 346 106 L 362 106 L 362 264.519531 L 346 264.519531 Z M 346 106 "/>
</clipPath>
<clipPath id="clip-56">
<path clip-rule="nonzero" d="M 360 55 L 375 55 L 375 264.519531 L 360 264.519531 Z M 360 55 "/>
</clipPath>
<clipPath id="clip-57">
<path clip-rule="nonzero" d="M 360 54 L 376 54 L 376 264.519531 L 360 264.519531 Z M 360 54 "/>
</clipPath>
<clipPath id="clip-58">
<path clip-rule="nonzero" d="M 374 188 L 390 188 L 390 264.519531 L 374 264.519531 Z M 374 188 "/>
</clipPath>
<clipPath id="clip-59">
<path clip-rule="nonzero" d="M 389 263 L 404 263 L 404 264.519531 L 389 264.519531 Z M 389 263 "/>
</clipPath>
<clipPath id="clip-60">
<path clip-rule="nonzero" d="M 388 262 L 404 262 L 404 264.519531 L 388 264.519531 Z M 388 262 "/>
</clipPath>
<clipPath id="clip-61">
<path clip-rule="nonzero" d="M 403 264 L 418 264 L 418 264.519531 L 403 264.519531 Z M 403 264 "/>
</clipPath>
<clipPath id="clip-62">
<path clip-rule="nonzero" d="M 402 263 L 418 263 L 418 264.519531 L 402 264.519531 Z M 402 263 "/>
</clipPath>
</defs>
<path fill-rule="nonzero" fill="rgb(100%, 100%, 100%)" fill-opacity="1" d="M 0 345.601562 L 460.800781 345.601562 L 460.800781 0 L 0 0 Z M 0 345.601562 "/>
<path fill-rule="nonzero" fill="rgb(100%, 100%, 100%)" fill-opacity="1" d="M 61.921875 264.519531 L 434.207031 264.519531 L 434.207031 12.960938 L 61.921875 12.960938 Z M 61.921875 264.519531 "/>
<g clip-path="url(#clip-0)">
<path fill="none" stroke-width="1" stroke-linecap="round" stroke-linejoin="round" stroke="rgb(79.998779%, 79.998779%, 79.998779%)" stroke-opacity="1" stroke-miterlimit="10" d="M 78.261719 81.080469 L 78.261719 332.639063 " transform="matrix(1, 0, 0, -1, 0, 345.6)"/>
</g>
<g fill="rgb(14.99939%, 14.99939%, 14.99939%)" fill-opacity="1">
<use xlink:href="#glyph-0-0" x="64.159292" y="312.435552"/>
<use xlink:href="#glyph-0-1" x="69.106211" y="307.488633"/>
<use xlink:href="#glyph-0-0" x="74.05313" y="302.541714"/>
<use xlink:href="#glyph-0-0" x="79.000049" y="297.594795"/>
<use xlink:href="#glyph-0-2" x="83.946968" y="292.647876"/>
<use xlink:href="#glyph-0-1" x="86.754889" y="289.839955"/>
<use xlink:href="#glyph-0-3" x="91.701808" y="284.893036"/>
</g>
<g clip-path="url(#clip-1)">
<path fill="none" stroke-width="1" stroke-linecap="round" stroke-linejoin="round" stroke="rgb(79.998779%, 79.998779%, 79.998779%)" stroke-opacity="1" stroke-miterlimit="10" d="M 112.722656 81.080469 L 112.722656 332.639063 " transform="matrix(1, 0, 0, -1, 0, 345.6)"/>
</g>
<g fill="rgb(14.99939%, 14.99939%, 14.99939%)" fill-opacity="1">
<use xlink:href="#glyph-0-0" x="98.619033" y="312.435552"/>
<use xlink:href="#glyph-0-1" x="103.565952" y="307.488633"/>
<use xlink:href="#glyph-0-0" x="108.512871" y="302.541714"/>
<use xlink:href="#glyph-0-0" x="113.45979" y="297.594795"/>
<use xlink:href="#glyph-0-2" x="118.406709" y="292.647876"/>
<use xlink:href="#glyph-0-1" x="121.21463" y="289.839955"/>
<use xlink:href="#glyph-0-4" x="126.161549" y="284.893036"/>
</g>
<g clip-path="url(#clip-2)">
<path fill="none" stroke-width="1" stroke-linecap="round" stroke-linejoin="round" stroke="rgb(79.998779%, 79.998779%, 79.998779%)" stroke-opacity="1" stroke-miterlimit="10" d="M 147.566406 81.080469 L 147.566406 332.639063 " transform="matrix(1, 0, 0, -1, 0, 345.6)"/>
</g>
<g fill="rgb(14.99939%, 14.99939%, 14.99939%)" fill-opacity="1">
<use xlink:href="#glyph-0-0" x="133.461659" y="312.435552"/>
<use xlink:href="#glyph-0-1" x="138.408578" y="307.488633"/>
<use xlink:href="#glyph-0-0" x="143.355497" y="302.541714"/>
<use xlink:href="#glyph-0-0" x="148.302416" y="297.594795"/>
<use xlink:href="#glyph-0-2" x="153.249335" y="292.647876"/>
<use xlink:href="#glyph-0-1" x="156.057256" y="289.839955"/>
<use xlink:href="#glyph-0-5" x="161.004175" y="284.893036"/>
</g>
<g clip-path="url(#clip-3)">
<path fill="none" stroke-width="1" stroke-linecap="round" stroke-linejoin="round" stroke="rgb(79.998779%, 79.998779%, 79.998779%)" stroke-opacity="1" stroke-miterlimit="10" d="M 182.789062 81.080469 L 182.789062 332.639063 " transform="matrix(1, 0, 0, -1, 0, 345.6)"/>
</g>
<g fill="rgb(14.99939%, 14.99939%, 14.99939%)" fill-opacity="1">
<use xlink:href="#glyph-0-0" x="168.687172" y="312.435552"/>
<use xlink:href="#glyph-0-1" x="173.634091" y="307.488633"/>
<use xlink:href="#glyph-0-0" x="178.58101" y="302.541714"/>
<use xlink:href="#glyph-0-0" x="183.527929" y="297.594795"/>
<use xlink:href="#glyph-0-2" x="188.474848" y="292.647876"/>
<use xlink:href="#glyph-0-3" x="191.282769" y="289.839955"/>
<use xlink:href="#glyph-0-1" x="196.229688" y="284.893036"/>
</g>
<g clip-path="url(#clip-4)">
<path fill="none" stroke-width="1" stroke-linecap="round" stroke-linejoin="round" stroke="rgb(79.998779%, 79.998779%, 79.998779%)" stroke-opacity="1" stroke-miterlimit="10" d="M 218.015625 81.080469 L 218.015625 332.639063 " transform="matrix(1, 0, 0, -1, 0, 345.6)"/>
</g>
<g fill="rgb(14.99939%, 14.99939%, 14.99939%)" fill-opacity="1">
<use xlink:href="#glyph-0-0" x="203.912684" y="312.435552"/>
<use xlink:href="#glyph-0-1" x="208.859603" y="307.488633"/>
<use xlink:href="#glyph-0-0" x="213.806522" y="302.541714"/>
<use xlink:href="#glyph-0-6" x="218.753441" y="297.594795"/>
<use xlink:href="#glyph-0-2" x="223.70036" y="292.647876"/>
<use xlink:href="#glyph-0-1" x="226.508281" y="289.839955"/>
<use xlink:href="#glyph-0-3" x="231.4552" y="284.893036"/>
</g>
<g clip-path="url(#clip-5)">
<path fill="none" stroke-width="1" stroke-linecap="round" stroke-linejoin="round" stroke="rgb(79.998779%, 79.998779%, 79.998779%)" stroke-opacity="1" stroke-miterlimit="10" d="M 252.476562 81.080469 L 252.476562 332.639063 " transform="matrix(1, 0, 0, -1, 0, 345.6)"/>
</g>
<g fill="rgb(14.99939%, 14.99939%, 14.99939%)" fill-opacity="1">
<use xlink:href="#glyph-0-0" x="238.372425" y="312.435552"/>
<use xlink:href="#glyph-0-1" x="243.319344" y="307.488633"/>
<use xlink:href="#glyph-0-0" x="248.266263" y="302.541714"/>
<use xlink:href="#glyph-0-6" x="253.213182" y="297.594795"/>
<use xlink:href="#glyph-0-2" x="258.160101" y="292.647876"/>
<use xlink:href="#glyph-0-1" x="260.968022" y="289.839955"/>
<use xlink:href="#glyph-0-4" x="265.914941" y="284.893036"/>
</g>
<g clip-path="url(#clip-6)">
<path fill="none" stroke-width="1" stroke-linecap="round" stroke-linejoin="round" stroke="rgb(79.998779%, 79.998779%, 79.998779%)" stroke-opacity="1" stroke-miterlimit="10" d="M 287.320312 81.080469 L 287.320312 332.639063 " transform="matrix(1, 0, 0, -1, 0, 345.6)"/>
</g>
<g fill="rgb(14.99939%, 14.99939%, 14.99939%)" fill-opacity="1">
<use xlink:href="#glyph-0-0" x="273.215051" y="312.435552"/>
<use xlink:href="#glyph-0-1" x="278.16197" y="307.488633"/>
<use xlink:href="#glyph-0-0" x="283.108889" y="302.541714"/>
<use xlink:href="#glyph-0-6" x="288.055808" y="297.594795"/>
<use xlink:href="#glyph-0-2" x="293.002727" y="292.647876"/>
<use xlink:href="#glyph-0-1" x="295.810648" y="289.839955"/>
<use xlink:href="#glyph-0-5" x="300.757567" y="284.893036"/>
</g>
<g clip-path="url(#clip-7)">
<path fill="none" stroke-width="1" stroke-linecap="round" stroke-linejoin="round" stroke="rgb(79.998779%, 79.998779%, 79.998779%)" stroke-opacity="1" stroke-miterlimit="10" d="M 322.542969 81.080469 L 322.542969 332.639063 " transform="matrix(1, 0, 0, -1, 0, 345.6)"/>
</g>
<g fill="rgb(14.99939%, 14.99939%, 14.99939%)" fill-opacity="1">
<use xlink:href="#glyph-0-0" x="308.440563" y="312.435552"/>
<use xlink:href="#glyph-0-1" x="313.387482" y="307.488633"/>
<use xlink:href="#glyph-0-0" x="318.334402" y="302.541714"/>
<use xlink:href="#glyph-0-6" x="323.281321" y="297.594795"/>
<use xlink:href="#glyph-0-2" x="328.22824" y="292.647876"/>
<use xlink:href="#glyph-0-3" x="331.036161" y="289.839955"/>
<use xlink:href="#glyph-0-1" x="335.98308" y="284.893036"/>
</g>
<g clip-path="url(#clip-8)">
<path fill="none" stroke-width="1" stroke-linecap="round" stroke-linejoin="round" stroke="rgb(79.998779%, 79.998779%, 79.998779%)" stroke-opacity="1" stroke-miterlimit="10" d="M 357.769531 81.080469 L 357.769531 332.639063 " transform="matrix(1, 0, 0, -1, 0, 345.6)"/>
</g>
<g fill="rgb(14.99939%, 14.99939%, 14.99939%)" fill-opacity="1">
<use xlink:href="#glyph-0-0" x="343.666076" y="312.435552"/>
<use xlink:href="#glyph-0-1" x="348.612995" y="307.488633"/>
<use xlink:href="#glyph-0-0" x="353.559914" y="302.541714"/>
<use xlink:href="#glyph-0-4" x="358.506833" y="297.594795"/>
<use xlink:href="#glyph-0-2" x="363.453752" y="292.647876"/>
<use xlink:href="#glyph-0-1" x="366.261673" y="289.839955"/>
<use xlink:href="#glyph-0-3" x="371.208592" y="284.893036"/>
</g>
<g clip-path="url(#clip-9)">
<path fill="none" stroke-width="1" stroke-linecap="round" stroke-linejoin="round" stroke="rgb(79.998779%, 79.998779%, 79.998779%)" stroke-opacity="1" stroke-miterlimit="10" d="M 392.613281 81.080469 L 392.613281 332.639063 " transform="matrix(1, 0, 0, -1, 0, 345.6)"/>
</g>
<g fill="rgb(14.99939%, 14.99939%, 14.99939%)" fill-opacity="1">
<use xlink:href="#glyph-0-0" x="378.508702" y="312.435552"/>
<use xlink:href="#glyph-0-1" x="383.455621" y="307.488633"/>
<use xlink:href="#glyph-0-0" x="388.40254" y="302.541714"/>
<use xlink:href="#glyph-0-4" x="393.349459" y="297.594795"/>
<use xlink:href="#glyph-0-2" x="398.296379" y="292.647876"/>
<use xlink:href="#glyph-0-1" x="401.1043" y="289.839955"/>
<use xlink:href="#glyph-0-4" x="406.051219" y="284.893036"/>
</g>
<g clip-path="url(#clip-10)">
<path fill="none" stroke-width="1" stroke-linecap="round" stroke-linejoin="round" stroke="rgb(79.998779%, 79.998779%, 79.998779%)" stroke-opacity="1" stroke-miterlimit="10" d="M 427.453125 81.080469 L 427.453125 332.639063 " transform="matrix(1, 0, 0, -1, 0, 345.6)"/>
</g>
<g fill="rgb(14.99939%, 14.99939%, 14.99939%)" fill-opacity="1">
<use xlink:href="#glyph-0-0" x="413.351329" y="312.435552"/>
<use xlink:href="#glyph-0-1" x="418.298248" y="307.488633"/>
<use xlink:href="#glyph-0-0" x="423.245167" y="302.541714"/>
<use xlink:href="#glyph-0-4" x="428.192086" y="297.594795"/>
<use xlink:href="#glyph-0-2" x="433.139005" y="292.647876"/>
<use xlink:href="#glyph-0-1" x="435.946926" y="289.839955"/>
<use xlink:href="#glyph-0-5" x="440.893845" y="284.893036"/>
</g>
<g fill="rgb(14.99939%, 14.99939%, 14.99939%)" fill-opacity="1">
<use xlink:href="#glyph-1-0" x="205.563528" y="329.439264"/>
<use xlink:href="#glyph-1-1" x="209.988528" y="329.439264"/>
<use xlink:href="#glyph-1-2" x="219.498528" y="329.439264"/>
<use xlink:href="#glyph-1-3" x="225.378528" y="329.439264"/>
<use xlink:href="#glyph-1-4" x="234.573528" y="329.439264"/>
</g>
<g fill="rgb(14.99939%, 14.99939%, 14.99939%)" fill-opacity="1">
<use xlink:href="#glyph-1-5" x="242.727278" y="329.439264"/>
<use xlink:href="#glyph-1-6" x="251.952278" y="329.439264"/>
<use xlink:href="#glyph-1-7" x="256.722278" y="329.439264"/>
<use xlink:href="#glyph-1-3" x="266.247278" y="329.439264"/>
<use xlink:href="#glyph-1-2" x="275.442278" y="329.439264"/>
<use xlink:href="#glyph-1-5" x="281.322278" y="329.439264"/>
</g>
<g clip-path="url(#clip-11)">
<path fill="none" stroke-width="1" stroke-linecap="round" stroke-linejoin="round" stroke="rgb(79.998779%, 79.998779%, 79.998779%)" stroke-opacity="1" stroke-miterlimit="10" d="M 61.921875 81.080469 L 434.207031 81.080469 " transform="matrix(1, 0, 0, -1, 0, 345.6)"/>
</g>
<g fill="rgb(14.99939%, 14.99939%, 14.99939%)" fill-opacity="1">
<use xlink:href="#glyph-2-0" x="45.42" y="268.699454"/>
</g>
<g clip-path="url(#clip-12)">
<path fill="none" stroke-width="1" stroke-linecap="round" stroke-linejoin="round" stroke="rgb(79.998779%, 79.998779%, 79.998779%)" stroke-opacity="1" stroke-miterlimit="10" d="M 61.921875 125.94375 L 434.207031 125.94375 " transform="matrix(1, 0, 0, -1, 0, 345.6)"/>
</g>
<g fill="rgb(14.99939%, 14.99939%, 14.99939%)" fill-opacity="1">
<use xlink:href="#glyph-2-1" x="31.42" y="223.834149"/>
<use xlink:href="#glyph-2-0" x="38.416" y="223.834149"/>
<use xlink:href="#glyph-2-0" x="45.412" y="223.834149"/>
</g>
<g clip-path="url(#clip-13)">
<path fill="none" stroke-width="1" stroke-linecap="round" stroke-linejoin="round" stroke="rgb(79.998779%, 79.998779%, 79.998779%)" stroke-opacity="1" stroke-miterlimit="10" d="M 61.921875 170.810938 L 434.207031 170.810938 " transform="matrix(1, 0, 0, -1, 0, 345.6)"/>
</g>
<g fill="rgb(14.99939%, 14.99939%, 14.99939%)" fill-opacity="1">
<use xlink:href="#glyph-2-2" x="31.42" y="178.968843"/>
<use xlink:href="#glyph-2-0" x="38.416" y="178.968843"/>
<use xlink:href="#glyph-2-0" x="45.412" y="178.968843"/>
</g>
<g clip-path="url(#clip-14)">
<path fill="none" stroke-width="1" stroke-linecap="round" stroke-linejoin="round" stroke="rgb(79.998779%, 79.998779%, 79.998779%)" stroke-opacity="1" stroke-miterlimit="10" d="M 61.921875 215.674219 L 434.207031 215.674219 " transform="matrix(1, 0, 0, -1, 0, 345.6)"/>
</g>
<g fill="rgb(14.99939%, 14.99939%, 14.99939%)" fill-opacity="1">
<use xlink:href="#glyph-2-3" x="31.42" y="134.103538"/>
<use xlink:href="#glyph-2-0" x="38.416" y="134.103538"/>
<use xlink:href="#glyph-2-0" x="45.412" y="134.103538"/>
</g>
<g clip-path="url(#clip-15)">
<path fill="none" stroke-width="1" stroke-linecap="round" stroke-linejoin="round" stroke="rgb(79.998779%, 79.998779%, 79.998779%)" stroke-opacity="1" stroke-miterlimit="10" d="M 61.921875 260.541406 L 434.207031 260.541406 " transform="matrix(1, 0, 0, -1, 0, 345.6)"/>
</g>
<g fill="rgb(14.99939%, 14.99939%, 14.99939%)" fill-opacity="1">
<use xlink:href="#glyph-2-4" x="31.42" y="89.238233"/>
<use xlink:href="#glyph-2-0" x="38.416" y="89.238233"/>
<use xlink:href="#glyph-2-0" x="45.412" y="89.238233"/>
</g>
<g clip-path="url(#clip-16)">
<path fill="none" stroke-width="1" stroke-linecap="round" stroke-linejoin="round" stroke="rgb(79.998779%, 79.998779%, 79.998779%)" stroke-opacity="1" stroke-miterlimit="10" d="M 61.921875 305.408594 L 434.207031 305.408594 " transform="matrix(1, 0, 0, -1, 0, 345.6)"/>
</g>
<g fill="rgb(14.99939%, 14.99939%, 14.99939%)" fill-opacity="1">
<use xlink:href="#glyph-2-5" x="31.42" y="44.372928"/>
<use xlink:href="#glyph-2-0" x="38.416" y="44.372928"/>
<use xlink:href="#glyph-2-0" x="45.412" y="44.372928"/>
</g>
<g fill="rgb(14.99939%, 14.99939%, 14.99939%)" fill-opacity="1">
<use xlink:href="#glyph-3-0" x="24.295" y="161.013321"/>
<use xlink:href="#glyph-3-1" x="24.295" y="150.543321"/>
<use xlink:href="#glyph-3-2" x="24.295" y="141.363321"/>
<use xlink:href="#glyph-3-3" x="24.295" y="131.853321"/>
<use xlink:href="#glyph-3-4" x="24.295" y="122.343321"/>
</g>
<g clip-path="url(#clip-17)">
<path fill-rule="nonzero" fill="rgb(29.803467%, 44.7052%, 69.018555%)" fill-opacity="0.75" d="M 78.84375 264.519531 L 92.945312 264.519531 L 92.945312 187.351562 L 78.84375 187.351562 Z M 78.84375 264.519531 "/>
</g>
<g clip-path="url(#clip-18)">
<path fill="none" stroke-width="1" stroke-linecap="butt" stroke-linejoin="miter" stroke="rgb(100%, 100%, 100%)" stroke-opacity="1" stroke-miterlimit="10" d="M 78.84375 81.080469 L 92.945312 81.080469 L 92.945312 158.248438 L 78.84375 158.248438 Z M 78.84375 81.080469 " transform="matrix(1, 0, 0, -1, 0, 345.6)"/>
</g>
<g clip-path="url(#clip-19)">
<path fill-rule="nonzero" fill="rgb(29.803467%, 44.7052%, 69.018555%)" fill-opacity="0.75" stroke-width="1" stroke-linecap="butt" stroke-linejoin="miter" stroke="rgb(100%, 100%, 100%)" stroke-opacity="1" stroke-miterlimit="10" d="M 92.945312 81.080469 L 107.046875 81.080469 L 107.046875 171.709375 L 92.945312 171.709375 Z M 92.945312 81.080469 " transform="matrix(1, 0, 0, -1, 0, 345.6)"/>
</g>
<g clip-path="url(#clip-20)">
<path fill-rule="nonzero" fill="rgb(29.803467%, 44.7052%, 69.018555%)" fill-opacity="0.75" d="M 107.046875 264.519531 L 121.148438 264.519531 L 121.148438 109.285156 L 107.046875 109.285156 Z M 107.046875 264.519531 "/>
</g>
<g clip-path="url(#clip-21)">
<path fill="none" stroke-width="1" stroke-linecap="butt" stroke-linejoin="miter" stroke="rgb(100%, 100%, 100%)" stroke-opacity="1" stroke-miterlimit="10" d="M 107.046875 81.080469 L 121.148438 81.080469 L 121.148438 236.314844 L 107.046875 236.314844 Z M 107.046875 81.080469 " transform="matrix(1, 0, 0, -1, 0, 345.6)"/>
</g>
<g clip-path="url(#clip-22)">
<path fill-rule="nonzero" fill="rgb(29.803467%, 44.7052%, 69.018555%)" fill-opacity="0.75" d="M 121.148438 264.519531 L 135.25 264.519531 L 135.25 127.230469 L 121.148438 127.230469 Z M 121.148438 264.519531 "/>
</g>
<g clip-path="url(#clip-23)">
<path fill="none" stroke-width="1" stroke-linecap="butt" stroke-linejoin="miter" stroke="rgb(100%, 100%, 100%)" stroke-opacity="1" stroke-miterlimit="10" d="M 121.148438 81.080469 L 135.25 81.080469 L 135.25 218.369531 L 121.148438 218.369531 Z M 121.148438 81.080469 " transform="matrix(1, 0, 0, -1, 0, 345.6)"/>
</g>
<g clip-path="url(#clip-24)">
<path fill-rule="nonzero" fill="rgb(29.803467%, 44.7052%, 69.018555%)" fill-opacity="0.75" d="M 135.25 264.519531 L 149.351562 264.519531 L 149.351562 107.941406 L 135.25 107.941406 Z M 135.25 264.519531 "/>
</g>
<g clip-path="url(#clip-25)">
<path fill="none" stroke-width="1" stroke-linecap="butt" stroke-linejoin="miter" stroke="rgb(100%, 100%, 100%)" stroke-opacity="1" stroke-miterlimit="10" d="M 135.25 81.080469 L 149.351562 81.080469 L 149.351562 237.658594 L 135.25 237.658594 Z M 135.25 81.080469 " transform="matrix(1, 0, 0, -1, 0, 345.6)"/>
</g>
<g clip-path="url(#clip-26)">
<path fill-rule="nonzero" fill="rgb(29.803467%, 44.7052%, 69.018555%)" fill-opacity="0.75" d="M 149.351562 264.519531 L 163.453125 264.519531 L 163.453125 108.835938 L 149.351562 108.835938 Z M 149.351562 264.519531 "/>
</g>
<g clip-path="url(#clip-27)">
<path fill="none" stroke-width="1" stroke-linecap="butt" stroke-linejoin="miter" stroke="rgb(100%, 100%, 100%)" stroke-opacity="1" stroke-miterlimit="10" d="M 149.351562 81.080469 L 163.453125 81.080469 L 163.453125 236.764063 L 149.351562 236.764063 Z M 149.351562 81.080469 " transform="matrix(1, 0, 0, -1, 0, 345.6)"/>
</g>
<g clip-path="url(#clip-28)">
<path fill-rule="nonzero" fill="rgb(29.803467%, 44.7052%, 69.018555%)" fill-opacity="0.75" d="M 163.453125 264.519531 L 177.554688 264.519531 L 177.554688 118.707031 L 163.453125 118.707031 Z M 163.453125 264.519531 "/>
</g>
<g clip-path="url(#clip-29)">
<path fill="none" stroke-width="1" stroke-linecap="butt" stroke-linejoin="miter" stroke="rgb(100%, 100%, 100%)" stroke-opacity="1" stroke-miterlimit="10" d="M 163.453125 81.080469 L 177.554688 81.080469 L 177.554688 226.892969 L 163.453125 226.892969 Z M 163.453125 81.080469 " transform="matrix(1, 0, 0, -1, 0, 345.6)"/>
</g>
<g clip-path="url(#clip-30)">
<path fill-rule="nonzero" fill="rgb(29.803467%, 44.7052%, 69.018555%)" fill-opacity="0.75" d="M 177.554688 264.519531 L 191.65625 264.519531 L 191.65625 119.605469 L 177.554688 119.605469 Z M 177.554688 264.519531 "/>
</g>
<g clip-path="url(#clip-31)">
<path fill="none" stroke-width="1" stroke-linecap="butt" stroke-linejoin="miter" stroke="rgb(100%, 100%, 100%)" stroke-opacity="1" stroke-miterlimit="10" d="M 177.554688 81.080469 L 191.65625 81.080469 L 191.65625 225.994531 L 177.554688 225.994531 Z M 177.554688 81.080469 " transform="matrix(1, 0, 0, -1, 0, 345.6)"/>
</g>
<g clip-path="url(#clip-32)">
<path fill-rule="nonzero" fill="rgb(29.803467%, 44.7052%, 69.018555%)" fill-opacity="0.75" d="M 191.65625 264.519531 L 205.757812 264.519531 L 205.757812 103.902344 L 191.65625 103.902344 Z M 191.65625 264.519531 "/>
</g>
<g clip-path="url(#clip-33)">
<path fill="none" stroke-width="1" stroke-linecap="butt" stroke-linejoin="miter" stroke="rgb(100%, 100%, 100%)" stroke-opacity="1" stroke-miterlimit="10" d="M 191.65625 81.080469 L 205.757812 81.080469 L 205.757812 241.697656 L 191.65625 241.697656 Z M 191.65625 81.080469 " transform="matrix(1, 0, 0, -1, 0, 345.6)"/>
</g>
<g clip-path="url(#clip-34)">
<path fill-rule="nonzero" fill="rgb(29.803467%, 44.7052%, 69.018555%)" fill-opacity="0.75" d="M 205.757812 264.519531 L 219.859375 264.519531 L 219.859375 143.382812 L 205.757812 143.382812 Z M 205.757812 264.519531 "/>
</g>
<g clip-path="url(#clip-35)">
<path fill="none" stroke-width="1" stroke-linecap="butt" stroke-linejoin="miter" stroke="rgb(100%, 100%, 100%)" stroke-opacity="1" stroke-miterlimit="10" d="M 205.757812 81.080469 L 219.859375 81.080469 L 219.859375 202.217188 L 205.757812 202.217188 Z M 205.757812 81.080469 " transform="matrix(1, 0, 0, -1, 0, 345.6)"/>
</g>
<g clip-path="url(#clip-36)">
<path fill-rule="nonzero" fill="rgb(29.803467%, 44.7052%, 69.018555%)" fill-opacity="0.75" d="M 219.859375 264.519531 L 233.960938 264.519531 L 233.960938 94.03125 L 219.859375 94.03125 Z M 219.859375 264.519531 "/>
</g>
<g clip-path="url(#clip-37)">
<path fill="none" stroke-width="1" stroke-linecap="butt" stroke-linejoin="miter" stroke="rgb(100%, 100%, 100%)" stroke-opacity="1" stroke-miterlimit="10" d="M 219.859375 81.080469 L 233.960938 81.080469 L 233.960938 251.56875 L 219.859375 251.56875 Z M 219.859375 81.080469 " transform="matrix(1, 0, 0, -1, 0, 345.6)"/>
</g>
<g clip-path="url(#clip-38)">
<path fill-rule="nonzero" fill="rgb(29.803467%, 44.7052%, 69.018555%)" fill-opacity="0.75" d="M 233.960938 264.519531 L 248.0625 264.519531 L 248.0625 105.246094 L 233.960938 105.246094 Z M 233.960938 264.519531 "/>
</g>
<g clip-path="url(#clip-39)">
<path fill="none" stroke-width="1" stroke-linecap="butt" stroke-linejoin="miter" stroke="rgb(100%, 100%, 100%)" stroke-opacity="1" stroke-miterlimit="10" d="M 233.960938 81.080469 L 248.0625 81.080469 L 248.0625 240.353906 L 233.960938 240.353906 Z M 233.960938 81.080469 " transform="matrix(1, 0, 0, -1, 0, 345.6)"/>
</g>
<g clip-path="url(#clip-40)">
<path fill-rule="nonzero" fill="rgb(29.803467%, 44.7052%, 69.018555%)" fill-opacity="0.75" d="M 248.0625 264.519531 L 262.164062 264.519531 L 262.164062 58.589844 L 248.0625 58.589844 Z M 248.0625 264.519531 "/>
</g>
<g clip-path="url(#clip-41)">
<path fill="none" stroke-width="1" stroke-linecap="butt" stroke-linejoin="miter" stroke="rgb(100%, 100%, 100%)" stroke-opacity="1" stroke-miterlimit="10" d="M 248.0625 81.080469 L 262.164062 81.080469 L 262.164062 287.010156 L 248.0625 287.010156 Z M 248.0625 81.080469 " transform="matrix(1, 0, 0, -1, 0, 345.6)"/>
</g>
<g clip-path="url(#clip-42)">
<path fill-rule="nonzero" fill="rgb(29.803467%, 44.7052%, 69.018555%)" fill-opacity="0.75" d="M 262.164062 264.519531 L 276.265625 264.519531 L 276.265625 74.289062 L 262.164062 74.289062 Z M 262.164062 264.519531 "/>
</g>
<g clip-path="url(#clip-43)">
<path fill="none" stroke-width="1" stroke-linecap="butt" stroke-linejoin="miter" stroke="rgb(100%, 100%, 100%)" stroke-opacity="1" stroke-miterlimit="10" d="M 262.164062 81.080469 L 276.265625 81.080469 L 276.265625 271.310938 L 262.164062 271.310938 Z M 262.164062 81.080469 " transform="matrix(1, 0, 0, -1, 0, 345.6)"/>
</g>
<g clip-path="url(#clip-44)">
<path fill-rule="nonzero" fill="rgb(29.803467%, 44.7052%, 69.018555%)" fill-opacity="0.75" d="M 276.265625 264.519531 L 290.367188 264.519531 L 290.367188 76.535156 L 276.265625 76.535156 Z M 276.265625 264.519531 "/>
</g>
<g clip-path="url(#clip-45)">
<path fill="none" stroke-width="1" stroke-linecap="butt" stroke-linejoin="miter" stroke="rgb(100%, 100%, 100%)" stroke-opacity="1" stroke-miterlimit="10" d="M 276.265625 81.080469 L 290.367188 81.080469 L 290.367188 269.064844 L 276.265625 269.064844 Z M 276.265625 81.080469 " transform="matrix(1, 0, 0, -1, 0, 345.6)"/>
</g>
<g clip-path="url(#clip-46)">
<path fill-rule="nonzero" fill="rgb(29.803467%, 44.7052%, 69.018555%)" fill-opacity="0.75" d="M 290.367188 264.519531 L 304.46875 264.519531 L 304.46875 45.578125 L 290.367188 45.578125 Z M 290.367188 264.519531 "/>
</g>
<g clip-path="url(#clip-47)">
<path fill="none" stroke-width="1" stroke-linecap="butt" stroke-linejoin="miter" stroke="rgb(100%, 100%, 100%)" stroke-opacity="1" stroke-miterlimit="10" d="M 290.367188 81.080469 L 304.46875 81.080469 L 304.46875 300.021875 L 290.367188 300.021875 Z M 290.367188 81.080469 " transform="matrix(1, 0, 0, -1, 0, 345.6)"/>
</g>
<g clip-path="url(#clip-48)">
<path fill-rule="nonzero" fill="rgb(29.803467%, 44.7052%, 69.018555%)" fill-opacity="0.75" d="M 304.46875 264.519531 L 318.574219 264.519531 L 318.574219 73.394531 L 304.46875 73.394531 Z M 304.46875 264.519531 "/>
</g>
<g clip-path="url(#clip-49)">
<path fill="none" stroke-width="1" stroke-linecap="butt" stroke-linejoin="miter" stroke="rgb(100%, 100%, 100%)" stroke-opacity="1" stroke-miterlimit="10" d="M 304.46875 81.080469 L 318.574219 81.080469 L 318.574219 272.205469 L 304.46875 272.205469 Z M 304.46875 81.080469 " transform="matrix(1, 0, 0, -1, 0, 345.6)"/>
</g>
<g clip-path="url(#clip-50)">
<path fill-rule="nonzero" fill="rgb(29.803467%, 44.7052%, 69.018555%)" fill-opacity="0.75" d="M 318.574219 264.519531 L 332.675781 264.519531 L 332.675781 24.9375 L 318.574219 24.9375 Z M 318.574219 264.519531 "/>
</g>
<g clip-path="url(#clip-51)">
<path fill="none" stroke-width="1" stroke-linecap="butt" stroke-linejoin="miter" stroke="rgb(100%, 100%, 100%)" stroke-opacity="1" stroke-miterlimit="10" d="M 318.574219 81.080469 L 332.675781 81.080469 L 332.675781 320.6625 L 318.574219 320.6625 Z M 318.574219 81.080469 " transform="matrix(1, 0, 0, -1, 0, 345.6)"/>
</g>
<g clip-path="url(#clip-52)">
<path fill-rule="nonzero" fill="rgb(29.803467%, 44.7052%, 69.018555%)" fill-opacity="0.75" d="M 332.675781 264.519531 L 346.777344 264.519531 L 346.777344 88.648438 L 332.675781 88.648438 Z M 332.675781 264.519531 "/>
</g>
<g clip-path="url(#clip-53)">
<path fill="none" stroke-width="1" stroke-linecap="butt" stroke-linejoin="miter" stroke="rgb(100%, 100%, 100%)" stroke-opacity="1" stroke-miterlimit="10" d="M 332.675781 81.080469 L 346.777344 81.080469 L 346.777344 256.951563 L 332.675781 256.951563 Z M 332.675781 81.080469 " transform="matrix(1, 0, 0, -1, 0, 345.6)"/>
</g>
<g clip-path="url(#clip-54)">
<path fill-rule="nonzero" fill="rgb(29.803467%, 44.7052%, 69.018555%)" fill-opacity="0.75" d="M 346.777344 264.519531 L 360.878906 264.519531 L 360.878906 107.042969 L 346.777344 107.042969 Z M 346.777344 264.519531 "/>
</g>
<g clip-path="url(#clip-55)">
<path fill="none" stroke-width="1" stroke-linecap="butt" stroke-linejoin="miter" stroke="rgb(100%, 100%, 100%)" stroke-opacity="1" stroke-miterlimit="10" d="M 346.777344 81.080469 L 360.878906 81.080469 L 360.878906 238.557031 L 346.777344 238.557031 Z M 346.777344 81.080469 " transform="matrix(1, 0, 0, -1, 0, 345.6)"/>
</g>
<g clip-path="url(#clip-56)">
<path fill-rule="nonzero" fill="rgb(29.803467%, 44.7052%, 69.018555%)" fill-opacity="0.75" d="M 360.878906 264.519531 L 374.980469 264.519531 L 374.980469 55 L 360.878906 55 Z M 360.878906 264.519531 "/>
</g>
<g clip-path="url(#clip-57)">
<path fill="none" stroke-width="1" stroke-linecap="butt" stroke-linejoin="miter" stroke="rgb(100%, 100%, 100%)" stroke-opacity="1" stroke-miterlimit="10" d="M 360.878906 81.080469 L 374.980469 81.080469 L 374.980469 290.6 L 360.878906 290.6 Z M 360.878906 81.080469 " transform="matrix(1, 0, 0, -1, 0, 345.6)"/>
</g>
<g clip-path="url(#clip-58)">
<path fill-rule="nonzero" fill="rgb(29.803467%, 44.7052%, 69.018555%)" fill-opacity="0.75" stroke-width="1" stroke-linecap="butt" stroke-linejoin="miter" stroke="rgb(100%, 100%, 100%)" stroke-opacity="1" stroke-miterlimit="10" d="M 374.980469 81.080469 L 389.082031 81.080469 L 389.082031 156.900781 L 374.980469 156.900781 Z M 374.980469 81.080469 " transform="matrix(1, 0, 0, -1, 0, 345.6)"/>
</g>
<g clip-path="url(#clip-59)">
<path fill-rule="nonzero" fill="rgb(29.803467%, 44.7052%, 69.018555%)" fill-opacity="0.75" d="M 389.082031 264.519531 L 403.183594 264.519531 L 403.183594 263.171875 L 389.082031 263.171875 Z M 389.082031 264.519531 "/>
</g>
<g clip-path="url(#clip-60)">
<path fill="none" stroke-width="1" stroke-linecap="butt" stroke-linejoin="miter" stroke="rgb(100%, 100%, 100%)" stroke-opacity="1" stroke-miterlimit="10" d="M 389.082031 81.080469 L 403.183594 81.080469 L 403.183594 82.428125 L 389.082031 82.428125 Z M 389.082031 81.080469 " transform="matrix(1, 0, 0, -1, 0, 345.6)"/>
</g>
<g clip-path="url(#clip-61)">
<path fill-rule="nonzero" fill="rgb(29.803467%, 44.7052%, 69.018555%)" fill-opacity="0.75" d="M 403.183594 264.519531 L 417.285156 264.519531 L 417.285156 264.070312 L 403.183594 264.070312 Z M 403.183594 264.519531 "/>
</g>
<g clip-path="url(#clip-62)">
<path fill="none" stroke-width="1" stroke-linecap="butt" stroke-linejoin="miter" stroke="rgb(100%, 100%, 100%)" stroke-opacity="1" stroke-miterlimit="10" d="M 403.183594 81.080469 L 417.285156 81.080469 L 417.285156 81.529688 L 403.183594 81.529688 Z M 403.183594 81.080469 " transform="matrix(1, 0, 0, -1, 0, 345.6)"/>
</g>
<path fill="none" stroke-width="1.25" stroke-linecap="square" stroke-linejoin="miter" stroke="rgb(79.998779%, 79.998779%, 79.998779%)" stroke-opacity="1" stroke-miterlimit="10" d="M 61.921875 81.080469 L 61.921875 332.639063 " transform="matrix(1, 0, 0, -1, 0, 345.6)"/>
<path fill="none" stroke-width="1.25" stroke-linecap="square" stroke-linejoin="miter" stroke="rgb(79.998779%, 79.998779%, 79.998779%)" stroke-opacity="1" stroke-miterlimit="10" d="M 434.207031 81.080469 L 434.207031 332.639063 " transform="matrix(1, 0, 0, -1, 0, 345.6)"/>
<path fill="none" stroke-width="1.25" stroke-linecap="square" stroke-linejoin="miter" stroke="rgb(79.998779%, 79.998779%, 79.998779%)" stroke-opacity="1" stroke-miterlimit="10" d="M 61.921875 81.080469 L 434.207031 81.080469 " transform="matrix(1, 0, 0, -1, 0, 345.6)"/>
<path fill="none" stroke-width="1.25" stroke-linecap="square" stroke-linejoin="miter" stroke="rgb(79.998779%, 79.998779%, 79.998779%)" stroke-opacity="1" stroke-miterlimit="10" d="M 61.921875 332.639063 L 434.207031 332.639063 " transform="matrix(1, 0, 0, -1, 0, 345.6)"/>
</svg>
