<svg width="4851" height="2710" xmlns="http://www.w3.org/2000/svg" xmlns:xlink="http://www.w3.org/1999/xlink" xml:space="preserve" overflow="hidden"><defs><clipPath id="clip0"><rect x="-54" y="-50" width="4851" height="2710"/></clipPath><clipPath id="clip1"><rect x="94" y="1034" width="202" height="202"/></clipPath><clipPath id="clip2"><rect x="94" y="1034" width="202" height="202"/></clipPath><clipPath id="clip3"><rect x="94" y="1034" width="202" height="202"/></clipPath><clipPath id="clip4"><rect x="102" y="1834" width="201" height="203"/></clipPath><clipPath id="clip5"><rect x="102" y="1834" width="201" height="203"/></clipPath><clipPath id="clip6"><rect x="102" y="1834" width="201" height="203"/></clipPath><clipPath id="clip7"><rect x="104" y="1445" width="202" height="201"/></clipPath><clipPath id="clip8"><rect x="104" y="1445" width="202" height="201"/></clipPath><clipPath id="clip9"><rect x="104" y="1445" width="202" height="201"/></clipPath><clipPath id="clip10"><rect x="93" y="676" width="201" height="202"/></clipPath><clipPath id="clip11"><rect x="93" y="676" width="201" height="202"/></clipPath><clipPath id="clip12"><rect x="93" y="676" width="201" height="202"/></clipPath><clipPath id="clip13"><rect x="2707" y="919" width="555" height="522"/></clipPath><clipPath id="clip14"><rect x="2707" y="919" width="555" height="522"/></clipPath><clipPath id="clip15"><rect x="2707" y="919" width="555" height="522"/></clipPath><clipPath id="clip16"><rect x="2195" y="1266" width="557" height="522"/></clipPath><clipPath id="clip17"><rect x="2195" y="1266" width="557" height="522"/></clipPath><clipPath id="clip18"><rect x="2195" y="1266" width="557" height="522"/></clipPath><clipPath id="clip19"><rect x="2198" y="919" width="557" height="522"/></clipPath><clipPath id="clip20"><rect x="2198" y="919" width="557" height="522"/></clipPath><clipPath id="clip21"><rect x="2198" y="919" width="557" height="522"/></clipPath><clipPath id="clip22"><rect x="2708" y="1267" width="555" height="521"/></clipPath><clipPath id="clip23"><rect x="2708" y="1267" width="555" height="521"/></clipPath><clipPath id="clip24"><rect x="2708" y="1267" width="555" height="521"/></clipPath><clipPath id="clip25"><rect x="1684" y="1123" width="161" height="161"/></clipPath><clipPath id="clip26"><rect x="1684" y="1123" width="161" height="161"/></clipPath><clipPath id="clip27"><rect x="1684" y="1123" width="161" height="161"/></clipPath><clipPath id="clip28"><rect x="1706" y="1123" width="162" height="161"/></clipPath><clipPath id="clip29"><rect x="1706" y="1123" width="162" height="161"/></clipPath><clipPath id="clip30"><rect x="1706" y="1123" width="162" height="161"/></clipPath><clipPath id="clip31"><rect x="1688" y="1325" width="186" height="187"/></clipPath><clipPath id="clip32"><rect x="1688" y="1325" width="186" height="187"/></clipPath><clipPath id="clip33"><rect x="1688" y="1325" width="186" height="187"/></clipPath><clipPath id="clip34"><rect x="1689" y="1545" width="188" height="188"/></clipPath><clipPath id="clip35"><rect x="1689" y="1545" width="188" height="188"/></clipPath><clipPath id="clip36"><rect x="1689" y="1545" width="188" height="188"/></clipPath><clipPath id="clip37"><rect x="2514" y="-50" width="313" height="313"/></clipPath><clipPath id="clip38"><rect x="2514" y="-50" width="313" height="313"/></clipPath><clipPath id="clip39"><rect x="2514" y="-50" width="313" height="313"/></clipPath><clipPath id="clip40"><rect x="102" y="2284" width="201" height="202"/></clipPath><clipPath id="clip41"><rect x="102" y="2284" width="201" height="202"/></clipPath><clipPath id="clip42"><rect x="102" y="2284" width="201" height="202"/></clipPath><clipPath id="clip43"><rect x="3835" y="1293" width="213" height="212"/></clipPath><clipPath id="clip44"><rect x="3835" y="1293" width="213" height="212"/></clipPath><clipPath id="clip45"><rect x="3835" y="1293" width="213" height="212"/></clipPath><clipPath id="clip46"><rect x="4329" y="1293" width="213" height="212"/></clipPath><clipPath id="clip47"><rect x="4329" y="1293" width="213" height="212"/></clipPath><clipPath id="clip48"><rect x="4329" y="1293" width="213" height="212"/></clipPath><clipPath id="clip49"><rect x="4042" y="873" width="211" height="211"/></clipPath><clipPath id="clip50"><rect x="4042" y="873" width="211" height="211"/></clipPath><clipPath id="clip51"><rect x="4042" y="873" width="211" height="211"/></clipPath></defs><g clip-path="url(#clip0)" transform="translate(54 50)"><g clip-path="url(#clip1)"><g clip-path="url(#clip2)"><g clip-path="url(#clip3)"><path d="M254.125 1071.69C254.125 1080.94 227.878 1088.44 195.5 1088.44 163.122 1088.44 136.875 1080.94 136.875 1071.69 136.875 1062.44 163.122 1054.94 195.5 1054.94 227.878 1054.94 254.125 1062.44 254.125 1071.69Z" fill="#96D459"/><path d="M237.375 1113.56C234.862 1113.56 233.187 1111.89 233.187 1109.38 233.187 1106.86 234.862 1105.19 237.375 1105.19 239.887 1105.19 241.562 1106.86 241.562 1109.38 241.562 1111.89 239.887 1113.56 237.375 1113.56ZM195.5 1096.81C163.256 1096.81 136.875 1089.28 136.875 1080.06L136.875 1113.56C136.875 1122.78 163.256 1130.31 195.5 1130.31 227.744 1130.31 254.125 1122.78 254.125 1113.56L254.125 1080.06C254.125 1089.28 227.744 1096.81 195.5 1096.81Z" fill="#96D459"/><path d="M237.375 1155.44C234.862 1155.44 233.187 1153.76 233.187 1151.25 233.187 1148.74 234.862 1147.06 237.375 1147.06 239.887 1147.06 241.562 1148.74 241.562 1151.25 241.562 1153.76 239.887 1155.44 237.375 1155.44ZM195.5 1138.69C163.256 1138.69 136.875 1131.15 136.875 1121.94L136.875 1155.44C136.875 1164.65 163.256 1172.19 195.5 1172.19 227.744 1172.19 254.125 1164.65 254.125 1155.44L254.125 1121.94C254.125 1131.15 227.744 1138.69 195.5 1138.69Z" fill="#96D459"/><path d="M237.375 1197.31C234.862 1197.31 233.187 1195.64 233.187 1193.13 233.187 1190.61 234.862 1188.94 237.375 1188.94 239.887 1188.94 241.562 1190.61 241.562 1193.13 241.562 1195.64 239.887 1197.31 237.375 1197.31ZM195.5 1180.56C163.256 1180.56 136.875 1173.03 136.875 1163.81L136.875 1197.31C136.875 1206.53 163.256 1214.06 195.5 1214.06 227.744 1214.06 254.125 1206.53 254.125 1197.31L254.125 1163.81C254.125 1173.03 227.744 1180.56 195.5 1180.56Z" fill="#96D459"/></g></g></g><text fill="#281B10" font-family="Arial,Arial_MSFontService,sans-serif" font-weight="700" font-size="83" transform="matrix(1 0 0 1 26.1019 1323)">AUMCdb</text><g clip-path="url(#clip4)"><g clip-path="url(#clip5)"><g clip-path="url(#clip6)"><path d="M159.125 37.6875C159.125 46.9382 132.878 54.4374 100.5 54.4374 68.1222 54.4374 41.8749 46.9382 41.8749 37.6875 41.8749 28.4367 68.1222 20.9375 100.5 20.9375 132.878 20.9375 159.125 28.4367 159.125 37.6875Z" fill="#414BB2" transform="matrix(1 0 0 1 102 1835)"/><path d="M142.375 79.5624C139.862 79.5624 138.187 77.8874 138.187 75.3749 138.187 72.8624 139.862 71.1874 142.375 71.1874 144.887 71.1874 146.562 72.8624 146.562 75.3749 146.562 77.8874 144.887 79.5624 142.375 79.5624ZM100.5 62.8124C68.2562 62.8124 41.8749 55.2749 41.8749 46.0624L41.8749 79.5624C41.8749 88.7749 68.2562 96.3124 100.5 96.3124 132.744 96.3124 159.125 88.7749 159.125 79.5624L159.125 46.0624C159.125 55.2749 132.744 62.8124 100.5 62.8124Z" fill="#414BB2" transform="matrix(1 0 0 1 102 1835)"/><path d="M142.375 121.437C139.862 121.437 138.187 119.762 138.187 117.25 138.187 114.737 139.862 113.062 142.375 113.062 144.887 113.062 146.562 114.737 146.562 117.25 146.562 119.762 144.887 121.437 142.375 121.437ZM100.5 104.687C68.2562 104.687 41.8749 97.1499 41.8749 87.9374L41.8749 121.437C41.8749 130.65 68.2562 138.187 100.5 138.187 132.744 138.187 159.125 130.65 159.125 121.437L159.125 87.9374C159.125 97.1499 132.744 104.687 100.5 104.687Z" fill="#414BB2" transform="matrix(1 0 0 1 102 1835)"/><path d="M142.375 163.312C139.862 163.312 138.187 161.637 138.187 159.125 138.187 156.612 139.862 154.937 142.375 154.937 144.887 154.937 146.562 156.612 146.562 159.125 146.562 161.637 144.887 163.312 142.375 163.312ZM100.5 146.562C68.2562 146.562 41.8749 139.025 41.8749 129.812L41.8749 163.312C41.8749 172.525 68.2562 180.062 100.5 180.062 132.744 180.062 159.125 172.525 159.125 163.312L159.125 129.812C159.125 139.025 132.744 146.562 100.5 146.562Z" fill="#414BB2" transform="matrix(1 0 0 1 102 1835)"/></g></g></g><text fill="#281B10" font-family="Arial,Arial_MSFontService,sans-serif" font-weight="700" font-size="83" transform="matrix(1 0 0 1 -3.97018 2118)">MIMIC</text><text fill="#281B10" font-family="Arial,Arial_MSFontService,sans-serif" font-weight="700" font-size="83" transform="matrix(1 0 0 1 238.946 2118)">-</text><text fill="#281B10" font-family="Arial,Arial_MSFontService,sans-serif" font-weight="700" font-size="83" transform="matrix(1 0 0 1 266.446 2118)">III/IV</text><g clip-path="url(#clip7)"><g clip-path="url(#clip8)"><g clip-path="url(#clip9)"><path d="M159.125 37.6875C159.125 46.9382 132.878 54.4374 100.5 54.4374 68.1222 54.4374 41.8749 46.9382 41.8749 37.6875 41.8749 28.4367 68.1222 20.9375 100.5 20.9375 132.878 20.9375 159.125 28.4367 159.125 37.6875Z" fill="#67C8B5" transform="matrix(1 0 0 1 105 1445)"/><path d="M142.375 79.5624C139.862 79.5624 138.187 77.8874 138.187 75.3749 138.187 72.8624 139.862 71.1874 142.375 71.1874 144.887 71.1874 146.562 72.8624 146.562 75.3749 146.562 77.8874 144.887 79.5624 142.375 79.5624ZM100.5 62.8124C68.2562 62.8124 41.8749 55.2749 41.8749 46.0624L41.8749 79.5624C41.8749 88.7749 68.2562 96.3124 100.5 96.3124 132.744 96.3124 159.125 88.7749 159.125 79.5624L159.125 46.0624C159.125 55.2749 132.744 62.8124 100.5 62.8124Z" fill="#67C8B5" transform="matrix(1 0 0 1 105 1445)"/><path d="M142.375 121.437C139.862 121.437 138.187 119.762 138.187 117.25 138.187 114.737 139.862 113.062 142.375 113.062 144.887 113.062 146.562 114.737 146.562 117.25 146.562 119.762 144.887 121.437 142.375 121.437ZM100.5 104.687C68.2562 104.687 41.8749 97.1499 41.8749 87.9374L41.8749 121.437C41.8749 130.65 68.2562 138.187 100.5 138.187 132.744 138.187 159.125 130.65 159.125 121.437L159.125 87.9374C159.125 97.1499 132.744 104.687 100.5 104.687Z" fill="#67C8B5" transform="matrix(1 0 0 1 105 1445)"/><path d="M142.375 163.312C139.862 163.312 138.187 161.637 138.187 159.125 138.187 156.612 139.862 154.937 142.375 154.937 144.887 154.937 146.562 156.612 146.562 159.125 146.562 161.637 144.887 163.312 142.375 163.312ZM100.5 146.562C68.2562 146.562 41.8749 139.025 41.8749 129.812L41.8749 163.312C41.8749 172.525 68.2562 180.062 100.5 180.062 132.744 180.062 159.125 172.525 159.125 163.312L159.125 129.812C159.125 139.025 132.744 146.562 100.5 146.562Z" fill="#67C8B5" transform="matrix(1 0 0 1 105 1445)"/></g></g></g><text fill="#281B10" font-family="Arial,Arial_MSFontService,sans-serif" font-weight="700" font-size="83" transform="matrix(1 0 0 1 105.108 1734)">eICU</text><g clip-path="url(#clip10)"><g clip-path="url(#clip11)"><g clip-path="url(#clip12)"><path d="M159.125 37.6875C159.125 46.9382 132.878 54.4374 100.5 54.4374 68.1222 54.4374 41.8749 46.9382 41.8749 37.6875 41.8749 28.4367 68.1222 20.9375 100.5 20.9375 132.878 20.9375 159.125 28.4367 159.125 37.6875Z" fill="#FAC710" transform="matrix(1 0 0 1 93.0002 677)"/><path d="M142.375 79.5624C139.862 79.5624 138.187 77.8874 138.187 75.3749 138.187 72.8624 139.862 71.1874 142.375 71.1874 144.887 71.1874 146.562 72.8624 146.562 75.3749 146.562 77.8874 144.887 79.5624 142.375 79.5624ZM100.5 62.8124C68.2562 62.8124 41.8749 55.2749 41.8749 46.0624L41.8749 79.5624C41.8749 88.7749 68.2562 96.3124 100.5 96.3124 132.744 96.3124 159.125 88.7749 159.125 79.5624L159.125 46.0624C159.125 55.2749 132.744 62.8124 100.5 62.8124Z" fill="#FAC710" transform="matrix(1 0 0 1 93.0002 677)"/><path d="M142.375 121.437C139.862 121.437 138.187 119.762 138.187 117.25 138.187 114.737 139.862 113.062 142.375 113.062 144.887 113.062 146.562 114.737 146.562 117.25 146.562 119.762 144.887 121.437 142.375 121.437ZM100.5 104.687C68.2562 104.687 41.8749 97.1499 41.8749 87.9374L41.8749 121.437C41.8749 130.65 68.2562 138.187 100.5 138.187 132.744 138.187 159.125 130.65 159.125 121.437L159.125 87.9374C159.125 97.1499 132.744 104.687 100.5 104.687Z" fill="#FAC710" transform="matrix(1 0 0 1 93.0002 677)"/><path d="M142.375 163.312C139.862 163.312 138.187 161.637 138.187 159.125 138.187 156.612 139.862 154.937 142.375 154.937 144.887 154.937 146.562 156.612 146.562 159.125 146.562 161.637 144.887 163.312 142.375 163.312ZM100.5 146.562C68.2562 146.562 41.8749 139.025 41.8749 129.812L41.8749 163.312C41.8749 172.525 68.2562 180.062 100.5 180.062 132.744 180.062 159.125 172.525 159.125 163.312L159.125 129.812C159.125 139.025 132.744 146.562 100.5 146.562Z" fill="#FAC710" transform="matrix(1 0 0 1 93.0002 677)"/></g></g></g><text font-family="Arial,Arial_MSFontService,sans-serif" font-weight="700" font-size="83" transform="matrix(1 0 0 1 78.0596 950)">HiRID</text><path d="M296 1121.25 469.605 1121.25 469.605 1547.15 455.855 1533.4 546.959 1533.4 546.959 1560.9 442.105 1560.9 442.105 1135 455.855 1148.75 296 1148.75ZM533.209 1505.9 615.709 1547.15 533.209 1588.4Z" fill="#281B10"/><path d="M306 1532.25 474.539 1532.25 474.539 1546.83 460.789 1533.08 546.828 1533.08 546.828 1560.58 447.039 1560.58 447.039 1546 460.789 1559.75 306 1559.75ZM533.078 1505.58 615.578 1546.83 533.078 1588.08Z" fill="#281B10"/><path d="M0-13.75 170.013-13.75 170.013 388.832 156.263 375.082 243.776 375.082 243.776 402.582 142.513 402.582 142.513 0 156.263 13.75 0 13.75ZM230.026 347.582 312.526 388.832 230.026 430.082Z" fill="#281B10" transform="matrix(1 0 0 -1 303 1935.83)"/><rect x="616" y="767" width="1299" height="1559" fill="#D3F5F2"/><text fill="#281B10" font-family="Arial,Arial_MSFontService,sans-serif" font-weight="400" font-size="98" transform="matrix(1 0 0 1 801.624 1231)">Variable </text><text fill="#281B10" font-family="Arial,Arial_MSFontService,sans-serif" font-weight="400" font-size="98" transform="matrix(1 0 0 1 1180.51 1231)">Mapping</text><text fill="#281B10" font-family="Arial,Arial_MSFontService,sans-serif" font-weight="400" font-size="98" transform="matrix(1 0 0 1 801.624 1466)">Artifact Removal</text><text fill="#281B10" font-family="Arial,Arial_MSFontService,sans-serif" font-weight="400" font-size="98" transform="matrix(1 0 0 1 801.624 1701)">Unit Harmonization</text><rect x="2057" y="765" width="1299" height="1559" fill="#DFDBE0"/><g clip-path="url(#clip13)"><g clip-path="url(#clip14)"><g clip-path="url(#clip15)"><path d="M445.021 206.229 336.479 206.229 336.479 141.104 445.021 141.104 445.021 206.229ZM445.021 293.063 336.479 293.063 336.479 227.938 445.021 227.938 445.021 293.063ZM445.021 379.896 336.479 379.896 336.479 314.771 445.021 314.771 445.021 379.896ZM206.229 379.896 206.229 314.771 314.771 314.771 314.771 379.896 206.229 379.896ZM75.9792 379.896 75.9792 314.771 184.521 314.771 184.521 379.896 75.9792 379.896ZM75.9792 227.938 184.521 227.938 184.521 293.063 75.9792 293.063 75.9792 227.938ZM75.9792 141.104 184.521 141.104 184.521 206.229 75.9792 206.229 75.9792 141.104ZM314.771 227.938 314.771 293.063 206.229 293.063 206.229 227.938 314.771 227.938ZM314.771 141.104 314.771 206.229 206.229 206.229 206.229 141.104 314.771 141.104ZM43.4167 108.542 43.4167 412.458 477.583 412.458 477.583 108.542 43.4167 108.542Z" fill="#FAC710" transform="matrix(1.06526 0 0 1 2707 920)"/></g></g></g><g clip-path="url(#clip16)"><g clip-path="url(#clip17)"><g clip-path="url(#clip18)"><path d="M445.021 206.229 336.479 206.229 336.479 141.104 445.021 141.104 445.021 206.229ZM445.021 293.063 336.479 293.063 336.479 227.938 445.021 227.938 445.021 293.063ZM445.021 379.896 336.479 379.896 336.479 314.771 445.021 314.771 445.021 379.896ZM206.229 379.896 206.229 314.771 314.771 314.771 314.771 379.896 206.229 379.896ZM75.9792 379.896 75.9792 314.771 184.521 314.771 184.521 379.896 75.9792 379.896ZM75.9792 227.938 184.521 227.938 184.521 293.063 75.9792 293.063 75.9792 227.938ZM75.9792 141.104 184.521 141.104 184.521 206.229 75.9792 206.229 75.9792 141.104ZM314.771 227.938 314.771 293.063 206.229 293.063 206.229 227.938 314.771 227.938ZM314.771 141.104 314.771 206.229 206.229 206.229 206.229 141.104 314.771 141.104ZM43.4167 108.542 43.4167 412.458 477.583 412.458 477.583 108.542 43.4167 108.542Z" fill="#96D459" transform="matrix(1.06526 0 0 1 2196 1266)"/></g></g></g><g clip-path="url(#clip19)"><g clip-path="url(#clip20)"><g clip-path="url(#clip21)"><path d="M445.021 206.229 336.479 206.229 336.479 141.104 445.021 141.104 445.021 206.229ZM445.021 293.063 336.479 293.063 336.479 227.938 445.021 227.938 445.021 293.063ZM445.021 379.896 336.479 379.896 336.479 314.771 445.021 314.771 445.021 379.896ZM206.229 379.896 206.229 314.771 314.771 314.771 314.771 379.896 206.229 379.896ZM75.9792 379.896 75.9792 314.771 184.521 314.771 184.521 379.896 75.9792 379.896ZM75.9792 227.938 184.521 227.938 184.521 293.063 75.9792 293.063 75.9792 227.938ZM75.9792 141.104 184.521 141.104 184.521 206.229 75.9792 206.229 75.9792 141.104ZM314.771 227.938 314.771 293.063 206.229 293.063 206.229 227.938 314.771 227.938ZM314.771 141.104 314.771 206.229 206.229 206.229 206.229 141.104 314.771 141.104ZM43.4167 108.542 43.4167 412.458 477.583 412.458 477.583 108.542 43.4167 108.542Z" fill="#67C8B5" transform="matrix(1.06526 0 0 1 2199 920)"/></g></g></g><g clip-path="url(#clip22)"><g clip-path="url(#clip23)"><g clip-path="url(#clip24)"><path d="M445.021 206.229 336.479 206.229 336.479 141.104 445.021 141.104 445.021 206.229ZM445.021 293.062 336.479 293.062 336.479 227.937 445.021 227.937 445.021 293.062ZM445.021 379.896 336.479 379.896 336.479 314.771 445.021 314.771 445.021 379.896ZM206.229 379.896 206.229 314.771 314.771 314.771 314.771 379.896 206.229 379.896ZM75.9791 379.896 75.9791 314.771 184.521 314.771 184.521 379.896 75.9791 379.896ZM75.9791 227.937 184.521 227.937 184.521 293.062 75.9791 293.062 75.9791 227.937ZM75.9791 141.104 184.521 141.104 184.521 206.229 75.9791 206.229 75.9791 141.104ZM314.771 227.937 314.771 293.062 206.229 293.062 206.229 227.937 314.771 227.937ZM314.771 141.104 314.771 206.229 206.229 206.229 206.229 141.104 314.771 141.104ZM43.4166 108.542 43.4166 412.458 477.583 412.458 477.583 108.542 43.4166 108.542Z" fill="#414BB2" transform="matrix(1.06526 0 0 1 2708 1267)"/></g></g></g><text font-family="Arial,Arial_MSFontService,sans-serif" font-weight="700" font-size="128" transform="matrix(1 0 0 1 2199.7 2213)">Compatible Data</text><path d="M0.174361-13.7489 73.8027-12.8152 73.4539 14.6826-0.174361 13.7489ZM60.4025-40.4873 142.373 1.80554 59.3563 42.0061Z" transform="matrix(1 0 0 -1 1915 1546.81)"/><g clip-path="url(#clip25)"><g clip-path="url(#clip26)"><g clip-path="url(#clip27)"><path d="M1833.26 1198.47 1707.81 1198.47 1722.74 1183.54C1724.75 1181.53 1724.75 1178.34 1722.74 1176.5 1720.73 1174.49 1717.54 1174.49 1715.7 1176.5L1692.22 1199.98C1690.21 1201.99 1690.21 1205.18 1692.22 1207.02L1715.7 1230.5C1716.7 1231.51 1718.04 1232.01 1719.22 1232.01 1720.39 1232.01 1721.73 1231.51 1722.74 1230.5 1724.75 1228.49 1724.75 1225.3 1722.74 1223.46L1707.81 1208.53 1833.26 1208.53C1836.11 1208.53 1838.29 1206.35 1838.29 1203.5 1838.29 1200.65 1836.11 1198.47 1833.26 1198.47Z"/></g></g></g><g clip-path="url(#clip28)"><g clip-path="url(#clip29)"><g clip-path="url(#clip30)"><path d="M149.26 75.4687 23.8146 75.4687 38.7406 60.5427C40.7531 58.5302 40.7531 55.3437 38.7406 53.4989 36.7281 51.4864 33.5416 51.4864 31.6968 53.4989L8.2177 76.9781C6.2052 78.9906 6.2052 82.177 8.2177 84.0218L31.6968 107.501C32.7031 108.507 34.0448 109.01 35.2187 109.01 36.3927 109.01 37.7343 108.507 38.7406 107.501 40.7531 105.488 40.7531 102.302 38.7406 100.457L23.8146 85.5312 149.26 85.5312C152.111 85.5312 154.292 83.351 154.292 80.4999 154.292 77.6489 152.111 75.4687 149.26 75.4687Z" transform="matrix(-1.00621 1.23225e-16 -1.22465e-16 -1 1868 1284)"/></g></g></g><g clip-path="url(#clip31)"><g clip-path="url(#clip32)"><g clip-path="url(#clip33)"><path d="M159.85 40.4417 143.559 24.15 92.0001 75.7084 40.4417 24.15 24.15 40.4417 75.7084 92.0001 24.15 143.559 40.4417 159.85 92.0001 108.292 143.559 159.85 159.85 143.559 108.292 92.0001Z" transform="matrix(1 0 0 1.00543 1689 1326)"/></g></g></g><g clip-path="url(#clip34)"><g clip-path="url(#clip35)"><g clip-path="url(#clip36)"><path d="M140.275 6.00626 6.00626 140.275 45.7251 179.994 179.8 45.9188 140.275 6.00626ZM142.988 66.2626 127.875 81.3751 115.863 69.3626 110.438 74.7876 122.45 86.8002 107.338 101.913 95.3252 89.9002 89.9002 95.3252 101.913 107.338 86.8002 122.45 74.7876 110.438 69.3626 115.863 81.3751 127.875 66.2626 142.988 54.2501 130.975 48.8251 136.4 60.8376 148.413 45.9188 163.332 22.6688 140.082 140.275 22.475 163.525 45.7251 148.607 60.6439 136.594 48.6313 130.975 54.2501 142.988 66.2626Z" transform="matrix(1.00537 0 0 1 1690 1546)"/></g></g></g><text font-family="Arial,Arial_MSFontService,sans-serif" font-weight="700" font-size="128" transform="matrix(1 0 0 1 819.131 2200)">Harmonization</text><g clip-path="url(#clip37)"><g clip-path="url(#clip38)"><g clip-path="url(#clip39)"><path d="M256.75 211.114C256.395 201.659 252.011 192.809 244.706 186.797 234.523 178.149 220.561 170.706 201.058 163.469 207.9 162.722 214.608 161.051 221 158.499 221 158.499 213.649 154.102 209.095 136.107 206.206 124.8 217.263 96.5315 217.357 76.6318 217.357 60.7068 212.833 53.5763 204.289 48.7403 199.358 45.9453 187.99 48.5193 187.99 48.5193 187.99 48.5193 182.13 37.375 162.468 31.265 146.313 26.861 129.07 29.059 114.537 37.375 102.375 45.24 96.525 53.8785 96.226 83.59 95.9758 110.822 99.7133 135.005 97.9843 146.406 97.1851 152.719 94.7804 158.721 91 163.839 96.9576 164.34 102.94 164.472 108.914 164.232 90.4735 171.23 77.1193 178.451 67.2913 186.794 59.9563 192.842 55.5711 201.748 55.25 211.25L55.25 268.349 58.1425 270.28C74.0675 280.891 115.645 286.179 156.92 286.179 198.543 286.179 239.85 280.8 254.15 270.075L256.75 268.125ZM203.141 201.5C206.731 201.5 209.641 204.41 209.641 208 209.641 211.59 206.731 214.5 203.141 214.5 199.551 214.5 196.641 211.59 196.641 208 196.641 204.41 199.551 201.5 203.141 201.5ZM117 90.8018C118.584 90.7049 120.161 90.5151 121.722 90.233 132.626 88.7962 143.268 85.803 153.322 81.3443 164.622 75.66 171.1 72.8715 180.476 64.3825 181.713 63.1648 183.702 63.1804 184.92 64.4173 185.382 64.8869 185.686 65.4898 185.786 66.1408 186.534 71.3083 188.477 82.68 191.061 87.2138 192.228 89.4436 193.544 91.5922 195 93.6455L195 107.25C195 128.789 177.539 146.25 156 146.25 134.461 146.25 117 128.789 117 107.25ZM181.418 168.704C173.168 171.136 164.602 172.331 156 172.25 147.391 172.332 138.817 171.136 130.559 168.701 134.324 165.621 136.506 161.011 136.5 156.146L136.5 155.412C149.004 160.521 163.013 160.521 175.516 155.412L175.516 156.133C175.497 160.999 177.666 165.615 181.425 168.704ZM243.75 261.329C215.28 276.991 99.45 276.858 68.276 261.131L68.276 211.387C68.5185 205.645 71.2352 200.29 75.725 196.703 84.7659 189.499 94.8471 183.709 105.625 179.53L105.625 193.447C92.8291 194.302 82.8841 204.926 82.875 217.75 82.8793 219.129 83.4701 220.441 84.5 221.358L84.5 242.125C84.5104 246.65 87.6327 250.573 92.04 251.599 93.6813 253.733 96.7421 254.133 98.8764 252.491 101.011 250.85 101.41 247.789 99.7689 245.655 98.1276 243.521 95.0668 243.121 92.9325 244.762 92.8597 244.818 92.7888 244.877 92.7193 244.936 91.6734 244.386 91.0134 243.307 91 242.125L91 221.358C92.0313 220.442 92.6224 219.129 92.625 217.75 92.625 209.673 99.1728 203.125 107.25 203.125L110.5 203.125C118.577 203.125 125.125 209.673 125.125 217.75 125.129 219.129 125.72 220.441 126.75 221.358L126.75 242.125C126.738 243.306 126.079 244.386 125.034 244.936 122.996 243.177 119.918 243.404 118.158 245.442 116.399 247.48 116.626 250.559 118.664 252.317 120.702 254.077 123.781 253.85 125.539 251.812 125.6 251.743 125.657 251.672 125.713 251.599 130.119 250.572 133.24 246.649 133.25 242.125L133.25 221.358C134.281 220.442 134.872 219.129 134.875 217.75 134.861 204.929 124.917 194.311 112.125 193.456L112.125 176.914C113.025 176.563 113.906 176.212 114.849 175.858 124.394 181.786 139.396 185.25 156 185.25 172.604 185.25 187.603 181.782 197.135 175.858 198.088 176.215 198.965 176.569 199.885 176.927L199.885 195.244C199.885 195.319 199.924 195.377 199.927 195.449 192.969 197.221 188.766 204.298 190.539 211.256 192.311 218.213 199.388 222.416 206.346 220.644 213.303 218.871 217.507 211.794 215.734 204.837 214.559 200.225 210.958 196.623 206.346 195.449 206.346 195.377 206.385 195.315 206.385 195.244L206.385 179.543C217.164 183.716 227.246 189.503 236.285 196.706 240.749 200.255 243.469 205.554 243.75 211.25Z" transform="matrix(1 0 0 1.0032 2515 -49.9998)"/><path d="M206.391 208C206.391 209.795 204.936 211.25 203.141 211.25 201.346 211.25 199.891 209.795 199.891 208 199.891 206.205 201.346 204.75 203.141 204.75 204.936 204.75 206.391 206.205 206.391 208Z" transform="matrix(1 0 0 1.0032 2515 -49.9998)"/></g></g></g><text font-family="Arial,Arial_MSFontService,sans-serif" font-weight="700" font-size="128" transform="matrix(1 0 0 1 2442.58 378)">Clinical </text><text font-family="Arial,Arial_MSFontService,sans-serif" font-weight="700" font-size="128" transform="matrix(1 0 0 1 2470.93 532)">Expert</text><g clip-path="url(#clip40)"><g clip-path="url(#clip41)"><g clip-path="url(#clip42)"><path d="M159.125 37.6875C159.125 46.9382 132.878 54.4374 100.5 54.4374 68.1222 54.4374 41.8749 46.9382 41.8749 37.6875 41.8749 28.4367 68.1222 20.9375 100.5 20.9375 132.878 20.9375 159.125 28.4367 159.125 37.6875Z" fill="#BFBFBF" transform="matrix(1 0 0 1 102 2285)"/><path d="M142.375 79.5624C139.862 79.5624 138.187 77.8874 138.187 75.3749 138.187 72.8624 139.862 71.1874 142.375 71.1874 144.887 71.1874 146.562 72.8624 146.562 75.3749 146.562 77.8874 144.887 79.5624 142.375 79.5624ZM100.5 62.8124C68.2562 62.8124 41.8749 55.2749 41.8749 46.0624L41.8749 79.5624C41.8749 88.7749 68.2562 96.3124 100.5 96.3124 132.744 96.3124 159.125 88.7749 159.125 79.5624L159.125 46.0624C159.125 55.2749 132.744 62.8124 100.5 62.8124Z" fill="#BFBFBF" transform="matrix(1 0 0 1 102 2285)"/><path d="M142.375 121.437C139.862 121.437 138.187 119.762 138.187 117.25 138.187 114.737 139.862 113.062 142.375 113.062 144.887 113.062 146.562 114.737 146.562 117.25 146.562 119.762 144.887 121.437 142.375 121.437ZM100.5 104.687C68.2562 104.687 41.8749 97.1499 41.8749 87.9374L41.8749 121.437C41.8749 130.65 68.2562 138.187 100.5 138.187 132.744 138.187 159.125 130.65 159.125 121.437L159.125 87.9374C159.125 97.1499 132.744 104.687 100.5 104.687Z" fill="#BFBFBF" transform="matrix(1 0 0 1 102 2285)"/><path d="M142.375 163.312C139.862 163.312 138.187 161.637 138.187 159.125 138.187 156.612 139.862 154.937 142.375 154.937 144.887 154.937 146.562 156.612 146.562 159.125 146.562 161.637 144.887 163.312 142.375 163.312ZM100.5 146.562C68.2562 146.562 41.8749 139.025 41.8749 129.812L41.8749 163.312C41.8749 172.525 68.2562 180.062 100.5 180.062 132.744 180.062 159.125 172.525 159.125 163.312L159.125 129.812C159.125 139.025 132.744 146.562 100.5 146.562Z" fill="#BFBFBF" transform="matrix(1 0 0 1 102 2285)"/></g></g></g><text fill="#281B10" font-family="Arial,Arial_MSFontService,sans-serif" font-weight="700" font-size="83" transform="matrix(1 0 0 1 12.2292 2591)">Dataset X</text><text font-family="Arial,Arial_MSFontService,sans-serif" font-weight="700" font-size="128" transform="matrix(6.12323e-17 1 -1 6.12323e-17 196.09 2124)">…</text><path d="M3356 1531.25 3426.2 1531.25 3426.2 1558.75 3356 1558.75ZM3412.45 1503.75 3494.95 1545 3412.45 1586.25Z"/><path d="M2948 395.25 4158.85 395.25 4158.85 696.574 4131.35 696.574 4131.35 409 4145.1 422.75 2948 422.75ZM4186.35 682.824 4145.1 765.324 4103.85 682.824Z"/><text font-family="Arial,Arial_MSFontService,sans-serif" font-weight="400" font-size="128" transform="matrix(1 0 0 1 3322 337)">Define</text><text font-family="Arial,Arial_MSFontService,sans-serif" font-weight="400" font-size="128" transform="matrix(1 0 0 1 1603.66 332)">Harmonize</text><path d="M0-13.75 1142.59-13.75 1142.59 289.379 1115.09 289.379 1115.09 0 1128.84 13.75 0 13.75ZM1170.09 275.629 1128.84 358.129 1087.59 275.629Z" transform="matrix(-1 1.22465e-16 1.22465e-16 1 2393.84 409)"/><path d="M314 2385.33 314 2400.92 460.914 2400.92 460.914 1872" stroke="#000000" stroke-width="27.5" stroke-miterlimit="8" stroke-dasharray="27.5 27.5" fill="none" fill-rule="evenodd"/><path d="M298 763.25 472.299 763.25 472.299 1546.5 458.549 1532.75 550.347 1532.75 550.347 1560.25 444.799 1560.25 444.799 777 458.549 790.75 298 790.75ZM536.597 1505.25 619.097 1546.5 536.597 1587.75Z" fill="#281B10"/><rect x="3498" y="764" width="1299" height="1559" fill="#DCE9FC"/><text font-family="Arial,Arial_MSFontService,sans-serif" font-weight="700" font-size="128" transform="matrix(1 0 0 1 3805.07 2122)">Cohort and </text><text font-family="Arial,Arial_MSFontService,sans-serif" font-weight="700" font-size="128" transform="matrix(1 0 0 1 3594.52 2276)">Variable Selection</text><text font-family="Arial,Arial_MSFontService,sans-serif" font-weight="700" font-size="128" transform="matrix(6.12323e-17 1 -1 6.12323e-17 4165.29 1729)">…</text><text font-family="Arial,Arial_MSFontService,sans-serif" font-weight="400" font-size="83" transform="matrix(1 0 0 1 4295.82 1600)">Sepsis</text><text font-family="Arial,Arial_MSFontService,sans-serif" font-weight="400" font-size="83" transform="matrix(1 0 0 1 4071.99 1175)">AKI</text><text font-family="Arial,Arial_MSFontService,sans-serif" font-weight="400" font-size="83" transform="matrix(1 0 0 1 3792.09 1600)">Mortality</text><rect x="3764" y="1283" width="173" height="111" fill="#67C8B5"/><rect x="3764" y="1401" width="173" height="111" fill="#96D459"/><rect x="3945" y="1401" width="173" height="111" fill="#414BB2"/><rect x="3945" y="1283" width="173" height="110" fill="#FAC710"/><rect x="3970" y="866" width="174" height="110" fill="#67C8B5"/><rect x="3970" y="984" width="174" height="110" fill="#96D459"/><rect x="4152" y="984" width="173" height="110" fill="#414BB2"/><rect x="4152" y="865" width="173" height="111" fill="#FAC710"/><g clip-path="url(#clip43)"><g clip-path="url(#clip44)"><g clip-path="url(#clip45)"><path d="M98.9063 109.896C98.9063 119.607 91.034 127.479 81.3229 127.479 71.6119 127.479 63.7396 119.607 63.7396 109.896 63.7396 100.185 71.6119 92.3125 81.3229 92.3125 91.034 92.3125 98.9063 100.185 98.9063 109.896Z" fill="#FFFFFF" transform="matrix(1.00474 0 0 1 3836 1294)"/><path d="M147.26 109.896C147.26 119.607 139.388 127.479 129.677 127.479 119.966 127.479 112.094 119.607 112.094 109.896 112.094 100.185 119.966 92.3125 129.677 92.3125 139.388 92.3125 147.26 100.185 147.26 109.896Z" fill="#FFFFFF" transform="matrix(1.00474 0 0 1 3836 1294)"/><path d="M114.577 140.403C115.864 142.547 115.169 145.328 113.025 146.615 112.325 147.035 111.525 147.258 110.709 147.26L100.291 147.26C97.7904 147.253 95.7696 145.219 95.7773 142.719 95.7797 141.903 96.0028 141.103 96.4226 140.403L101.632 131.743C102.908 129.607 105.674 128.909 107.81 130.185 108.451 130.568 108.986 131.103 109.368 131.743Z" fill="#FFFFFF" transform="matrix(1.00474 0 0 1 3836 1294)"/><path d="M105.5 19.7813C67.9376 19.7813 37.3646 52.75 37.3646 93.4115 37.3646 109.522 41.9802 122.49 52.75 136.359L52.75 147.348C52.5839 157.508 60.2243 166.103 70.3334 167.13L70.3334 184.713C70.3334 188.355 73.2854 191.307 76.9271 191.307L134.073 191.307C137.715 191.307 140.667 188.355 140.667 184.713L140.667 167.042C150.776 166.016 158.416 157.42 158.25 147.26L158.25 136.271C169.02 122.402 173.635 109.434 173.635 93.3236 173.635 52.75 143.062 19.7813 105.5 19.7813ZM146.535 129.919C145.582 131.094 145.062 132.56 145.063 134.073L145.063 147.26C145.148 150.816 142.336 153.768 138.78 153.854 138.677 153.857 138.573 153.857 138.469 153.854L134.073 153.854C130.431 153.854 127.479 156.806 127.479 160.448L127.479 178.031 118.688 178.031 118.688 164.844 109.896 164.844 109.896 178.031 101.104 178.031 101.104 164.844 92.3125 164.844 92.3125 178.031 83.5209 178.031 83.5209 160.448C83.5209 156.806 80.5688 153.854 76.9271 153.854L72.5313 153.854C68.9757 153.94 66.0235 151.127 65.9375 147.572 65.9351 147.468 65.9351 147.364 65.9375 147.26L65.9375 134.073C65.9377 132.56 65.4177 131.094 64.4649 129.919 54.5743 117.72 50.5521 107.148 50.5521 93.4115 50.5521 60.0911 75.1908 32.9688 105.5 32.9688 135.809 32.9688 160.448 60.0911 160.448 93.4115 160.448 107.148 156.426 117.72 146.535 129.919Z" fill="#FFFFFF" transform="matrix(1.00474 0 0 1 3836 1294)"/></g></g></g><rect x="4259" y="1283" width="174" height="111" fill="#67C8B5"/><rect x="4259" y="1401" width="174" height="111" fill="#96D459"/><rect x="4441" y="1401" width="173" height="111" fill="#414BB2"/><rect x="4441" y="1283" width="173" height="110" fill="#FAC710"/><g clip-path="url(#clip46)"><g clip-path="url(#clip47)"><g clip-path="url(#clip48)"><path d="M105.5 21.9792C105.5 21.9792 50.5521 99.3459 50.5521 134.073 50.5521 164.404 75.1688 189.021 105.5 189.021 135.831 189.021 160.448 164.404 160.448 134.073 160.448 99.1261 105.5 21.9792 105.5 21.9792Z" fill="#FFFFFF" transform="matrix(1.00474 0 0 1 4330 1294)"/></g></g></g><g clip-path="url(#clip49)"><g clip-path="url(#clip50)"><g clip-path="url(#clip51)"><path d="M4207 911.837C4196.5 905.897 4183.19 909.349 4176.91 919.64 4164.4 938.784 4178.75 953.092 4182.03 965.312L4165.08 965.312C4157.8 965.312 4151.9 971.217 4151.9 978.5L4151.9 1051.03 4160.69 1051.03 4160.69 978.5C4160.69 976.072 4162.66 974.104 4165.08 974.104L4182.03 974.104C4178.75 986.325 4164.45 1000.63 4176.91 1019.78 4183.19 1030.07 4196.5 1033.52 4207 1027.58 4224.43 1017.27 4235.42 995.094 4235.42 969.708 4235.42 944.322 4224.43 922.145 4207 911.837Z" fill="#FFFFFF"/><path d="M4129.92 965.312 4112.97 965.312C4116.25 953.092 4130.55 938.784 4118.09 919.64 4111.81 909.349 4098.5 905.897 4088 911.837 4070.57 922.145 4059.58 944.322 4059.58 969.708 4059.58 995.094 4070.57 1017.27 4088 1027.58 4098.5 1033.52 4111.81 1030.07 4118.09 1019.78 4130.6 1000.63 4116.25 986.325 4112.97 974.104L4129.92 974.104C4132.34 974.104 4134.31 976.072 4134.31 978.5L4134.31 1051.03 4143.1 1051.03 4143.1 978.5C4143.1 971.217 4137.2 965.312 4129.92 965.312Z" fill="#FFFFFF"/></g></g></g><rect x="-5.00016" y="2260" width="412" height="376" stroke="#000000" stroke-width="13.75" stroke-miterlimit="8" stroke-dasharray="55 41.25" fill="none"/></g></svg>