<svg width="5754" height="3045" xmlns="http://www.w3.org/2000/svg" xmlns:xlink="http://www.w3.org/1999/xlink" xml:space="preserve" overflow="hidden"><defs><clipPath id="clip0"><rect x="-772" y="-256" width="5754" height="3045"/></clipPath><clipPath id="clip1"><rect x="-292" y="830" width="540" height="537"/></clipPath><clipPath id="clip2"><rect x="-292" y="830" width="540" height="537"/></clipPath><clipPath id="clip3"><rect x="-292" y="830" width="540" height="537"/></clipPath><clipPath id="clip4"><rect x="-336" y="1633" width="553" height="537"/></clipPath><clipPath id="clip5"><rect x="-336" y="1633" width="553" height="537"/></clipPath><clipPath id="clip6"><rect x="-336" y="1633" width="553" height="537"/></clipPath><clipPath id="clip7"><rect x="-326" y="-46" width="578" height="558"/></clipPath><clipPath id="clip8"><rect x="-326" y="-46" width="578" height="558"/></clipPath><clipPath id="clip9"><rect x="-326" y="-46" width="578" height="558"/></clipPath><clipPath id="clip10"><rect x="2775" y="-253" width="371" height="346"/></clipPath><clipPath id="clip11"><rect x="2775" y="-253" width="371" height="346"/></clipPath><clipPath id="clip12"><rect x="2775" y="-253" width="371" height="346"/></clipPath><clipPath id="clip13"><rect x="2774" y="720" width="371" height="345"/></clipPath><clipPath id="clip14"><rect x="2774" y="720" width="371" height="345"/></clipPath><clipPath id="clip15"><rect x="2774" y="720" width="371" height="345"/></clipPath><clipPath id="clip16"><rect x="2774" y="234" width="371" height="344"/></clipPath><clipPath id="clip17"><rect x="2774" y="234" width="371" height="344"/></clipPath><clipPath id="clip18"><rect x="2774" y="234" width="371" height="344"/></clipPath><clipPath id="clip19"><rect x="2774" y="1206" width="371" height="345"/></clipPath><clipPath id="clip20"><rect x="2774" y="1206" width="371" height="345"/></clipPath><clipPath id="clip21"><rect x="2774" y="1206" width="371" height="345"/></clipPath><clipPath id="clip22"><rect x="2774" y="1692" width="371" height="347"/></clipPath><clipPath id="clip23"><rect x="2774" y="1692" width="371" height="347"/></clipPath><clipPath id="clip24"><rect x="2774" y="1692" width="371" height="347"/></clipPath><clipPath id="clip25"><rect x="1578" y="380" width="289" height="317"/></clipPath><clipPath id="clip26"><rect x="1578" y="380" width="289" height="317"/></clipPath><clipPath id="clip27"><rect x="1578" y="380" width="289" height="317"/></clipPath><clipPath id="clip28"><rect x="1576" y="1493" width="289" height="317"/></clipPath><clipPath id="clip29"><rect x="1576" y="1493" width="289" height="317"/></clipPath><clipPath id="clip30"><rect x="1576" y="1493" width="289" height="317"/></clipPath><clipPath id="clip31"><rect x="1576" y="937" width="289" height="315"/></clipPath><clipPath id="clip32"><rect x="1576" y="937" width="289" height="315"/></clipPath><clipPath id="clip33"><rect x="1576" y="937" width="289" height="315"/></clipPath><clipPath id="clip34"><rect x="1556" y="-152" width="289" height="315"/></clipPath><clipPath id="clip35"><rect x="1556" y="-152" width="289" height="315"/></clipPath><clipPath id="clip36"><rect x="1556" y="-152" width="289" height="315"/></clipPath></defs><g clip-path="url(#clip0)" transform="translate(772 256)"><text font-family="Arial,Arial_MSFontService,sans-serif" font-weight="700" font-size="128" transform="matrix(1 0 0 1 1474.45 2529)">Datasets &amp; </text><text font-family="Arial,Arial_MSFontService,sans-serif" font-weight="700" font-size="128" transform="matrix(1 0 0 1 1360.73 2683)">Preprocessing</text><text font-family="Arial,Arial_MSFontService,sans-serif" font-weight="700" font-size="128" transform="matrix(1 0 0 1 2584 2529)">Prediction </text><text font-family="Arial,Arial_MSFontService,sans-serif" font-weight="700" font-size="128" transform="matrix(1 0 0 1 2720.26 2683)">Tasks</text><text font-family="Arial,Arial_MSFontService,sans-serif" font-weight="700" font-size="128" transform="matrix(1 0 0 1 4068.86 2529)">Models &amp; </text><text font-family="Arial,Arial_MSFontService,sans-serif" font-weight="700" font-size="128" transform="matrix(1 0 0 1 3825.67 2683)">Hyperparameters</text><text fill="#96D459" font-family="Arial,Arial_MSFontService,sans-serif" font-weight="700" font-size="165" transform="matrix(1 0 0 1 4176.33 1179)">LSTM</text><text fill="#67C8B5" font-family="Arial,Arial_MSFontService,sans-serif" font-weight="700" font-size="165" transform="matrix(1 0 0 1 3919.63 2040)">Transformer</text><text font-family="Arial,Arial_MSFontService,sans-serif" font-weight="700" font-size="165" transform="matrix(1 0 0 1 4217.58 771)">GRU</text><text fill="#414BB2" font-family="Arial,Arial_MSFontService,sans-serif" font-weight="700" font-size="165" transform="matrix(1 0 0 1 4290.92 -46)">LR</text><text fill="#FAC710" font-family="Arial,Arial_MSFontService,sans-serif" font-weight="700" font-size="165" transform="matrix(1 0 0 1 4158 363)">LGBM</text><text font-family="Arial,Arial_MSFontService,sans-serif" font-weight="700" font-size="165" transform="matrix(6.12323e-17 1 -1 6.12323e-17 1717.81 2204)">…</text><text font-family="Arial,Arial_MSFontService,sans-serif" font-weight="700" font-size="165" transform="matrix(6.12323e-17 1 -1 6.12323e-17 2936.1 2240)">…</text><text font-family="Arial,Arial_MSFontService,sans-serif" font-weight="700" font-size="165" transform="matrix(6.12323e-17 1 -1 6.12323e-17 4340.12 2240)">…</text><path d="M12.0981-6.53436 51.3043 66.0544 27.108 79.1231-12.0981 6.53436ZM64.373 90.2507 103.579 162.839 79.3829 175.908 40.1767 103.319ZM116.648 187.036 155.854 259.624 131.658 272.693 92.4516 200.104ZM168.923 283.821 208.129 356.409 183.933 369.478 144.726 296.889ZM221.198 380.606 260.404 453.194 236.207 466.263 197.001 393.674ZM273.472 477.391 312.679 549.979 288.482 563.048 249.276 490.459ZM325.747 574.176 364.953 646.765 340.757 659.833 301.551 587.245ZM378.022 670.961 417.228 743.55 393.032 756.618 353.826 684.03ZM430.297 767.746 469.503 840.335 445.307 853.403 406.101 780.815ZM482.572 864.531 521.778 937.12 497.582 950.188 458.376 877.599ZM534.847 961.316 574.053 1033.9 549.857 1046.97 510.651 974.384ZM587.122 1058.1 626.328 1130.69 602.132 1143.76 562.925 1071.17ZM639.396 1154.89 678.603 1227.47 654.406 1240.54 615.2 1167.95ZM691.671 1251.67 730.877 1324.26 706.681 1337.33 667.475 1264.74ZM743.946 1348.46 783.152 1421.04 758.956 1434.11 719.75 1361.52ZM796.221 1445.24 800.289 1452.77 776.093 1465.84 772.025 1458.31ZM805.074 1364.31 801.162 1483.32 699.487 1421.33C693.003 1417.38 690.951 1408.92 694.904 1402.44 698.857 1395.95 707.318 1393.9 713.802 1397.85L795.352 1447.57 774.451 1458.86 777.589 1363.4C777.838 1355.81 784.193 1349.86 791.783 1350.11 799.373 1350.36 805.323 1356.72 805.074 1364.31Z" transform="matrix(1 0 0 -1 1881 1639.27)"/><path d="M4112.69 1091.32 4054.81 1032.54 4074.4 1013.24 4132.28 1072.03ZM4035.51 1012.94 3977.63 954.156 3997.22 934.862 4055.11 993.647ZM3958.33 934.561 3900.45 875.776 3920.04 856.482 3977.93 915.267ZM3881.15 856.181 3823.27 797.396 3842.86 778.101 3900.75 836.886ZM3803.97 777.801 3746.09 719.016 3765.69 699.721 3823.57 758.506ZM3726.8 699.421 3668.91 640.636 3688.51 621.341 3746.39 680.126ZM3649.62 621.041 3591.73 562.256 3611.33 542.961 3669.21 601.746ZM3572.44 542.661 3514.55 483.876 3534.15 464.581 3592.03 523.366ZM3495.26 464.281 3437.38 405.496 3456.97 386.201 3514.85 444.986ZM3418.08 385.901 3360.2 327.116 3379.79 307.821 3437.68 366.606ZM3340.9 307.521 3283.02 248.736 3302.61 229.441 3360.5 288.226ZM3263.72 229.141 3205.84 170.356 3225.43 151.061 3283.32 209.846ZM4112.22 985.728 4141.64 1101.12 4026.71 1069.93C4019.38 1067.94 4015.05 1060.38 4017.04 1053.05 4019.03 1045.73 4026.59 1041.4 4033.92 1043.39L4126.09 1068.41 4109.16 1085.07 4085.57 992.521C4083.7 985.162 4088.14 977.677 4095.5 975.801 4102.86 973.925 4110.34 978.369 4112.22 985.728Z"/><path d="M1283 2577C1106.54 2577 963.5 2440.72 963.5 2272.61L963.5 1504.39C963.5 1336.28 820.455 1200 644 1200 820.455 1200 963.5 1063.72 963.5 895.614L963.5 127.386C963.5-40.7219 1106.54-177 1283-177" stroke="#000000" stroke-width="45.8333" stroke-miterlimit="8" fill="none" fill-rule="evenodd"/><rect x="-740" y="-94.9998" width="1278" height="2589" fill="#F2F2F2"/><g clip-path="url(#clip1)"><g clip-path="url(#clip2)"><g clip-path="url(#clip3)"><path d="M128.177 456.979 128.177 78.0209 267.5 78.0209 267.5 195.052 406.823 195.052 406.823 456.979 128.177 456.979ZM300.938 91.9532 370.599 161.615 300.938 161.615 300.938 91.9532ZM300.938 44.5834 94.7396 44.5834 94.7396 490.417 440.261 490.417 440.261 167.188 300.938 44.5834Z" transform="matrix(1.00934 0 0 1 -292 831)"/><path d="M161.615 250.781 373.386 250.781 373.386 273.073 161.615 273.073Z" transform="matrix(1.00934 0 0 1 -292 831)"/><path d="M161.615 206.198 234.063 206.198 234.063 228.49 161.615 228.49Z" transform="matrix(1.00934 0 0 1 -292 831)"/><path d="M161.615 295.365 373.386 295.365 373.386 317.656 161.615 317.656Z" transform="matrix(1.00934 0 0 1 -292 831)"/><path d="M161.615 339.948 373.386 339.948 373.386 362.24 161.615 362.24Z" transform="matrix(1.00934 0 0 1 -292 831)"/><path d="M161.615 384.531 373.386 384.531 373.386 406.823 161.615 406.823Z" transform="matrix(1.00934 0 0 1 -292 831)"/></g></g></g><text font-family="Arial,Arial_MSFontService,sans-serif" font-weight="400" font-size="128" transform="matrix(1 0 0 1 -161.098 1469)">Task</text><text font-family="Arial,Arial_MSFontService,sans-serif" font-weight="400" font-size="128" transform="matrix(1 0 0 1 -290.004 1623)">Definition</text><text font-family="Arial,Arial_MSFontService,sans-serif" font-weight="400" font-size="128" transform="matrix(1 0 0 1 -545.126 2233)">Model Settings &amp; </text><text font-family="Arial,Arial_MSFontService,sans-serif" font-weight="400" font-size="128" transform="matrix(1 0 0 1 -556.584 2387)">Hyperparameters </text><g clip-path="url(#clip4)"><g clip-path="url(#clip5)"><g clip-path="url(#clip6)"><path d="M78.0209 222.917 156.042 222.917 156.042 300.938 78.0209 300.938Z" transform="matrix(-1.03364 1.26585e-16 -1.22465e-16 -1 217 2169)"/><path d="M378.958 222.917 456.979 222.917 456.979 300.938 378.958 300.938Z" transform="matrix(-1.03364 1.26585e-16 -1.22465e-16 -1 217 2169)"/><path d="M78.0209 72.4479 156.042 72.4479 156.042 150.469 78.0209 150.469Z" transform="matrix(-1.03364 1.26585e-16 -1.22465e-16 -1 217 2169)"/><path d="M78.0209 373.386 156.042 373.386 156.042 451.406 78.0209 451.406Z" transform="matrix(-1.03364 1.26585e-16 -1.22465e-16 -1 217 2169)"/><path d="M278.646 100.313 178.333 100.313 178.333 122.604 256.354 122.604 256.354 250.781 178.333 250.781 178.333 273.073 256.354 273.073 256.354 401.25 178.333 401.25 178.333 423.542 278.646 423.542 278.646 273.073 356.667 273.073 356.667 250.781 278.646 250.781 278.646 100.313Z" transform="matrix(-1.03364 1.26585e-16 -1.22465e-16 -1 217 2169)"/></g></g></g><text font-family="Arial,Arial_MSFontService,sans-serif" font-weight="400" font-size="128" transform="matrix(1 0 0 1 -440.612 587)">Pre</text><text font-family="Arial,Arial_MSFontService,sans-serif" font-weight="400" font-size="128" transform="matrix(1 0 0 1 -240.665 587)">-</text><text font-family="Arial,Arial_MSFontService,sans-serif" font-weight="400" font-size="128" transform="matrix(1 0 0 1 -197.696 587)">processor</text><text font-family="Arial,Arial_MSFontService,sans-serif" font-weight="400" font-size="128" transform="matrix(1 0 0 1 -419.414 741)">Configuration</text><g clip-path="url(#clip7)"><g clip-path="url(#clip8)"><g clip-path="url(#clip9)"><path d="M344.064 216.418C319.695 216.418 300.548 196.691 300.548 172.902 300.548 149.114 320.275 129.387 344.064 129.387 368.432 129.387 387.579 149.114 387.579 172.902 387.579 196.691 367.852 216.418 344.064 216.418ZM442.119 145.632C439.798 137.509 436.897 129.967 432.836 123.004L442.119 95.7344 421.231 74.8469 393.962 84.1302C386.999 80.0688 379.456 77.1677 371.333 74.8469L358.569 49.3177 329.558 49.3177 316.794 74.8469C308.671 77.1677 301.128 80.0688 294.166 84.1302L266.896 74.8469 246.008 95.7344 255.292 123.004C251.23 129.967 248.329 137.509 246.008 145.632L220.479 158.397 220.479 187.407 246.008 200.172C248.329 208.295 251.23 215.838 255.292 222.8L246.008 250.07 266.316 270.377 293.586 261.094C300.548 265.155 308.091 268.056 316.214 270.377L328.978 295.906 357.989 295.906 370.753 270.377C378.876 268.056 386.419 265.155 393.381 261.094L420.651 270.377 441.539 250.07 432.255 222.8C436.317 215.838 439.798 207.715 442.119 200.172L467.648 187.407 467.648 158.397 442.119 145.632Z" transform="matrix(6.12323e-17 1 -1.03591 6.34309e-17 252 -45.9999)"/><path d="M212.937 427.614C188.568 427.614 169.421 407.887 169.421 384.098 169.421 359.729 189.148 340.582 212.937 340.582 237.305 340.582 256.452 360.31 256.452 384.098 256.452 407.887 237.305 427.614 212.937 427.614L212.937 427.614ZM301.708 334.2 310.992 306.93 290.104 286.043 262.834 295.326C255.872 291.265 247.749 288.364 240.206 286.043L227.442 260.514 198.431 260.514 185.667 286.043C177.544 288.364 170.001 291.265 163.039 295.326L135.769 286.043 115.462 306.35 124.165 333.62C120.103 340.582 117.202 348.705 114.881 356.248L89.3521 369.013 89.3521 398.023 114.881 410.788C117.202 418.911 120.103 426.453 124.165 433.416L115.462 460.686 135.769 480.993 163.039 472.29C170.001 476.351 177.544 479.252 185.667 481.573L198.431 507.102 227.442 507.102 240.206 481.573C248.329 479.252 255.872 476.351 262.834 472.29L290.104 481.573 310.412 460.686 301.708 433.996C305.77 427.034 308.671 419.491 310.992 411.368L336.521 398.603 336.521 369.593 310.992 356.828C308.671 348.705 305.77 341.163 301.708 334.2Z" transform="matrix(6.12323e-17 1 -1.03591 6.34309e-17 252 -45.9999)"/></g></g></g><text font-family="Arial,Arial_MSFontService,sans-serif" font-weight="700" font-size="183" transform="matrix(-1.83697e-16 -1 1 -1.83697e-16 -538.582 1800)">Configuration</text><text font-family="Arial,Arial_MSFontService,sans-serif" font-weight="700" font-size="110" transform="matrix(1 0 0 1 2779.39 1178)">Sepsis</text><text font-family="Arial,Arial_MSFontService,sans-serif" font-weight="700" font-size="110" transform="matrix(1 0 0 1 2864.64 697)">AKI</text><text font-family="Arial,Arial_MSFontService,sans-serif" font-weight="700" font-size="110" transform="matrix(1 0 0 1 2715.35 197)">Mortality</text><text font-family="Arial,Arial_MSFontService,sans-serif" font-weight="700" font-size="110" transform="matrix(1 0 0 1 2855.76 1655)">LoS</text><text font-family="Arial,Arial_MSFontService,sans-serif" font-weight="700" font-size="110" transform="matrix(1 0 0 1 2886.12 2154)">KF</text><rect x="2729" y="-251" width="225" height="158" fill="#67C8B5"/><rect x="2729" y="-82.0002" width="225" height="159" fill="#96D459"/><rect x="2965" y="-82.0002" width="224" height="159" fill="#414BB2"/><rect x="2965" y="-252" width="225" height="159" fill="#FAC710"/><g clip-path="url(#clip10)"><g clip-path="url(#clip11)"><g clip-path="url(#clip12)"><path d="M161.719 179.688C161.719 195.566 148.847 208.438 132.969 208.438 117.091 208.438 104.219 195.566 104.219 179.688 104.219 163.809 117.091 150.938 132.969 150.938 148.847 150.938 161.719 163.809 161.719 179.688Z" fill="#FFFFFF" transform="matrix(1.07536 0 0 1 2775 -253)"/><path d="M240.781 179.688C240.781 195.566 227.91 208.438 212.031 208.438 196.153 208.438 183.281 195.566 183.281 179.688 183.281 163.809 196.153 150.938 212.031 150.938 227.91 150.938 240.781 163.809 240.781 179.688Z" fill="#FFFFFF" transform="matrix(1.07536 0 0 1 2775 -253)"/><path d="M187.342 229.569C189.446 233.075 188.31 237.622 184.804 239.726 183.66 240.413 182.352 240.777 181.017 240.781L163.983 240.781C159.894 240.769 156.59 237.444 156.603 233.356 156.607 232.021 156.971 230.713 157.658 229.569L166.175 215.409C168.261 211.916 172.784 210.776 176.277 212.862 177.325 213.487 178.2 214.363 178.825 215.409Z" fill="#FFFFFF" transform="matrix(1.07536 0 0 1 2775 -253)"/><path d="M172.5 32.3438C111.083 32.3438 61.0938 86.25 61.0938 152.734 61.0938 179.077 68.6407 200.28 86.25 222.956L86.25 240.925C85.9783 257.537 98.4709 271.591 115 273.269L115 302.019C115 307.973 119.827 312.8 125.781 312.8L219.219 312.8C225.173 312.8 230 307.973 230 302.019L230 273.125C246.529 271.447 259.022 257.393 258.75 240.781L258.75 222.813C276.359 200.136 283.906 178.933 283.906 152.591 283.906 86.25 233.917 32.3438 172.5 32.3438ZM239.595 212.427C238.038 214.348 237.187 216.746 237.188 219.219L237.188 240.781C237.328 246.595 232.729 251.422 226.916 251.563 226.746 251.567 226.576 251.567 226.406 251.563L219.219 251.563C213.264 251.563 208.438 256.389 208.438 262.344L208.438 291.094 194.063 291.094 194.063 269.531 179.688 269.531 179.688 291.094 165.313 291.094 165.313 269.531 150.938 269.531 150.938 291.094 136.563 291.094 136.563 262.344C136.563 256.389 131.736 251.563 125.781 251.563L118.594 251.563C112.78 251.703 107.953 247.104 107.813 241.291 107.809 241.121 107.809 240.951 107.813 240.781L107.813 219.219C107.813 216.746 106.963 214.348 105.405 212.427 89.2328 192.481 82.6563 175.195 82.6563 152.734 82.6563 98.2532 122.942 53.9063 172.5 53.9063 222.058 53.9063 262.344 98.2532 262.344 152.734 262.344 175.195 255.767 192.481 239.595 212.427Z" fill="#FFFFFF" transform="matrix(1.07536 0 0 1 2775 -253)"/></g></g></g><rect x="2729" y="729" width="225" height="158" fill="#67C8B5"/><rect x="2729" y="898" width="225" height="159" fill="#96D459"/><rect x="2965" y="898" width="224" height="159" fill="#414BB2"/><rect x="2965" y="728" width="225" height="159" fill="#FAC710"/><g clip-path="url(#clip13)"><g clip-path="url(#clip14)"><g clip-path="url(#clip15)"><path d="M172.5 35.9375C172.5 35.9375 82.6562 162.437 82.6562 219.219 82.6562 268.812 122.906 309.062 172.5 309.062 222.094 309.062 262.344 268.812 262.344 219.219 262.344 162.078 172.5 35.9375 172.5 35.9375Z" fill="#FFFFFF" transform="matrix(1.07536 0 0 1 2774 720)"/></g></g></g><rect x="2729" y="242" width="225" height="159" fill="#67C8B5"/><rect x="2729" y="412" width="225" height="159" fill="#96D459"/><rect x="2965" y="412" width="224" height="158" fill="#414BB2"/><rect x="2965" y="242" width="225" height="159" fill="#FAC710"/><g clip-path="url(#clip16)"><g clip-path="url(#clip17)"><g clip-path="url(#clip18)"><path d="M269.001 63.3175C251.894 53.6331 230.19 59.2611 219.945 76.0383 199.556 107.249 222.955 130.577 228.294 150.5L200.667 150.5C188.792 150.5 179.167 160.126 179.167 172L179.167 290.25 193.5 290.25 193.5 172C193.5 168.042 196.708 164.833 200.667 164.833L228.294 164.833C222.955 184.757 199.627 208.084 219.945 239.295 230.19 256.072 251.894 261.7 269.001 252.016 297.416 235.21 315.333 199.054 315.333 157.667 315.333 116.279 297.416 80.1233 269.001 63.3175Z" fill="#FFFFFF" transform="matrix(1.07849 0 0 1 2774 234)"/><path d="M143.333 150.5 115.706 150.5C121.045 130.577 144.372 107.249 124.055 76.0383 113.81 59.2611 92.1056 53.6331 74.9991 63.3175 46.5833 80.1233 28.6666 116.279 28.6666 157.667 28.6666 199.054 46.5833 235.21 74.9991 252.016 92.1056 261.7 113.81 256.072 124.055 239.295 144.444 208.084 121.045 184.757 115.706 164.833L143.333 164.833C147.291 164.833 150.5 168.042 150.5 172L150.5 290.25 164.833 290.25 164.833 172C164.833 160.126 155.207 150.5 143.333 150.5Z" fill="#FFFFFF" transform="matrix(1.07849 0 0 1 2774 234)"/></g></g></g><rect x="2729" y="1215" width="225" height="159" fill="#67C8B5"/><rect x="2729" y="1385" width="225" height="159" fill="#96D459"/><rect x="2965" y="1385" width="224" height="158" fill="#414BB2"/><rect x="2965" y="1215" width="225" height="159" fill="#FAC710"/><g clip-path="url(#clip19)"><g clip-path="url(#clip20)"><g clip-path="url(#clip21)"><path d="M262.551 50.1452 272.226 50.1452 272.226 28.6667 71.6667 28.6667 71.6667 50.1667 80.9834 50.1667C84.925 89.9166 107.858 147.938 141.148 171.932 107.833 195.904 84.5667 253.922 80.9834 293.676L71.6667 293.676 71.6667 315.176 272.219 315.176 272.219 293.676 262.544 293.676C258.96 253.922 235.669 195.904 202.376 171.91 235.69 147.916 258.968 89.8951 262.551 50.1452ZM240.947 50.1452C236.949 81.0876 225.504 110.599 207.593 136.145L136.041 136.145C118.276 110.513 106.817 81.0457 102.598 50.1452ZM153.725 189.354C155.313 188.197 156.734 186.827 157.95 185.283L164.833 194.657 164.833 215 106.178 273.652C114.032 241.352 132.121 204.906 153.725 189.354ZM237.217 273.05 179.167 215 179.167 194.399 185.746 185.488C186.93 186.948 188.3 188.248 189.82 189.354 211.266 204.809 229.276 240.897 237.217 273.05Z" fill="#FFFFFF" transform="matrix(1.07849 0 0 1 2774 1207)"/></g></g></g><rect x="2729" y="1702" width="225" height="158" fill="#67C8B5"/><rect x="2729" y="1871" width="225" height="159" fill="#96D459"/><rect x="2965" y="1871" width="224" height="159" fill="#414BB2"/><rect x="2965" y="1701" width="225" height="159" fill="#FAC710"/><g clip-path="url(#clip22)"><g clip-path="url(#clip23)"><g clip-path="url(#clip24)"><path d="M254.031 176.094 283.08 125.781 247.807 64.6875 189.506 64.6875 167.72 26.9531 149.051 37.7344 170.937 75.6449 148.217 115 104.513 115 82.7318 77.2657 64.0442 88.0469 85.348 124.948 55.8325 176.094 91.1052 237.188 148.217 237.188 177.262 287.5 236.893 287.5 256.594 321.641 275.281 310.859 254.797 275.393 283.08 226.406ZM258.182 125.781 235.355 165.313 190.699 165.313 167.383 124.926 189.714 86.25 235.355 86.25ZM80.73 176.094 103.554 136.563 148.217 136.563 171.037 176.094 148.217 215.625 103.554 215.625ZM167.383 227.262 190.699 186.875 235.355 186.875 258.182 226.406 235.355 265.938 189.714 265.938Z" fill="#FFFFFF" transform="matrix(1.07536 0 0 1 2774 1693)"/></g></g></g><g clip-path="url(#clip25)"><g clip-path="url(#clip26)"><g clip-path="url(#clip27)"><path d="M228 54C228 67.2549 190.392 78 144 78 97.6081 78 60 67.2549 60 54 60 40.7452 97.6081 30 144 30 190.392 30 228 40.7452 228 54Z" fill="#96D459" transform="matrix(1 0 0 1.09375 1579 381)"/><path d="M204 114C200.4 114 198 111.6 198 108 198 104.4 200.4 102 204 102 207.6 102 210 104.4 210 108 210 111.6 207.6 114 204 114ZM144 90C97.8 90 60 79.2 60 66L60 114C60 127.2 97.8 138 144 138 190.2 138 228 127.2 228 114L228 66C228 79.2 190.2 90 144 90Z" fill="#96D459" transform="matrix(1 0 0 1.09375 1579 381)"/><path d="M204 174C200.4 174 198 171.6 198 168 198 164.4 200.4 162 204 162 207.6 162 210 164.4 210 168 210 171.6 207.6 174 204 174ZM144 150C97.8 150 60 139.2 60 126L60 174C60 187.2 97.8 198 144 198 190.2 198 228 187.2 228 174L228 126C228 139.2 190.2 150 144 150Z" fill="#96D459" transform="matrix(1 0 0 1.09375 1579 381)"/><path d="M204 234C200.4 234 198 231.6 198 228 198 224.4 200.4 222 204 222 207.6 222 210 224.4 210 228 210 231.6 207.6 234 204 234ZM144 210C97.8 210 60 199.2 60 186L60 234C60 247.2 97.8 258 144 258 190.2 258 228 247.2 228 234L228 186C228 199.2 190.2 210 144 210Z" fill="#96D459" transform="matrix(1 0 0 1.09375 1579 381)"/></g></g></g><text fill="#281B10" font-family="Arial,Arial_MSFontService,sans-serif" font-weight="700" font-size="110" transform="matrix(1 0 0 1 1488.04 805)">AUMCdb</text><g clip-path="url(#clip28)"><g clip-path="url(#clip29)"><g clip-path="url(#clip30)"><path d="M228 54C228 67.2549 190.392 78 144 78 97.6081 78 60 67.2549 60 54 60 40.7452 97.6081 30 144 30 190.392 30 228 40.7452 228 54Z" fill="#414BB2" transform="matrix(1 0 0 1.09375 1576 1494)"/><path d="M204 114C200.4 114 198 111.6 198 108 198 104.4 200.4 102 204 102 207.6 102 210 104.4 210 108 210 111.6 207.6 114 204 114ZM144 90C97.8 90 60 79.2 60 66L60 114C60 127.2 97.8 138 144 138 190.2 138 228 127.2 228 114L228 66C228 79.2 190.2 90 144 90Z" fill="#414BB2" transform="matrix(1 0 0 1.09375 1576 1494)"/><path d="M204 174C200.4 174 198 171.6 198 168 198 164.4 200.4 162 204 162 207.6 162 210 164.4 210 168 210 171.6 207.6 174 204 174ZM144 150C97.8 150 60 139.2 60 126L60 174C60 187.2 97.8 198 144 198 190.2 198 228 187.2 228 174L228 126C228 139.2 190.2 150 144 150Z" fill="#414BB2" transform="matrix(1 0 0 1.09375 1576 1494)"/><path d="M204 234C200.4 234 198 231.6 198 228 198 224.4 200.4 222 204 222 207.6 222 210 224.4 210 228 210 231.6 207.6 234 204 234ZM144 210C97.8 210 60 199.2 60 186L60 234C60 247.2 97.8 258 144 258 190.2 258 228 247.2 228 234L228 186C228 199.2 190.2 210 144 210Z" fill="#414BB2" transform="matrix(1 0 0 1.09375 1576 1494)"/></g></g></g><text fill="#281B10" font-family="Arial,Arial_MSFontService,sans-serif" font-weight="700" font-size="110" transform="matrix(1 0 0 1 1427.6 1909)">MIMIC</text><text fill="#281B10" font-family="Arial,Arial_MSFontService,sans-serif" font-weight="700" font-size="110" transform="matrix(1 0 0 1 1751.3 1909)">-</text><text fill="#281B10" font-family="Arial,Arial_MSFontService,sans-serif" font-weight="700" font-size="110" transform="matrix(1 0 0 1 1787.96 1909)">III/IV</text><g clip-path="url(#clip31)"><g clip-path="url(#clip32)"><g clip-path="url(#clip33)"><path d="M228 54C228 67.2549 190.392 78 144 78 97.6081 78 60 67.2549 60 54 60 40.7452 97.6081 30 144 30 190.392 30 228 40.7452 228 54Z" fill="#67C8B5" transform="matrix(1 0 0 1.09375 1576 937)"/><path d="M204 114C200.4 114 198 111.6 198 108 198 104.4 200.4 102 204 102 207.6 102 210 104.4 210 108 210 111.6 207.6 114 204 114ZM144 90C97.8 90 60 79.2 60 66L60 114C60 127.2 97.8 138 144 138 190.2 138 228 127.2 228 114L228 66C228 79.2 190.2 90 144 90Z" fill="#67C8B5" transform="matrix(1 0 0 1.09375 1576 937)"/><path d="M204 174C200.4 174 198 171.6 198 168 198 164.4 200.4 162 204 162 207.6 162 210 164.4 210 168 210 171.6 207.6 174 204 174ZM144 150C97.8 150 60 139.2 60 126L60 174C60 187.2 97.8 198 144 198 190.2 198 228 187.2 228 174L228 126C228 139.2 190.2 150 144 150Z" fill="#67C8B5" transform="matrix(1 0 0 1.09375 1576 937)"/><path d="M204 234C200.4 234 198 231.6 198 228 198 224.4 200.4 222 204 222 207.6 222 210 224.4 210 228 210 231.6 207.6 234 204 234ZM144 210C97.8 210 60 199.2 60 186L60 234C60 247.2 97.8 258 144 258 190.2 258 228 247.2 228 234L228 186C228 199.2 190.2 210 144 210Z" fill="#67C8B5" transform="matrix(1 0 0 1.09375 1576 937)"/></g></g></g><text fill="#281B10" font-family="Arial,Arial_MSFontService,sans-serif" font-weight="700" font-size="110" transform="matrix(1 0 0 1 1594.89 1362)">eICU</text><g clip-path="url(#clip34)"><g clip-path="url(#clip35)"><g clip-path="url(#clip36)"><path d="M228 54C228 67.2549 190.392 78 144 78 97.6081 78 60 67.2549 60 54 60 40.7452 97.6081 30 144 30 190.392 30 228 40.7452 228 54Z" fill="#FAC710" transform="matrix(1 0 0 1.09375 1557 -152)"/><path d="M204 114C200.4 114 198 111.6 198 108 198 104.4 200.4 102 204 102 207.6 102 210 104.4 210 108 210 111.6 207.6 114 204 114ZM144 90C97.8 90 60 79.2 60 66L60 114C60 127.2 97.8 138 144 138 190.2 138 228 127.2 228 114L228 66C228 79.2 190.2 90 144 90Z" fill="#FAC710" transform="matrix(1 0 0 1.09375 1557 -152)"/><path d="M204 174C200.4 174 198 171.6 198 168 198 164.4 200.4 162 204 162 207.6 162 210 164.4 210 168 210 171.6 207.6 174 204 174ZM144 150C97.8 150 60 139.2 60 126L60 174C60 187.2 97.8 198 144 198 190.2 198 228 187.2 228 174L228 126C228 139.2 190.2 150 144 150Z" fill="#FAC710" transform="matrix(1 0 0 1.09375 1557 -152)"/><path d="M204 234C200.4 234 198 231.6 198 228 198 224.4 200.4 222 204 222 207.6 222 210 224.4 210 228 210 231.6 207.6 234 204 234ZM144 210C97.8 210 60 199.2 60 186L60 234C60 247.2 97.8 258 144 258 190.2 258 228 247.2 228 234L228 186C228 199.2 190.2 210 144 210Z" fill="#FAC710" transform="matrix(1 0 0 1.09375 1557 -152)"/></g></g></g><text font-family="Arial,Arial_MSFontService,sans-serif" font-weight="700" font-size="110" transform="matrix(1 0 0 1 1570.54 249)">HiRID</text><text fill="#FF0000" font-family="Arial,Arial_MSFontService,sans-serif" font-weight="700" font-size="165" transform="matrix(1 0 0 1 4231.33 1610)">TCN</text></g></svg>