<svg width="5096" height="4159" xmlns="http://www.w3.org/2000/svg" xmlns:xlink="http://www.w3.org/1999/xlink" xml:space="preserve" overflow="hidden"><defs><clipPath id="clip0"><rect x="-653" y="-814" width="5096" height="4159"/></clipPath><clipPath id="clip1"><rect x="1581" y="151" width="203" height="203"/></clipPath><clipPath id="clip2"><rect x="1581" y="151" width="203" height="203"/></clipPath><clipPath id="clip3"><rect x="1581" y="151" width="203" height="203"/></clipPath><clipPath id="clip4"><rect x="1598" y="1508" width="201" height="203"/></clipPath><clipPath id="clip5"><rect x="1598" y="1508" width="201" height="203"/></clipPath><clipPath id="clip6"><rect x="1598" y="1508" width="201" height="203"/></clipPath><clipPath id="clip7"><rect x="1596" y="1083" width="203" height="202"/></clipPath><clipPath id="clip8"><rect x="1596" y="1083" width="203" height="202"/></clipPath><clipPath id="clip9"><rect x="1596" y="1083" width="203" height="202"/></clipPath><clipPath id="clip10"><rect x="1589" y="622" width="201" height="203"/></clipPath><clipPath id="clip11"><rect x="1589" y="622" width="201" height="203"/></clipPath><clipPath id="clip12"><rect x="1589" y="622" width="201" height="203"/></clipPath><clipPath id="clip13"><rect x="194" y="810" width="521" height="521"/></clipPath><clipPath id="clip14"><rect x="194" y="810" width="521" height="521"/></clipPath><clipPath id="clip15"><rect x="194" y="810" width="521" height="521"/></clipPath><clipPath id="clip16"><rect x="2432" y="91" width="227" height="223"/></clipPath><clipPath id="clip17"><rect x="2432" y="91" width="227" height="223"/></clipPath><clipPath id="clip18"><rect x="2432" y="91" width="227" height="223"/></clipPath><clipPath id="clip19"><rect x="2420" y="500" width="250" height="252"/></clipPath><clipPath id="clip20"><rect x="2420" y="500" width="250" height="252"/></clipPath><clipPath id="clip21"><rect x="2420" y="500" width="250" height="252"/></clipPath><clipPath id="clip22"><rect x="2442" y="938" width="234" height="234"/></clipPath><clipPath id="clip23"><rect x="2442" y="938" width="234" height="234"/></clipPath><clipPath id="clip24"><rect x="2442" y="938" width="234" height="234"/></clipPath><clipPath id="clip25"><rect x="2423" y="1493" width="252" height="251"/></clipPath><clipPath id="clip26"><rect x="2423" y="1493" width="252" height="251"/></clipPath><clipPath id="clip27"><rect x="2423" y="1493" width="252" height="251"/></clipPath></defs><g clip-path="url(#clip0)" transform="translate(653 814)"><g clip-path="url(#clip1)"><g clip-path="url(#clip2)"><g clip-path="url(#clip3)"><path d="M1741.12 189.687C1741.12 198.938 1714.88 206.437 1682.5 206.437 1650.12 206.437 1623.87 198.938 1623.87 189.687 1623.87 180.437 1650.12 172.937 1682.5 172.937 1714.88 172.937 1741.12 180.437 1741.12 189.687Z" fill="#96D459"/><path d="M1724.38 231.562C1721.86 231.562 1720.19 229.887 1720.19 227.375 1720.19 224.862 1721.86 223.187 1724.38 223.187 1726.89 223.187 1728.56 224.862 1728.56 227.375 1728.56 229.887 1726.89 231.562 1724.38 231.562ZM1682.5 214.812C1650.26 214.812 1623.87 207.275 1623.87 198.062L1623.87 231.562C1623.87 240.775 1650.26 248.312 1682.5 248.312 1714.74 248.312 1741.12 240.775 1741.12 231.562L1741.12 198.062C1741.12 207.275 1714.74 214.812 1682.5 214.812Z" fill="#96D459"/><path d="M1724.38 273.438C1721.86 273.438 1720.19 271.763 1720.19 269.25 1720.19 266.737 1721.86 265.062 1724.38 265.062 1726.89 265.062 1728.56 266.737 1728.56 269.25 1728.56 271.763 1726.89 273.438 1724.38 273.438ZM1682.5 256.688C1650.26 256.688 1623.87 249.15 1623.87 239.937L1623.87 273.438C1623.87 282.65 1650.26 290.188 1682.5 290.188 1714.74 290.188 1741.12 282.65 1741.12 273.438L1741.12 239.937C1741.12 249.15 1714.74 256.688 1682.5 256.688Z" fill="#96D459"/><path d="M1724.38 315.312C1721.86 315.312 1720.19 313.638 1720.19 311.125 1720.19 308.613 1721.86 306.938 1724.38 306.938 1726.89 306.938 1728.56 308.613 1728.56 311.125 1728.56 313.638 1726.89 315.312 1724.38 315.312ZM1682.5 298.562C1650.26 298.562 1623.87 291.025 1623.87 281.812L1623.87 315.312C1623.87 324.525 1650.26 332.062 1682.5 332.062 1714.74 332.062 1741.12 324.525 1741.12 315.312L1741.12 281.812C1741.12 291.025 1714.74 298.562 1682.5 298.562Z" fill="#96D459"/></g></g></g><text fill="#96D459" font-family="Times New Roman,Times New Roman_MSFontService,sans-serif" font-weight="400" font-size="110" transform="matrix(1 0 0 1 1533.73 459)">AUMC</text><g clip-path="url(#clip4)"><g clip-path="url(#clip5)"><g clip-path="url(#clip6)"><path d="M159.125 37.6875C159.125 46.9382 132.878 54.4374 100.5 54.4374 68.1222 54.4374 41.8749 46.9382 41.8749 37.6875 41.8749 28.4367 68.1222 20.9375 100.5 20.9375 132.878 20.9375 159.125 28.4367 159.125 37.6875Z" fill="#414BB2" transform="matrix(1 0 0 1.00498 1598 1508)"/><path d="M142.375 79.5624C139.862 79.5624 138.187 77.8874 138.187 75.3749 138.187 72.8624 139.862 71.1874 142.375 71.1874 144.887 71.1874 146.562 72.8624 146.562 75.3749 146.562 77.8874 144.887 79.5624 142.375 79.5624ZM100.5 62.8124C68.2562 62.8124 41.8749 55.2749 41.8749 46.0624L41.8749 79.5624C41.8749 88.7749 68.2562 96.3124 100.5 96.3124 132.744 96.3124 159.125 88.7749 159.125 79.5624L159.125 46.0624C159.125 55.2749 132.744 62.8124 100.5 62.8124Z" fill="#414BB2" transform="matrix(1 0 0 1.00498 1598 1508)"/><path d="M142.375 121.437C139.862 121.437 138.187 119.762 138.187 117.25 138.187 114.737 139.862 113.062 142.375 113.062 144.887 113.062 146.562 114.737 146.562 117.25 146.562 119.762 144.887 121.437 142.375 121.437ZM100.5 104.687C68.2562 104.687 41.8749 97.1499 41.8749 87.9374L41.8749 121.437C41.8749 130.65 68.2562 138.187 100.5 138.187 132.744 138.187 159.125 130.65 159.125 121.437L159.125 87.9374C159.125 97.1499 132.744 104.687 100.5 104.687Z" fill="#414BB2" transform="matrix(1 0 0 1.00498 1598 1508)"/><path d="M142.375 163.312C139.862 163.312 138.187 161.637 138.187 159.125 138.187 156.612 139.862 154.937 142.375 154.937 144.887 154.937 146.562 156.612 146.562 159.125 146.562 161.637 144.887 163.312 142.375 163.312ZM100.5 146.562C68.2562 146.562 41.8749 139.025 41.8749 129.812L41.8749 163.312C41.8749 172.525 68.2562 180.062 100.5 180.062 132.744 180.062 159.125 172.525 159.125 163.312L159.125 129.812C159.125 139.025 132.744 146.562 100.5 146.562Z" fill="#414BB2" transform="matrix(1 0 0 1.00498 1598 1508)"/></g></g></g><text fill="#414BB2" font-family="Times New Roman,Times New Roman_MSFontService,sans-serif" font-weight="400" font-size="110" transform="matrix(1 0 0 1 1381.2 1814)">MIMIC</text><text fill="#414BB2" font-family="Times New Roman,Times New Roman_MSFontService,sans-serif" font-weight="400" font-size="110" transform="matrix(1 0 0 1 1723.8 1814)">-</text><text fill="#414BB2" font-family="Times New Roman,Times New Roman_MSFontService,sans-serif" font-weight="400" font-size="110" transform="matrix(1 0 0 1 1760.47 1814)">III/IV</text><g clip-path="url(#clip7)"><g clip-path="url(#clip8)"><g clip-path="url(#clip9)"><path d="M159.125 37.6875C159.125 46.9383 132.878 54.4375 100.5 54.4375 68.1223 54.4375 41.875 46.9383 41.875 37.6875 41.875 28.4367 68.1223 20.9375 100.5 20.9375 132.878 20.9375 159.125 28.4367 159.125 37.6875Z" fill="#67C8B5" transform="matrix(1.00498 0 0 1 1596 1084)"/><path d="M142.375 79.5625C139.863 79.5625 138.188 77.8875 138.188 75.375 138.188 72.8625 139.863 71.1875 142.375 71.1875 144.888 71.1875 146.563 72.8625 146.563 75.375 146.563 77.8875 144.888 79.5625 142.375 79.5625ZM100.5 62.8125C68.2563 62.8125 41.875 55.275 41.875 46.0625L41.875 79.5625C41.875 88.775 68.2563 96.3125 100.5 96.3125 132.744 96.3125 159.125 88.775 159.125 79.5625L159.125 46.0625C159.125 55.275 132.744 62.8125 100.5 62.8125Z" fill="#67C8B5" transform="matrix(1.00498 0 0 1 1596 1084)"/><path d="M142.375 121.438C139.863 121.438 138.188 119.763 138.188 117.25 138.188 114.738 139.863 113.063 142.375 113.063 144.888 113.063 146.563 114.738 146.563 117.25 146.563 119.763 144.888 121.438 142.375 121.438ZM100.5 104.688C68.2563 104.688 41.875 97.15 41.875 87.9375L41.875 121.438C41.875 130.65 68.2563 138.188 100.5 138.188 132.744 138.188 159.125 130.65 159.125 121.438L159.125 87.9375C159.125 97.15 132.744 104.688 100.5 104.688Z" fill="#67C8B5" transform="matrix(1.00498 0 0 1 1596 1084)"/><path d="M142.375 163.313C139.863 163.313 138.188 161.638 138.188 159.125 138.188 156.613 139.863 154.938 142.375 154.938 144.888 154.938 146.563 156.613 146.563 159.125 146.563 161.638 144.888 163.313 142.375 163.313ZM100.5 146.563C68.2563 146.563 41.875 139.025 41.875 129.813L41.875 163.313C41.875 172.525 68.2563 180.063 100.5 180.063 132.744 180.063 159.125 172.525 159.125 163.313L159.125 129.813C159.125 139.025 132.744 146.563 100.5 146.563Z" fill="#67C8B5" transform="matrix(1.00498 0 0 1 1596 1084)"/></g></g></g><text fill="#0CA789" font-family="Times New Roman,Times New Roman_MSFontService,sans-serif" font-weight="400" font-size="110" transform="matrix(1 0 0 1 1563.32 1391)">eICU</text><g clip-path="url(#clip10)"><g clip-path="url(#clip11)"><g clip-path="url(#clip12)"><path d="M159.125 37.6875C159.125 46.9382 132.878 54.4374 100.5 54.4374 68.1222 54.4374 41.8749 46.9382 41.8749 37.6875 41.8749 28.4367 68.1222 20.9375 100.5 20.9375 132.878 20.9375 159.125 28.4367 159.125 37.6875Z" fill="#FAC710" transform="matrix(1 0 0 1.00498 1589 623)"/><path d="M142.375 79.5624C139.862 79.5624 138.187 77.8874 138.187 75.3749 138.187 72.8624 139.862 71.1874 142.375 71.1874 144.887 71.1874 146.562 72.8624 146.562 75.3749 146.562 77.8874 144.887 79.5624 142.375 79.5624ZM100.5 62.8124C68.2562 62.8124 41.8749 55.2749 41.8749 46.0624L41.8749 79.5624C41.8749 88.7749 68.2562 96.3124 100.5 96.3124 132.744 96.3124 159.125 88.7749 159.125 79.5624L159.125 46.0624C159.125 55.2749 132.744 62.8124 100.5 62.8124Z" fill="#FAC710" transform="matrix(1 0 0 1.00498 1589 623)"/><path d="M142.375 121.437C139.862 121.437 138.187 119.762 138.187 117.25 138.187 114.737 139.862 113.062 142.375 113.062 144.887 113.062 146.562 114.737 146.562 117.25 146.562 119.762 144.887 121.437 142.375 121.437ZM100.5 104.687C68.2562 104.687 41.8749 97.1499 41.8749 87.9374L41.8749 121.437C41.8749 130.65 68.2562 138.187 100.5 138.187 132.744 138.187 159.125 130.65 159.125 121.437L159.125 87.9374C159.125 97.1499 132.744 104.687 100.5 104.687Z" fill="#FAC710" transform="matrix(1 0 0 1.00498 1589 623)"/><path d="M142.375 163.312C139.862 163.312 138.187 161.637 138.187 159.125 138.187 156.612 139.862 154.937 142.375 154.937 144.887 154.937 146.562 156.612 146.562 159.125 146.562 161.637 144.887 163.312 142.375 163.312ZM100.5 146.562C68.2562 146.562 41.8749 139.025 41.8749 129.812L41.8749 163.312C41.8749 172.525 68.2562 180.062 100.5 180.062 132.744 180.062 159.125 172.525 159.125 163.312L159.125 129.812C159.125 139.025 132.744 146.562 100.5 146.562Z" fill="#FAC710" transform="matrix(1 0 0 1.00498 1589 623)"/></g></g></g><text fill="#FAC710" font-family="Times New Roman,Times New Roman_MSFontService,sans-serif" font-weight="400" font-size="110" transform="matrix(1 0 0 1 1545.52 923)">HiRID</text><text font-family="Times New Roman,Times New Roman_MSFontService,sans-serif" font-weight="400" font-size="165" transform="matrix(1 0 0 1 66.0599 793)">Experiment</text><g clip-path="url(#clip13)"><g clip-path="url(#clip14)"><g clip-path="url(#clip15)"><path d="M482.083 848.917C482.083 857.891 474.808 865.167 465.833 865.167 456.859 865.167 449.583 857.891 449.583 848.917 449.583 839.942 456.859 832.667 465.833 832.667 474.808 832.667 482.083 839.942 482.083 848.917Z"/><path d="M509.167 897.667C509.167 906.641 501.891 913.917 492.917 913.917 483.942 913.917 476.667 906.641 476.667 897.667 476.667 888.692 483.942 881.417 492.917 881.417 501.891 881.417 509.167 888.692 509.167 897.667Z"/><path d="M449.583 886.833C449.583 895.808 442.308 903.083 433.333 903.083 424.359 903.083 417.083 895.808 417.083 886.833 417.083 877.859 424.359 870.583 433.333 870.583 442.308 870.583 449.583 877.859 449.583 886.833Z"/><path d="M465.833 946.417C465.833 958.383 456.133 968.083 444.167 968.083 432.2 968.083 422.5 958.383 422.5 946.417 422.5 934.45 432.2 924.75 444.167 924.75 456.133 924.75 465.833 934.45 465.833 946.417Z"/><path d="M560.625 1263.83 498.333 1123 498.333 1027.67C498.333 1008.17 514.042 1000.04 514.583 999.5 520 996.792 522.167 990.292 519.458 984.875 517.292 981.083 513.5 978.917 509.167 978.917L509.167 978.917 400.833 978.917 400.833 978.917C396.5 978.917 392.708 981.083 390.542 984.875 387.833 990.292 390 996.792 395.417 999.5 395.417 999.5 411.667 1008.17 411.667 1027.67L411.667 1123 349.375 1263.83C345.042 1274.12 346.125 1285.5 352.083 1294.71 358.042 1303.92 368.333 1309.33 379.167 1309.33L530.833 1309.33C541.667 1309.33 551.958 1303.92 557.917 1294.71 563.875 1285.5 564.958 1274.12 560.625 1263.83ZM476.667 1027.67 476.667 1049.33 433.333 1049.33 433.333 1027.67C433.333 1016.29 430.083 1007.62 426.292 1000.58L484.25 1000.58C479.917 1007.62 476.667 1016.29 476.667 1027.67Z"/></g></g></g><text font-family="Times New Roman,Times New Roman_MSFontService,sans-serif" font-weight="400" font-size="1980" transform="matrix(1 0 0 1 535.788 1693)">{</text><text font-family="Times New Roman,Times New Roman_MSFontService,sans-serif" font-weight="700" font-size="110" transform="matrix(1 0 0 1 1473.66 2273)">Datasets &amp; </text><text font-family="Times New Roman,Times New Roman_MSFontService,sans-serif" font-weight="700" font-size="110" transform="matrix(1 0 0 1 1404.31 2405)">Preprocessing</text><text font-family="Times New Roman,Times New Roman_MSFontService,sans-serif" font-weight="700" font-size="110" transform="matrix(1 0 0 1 2233 2307)">Prediction Tasks</text><text font-family="Times New Roman,Times New Roman_MSFontService,sans-serif" font-weight="700" font-size="110" transform="matrix(1 0 0 1 3391.18 2273)">Models &amp; </text><text font-family="Times New Roman,Times New Roman_MSFontService,sans-serif" font-weight="700" font-size="110" transform="matrix(1 0 0 1 3203.54 2405)">Hyperparameters</text><text fill="#96D459" font-family="Times New Roman,Times New Roman_MSFontService,sans-serif" font-weight="700" font-size="165" transform="matrix(1 0 0 1 3338.07 319)">LSTM</text><text fill="#67C8B5" font-family="Times New Roman,Times New Roman_MSFontService,sans-serif" font-weight="700" font-size="147" transform="matrix(1 0 0 1 3326.17 1075)">Transformer</text><text font-family="Times New Roman,Times New Roman_MSFontService,sans-serif" font-weight="700" font-size="147" transform="matrix(1 0 0 1 3344.27 1825)">GRU</text><text fill="#414BB2" font-family="Times New Roman,Times New Roman_MSFontService,sans-serif" font-weight="700" font-size="147" transform="matrix(1 0 0 1 3331.17 1361)">Logistic </text><text fill="#414BB2" font-family="Times New Roman,Times New Roman_MSFontService,sans-serif" font-weight="700" font-size="147" transform="matrix(1 0 0 1 3331.17 1537)">Regression</text><text fill="#FAC710" font-family="Times New Roman,Times New Roman_MSFontService,sans-serif" font-weight="700" font-size="147" transform="matrix(1 0 0 1 3326.17 611)">Gradient </text><text fill="#FAC710" font-family="Times New Roman,Times New Roman_MSFontService,sans-serif" font-weight="700" font-size="147" transform="matrix(1 0 0 1 3326.17 787)">Boosting</text><g clip-path="url(#clip16)"><g clip-path="url(#clip17)"><g clip-path="url(#clip18)"><path d="M104.531 116.146C104.531 126.409 96.2111 134.729 85.9478 134.729 75.6845 134.729 67.3645 126.409 67.3645 116.146 67.3645 105.882 75.6845 97.5624 85.9478 97.5624 96.2111 97.5624 104.531 105.882 104.531 116.146Z" transform="matrix(1.01794 0 0 1 2432 91.0001)"/><path d="M155.635 116.146C155.635 126.409 147.315 134.729 137.052 134.729 126.789 134.729 118.469 126.409 118.469 116.146 118.469 105.882 126.789 97.5624 137.052 97.5624 147.315 97.5624 155.635 105.882 155.635 116.146Z" transform="matrix(1.01794 0 0 1 2432 91.0001)"/><path d="M121.094 148.388C122.453 150.654 121.719 153.593 119.453 154.953 118.713 155.397 117.868 155.633 117.005 155.635L105.995 155.635C103.352 155.627 101.216 153.478 101.224 150.835 101.227 149.973 101.463 149.127 101.906 148.388L107.412 139.235C108.76 136.978 111.684 136.24 113.941 137.589 114.618 137.993 115.184 138.559 115.588 139.235Z" transform="matrix(1.01794 0 0 1 2432 91.0001)"/><path d="M111.5 20.9062C71.8013 20.9062 39.4895 55.7499 39.4895 98.7238 39.4895 115.751 44.3677 129.456 55.7499 144.114L55.7499 155.728C55.5743 166.466 63.6492 175.55 74.3332 176.634L74.3332 195.218C74.3332 199.067 77.4532 202.186 81.302 202.186L141.698 202.186C145.547 202.186 148.666 199.067 148.666 195.218L148.666 176.541C159.351 175.457 167.425 166.373 167.25 155.635L167.25 144.021C178.632 129.363 183.51 115.658 183.51 98.6309 183.51 55.7499 151.198 20.9062 111.5 20.9062ZM154.869 137.307C153.862 138.549 153.312 140.099 153.312 141.698L153.312 155.635C153.403 159.393 150.431 162.513 146.673 162.604 146.563 162.607 146.453 162.607 146.344 162.604L141.698 162.604C137.849 162.604 134.729 165.724 134.729 169.573L134.729 188.156 125.437 188.156 125.437 174.219 116.146 174.219 116.146 188.156 106.854 188.156 106.854 174.219 97.5624 174.219 97.5624 188.156 88.2707 188.156 88.2707 169.573C88.2707 165.724 85.1508 162.604 81.302 162.604L76.6562 162.604C72.8984 162.695 69.7782 159.722 69.6874 155.964 69.6849 155.855 69.6849 155.745 69.6874 155.635L69.6874 141.698C69.6876 140.099 69.138 138.549 68.1311 137.307 57.678 124.415 53.427 113.242 53.427 98.7238 53.427 63.5085 79.4669 34.8437 111.5 34.8437 143.533 34.8437 169.573 63.5085 169.573 98.7238 169.573 113.242 165.322 124.415 154.869 137.307Z" transform="matrix(1.01794 0 0 1 2432 91.0001)"/></g></g></g><text font-family="Times New Roman,Times New Roman_MSFontService,sans-serif" font-weight="400" font-size="110" transform="matrix(1 0 0 1 2371.9 457)">Mortality</text><g clip-path="url(#clip19)"><g clip-path="url(#clip20)"><g clip-path="url(#clip21)"><path d="M195.495 46.0156C183.063 38.9776 167.289 43.0677 159.844 55.2604 145.026 77.9427 162.031 94.8958 165.911 109.375L145.833 109.375C137.204 109.375 130.208 116.371 130.208 125L130.208 210.937 140.625 210.937 140.625 125C140.625 122.123 142.957 119.792 145.833 119.792L165.911 119.792C162.031 134.271 145.078 151.224 159.844 173.906 167.289 186.099 183.063 190.189 195.495 183.151 216.146 170.937 229.167 144.661 229.167 114.583 229.167 84.5052 216.146 58.2291 195.495 46.0156Z" transform="matrix(1 0 0 1 2420 501)"/><path d="M104.167 109.375 84.0885 109.375C87.9687 94.8958 104.922 77.9427 90.1562 55.2604 82.7109 43.0677 66.9372 38.9776 54.5052 46.0156 33.8542 58.2291 20.8333 84.5052 20.8333 114.583 20.8333 144.661 33.8542 170.937 54.5052 183.151 66.9372 190.189 82.7109 186.099 90.1562 173.906 104.974 151.224 87.9687 134.271 84.0885 119.792L104.167 119.792C107.043 119.792 109.375 122.123 109.375 125L109.375 210.937 119.792 210.937 119.792 125C119.792 116.371 112.796 109.375 104.167 109.375Z" transform="matrix(1 0 0 1 2420 501)"/></g></g></g><text font-family="Times New Roman,Times New Roman_MSFontService,sans-serif" font-weight="400" font-size="110" transform="matrix(1 0 0 1 2453.24 881)">AKI</text><g clip-path="url(#clip22)"><g clip-path="url(#clip23)"><g clip-path="url(#clip24)"><path d="M50.0465 70.8951C52.0607 75.2374 53.7245 79.7338 55.022 84.3412 55.022 84.3412 55.022 84.3412 55.022 84.3412 55.1676 85.2635 55.556 87.7634 56.2841 91.1613 61.6606 86.9 68.1644 84.3018 74.9969 83.6859L77.424 83.3703C77.3813 76.5369 78.2133 69.7262 79.8996 63.1042 80.9636 59.2245 82.4107 55.4601 84.2198 51.8668 83.3973 47.2616 78.997 44.195 74.3918 45.0178 72.3849 45.3763 70.5747 46.4464 69.2932 48.032 68.1768 49.3912 67.5215 50.4591 65.3128 59.5849 65.0864 60.4587 64.8922 61.3324 64.7303 62.2062 61.1868 54.9249 60.3616 54.0997 59.0752 53.0318 55.422 50.0882 50.0741 50.6634 47.1306 54.3167 44.6969 57.3372 44.6183 61.6227 46.9398 64.7303 47.1825 65.1672 48.0563 66.7205 50.0465 70.8951Z" transform="matrix(1 0 0 1.00429 2442 938)"/><path d="M182.687 125.99C176.595 106.282 166.11 91.7923 162.056 87.7634 159.673 85.5901 157.051 83.6931 154.241 82.1083 153.416 82.7636 152.591 83.4674 151.814 84.1955 149.387 86.3799 146.742 92.4719 144.97 100.093 144.463 102.288 142.513 103.845 140.261 103.855 139.89 103.891 139.516 103.891 139.145 103.855 136.534 103.244 134.914 100.633 135.524 98.0224 135.526 98.0168 135.527 98.0112 135.528 98.0057 137.13 91.0156 140.164 81.6956 145.237 77.0599 151.347 71.4284 158.563 67.1302 166.425 64.4391 168.854 63.6212 170.86 61.8763 172.007 59.5849 174.48 54.8271 172.627 48.9659 167.869 46.4939 165.494 45.2598 162.714 45.061 160.188 45.9447 149.871 49.4713 140.393 55.09 132.349 62.4489 122.301 71.4048 117.786 87.1809 116.015 95.7727 115.472 98.4 112.902 100.09 110.275 99.5468 107.647 99.0039 105.958 96.4341 106.5 93.8068 108.928 81.8655 114.364 65.4585 125.917 55.1919 130.707 50.8807 135.929 47.0743 141.499 43.8331 139.992 41.9907 138.245 40.3583 136.305 38.979 136.596 37.814 136.912 36.5519 137.276 35.4354 138.732 30.5813 139.363 28.9308 139.533 28.5182 141.163 25.59 140.11 21.8952 137.181 20.2657 134.701 18.885 131.594 19.4095 129.703 21.5282 128.902 22.4263 128.32 23.0816 125.65 31.9404 125.359 32.9113 125.092 33.8821 124.849 34.8529L124.315 34.8529 124.315 33.9792C124.315 28.8823 124.485 27.1348 124.534 26.6979 125.281 23.4312 123.238 20.1773 119.971 19.4301 117.189 18.7938 114.339 20.1826 113.126 22.766 112.617 23.8582 112.228 24.6349 112.18 33.8821 112.18 34.9743 112.18 36.0665 112.18 37.1101L111.16 37.547C110.141 32.6928 109.898 31.0667 109.85 30.6298 109.792 27.2792 107.028 24.6101 103.678 24.6684 100.986 24.715 98.6471 26.5295 97.9328 29.125 97.6659 30.3143 97.4717 31.1395 99.3891 40.1925 99.7451 41.8106 100.158 43.4285 100.627 45.0467 95.1997 50.7984 91.2952 57.8146 89.2681 65.4585 86.6712 74.9726 87.108 82.9577 86.8411 92.1564 86.8411 92.6175 86.0401 92.3748 86.0401 92.3748 82.7881 92.4297 79.544 92.7136 76.3318 93.2243 67.6914 94.6563 63.3469 97.0834 58.4927 102.714 53.6386 108.345 47.4738 117.689 46.7699 134.679 46.1881 145.813 49.3776 156.818 55.8229 165.915 60.1045 171.999 64.8 177.781 69.8757 183.221L69.8757 183.221C73.3171 186.377 76.9223 189.35 80.6763 192.128 94.0633 201.776 109.249 208.642 125.335 212.321 141.038 215.379 163.221 213.147 170.915 207.904 178.609 202.662 185.284 186.764 186.691 175.939 188.943 159.195 187.577 142.162 182.687 125.99Z" transform="matrix(1 0 0 1.00429 2442 938)"/></g></g></g><text font-family="Times New Roman,Times New Roman_MSFontService,sans-serif" font-weight="400" font-size="110" transform="matrix(1 0 0 1 2358.31 1293)">Circulatory </text><text font-family="Times New Roman,Times New Roman_MSFontService,sans-serif" font-weight="400" font-size="110" transform="matrix(1 0 0 1 2452.84 1425)">Failure</text><g clip-path="url(#clip25)"><g clip-path="url(#clip26)"><g clip-path="url(#clip27)"><path d="M125 26.0417C125 26.0417 59.8958 117.708 59.8958 158.854 59.8958 194.792 89.0625 223.958 125 223.958 160.937 223.958 190.104 194.792 190.104 158.854 190.104 117.448 125 26.0417 125 26.0417Z" transform="matrix(1.004 0 0 1 2423 1494)"/></g></g></g><text font-family="Times New Roman,Times New Roman_MSFontService,sans-serif" font-weight="400" font-size="110" transform="matrix(1 0 0 1 2438.76 1865)">Sepsis</text><text font-family="Times New Roman,Times New Roman_MSFontService,sans-serif" font-weight="700" font-size="165" transform="matrix(6.12323e-17 1 -1 6.12323e-17 1681.78 1945)">…</text><text font-family="Times New Roman,Times New Roman_MSFontService,sans-serif" font-weight="700" font-size="165" transform="matrix(6.12323e-17 1 -1 6.12323e-17 2541.6 1945)">…</text><text font-family="Times New Roman,Times New Roman_MSFontService,sans-serif" font-weight="700" font-size="165" transform="matrix(6.12323e-17 1 -1 6.12323e-17 3495.35 1932)">…</text></g></svg>