<svg width="5187" height="2820" xmlns="http://www.w3.org/2000/svg" xmlns:xlink="http://www.w3.org/1999/xlink" xml:space="preserve" overflow="hidden"><defs><clipPath id="clip0"><rect x="-173" y="-525" width="5187" height="2820"/></clipPath><clipPath id="clip1"><rect x="2823" y="-335" width="320" height="318"/></clipPath><clipPath id="clip2"><rect x="2823" y="-335" width="320" height="318"/></clipPath><clipPath id="clip3"><rect x="2823" y="-335" width="320" height="318"/></clipPath><clipPath id="clip4"><rect x="3894" y="-326" width="317" height="329"/></clipPath><clipPath id="clip5"><rect x="3894" y="-326" width="317" height="329"/></clipPath><clipPath id="clip6"><rect x="3894" y="-326" width="317" height="329"/></clipPath><clipPath id="clip7"><rect x="1681" y="-295" width="331" height="342"/></clipPath><clipPath id="clip8"><rect x="1681" y="-295" width="331" height="342"/></clipPath><clipPath id="clip9"><rect x="1681" y="-295" width="331" height="342"/></clipPath><clipPath id="clip10"><rect x="202" y="-525" width="496" height="496"/></clipPath><clipPath id="clip11"><rect x="202" y="-525" width="496" height="496"/></clipPath><clipPath id="clip12"><rect x="202" y="-525" width="496" height="496"/></clipPath><clipPath id="clip13"><rect x="356" y="1540" width="212" height="212"/></clipPath><clipPath id="clip14"><rect x="356" y="1540" width="212" height="212"/></clipPath><clipPath id="clip15"><rect x="356" y="1540" width="212" height="212"/></clipPath><clipPath id="clip16"><rect x="356" y="1056" width="212" height="213"/></clipPath><clipPath id="clip17"><rect x="356" y="1056" width="212" height="213"/></clipPath><clipPath id="clip18"><rect x="356" y="1056" width="212" height="213"/></clipPath><clipPath id="clip19"><rect x="356" y="590" width="212" height="213"/></clipPath><clipPath id="clip20"><rect x="356" y="590" width="212" height="213"/></clipPath><clipPath id="clip21"><rect x="356" y="590" width="212" height="213"/></clipPath></defs><g clip-path="url(#clip0)" transform="translate(173 525)"><rect x="3719" y="474" width="686" height="1668" fill="#FCE4DF"/><rect x="1069" y="-477" width="3945" height="2765" fill="#FCE4DF"/><path d="M859 1606.25 1278.98 1606.25 1278.98 1633.75 859 1633.75ZM1265.23 1578.75 1347.73 1620 1265.23 1661.25Z"/><text font-family="Arial,Arial_MSFontService,sans-serif" font-weight="700" font-size="92" transform="matrix(1 0 0 1 171.09 34)">Researcher</text><rect x="2474" y="457" width="937" height="1687" fill="#F8C8C0"/><text fill="#281B10" font-family="Arial,Arial_MSFontService,sans-serif" font-weight="700" font-size="79" transform="matrix(1 0 0 1 2602.38 551)">Training Predictor</text><rect x="2532" y="1638" width="838" height="353" fill="#FFFFFF"/><text fill="#281B10" font-family="Arial,Arial_MSFontService,sans-serif" font-weight="700" font-size="69" transform="matrix(1 0 0 1 2799.19 1722)">Bayesian</text><text fill="#281B10" font-family="Arial,Arial_MSFontService,sans-serif" font-weight="700" font-size="69" transform="matrix(1 0 0 1 2686.03 1805)">Hyperparameter </text><text fill="#281B10" font-family="Arial,Arial_MSFontService,sans-serif" font-weight="700" font-size="69" transform="matrix(1 0 0 1 2741.33 1888)">Optimization</text><rect x="2540" y="663" width="839" height="935" stroke="#000000" stroke-width="13.75" stroke-miterlimit="8" stroke-dasharray="55 41.25" fill="#FFFFFF"/><text fill="#281B10" font-family="Arial,Arial_MSFontService,sans-serif" font-weight="700" font-size="69" transform="matrix(1 0 0 1 2839.88 746)">Models</text><text fill="#281B10" font-family="Arial,Arial_MSFontService,sans-serif" font-weight="400" font-size="69" transform="matrix(1 0 0 1 2915.23 829)">LR</text><text fill="#281B10" font-family="Arial,Arial_MSFontService,sans-serif" font-weight="400" font-size="69" transform="matrix(1 0 0 1 2861.07 912)">LGBM</text><text fill="#281B10" font-family="Arial,Arial_MSFontService,sans-serif" font-weight="400" font-size="69" transform="matrix(1 0 0 1 2913.21 995)">RF</text><text fill="#281B10" font-family="Arial,Arial_MSFontService,sans-serif" font-weight="400" font-size="69" transform="matrix(1 0 0 1 2884.56 1078)">RNN</text><text fill="#281B10" font-family="Arial,Arial_MSFontService,sans-serif" font-weight="400" font-size="69" transform="matrix(1 0 0 1 2866.8 1161)">LSTM</text><text fill="#281B10" font-family="Arial,Arial_MSFontService,sans-serif" font-weight="400" font-size="69" transform="matrix(1 0 0 1 2882.57 1244)">GRU</text><text fill="#281B10" font-family="Arial,Arial_MSFontService,sans-serif" font-weight="400" font-size="69" transform="matrix(1 0 0 1 2888.3 1327)">TCN</text><text fill="#281B10" font-family="Arial,Arial_MSFontService,sans-serif" font-weight="400" font-size="69" transform="matrix(1 0 0 1 2771.13 1410)">Transformer</text><text font-family="Arial,Arial_MSFontService,sans-serif" font-weight="700" font-size="92" transform="matrix(6.12323e-17 1 -1 6.12323e-17 2954.24 1469)">…</text><path d="M437.333 76 437.333 103.5 409.833 103.5 409.833 76ZM437.333 131 437.333 158.5 409.833 158.5 409.833 131ZM437.333 186 437.333 209.903 419 209.903 432.75 196.153 432.75 208.917 405.25 208.917 405.25 182.403 423.583 182.403 409.833 196.153 409.833 186ZM432.75 236.417 432.75 246.181 405.25 246.181 405.25 236.417ZM460.25 232.431 419 314.931 377.75 232.431Z"/><text font-family="Arial,Arial_MSFontService,sans-serif" font-weight="400" font-size="92" transform="matrix(1 0 0 1 101.736 180)">Select</text><text font-family="Arial,Arial_MSFontService,sans-serif" font-weight="700" font-size="165" transform="matrix(6.12323e-17 1 -1 6.12323e-17 4771.04 -213)">Yet Another ICU Benchmark</text><rect x="1352" y="-342" width="3176" height="664" fill="#F2F2F2"/><g clip-path="url(#clip1)"><g clip-path="url(#clip2)"><g clip-path="url(#clip3)"><path d="M75.7084 269.917 75.7084 46.0834 158 46.0834 158 115.208 240.292 115.208 240.292 269.917 75.7084 269.917ZM177.75 54.3125 218.896 95.4584 177.75 95.4584 177.75 54.3125ZM177.75 26.3334 55.9584 26.3334 55.9584 289.667 260.042 289.667 260.042 98.7501 177.75 26.3334Z" transform="matrix(1.00949 0 0 1 2824 -334)"/><path d="M95.4584 148.125 220.542 148.125 220.542 161.292 95.4584 161.292Z" transform="matrix(1.00949 0 0 1 2824 -334)"/><path d="M95.4584 121.792 138.25 121.792 138.25 134.958 95.4584 134.958Z" transform="matrix(1.00949 0 0 1 2824 -334)"/><path d="M95.4584 174.458 220.542 174.458 220.542 187.625 95.4584 187.625Z" transform="matrix(1.00949 0 0 1 2824 -334)"/><path d="M95.4584 200.792 220.542 200.792 220.542 213.959 95.4584 213.959Z" transform="matrix(1.00949 0 0 1 2824 -334)"/><path d="M95.4584 227.125 220.542 227.125 220.542 240.292 95.4584 240.292Z" transform="matrix(1.00949 0 0 1 2824 -334)"/></g></g></g><text font-family="Arial,Arial_MSFontService,sans-serif" font-weight="400" font-size="92" transform="matrix(1 0 0 1 2910.07 127)">Task</text><text font-family="Arial,Arial_MSFontService,sans-serif" font-weight="400" font-size="92" transform="matrix(1 0 0 1 2818.13 237)">Definition</text><text font-family="Arial,Arial_MSFontService,sans-serif" font-weight="400" font-size="92" transform="matrix(1 0 0 1 3703.62 119)">Model Settings &amp; </text><text font-family="Arial,Arial_MSFontService,sans-serif" font-weight="400" font-size="92" transform="matrix(1 0 0 1 3696.17 229)">Hyperparameters </text><g clip-path="url(#clip4)"><g clip-path="url(#clip5)"><g clip-path="url(#clip6)"><path d="M46.2292 132.083 92.4583 132.083 92.4583 178.312 46.2292 178.312Z" transform="matrix(6.33571e-17 1.0347 -1 6.12323e-17 4211 -326)"/><path d="M224.542 132.083 270.771 132.083 270.771 178.312 224.542 178.312Z" transform="matrix(6.33571e-17 1.0347 -1 6.12323e-17 4211 -326)"/><path d="M46.2292 42.9271 92.4583 42.9271 92.4583 89.1562 46.2292 89.1562Z" transform="matrix(6.33571e-17 1.0347 -1 6.12323e-17 4211 -326)"/><path d="M46.2292 221.24 92.4583 221.24 92.4583 267.469 46.2292 267.469Z" transform="matrix(6.33571e-17 1.0347 -1 6.12323e-17 4211 -326)"/><path d="M165.104 59.4375 105.667 59.4375 105.667 72.6458 151.896 72.6458 151.896 148.594 105.667 148.594 105.667 161.802 151.896 161.802 151.896 237.75 105.667 237.75 105.667 250.958 165.104 250.958 165.104 161.802 211.333 161.802 211.333 148.594 165.104 148.594 165.104 59.4375Z" transform="matrix(6.33571e-17 1.0347 -1 6.12323e-17 4211 -326)"/></g></g></g><text font-family="Arial,Arial_MSFontService,sans-serif" font-weight="400" font-size="92" transform="matrix(1 0 0 1 1529.64 163)">Pre</text><text font-family="Arial,Arial_MSFontService,sans-serif" font-weight="400" font-size="92" transform="matrix(1 0 0 1 1672.3 163)">-</text><text font-family="Arial,Arial_MSFontService,sans-serif" font-weight="400" font-size="92" transform="matrix(1 0 0 1 1702.66 163)">processor</text><text font-family="Arial,Arial_MSFontService,sans-serif" font-weight="400" font-size="92" transform="matrix(1 0 0 1 1544.53 273)">Configuration</text><g clip-path="url(#clip7)"><g clip-path="url(#clip8)"><g clip-path="url(#clip9)"><path d="M203.844 128.219C189.406 128.219 178.062 116.531 178.062 102.438 178.062 88.3438 189.75 76.6562 203.844 76.6562 218.281 76.6562 229.625 88.3438 229.625 102.438 229.625 116.531 217.938 128.219 203.844 128.219ZM261.938 86.2812C260.562 81.4688 258.844 77 256.438 72.875L261.938 56.7188 249.562 44.3438 233.406 49.8438C229.281 47.4375 224.812 45.7188 220 44.3438L212.438 29.2188 195.25 29.2188 187.688 44.3438C182.875 45.7188 178.406 47.4375 174.281 49.8438L158.125 44.3438 145.75 56.7188 151.25 72.875C148.844 77 147.125 81.4688 145.75 86.2812L130.625 93.8438 130.625 111.031 145.75 118.594C147.125 123.406 148.844 127.875 151.25 132L145.75 148.156 157.781 160.188 173.938 154.688C178.062 157.094 182.531 158.812 187.344 160.188L194.906 175.312 212.094 175.312 219.656 160.188C224.469 158.812 228.938 157.094 233.063 154.688L249.219 160.188 261.594 148.156 256.094 132C258.5 127.875 260.562 123.062 261.938 118.594L277.062 111.031 277.062 93.8438 261.938 86.2812Z" transform="matrix(1 0 0 1.03333 1682 -295)"/><path d="M126.156 253.344C111.719 253.344 100.375 241.656 100.375 227.562 100.375 213.125 112.062 201.781 126.156 201.781 140.594 201.781 151.938 213.469 151.938 227.562 151.938 241.656 140.594 253.344 126.156 253.344L126.156 253.344ZM178.75 198 184.25 181.844 171.875 169.469 155.719 174.969C151.594 172.562 146.781 170.844 142.312 169.469L134.75 154.344 117.562 154.344 110 169.469C105.188 170.844 100.719 172.562 96.5938 174.969L80.4375 169.469 68.4062 181.5 73.5625 197.656C71.1562 201.781 69.4375 206.594 68.0625 211.062L52.9375 218.625 52.9375 235.812 68.0625 243.375C69.4375 248.187 71.1562 252.656 73.5625 256.781L68.4062 272.938 80.4375 284.969 96.5938 279.812C100.719 282.219 105.188 283.938 110 285.312L117.562 300.438 134.75 300.438 142.312 285.312C147.125 283.938 151.594 282.219 155.719 279.812L171.875 285.312 183.906 272.938 178.75 257.125C181.156 253 182.875 248.531 184.25 243.719L199.375 236.156 199.375 218.969 184.25 211.406C182.875 206.594 181.156 202.125 178.75 198Z" transform="matrix(1 0 0 1.03333 1682 -295)"/></g></g></g><rect x="1352" y="458" width="936" height="1684" fill="#F8C8C0"/><text fill="#281B10" font-family="Arial,Arial_MSFontService,sans-serif" font-weight="700" font-size="83" transform="matrix(1 0 0 1 1519.7 555)">Pre</text><text fill="#281B10" font-family="Arial,Arial_MSFontService,sans-serif" font-weight="700" font-size="83" transform="matrix(1 0 0 1 1652.62 555)">-</text><text fill="#281B10" font-family="Arial,Arial_MSFontService,sans-serif" font-weight="700" font-size="83" transform="matrix(1 0 0 1 1680.12 555)">processing</text><rect x="1405" y="651" width="830" height="569" stroke="#000000" stroke-width="13.75" stroke-miterlimit="8" stroke-dasharray="55 41.25" fill="#FFFFFF"/><text fill="#281B10" font-family="Arial,Arial_MSFontService,sans-serif" font-weight="400" font-size="69" transform="matrix(1 0 0 1 1706.76 735)">Scaling</text><text fill="#281B10" font-family="Arial,Arial_MSFontService,sans-serif" font-weight="400" font-size="69" transform="matrix(1 0 0 1 1544.35 817)">Missing Indicators</text><text fill="#281B10" font-family="Arial,Arial_MSFontService,sans-serif" font-weight="400" font-size="69" transform="matrix(1 0 0 1 1659.21 900)">Imputation</text><text fill="#281B10" font-family="Arial,Arial_MSFontService,sans-serif" font-weight="400" font-size="69" transform="matrix(1 0 0 1 1538.9 982)">Feature Extraction</text><rect x="1405" y="1286" width="830" height="344" fill="#FFFFFF"/><text fill="#281B10" font-family="Arial,Arial_MSFontService,sans-serif" font-weight="700" font-size="69" transform="matrix(1 0 0 1 1680.98 1452)">Splitting</text><text fill="#281B10" font-family="Arial,Arial_MSFontService,sans-serif" font-weight="400" font-size="69" transform="matrix(1 0 0 1 1625.41 1535)">Fold splitting</text><rect x="1405" y="1674" width="830" height="345" fill="#FFFFFF"/><text fill="#281B10" font-family="Arial,Arial_MSFontService,sans-serif" font-weight="700" font-size="69" transform="matrix(1 0 0 1 1683.27 1841)">Caching</text><text fill="#281B10" font-family="Arial,Arial_MSFontService,sans-serif" font-weight="400" font-size="69" transform="matrix(1 0 0 1 1497.07 1924)">Cache data for reuse</text><text font-family="Arial,Arial_MSFontService,sans-serif" font-weight="700" font-size="92" transform="matrix(6.12323e-17 1 -1 6.12323e-17 1804.3 1055)">…</text><rect x="3607" y="457" width="932" height="1687" fill="#F8C8C0"/><text fill="#281B10" font-family="Arial,Arial_MSFontService,sans-serif" font-weight="700" font-size="79" transform="matrix(1 0 0 1 3934.83 551)">Metrics</text><rect x="3654" y="644" width="839" height="771" stroke="#000000" stroke-width="13.75" stroke-miterlimit="8" stroke-dasharray="55 41.25" fill="#FFFFFF"/><text fill="#281B10" font-family="Arial,Arial_MSFontService,sans-serif" font-weight="700" font-size="69" transform="matrix(1 0 0 1 3848.32 728)">Classification</text><text fill="#281B10" font-family="Arial,Arial_MSFontService,sans-serif" font-weight="400" font-size="69" transform="matrix(1 0 0 1 3996.7 811)">ROC</text><text fill="#281B10" font-family="Arial,Arial_MSFontService,sans-serif" font-weight="400" font-size="69" transform="matrix(1 0 0 1 3948.58 894)">AUROC</text><text fill="#281B10" font-family="Arial,Arial_MSFontService,sans-serif" font-weight="400" font-size="69" transform="matrix(1 0 0 1 4000.42 977)">PRC</text><text fill="#281B10" font-family="Arial,Arial_MSFontService,sans-serif" font-weight="400" font-size="69" transform="matrix(1 0 0 1 3952.29 1060)">AUPRC</text><text fill="#281B10" font-family="Arial,Arial_MSFontService,sans-serif" font-weight="400" font-size="69" transform="matrix(1 0 0 1 3931.67 1143)">Accuracy</text><text fill="#281B10" font-family="Arial,Arial_MSFontService,sans-serif" font-weight="400" font-size="69" transform="matrix(1 0 0 1 3806.49 1226)">Calibration Curve</text><rect x="3665" y="1520" width="817" height="489" stroke="#000000" stroke-width="13.75" stroke-miterlimit="8" stroke-dasharray="55 41.25" fill="#FFFFFF"/><text fill="#281B10" font-family="Arial,Arial_MSFontService,sans-serif" font-weight="700" font-size="69" transform="matrix(1 0 0 1 3884.98 1604)">Regression</text><text fill="#281B10" font-family="Arial,Arial_MSFontService,sans-serif" font-weight="400" font-size="69" transform="matrix(1 0 0 1 3998.12 1687)">MAE</text><text fill="#281B10" font-family="Arial,Arial_MSFontService,sans-serif" font-weight="400" font-size="69" transform="matrix(1 0 0 1 4035.66 1770)">R</text><text fill="#281B10" font-family="Arial,Arial_MSFontService,sans-serif" font-weight="400" font-size="46" transform="matrix(1 0 0 1 4085.51 1749)">2</text><text fill="#281B10" font-family="Arial,Arial_MSFontService,sans-serif" font-weight="400" font-size="69" transform="matrix(1 0 0 1 3973.21 1853)">RMSE</text><text font-family="Arial,Arial_MSFontService,sans-serif" font-weight="700" font-size="92" transform="matrix(6.12323e-17 1 -1 6.12323e-17 4088.53 1285)">…</text><text font-family="Arial,Arial_MSFontService,sans-serif" font-weight="700" font-size="92" transform="matrix(6.12323e-17 1 -1 6.12323e-17 4086.23 1896)">…</text><text font-family="Arial,Arial_MSFontService,sans-serif" font-weight="700" font-size="110" transform="matrix(-1.83697e-16 -1 1 -1.83697e-16 1483.19 174)">Config</text><path d="M697-303.75 1042.33-303.75 1042.33 0.39267 1028.58-13.3573 1291.41-13.3573 1291.41 14.1427 1014.83 14.1427 1014.83-290 1028.58-276.25 697-276.25ZM1277.66-40.8573 1360.16 0.39267 1277.66 41.6427Z"/><g clip-path="url(#clip10)"><g clip-path="url(#clip11)"><g clip-path="url(#clip12)"><path d="M349.469-109.406 315.438-186.234 315.438-238.312C315.556-244.619 318.854-250.438 324.203-253.781 327.001-255.053 328.236-258.352 326.965-261.149 326.908-261.273 326.847-261.395 326.781-261.516 325.841-263.74 323.49-265.023 321.109-264.609L262.328-264.609C259.113-264.807 256.348-262.361 256.15-259.146 256.145-259.077 256.142-259.007 256.141-258.937 255.96-256.601 257.173-254.378 259.235-253.266 264.748-250.083 268.104-244.162 268-237.797L268-185.719 234.485-109.406C230.497-100.793 234.248-90.5781 242.861-86.5907 243.159-86.4531 243.461-86.3237 243.766-86.203 246.024-85.1475 248.492-84.619 250.985-84.6561L333.484-84.6561C343.086-84.5762 350.936-92.2951 351.016-101.898 351.017-101.994 351.017-102.091 351.016-102.187 351.053-104.68 350.524-107.148 349.469-109.406ZM303.578-238.312 303.578-226.453 280.375-226.453 280.375-238.312C280.535-243.598 279.097-248.809 276.25-253.266L307.703-253.266C305.086-248.71 303.667-243.566 303.578-238.312Z"/><path d="M590.266-228.624C574.106-242.345 551.955-254.152 521.012-265.63 531.88-266.811 542.538-269.464 552.692-273.514 552.692-273.514 541.034-280.491 533.805-309.046 529.221-326.984 546.762-371.833 546.912-403.405 546.912-428.671 539.734-439.978 526.184-447.651 518.357-452.091 500.32-448.002 500.32-448.002 500.32-448.002 490.992-465.662 459.813-475.381 434.176-482.362 406.815-478.866 383.758-465.662 364.474-453.204 355.151-439.499 354.702-392.361 354.305-349.156 360.235-310.789 357.497-292.701 356.233-282.687 352.424-273.164 346.432-265.042 355.899-264.248 365.407-264.041 374.9-264.424 357.779-258.222 341.316-250.339 325.75-240.891L325.75-215.795C341.639-227.447 359.116-236.76 377.648-243.453L367.748-199.218C366.814-195.049 369.435-190.914 373.604-189.979 374.16-189.855 374.727-189.792 375.297-189.792L394.065-189.792 384.17-170.714C382.383-167.267 383.429-163.029 386.615-160.809L441.817-122.297 441.817-91.9316C414.753-92.1363 387.729-94.0462 360.905-97.6499 359.725-89.8629 355.243-82.9638 348.608-78.7213 382.481-73.3036 416.745-70.7079 451.047-70.9611 517.047-70.9611 582.531-79.4999 605.219-96.5155L609.344-99.6093 609.344-190.045C608.782-205.038 601.839-219.076 590.266-228.624ZM485.594-193.969 498.211-169.605 463.231-145.216 495.05-252.466 504.847-247.475 514.288-205.245 492.477-205.245C488.206-205.25 484.74-201.791 484.735-197.519 484.734-196.284 485.028-195.066 485.594-193.969ZM387.672-354.844 387.672-380.924C390.186-381.076 392.69-381.375 395.169-381.821 412.467-384.102 429.349-388.853 445.298-395.929 463.226-404.942 473.508-409.366 488.383-422.839 490.348-424.768 493.506-424.739 495.435-422.774 496.165-422.03 496.644-421.075 496.804-420.044 497.99-411.851 501.073-393.809 505.177-386.611 507.028-383.073 509.116-379.663 511.427-376.407L511.427-354.844C511.39-320.687 483.709-293.006 449.552-292.969L449.552-292.969C415.393-293.003 387.709-320.685 387.672-354.844ZM401.031-169.595 413.669-193.969C415.634-197.762 414.152-202.429 410.36-204.394 409.26-204.964 408.04-205.261 406.801-205.261L384.975-205.261 394.421-247.491 404.218-252.482 436.037-145.232ZM449.629-153.724 416.397-265.785C416.326-265.978 416.245-266.167 416.155-266.352 417.745-269.766 418.567-273.487 418.563-277.252L418.563-278.413C438.403-270.31 460.628-270.31 480.469-278.413L480.469-277.268C480.466-273.403 481.329-269.587 482.995-266.099 482.959-265.996 482.902-265.903 482.871-265.8ZM588.719-110.386C566.934-98.4027 512.922-92.2667 457.265-91.9058L457.265-122.183 512.618-160.783C515.803-163.003 516.849-167.241 515.062-170.688L505.172-189.766 523.931-189.766C528.202-189.761 531.67-193.219 531.675-197.49 531.676-198.068 531.612-198.644 531.484-199.207L521.626-243.288C541.572-236.223 560.237-225.962 576.89-212.908 583.965-207.277 588.274-198.874 588.719-189.844Z"/><path d="M306.693-335.766C306.693-330.924 302.768-327 297.927-327 293.086-327 289.161-330.924 289.161-335.766 289.161-340.607 293.086-344.531 297.927-344.531 302.768-344.531 306.693-340.607 306.693-335.766Z"/><path d="M304.094-308.953C304.094-304.112 308.018-300.187 312.859-300.187 317.701-300.187 321.625-304.112 321.625-308.953 321.625-313.794 317.701-317.719 312.859-317.719 308.018-317.719 304.094-313.794 304.094-308.953Z"/><path d="M280.375-306.375C285.216-306.375 289.141-310.299 289.141-315.141 289.141-319.982 285.216-323.906 280.375-323.906 275.534-323.906 271.609-319.982 271.609-315.141 271.609-310.299 275.534-306.375 280.375-306.375Z"/><path d="M274.188-282.656C274.188-276.106 279.497-270.797 286.047-270.797 292.597-270.797 297.906-276.106 297.906-282.656 297.906-289.206 292.597-294.516 286.047-294.516 279.497-294.516 274.188-289.206 274.188-282.656Z"/></g></g></g><text font-family="Arial,Arial_MSFontService,sans-serif" font-weight="400" font-size="92" transform="matrix(1 0 0 1 786.806 -337)">Define</text><path d="M0.0490232-10.3124 93.6158-9.86758 93.5178 10.7572-0.0490232 10.3124ZM84.5983-30.9087 145.081 2.6688 81.9295 30.9087Z" fill="#281B10" transform="matrix(1.83697e-16 1 1 -1.83697e-16 1817.5 313.5)"/><path d="M0-10.3125 120.988-10.3125 120.988 480.925 110.675 470.612 853.313 470.612 843.001 480.925 843.001 420.653 863.626 420.653 863.626 491.237 100.363 491.237 100.363 0 110.675 10.3125 0 10.3125ZM822.376 430.965 853.313 369.09 884.251 430.965Z" fill="#281B10" transform="matrix(1.83697e-16 1 1 -1.83697e-16 3009.5 277.5)"/><path d="M2404.43 381.5 2404.43 1468.46 2287.06 1468.46 2287.06 1447.84 2394.11 1447.84 2383.8 1458.15 2383.8 381.5ZM2297.38 1489.09 2235.5 1458.15 2297.38 1427.21Z" fill="#281B10"/><path d="M2407.84 392.5 2407.84 1857.54 2287.06 1857.54 2287.06 1836.91 2397.53 1836.91 2387.22 1847.22 2387.22 392.5ZM2297.37 1878.16 2235.5 1847.22 2297.37 1816.29Z" fill="#281B10"/><path d="M3568.34 372.5 3568.34 1825.66 3422.06 1825.66 3422.06 1805.03 3558.02 1805.03 3547.71 1815.35 3547.71 372.5ZM3432.38 1846.28 3370.5 1815.35 3432.38 1784.41Z"/><path d="M0 0 500.61 0 500.61 111.921" stroke="#000000" stroke-width="20.625" stroke-miterlimit="8" fill="none" fill-rule="evenodd" transform="matrix(1 0 0 -1 3549.5 381.421)"/><text font-family="Arial,Arial_MSFontService,sans-serif" font-weight="700" font-size="128" transform="matrix(-1.83697e-16 -1 1 -1.83697e-16 57.4844 2046)">Cohort Selection</text><rect x="-166" y="372" width="1009" height="1916" stroke="#000000" stroke-width="13.75" stroke-miterlimit="8" stroke-dasharray="55 41.25" fill="#DCE9FC"/><text font-family="Arial,Arial_MSFontService,sans-serif" font-weight="700" font-size="128" transform="matrix(-1.83697e-16 -1 1 -1.83697e-16 14.3945 1590)">Cohort and </text><text font-family="Arial,Arial_MSFontService,sans-serif" font-weight="700" font-size="128" transform="matrix(-1.83697e-16 -1 1 -1.83697e-16 168.395 1797)">Variable Selection</text><text font-family="Arial,Arial_MSFontService,sans-serif" font-weight="700" font-size="128" transform="matrix(6.12323e-17 1 -1 6.12323e-17 452.398 2010)">…</text><text font-family="Arial,Arial_MSFontService,sans-serif" font-weight="400" font-size="83" transform="matrix(1 0 0 1 323.541 1380)">Sepsis</text><text font-family="Arial,Arial_MSFontService,sans-serif" font-weight="400" font-size="83" transform="matrix(1 0 0 1 386.978 903)">AKI</text><text font-family="Arial,Arial_MSFontService,sans-serif" font-weight="400" font-size="83" transform="matrix(1 0 0 1 305.574 1864)">Mortality</text><rect x="285" y="1529" width="173" height="111" fill="#67C8B5"/><rect x="285" y="1647" width="173" height="111" fill="#96D459"/><rect x="467" y="1647" width="172" height="111" fill="#414BB2"/><rect x="466" y="1529" width="174" height="111" fill="#FAC710"/><rect x="285" y="584" width="173" height="110" fill="#67C8B5"/><rect x="285" y="702" width="173" height="110" fill="#96D459"/><rect x="467" y="702" width="172" height="110" fill="#414BB2"/><rect x="466" y="583" width="174" height="111" fill="#FAC710"/><g clip-path="url(#clip13)"><g clip-path="url(#clip14)"><g clip-path="url(#clip15)"><path d="M98.9063 109.896C98.9063 119.607 91.034 127.479 81.3229 127.479 71.6119 127.479 63.7396 119.607 63.7396 109.896 63.7396 100.185 71.6119 92.3125 81.3229 92.3125 91.034 92.3125 98.9063 100.185 98.9063 109.896Z" fill="#FFFFFF" transform="matrix(1.00474 0 0 1 356 1540)"/><path d="M147.26 109.896C147.26 119.607 139.388 127.479 129.677 127.479 119.966 127.479 112.094 119.607 112.094 109.896 112.094 100.185 119.966 92.3125 129.677 92.3125 139.388 92.3125 147.26 100.185 147.26 109.896Z" fill="#FFFFFF" transform="matrix(1.00474 0 0 1 356 1540)"/><path d="M114.577 140.403C115.864 142.547 115.169 145.328 113.025 146.615 112.325 147.035 111.525 147.258 110.709 147.26L100.291 147.26C97.7904 147.253 95.7696 145.219 95.7773 142.719 95.7797 141.903 96.0028 141.103 96.4226 140.403L101.632 131.743C102.908 129.607 105.674 128.909 107.81 130.185 108.451 130.568 108.986 131.103 109.368 131.743Z" fill="#FFFFFF" transform="matrix(1.00474 0 0 1 356 1540)"/><path d="M105.5 19.7813C67.9376 19.7813 37.3646 52.75 37.3646 93.4115 37.3646 109.522 41.9802 122.49 52.75 136.359L52.75 147.348C52.5839 157.508 60.2243 166.103 70.3334 167.13L70.3334 184.713C70.3334 188.355 73.2854 191.307 76.9271 191.307L134.073 191.307C137.715 191.307 140.667 188.355 140.667 184.713L140.667 167.042C150.776 166.016 158.416 157.42 158.25 147.26L158.25 136.271C169.02 122.402 173.635 109.434 173.635 93.3236 173.635 52.75 143.062 19.7813 105.5 19.7813ZM146.535 129.919C145.582 131.094 145.062 132.56 145.063 134.073L145.063 147.26C145.148 150.816 142.336 153.768 138.78 153.854 138.677 153.857 138.573 153.857 138.469 153.854L134.073 153.854C130.431 153.854 127.479 156.806 127.479 160.448L127.479 178.031 118.688 178.031 118.688 164.844 109.896 164.844 109.896 178.031 101.104 178.031 101.104 164.844 92.3125 164.844 92.3125 178.031 83.5209 178.031 83.5209 160.448C83.5209 156.806 80.5688 153.854 76.9271 153.854L72.5313 153.854C68.9757 153.94 66.0235 151.127 65.9375 147.572 65.9351 147.468 65.9351 147.364 65.9375 147.26L65.9375 134.073C65.9377 132.56 65.4177 131.094 64.4649 129.919 54.5743 117.72 50.5521 107.148 50.5521 93.4115 50.5521 60.0911 75.1908 32.9688 105.5 32.9688 135.809 32.9688 160.448 60.0911 160.448 93.4115 160.448 107.148 156.426 117.72 146.535 129.919Z" fill="#FFFFFF" transform="matrix(1.00474 0 0 1 356 1540)"/></g></g></g><rect x="285" y="1045" width="173" height="111" fill="#67C8B5"/><rect x="285" y="1163" width="173" height="111" fill="#96D459"/><rect x="467" y="1163" width="172" height="111" fill="#414BB2"/><rect x="466" y="1045" width="174" height="111" fill="#FAC710"/><g clip-path="url(#clip16)"><g clip-path="url(#clip17)"><g clip-path="url(#clip18)"><path d="M106 22.0833C106 22.0833 50.7916 99.8165 50.7916 134.708 50.7916 165.183 75.5249 189.916 106 189.916 136.475 189.916 161.208 165.183 161.208 134.708 161.208 99.5957 106 22.0833 106 22.0833Z" fill="#FFFFFF" transform="matrix(1 0 0 1 356 1056)"/></g></g></g><g clip-path="url(#clip19)"><g clip-path="url(#clip20)"><g clip-path="url(#clip21)"><path d="M165.779 39.0212C155.237 33.053 141.861 36.5214 135.547 46.8608 122.982 66.0953 137.402 80.4716 140.693 92.7499L123.667 92.7499C116.349 92.7499 110.417 98.6821 110.417 106L110.417 178.875 119.25 178.875 119.25 106C119.25 103.561 121.227 101.583 123.667 101.583L140.693 101.583C137.402 113.862 123.026 128.238 135.547 147.472 141.861 157.812 155.237 161.28 165.779 155.312 183.291 144.955 194.333 122.673 194.333 97.1665 194.333 71.6603 183.291 49.3783 165.779 39.0212Z" fill="#FFFFFF" transform="matrix(1 0 0 1 356 591)"/><path d="M88.3332 92.7499 71.307 92.7499C74.5974 80.4716 88.9736 66.0953 76.4524 46.8608 70.1388 36.5214 56.7627 33.053 46.2204 39.0212 28.7083 49.3783 17.6666 71.6603 17.6666 97.1665 17.6666 122.673 28.7083 144.955 46.2204 155.312 56.7627 161.28 70.1388 157.812 76.4524 147.472 89.0178 128.238 74.5974 113.862 71.307 101.583L88.3332 101.583C90.7725 101.583 92.7499 103.561 92.7499 106L92.7499 178.875 101.583 178.875 101.583 106C101.583 98.6821 95.651 92.7499 88.3332 92.7499Z" fill="#FFFFFF" transform="matrix(1 0 0 1 356 591)"/></g></g></g><path d="M3010.36 388.125 2383.5 385.5" stroke="#000000" stroke-width="20.625" stroke-miterlimit="8" fill="none" fill-rule="evenodd"/></g></svg>