<svg width="3830" height="1926" xmlns="http://www.w3.org/2000/svg" xmlns:xlink="http://www.w3.org/1999/xlink" xml:space="preserve" overflow="hidden"><defs><clipPath id="clip0"><rect x="535" y="231" width="3830" height="1926"/></clipPath><linearGradient x1="3593" y1="1483" x2="4365" y2="1483" gradientUnits="userSpaceOnUse" spreadMethod="reflect" id="fill1"><stop offset="0"/><stop offset="0.49" stop-color="#146630"/><stop offset="1" stop-color="#00B050"/></linearGradient></defs><g clip-path="url(#clip0)" transform="translate(-535 -231)"><text font-family="Arial,Arial_MSFontService,sans-serif" font-weight="700" font-size="917" transform="matrix(1 0 0 1 1590.36 1398)">YAIB</text><text font-family="Arial,Arial_MSFontService,sans-serif" font-weight="400" font-size="229" transform="matrix(1 0 0 1 673.017 1752)">Yet Another </text><text font-family="Arial,Arial_MSFontService,sans-serif" font-weight="700" font-size="229" transform="matrix(1 0 0 1 1911.78 1752)">ICU Benchmark</text><path d="M1518.18 1451.3 1518.18 875.471 1476.36 875.471 1476.36 968.016 1413.64 968.016 1413.64 824.057C1413.64 802.464 1417.82 794.237 1418.86 792.181 1428.27 790.124 1434.55 781.898 1434.55 771.615 1434.55 760.304 1425.14 751.051 1413.64 752.078L1413.64 752.078 1247.41 752.078C1235.91 751.051 1226.5 760.304 1225.45 771.615 1225.45 780.87 1231.73 789.097 1241.14 792.181 1242.18 794.237 1246.36 802.464 1246.36 824.057L1246.36 968.016 1183.64 968.016 1183.64 824.057C1183.64 802.464 1187.82 794.237 1188.86 792.181 1198.27 790.124 1204.55 781.898 1204.55 771.615 1204.55 760.304 1195.14 751.051 1183.64 752.078L1183.64 752.078 1017.41 752.078C1005.91 751.051 996.501 760.304 995.455 771.615 995.455 780.87 1001.73 789.097 1011.14 792.181 1012.18 794.237 1016.36 802.464 1016.36 824.057L1016.36 968.016 953.637 968.016 953.637 824.057C953.637 802.464 957.819 794.237 958.864 792.181 968.273 790.124 974.545 781.898 974.545 771.615 974.545 760.304 965.136 751.051 953.637 752.078L953.637 752.078 787.409 752.078C775.909 751.051 766.501 760.304 765.455 771.615 765.455 780.87 771.727 789.097 781.136 792.181 782.182 794.237 786.364 802.464 786.364 824.057L786.364 968.016 723.636 968.016 723.636 875.471 681.819 875.471 681.819 1451.3 640 1451.3 640 1513 1560 1513 1560 1451.3 1518.18 1451.3ZM1374.96 793.21C1372.86 801.435 1371.82 811.718 1371.82 824.057L1371.82 916.602C1371.82 916.602 1350.91 906.319 1330 906.319 1309.09 906.319 1288.18 916.602 1288.18 916.602L1288.18 824.057C1288.18 811.718 1287.14 801.435 1285.05 793.21L1374.96 793.21ZM1144.96 793.21C1142.86 801.435 1141.82 811.718 1141.82 824.057L1141.82 916.602C1141.82 916.602 1120.91 906.319 1100 906.319 1079.09 906.319 1058.18 916.602 1058.18 916.602L1058.18 824.057C1058.18 811.718 1057.14 801.435 1055.05 793.21L1144.96 793.21ZM914.954 793.21C912.864 801.435 911.819 811.718 911.819 824.057L911.819 916.602C911.819 916.602 890.909 906.319 870 906.319 849.091 906.319 828.182 916.602 828.182 916.602L828.182 824.057C828.182 811.718 827.137 801.435 825.046 793.21L914.954 793.21ZM1476.36 1451.3 723.636 1451.3 723.636 1009.15 786.364 1009.15 786.364 1327.91C786.364 1373.16 824 1410.17 870 1410.17 916 1410.17 953.637 1373.16 953.637 1327.91L953.637 1009.15 1016.36 1009.15 1016.36 1327.91C1016.36 1373.16 1054 1410.17 1100 1410.17 1146 1410.17 1183.64 1373.16 1183.64 1327.91L1183.64 1009.15 1246.36 1009.15 1246.36 1327.91C1246.36 1373.16 1284 1410.17 1330 1410.17 1376 1410.17 1413.64 1373.16 1413.64 1327.91L1413.64 1009.15 1476.36 1009.15 1476.36 1451.3Z" fill-rule="evenodd"/><path d="M1557 1482 3593.08 1482" stroke="#000000" stroke-width="62.1958" stroke-miterlimit="8" fill="none" fill-rule="evenodd"/><path d="M3930.75 1760 3927.86 1760C3915.31 1758.97 3904.7 1748.7 3901.8 1735.34L3835.21 1359.21 3793.72 1492.81C3789.86 1505.14 3779.25 1513.36 3766.7 1513.36L3593 1513.36 3593 1451.7 3745.47 1451.7 3815.92 1226.64C3819.78 1213.28 3832.32 1205.06 3844.86 1206.09 3857.41 1207.11 3868.99 1217.39 3870.92 1230.75L3938.47 1616.13 4036.9 1338.66C4041.73 1326.32 4052.34 1318.1 4064.89 1319.13 4077.43 1320.16 4088.05 1328.38 4091.91 1341.74L4146.91 1533.91 4208.67 1461.98C4214.46 1455.81 4222.18 1451.7 4229.9 1451.7L4365 1451.7 4365 1513.36 4242.45 1513.36 4154.63 1616.13C4147.88 1624.35 4137.26 1627.43 4126.65 1625.38 4116.03 1623.32 4108.31 1615.1 4105.42 1603.8L4061.99 1445.53 3957.77 1740.47C3953.91 1751.78 3942.33 1760 3930.75 1760Z" fill="url(#fill1)" fill-rule="evenodd"/></g></svg>