<?xml version="1.0" encoding="UTF-8"?>
<!DOCTYPE svg PUBLIC "-//W3C//DTD SVG 1.1//EN" "http://www.w3.org/Graphics/SVG/1.1/DTD/svg11.dtd">
<svg xmlns="http://www.w3.org/2000/svg" style="background: transparent; background-color: transparent; color-scheme: light dark;" xmlns:xlink="http://www.w3.org/1999/xlink" version="1.1" width="561px" height="172px" viewBox="0 0 561 172"><defs/><g><g data-cell-id="0"><g data-cell-id="1"><g data-cell-id="0zIDfxpmD93cspgZZNxO-1"><g transform="translate(0.5,0.5)"><rect x="10.43" y="64" width="99.57" height="105" fill="none" stroke="none" pointer-events="all"/><path d="M 25.43 122.96 C 25.43 119.08 28.52 115.94 32.34 115.94 C 36.15 115.94 39.25 119.08 39.25 122.96 C 39.25 126.84 36.15 129.98 32.34 129.98 C 28.52 129.99 25.43 126.85 25.43 122.96" fill="#000000" stroke="none" pointer-events="all" style="fill: rgb(0, 0, 0);"/><path d="M 92.19 118.67 C 95.22 118.67 97.68 121.09 97.71 124.16 L 97.72 138.98 L 42.25 138.98 L 42.25 118.68 L 92.19 118.67 Z" fill="#000000" stroke="none" pointer-events="all" style="fill: rgb(0, 0, 0);"/><path d="M 35.86 138.97 C 37.74 138.97 39.26 137.42 39.26 135.52 C 39.26 133.61 37.73 132.06 35.86 132.06 L 26.03 132.06 C 24.15 132.06 22.64 133.61 22.64 135.52 C 22.64 137.43 24.15 138.97 26.03 138.97 L 35.86 138.97 Z" fill="#000000" stroke="none" pointer-events="all" style="fill: rgb(0, 0, 0);"/><path d="M 101.01 153.54 L 101.01 169 L 110 169 L 110 119.99 C 110 117.47 108 115.41 105.51 115.41 C 103.02 115.41 101 117.46 101 119.99 L 101 142.48 L 20.19 142.48 L 20.19 110.74 C 20.19 108.21 18.02 106.16 15.53 106.16 L 15.53 106.16 C 13.05 106.16 11.1 108.21 11.1 110.74 L 11.1 169 L 20.19 169 L 20.19 153.54 L 101.01 153.54 Z" fill="#000000" stroke="none" pointer-events="all" style="fill: rgb(0, 0, 0);"/><path d="M 72.48 64 C 75.36 64 80.08 65.23 82.71 68.15 L 79.17 75.06 C 77.63 73.03 75.21 71.72 72.49 71.72 C 69.81 71.72 67.41 73 65.86 74.99 L 62.26 68.3 C 65.29 65.21 69.48 64 72.48 64 M 71.46 70.96 L 73.48 70.96 L 73.48 68.91 L 75.5 68.91 L 75.5 66.86 L 73.48 66.86 L 73.48 64.8 L 71.46 64.8 L 71.46 66.85 L 69.45 66.85 L 69.45 68.9 L 71.46 68.9 L 71.46 70.96 Z" fill="#000000" stroke="none" pointer-events="all" style="fill: rgb(0, 0, 0);"/><path d="M 78.96 80.75 C 78.96 84.39 76.06 87.34 72.46 87.34 C 68.88 87.34 65.98 84.39 65.98 80.75 C 65.98 77.11 68.88 74.14 72.46 74.14 C 76.05 74.14 78.96 77.09 78.96 80.75" fill="#000000" stroke="none" pointer-events="all" style="fill: rgb(0, 0, 0);"/><path d="M 66.23 89.22 C 61.68 89.24 59.06 92.99 58.47 95.11 L 52.95 113.55 L 58.54 113.55 L 62.61 99.4 L 65.51 99.4 L 61.44 113.55 L 83.46 113.55 L 79.42 99.4 L 82.32 99.4 L 86.51 113.55 L 92.02 113.55 L 86.47 95.11 C 85.88 93.01 83.31 89.35 78.87 89.23 L 66.23 89.22 Z" fill="#000000" stroke="none" pointer-events="all" style="fill: rgb(0, 0, 0);"/><path d="M 24.87 93.47 C 16.9 93.47 10.43 86.89 10.43 78.78 C 10.43 70.68 16.9 64.1 24.87 64.1 C 32.83 64.1 39.31 70.68 39.31 78.78 C 39.31 86.89 32.83 93.47 24.87 93.47 M 24.87 89.83 C 30.86 89.83 35.74 84.87 35.74 78.77 C 35.74 72.69 30.86 67.72 24.87 67.72 C 18.88 67.72 14 72.68 14 78.77 C 14 84.88 18.88 89.83 24.87 89.83" fill="#000000" stroke="none" pointer-events="all" style="fill: rgb(0, 0, 0);"/><path d="M 24.94 80.72 C 24.62 80.86 24.22 80.85 23.9 80.63 C 23.63 80.45 23.45 80.17 23.41 79.87 L 23.4 71.33 C 23.4 70.71 23.89 70.22 24.48 70.22 C 25.08 70.22 25.57 70.72 25.57 71.33 L 25.57 77.94 L 31.14 75.28 C 31.67 75.01 32.32 75.25 32.58 75.8 C 32.84 76.35 32.6 77.01 32.06 77.28 L 24.94 80.72 Z" fill="#000000" stroke="none" pointer-events="all" style="fill: rgb(0, 0, 0);"/></g></g><g data-cell-id="0zIDfxpmD93cspgZZNxO-2"><g><g><svg xmlns="http://www.w3.org/2000/svg" fill="none" viewBox="6 7 38 29.912139892578125" height="37" width="46.87" x="14.5" y="14.5" style="font-family: initial;">&#xa;<path fill="currentColor" d="M42 26.5C42 26.7761 41.7761 27 41.5 27H37V29H40.5C40.7761 29 41 29.2239 41 29.5V30.5C41 30.7761 40.7761 31 40.5 31H32.0526V33H37.3005C34.4504 35.2724 30.0783 35.5241 26.8268 33.7328L20.9825 30.513L20.0175 32.2648L25.8617 35.4845C29.8088 37.659 35.1378 37.3726 38.6678 34.4662C39.1682 34.0542 39.6832 33.5789 40.2218 33H40.5C41.8807 33 43 31.8807 43 30.5V29.5C43 29.1874 42.9426 28.8882 42.8378 28.6123C43.5364 28.169 44 27.3886 44 26.5V25.5C44 24.6114 43.5364 23.831 42.8378 23.3877C42.9426 23.1118 43 22.8126 43 22.5V21.5C43 20.2905 42.1411 19.2816 41 19.05V18.2394C41 16.6728 39.7946 15.3699 38.2326 15.2484L35.0388 15H34.3859C29.3922 15 24.4716 16.2009 20.0393 18.5013L20.9607 20.2765C25.1083 18.1238 29.7129 17 34.3859 17H34.9612L38.0775 17.2424C38.5982 17.2829 39 17.7172 39 18.2394V19H37V21H40.5C40.7761 21 41 21.2239 41 21.5V22.5C41 22.7761 40.7761 23 40.5 23H37V25H41.5C41.7761 25 42 25.2239 42 25.5V26.5Z" clip-rule="evenodd" fill-rule="evenodd"/>&#xa;<path fill="currentColor" d="M6 20L15 20V22L6 22L6 20Z" clip-rule="evenodd" fill-rule="evenodd"/>&#xa;<path fill="currentColor" d="M6 30H15V32H6L6 30Z" clip-rule="evenodd" fill-rule="evenodd"/>&#xa;<path fill="currentColor" d="M14 10C14 8.34315 15.3431 7 17 7C18.6569 7 20 8.34315 20 10V18C20 19.6569 18.6569 21 17 21C15.3431 21 14 19.6569 14 18V10ZM18 10.5554C18 11.1077 17.5523 11.5554 17 11.5554C16.4477 11.5554 16 11.1077 16 10.5554C16 10.0031 16.4477 9.55542 17 9.55542C17.5523 9.55542 18 10.0031 18 10.5554ZM17 15C17.5523 15 18 14.5523 18 14C18 13.4477 17.5523 13 17 13C16.4477 13 16 13.4477 16 14C16 14.5523 16.4477 15 17 15Z" clip-rule="evenodd" fill-rule="evenodd"/>&#xa;<path fill="currentColor" d="M14 10C14 8.34315 15.3431 7 17 7C18.6569 7 20 8.34315 20 10V18C20 19.6569 18.6569 21 17 21C15.3431 21 14 19.6569 14 18V10ZM18 16.8293V18C18 18.5523 17.5523 19 17 19C16.4477 19 16 18.5523 16 18V16.8293C16.3128 16.9398 16.6494 17 17 17C17.3506 17 17.6872 16.9398 18 16.8293ZM17.8283 13.4396C17.9367 13.5995 18 13.7923 18 14C18 14.5523 17.5523 15 17 15C16.4477 15 16 14.5523 16 14C16 13.7923 16.0633 13.5995 16.1717 13.4396C16.3515 13.1743 16.6554 13 17 13C17.3446 13 17.6485 13.1743 17.8283 13.4396ZM17.8283 11.1158C17.9367 10.956 18 10.7631 18 10.5554C18 10.0031 17.5523 9.55542 17 9.55542C16.4477 9.55542 16 10.0031 16 10.5554C16 10.7631 16.0633 10.956 16.1717 11.1158C16.3515 11.3811 16.6554 11.5554 17 11.5554C17.3446 11.5554 17.6485 11.3811 17.8283 11.1158Z" clip-rule="evenodd" fill-rule="evenodd"/>&#xa;<path fill="currentColor" d="M12 20C12 18.8954 12.8954 18 14 18H20C21.1046 18 22 18.8954 22 20V32C22 32.7571 21.5793 33.4159 20.959 33.7555C20.4745 34.0207 20 34.4477 20 35C20 35.5523 19.5523 36 19 36H15C14.4477 36 14 35.5523 14 35C14 34.4477 13.5255 34.0207 13.041 33.7555C12.4207 33.4159 12 32.7571 12 32V20ZM15.5 21C15.2239 21 15 21.2239 15 21.5V30.5C15 30.7761 15.2239 31 15.5 31H18.5C18.7761 31 19 30.7761 19 30.5V21.5C19 21.2239 18.7761 21 18.5 21H15.5Z" clip-rule="evenodd" fill-rule="evenodd"/>&#xa;<path fill="currentColor" d="M15.2357 32.9862C15.4599 33.2511 15.6804 33.5913 15.8266 34H18.1734C18.3196 33.5913 18.5401 33.2511 18.7643 32.9862M14 18C12.8954 18 12 18.8954 12 20V32C12 32.7571 12.4207 33.4159 13.041 33.7555C13.5255 34.0207 14 34.4477 14 35C14 35.5523 14.4477 36 15 36H19C19.5523 36 20 35.5523 20 35C20 34.4477 20.4745 34.0207 20.959 33.7555C21.5793 33.4159 22 32.7571 22 32V20C22 18.8954 21.1046 18 20 18H14ZM15 21.5C15 21.2239 15.2239 21 15.5 21H18.5C18.7761 21 19 21.2239 19 21.5V30.5C19 30.7761 18.7761 31 18.5 31H15.5C15.2239 31 15 30.7761 15 30.5V21.5Z" clip-rule="evenodd" fill-rule="evenodd"/>&#xa;</svg></g></g></g><g data-cell-id="0zIDfxpmD93cspgZZNxO-3"><g><g><svg xmlns:xlink="http://www.w3.org/1999/xlink" xmlns="http://www.w3.org/2000/svg" overflow="hidden" xml:space="preserve" height="14.5" width="14.5" viewBox="16.75 16 63 63.0400390625" x="0" y="3.5" style="font-family: initial;"><g transform="translate(-745 -1048)"><g><g><g><g><path fill-opacity="1" fill-rule="nonzero" fill="#000000" d="M799.05 1127 793.05 1127C793.072 1109.5 807.252 1095.32 824.75 1095.3L824.75 1101.3C810.563 1101.32 799.067 1112.81 799.05 1127Z"/><path fill-opacity="1" fill-rule="nonzero" fill="#000000" d="M783.4 1127 777.4 1127C777.45 1100.88 798.626 1079.72 824.75 1079.69L824.75 1085.69C801.94 1085.72 783.45 1104.19 783.4 1127Z"/><path fill-opacity="1" fill-rule="nonzero" fill="#000000" d="M767.75 1127 761.75 1127C761.789 1092.22 789.972 1064.04 824.75 1064L824.75 1070C793.284 1070.03 767.783 1095.53 767.75 1127Z"/><path fill-opacity="1" fill-rule="nonzero" fill="#000000" d="M824.75 1119.21C824.75 1123.53 821.244 1127.04 816.92 1127.04 812.596 1127.04 809.09 1123.53 809.09 1119.21 809.09 1114.89 812.596 1111.38 816.92 1111.38 821.244 1111.38 824.75 1114.89 824.75 1119.21Z"/></g></g></g></g></g></svg></g></g></g><g data-cell-id="0zIDfxpmD93cspgZZNxO-4"><g><g><svg xmlns="http://www.w3.org/2000/svg" fill="none" viewBox="15.987997055053711 3.9802582263946533 16.0000057220459 40.00004577636719" height="40" width="16" x="84.5" y="14.5" style="font-family: initial;">&#xa;<path fill="currentColor" d="M18.9829 29.739L18.9814 27.9604L18.9763 21.7487L18.9662 9.3415C18.9638 6.38283 21.2004 3.98253 23.9618 3.98026C26.7232 3.978 28.9638 6.37464 28.9662 9.33331L28.9763 21.7405L28.9814 27.9527L28.9829 29.7308C30.813 31.1954 31.9859 33.4473 31.988 35.9737C31.9916 40.392 28.4128 43.9766 23.9945 43.9803C19.5763 43.9839 15.9916 40.4051 15.988 35.9868C15.9859 33.4604 17.1552 31.2066 18.9829 29.739ZM22.9584 21.4023C24.1541 21.7114 25.5195 22.0644 26.9766 22.0388L26.9749 19.9538L24.9749 19.9554C24.4226 19.9558 23.9745 19.5085 23.9741 18.9562C23.9736 18.4039 24.421 17.9558 24.9732 17.9554L26.9732 17.9538L26.9716 15.9538L24.9716 15.9554C24.4193 15.9558 23.9712 15.5085 23.9708 14.9562C23.9703 14.4039 24.4177 13.9558 24.97 13.9554L26.97 13.9538L26.9683 11.9538L24.9683 11.9554C24.416 11.9558 23.968 11.5085 23.9675 10.9562C23.9671 10.4039 24.4144 9.95585 24.9667 9.9554L26.9667 9.95376L26.9662 9.33495C26.9647 7.55975 25.6204 6.12176 23.9635 6.12312C22.3067 6.12448 20.9647 7.56466 20.9662 9.33986L20.9757 20.9813C21.5615 21.0412 22.2283 21.2136 22.9584 21.4023Z" clip-rule="evenodd" fill-rule="evenodd"/>&#xa;</svg></g></g></g><g data-cell-id="0zIDfxpmD93cspgZZNxO-5"><g><g><svg xmlns:xlink="http://www.w3.org/1999/xlink" xmlns="http://www.w3.org/2000/svg" overflow="hidden" xml:space="preserve" height="14.5" width="14.5" viewBox="16.75 16 63 63.0400390625" x="61.37" y="0" style="font-family: initial;"><g transform="translate(-745 -1048)"><g><g><g><g><path fill-opacity="1" fill-rule="nonzero" fill="#000000" d="M799.05 1127 793.05 1127C793.072 1109.5 807.252 1095.32 824.75 1095.3L824.75 1101.3C810.563 1101.32 799.067 1112.81 799.05 1127Z"/><path fill-opacity="1" fill-rule="nonzero" fill="#000000" d="M783.4 1127 777.4 1127C777.45 1100.88 798.626 1079.72 824.75 1079.69L824.75 1085.69C801.94 1085.72 783.45 1104.19 783.4 1127Z"/><path fill-opacity="1" fill-rule="nonzero" fill="#000000" d="M767.75 1127 761.75 1127C761.789 1092.22 789.972 1064.04 824.75 1064L824.75 1070C793.284 1070.03 767.783 1095.53 767.75 1127Z"/><path fill-opacity="1" fill-rule="nonzero" fill="#000000" d="M824.75 1119.21C824.75 1123.53 821.244 1127.04 816.92 1127.04 812.596 1127.04 809.09 1123.53 809.09 1119.21 809.09 1114.89 812.596 1111.38 816.92 1111.38 821.244 1111.38 824.75 1114.89 824.75 1119.21Z"/></g></g></g></g></g></svg></g></g></g><g data-cell-id="W1Vf1BQikMEJqxNUX5pf-11"><g transform="translate(0.5,0.5)"><rect x="219" y="4.5" width="51" height="55.5" fill="none" stroke="none" pointer-events="all"/><path d="M 269.99 60 L 265.35 60 L 265.35 51.6 L 223.68 51.6 L 223.68 60 L 219 60 L 219 28.34 C 219 26.98 220.01 25.87 221.29 25.87 L 221.29 25.87 C 222.56 25.87 223.68 26.98 223.68 28.35 L 223.68 45.6 L 265.36 45.6 L 265.36 33.37 C 265.36 32 266.4 30.88 267.68 30.88 C 268.97 30.88 270 32 270 33.37 L 270 60 Z" fill="#000000" stroke="none" pointer-events="all" style="fill: rgb(0, 0, 0);"/><path d="M 229.96 31.17 C 231.93 31.17 233.52 32.88 233.52 34.99 C 233.52 37.09 231.93 38.8 229.96 38.8 C 227.99 38.8 226.39 37.09 226.39 34.99 C 226.39 32.88 227.99 31.17 229.96 31.17" fill="#000000" stroke="none" pointer-events="all" style="fill: rgb(0, 0, 0);"/><path d="M 233.52 41.8 C 233.52 42.84 232.74 43.69 231.76 43.69 L 226.7 43.69 C 225.73 43.69 224.94 42.84 224.94 41.8 C 224.94 40.77 225.73 39.93 226.7 39.93 L 231.76 39.93 C 232.73 39.93 233.52 40.77 233.52 41.8" fill="#000000" stroke="none" pointer-events="all" style="fill: rgb(0, 0, 0);"/><path d="M 260.81 32.65 C 262.37 32.65 263.64 33.97 263.65 35.64 L 263.66 43.69 L 235.06 43.69 L 235.06 32.66 L 260.81 32.65 Z" fill="#000000" stroke="none" pointer-events="all" style="fill: rgb(0, 0, 0);"/><path d="M 243.86 30.91 L 243.86 13.49 C 243.86 11.61 242.44 10.09 240.69 10.09 C 238.95 10.09 237.53 11.6 237.53 13.46 C 237.53 13.78 237.29 14.04 237 14.04 C 236.7 14.04 236.47 13.78 236.47 13.46 C 236.47 13.05 236.15 12.71 235.76 12.71 C 235.37 12.71 235.06 13.05 235.06 13.46 C 235.06 14.62 235.93 15.54 237 15.54 C 238.07 15.54 238.94 14.61 238.94 13.46 C 238.94 12.43 239.72 11.59 240.69 11.59 C 241.65 11.59 242.45 12.44 242.45 13.48 L 242.45 30.9 L 243.86 30.9 Z" fill="#000000" stroke="none" pointer-events="all" style="fill: rgb(0, 0, 0);"/><path d="M 237.96 25.62 L 239.75 25.62 C 239.75 25.62 240.1 23.99 240.1 21.38 C 240.1 18.77 239.75 17.14 239.75 17.14 L 235.17 17.14 C 235.17 17.14 234.76 18.46 234.76 21.38 C 234.76 24.3 235.17 25.62 235.17 25.62 L 236.99 25.62 C 236.99 25.63 236.99 25.64 236.99 25.64 C 236.99 25.67 237.05 28.82 235.12 30.91 L 236.39 30.91 C 237.98 28.62 237.96 25.84 237.96 25.62" fill="#000000" stroke="none" pointer-events="all" style="fill: rgb(0, 0, 0);"/><path d="M 250.65 24.25 L 270 24.25 L 270 4.5 L 250.65 4.5 L 250.65 24.25 Z M 252.31 8.99 C 252.31 7.53 253.4 6.35 254.77 6.35 L 265.89 6.35 C 267.25 6.35 268.35 7.53 268.35 8.99 L 268.35 16.15 L 266.86 16.15 L 265.93 13.46 C 265.88 13.29 265.73 13.18 265.57 13.19 C 265.41 13.19 265.26 13.3 265.2 13.46 C 265.2 13.46 264.94 14.26 264.69 15.04 C 264.29 13.28 263.47 9.56 263.47 9.56 C 263.42 9.36 263.25 9.23 263.06 9.24 C 262.87 9.25 262.72 9.41 262.7 9.6 C 262.7 9.6 262.06 15.66 261.88 17.4 C 261.55 16.86 261.22 16.34 261.22 16.34 C 261.14 16.22 261.02 16.15 260.89 16.15 L 259.39 16.15 C 259.23 15.7 258.47 13.46 258.47 13.46 C 258.41 13.29 258.26 13.18 258.1 13.19 C 257.93 13.19 257.79 13.3 257.73 13.46 C 257.73 13.46 257.47 14.26 257.21 15.04 C 256.82 13.28 255.99 9.56 255.99 9.56 C 255.95 9.36 255.78 9.23 255.59 9.24 C 255.4 9.25 255.25 9.41 255.22 9.6 C 255.22 9.6 254.59 15.66 254.4 17.4 C 254.07 16.86 253.74 16.34 253.74 16.34 C 253.67 16.22 253.55 16.15 253.42 16.15 L 252.31 16.15 L 252.31 8.99 Z M 265.89 22.61 L 254.77 22.61 C 253.4 22.61 252.31 21.43 252.31 19.97 L 252.31 16.99 L 253.22 16.99 C 253.41 17.3 254.36 18.82 254.36 18.82 C 254.45 18.97 254.61 19.03 254.77 18.99 C 254.93 18.95 255.05 18.81 255.07 18.63 C 255.07 18.63 255.49 14.64 255.76 12.08 C 256.21 14.1 256.77 16.6 256.77 16.6 C 256.81 16.78 256.95 16.91 257.12 16.93 C 257.3 16.94 257.45 16.82 257.51 16.65 C 257.51 16.65 257.83 15.69 258.11 14.83 C 258.41 15.71 258.76 16.71 258.76 16.71 C 258.81 16.87 258.96 16.99 259.12 16.99 L 260.68 16.99 C 260.87 17.3 261.82 18.82 261.82 18.82 C 261.91 18.97 262.07 19.03 262.23 18.99 C 262.4 18.95 262.51 18.81 262.53 18.63 C 262.53 18.63 262.95 14.64 263.22 12.08 C 263.67 14.11 264.23 16.61 264.23 16.61 C 264.27 16.79 264.42 16.92 264.59 16.93 C 264.76 16.94 264.92 16.83 264.98 16.66 C 264.98 16.66 265.3 15.69 265.58 14.84 C 265.88 15.71 266.22 16.72 266.22 16.72 C 266.28 16.88 266.42 16.99 266.58 16.99 L 268.35 16.99 L 268.35 19.97 C 268.35 21.42 267.25 22.61 265.89 22.61" fill="#000000" stroke="none" pointer-events="all" style="fill: rgb(0, 0, 0);"/></g></g><g data-cell-id="W1Vf1BQikMEJqxNUX5pf-16"><g transform="translate(0.5,0.5)"><path d="M 130.44 69.01 L 130.56 59.01 L 169.91 59.5 L 160.27 59.98 L 159.75 49.49 L 179.5 64.02 L 161.3 80.45 L 160.77 69.97 L 170.09 69.5 Z" fill="#000000" stroke="#000000" stroke-miterlimit="1.42" pointer-events="all" style="fill: light-dark(rgb(0, 0, 0), rgb(255, 218, 218)); stroke: light-dark(rgb(0, 0, 0), rgb(255, 255, 255));"/><path d="M 160.27 59.98 L 159.75 49.49 L 179.5 64.02 L 161.3 80.45 L 160.77 69.97" fill="none" stroke="#000000" stroke-miterlimit="4" pointer-events="all" style="stroke: light-dark(rgb(0, 0, 0), rgb(255, 255, 255));"/></g></g><g data-cell-id="W1Vf1BQikMEJqxNUX5pf-17"><g transform="translate(0.5,0.5)"><path d="M 370.5 75 L 370.5 65 L 400.5 65 L 400.5 54.5 L 419.5 70 L 400.5 85.5 L 400.5 75 Z" fill="#000000" stroke="#000000" stroke-miterlimit="10" pointer-events="all" style="fill: light-dark(rgb(0, 0, 0), rgb(255, 218, 218)); stroke: light-dark(rgb(0, 0, 0), rgb(255, 255, 255));"/></g></g><g data-cell-id="W1Vf1BQikMEJqxNUX5pf-19"><g><g><svg xmlns="http://www.w3.org/2000/svg" xmlns:xlink="http://www.w3.org/1999/xlink" width="60.29" height="50" xml:space="preserve" overflow="hidden" viewBox="18.5 31.42498779296875 205 169.57501220703125" x="439.42" y="70" style="font-family: initial;"><g transform="translate(-865 -377)"><g><g><g><g><path d="M1016 473 1016 465.5 986 435.5 956 465.5 956 473 883.5 473 883.5 483 888.5 483 888.5 578 1083.5 578 1083.5 483 1088.5 483 1088.5 473ZM913.5 558 898.5 558 898.5 543 913.5 543ZM913.5 533 898.5 533 898.5 518 913.5 518ZM913.5 508 898.5 508 898.5 493 913.5 493ZM938.5 558 923.5 558 923.5 543 938.5 543ZM938.5 533 923.5 533 923.5 518 938.5 518ZM938.5 508 923.5 508 923.5 493 938.5 493ZM963.5 558 948.5 558 948.5 543 963.5 543ZM963.5 533 948.5 533 948.5 518 963.5 518ZM963.5 508 948.5 508 948.5 493 963.5 493ZM976 568 976 533 996 533 996 568ZM1003.5 482.7 998.825 490.8 990.675 486.075 990.675 495.5 981.325 495.5 981.325 486.075 973.175 490.8 968.5 482.7 976.675 478 968.5 473.3 973.175 465.2 981.325 469.925 981.325 460.5 990.675 460.5 990.675 469.925 998.825 465.2 1003.5 473.3 995.325 478ZM1023.5 558 1008.5 558 1008.5 543 1023.5 543ZM1023.5 533 1008.5 533 1008.5 518 1023.5 518ZM1023.5 508 1008.5 508 1008.5 493 1023.5 493ZM1048.5 558 1033.5 558 1033.5 543 1048.5 543ZM1048.5 533 1033.5 533 1033.5 518 1048.5 518ZM1048.5 508 1033.5 508 1033.5 493 1048.5 493ZM1073.5 558 1058.5 558 1058.5 543 1073.5 543ZM1073.5 533 1058.5 533 1058.5 518 1073.5 518ZM1073.5 508 1058.5 508 1058.5 493 1073.5 493Z" fill="#000000" fill-rule="nonzero" fill-opacity="1"/><path d="M986 422.575 1022.47 459.025 1029.53 451.975 986 408.425 942.475 451.975 949.525 459.025 986 422.575Z" fill="#000000" fill-rule="nonzero" fill-opacity="1"/></g></g></g></g></g></svg></g></g></g><g data-cell-id="W1Vf1BQikMEJqxNUX5pf-22"><g transform="translate(0.5,0.5)"><path d="M 419.41 105.14 L 419.59 115.14 L 400.02 115.5 L 389.44 115.37 L 389.31 125.87 L 370.5 110.14 L 389.69 94.87 L 389.56 105.37 L 399.98 105.5 Z" fill="#000000" stroke="#000000" stroke-miterlimit="1.42" pointer-events="all" style="fill: light-dark(rgb(0, 0, 0), rgb(255, 218, 218)); stroke: light-dark(rgb(0, 0, 0), rgb(255, 255, 255));"/><path d="M 389.44 115.37 L 389.31 125.87 L 370.5 110.14 L 389.69 94.87 L 389.56 105.37" fill="none" stroke="#000000" stroke-miterlimit="4" pointer-events="all" style="stroke: light-dark(rgb(0, 0, 0), rgb(255, 255, 255));"/></g></g><g data-cell-id="W1Vf1BQikMEJqxNUX5pf-23"><g transform="translate(0.5,0.5)"><path d="M 179.5 99.13 L 179.5 109.13 L 149.5 109.13 L 149.5 119.63 L 130.5 104.13 L 149.5 88.63 L 149.5 99.13 Z" fill="#000000" stroke="#000000" stroke-miterlimit="10" pointer-events="all" style="fill: light-dark(rgb(0, 0, 0), rgb(255, 218, 218)); stroke: light-dark(rgb(0, 0, 0), rgb(255, 255, 255));"/></g></g><g data-cell-id="W1Vf1BQikMEJqxNUX5pf-24"/><g data-cell-id="W1Vf1BQikMEJqxNUX5pf-25"/><g data-cell-id="W1Vf1BQikMEJqxNUX5pf-26"><g transform="translate(0.5,0.5)"><rect x="288" y="4.5" width="51" height="55.5" fill="none" stroke="none" pointer-events="all"/><path d="M 338.99 60 L 334.35 60 L 334.35 51.6 L 292.68 51.6 L 292.68 60 L 288 60 L 288 28.34 C 288 26.98 289.01 25.87 290.29 25.87 L 290.29 25.87 C 291.56 25.87 292.68 26.98 292.68 28.35 L 292.68 45.6 L 334.36 45.6 L 334.36 33.37 C 334.36 32 335.4 30.88 336.68 30.88 C 337.97 30.88 339 32 339 33.37 L 339 60 Z" fill="#000000" stroke="none" pointer-events="all" style="fill: rgb(0, 0, 0);"/><path d="M 298.96 31.17 C 300.93 31.17 302.52 32.88 302.52 34.99 C 302.52 37.09 300.93 38.8 298.96 38.8 C 296.99 38.8 295.39 37.09 295.39 34.99 C 295.39 32.88 296.99 31.17 298.96 31.17" fill="#000000" stroke="none" pointer-events="all" style="fill: rgb(0, 0, 0);"/><path d="M 302.52 41.8 C 302.52 42.84 301.74 43.69 300.76 43.69 L 295.7 43.69 C 294.73 43.69 293.94 42.84 293.94 41.8 C 293.94 40.77 294.73 39.93 295.7 39.93 L 300.76 39.93 C 301.73 39.93 302.52 40.77 302.52 41.8" fill="#000000" stroke="none" pointer-events="all" style="fill: rgb(0, 0, 0);"/><path d="M 329.81 32.65 C 331.37 32.65 332.64 33.97 332.65 35.64 L 332.66 43.69 L 304.06 43.69 L 304.06 32.66 L 329.81 32.65 Z" fill="#000000" stroke="none" pointer-events="all" style="fill: rgb(0, 0, 0);"/><path d="M 312.86 30.91 L 312.86 13.49 C 312.86 11.61 311.44 10.09 309.69 10.09 C 307.95 10.09 306.53 11.6 306.53 13.46 C 306.53 13.78 306.29 14.04 306 14.04 C 305.7 14.04 305.47 13.78 305.47 13.46 C 305.47 13.05 305.15 12.71 304.76 12.71 C 304.37 12.71 304.06 13.05 304.06 13.46 C 304.06 14.62 304.93 15.54 306 15.54 C 307.07 15.54 307.94 14.61 307.94 13.46 C 307.94 12.43 308.72 11.59 309.69 11.59 C 310.65 11.59 311.45 12.44 311.45 13.48 L 311.45 30.9 L 312.86 30.9 Z" fill="#000000" stroke="none" pointer-events="all" style="fill: rgb(0, 0, 0);"/><path d="M 306.96 25.62 L 308.75 25.62 C 308.75 25.62 309.1 23.99 309.1 21.38 C 309.1 18.77 308.75 17.14 308.75 17.14 L 304.17 17.14 C 304.17 17.14 303.76 18.46 303.76 21.38 C 303.76 24.3 304.17 25.62 304.17 25.62 L 305.99 25.62 C 305.99 25.63 305.99 25.64 305.99 25.64 C 305.99 25.67 306.05 28.82 304.12 30.91 L 305.39 30.91 C 306.98 28.62 306.96 25.84 306.96 25.62" fill="#000000" stroke="none" pointer-events="all" style="fill: rgb(0, 0, 0);"/><path d="M 319.65 24.25 L 339 24.25 L 339 4.5 L 319.65 4.5 L 319.65 24.25 Z M 321.31 8.99 C 321.31 7.53 322.4 6.35 323.77 6.35 L 334.89 6.35 C 336.25 6.35 337.35 7.53 337.35 8.99 L 337.35 16.15 L 335.86 16.15 L 334.93 13.46 C 334.88 13.29 334.73 13.18 334.57 13.19 C 334.41 13.19 334.26 13.3 334.2 13.46 C 334.2 13.46 333.94 14.26 333.69 15.04 C 333.29 13.28 332.47 9.56 332.47 9.56 C 332.42 9.36 332.25 9.23 332.06 9.24 C 331.87 9.25 331.72 9.41 331.7 9.6 C 331.7 9.6 331.06 15.66 330.88 17.4 C 330.55 16.86 330.22 16.34 330.22 16.34 C 330.14 16.22 330.02 16.15 329.89 16.15 L 328.39 16.15 C 328.23 15.7 327.47 13.46 327.47 13.46 C 327.41 13.29 327.26 13.18 327.1 13.19 C 326.93 13.19 326.79 13.3 326.73 13.46 C 326.73 13.46 326.47 14.26 326.21 15.04 C 325.82 13.28 324.99 9.56 324.99 9.56 C 324.95 9.36 324.78 9.23 324.59 9.24 C 324.4 9.25 324.25 9.41 324.22 9.6 C 324.22 9.6 323.59 15.66 323.4 17.4 C 323.07 16.86 322.74 16.34 322.74 16.34 C 322.67 16.22 322.55 16.15 322.42 16.15 L 321.31 16.15 L 321.31 8.99 Z M 334.89 22.61 L 323.77 22.61 C 322.4 22.61 321.31 21.43 321.31 19.97 L 321.31 16.99 L 322.22 16.99 C 322.41 17.3 323.36 18.82 323.36 18.82 C 323.45 18.97 323.61 19.03 323.77 18.99 C 323.93 18.95 324.05 18.81 324.07 18.63 C 324.07 18.63 324.49 14.64 324.76 12.08 C 325.21 14.1 325.77 16.6 325.77 16.6 C 325.81 16.78 325.95 16.91 326.12 16.93 C 326.3 16.94 326.45 16.82 326.51 16.65 C 326.51 16.65 326.83 15.69 327.11 14.83 C 327.41 15.71 327.76 16.71 327.76 16.71 C 327.81 16.87 327.96 16.99 328.12 16.99 L 329.68 16.99 C 329.87 17.3 330.82 18.82 330.82 18.82 C 330.91 18.97 331.07 19.03 331.23 18.99 C 331.4 18.95 331.51 18.81 331.53 18.63 C 331.53 18.63 331.95 14.64 332.22 12.08 C 332.67 14.11 333.23 16.61 333.23 16.61 C 333.27 16.79 333.42 16.92 333.59 16.93 C 333.76 16.94 333.92 16.83 333.98 16.66 C 333.98 16.66 334.3 15.69 334.58 14.84 C 334.88 15.71 335.22 16.72 335.22 16.72 C 335.28 16.88 335.42 16.99 335.58 16.99 L 337.35 16.99 L 337.35 19.97 C 337.35 21.42 336.25 22.61 334.89 22.61" fill="#000000" stroke="none" pointer-events="all" style="fill: rgb(0, 0, 0);"/></g></g><g data-cell-id="W1Vf1BQikMEJqxNUX5pf-27"><g transform="translate(0.5,0.5)"><rect x="254" y="60" width="51" height="55.5" fill="none" stroke="none" pointer-events="all"/><path d="M 304.99 115.5 L 300.35 115.5 L 300.35 107.1 L 258.68 107.1 L 258.68 115.5 L 254 115.5 L 254 83.84 C 254 82.48 255.01 81.37 256.29 81.37 L 256.29 81.37 C 257.56 81.37 258.68 82.48 258.68 83.85 L 258.68 101.1 L 300.36 101.1 L 300.36 88.87 C 300.36 87.5 301.4 86.38 302.68 86.38 C 303.97 86.38 305 87.5 305 88.87 L 305 115.5 Z" fill="#000000" stroke="none" pointer-events="all" style="fill: rgb(0, 0, 0);"/><path d="M 264.96 86.67 C 266.93 86.67 268.52 88.38 268.52 90.49 C 268.52 92.59 266.93 94.3 264.96 94.3 C 262.99 94.3 261.39 92.59 261.39 90.49 C 261.39 88.38 262.99 86.67 264.96 86.67" fill="#000000" stroke="none" pointer-events="all" style="fill: rgb(0, 0, 0);"/><path d="M 268.52 97.3 C 268.52 98.34 267.74 99.19 266.76 99.19 L 261.7 99.19 C 260.73 99.19 259.94 98.34 259.94 97.3 C 259.94 96.27 260.73 95.43 261.7 95.43 L 266.76 95.43 C 267.73 95.43 268.52 96.27 268.52 97.3" fill="#000000" stroke="none" pointer-events="all" style="fill: rgb(0, 0, 0);"/><path d="M 295.81 88.15 C 297.37 88.15 298.64 89.47 298.65 91.14 L 298.66 99.19 L 270.06 99.19 L 270.06 88.16 L 295.81 88.15 Z" fill="#000000" stroke="none" pointer-events="all" style="fill: rgb(0, 0, 0);"/><path d="M 278.86 86.41 L 278.86 68.99 C 278.86 67.11 277.44 65.59 275.69 65.59 C 273.95 65.59 272.53 67.1 272.53 68.96 C 272.53 69.28 272.29 69.54 272 69.54 C 271.7 69.54 271.47 69.28 271.47 68.96 C 271.47 68.55 271.15 68.21 270.76 68.21 C 270.37 68.21 270.06 68.55 270.06 68.96 C 270.06 70.12 270.93 71.04 272 71.04 C 273.07 71.04 273.94 70.11 273.94 68.96 C 273.94 67.93 274.72 67.09 275.69 67.09 C 276.65 67.09 277.45 67.94 277.45 68.98 L 277.45 86.4 L 278.86 86.4 Z" fill="#000000" stroke="none" pointer-events="all" style="fill: rgb(0, 0, 0);"/><path d="M 272.96 81.12 L 274.75 81.12 C 274.75 81.12 275.1 79.49 275.1 76.88 C 275.1 74.27 274.75 72.64 274.75 72.64 L 270.17 72.64 C 270.17 72.64 269.76 73.96 269.76 76.88 C 269.76 79.8 270.17 81.12 270.17 81.12 L 271.99 81.12 C 271.99 81.13 271.99 81.14 271.99 81.14 C 271.99 81.17 272.05 84.32 270.12 86.41 L 271.39 86.41 C 272.98 84.12 272.96 81.34 272.96 81.12" fill="#000000" stroke="none" pointer-events="all" style="fill: rgb(0, 0, 0);"/><path d="M 285.65 79.75 L 305 79.75 L 305 60 L 285.65 60 L 285.65 79.75 Z M 287.31 64.49 C 287.31 63.03 288.4 61.85 289.77 61.85 L 300.89 61.85 C 302.25 61.85 303.35 63.03 303.35 64.49 L 303.35 71.65 L 301.86 71.65 L 300.93 68.96 C 300.88 68.79 300.73 68.68 300.57 68.69 C 300.41 68.69 300.26 68.8 300.2 68.96 C 300.2 68.96 299.94 69.76 299.69 70.54 C 299.29 68.78 298.47 65.06 298.47 65.06 C 298.42 64.86 298.25 64.73 298.06 64.74 C 297.87 64.75 297.72 64.91 297.7 65.1 C 297.7 65.1 297.06 71.16 296.88 72.9 C 296.55 72.36 296.22 71.84 296.22 71.84 C 296.14 71.72 296.02 71.65 295.89 71.65 L 294.39 71.65 C 294.23 71.2 293.47 68.96 293.47 68.96 C 293.41 68.79 293.26 68.68 293.1 68.69 C 292.93 68.69 292.79 68.8 292.73 68.96 C 292.73 68.96 292.47 69.76 292.21 70.54 C 291.82 68.78 290.99 65.06 290.99 65.06 C 290.95 64.86 290.78 64.73 290.59 64.74 C 290.4 64.75 290.25 64.91 290.22 65.1 C 290.22 65.1 289.59 71.16 289.4 72.9 C 289.07 72.36 288.74 71.84 288.74 71.84 C 288.67 71.72 288.55 71.65 288.42 71.65 L 287.31 71.65 L 287.31 64.49 Z M 300.89 78.11 L 289.77 78.11 C 288.4 78.11 287.31 76.93 287.31 75.47 L 287.31 72.49 L 288.22 72.49 C 288.41 72.8 289.36 74.32 289.36 74.32 C 289.45 74.47 289.61 74.53 289.77 74.49 C 289.93 74.45 290.05 74.31 290.07 74.13 C 290.07 74.13 290.49 70.14 290.76 67.58 C 291.21 69.6 291.77 72.1 291.77 72.1 C 291.81 72.28 291.95 72.41 292.12 72.43 C 292.3 72.44 292.45 72.32 292.51 72.15 C 292.51 72.15 292.83 71.19 293.11 70.33 C 293.41 71.21 293.76 72.21 293.76 72.21 C 293.81 72.37 293.96 72.49 294.12 72.49 L 295.68 72.49 C 295.87 72.8 296.82 74.32 296.82 74.32 C 296.91 74.47 297.07 74.53 297.23 74.49 C 297.4 74.45 297.51 74.31 297.53 74.13 C 297.53 74.13 297.95 70.14 298.22 67.58 C 298.67 69.61 299.23 72.11 299.23 72.11 C 299.27 72.29 299.42 72.42 299.59 72.43 C 299.76 72.44 299.92 72.33 299.98 72.16 C 299.98 72.16 300.3 71.19 300.58 70.34 C 300.88 71.21 301.22 72.22 301.22 72.22 C 301.28 72.38 301.42 72.49 301.58 72.49 L 303.35 72.49 L 303.35 75.47 C 303.35 76.92 302.25 78.11 300.89 78.11" fill="#000000" stroke="none" pointer-events="all" style="fill: rgb(0, 0, 0);"/></g></g><g data-cell-id="W1Vf1BQikMEJqxNUX5pf-28"><g transform="translate(0.5,0.5)"><rect x="219" y="115.5" width="51" height="55.5" fill="none" stroke="none" pointer-events="all"/><path d="M 269.99 171 L 265.35 171 L 265.35 162.6 L 223.68 162.6 L 223.68 171 L 219 171 L 219 139.34 C 219 137.98 220.01 136.87 221.29 136.87 L 221.29 136.87 C 222.56 136.87 223.68 137.98 223.68 139.35 L 223.68 156.6 L 265.36 156.6 L 265.36 144.37 C 265.36 143 266.4 141.88 267.68 141.88 C 268.97 141.88 270 143 270 144.37 L 270 171 Z" fill="#000000" stroke="none" pointer-events="all" style="fill: rgb(0, 0, 0);"/><path d="M 229.96 142.17 C 231.93 142.17 233.52 143.88 233.52 145.99 C 233.52 148.09 231.93 149.8 229.96 149.8 C 227.99 149.8 226.39 148.09 226.39 145.99 C 226.39 143.88 227.99 142.17 229.96 142.17" fill="#000000" stroke="none" pointer-events="all" style="fill: rgb(0, 0, 0);"/><path d="M 233.52 152.8 C 233.52 153.84 232.74 154.69 231.76 154.69 L 226.7 154.69 C 225.73 154.69 224.94 153.84 224.94 152.8 C 224.94 151.77 225.73 150.93 226.7 150.93 L 231.76 150.93 C 232.73 150.93 233.52 151.77 233.52 152.8" fill="#000000" stroke="none" pointer-events="all" style="fill: rgb(0, 0, 0);"/><path d="M 260.81 143.65 C 262.37 143.65 263.64 144.97 263.65 146.64 L 263.66 154.69 L 235.06 154.69 L 235.06 143.66 L 260.81 143.65 Z" fill="#000000" stroke="none" pointer-events="all" style="fill: rgb(0, 0, 0);"/><path d="M 243.86 141.91 L 243.86 124.49 C 243.86 122.61 242.44 121.09 240.69 121.09 C 238.95 121.09 237.53 122.6 237.53 124.46 C 237.53 124.78 237.29 125.04 237 125.04 C 236.7 125.04 236.47 124.78 236.47 124.46 C 236.47 124.05 236.15 123.71 235.76 123.71 C 235.37 123.71 235.06 124.05 235.06 124.46 C 235.06 125.62 235.93 126.54 237 126.54 C 238.07 126.54 238.94 125.61 238.94 124.46 C 238.94 123.43 239.72 122.59 240.69 122.59 C 241.65 122.59 242.45 123.44 242.45 124.48 L 242.45 141.9 L 243.86 141.9 Z" fill="#000000" stroke="none" pointer-events="all" style="fill: rgb(0, 0, 0);"/><path d="M 237.96 136.62 L 239.75 136.62 C 239.75 136.62 240.1 134.99 240.1 132.38 C 240.1 129.77 239.75 128.14 239.75 128.14 L 235.17 128.14 C 235.17 128.14 234.76 129.46 234.76 132.38 C 234.76 135.3 235.17 136.62 235.17 136.62 L 236.99 136.62 C 236.99 136.63 236.99 136.64 236.99 136.64 C 236.99 136.67 237.05 139.82 235.12 141.91 L 236.39 141.91 C 237.98 139.62 237.96 136.84 237.96 136.62" fill="#000000" stroke="none" pointer-events="all" style="fill: rgb(0, 0, 0);"/><path d="M 250.65 135.25 L 270 135.25 L 270 115.5 L 250.65 115.5 L 250.65 135.25 Z M 252.31 119.99 C 252.31 118.53 253.4 117.35 254.77 117.35 L 265.89 117.35 C 267.25 117.35 268.35 118.53 268.35 119.99 L 268.35 127.15 L 266.86 127.15 L 265.93 124.46 C 265.88 124.29 265.73 124.18 265.57 124.19 C 265.41 124.19 265.26 124.3 265.2 124.46 C 265.2 124.46 264.94 125.26 264.69 126.04 C 264.29 124.28 263.47 120.56 263.47 120.56 C 263.42 120.36 263.25 120.23 263.06 120.24 C 262.87 120.25 262.72 120.41 262.7 120.6 C 262.7 120.6 262.06 126.66 261.88 128.4 C 261.55 127.86 261.22 127.34 261.22 127.34 C 261.14 127.22 261.02 127.15 260.89 127.15 L 259.39 127.15 C 259.23 126.7 258.47 124.46 258.47 124.46 C 258.41 124.29 258.26 124.18 258.1 124.19 C 257.93 124.19 257.79 124.3 257.73 124.46 C 257.73 124.46 257.47 125.26 257.21 126.04 C 256.82 124.28 255.99 120.56 255.99 120.56 C 255.95 120.36 255.78 120.23 255.59 120.24 C 255.4 120.25 255.25 120.41 255.22 120.6 C 255.22 120.6 254.59 126.66 254.4 128.4 C 254.07 127.86 253.74 127.34 253.74 127.34 C 253.67 127.22 253.55 127.15 253.42 127.15 L 252.31 127.15 L 252.31 119.99 Z M 265.89 133.61 L 254.77 133.61 C 253.4 133.61 252.31 132.43 252.31 130.97 L 252.31 127.99 L 253.22 127.99 C 253.41 128.3 254.36 129.82 254.36 129.82 C 254.45 129.97 254.61 130.03 254.77 129.99 C 254.93 129.95 255.05 129.81 255.07 129.63 C 255.07 129.63 255.49 125.64 255.76 123.08 C 256.21 125.1 256.77 127.6 256.77 127.6 C 256.81 127.78 256.95 127.91 257.12 127.93 C 257.3 127.94 257.45 127.82 257.51 127.65 C 257.51 127.65 257.83 126.69 258.11 125.83 C 258.41 126.71 258.76 127.71 258.76 127.71 C 258.81 127.87 258.96 127.99 259.12 127.99 L 260.68 127.99 C 260.87 128.3 261.82 129.82 261.82 129.82 C 261.91 129.97 262.07 130.03 262.23 129.99 C 262.4 129.95 262.51 129.81 262.53 129.63 C 262.53 129.63 262.95 125.64 263.22 123.08 C 263.67 125.11 264.23 127.61 264.23 127.61 C 264.27 127.79 264.42 127.92 264.59 127.93 C 264.76 127.94 264.92 127.83 264.98 127.66 C 264.98 127.66 265.3 126.69 265.58 125.84 C 265.88 126.71 266.22 127.72 266.22 127.72 C 266.28 127.88 266.42 127.99 266.58 127.99 L 268.35 127.99 L 268.35 130.97 C 268.35 132.42 267.25 133.61 265.89 133.61" fill="#000000" stroke="none" pointer-events="all" style="fill: rgb(0, 0, 0);"/></g></g><g data-cell-id="W1Vf1BQikMEJqxNUX5pf-29"><g transform="translate(0.5,0.5)"><rect x="288" y="115.5" width="51" height="55.5" fill="none" stroke="none" pointer-events="all"/><path d="M 338.99 171 L 334.35 171 L 334.35 162.6 L 292.68 162.6 L 292.68 171 L 288 171 L 288 139.34 C 288 137.98 289.01 136.87 290.29 136.87 L 290.29 136.87 C 291.56 136.87 292.68 137.98 292.68 139.35 L 292.68 156.6 L 334.36 156.6 L 334.36 144.37 C 334.36 143 335.4 141.88 336.68 141.88 C 337.97 141.88 339 143 339 144.37 L 339 171 Z" fill="#000000" stroke="none" pointer-events="all" style="fill: rgb(0, 0, 0);"/><path d="M 298.96 142.17 C 300.93 142.17 302.52 143.88 302.52 145.99 C 302.52 148.09 300.93 149.8 298.96 149.8 C 296.99 149.8 295.39 148.09 295.39 145.99 C 295.39 143.88 296.99 142.17 298.96 142.17" fill="#000000" stroke="none" pointer-events="all" style="fill: rgb(0, 0, 0);"/><path d="M 302.52 152.8 C 302.52 153.84 301.74 154.69 300.76 154.69 L 295.7 154.69 C 294.73 154.69 293.94 153.84 293.94 152.8 C 293.94 151.77 294.73 150.93 295.7 150.93 L 300.76 150.93 C 301.73 150.93 302.52 151.77 302.52 152.8" fill="#000000" stroke="none" pointer-events="all" style="fill: rgb(0, 0, 0);"/><path d="M 329.81 143.65 C 331.37 143.65 332.64 144.97 332.65 146.64 L 332.66 154.69 L 304.06 154.69 L 304.06 143.66 L 329.81 143.65 Z" fill="#000000" stroke="none" pointer-events="all" style="fill: rgb(0, 0, 0);"/><path d="M 312.86 141.91 L 312.86 124.49 C 312.86 122.61 311.44 121.09 309.69 121.09 C 307.95 121.09 306.53 122.6 306.53 124.46 C 306.53 124.78 306.29 125.04 306 125.04 C 305.7 125.04 305.47 124.78 305.47 124.46 C 305.47 124.05 305.15 123.71 304.76 123.71 C 304.37 123.71 304.06 124.05 304.06 124.46 C 304.06 125.62 304.93 126.54 306 126.54 C 307.07 126.54 307.94 125.61 307.94 124.46 C 307.94 123.43 308.72 122.59 309.69 122.59 C 310.65 122.59 311.45 123.44 311.45 124.48 L 311.45 141.9 L 312.86 141.9 Z" fill="#000000" stroke="none" pointer-events="all" style="fill: rgb(0, 0, 0);"/><path d="M 306.96 136.62 L 308.75 136.62 C 308.75 136.62 309.1 134.99 309.1 132.38 C 309.1 129.77 308.75 128.14 308.75 128.14 L 304.17 128.14 C 304.17 128.14 303.76 129.46 303.76 132.38 C 303.76 135.3 304.17 136.62 304.17 136.62 L 305.99 136.62 C 305.99 136.63 305.99 136.64 305.99 136.64 C 305.99 136.67 306.05 139.82 304.12 141.91 L 305.39 141.91 C 306.98 139.62 306.96 136.84 306.96 136.62" fill="#000000" stroke="none" pointer-events="all" style="fill: rgb(0, 0, 0);"/><path d="M 319.65 135.25 L 339 135.25 L 339 115.5 L 319.65 115.5 L 319.65 135.25 Z M 321.31 119.99 C 321.31 118.53 322.4 117.35 323.77 117.35 L 334.89 117.35 C 336.25 117.35 337.35 118.53 337.35 119.99 L 337.35 127.15 L 335.86 127.15 L 334.93 124.46 C 334.88 124.29 334.73 124.18 334.57 124.19 C 334.41 124.19 334.26 124.3 334.2 124.46 C 334.2 124.46 333.94 125.26 333.69 126.04 C 333.29 124.28 332.47 120.56 332.47 120.56 C 332.42 120.36 332.25 120.23 332.06 120.24 C 331.87 120.25 331.72 120.41 331.7 120.6 C 331.7 120.6 331.06 126.66 330.88 128.4 C 330.55 127.86 330.22 127.34 330.22 127.34 C 330.14 127.22 330.02 127.15 329.89 127.15 L 328.39 127.15 C 328.23 126.7 327.47 124.46 327.47 124.46 C 327.41 124.29 327.26 124.18 327.1 124.19 C 326.93 124.19 326.79 124.3 326.73 124.46 C 326.73 124.46 326.47 125.26 326.21 126.04 C 325.82 124.28 324.99 120.56 324.99 120.56 C 324.95 120.36 324.78 120.23 324.59 120.24 C 324.4 120.25 324.25 120.41 324.22 120.6 C 324.22 120.6 323.59 126.66 323.4 128.4 C 323.07 127.86 322.74 127.34 322.74 127.34 C 322.67 127.22 322.55 127.15 322.42 127.15 L 321.31 127.15 L 321.31 119.99 Z M 334.89 133.61 L 323.77 133.61 C 322.4 133.61 321.31 132.43 321.31 130.97 L 321.31 127.99 L 322.22 127.99 C 322.41 128.3 323.36 129.82 323.36 129.82 C 323.45 129.97 323.61 130.03 323.77 129.99 C 323.93 129.95 324.05 129.81 324.07 129.63 C 324.07 129.63 324.49 125.64 324.76 123.08 C 325.21 125.1 325.77 127.6 325.77 127.6 C 325.81 127.78 325.95 127.91 326.12 127.93 C 326.3 127.94 326.45 127.82 326.51 127.65 C 326.51 127.65 326.83 126.69 327.11 125.83 C 327.41 126.71 327.76 127.71 327.76 127.71 C 327.81 127.87 327.96 127.99 328.12 127.99 L 329.68 127.99 C 329.87 128.3 330.82 129.82 330.82 129.82 C 330.91 129.97 331.07 130.03 331.23 129.99 C 331.4 129.95 331.51 129.81 331.53 129.63 C 331.53 129.63 331.95 125.64 332.22 123.08 C 332.67 125.11 333.23 127.61 333.23 127.61 C 333.27 127.79 333.42 127.92 333.59 127.93 C 333.76 127.94 333.92 127.83 333.98 127.66 C 333.98 127.66 334.3 126.69 334.58 125.84 C 334.88 126.71 335.22 127.72 335.22 127.72 C 335.28 127.88 335.42 127.99 335.58 127.99 L 337.35 127.99 L 337.35 130.97 C 337.35 132.42 336.25 133.61 334.89 133.61" fill="#000000" stroke="none" pointer-events="all" style="fill: rgb(0, 0, 0);"/></g></g><g data-cell-id="W1Vf1BQikMEJqxNUX5pf-30"/><g data-cell-id="W1Vf1BQikMEJqxNUX5pf-33"><g><g><svg xmlns="http://www.w3.org/2000/svg" xmlns:xlink="http://www.w3.org/1999/xlink" width="60.29" height="50" xml:space="preserve" overflow="hidden" viewBox="18.5 31.42498779296875 205 169.57501220703125" x="499.71" y="70" style="font-family: initial;"><g transform="translate(-865 -377)"><g><g><g><g><path d="M1016 473 1016 465.5 986 435.5 956 465.5 956 473 883.5 473 883.5 483 888.5 483 888.5 578 1083.5 578 1083.5 483 1088.5 483 1088.5 473ZM913.5 558 898.5 558 898.5 543 913.5 543ZM913.5 533 898.5 533 898.5 518 913.5 518ZM913.5 508 898.5 508 898.5 493 913.5 493ZM938.5 558 923.5 558 923.5 543 938.5 543ZM938.5 533 923.5 533 923.5 518 938.5 518ZM938.5 508 923.5 508 923.5 493 938.5 493ZM963.5 558 948.5 558 948.5 543 963.5 543ZM963.5 533 948.5 533 948.5 518 963.5 518ZM963.5 508 948.5 508 948.5 493 963.5 493ZM976 568 976 533 996 533 996 568ZM1003.5 482.7 998.825 490.8 990.675 486.075 990.675 495.5 981.325 495.5 981.325 486.075 973.175 490.8 968.5 482.7 976.675 478 968.5 473.3 973.175 465.2 981.325 469.925 981.325 460.5 990.675 460.5 990.675 469.925 998.825 465.2 1003.5 473.3 995.325 478ZM1023.5 558 1008.5 558 1008.5 543 1023.5 543ZM1023.5 533 1008.5 533 1008.5 518 1023.5 518ZM1023.5 508 1008.5 508 1008.5 493 1023.5 493ZM1048.5 558 1033.5 558 1033.5 543 1048.5 543ZM1048.5 533 1033.5 533 1033.5 518 1048.5 518ZM1048.5 508 1033.5 508 1033.5 493 1048.5 493ZM1073.5 558 1058.5 558 1058.5 543 1073.5 543ZM1073.5 533 1058.5 533 1058.5 518 1073.5 518ZM1073.5 508 1058.5 508 1058.5 493 1073.5 493Z" fill="#000000" fill-rule="nonzero" fill-opacity="1"/><path d="M986 422.575 1022.47 459.025 1029.53 451.975 986 408.425 942.475 451.975 949.525 459.025 986 422.575Z" fill="#000000" fill-rule="nonzero" fill-opacity="1"/></g></g></g></g></g></svg></g></g></g><g data-cell-id="W1Vf1BQikMEJqxNUX5pf-34"><g><g><svg xmlns="http://www.w3.org/2000/svg" xmlns:xlink="http://www.w3.org/1999/xlink" width="60.29" height="50" xml:space="preserve" overflow="hidden" viewBox="18.5 31.42498779296875 205 169.57501220703125" x="440" y="14" style="font-family: initial;"><g transform="translate(-865 -377)"><g><g><g><g><path d="M1016 473 1016 465.5 986 435.5 956 465.5 956 473 883.5 473 883.5 483 888.5 483 888.5 578 1083.5 578 1083.5 483 1088.5 483 1088.5 473ZM913.5 558 898.5 558 898.5 543 913.5 543ZM913.5 533 898.5 533 898.5 518 913.5 518ZM913.5 508 898.5 508 898.5 493 913.5 493ZM938.5 558 923.5 558 923.5 543 938.5 543ZM938.5 533 923.5 533 923.5 518 938.5 518ZM938.5 508 923.5 508 923.5 493 938.5 493ZM963.5 558 948.5 558 948.5 543 963.5 543ZM963.5 533 948.5 533 948.5 518 963.5 518ZM963.5 508 948.5 508 948.5 493 963.5 493ZM976 568 976 533 996 533 996 568ZM1003.5 482.7 998.825 490.8 990.675 486.075 990.675 495.5 981.325 495.5 981.325 486.075 973.175 490.8 968.5 482.7 976.675 478 968.5 473.3 973.175 465.2 981.325 469.925 981.325 460.5 990.675 460.5 990.675 469.925 998.825 465.2 1003.5 473.3 995.325 478ZM1023.5 558 1008.5 558 1008.5 543 1023.5 543ZM1023.5 533 1008.5 533 1008.5 518 1023.5 518ZM1023.5 508 1008.5 508 1008.5 493 1023.5 493ZM1048.5 558 1033.5 558 1033.5 543 1048.5 543ZM1048.5 533 1033.5 533 1033.5 518 1048.5 518ZM1048.5 508 1033.5 508 1033.5 493 1048.5 493ZM1073.5 558 1058.5 558 1058.5 543 1073.5 543ZM1073.5 533 1058.5 533 1058.5 518 1073.5 518ZM1073.5 508 1058.5 508 1058.5 493 1073.5 493Z" fill="#000000" fill-rule="nonzero" fill-opacity="1"/><path d="M986 422.575 1022.47 459.025 1029.53 451.975 986 408.425 942.475 451.975 949.525 459.025 986 422.575Z" fill="#000000" fill-rule="nonzero" fill-opacity="1"/></g></g></g></g></g></svg></g></g></g><g data-cell-id="W1Vf1BQikMEJqxNUX5pf-35"><g><g><svg xmlns="http://www.w3.org/2000/svg" xmlns:xlink="http://www.w3.org/1999/xlink" width="60.29" height="50" xml:space="preserve" overflow="hidden" viewBox="18.5 31.42498779296875 205 169.57501220703125" x="500.29" y="14" style="font-family: initial;"><g transform="translate(-865 -377)"><g><g><g><g><path d="M1016 473 1016 465.5 986 435.5 956 465.5 956 473 883.5 473 883.5 483 888.5 483 888.5 578 1083.5 578 1083.5 483 1088.5 483 1088.5 473ZM913.5 558 898.5 558 898.5 543 913.5 543ZM913.5 533 898.5 533 898.5 518 913.5 518ZM913.5 508 898.5 508 898.5 493 913.5 493ZM938.5 558 923.5 558 923.5 543 938.5 543ZM938.5 533 923.5 533 923.5 518 938.5 518ZM938.5 508 923.5 508 923.5 493 938.5 493ZM963.5 558 948.5 558 948.5 543 963.5 543ZM963.5 533 948.5 533 948.5 518 963.5 518ZM963.5 508 948.5 508 948.5 493 963.5 493ZM976 568 976 533 996 533 996 568ZM1003.5 482.7 998.825 490.8 990.675 486.075 990.675 495.5 981.325 495.5 981.325 486.075 973.175 490.8 968.5 482.7 976.675 478 968.5 473.3 973.175 465.2 981.325 469.925 981.325 460.5 990.675 460.5 990.675 469.925 998.825 465.2 1003.5 473.3 995.325 478ZM1023.5 558 1008.5 558 1008.5 543 1023.5 543ZM1023.5 533 1008.5 533 1008.5 518 1023.5 518ZM1023.5 508 1008.5 508 1008.5 493 1023.5 493ZM1048.5 558 1033.5 558 1033.5 543 1048.5 543ZM1048.5 533 1033.5 533 1033.5 518 1048.5 518ZM1048.5 508 1033.5 508 1033.5 493 1048.5 493ZM1073.5 558 1058.5 558 1058.5 543 1073.5 543ZM1073.5 533 1058.5 533 1058.5 518 1073.5 518ZM1073.5 508 1058.5 508 1058.5 493 1073.5 493Z" fill="#000000" fill-rule="nonzero" fill-opacity="1"/><path d="M986 422.575 1022.47 459.025 1029.53 451.975 986 408.425 942.475 451.975 949.525 459.025 986 422.575Z" fill="#000000" fill-rule="nonzero" fill-opacity="1"/></g></g></g></g></g></svg></g></g></g><g data-cell-id="W1Vf1BQikMEJqxNUX5pf-36"><g><g><svg xmlns="http://www.w3.org/2000/svg" xmlns:xlink="http://www.w3.org/1999/xlink" width="60.29" height="50" xml:space="preserve" overflow="hidden" viewBox="18.5 31.42498779296875 205 169.57501220703125" x="440" y="121" style="font-family: initial;"><g transform="translate(-865 -377)"><g><g><g><g><path d="M1016 473 1016 465.5 986 435.5 956 465.5 956 473 883.5 473 883.5 483 888.5 483 888.5 578 1083.5 578 1083.5 483 1088.5 483 1088.5 473ZM913.5 558 898.5 558 898.5 543 913.5 543ZM913.5 533 898.5 533 898.5 518 913.5 518ZM913.5 508 898.5 508 898.5 493 913.5 493ZM938.5 558 923.5 558 923.5 543 938.5 543ZM938.5 533 923.5 533 923.5 518 938.5 518ZM938.5 508 923.5 508 923.5 493 938.5 493ZM963.5 558 948.5 558 948.5 543 963.5 543ZM963.5 533 948.5 533 948.5 518 963.5 518ZM963.5 508 948.5 508 948.5 493 963.5 493ZM976 568 976 533 996 533 996 568ZM1003.5 482.7 998.825 490.8 990.675 486.075 990.675 495.5 981.325 495.5 981.325 486.075 973.175 490.8 968.5 482.7 976.675 478 968.5 473.3 973.175 465.2 981.325 469.925 981.325 460.5 990.675 460.5 990.675 469.925 998.825 465.2 1003.5 473.3 995.325 478ZM1023.5 558 1008.5 558 1008.5 543 1023.5 543ZM1023.5 533 1008.5 533 1008.5 518 1023.5 518ZM1023.5 508 1008.5 508 1008.5 493 1023.5 493ZM1048.5 558 1033.5 558 1033.5 543 1048.5 543ZM1048.5 533 1033.5 533 1033.5 518 1048.5 518ZM1048.5 508 1033.5 508 1033.5 493 1048.5 493ZM1073.5 558 1058.5 558 1058.5 543 1073.5 543ZM1073.5 533 1058.5 533 1058.5 518 1073.5 518ZM1073.5 508 1058.5 508 1058.5 493 1073.5 493Z" fill="#000000" fill-rule="nonzero" fill-opacity="1"/><path d="M986 422.575 1022.47 459.025 1029.53 451.975 986 408.425 942.475 451.975 949.525 459.025 986 422.575Z" fill="#000000" fill-rule="nonzero" fill-opacity="1"/></g></g></g></g></g></svg></g></g></g><g data-cell-id="W1Vf1BQikMEJqxNUX5pf-37"><g><g><svg xmlns="http://www.w3.org/2000/svg" xmlns:xlink="http://www.w3.org/1999/xlink" width="60.29" height="50" xml:space="preserve" overflow="hidden" viewBox="18.5 31.42498779296875 205 169.57501220703125" x="500.29" y="121" style="font-family: initial;"><g transform="translate(-865 -377)"><g><g><g><g><path d="M1016 473 1016 465.5 986 435.5 956 465.5 956 473 883.5 473 883.5 483 888.5 483 888.5 578 1083.5 578 1083.5 483 1088.5 483 1088.5 473ZM913.5 558 898.5 558 898.5 543 913.5 543ZM913.5 533 898.5 533 898.5 518 913.5 518ZM913.5 508 898.5 508 898.5 493 913.5 493ZM938.5 558 923.5 558 923.5 543 938.5 543ZM938.5 533 923.5 533 923.5 518 938.5 518ZM938.5 508 923.5 508 923.5 493 938.5 493ZM963.5 558 948.5 558 948.5 543 963.5 543ZM963.5 533 948.5 533 948.5 518 963.5 518ZM963.5 508 948.5 508 948.5 493 963.5 493ZM976 568 976 533 996 533 996 568ZM1003.5 482.7 998.825 490.8 990.675 486.075 990.675 495.5 981.325 495.5 981.325 486.075 973.175 490.8 968.5 482.7 976.675 478 968.5 473.3 973.175 465.2 981.325 469.925 981.325 460.5 990.675 460.5 990.675 469.925 998.825 465.2 1003.5 473.3 995.325 478ZM1023.5 558 1008.5 558 1008.5 543 1023.5 543ZM1023.5 533 1008.5 533 1008.5 518 1023.5 518ZM1023.5 508 1008.5 508 1008.5 493 1023.5 493ZM1048.5 558 1033.5 558 1033.5 543 1048.5 543ZM1048.5 533 1033.5 533 1033.5 518 1048.5 518ZM1048.5 508 1033.5 508 1033.5 493 1048.5 493ZM1073.5 558 1058.5 558 1058.5 543 1073.5 543ZM1073.5 533 1058.5 533 1058.5 518 1073.5 518ZM1073.5 508 1058.5 508 1058.5 493 1073.5 493Z" fill="#000000" fill-rule="nonzero" fill-opacity="1"/><path d="M986 422.575 1022.47 459.025 1029.53 451.975 986 408.425 942.475 451.975 949.525 459.025 986 422.575Z" fill="#000000" fill-rule="nonzero" fill-opacity="1"/></g></g></g></g></g></svg></g></g></g></g></g></g></svg>