<svg width="4199" height="2430" xmlns="http://www.w3.org/2000/svg" xmlns:xlink="http://www.w3.org/1999/xlink" xml:space="preserve" overflow="hidden"><g transform="translate(-123 -45)"><g><g><g><g><path d="M415.035 1627.11 394.669 1638.87 394.669 1615.35 383.648 1615.35 383.648 1638.87 363.282 1627.11 357.771 1636.66 378.132 1648.42 357.771 1660.18 363.282 1669.72 383.648 1657.96 383.648 1681.48 394.669 1681.48 394.669 1657.96 415.035 1669.72 420.546 1660.18 400.179 1648.42 420.546 1636.66 415.035 1627.11Z" fill="#000000" fill-rule="nonzero" fill-opacity="1"/><path d="M444.604 1802.71 466.646 1802.71 466.646 1824.75 444.604 1824.75Z" fill="#000000" fill-rule="nonzero" fill-opacity="1"/><path d="M444.604 1764.14 466.646 1764.14 466.646 1786.17 444.604 1786.17Z" fill="#000000" fill-rule="nonzero" fill-opacity="1"/><path d="M494.198 1802.71 516.24 1802.71 516.24 1824.74 494.198 1824.74Z" fill="#000000" fill-rule="nonzero" fill-opacity="1"/><path d="M494.198 1764.14 516.24 1764.14 516.24 1786.18 494.198 1786.18Z" fill="#000000" fill-rule="nonzero" fill-opacity="1"/><path d="M444.604 1725.56 466.646 1725.56 466.646 1747.6 444.604 1747.6Z" fill="#000000" fill-rule="nonzero" fill-opacity="1"/><path d="M494.198 1725.56 516.24 1725.56 516.24 1747.6 494.198 1747.6Z" fill="#000000" fill-rule="nonzero" fill-opacity="1"/><path d="M543.792 1802.71 565.833 1802.71 565.833 1824.74 543.792 1824.74Z" fill="#000000" fill-rule="nonzero" fill-opacity="1"/><path d="M543.792 1764.14 565.833 1764.14 565.833 1786.18 543.792 1786.18Z" fill="#000000" fill-rule="nonzero" fill-opacity="1"/><path d="M543.792 1725.56 565.833 1725.56 565.833 1747.6 543.792 1747.6Z" fill="#000000" fill-rule="nonzero" fill-opacity="1"/><path d="M444.604 1686.99 466.646 1686.99 466.646 1709.03 444.604 1709.03Z" fill="#000000" fill-rule="nonzero" fill-opacity="1"/><path d="M494.198 1686.99 516.24 1686.99 516.24 1709.03 494.198 1709.03Z" fill="#000000" fill-rule="nonzero" fill-opacity="1"/><path d="M543.792 1686.99 565.833 1686.99 565.833 1709.03 543.792 1709.03Z" fill="#000000" fill-rule="nonzero" fill-opacity="1"/><path d="M213.167 1802.71 235.208 1802.71 235.208 1824.75 213.167 1824.75Z" fill="#000000" fill-rule="nonzero" fill-opacity="1"/><path d="M213.167 1764.14 235.208 1764.14 235.208 1786.17 213.167 1786.17Z" fill="#000000" fill-rule="nonzero" fill-opacity="1"/><path d="M262.761 1802.71 284.802 1802.71 284.802 1824.74 262.761 1824.74Z" fill="#000000" fill-rule="nonzero" fill-opacity="1"/><path d="M262.761 1764.14 284.802 1764.14 284.802 1786.18 262.761 1786.18Z" fill="#000000" fill-rule="nonzero" fill-opacity="1"/><path d="M213.167 1725.56 235.208 1725.56 235.208 1747.6 213.167 1747.6Z" fill="#000000" fill-rule="nonzero" fill-opacity="1"/><path d="M262.761 1725.56 284.802 1725.56 284.802 1747.6 262.761 1747.6Z" fill="#000000" fill-rule="nonzero" fill-opacity="1"/><path d="M312.354 1802.71 334.396 1802.71 334.396 1824.74 312.354 1824.74Z" fill="#000000" fill-rule="nonzero" fill-opacity="1"/><path d="M312.354 1764.14 334.396 1764.14 334.396 1786.18 312.354 1786.18Z" fill="#000000" fill-rule="nonzero" fill-opacity="1"/><path d="M312.354 1725.56 334.396 1725.56 334.396 1747.6 312.354 1747.6Z" fill="#000000" fill-rule="nonzero" fill-opacity="1"/><path d="M213.167 1686.99 235.208 1686.99 235.208 1709.03 213.167 1709.03Z" fill="#000000" fill-rule="nonzero" fill-opacity="1"/><path d="M262.761 1686.99 284.802 1686.99 284.802 1709.03 262.761 1709.03Z" fill="#000000" fill-rule="nonzero" fill-opacity="1"/><path d="M312.354 1686.99 334.396 1686.99 334.396 1709.03 312.354 1709.03Z" fill="#000000" fill-rule="nonzero" fill-opacity="1"/><path d="M604.406 1642.91 461.136 1642.91 461.136 1622.69 463.428 1624.99 492.137 1595.99 389.5 1497.52 284.626 1597.67 313.864 1626.72 317.865 1622.72 317.865 1642.91 163.573 1642.91 163.573 1653.93 174.594 1653.93 174.594 1868.83 604.406 1868.83 604.406 1653.93 615.427 1653.93 615.427 1642.91ZM313.837 1611.16 300.419 1597.83 389.5 1512.77 476.438 1596.19 463.406 1609.36 461.136 1607.09 389.5 1535.45 317.865 1607.09 317.865 1607.14ZM372.969 1857.81 372.969 1791.69 406.031 1791.69 406.031 1857.81ZM593.386 1857.81 417.052 1857.81 417.052 1780.67 361.948 1780.67 361.948 1857.81 185.615 1857.81 185.615 1653.93 328.886 1653.93 328.886 1611.69 336.275 1604.3 389.5 1551 437.882 1599.4 450.115 1611.68 450.115 1653.93 593.386 1653.93Z" fill="#000000" fill-rule="nonzero" fill-opacity="1"/></g></g></g><g><g><g><path d="M433.035 661.113 412.669 672.873 412.669 649.354 401.648 649.354 401.648 672.873 381.281 661.113 375.771 670.657 396.132 682.417 375.771 694.176 381.281 703.72 401.648 691.961 401.648 715.479 412.669 715.479 412.669 691.961 433.035 703.72 438.546 694.176 418.179 682.417 438.546 670.657 433.035 661.113Z" fill="#000000" fill-rule="nonzero" fill-opacity="1"/><path d="M462.604 836.714 484.646 836.714 484.646 858.75 462.604 858.75Z" fill="#000000" fill-rule="nonzero" fill-opacity="1"/><path d="M462.604 798.135 484.646 798.135 484.646 820.172 462.604 820.172Z" fill="#000000" fill-rule="nonzero" fill-opacity="1"/><path d="M512.198 836.708 534.24 836.708 534.24 858.745 512.198 858.745Z" fill="#000000" fill-rule="nonzero" fill-opacity="1"/><path d="M512.198 798.141 534.24 798.141 534.24 820.177 512.198 820.177Z" fill="#000000" fill-rule="nonzero" fill-opacity="1"/><path d="M462.604 759.562 484.646 759.562 484.646 781.599 462.604 781.599Z" fill="#000000" fill-rule="nonzero" fill-opacity="1"/><path d="M512.198 759.562 534.24 759.562 534.24 781.599 512.198 781.599Z" fill="#000000" fill-rule="nonzero" fill-opacity="1"/><path d="M561.792 836.708 583.833 836.708 583.833 858.745 561.792 858.745Z" fill="#000000" fill-rule="nonzero" fill-opacity="1"/><path d="M561.792 798.141 583.833 798.141 583.833 820.177 561.792 820.177Z" fill="#000000" fill-rule="nonzero" fill-opacity="1"/><path d="M561.792 759.562 583.833 759.562 583.833 781.599 561.792 781.599Z" fill="#000000" fill-rule="nonzero" fill-opacity="1"/><path d="M462.604 720.995 484.646 720.995 484.646 743.031 462.604 743.031Z" fill="#000000" fill-rule="nonzero" fill-opacity="1"/><path d="M512.198 720.99 534.24 720.99 534.24 743.026 512.198 743.026Z" fill="#000000" fill-rule="nonzero" fill-opacity="1"/><path d="M561.792 720.99 583.833 720.99 583.833 743.026 561.792 743.026Z" fill="#000000" fill-rule="nonzero" fill-opacity="1"/><path d="M231.167 836.714 253.208 836.714 253.208 858.75 231.167 858.75Z" fill="#000000" fill-rule="nonzero" fill-opacity="1"/><path d="M231.167 798.135 253.208 798.135 253.208 820.172 231.167 820.172Z" fill="#000000" fill-rule="nonzero" fill-opacity="1"/><path d="M280.76 836.708 302.802 836.708 302.802 858.745 280.76 858.745Z" fill="#000000" fill-rule="nonzero" fill-opacity="1"/><path d="M280.76 798.141 302.802 798.141 302.802 820.177 280.76 820.177Z" fill="#000000" fill-rule="nonzero" fill-opacity="1"/><path d="M231.167 759.562 253.208 759.562 253.208 781.599 231.167 781.599Z" fill="#000000" fill-rule="nonzero" fill-opacity="1"/><path d="M280.76 759.562 302.802 759.562 302.802 781.599 280.76 781.599Z" fill="#000000" fill-rule="nonzero" fill-opacity="1"/><path d="M330.354 836.708 352.396 836.708 352.396 858.745 330.354 858.745Z" fill="#000000" fill-rule="nonzero" fill-opacity="1"/><path d="M330.354 798.141 352.396 798.141 352.396 820.177 330.354 820.177Z" fill="#000000" fill-rule="nonzero" fill-opacity="1"/><path d="M330.354 759.562 352.396 759.562 352.396 781.599 330.354 781.599Z" fill="#000000" fill-rule="nonzero" fill-opacity="1"/><path d="M231.167 720.995 253.208 720.995 253.208 743.031 231.167 743.031Z" fill="#000000" fill-rule="nonzero" fill-opacity="1"/><path d="M280.76 720.99 302.802 720.99 302.802 743.026 280.76 743.026Z" fill="#000000" fill-rule="nonzero" fill-opacity="1"/><path d="M330.354 720.99 352.396 720.99 352.396 743.026 330.354 743.026Z" fill="#000000" fill-rule="nonzero" fill-opacity="1"/><path d="M622.406 676.906 479.135 676.906 479.135 656.694 481.428 658.992 510.137 629.991 407.5 531.519 302.626 631.671 331.864 660.722 335.865 656.716 335.865 676.906 181.573 676.906 181.573 687.927 192.594 687.927 192.594 902.833 622.406 902.833 622.406 687.927 633.427 687.927 633.427 676.906ZM331.836 645.155 318.419 631.826 407.5 546.772 494.438 630.194 481.406 643.364 479.135 641.089 407.5 569.453 335.865 641.089 335.865 641.138ZM390.969 891.812 390.969 825.688 424.031 825.688 424.031 891.812ZM611.385 891.812 435.052 891.812 435.052 814.667 379.948 814.667 379.948 891.812 203.615 891.812 203.615 687.927 346.885 687.927 346.885 645.69 354.275 638.3 407.5 585.004 455.881 633.396 468.115 645.679 468.115 687.927 611.385 687.927Z" fill="#000000" fill-rule="nonzero" fill-opacity="1"/></g></g></g><g><g><g><path d="M437.035 1135.11 416.669 1146.87 416.669 1123.35 405.648 1123.35 405.648 1146.87 385.282 1135.11 379.771 1144.66 400.132 1156.42 379.771 1168.18 385.282 1177.72 405.648 1165.96 405.648 1189.48 416.669 1189.48 416.669 1165.96 437.035 1177.72 442.546 1168.18 422.179 1156.42 442.546 1144.66 437.035 1135.11Z" fill="#000000" fill-rule="nonzero" fill-opacity="1"/><path d="M466.604 1310.71 488.646 1310.71 488.646 1332.75 466.604 1332.75Z" fill="#000000" fill-rule="nonzero" fill-opacity="1"/><path d="M466.604 1272.14 488.646 1272.14 488.646 1294.17 466.604 1294.17Z" fill="#000000" fill-rule="nonzero" fill-opacity="1"/><path d="M516.198 1310.71 538.24 1310.71 538.24 1332.74 516.198 1332.74Z" fill="#000000" fill-rule="nonzero" fill-opacity="1"/><path d="M516.198 1272.14 538.24 1272.14 538.24 1294.18 516.198 1294.18Z" fill="#000000" fill-rule="nonzero" fill-opacity="1"/><path d="M466.604 1233.56 488.646 1233.56 488.646 1255.6 466.604 1255.6Z" fill="#000000" fill-rule="nonzero" fill-opacity="1"/><path d="M516.198 1233.56 538.24 1233.56 538.24 1255.6 516.198 1255.6Z" fill="#000000" fill-rule="nonzero" fill-opacity="1"/><path d="M565.792 1310.71 587.833 1310.71 587.833 1332.74 565.792 1332.74Z" fill="#000000" fill-rule="nonzero" fill-opacity="1"/><path d="M565.792 1272.14 587.833 1272.14 587.833 1294.18 565.792 1294.18Z" fill="#000000" fill-rule="nonzero" fill-opacity="1"/><path d="M565.792 1233.56 587.833 1233.56 587.833 1255.6 565.792 1255.6Z" fill="#000000" fill-rule="nonzero" fill-opacity="1"/><path d="M466.604 1195 488.646 1195 488.646 1217.03 466.604 1217.03Z" fill="#000000" fill-rule="nonzero" fill-opacity="1"/><path d="M516.198 1194.99 538.24 1194.99 538.24 1217.03 516.198 1217.03Z" fill="#000000" fill-rule="nonzero" fill-opacity="1"/><path d="M565.792 1194.99 587.833 1194.99 587.833 1217.03 565.792 1217.03Z" fill="#000000" fill-rule="nonzero" fill-opacity="1"/><path d="M235.167 1310.71 257.208 1310.71 257.208 1332.75 235.167 1332.75Z" fill="#000000" fill-rule="nonzero" fill-opacity="1"/><path d="M235.167 1272.14 257.208 1272.14 257.208 1294.17 235.167 1294.17Z" fill="#000000" fill-rule="nonzero" fill-opacity="1"/><path d="M284.761 1310.71 306.802 1310.71 306.802 1332.74 284.761 1332.74Z" fill="#000000" fill-rule="nonzero" fill-opacity="1"/><path d="M284.761 1272.14 306.802 1272.14 306.802 1294.18 284.761 1294.18Z" fill="#000000" fill-rule="nonzero" fill-opacity="1"/><path d="M235.167 1233.56 257.208 1233.56 257.208 1255.6 235.167 1255.6Z" fill="#000000" fill-rule="nonzero" fill-opacity="1"/><path d="M284.761 1233.56 306.802 1233.56 306.802 1255.6 284.761 1255.6Z" fill="#000000" fill-rule="nonzero" fill-opacity="1"/><path d="M334.354 1310.71 356.396 1310.71 356.396 1332.74 334.354 1332.74Z" fill="#000000" fill-rule="nonzero" fill-opacity="1"/><path d="M334.354 1272.14 356.396 1272.14 356.396 1294.18 334.354 1294.18Z" fill="#000000" fill-rule="nonzero" fill-opacity="1"/><path d="M334.354 1233.56 356.396 1233.56 356.396 1255.6 334.354 1255.6Z" fill="#000000" fill-rule="nonzero" fill-opacity="1"/><path d="M235.167 1195 257.208 1195 257.208 1217.03 235.167 1217.03Z" fill="#000000" fill-rule="nonzero" fill-opacity="1"/><path d="M284.761 1194.99 306.802 1194.99 306.802 1217.03 284.761 1217.03Z" fill="#000000" fill-rule="nonzero" fill-opacity="1"/><path d="M334.354 1194.99 356.396 1194.99 356.396 1217.03 334.354 1217.03Z" fill="#000000" fill-rule="nonzero" fill-opacity="1"/><path d="M626.406 1150.91 483.136 1150.91 483.136 1130.69 485.428 1132.99 514.137 1103.99 411.5 1005.52 306.626 1105.67 335.864 1134.72 339.865 1130.72 339.865 1150.91 185.573 1150.91 185.573 1161.93 196.594 1161.93 196.594 1376.83 626.406 1376.83 626.406 1161.93 637.427 1161.93 637.427 1150.91ZM335.837 1119.16 322.419 1105.83 411.5 1020.77 498.438 1104.19 485.406 1117.36 483.136 1115.09 411.5 1043.45 339.865 1115.09 339.865 1115.14ZM394.969 1365.81 394.969 1299.69 428.031 1299.69 428.031 1365.81ZM615.386 1365.81 439.052 1365.81 439.052 1288.67 383.948 1288.67 383.948 1365.81 207.615 1365.81 207.615 1161.93 350.886 1161.93 350.886 1119.69 358.275 1112.3 411.5 1059 459.882 1107.4 472.115 1119.68 472.115 1161.93 615.386 1161.93Z" fill="#000000" fill-rule="nonzero" fill-opacity="1"/></g></g></g><g><g><g><path d="M313.615 321.761 313.615 77.3855C313.615 53.5752 252.761 40.7292 195.5 40.7292 138.239 40.7292 77.3855 53.5752 77.3855 77.3855L77.3855 321.761C77.3855 345.571 138.239 358.417 195.5 358.417 252.761 358.417 313.615 345.571 313.615 321.761ZM195.5 48.875C258.439 48.875 305.469 63.9448 305.469 77.3855 305.469 90.8261 258.439 105.896 195.5 105.896 132.561 105.896 85.5313 90.8261 85.5313 77.3855 85.5313 63.9448 132.561 48.875 195.5 48.875ZM85.5313 91.4778C103.978 106.222 150.832 114.042 195.5 114.042 240.168 114.042 287.023 106.222 305.469 91.4778L305.469 158.844C305.469 172.284 258.439 187.354 195.5 187.354 132.561 187.354 85.5313 172.284 85.5313 158.844ZM85.5313 172.936C103.978 187.68 150.832 195.5 195.5 195.5 240.168 195.5 287.023 187.68 305.469 172.936L305.469 240.302C305.469 253.743 258.439 268.813 195.5 268.813 132.561 268.813 85.5313 253.743 85.5313 240.302ZM85.5313 321.761 85.5313 254.395C103.978 269.138 150.832 276.958 195.5 276.958 240.168 276.958 287.023 269.138 305.469 254.395L305.469 321.761C305.469 335.201 258.439 350.271 195.5 350.271 132.561 350.271 85.5313 335.201 85.5313 321.761Z" fill="#000000" fill-rule="nonzero" fill-opacity="1" transform="matrix(1.00256 0 0 1 1463 536)"/><path d="M285.104 146.625C285.104 151.124 281.457 154.771 276.958 154.771 272.46 154.771 268.813 151.124 268.813 146.625 268.813 142.126 272.46 138.479 276.958 138.479 281.457 138.479 285.104 142.126 285.104 146.625Z" fill="#000000" fill-rule="nonzero" fill-opacity="1" transform="matrix(1.00256 0 0 1 1463 536)"/><path d="M285.104 228.083C285.104 232.582 281.457 236.229 276.958 236.229 272.46 236.229 268.813 232.582 268.813 228.083 268.813 223.585 272.46 219.938 276.958 219.938 281.457 219.938 285.104 223.585 285.104 228.083Z" fill="#000000" fill-rule="nonzero" fill-opacity="1" transform="matrix(1.00256 0 0 1 1463 536)"/><path d="M285.104 309.542C285.104 314.041 281.457 317.688 276.958 317.688 272.46 317.688 268.813 314.041 268.813 309.542 268.813 305.043 272.46 301.396 276.958 301.396 281.457 301.396 285.104 305.043 285.104 309.542Z" fill="#000000" fill-rule="nonzero" fill-opacity="1" transform="matrix(1.00256 0 0 1 1463 536)"/></g></g></g><g><g><g><path d="M2257.81 1577.81 2256.78 1577.81C2252.31 1577.47 2248.53 1574.03 2247.5 1569.56L2223.78 1443.75 2209 1488.44C2207.62 1492.56 2203.84 1495.31 2199.38 1495.31L2137.5 1495.31 2137.5 1474.69 2191.81 1474.69 2216.91 1399.41C2218.28 1394.94 2222.75 1392.19 2227.22 1392.53 2231.69 1392.88 2235.81 1396.31 2236.5 1400.78L2260.56 1529.69 2295.62 1436.88C2297.34 1432.75 2301.12 1430 2305.59 1430.34 2310.06 1430.69 2313.84 1433.44 2315.22 1437.91L2334.81 1502.19 2356.81 1478.12C2358.88 1476.06 2361.62 1474.69 2364.38 1474.69L2412.5 1474.69 2412.5 1495.31 2368.84 1495.31 2337.56 1529.69C2335.16 1532.44 2331.38 1533.47 2327.59 1532.78 2323.81 1532.09 2321.06 1529.34 2320.03 1525.56L2304.56 1472.62 2267.44 1571.28C2266.06 1575.06 2261.94 1577.81 2257.81 1577.81Z" fill="#000000" fill-rule="nonzero" fill-opacity="1"/></g></g></g><g><g><g><path d="M2350.62 1873C2350.62 1833.81 2324.5 1813.19 2296.66 1797.38 2324.5 1781.22 2350.62 1760.94 2350.62 1721.75L2330 1721.75C2330 1727.94 2328.97 1733.78 2327.25 1738.94L2222.75 1738.94C2221.03 1733.78 2220 1727.94 2220 1721.75L2199.38 1721.75C2199.38 1760.94 2225.5 1781.22 2253.34 1797.38 2225.5 1813.19 2199.38 1833.81 2199.38 1873 2199.38 1912.53 2225.5 1933.16 2253.34 1948.97 2225.5 1964.78 2199.38 1985.06 2199.38 2024.25L2220 2024.25C2220 2017.72 2221.03 2012.22 2222.75 2007.06L2327.25 2007.06C2328.97 2012.22 2330 2017.72 2330 2024.25L2350.62 2024.25C2350.62 1985.06 2324.5 1964.78 2296.66 1948.97 2324.5 1933.16 2350.62 1912.53 2350.62 1873ZM2220 1873C2220 1866.81 2221.03 1860.97 2222.75 1855.81L2327.59 1855.81C2329.31 1860.97 2330.34 1866.81 2330.34 1873 2330.34 1879.19 2329.31 1885.03 2327.59 1890.19L2222.75 1890.19C2221.03 1885.03 2220 1879.19 2220 1873ZM2235.81 1759.56 2313.84 1759.56C2303.88 1769.53 2289.78 1777.44 2274.66 1785.69 2259.88 1777.44 2245.78 1769.53 2235.81 1759.56ZM2275 1809.06C2290.12 1817.31 2304.22 1825.22 2314.19 1835.19L2235.81 1835.19C2245.78 1825.22 2259.88 1816.97 2275 1809.06ZM2275 1960.66C2290.12 1968.56 2303.88 1976.47 2313.84 1986.44L2236.16 1986.44C2246.12 1976.47 2259.88 1968.56 2275 1960.66ZM2275 1937.28C2259.53 1929.03 2245.44 1921.13 2235.47 1910.81L2314.53 1910.81C2304.56 1921.13 2290.47 1929.03 2275 1937.28Z" fill="#000000" fill-rule="nonzero" fill-opacity="1"/></g></g></g><g><g><g><path d="M140.327 104.944 129.069 57.0958C128.673 55.4328 127.84 53.9059 126.656 52.6729 121.669 48.6335 115.929 45.6268 109.769 43.827 105.403 42.8958 100.962 42.3574 96.4999 42.2187 92.0072 42.2963 87.5451 42.9724 83.2312 44.2291 77.0053 45.8622 71.2312 48.8867 66.3437 53.075 65.1598 54.3079 64.3268 55.8349 63.9312 57.4979L52.6729 105.346C52.4994 106.007 52.3653 106.679 52.2708 107.356 52.2708 111.797 55.8712 115.398 60.3124 115.398 63.9055 115.279 67.0023 112.834 67.952 109.367L76.3958 74.3853 76.3958 186.969 92.4791 186.969 92.4791 114.594 100.521 114.594 100.521 186.969 116.604 186.969 116.604 73.9833 125.048 108.964C125.998 112.432 129.094 114.877 132.687 114.996 137.129 114.996 140.729 111.395 140.729 106.954 140.635 106.277 140.5 105.605 140.327 104.944ZM60.3124 111.236C58.0917 111.236 56.2916 109.436 56.2916 107.215 56.2916 104.995 58.0917 103.195 60.3124 103.195 62.5331 103.195 64.3333 104.995 64.3333 107.215 64.3333 109.436 62.5331 111.236 60.3124 111.236ZM67.9118 84.5581 64.5946 99.033C64.3839 99.9683 63.5426 100.624 62.5842 100.601 62.4375 100.621 62.2887 100.621 62.1419 100.601 61.0599 100.352 60.3846 99.2731 60.6335 98.1911 60.6337 98.1903 60.6339 98.1895 60.6341 98.1887L63.9513 83.7137C64.2012 82.6033 65.3037 81.9057 66.4141 82.1556 67.5244 82.4055 68.222 83.508 67.9721 84.6184ZM72.9177 62.745 69.6006 77.1597C69.3899 78.095 68.5485 78.7512 67.5901 78.7278L67.1277 78.7278C66.0457 78.4788 65.3704 77.3998 65.6193 76.3178 65.6195 76.317 65.6197 76.3162 65.6199 76.3153L68.9371 61.8806C69.1862 60.7986 70.2652 60.1233 71.3472 60.3722 71.348 60.3724 71.3488 60.3726 71.3496 60.3728 72.4377 60.5945 73.1397 61.6564 72.9179 62.7442 72.9179 62.7444 72.9177 62.7448 72.9177 62.745ZM88.4583 178.927C88.4583 181.148 86.6581 182.948 84.4374 182.948 82.2167 182.948 80.4166 181.148 80.4166 178.927L80.4166 176.575C80.4166 174.354 82.2167 172.554 84.4374 172.554 86.6581 172.554 88.4583 174.354 88.4583 176.575ZM84.4374 141.312C85.5478 141.312 86.4478 142.212 86.4478 143.322L86.4478 166.864C86.4478 167.975 85.5478 168.875 84.4374 168.875 83.3271 168.875 82.427 167.975 82.427 166.864L82.427 143.282C82.4489 142.188 83.3426 141.312 84.4374 141.312ZM82.427 136.025 82.427 110.573C82.427 109.462 83.3271 108.562 84.4374 108.562 85.5478 108.562 86.4478 109.462 86.4478 110.573L86.4478 136.105C86.4478 137.215 85.5478 138.115 84.4374 138.115 83.3271 138.115 82.427 137.215 82.427 136.105ZM94.1678 105.125 93.3637 105.567C92.8979 105.755 92.3981 105.844 91.8961 105.828 88.016 105.828 80.9594 102.069 79.4315 98.7717 78.567 97.0813 79.2365 95.0102 80.9268 94.1455 81.0609 94.077 81.1994 94.0173 81.3414 93.9668 83.6124 92.7366 86.3915 92.9407 88.4583 94.4895 91.5738 96.9155 93.6622 100.425 94.3086 104.32ZM112.583 178.927C112.583 181.148 110.783 182.948 108.562 182.948 106.342 182.948 104.542 181.148 104.542 178.927L104.542 176.575C104.542 174.354 106.342 172.554 108.562 172.554 110.783 172.554 112.583 174.354 112.583 176.575ZM108.562 141.312C109.673 141.312 110.573 142.212 110.573 143.322L110.573 166.864C110.573 167.975 109.673 168.875 108.562 168.875 107.452 168.875 106.552 167.975 106.552 166.864L106.552 143.282C106.574 142.188 107.468 141.312 108.562 141.312ZM106.552 136.025 106.552 110.573C106.552 109.462 107.452 108.562 108.562 108.562 109.673 108.562 110.573 109.462 110.573 110.573L110.573 136.105C110.573 137.215 109.673 138.115 108.562 138.115 107.452 138.115 106.552 137.215 106.552 136.105ZM113.468 98.7717C111.94 102.069 104.883 105.828 101.003 105.828 100.501 105.844 100.001 105.755 99.5356 105.567L98.7717 105.245 98.6511 104.32C99.3077 100.419 101.411 96.9086 104.542 94.4895 106.599 92.9754 109.341 92.7724 111.598 93.9668 113.391 94.593 114.336 96.5536 113.71 98.3461 113.659 98.4918 113.598 98.634 113.528 98.7717ZM99.5155 56.2916 99.5155 60.3124 108.562 60.3124C109.673 60.3124 110.573 61.2125 110.573 62.3229 110.573 63.4332 109.673 64.3333 108.562 64.3333L99.5155 64.3333 99.5155 68.3541 108.562 68.3541C109.673 68.3541 110.573 69.2542 110.573 70.3645 110.573 71.4749 109.673 72.3749 108.562 72.3749L99.5155 72.3749 99.5155 76.3958 108.562 76.3958C109.673 76.3958 110.573 77.2958 110.573 78.4062 110.573 79.5165 109.673 80.4166 108.562 80.4166L99.5155 80.4166 99.5155 96.4999C99.5155 98.1653 98.1653 99.5155 96.4999 99.5155 94.8345 99.5155 93.4843 98.1653 93.4843 96.4999L93.4843 80.4166 84.4374 80.4166C83.3271 80.4166 82.427 79.5165 82.427 78.4062 82.427 77.2958 83.3271 76.3958 84.4374 76.3958L93.4843 76.3958 93.4843 72.3749 84.4374 72.3749C83.3271 72.3749 82.427 71.4749 82.427 70.3645 82.427 69.2542 83.3271 68.3541 84.4374 68.3541L93.4843 68.3541 93.4843 64.3333 84.4374 64.3333C83.3271 64.3333 82.427 63.4332 82.427 62.3229 82.427 61.2125 83.3271 60.3124 84.4374 60.3124L93.4843 60.3124 93.4843 56.2916 73.3801 56.2916C72.3032 56.0216 71.6488 54.9298 71.9188 53.8528 72.0991 53.1335 72.6608 52.5717 73.3801 52.3914L93.4843 52.3914 93.4843 47.9685C93.4843 46.3031 94.8345 44.9529 96.4999 44.9529 98.1653 44.9529 99.5155 46.3031 99.5155 47.9685L99.5155 52.2708 119.62 52.2708C120.697 52.5408 121.351 53.6326 121.081 54.7096 120.901 55.4289 120.339 55.9907 119.62 56.171ZM123.862 77.1999 120.625 62.745C120.375 61.6347 121.073 60.5322 122.183 60.2823 123.293 60.0324 124.396 60.73 124.646 61.8404L127.943 76.2349C128.193 77.3167 127.519 78.3965 126.437 78.6468 126.437 78.647 126.436 78.6472 126.435 78.6474 126.281 78.6671 126.126 78.6671 125.973 78.6474 124.996 78.7268 124.104 78.0897 123.862 77.1396ZM125.55 84.5983C125.3 83.5165 125.974 82.4367 127.056 82.1864 127.057 82.1862 127.057 82.186 127.058 82.1858 128.14 81.9355 129.22 82.6094 129.47 83.6912 129.47 83.692 129.471 83.6928 129.471 83.6936L132.808 98.1887C133.008 99.2504 132.333 100.28 131.28 100.521 131.133 100.54 130.985 100.54 130.838 100.521 129.879 100.544 129.038 99.8879 128.827 98.9526ZM133.029 111.297C130.808 111.297 129.008 109.496 129.008 107.276 129.008 105.055 130.808 103.255 133.029 103.255 135.25 103.255 137.05 105.055 137.05 107.276 137.017 109.473 135.227 111.236 133.029 111.236Z" fill="#000000" fill-rule="nonzero" fill-opacity="1" transform="matrix(1 0 0 1.00518 2161 1091)"/><path d="M96.4999 5.16677C88.4353 5.48286 82.1439 12.2595 82.427 20.3253 82.3872 23.4774 83.4545 26.5437 85.4426 28.9902L85.4426 30.88C85.4187 32.9792 86.8423 34.8192 88.8804 35.323L88.8804 38.1979C88.8804 39.3082 89.7805 40.2083 90.8909 40.2083L102.109 40.2083C103.219 40.2083 104.119 39.3082 104.119 38.1979L104.119 35.323C106.158 34.8192 107.581 32.9792 107.557 30.88L107.557 28.9902C109.545 26.5437 110.613 23.4774 110.573 20.3253 110.856 12.2595 104.564 5.48286 96.4999 5.16677ZM93.4843 38.1979 91.4739 38.1979 91.4739 34.1771 93.4843 34.1771ZM91.2527 26.1354C89.1432 26.1354 87.4329 24.4251 87.4329 22.3156 87.4329 20.2059 89.1432 18.4958 91.2527 18.4958 93.3625 18.4958 95.0725 20.2061 95.0725 22.3156 95.0725 22.3224 95.0725 22.3291 95.0725 22.3357 95.0725 24.4342 93.3713 26.1354 91.2728 26.1354 91.2662 26.1354 91.2594 26.1354 91.2527 26.1354ZM97.5051 38.1979 95.4947 38.1979 95.4947 34.1771 97.5051 34.1771ZM97.6257 30.88 95.3741 30.88C94.8301 30.8784 94.3902 30.4361 94.3918 29.8921 94.3924 29.7161 94.44 29.5436 94.5297 29.3923L95.6555 27.5226C95.9358 27.0562 96.5409 26.9054 97.0073 27.1856 97.1455 27.2687 97.2613 27.3845 97.3443 27.5226L98.4701 29.3923C98.7478 29.8601 98.5934 30.4646 98.1255 30.7421 97.9742 30.8319 97.8017 30.8794 97.6257 30.88ZM101.526 38.1979 99.5155 38.1979 99.5155 34.1771 101.526 34.1771ZM101.747 26.1354C99.6376 26.1465 97.9185 24.4452 97.9074 22.3357 97.8961 20.2262 99.5974 18.507 101.707 18.4959 103.817 18.4848 105.536 20.186 105.547 22.2957 105.547 22.309 105.547 22.3224 105.547 22.3357 105.536 24.4296 103.841 26.1243 101.747 26.1354Z" fill="#000000" fill-rule="nonzero" fill-opacity="1" transform="matrix(1 0 0 1.00518 2161 1091)"/></g></g></g><path d="M2423 1040 2147.84 1040 2147.84 1077.78 2110 1077.78 2110 1290 2385.17 1290 2385.17 1252.22 2423 1252.22ZM2364.53 1270.11 2130.64 1270.11 2130.64 1097.67 2364.53 1097.67ZM2402.36 1232.33 2385.17 1232.33 2385.17 1077.78 2168.47 1077.78 2168.47 1060.61 2402.36 1060.61Z" fill="#000000" fill-rule="evenodd" fill-opacity="1"/><g><g><g><path d="M314.417 322.583 314.417 77.5833C314.417 53.7122 253.408 40.8333 196 40.8333 138.592 40.8333 77.5833 53.7122 77.5833 77.5833L77.5833 322.583C77.5833 346.454 138.592 359.333 196 359.333 253.408 359.333 314.417 346.454 314.417 322.583ZM196 49C259.1 49 306.25 64.1083 306.25 77.5833 306.25 91.0583 259.1 106.167 196 106.167 132.9 106.167 85.75 91.0583 85.75 77.5833 85.75 64.1083 132.9 49 196 49ZM85.75 91.7116C104.243 106.493 151.218 114.333 196 114.333 240.782 114.333 287.757 106.493 306.25 91.7116L306.25 159.25C306.25 172.725 259.1 187.833 196 187.833 132.9 187.833 85.75 172.725 85.75 159.25ZM85.75 173.378C104.243 188.16 151.218 196 196 196 240.782 196 287.757 188.16 306.25 173.378L306.25 240.917C306.25 254.392 259.1 269.5 196 269.5 132.9 269.5 85.75 254.392 85.75 240.917ZM85.75 322.583 85.75 255.045C104.243 269.827 151.218 277.667 196 277.667 240.782 277.667 287.757 269.827 306.25 255.045L306.25 322.583C306.25 336.058 259.1 351.167 196 351.167 132.9 351.167 85.75 336.058 85.75 322.583Z" fill="#000000" fill-rule="nonzero" fill-opacity="1" transform="matrix(1 0 0 1 1461 960)"/><path d="M285.833 147C285.833 151.51 282.177 155.167 277.667 155.167 273.156 155.167 269.5 151.51 269.5 147 269.5 142.49 273.156 138.833 277.667 138.833 282.177 138.833 285.833 142.49 285.833 147Z" fill="#000000" fill-rule="nonzero" fill-opacity="1" transform="matrix(1 0 0 1 1461 960)"/><path d="M285.833 228.667C285.833 233.177 282.177 236.833 277.667 236.833 273.156 236.833 269.5 233.177 269.5 228.667 269.5 224.156 273.156 220.5 277.667 220.5 282.177 220.5 285.833 224.156 285.833 228.667Z" fill="#000000" fill-rule="nonzero" fill-opacity="1" transform="matrix(1 0 0 1 1461 960)"/><path d="M285.833 310.333C285.833 314.844 282.177 318.5 277.667 318.5 273.156 318.5 269.5 314.844 269.5 310.333 269.5 305.823 273.156 302.167 277.667 302.167 282.177 302.167 285.833 305.823 285.833 310.333Z" fill="#000000" fill-rule="nonzero" fill-opacity="1" transform="matrix(1 0 0 1 1461 960)"/></g></g></g><g><g><g><path d="M1791.42 1707.58 1791.42 1462.58C1791.42 1438.71 1730.41 1425.83 1673 1425.83 1615.59 1425.83 1554.58 1438.71 1554.58 1462.58L1554.58 1707.58C1554.58 1731.45 1615.59 1744.33 1673 1744.33 1730.41 1744.33 1791.42 1731.45 1791.42 1707.58ZM1673 1434C1736.1 1434 1783.25 1449.11 1783.25 1462.58 1783.25 1476.06 1736.1 1491.17 1673 1491.17 1609.9 1491.17 1562.75 1476.06 1562.75 1462.58 1562.75 1449.11 1609.9 1434 1673 1434ZM1562.75 1476.71C1581.24 1491.49 1628.22 1499.33 1673 1499.33 1717.78 1499.33 1764.76 1491.49 1783.25 1476.71L1783.25 1544.25C1783.25 1557.72 1736.1 1572.83 1673 1572.83 1609.9 1572.83 1562.75 1557.72 1562.75 1544.25ZM1562.75 1558.38C1581.24 1573.16 1628.22 1581 1673 1581 1717.78 1581 1764.76 1573.16 1783.25 1558.38L1783.25 1625.92C1783.25 1639.39 1736.1 1654.5 1673 1654.5 1609.9 1654.5 1562.75 1639.39 1562.75 1625.92ZM1562.75 1707.58 1562.75 1640.04C1581.24 1654.83 1628.22 1662.67 1673 1662.67 1717.78 1662.67 1764.76 1654.83 1783.25 1640.04L1783.25 1707.58C1783.25 1721.06 1736.1 1736.17 1673 1736.17 1609.9 1736.17 1562.75 1721.06 1562.75 1707.58Z" fill="#000000" fill-rule="nonzero" fill-opacity="1"/><path d="M1762.83 1532C1762.83 1536.51 1759.18 1540.17 1754.67 1540.17 1750.16 1540.17 1746.5 1536.51 1746.5 1532 1746.5 1527.49 1750.16 1523.83 1754.67 1523.83 1759.18 1523.83 1762.83 1527.49 1762.83 1532Z" fill="#000000" fill-rule="nonzero" fill-opacity="1"/><path d="M1762.83 1613.67C1762.83 1618.18 1759.18 1621.83 1754.67 1621.83 1750.16 1621.83 1746.5 1618.18 1746.5 1613.67 1746.5 1609.16 1750.16 1605.5 1754.67 1605.5 1759.18 1605.5 1762.83 1609.16 1762.83 1613.67Z" fill="#000000" fill-rule="nonzero" fill-opacity="1"/><path d="M1762.83 1695.33C1762.83 1699.84 1759.18 1703.5 1754.67 1703.5 1750.16 1703.5 1746.5 1699.84 1746.5 1695.33 1746.5 1690.82 1750.16 1687.17 1754.67 1687.17 1759.18 1687.17 1762.83 1690.82 1762.83 1695.33Z" fill="#000000" fill-rule="nonzero" fill-opacity="1"/></g></g></g><g><g><g><path d="M2257.06 786.75 2262.56 803.594 2259.47 806.688 2242.62 801.188C2242.62 801.188 2242.62 801.188 2242.28 800.844 2238.5 797.063 2238.5 790.875 2242.62 787.094 2246.75 783.313 2252.94 782.969 2257.06 786.75ZM2141.56 711.125 2238.5 808.063 2276.31 820.438 2263.94 782.969 2167 685.688 2141.56 711.125Z" fill="#000000" fill-rule="nonzero" fill-opacity="1"/><path d="M2119.91 679.156C2117.16 682.25 2117.5 687.063 2120.59 689.813L2134.34 703.563 2159.44 678.469 2145.69 664.719C2145.69 664.719 2145.69 664.719 2145.69 664.719 2142.59 661.625 2137.44 661.625 2134.69 664.719L2120.59 678.813C2120.25 678.813 2120.25 679.156 2119.91 679.156Z" fill="#000000" fill-rule="nonzero" fill-opacity="1"/><path d="M2341.62 806.688 2282.5 806.688 2287.31 820.438 2341.62 820.438Z" fill="#000000" fill-rule="nonzero" fill-opacity="1"/><path d="M2341.62 724.188 2219.94 724.188 2233.69 737.938 2341.62 737.938Z" fill="#000000" fill-rule="nonzero" fill-opacity="1"/><path d="M2169.75 753.75 2169.75 885.75C2169.75 893.313 2175.94 899.5 2183.5 899.5L2369.12 899.5C2376.69 899.5 2382.88 893.313 2382.88 885.75L2382.88 658.875C2382.88 651.313 2376.69 645.125 2369.12 645.125L2310.69 645.125 2310.69 638.25C2310.69 630.688 2304.5 624.5 2296.94 624.5L2255.69 624.5C2248.12 624.5 2241.94 630.688 2241.94 638.25L2241.94 645.125 2183.5 645.125C2175.94 645.125 2169.75 651.313 2169.75 658.875L2169.75 674 2173.53 677.781 2174.22 678.469 2190.38 694.625 2190.38 665.75 2228.19 665.75 2228.19 686.375 2324.44 686.375 2324.44 665.75 2362.25 665.75 2362.25 878.875 2190.38 878.875 2190.38 774.375 2169.75 753.75ZM2286.62 648.563C2286.62 654.406 2282.16 658.875 2276.31 658.875 2270.47 658.875 2266 654.406 2266 648.563 2266 642.719 2270.47 638.25 2276.31 638.25 2279.06 638.25 2281.81 639.281 2283.53 641.344 2285.59 643.063 2286.62 645.813 2286.62 648.563Z" fill="#000000" fill-rule="nonzero" fill-opacity="1"/><path d="M2341.62 765.438 2261.19 765.438 2274.94 779.188 2341.62 779.188Z" fill="#000000" fill-rule="nonzero" fill-opacity="1"/></g></g></g><g><g><g><path d="M2403.5 481.563 2403.5 289.063 2389.75 289.063 2389.75 320 2369.12 320 2369.12 271.875C2369.12 264.656 2370.5 261.906 2370.84 261.219 2373.94 260.531 2376 257.781 2376 254.344 2376 250.563 2372.91 247.469 2369.12 247.813L2314.47 247.813C2310.69 247.469 2307.59 250.563 2307.25 254.344 2307.25 257.438 2309.31 260.188 2312.41 261.219 2312.75 261.906 2314.12 264.656 2314.12 271.875L2314.12 320 2293.5 320 2293.5 271.875C2293.5 264.656 2294.88 261.906 2295.22 261.219 2298.31 260.531 2300.38 257.781 2300.38 254.344 2300.38 250.563 2297.28 247.469 2293.5 247.813L2238.84 247.813C2235.06 247.469 2231.97 250.563 2231.62 254.344 2231.62 257.438 2233.69 260.188 2236.78 261.219 2237.12 261.906 2238.5 264.656 2238.5 271.875L2238.5 320 2217.88 320 2217.88 271.875C2217.88 264.656 2219.25 261.906 2219.59 261.219 2222.69 260.531 2224.75 257.781 2224.75 254.344 2224.75 250.563 2221.66 247.469 2217.88 247.813L2163.22 247.813C2159.44 247.469 2156.34 250.563 2156 254.344 2156 257.438 2158.06 260.188 2161.16 261.219 2161.5 261.906 2162.88 264.656 2162.88 271.875L2162.88 320 2142.25 320 2142.25 289.063 2128.5 289.063 2128.5 481.563 2114.75 481.563 2114.75 502.188 2417.25 502.188 2417.25 481.563 2403.5 481.563ZM2356.41 261.563C2355.72 264.313 2355.38 267.75 2355.38 271.875L2355.38 302.813C2355.38 302.813 2348.5 299.375 2341.62 299.375 2334.75 299.375 2327.88 302.813 2327.88 302.813L2327.88 271.875C2327.88 267.75 2327.53 264.313 2326.84 261.563L2356.41 261.563ZM2280.78 261.563C2280.09 264.313 2279.75 267.75 2279.75 271.875L2279.75 302.813C2279.75 302.813 2272.88 299.375 2266 299.375 2259.12 299.375 2252.25 302.813 2252.25 302.813L2252.25 271.875C2252.25 267.75 2251.91 264.313 2251.22 261.563L2280.78 261.563ZM2205.16 261.563C2204.47 264.313 2204.12 267.75 2204.12 271.875L2204.12 302.813C2204.12 302.813 2197.25 299.375 2190.38 299.375 2183.5 299.375 2176.62 302.813 2176.62 302.813L2176.62 271.875C2176.62 267.75 2176.28 264.313 2175.59 261.563L2205.16 261.563ZM2389.75 481.563 2142.25 481.563 2142.25 333.75 2162.88 333.75 2162.88 440.313C2162.88 455.438 2175.25 467.813 2190.38 467.813 2205.5 467.813 2217.88 455.438 2217.88 440.313L2217.88 333.75 2238.5 333.75 2238.5 440.313C2238.5 455.438 2250.88 467.813 2266 467.813 2281.12 467.813 2293.5 455.438 2293.5 440.313L2293.5 333.75 2314.12 333.75 2314.12 440.313C2314.12 455.438 2326.5 467.813 2341.62 467.813 2356.75 467.813 2369.12 455.438 2369.12 440.313L2369.12 333.75 2389.75 333.75 2389.75 481.563Z" fill="#000000" fill-rule="nonzero" fill-opacity="1"/></g></g></g><path d="M2101 2070C2041.08 2070 1992.5 2061.9 1992.5 2051.92L1992.5 1178.08C1992.5 1168.1 1943.92 1160 1884 1160 1943.92 1160 1992.5 1151.9 1992.5 1141.92L1992.5 268.082C1992.5 258.096 2041.08 250 2101 250" stroke="#000000" stroke-width="13.75" stroke-linecap="butt" stroke-linejoin="miter" stroke-miterlimit="8" stroke-opacity="1" fill="none" fill-rule="evenodd"/><g><g><g><path d="M465.521 79.4791 79.4791 79.4791 249.792 249.792 249.792 420.104 249.792 465.521 295.208 420.104 295.208 249.792Z" fill="#000000" fill-rule="nonzero" fill-opacity="1" transform="matrix(1.1633 0 0 1 1375 1716)"/></g></g></g><g><g><g><path d="M3453.68 1159.39C3432.24 1159.39 3415.4 1142.03 3415.4 1121.1 3415.4 1100.18 3432.75 1082.82 3453.68 1082.82 3475.11 1082.82 3491.96 1100.18 3491.96 1121.1 3491.96 1142.03 3474.6 1159.39 3453.68 1159.39ZM3539.94 1097.11C3537.9 1089.97 3535.34 1083.33 3531.77 1077.21L3539.94 1053.22 3521.56 1034.84 3497.57 1043.01C3491.45 1039.44 3484.81 1036.89 3477.67 1034.84L3466.44 1012.39 3440.92 1012.39 3429.69 1034.84C3422.54 1036.89 3415.91 1039.44 3409.78 1043.01L3385.79 1034.84 3367.42 1053.22 3375.58 1077.21C3372.01 1083.33 3369.46 1089.97 3367.42 1097.11L3344.96 1108.34 3344.96 1133.86 3367.42 1145.09C3369.46 1152.24 3372.01 1158.88 3375.58 1165L3367.42 1188.99 3385.28 1206.85 3409.27 1198.69C3415.4 1202.26 3422.03 1204.81 3429.18 1206.85L3440.41 1229.31 3465.93 1229.31 3477.16 1206.85C3484.3 1204.81 3490.94 1202.26 3497.06 1198.69L3521.05 1206.85 3539.43 1188.99 3531.26 1165C3534.83 1158.88 3537.9 1151.73 3539.94 1145.09L3562.4 1133.86 3562.4 1108.34 3539.94 1097.11Z" fill="#000000" fill-rule="nonzero" fill-opacity="1"/><path d="M3338.32 1345.18C3316.89 1345.18 3300.04 1327.82 3300.04 1306.9 3300.04 1285.46 3317.4 1268.61 3338.32 1268.61 3359.76 1268.61 3376.6 1285.97 3376.6 1306.9 3376.6 1327.82 3359.76 1345.18 3338.32 1345.18L3338.32 1345.18ZM3416.42 1263 3424.58 1239.01 3406.21 1220.64 3382.22 1228.8C3376.09 1225.23 3368.95 1222.68 3362.31 1220.64L3351.08 1198.18 3325.56 1198.18 3314.33 1220.64C3307.19 1222.68 3300.55 1225.23 3294.43 1228.8L3270.44 1220.64 3252.57 1238.5 3260.23 1262.49C3256.66 1268.61 3254.1 1275.76 3252.06 1282.4L3229.6 1293.62 3229.6 1319.15 3252.06 1330.38C3254.1 1337.52 3256.66 1344.16 3260.23 1350.28L3252.57 1374.27 3270.44 1392.14 3294.43 1384.48C3300.55 1388.05 3307.19 1390.6 3314.33 1392.65L3325.56 1415.1 3351.08 1415.1 3362.31 1392.65C3369.46 1390.6 3376.09 1388.05 3382.22 1384.48L3406.21 1392.65 3424.07 1374.27 3416.42 1350.79C3419.99 1344.67 3422.54 1338.03 3424.58 1330.89L3447.04 1319.66 3447.04 1294.14 3424.58 1282.91C3422.54 1275.76 3419.99 1269.12 3416.42 1263Z" fill="#000000" fill-rule="nonzero" fill-opacity="1"/></g></g></g><g><g><g><path d="M1804.88 2275.62 1736.13 2275.62 1736.13 2234.38 1804.88 2234.38 1804.88 2275.62ZM1804.88 2330.62 1736.13 2330.62 1736.13 2289.38 1804.88 2289.38 1804.88 2330.62ZM1804.88 2385.62 1736.13 2385.62 1736.13 2344.38 1804.88 2344.38 1804.88 2385.62ZM1653.63 2385.62 1653.63 2344.38 1722.38 2344.38 1722.38 2385.62 1653.63 2385.62ZM1571.13 2385.62 1571.13 2344.38 1639.88 2344.38 1639.88 2385.62 1571.13 2385.62ZM1571.13 2289.38 1639.88 2289.38 1639.88 2330.62 1571.13 2330.62 1571.13 2289.38ZM1571.13 2234.38 1639.88 2234.38 1639.88 2275.62 1571.13 2275.62 1571.13 2234.38ZM1722.38 2289.38 1722.38 2330.62 1653.63 2330.62 1653.63 2289.38 1722.38 2289.38ZM1722.38 2234.38 1722.38 2275.62 1653.63 2275.62 1653.63 2234.38 1722.38 2234.38ZM1550.5 2213.75 1550.5 2406.25 1825.5 2406.25 1825.5 2213.75 1550.5 2213.75Z" fill="#000000" fill-rule="nonzero" fill-opacity="1"/></g></g></g><path d="M2638.5 1181.62 3014.5 1181.62 3014.5 1121.5 3139.5 1246.5 3014.5 1371.5 3014.5 1311.38 2638.5 1311.38Z" stroke="#000000" stroke-width="6.875" stroke-linecap="butt" stroke-linejoin="miter" stroke-miterlimit="8" stroke-opacity="1" fill="#000000" fill-rule="evenodd" fill-opacity="1"/><text fill="#000000" fill-opacity="1" font-family="Aptos,Aptos_MSFontService,sans-serif" font-style="normal" font-variant="normal" font-weight="700" font-stretch="normal" font-size="83" text-anchor="start" direction="ltr" writing-mode="lr-tb" unicode-bidi="normal" text-decoration="none" transform="matrix(1 0 0 1 3713.81 1697)">What happens </text><text fill="#000000" fill-opacity="1" font-family="Aptos,Aptos_MSFontService,sans-serif" font-style="normal" font-variant="normal" font-weight="700" font-stretch="normal" font-size="83" text-anchor="start" direction="ltr" writing-mode="lr-tb" unicode-bidi="normal" text-decoration="none" transform="matrix(1 0 0 1 3713.81 1796)">at T+1?</text><g><g><g><path d="M2840.5 1970.56 2682.38 1970.56 2682.38 2053.06C2682.4 2060.65 2688.54 2066.79 2696.12 2066.81L2833.62 2066.81 2833.62 2084 2854.25 2084 2854.25 1984.31C2854.23 1976.73 2848.08 1970.59 2840.5 1970.56Z" fill="#000000" fill-rule="nonzero" fill-opacity="1"/><path d="M2572.38 1929.31C2572.48 1923.72 2568.03 1919.1 2562.44 1919 2562.31 1919 2562.19 1919 2562.06 1919 2556.47 1918.9 2551.85 1923.35 2551.75 1928.94 2551.75 1929.06 2551.75 1929.19 2551.75 1929.31L2551.75 2084 2572.38 2084 2572.38 2049.62 2672.06 2049.62 2672.06 2015.25 2572.38 1974Z" fill="#000000" fill-rule="nonzero" fill-opacity="1"/><path d="M2626.96 1954.37C2626.96 1965.76 2617.72 1974.99 2606.33 1974.99 2594.94 1974.99 2585.71 1965.76 2585.71 1954.37 2585.71 1942.97 2594.94 1933.74 2606.33 1933.74 2617.72 1933.74 2626.96 1942.97 2626.96 1954.37Z" fill="#000000" fill-rule="nonzero" fill-opacity="1"/><path d="M2620.54 1983.58 2672.06 2005.05 2672.06 1967.81 2665.48 1965.06C2647.96 1957.83 2627.88 1966.1 2620.54 1983.58Z" fill="#000000" fill-rule="nonzero" fill-opacity="1"/><path d="M2792.38 1860.56 2716.75 1860.56C2712.95 1860.56 2709.88 1863.64 2709.88 1867.44L2709.88 1921.49C2709.88 1925.29 2712.95 1928.36 2716.75 1928.36L2792.38 1928.36C2796.17 1928.36 2799.25 1925.29 2799.25 1921.49L2799.25 1867.44C2799.25 1863.64 2796.17 1860.56 2792.38 1860.56ZM2793.15 1896.91 2781.05 1896.91 2772.35 1906.46C2771.29 1907.63 2769.47 1907.71 2768.3 1906.65 2767.91 1906.29 2767.63 1905.84 2767.48 1905.33L2763.19 1890.65 2752.86 1917.97C2752.44 1919.09 2751.37 1919.82 2750.18 1919.82L2749.93 1919.82C2748.65 1919.71 2747.6 1918.75 2747.37 1917.49L2740.81 1882.52 2736.66 1894.94C2736.28 1896.11 2735.18 1896.91 2733.94 1896.91L2716.75 1896.91 2716.75 1891.18 2731.88 1891.18 2738.86 1870.21C2739.37 1868.71 2741 1867.91 2742.5 1868.42 2743.48 1868.75 2744.2 1869.58 2744.39 1870.6L2751.08 1906.4 2760.84 1880.62C2761.4 1879.14 2763.05 1878.39 2764.53 1878.95 2765.38 1879.26 2766.02 1879.96 2766.27 1880.83L2771.55 1898.82 2777.66 1892.14C2778.2 1891.53 2778.97 1891.18 2779.78 1891.18L2793.15 1891.18Z" fill="#000000" fill-rule="nonzero" fill-opacity="1"/></g></g></g><path d="M2560 2152 3929.69 2160.82" stroke="#000000" stroke-width="27.5" stroke-linecap="butt" stroke-linejoin="round" stroke-miterlimit="10" stroke-dasharray="27.5 82.5" stroke-opacity="1" fill="none" fill-rule="evenodd"/><path d="M2546 2213.25 3222.65 2213.25 3222.65 2240.75 2546 2240.75ZM3208.9 2185.75 3291.4 2227 3208.9 2268.25Z" fill="#C00000" fill-rule="nonzero" fill-opacity="1"/><text fill="#000000" fill-opacity="1" font-family="Aptos,Aptos_MSFontService,sans-serif" font-style="normal" font-variant="normal" font-weight="400" font-stretch="normal" font-size="83" text-anchor="start" direction="ltr" writing-mode="lr-tb" unicode-bidi="normal" text-decoration="none" transform="matrix(1 0 0 1 3247.79 689)">Machine </text><text fill="#000000" fill-opacity="1" font-family="Aptos,Aptos_MSFontService,sans-serif" font-style="normal" font-variant="normal" font-weight="400" font-stretch="normal" font-size="83" text-anchor="start" direction="ltr" writing-mode="lr-tb" unicode-bidi="normal" text-decoration="none" transform="matrix(1 0 0 1 3247.79 788)">Learning</text><text fill="#000000" fill-opacity="1" font-family="Aptos,Aptos_MSFontService,sans-serif" font-style="normal" font-variant="normal" font-weight="400" font-stretch="normal" font-size="83" text-anchor="start" direction="ltr" writing-mode="lr-tb" unicode-bidi="normal" text-decoration="none" transform="matrix(1 0 0 1 2096.59 150)">Modalities</text><text fill="#000000" fill-opacity="1" font-family="Aptos,Aptos_MSFontService,sans-serif" font-style="normal" font-variant="normal" font-weight="400" font-stretch="normal" font-size="83" text-anchor="start" direction="ltr" writing-mode="lr-tb" unicode-bidi="normal" text-decoration="none" transform="matrix(1 0 0 1 2654.42 2384)">Patient</text><text fill="#000000" fill-opacity="1" font-family="Aptos,Aptos_MSFontService,sans-serif" font-style="normal" font-variant="normal" font-weight="400" font-stretch="normal" font-size="83" text-anchor="start" direction="ltr" writing-mode="lr-tb" unicode-bidi="normal" text-decoration="none" transform="matrix(1 0 0 1 2921.33 2384)">timelin</text><text fill="#000000" fill-opacity="1" font-family="Aptos,Aptos_MSFontService,sans-serif" font-style="normal" font-variant="normal" font-weight="400" font-stretch="normal" font-size="83" text-anchor="start" direction="ltr" writing-mode="lr-tb" unicode-bidi="normal" text-decoration="none" transform="matrix(1 0 0 1 3167.68 2384)">e</text><text fill="#000000" fill-opacity="1" font-family="Aptos,Aptos_MSFontService,sans-serif" font-style="normal" font-variant="normal" font-weight="400" font-stretch="normal" font-size="83" text-anchor="start" direction="ltr" writing-mode="lr-tb" unicode-bidi="normal" text-decoration="none" transform="matrix(1 0 0 1 1528.59 162)">Data</text><text fill="#000000" fill-opacity="1" font-family="Aptos,Aptos_MSFontService,sans-serif" font-style="normal" font-variant="normal" font-weight="400" font-stretch="normal" font-size="83" text-anchor="start" direction="ltr" writing-mode="lr-tb" unicode-bidi="normal" text-decoration="none" transform="matrix(1 0 0 1 238.649 178)">Clinical </text><text fill="#000000" fill-opacity="1" font-family="Aptos,Aptos_MSFontService,sans-serif" font-style="normal" font-variant="normal" font-weight="400" font-stretch="normal" font-size="83" text-anchor="start" direction="ltr" writing-mode="lr-tb" unicode-bidi="normal" text-decoration="none" transform="matrix(1 0 0 1 238.649 277)">centers</text><text fill="#000000" fill-opacity="1" font-family="Aptos,Aptos_MSFontService,sans-serif" font-style="normal" font-variant="normal" font-weight="400" font-stretch="normal" font-size="83" text-anchor="start" direction="ltr" writing-mode="lr-tb" unicode-bidi="normal" text-decoration="none" transform="matrix(1 0 0 1 2562.6 2376)">T</text><path d="M818.5 1135.86 1194 1135.86 1194 1075.5 1319.5 1201 1194 1326.5 1194 1266.14 818.5 1266.14Z" stroke="#000000" stroke-width="6.875" stroke-linecap="butt" stroke-linejoin="miter" stroke-miterlimit="8" stroke-opacity="1" fill="#000000" fill-rule="evenodd" fill-opacity="1"/><path d="M3313.62 1777.5 3313.62 1613.5 3253.5 1613.5 3378.5 1488.5 3503.5 1613.5 3443.38 1613.5 3443.38 1777.5Z" stroke="#000000" stroke-width="6.875" stroke-linecap="butt" stroke-linejoin="miter" stroke-miterlimit="8" stroke-opacity="1" fill="#000000" fill-rule="evenodd" fill-opacity="1"/><text fill="#000000" fill-opacity="1" font-family="Aptos,Aptos_MSFontService,sans-serif" font-style="normal" font-variant="normal" font-weight="400" font-stretch="normal" font-size="83" text-anchor="start" direction="ltr" writing-mode="lr-tb" unicode-bidi="normal" text-decoration="none" transform="matrix(1 0 0 1 3783.16 2336)">T +1</text><path d="M3952.38 1897.5 3952.38 2017.5 4012.5 2017.5 3887.5 2137.5 3762.5 2017.5 3822.62 2017.5 3822.62 1897.5Z" stroke="#000000" stroke-width="6.875" stroke-linecap="butt" stroke-linejoin="miter" stroke-miterlimit="8" stroke-opacity="1" fill="#000000" fill-rule="evenodd" fill-opacity="1"/><g><g><g><path d="M233.406 239.469 233.406 57.5937C233.406 39.873 188.116 30.3125 145.5 30.3125 102.884 30.3125 57.5937 39.873 57.5937 57.5937L57.5937 239.469C57.5937 257.189 102.884 266.75 145.5 266.75 188.116 266.75 233.406 257.189 233.406 239.469ZM145.5 36.375C192.342 36.375 227.344 47.5906 227.344 57.5937 227.344 67.5968 192.342 78.8124 145.5 78.8124 98.658 78.8124 63.6562 67.5968 63.6562 57.5937 63.6562 47.5906 98.658 36.375 145.5 36.375ZM63.6562 68.0818C77.3847 79.0549 112.256 84.8749 145.5 84.8749 178.744 84.8749 213.615 79.0549 227.344 68.0818L227.344 118.219C227.344 128.222 192.342 139.437 145.5 139.437 98.658 139.437 63.6562 128.222 63.6562 118.219ZM63.6562 128.707C77.3847 139.68 112.256 145.5 145.5 145.5 178.744 145.5 213.615 139.68 227.344 128.707L227.344 178.844C227.344 188.847 192.342 200.062 145.5 200.062 98.658 200.062 63.6562 188.847 63.6562 178.844ZM63.6562 239.469 63.6562 189.332C77.3847 200.305 112.256 206.125 145.5 206.125 178.744 206.125 213.615 200.305 227.344 189.332L227.344 239.469C227.344 249.472 192.342 260.687 145.5 260.687 98.658 260.687 63.6562 249.472 63.6562 239.469Z" fill="#000000" fill-rule="nonzero" fill-opacity="1" transform="matrix(1.00344 0 0 1 3220 1794)"/><path d="M212.187 109.125C212.187 112.473 209.473 115.187 206.125 115.187 202.777 115.187 200.062 112.473 200.062 109.125 200.062 105.777 202.777 103.062 206.125 103.062 209.473 103.062 212.187 105.777 212.187 109.125Z" fill="#000000" fill-rule="nonzero" fill-opacity="1" transform="matrix(1.00344 0 0 1 3220 1794)"/><path d="M212.187 169.75C212.187 173.098 209.473 175.812 206.125 175.812 202.777 175.812 200.062 173.098 200.062 169.75 200.062 166.402 202.777 163.687 206.125 163.687 209.473 163.687 212.187 166.402 212.187 169.75Z" fill="#000000" fill-rule="nonzero" fill-opacity="1" transform="matrix(1.00344 0 0 1 3220 1794)"/><path d="M212.187 230.375C212.187 233.723 209.473 236.437 206.125 236.437 202.777 236.437 200.062 233.723 200.062 230.375 200.062 227.027 202.777 224.312 206.125 224.312 209.473 224.312 212.187 227.027 212.187 230.375Z" fill="#000000" fill-rule="nonzero" fill-opacity="1" transform="matrix(1.00344 0 0 1 3220 1794)"/></g></g></g><text fill="#000000" fill-opacity="1" font-family="Aptos,Aptos_MSFontService,sans-serif" font-style="normal" font-variant="normal" font-weight="400" font-stretch="normal" font-size="83" text-anchor="start" direction="ltr" writing-mode="lr-tb" unicode-bidi="normal" text-decoration="none" transform="matrix(1 0 0 1 3426.57 2120)">T</text><path d="M3589.5 1191.5 3795.94 1191.5C3888.96 1191.5 3964.38 1266.91 3964.38 1359.94L3964.38 1480.25 4012.5 1480.25 3916.25 1576.5 3820 1480.25 3868.12 1480.25 3868.12 1359.94C3868.12 1320.07 3835.81 1287.75 3795.94 1287.75L3589.5 1287.75Z" stroke="#000000" stroke-width="6.875" stroke-linecap="butt" stroke-linejoin="miter" stroke-miterlimit="8" stroke-opacity="1" fill="#000000" fill-rule="evenodd" fill-opacity="1"/></g></g></svg>